<svg width="131" height="131" viewBox="0 0 131 131" fill="none" xmlns="http://www.w3.org/2000/svg">
<path d="M79.2197 17.9531C81.5493 17.9531 83.8851 18.1335 86.2085 17.9127C90.4229 17.5115 95.8504 21.4707 96.4382 27.4763C96.6033 29.2319 96.5332 31.0016 96.2298 32.7386C95.0012 39.9697 98.9171 47.4371 105.29 50.1771C106.251 50.5635 107.269 50.7904 108.304 50.8489C110.518 51.0355 111.579 51.8721 112.176 54.0026C112.938 56.7395 112.605 59.4639 111.8 62.0889C111.212 64.0109 109.934 64.7791 107.912 64.7916C105.526 64.7916 103.141 64.8662 100.758 64.7698C99.3992 64.7138 98.7989 65.0124 98.9202 66.5301C99.0726 68.4335 98.9979 70.3587 98.9855 72.2745C98.9668 74.6413 98.1115 75.817 95.8379 76.439C93.677 77.0224 91.3983 77.0095 89.2441 76.4017C87.067 75.8138 86.364 74.8124 86.3298 72.5918C86.3018 70.6231 86.2801 68.6543 86.3298 66.6825C86.3609 65.6655 85.9877 65.3296 84.9831 65.342C81.7702 65.3887 78.5604 65.3607 75.3413 65.342C71.8515 65.342 70.3212 64.098 69.6339 60.7142C69.1798 58.4687 68.9527 56.217 69.6526 53.9652C70.4239 51.4989 72.3212 49.9936 74.8965 49.8599C78.0067 49.6951 79.621 48.112 79.677 44.9614C79.736 41.5403 79.7205 38.1192 79.677 34.698C79.6241 29.7809 76.5107 26.3194 71.4005 25.6351C70.0258 25.4516 69.5126 25.0131 69.6339 23.6042C69.7365 22.2086 69.7365 20.8074 69.6339 19.4118C69.5654 18.2766 69.9076 17.8567 71.1051 17.8909C73.8297 18.006 76.5325 17.9562 79.2197 17.9531Z" fill="white"/>
<path d="M17.1413 50.3917C17.1413 48.2146 17.3186 46.022 17.104 43.8605C16.6281 39.102 20.9887 34.1693 26.0709 33.4042C28.1641 33.0932 30.1889 33.3545 32.2448 33.5877C38.6022 34.303 43.8585 32.241 47.8459 27.1809C49.1061 25.5857 49.8812 23.6619 50.079 21.6386C50.3714 18.8613 51.4569 17.6452 54.2282 17.3373C56.3436 17.0828 58.4874 17.2039 60.5607 17.695C62.9867 18.2921 63.982 19.6202 63.982 22.1456C63.982 24.5311 64.0348 26.9134 63.9602 29.2989C63.926 30.4185 64.1997 30.8881 65.4127 30.8104C67.2789 30.6891 69.145 30.7109 71.0112 30.6953C73.8353 30.6704 75.1634 31.6283 75.7512 34.3652C76.2426 36.497 76.1643 38.7206 75.5242 40.8125C74.9426 42.6475 73.8913 43.3846 71.9505 43.397C70.0843 43.397 68.2182 43.4966 66.352 43.366C64.9057 43.2664 64.3832 43.6148 64.4516 45.1854C64.5885 48.3919 64.5076 51.6078 64.489 54.8267C64.4703 57.8467 63.3537 59.3053 60.4456 60.0206C58.386 60.5724 56.2324 60.6785 54.1286 60.3316C51.0184 59.7501 49.1833 57.8871 49.0993 54.7334C49.0154 51.5798 47.2332 50.23 44.5677 50.0838C40.7434 49.8376 36.9069 49.8511 33.0846 50.1242C28.6151 50.4912 25.9309 53.2126 24.9698 57.6321C24.4193 60.1388 24.4193 60.1388 21.788 60.1388C20.7025 60.1388 19.6108 60.0673 18.5285 60.1388C17.4461 60.2104 17.0884 59.8807 17.1195 58.7704C17.1879 55.9868 17.1258 53.1877 17.1413 50.3917Z" fill="#C84CFF"/>
<path d="M111.757 79.6581C111.757 81.9378 111.548 84.2393 111.8 86.5004C112.317 91.1283 107.757 96.655 101.639 96.938C98.9828 97.0624 96.392 96.4093 93.742 96.515C88.1809 96.7389 83.8327 99.1524 80.6416 103.668C79.6769 105.025 79.08 106.609 78.9092 108.265C78.5764 111.409 77.6837 112.429 74.5548 112.868C72.2909 113.198 69.9817 113.007 67.8024 112.311C65.7434 111.649 65.0373 110.539 65.0311 108.365C65.0311 105.774 64.9969 103.183 65.0311 100.589C65.0498 99.6749 64.8694 99.3265 63.8399 99.3763C61.6627 99.4789 59.4855 99.423 57.3083 99.4105C55.0813 99.4105 53.8248 98.4775 53.2649 96.3004C52.6846 94.0841 52.7072 91.753 53.3303 89.5483C53.8808 87.6045 54.9227 86.8612 56.9444 86.855C59.0159 86.855 61.0873 86.8083 63.165 86.8736C64.1198 86.9016 64.4091 86.5937 64.4091 85.6296C64.3562 82.3173 64.3717 79.0019 64.4091 75.6772C64.434 72.2218 65.6034 70.8098 68.9594 70.0572C70.7875 69.6739 72.666 69.592 74.5206 69.8146C77.7179 70.1505 79.6649 72.3462 79.9511 75.7736C80.1844 78.5727 81.5871 80.0189 84.4019 80.0718C88.2835 80.1433 92.1776 80.1744 96.053 80.05C99.0171 79.9536 101.207 78.3799 102.697 75.842C103.259 74.8508 103.678 73.7848 103.941 72.6759C104.6 70.0448 104.6 70.0447 107.29 70.0447C108.376 70.0447 109.468 70.1007 110.55 70.0261C111.483 69.9608 111.794 70.2531 111.794 71.2328C111.713 74.0661 111.757 76.8621 111.757 79.6581Z" fill="#C84CFF"/>
<path d="M50.4061 112.069C48.4404 112.069 46.4529 111.898 44.4966 112.1C38.3818 112.722 32.8828 107.481 33.1783 100.406C33.2218 99.426 33.3742 98.4526 33.4893 97.476C34.3198 90.5125 32.1395 84.8365 26.2797 80.7746C24.8295 79.7571 23.1116 79.1892 21.3406 79.1418C19.4745 79.0827 18.1059 78.1559 17.6083 76.3956C16.8398 73.5225 16.9722 70.4827 17.9877 67.6873C18.5507 66.042 19.7824 65.252 21.5677 65.28C24.2083 65.3173 26.8551 65.2551 29.4895 65.3018C30.4444 65.3204 30.7834 64.9908 30.7336 64.0391C30.6465 61.9709 30.5874 59.9026 30.5812 57.8188C30.5812 55.4583 31.5579 54.1738 33.8563 53.5549C36.0725 52.9695 38.4065 53.0018 40.6056 53.6482C42.4718 54.18 43.268 55.3121 43.2836 57.3181C43.2836 59.1842 43.3675 61.0503 43.2587 62.9163C43.1809 64.2972 43.5479 64.8197 45.0346 64.7824C48.344 64.6705 51.6595 64.7327 54.9875 64.7544C57.6157 64.7544 59.1366 65.9394 59.8084 68.4866C60.4305 70.8098 60.698 73.1735 60.0884 75.5434C59.3543 78.4016 57.5006 80.0376 54.5614 80.0967C51.9488 80.1526 50.1884 81.2847 49.9427 84.8334C49.7358 88.5563 49.7296 92.2876 49.924 96.0112C50.0795 100.054 52.6828 102.888 57.0776 104.097C59.9391 104.894 59.9391 104.894 59.9391 107.895C59.9391 112.059 59.9391 112.059 55.8149 112.059L50.4061 112.069Z" fill="white"/>
<path d="M17.141 15.9907C17.2032 7.05221 24.3381 0.0886498 33.3797 0.129081C42.0698 0.178843 49.2639 7.49073 49.1674 16.1773C49.1444 18.2908 48.7038 20.3788 47.871 22.3214C47.0382 24.2641 45.8296 26.0229 44.3148 27.4969C42.7999 28.971 41.0087 30.1311 39.044 30.9105C37.0793 31.69 34.9799 32.0735 32.8665 32.0389C24.1577 32.0016 17.0819 24.7675 17.141 15.9907Z" fill="#C84CFF"/>
<path d="M111.752 114.084C111.752 122.967 104.617 130.173 95.8432 130.139C93.7294 130.142 91.6359 129.725 89.684 128.914C87.7321 128.102 85.9604 126.912 84.4717 125.411C82.9829 123.911 81.8065 122.13 81.0105 120.172C80.2146 118.214 79.8149 116.117 79.8347 114.003C79.8347 105.22 87.0381 98.1074 95.9241 98.1167C104.639 98.126 111.749 105.295 111.752 114.084Z" fill="#C84CFF"/>
<path d="M31.9 96.0703C31.9 104.887 24.7712 112.075 16.0563 112.044C13.9555 112.049 11.8744 111.64 9.93212 110.839C7.98988 110.039 6.22473 108.863 4.73783 107.379C3.25093 105.895 2.07151 104.132 1.26721 102.192C0.462919 100.251 0.0495495 98.1709 0.050784 96.0703C0.0787764 87.2686 7.20441 80.106 15.9132 80.0905C18.0144 80.0822 20.0964 80.4899 22.0393 81.29C23.9822 82.09 25.7476 83.2667 27.2337 84.7521C28.7198 86.2375 29.8971 88.0023 30.698 89.9449C31.4989 91.8874 31.9074 93.9692 31.9 96.0703Z" fill="white"/>
<path d="M130.051 32.8755C130.051 41.6896 122.922 48.8802 114.207 48.8491C112.105 48.8544 110.022 48.4443 108.078 47.6422C106.134 46.8401 104.368 45.662 102.881 44.1753C101.394 42.6887 100.216 40.923 99.4132 38.9795C98.6107 37.0361 98.2002 34.9532 98.2051 32.8506C98.23 24.0521 105.359 16.8864 114.068 16.8739C116.171 16.8653 118.254 17.2734 120.199 18.0747C122.143 18.876 123.909 20.0547 125.396 21.5425C126.882 23.0304 128.058 24.798 128.858 26.7432C129.657 28.6884 130.062 30.7726 130.051 32.8755Z" fill="white"/>
</svg>
