<svg width="152" height="139" viewBox="0 0 152 139" fill="none" xmlns="http://www.w3.org/2000/svg">
<path d="M112.595 138.138C107.401 138.132 102.422 136.047 98.7495 132.342C95.0771 128.637 93.0115 123.614 93.0059 118.374C93.0115 113.135 95.0772 108.112 98.7498 104.407C102.422 100.702 107.402 98.6185 112.595 98.6128C117.789 98.6185 122.769 100.702 126.442 104.407C130.115 108.111 132.182 113.135 132.188 118.374C132.182 123.614 130.115 128.637 126.442 132.342C122.769 136.048 117.79 138.132 112.595 138.138ZM112.595 100.458C107.887 100.463 103.372 102.352 100.042 105.711C96.7128 109.07 94.8401 113.624 94.8352 118.374C94.8401 123.124 96.7127 127.679 100.042 131.038C103.372 134.397 107.886 136.287 112.595 136.293C117.305 136.287 121.82 134.398 125.15 131.038C128.48 127.679 130.353 123.125 130.359 118.374C130.353 113.624 128.48 109.07 125.15 105.711C121.819 102.352 117.305 100.463 112.595 100.458Z" fill="#C353F4"/>
<path d="M112.595 88.9798C107.401 88.9733 102.422 86.8887 98.7495 83.1835C95.0771 79.4783 93.0115 74.455 93.0059 69.2154C93.0115 63.9761 95.0772 58.9531 98.7498 55.2484C102.422 51.5436 107.402 49.4598 112.595 49.4541C117.789 49.4598 122.769 51.5435 126.442 55.2482C130.115 58.9528 132.182 63.9758 132.188 69.2154C132.182 74.4552 130.115 79.4786 126.442 83.1837C122.769 86.8889 117.79 88.9733 112.595 88.9798ZM112.595 51.2995C107.887 51.3044 103.372 53.1935 100.042 56.5523C96.7128 59.9111 94.8401 64.4653 94.8352 69.2154C94.8401 73.9658 96.7127 78.5203 100.042 81.8796C103.372 85.2389 107.886 87.1287 112.595 87.1344C117.305 87.1287 121.82 85.2389 125.15 81.8797C128.48 78.5205 130.353 73.9661 130.359 69.2154C130.353 64.465 128.48 59.9109 125.15 56.5521C121.819 53.1934 117.305 51.3044 112.595 51.2995Z" fill="#C353F4"/>
<path d="M112.595 39.6763C107.401 39.6698 102.422 37.5853 98.7495 33.8801C95.0771 30.1749 93.0115 25.1515 93.0059 19.9119C93.0115 14.6727 95.0772 9.64961 98.7498 5.94488C102.422 2.24016 107.402 0.156334 112.595 0.150635C117.789 0.156332 122.769 2.24006 126.442 5.9447C130.115 9.64934 132.182 14.6724 132.188 19.9119C132.182 25.1518 130.115 30.1751 126.442 33.8803C122.769 37.5854 117.79 39.6698 112.595 39.6763ZM112.595 1.99605C107.887 2.00093 103.372 3.89008 100.042 7.2489C96.7128 10.6077 94.8401 15.1618 94.8352 19.9119C94.8401 24.6623 96.7127 29.2167 100.042 32.5761C103.372 35.9354 107.886 37.8252 112.595 37.8309C117.305 37.8252 121.82 35.9355 125.15 32.5762C128.48 29.217 130.353 24.6626 130.359 19.9119C130.356 15.1594 128.484 10.6021 125.154 7.24075C121.823 3.87936 117.307 1.98862 112.595 1.98373V1.99605Z" fill="#C353F4"/>
<path d="M10.6348 23.0307C11.458 22.5632 12.2538 22.108 13.0557 21.6559C20.7655 17.3499 28.4773 13.0357 36.1912 8.71336C38.3529 7.50769 40.5299 6.32972 42.6825 5.11175C43.0204 4.90873 43.4074 4.80387 43.8007 4.80876C44.1941 4.81364 44.5784 4.92807 44.9113 5.13942C49.3323 7.59997 53.7512 10.0605 58.1682 12.5211L68.2298 18.1527C68.3395 18.2142 68.4523 18.2695 68.5743 18.331C69.3975 17.4083 70.2542 16.5318 71.6232 17.2884C72.9922 18.045 72.7971 19.2322 72.355 20.4748L76.9285 23.0645L75.5777 23.8365C74.535 24.4517 73.4922 25.033 72.4525 25.6389C72.1538 25.7936 71.9057 26.0321 71.738 26.3256C71.5703 26.6192 71.4903 26.9553 71.5074 27.2936C71.5287 31.4089 71.5074 35.5242 71.5074 39.6394C71.5074 39.7778 71.5256 39.9193 71.5378 40.0608C71.5561 40.3161 71.6781 40.4145 71.9434 40.4176C72.3032 40.4176 72.663 40.476 73.0502 40.5129V44.7974C72.2758 43.6809 71.55 42.6444 70.7725 41.5033L68.4737 44.7605V40.4729L70.1628 40.3007V26.8107C69.4097 27.2137 68.684 27.592 67.9706 27.9918C67.5071 28.2532 67.0559 28.5239 66.6138 28.8253C66.2748 29.0788 65.8718 29.2306 65.4511 29.2633C65.0304 29.2959 64.609 29.2081 64.2356 29.0098C62.8757 28.3578 61.5342 27.6596 60.1561 27.0475C55.9134 25.1564 51.4349 23.8578 46.8443 23.1876C44.1103 22.8253 41.3362 22.9136 38.6304 23.449C33.9533 24.3071 29.5597 25.9988 25.279 28.0349C24.5746 28.3701 23.849 28.6685 23.1447 28.9914C22.8365 29.1539 22.4922 29.2338 22.1447 29.2236C21.7971 29.2134 21.458 29.1133 21.1598 28.9329C17.7206 26.9768 14.2569 25.0699 10.7933 23.1414C10.7382 23.108 10.6852 23.071 10.6348 23.0307ZM69.053 22.108C69.0407 22.3556 69.0793 22.6031 69.1663 22.835C69.2534 23.0668 69.3869 23.2781 69.5587 23.4554C69.7305 23.6327 69.9367 23.7723 70.1645 23.8654C70.3922 23.9585 70.6367 24.0031 70.8823 23.9965C71.3603 23.9672 71.8086 23.7528 72.1336 23.3981C72.4585 23.0433 72.6351 22.5756 72.6263 22.0926C72.6181 21.8594 72.5641 21.6301 72.4675 21.418C72.3709 21.206 72.2336 21.0154 72.0634 20.8572C71.8933 20.699 71.6938 20.5764 71.4764 20.4965C71.259 20.4166 71.0281 20.3811 70.797 20.3918C70.3471 20.412 69.9204 20.5989 69.5986 20.9167C69.2768 21.2345 69.0825 21.6609 69.053 22.1142V22.108ZM69.2542 18.6386L71.7147 20.0811C72.0013 19.466 72.3245 18.8847 71.9403 18.2572C71.7933 17.9979 71.5746 17.7873 71.311 17.6513C71.0473 17.5153 70.75 17.4598 70.4555 17.4914C69.7908 17.556 69.5286 18.0819 69.2542 18.6448V18.6386Z" fill="#C353F4"/>
<path d="M45.6707 25.719C49.863 25.9989 54.0278 26.4141 58.0433 27.7366C58.9171 28.0258 59.7606 28.4007 60.5618 28.8562C61.0996 29.1399 61.5359 29.5865 61.8093 30.1332C62.0828 30.6798 62.1796 31.2992 62.0862 31.9042C61.7448 35.2167 62.504 38.274 64.1138 41.1528C66.1591 44.7472 67.0795 48.8812 66.7542 53.0126C66.4204 57.9792 64.4042 62.6791 61.0435 66.3242C57.1866 70.5964 52.3326 72.9493 46.6859 73.6721C42.0692 74.3105 37.37 73.4839 33.24 71.3069C28.9596 69.0989 25.5276 65.5189 23.4833 61.1294C21.8491 57.7092 21.0075 54.1137 21.2362 50.2968C21.4372 47.2371 22.2889 44.2569 23.7334 41.5588C24.0657 40.9252 24.4407 40.3285 24.7914 39.6888C25.2666 38.8213 25.5004 37.8405 25.4682 36.8499C25.4418 35.0189 25.4265 33.1878 25.4224 31.3567C25.4224 30.0465 26.075 29.1238 27.319 28.6594C31.2033 27.2107 35.1822 26.1988 39.341 26.0235C40.7771 25.9589 42.21 25.8082 43.6461 25.7159C44.3291 25.6882 44.9999 25.719 45.6707 25.719ZM24.1755 53.9692C24.1755 54.1906 24.1755 54.3259 24.1755 54.4644C24.1945 55.7908 24.4367 57.1044 24.8919 58.3489C25.9834 61.3908 27.8647 63.8852 30.2551 65.9859C33.7004 69.0155 37.6488 70.9808 42.2314 71.436C46.2907 71.8888 50.388 71.0374 53.9394 69.0031C58.208 66.558 61.2569 63.0271 62.9461 58.3397C63.251 57.4663 63.4278 56.5435 63.6626 55.6424L63.5224 55.5901C63.3577 55.8607 63.19 56.1283 63.0314 56.4051C62.4822 57.4243 61.7133 58.3061 60.7813 58.9856C60.0896 59.4819 59.2982 59.8188 58.4631 59.9724C57.628 60.126 56.7696 60.0926 55.9487 59.8745C53.1254 59.164 50.6771 57.8199 48.8873 55.4209C47.8983 54.0737 47.0655 52.6165 46.4054 51.078C46.082 50.2046 45.5897 49.4049 44.9572 48.7251C44.3474 48.1408 43.9053 48.0885 43.3473 48.7251C42.8787 49.2751 42.4698 49.8742 42.1277 50.5121C41.7466 51.1826 41.4874 51.9208 41.1277 52.6005C39.8745 54.9596 38.2494 56.9864 35.9444 58.3828C34.8428 59.0817 33.6234 59.5706 32.3467 59.8253C29.4563 60.3482 27.2579 59.2471 25.6908 56.8203C25.1115 55.9468 24.6999 54.9811 24.1755 53.9692ZM55.0584 44.0378C54.4883 44.0716 53.915 44.0901 53.3449 44.1485C51.686 44.2893 50.0615 44.705 48.5367 45.3788C47.8816 45.6472 47.3346 46.1293 46.9831 46.7482C46.6316 47.3671 46.4958 48.087 46.5976 48.7928C46.6876 49.4043 46.842 50.0043 47.058 50.5828C48.3904 54.5013 50.8905 57.294 54.8084 58.7088C58.4672 60.0344 61.4125 58.6442 62.6747 54.9288C63.0437 53.8431 63.2113 52.6866 63.5498 51.5886C63.8165 50.6071 63.8017 49.5693 63.5071 48.596C63.0284 46.6675 61.9125 45.3573 59.9733 44.7975C58.3753 44.3271 56.7228 44.0716 55.0584 44.0378ZM24.6938 50.7182C24.7136 52.8372 25.3209 54.9083 26.4469 56.6973C27.5506 58.4381 29.1635 59.3332 31.2216 59.1579C33.1818 58.9846 35.0556 58.2647 36.6335 57.0787C39.1397 55.2333 40.6704 52.6804 41.5546 49.7309C41.7323 49.0795 41.7615 48.396 41.6399 47.7317C41.3869 46.24 40.3258 45.3942 38.9782 44.9851C37.902 44.6951 36.8081 44.4763 35.7036 44.33C34.8995 44.1748 34.0831 44.0935 33.2644 44.087C32.0814 44.1208 30.8984 44.2654 29.7246 44.413C28.0202 44.6314 26.5627 45.3142 25.5749 46.809C24.837 47.9101 24.6968 49.1619 24.6938 50.7182ZM24.6267 46.4122C25.1072 45.8831 25.6161 45.381 26.1512 44.9082C27.4988 43.8256 29.1178 43.4965 30.7886 43.4596C32.8833 43.4104 34.978 43.4349 37.0756 43.4257C43.6411 43.3949 50.2075 43.3652 56.775 43.3365C58.9336 43.3365 61.0009 43.6902 62.815 44.9882C62.8943 45.0435 62.9796 45.0897 63.062 45.1389L63.1839 45.0374C62.1777 43.2719 61.1502 41.5188 60.1776 39.7349C60.0195 39.4205 59.7728 39.1605 59.4683 38.9875C59.1639 38.8145 58.8156 38.7364 58.4672 38.763C57.461 38.763 56.4548 38.7384 55.4486 38.7384C46.8424 38.7178 38.2362 38.6953 29.63 38.6707C29.2714 38.6475 28.9132 38.7206 28.5918 38.8828C28.2704 39.0449 27.9974 39.2901 27.8006 39.5934C26.2914 41.6756 25.1084 43.8994 24.6267 46.4245V46.4122Z" fill="#C353F4"/>
<path d="M108.891 69.0708C108.891 69.0155 108.891 68.9109 108.891 68.8094C108.891 68.5756 109.013 68.5018 109.196 68.5941C109.614 68.7571 110.035 68.9017 110.443 69.1077C110.558 69.1783 110.644 69.2871 110.687 69.4153C110.876 69.9013 111.035 70.4026 111.23 70.8886C111.256 70.946 111.295 70.9967 111.344 71.0366C111.392 71.0766 111.449 71.1049 111.51 71.1192C111.983 71.1377 112.456 71.1192 112.928 71.1192C113.018 71.1244 113.107 71.0959 113.178 71.0392C113.249 70.9825 113.297 70.9015 113.312 70.8117C113.446 70.3288 113.617 69.8521 113.782 69.3876C113.851 69.2373 113.968 69.1149 114.114 69.0401C114.419 68.874 114.776 68.7664 115.09 68.5972C115.179 68.5451 115.28 68.5176 115.383 68.5176C115.485 68.5176 115.586 68.5451 115.675 68.5972C116.117 68.8217 116.566 69.037 117.026 69.2308C117.089 69.2518 117.156 69.258 117.223 69.249C117.289 69.2399 117.352 69.2158 117.407 69.1785C117.756 68.8574 118.087 68.5165 118.398 68.1574C118.439 68.096 118.464 68.026 118.473 67.9528C118.482 67.8797 118.474 67.8054 118.45 67.736C118.249 67.2808 117.989 66.8502 117.797 66.3888C117.735 66.2001 117.735 65.9962 117.797 65.8075C117.895 65.4726 118.023 65.1473 118.179 64.8356C118.254 64.6765 118.379 64.5468 118.535 64.4665C118.99 64.2697 119.45 64.1067 119.935 63.956C120.019 63.9416 120.095 63.8948 120.146 63.8255C120.197 63.7561 120.22 63.6696 120.209 63.5838C120.209 63.1317 120.191 62.6611 120.209 62.2244C120.219 62.1259 120.189 62.0276 120.128 61.9505C120.066 61.8735 119.977 61.8238 119.88 61.8122C119.416 61.6738 118.965 61.5292 118.502 61.3539C118.354 61.2844 118.232 61.1691 118.154 61.0249C118.032 60.8157 117.999 60.5512 117.849 60.3543C117.712 60.1692 117.638 59.9443 117.638 59.7131C117.638 59.4819 117.712 59.2569 117.849 59.0718C118.03 58.76 118.183 58.4326 118.307 58.0937C118.328 58.0238 118.333 57.95 118.323 57.8777C118.312 57.8054 118.286 57.7363 118.246 57.6754C117.941 57.3279 117.59 57.0172 117.264 56.6881C117.208 56.6215 117.13 56.5787 117.044 56.5684C116.959 56.5581 116.873 56.5811 116.803 56.6328C116.37 56.8727 115.928 57.1095 115.474 57.3063C115.299 57.3633 115.11 57.3633 114.934 57.3063C114.614 57.214 114.325 57.048 113.995 56.9526C113.89 56.9258 113.794 56.8711 113.717 56.7944C113.64 56.7176 113.584 56.6215 113.556 56.5159C113.407 56.0638 113.23 55.6209 113.09 55.1657C113.073 55.0685 113.02 54.9818 112.94 54.9243C112.861 54.8667 112.762 54.8429 112.666 54.8581C112.227 54.8581 111.788 54.8796 111.352 54.8766C111.126 54.8766 111.029 54.9842 110.965 55.1841C110.821 55.6609 110.66 56.1407 110.495 56.6082C110.429 56.7598 110.316 56.8852 110.172 56.9649C109.823 57.1444 109.464 57.3016 109.096 57.4355C108.961 57.4851 108.813 57.4851 108.678 57.4355C108.202 57.2294 107.733 57.0019 107.269 56.765C107.203 56.7202 107.122 56.7019 107.043 56.7138C106.964 56.7258 106.893 56.7671 106.842 56.8296C106.538 57.1372 106.233 57.4447 105.928 57.7308C105.866 57.7805 105.825 57.8526 105.815 57.9318C105.805 58.011 105.826 58.0911 105.873 58.1552C106.126 58.5858 106.37 59.0256 106.586 59.4716C106.653 59.6128 106.666 59.7736 106.623 59.9237C106.472 60.3624 106.298 60.7926 106.102 61.2125C106.02 61.3809 105.885 61.5165 105.717 61.5969C105.257 61.7815 104.775 61.9045 104.312 62.0798C104.25 62.1086 104.196 62.1514 104.153 62.2047C104.11 62.258 104.08 62.3205 104.065 62.3874C104.05 62.8757 104.062 63.3645 104.101 63.8514C104.117 63.919 104.148 63.982 104.192 64.0354C104.236 64.0888 104.291 64.1311 104.354 64.159C104.818 64.3374 105.3 64.4665 105.76 64.648C105.926 64.728 106.064 64.8567 106.156 65.0171C106.275 65.2139 106.303 65.4692 106.431 65.6568C106.568 65.8431 106.642 66.069 106.642 66.3012C106.642 66.5333 106.568 66.7593 106.431 66.9456C106.251 67.2572 106.099 67.5845 105.977 67.9236C105.954 67.9932 105.947 68.067 105.957 68.1395C105.967 68.212 105.994 68.2812 106.034 68.3419C106.422 68.7387 106.855 69.0893 107.236 69.4922C107.333 69.5968 107.297 69.8367 107.321 70.012C107.196 69.9874 107.035 70.012 106.955 69.9351C106.44 69.4522 105.931 68.9663 105.449 68.4496C105.403 68.377 105.373 68.2946 105.363 68.2088C105.353 68.1229 105.363 68.0359 105.391 67.9544C105.58 67.4684 105.833 67.0071 106.034 66.5242C106.076 66.367 106.076 66.2015 106.034 66.0444C105.984 65.7236 105.827 65.4297 105.59 65.2107C105.352 64.9916 105.048 64.8605 104.726 64.8387C104.534 64.808 104.358 64.6911 104.165 64.6603C104.082 64.6566 104 64.6356 103.924 64.5985C103.849 64.5614 103.782 64.509 103.728 64.4447C103.673 64.3803 103.633 64.3054 103.608 64.2244C103.584 64.1435 103.576 64.0584 103.586 63.9744C103.586 63.3593 103.586 62.7195 103.586 62.0921C103.582 61.9864 103.617 61.883 103.683 61.801C103.749 61.719 103.843 61.664 103.946 61.6461C104.412 61.5108 104.861 61.3386 105.33 61.2032C105.425 61.1844 105.512 61.1389 105.581 61.0719C105.651 61.0049 105.7 60.9192 105.723 60.8249C105.821 60.502 105.973 60.2098 106.077 59.8776C106.107 59.7625 106.096 59.6402 106.044 59.5332C105.815 59.0749 105.571 58.6104 105.318 58.1829C105.254 58.0996 105.223 57.9947 105.233 57.8896C105.242 57.7845 105.291 57.687 105.37 57.617C105.842 57.1525 106.3 56.6758 106.794 56.2391C106.869 56.1979 106.952 56.1738 107.037 56.1684C107.123 56.1631 107.208 56.1767 107.288 56.2083C107.748 56.3959 108.202 56.6143 108.635 56.845C108.713 56.9041 108.808 56.9361 108.905 56.9361C109.002 56.9361 109.097 56.9041 109.175 56.845C109.24 56.7943 109.315 56.7586 109.394 56.7404C109.94 56.6451 110.16 56.2729 110.276 55.7716C110.354 55.4193 110.465 55.0754 110.608 54.7443C110.643 54.6658 110.695 54.5961 110.759 54.5403C110.824 54.4845 110.901 54.4438 110.983 54.4213C111.684 54.3783 112.388 54.369 113.09 54.3906C113.172 54.4094 113.249 54.4468 113.315 54.5001C113.381 54.5534 113.435 54.6211 113.471 54.6981C113.675 55.1779 113.815 55.6854 114.014 56.1683C114.068 56.3067 114.23 56.4021 114.355 56.5036C114.404 56.5466 114.489 56.5405 114.547 56.5774C114.761 56.7244 115.016 56.797 115.274 56.7842C115.532 56.7714 115.779 56.674 115.977 56.5066C116.256 56.3199 116.556 56.1671 116.871 56.0515C116.951 56.0232 117.037 56.0132 117.122 56.0222C117.207 56.0312 117.288 56.0591 117.361 56.1038C117.871 56.5559 118.346 57.0449 118.834 57.5247C118.919 57.6002 118.974 57.705 118.987 57.8187C119 57.9323 118.97 58.0468 118.904 58.1399C118.679 58.5981 118.456 59.0626 118.261 59.5332C118.221 59.6791 118.221 59.8331 118.261 59.9791C118.407 60.7726 118.977 61.0371 119.685 61.2463C120.837 61.5877 120.642 61.314 120.746 62.6334C120.779 63.061 120.718 63.4946 120.715 63.9252C120.721 64.0301 120.689 64.1337 120.625 64.2167C120.561 64.2998 120.47 64.3568 120.368 64.3774C119.886 64.5404 119.404 64.7034 118.935 64.8971C118.797 64.9525 118.703 65.1186 118.599 65.2385C118.563 65.2816 118.569 65.3554 118.535 65.4016C118.169 65.9398 118.307 66.4381 118.633 66.9394C118.773 67.1516 118.846 67.4069 118.986 67.6191C119.035 67.6769 119.071 67.7439 119.093 67.8162C119.114 67.8885 119.122 67.9645 119.113 68.0397C119.105 68.1148 119.082 68.1874 119.045 68.2531C119.008 68.3188 118.958 68.3762 118.898 68.4219C118.469 68.8586 118.04 69.2974 117.611 69.7383C117.537 69.8244 117.434 69.8803 117.322 69.8956C117.21 69.9109 117.096 69.8845 117.002 69.8213C116.572 69.5968 116.123 69.4061 115.691 69.1877C115.604 69.1503 115.51 69.1311 115.416 69.1311C115.322 69.1311 115.228 69.1503 115.142 69.1877C114.827 69.2555 114.543 69.4238 114.331 69.6676C114.119 69.9114 113.991 70.2178 113.965 70.5411C113.96 70.5642 113.952 70.5868 113.943 70.6087C113.617 71.636 113.617 71.6482 112.541 71.7036C112.091 71.7215 111.64 71.7041 111.193 71.6513C111.121 71.6317 111.053 71.5961 110.996 71.5472C110.938 71.4983 110.892 71.4373 110.861 71.3684C110.663 70.8855 110.516 70.3811 110.318 69.8982C110.249 69.7488 110.132 69.6273 109.986 69.5537C109.638 69.3446 109.282 69.2246 108.891 69.0708Z" fill="#C353F4"/>
<path d="M107.867 74.6069V72.6754C107.867 71.0115 107.867 69.3444 107.867 67.6774C107.856 67.547 107.884 67.4163 107.949 67.3026C108.013 67.1889 108.11 67.0976 108.227 67.0407C109.346 66.3641 110.446 65.6505 111.581 64.9831C111.735 64.9147 111.863 64.7984 111.947 64.6512C112.031 64.504 112.066 64.3337 112.047 64.165C112.007 63.2915 112.026 62.418 112.02 61.5445C112.02 61.443 112.02 61.3445 111.992 61.1569L110.937 62.4641C110.873 62.5441 110.818 62.6517 110.733 62.6948C110.624 62.7329 110.51 62.7537 110.395 62.7563C110.376 62.6333 110.309 62.4856 110.352 62.3872C110.444 62.2264 110.556 62.0777 110.684 61.9443C111.114 61.4122 111.544 60.8801 111.98 60.3511C112.209 60.0743 112.337 60.0712 112.556 60.3511C113.09 60.997 113.611 61.6491 114.142 62.295C114.267 62.4457 114.349 62.6025 114.166 62.7471C113.983 62.8916 113.861 62.7471 113.733 62.6117L112.562 61.1816C112.562 61.3722 112.538 61.4891 112.538 61.5906C112.538 62.6025 112.538 63.6175 112.553 64.6294C112.564 64.7432 112.541 64.8577 112.486 64.958C112.432 65.0583 112.349 65.1399 112.248 65.1922C111.029 65.9242 109.849 66.6809 108.644 67.4159C108.559 67.4594 108.488 67.5284 108.442 67.6137C108.396 67.699 108.377 67.7963 108.388 67.8927C108.388 69.9083 108.388 71.9228 108.388 73.9364C108.388 76.3354 108.379 78.7345 108.361 81.1335C108.361 81.5641 108.306 81.6165 107.882 81.6165C107.211 81.6165 106.541 81.6165 105.87 81.6165C105.565 81.6165 105.425 81.5211 105.428 81.195C105.428 79.1446 105.428 77.0941 105.428 75.0437C105.428 74.7361 105.547 74.6008 105.861 74.6069C106.504 74.6162 107.16 74.6069 107.867 74.6069Z" fill="#C353F4"/>
<path d="M107.796 81.0599V75.1392H105.967V81.0599H107.796Z" fill="#C353F4"/>
<path d="M118.871 76.3355C118.871 77.9328 118.871 79.5291 118.871 81.1244C118.871 81.558 118.825 81.6042 118.395 81.6042C117.724 81.6042 117.053 81.6042 116.383 81.6042C116.047 81.6042 115.935 81.4719 115.938 81.149C115.938 77.9339 115.938 74.7187 115.938 71.5036C115.938 71.1806 116.06 71.0453 116.392 71.0515C117.072 71.0515 117.755 71.0515 118.435 71.0515C118.776 71.0515 118.877 71.193 118.874 71.5128C118.874 73.1183 118.874 74.7238 118.874 76.3293L118.871 76.3355Z" fill="#C353F4"/>
<path d="M116.483 71.6145V81.0753C116.974 81.0753 117.435 81.0753 117.895 81.0753C118.355 81.0753 118.352 81.0753 118.352 80.5986C118.352 78.2918 118.352 75.9861 118.352 73.6814C118.352 72.9986 118.352 72.3158 118.352 71.6145H116.483Z" fill="#C353F4"/>
<path d="M110.154 67.1054C110.253 66.981 110.389 66.8922 110.543 66.8523C110.696 66.8124 110.858 66.8235 111.005 66.8839C111.525 67.0445 112.072 67.097 112.613 67.0381C113.154 66.9793 113.677 66.8103 114.151 66.5414C114.626 66.2726 115.041 65.9095 115.372 65.474C115.703 65.0386 115.943 64.5399 116.078 64.0082C116.214 63.4732 116.241 62.9161 116.159 62.3702C116.076 61.8243 115.885 61.3008 115.597 60.831C115.31 60.3613 114.931 59.9549 114.484 59.6362C114.037 59.3176 113.531 59.0931 112.995 58.9763C112.468 58.8658 111.924 58.8622 111.395 58.9656C110.866 59.0691 110.363 59.2776 109.915 59.5789C109.467 59.8803 109.082 60.2685 108.784 60.7211C108.486 61.1736 108.28 61.6815 108.178 62.2151C108.054 62.85 108.082 63.5057 108.261 64.1274C108.439 64.7491 108.762 65.3188 109.203 65.789C109.145 65.8457 109.084 65.8981 109.02 65.9459C108.953 65.992 108.879 66.0258 108.812 66.0658C107.547 64.8694 106.983 62.2797 108.507 60.222C109.218 59.2726 110.264 58.6367 111.428 58.447C112.592 58.2573 113.784 58.5285 114.755 59.2039C115.723 59.8828 116.393 60.9124 116.627 62.0781C116.86 63.2437 116.638 64.4552 116.008 65.4599C115.41 66.4193 114.478 67.1194 113.396 67.4236C112.314 67.7279 111.158 67.6144 110.154 67.1054Z" fill="#C353F4"/>
<path d="M112.44 76.8923C112.44 75.4621 112.44 74.0289 112.44 72.5864C112.44 72.2542 112.55 72.125 112.883 72.1342C113.575 72.1342 114.267 72.1342 114.962 72.1342C115.267 72.1342 115.371 72.2388 115.371 72.5433C115.371 75.414 115.371 78.2917 115.371 81.1767C115.371 81.4843 115.264 81.5981 114.965 81.592C114.273 81.592 113.578 81.592 112.886 81.592C112.556 81.592 112.437 81.4751 112.44 81.143C112.447 79.7404 112.44 78.3164 112.44 76.8923Z" fill="#C353F4"/>
<path d="M112.965 72.6785V81.0566H114.822V72.6785H112.965Z" fill="#C353F4"/>
<path d="M111.848 77.5627C111.848 78.7591 111.848 79.9587 111.848 81.1582C111.848 81.4873 111.735 81.6165 111.403 81.6103C110.711 81.5919 110.019 81.6103 109.327 81.6103C109.022 81.6103 108.912 81.5057 108.912 81.2012C108.912 78.7694 108.912 76.3365 108.912 73.9026C108.912 73.5951 109.028 73.4843 109.324 73.4905C110.016 73.4905 110.708 73.4905 111.4 73.4905C111.726 73.4905 111.851 73.6012 111.848 73.9364C111.839 75.1421 111.848 76.3509 111.848 77.5627Z" fill="#C353F4"/>
<path d="M111.309 81.0753V74.0012C110.791 74.0012 110.306 74.0258 109.825 74.0012C109.486 73.9797 109.428 74.115 109.431 74.4195C109.431 76.4987 109.431 78.5809 109.431 80.6632C109.417 80.7425 109.417 80.8237 109.431 80.9031C109.459 80.9707 109.538 81.0692 109.596 81.0692C110.172 81.0784 110.748 81.0753 111.309 81.0753Z" fill="#C353F4"/>
<path d="M65.8701 128.871H33.856C25.0567 128.871 16.2584 128.871 7.46108 128.871C2.62542 128.871 0.171029 126.411 0.16798 121.53V118.995C0.16798 114.509 0.16798 110.021 0.16798 105.533C0.162454 98.9897 2.23039 92.616 6.06999 87.3423C9.90959 82.0686 15.3198 78.171 21.5107 76.2186C22.0715 76.0149 22.6717 75.9469 23.2633 76.02C23.8548 76.0932 24.4211 76.3055 24.9164 76.6399C25.8829 77.3258 26.4409 78.4853 26.4957 79.8725C26.5537 81.4103 26.5354 82.9482 26.5171 84.4368V85.2057C26.5019 86.6144 27.0293 87.5217 28.1757 88.0631C28.704 88.3528 29.3066 88.4752 29.9049 88.4143C30.5032 88.3534 31.0694 88.112 31.5296 87.7216C32.0388 87.3279 32.5418 86.922 33.0541 86.5221C34.2188 85.5841 35.4262 84.6183 36.7128 83.754C37.8592 82.9943 39.338 82.8528 40.1155 82.8313C42.5394 82.779 45.0335 82.8313 47.7379 82.9728C49.1161 83.0497 50.2411 83.3511 51.0918 83.8739C52.5187 84.7628 53.8755 85.7747 55.1896 86.7497C55.6378 87.0819 56.0829 87.4141 56.5341 87.7432C57.0192 88.14 57.6119 88.3796 58.2343 88.4306C58.8568 88.4817 59.4799 88.3417 60.0221 88.0292C61.1472 87.4417 61.6594 86.5129 61.629 85.1011C61.5863 83.1419 61.5832 81.072 61.629 78.5899C61.6594 76.6184 62.4644 75.6219 63.1383 75.1298C63.8121 74.6377 64.9676 74.2071 66.7665 74.7607C72.2368 76.4873 77.1255 79.71 80.8893 84.0708C84.7027 88.4215 87.1618 93.8086 87.9599 99.5599C88.4263 103.026 88.8563 106.742 89.2801 110.912C89.3493 111.786 89.3625 112.663 89.3197 113.539C89.3197 114.016 89.2922 114.462 89.2983 114.911C89.2983 115.495 89.2983 116.076 89.2983 116.661C89.2694 118.129 89.3183 119.599 89.4447 121.062C89.6764 123.31 89.1154 125.322 87.8623 126.731C86.6091 128.139 84.8407 128.847 82.679 128.85C77.0872 128.871 71.4558 128.871 65.8701 128.871ZM44.7225 126.411H55.1134C64.1413 126.411 73.4773 126.411 82.6577 126.411C84.0968 126.411 85.2585 125.959 86.0116 125.107C86.7647 124.255 87.1458 122.908 86.9811 121.339C86.8468 119.79 86.7939 118.234 86.8226 116.679C86.8226 116.107 86.8226 115.538 86.8226 114.969C86.8226 114.468 86.8226 113.97 86.844 113.49C86.8841 112.722 86.8749 111.953 86.8165 111.186C86.3957 107.04 85.9689 103.352 85.5054 99.9106C84.112 89.5148 76.2762 80.3615 65.992 77.129C65.3365 76.926 64.8151 76.9291 64.5194 77.1444C64.2236 77.3597 64.0285 77.9071 64.0194 78.6483C63.9828 81.1089 63.9828 83.142 64.0194 85.0673C64.0712 87.4295 63.0589 89.2164 61.0923 90.2375C59.0404 91.3048 56.9519 91.1388 55.0585 89.7578C54.6012 89.4256 54.1437 89.0873 53.6955 88.752C52.4241 87.8047 51.107 86.8266 49.7655 85.9839C49.0858 85.633 48.3337 85.4486 47.5702 85.4456C44.9237 85.3011 42.4876 85.255 40.1277 85.3073C39.3893 85.2916 38.6594 85.4685 38.0086 85.8209C36.8165 86.6082 35.7067 87.5002 34.5328 88.4444C34.0176 88.8566 33.5053 89.2656 32.984 89.6747C32.1686 90.3348 31.182 90.7439 30.1421 90.853C29.1023 90.962 28.0533 90.7666 27.1208 90.2899C25.1237 89.3456 24.0352 87.5217 24.0718 85.1811V84.406C24.0718 82.9451 24.1054 81.4349 24.0505 79.9647C24.0291 79.3496 23.8341 78.8852 23.5048 78.6483C23.3141 78.5382 23.1009 78.4734 22.8816 78.459C22.6623 78.4446 22.4426 78.481 22.2394 78.5653C16.5419 80.36 11.5623 83.9453 8.02815 88.7976C4.49395 93.6498 2.59023 99.5148 2.59494 105.536C2.59494 110.022 2.59494 114.509 2.59494 118.995V121.527C2.59494 125.039 3.95781 126.411 7.45192 126.411C16.2472 126.411 25.0445 126.411 33.8438 126.411H44.7225ZM44.7225 123.926H44.6798C40.3198 123.904 36.8836 120.312 36.8592 115.75C36.8226 108.618 36.8226 102.048 36.8592 95.6631C36.8608 94.5678 37.079 93.4838 37.501 92.4745C37.9229 91.4653 38.5402 90.5511 39.3167 89.7854C40.0311 89.0624 40.8811 88.4902 41.8171 88.102C42.7531 87.7139 43.7563 87.5177 44.7682 87.5248C49.1557 87.574 52.4943 91.1018 52.5309 95.7307C52.5492 98.059 52.5461 100.421 52.5309 102.703C52.5309 103.731 52.5309 104.755 52.5309 105.779C52.5309 106.831 52.5309 107.886 52.5309 108.938C52.5309 111.195 52.5309 113.53 52.5309 115.827C52.4882 120.45 49.1374 123.922 44.7286 123.922L44.7225 123.926ZM44.6829 89.9854C43.3081 89.9969 41.9933 90.555 41.0241 91.5386C40.4785 92.0786 40.045 92.7227 39.7487 93.4335C39.4524 94.1443 39.2993 94.9074 39.2983 95.6785C39.2618 102.054 39.2618 108.615 39.2983 115.738C39.3166 118.934 41.6857 121.45 44.692 121.465C47.6983 121.48 50.0582 119.048 50.0887 115.803C50.1131 113.521 50.107 111.189 50.0887 108.944C50.0887 107.889 50.0887 106.834 50.0887 105.779C50.0887 104.724 50.0887 103.727 50.0887 102.703C50.0887 100.424 50.0887 98.0683 50.0887 95.7554C50.0612 92.449 47.8111 90.0223 44.7377 89.9884L44.6829 89.9854Z" fill="#C353F4"/>
<path d="M148.519 70.7807H139.677C138.405 70.7807 137.134 70.7807 135.865 70.7807C134.929 70.7807 133.881 70.8022 133.917 69.4551C133.954 68.2494 134.911 68.2248 135.814 68.2248H148.537V21.0561H146.869C143.058 21.0561 139.247 21.1053 135.439 21.0038C134.878 21.0038 133.957 20.3302 133.865 19.8442C133.673 18.817 134.533 18.5402 135.463 18.5432C140.138 18.5555 144.813 18.5555 149.488 18.5432C150.641 18.5432 151.187 19.0415 151.174 20.1949C151.174 20.81 151.174 21.4252 151.174 22.0403V117.104C151.174 119.921 151.144 119.952 148.388 119.952C144.119 119.952 139.85 119.952 135.582 119.952C134.71 119.952 133.698 120.007 133.688 118.749C133.688 117.442 134.682 117.414 135.646 117.414C139.914 117.414 144.165 117.414 148.531 117.414L148.519 70.7807Z" fill="#C353F4"/>
<path d="M60.087 80.4908C60.087 82.0286 60.1297 83.5665 60.087 85.0798C60.0321 86.7068 58.7943 87.3896 57.4161 86.5192C56.1868 85.7233 55.001 84.8608 53.864 83.9355C53.0317 83.2743 53.0225 82.4161 53.864 81.7826C56.0867 80.1647 57.6661 78.144 58.3308 75.4128C58.4192 75.056 59.0595 74.8377 59.4437 74.5547C59.6632 74.9422 60.0535 75.3205 60.0718 75.7173C60.1449 77.3013 60.1022 78.8914 60.1022 80.4785L60.087 80.4908Z" fill="#C353F4"/>
<path d="M28.0423 81.2352C28.0423 80.0049 27.9386 78.7284 28.091 77.5012C28.1581 76.9661 28.7008 76.151 29.1155 76.0864C29.582 76.0187 30.2772 76.5539 30.64 77.0091C31.7833 78.3747 32.7133 79.9311 33.9298 81.2136C34.8933 82.2286 35.0488 82.9944 33.9603 83.8802C32.9397 84.7656 31.8666 85.5873 30.7467 86.3408C30.2467 86.6483 29.3808 86.8298 28.9173 86.5961C28.4539 86.3623 28.1368 85.5596 28.0758 84.969C28.0022 83.7258 27.991 82.4796 28.0423 81.2352Z" fill="#C353F4"/>
<path d="M40.796 105.745C40.796 108.972 40.796 112.204 40.796 115.424C40.796 118.153 42.4058 119.955 44.7413 119.921C47.0768 119.887 48.586 118.125 48.5891 115.501C48.6013 108.993 48.6013 102.484 48.5891 95.9737C48.5891 93.3594 46.9854 91.5478 44.7322 91.5386C42.479 91.5294 40.8173 93.304 40.799 95.8968C40.7808 99.1786 40.796 102.463 40.796 105.745Z" fill="#C353F4"/>
<path d="M40.7958 105.745C40.7958 102.463 40.7806 99.1786 40.7958 95.903C40.8141 93.3102 42.4392 91.5355 44.729 91.5447C47.0187 91.5539 48.5829 93.3656 48.586 95.9799C48.5982 102.488 48.5982 108.997 48.586 115.507C48.586 118.131 47.0279 119.893 44.7381 119.927C42.4484 119.961 40.805 118.159 40.7928 115.431C40.7867 112.198 40.7958 108.972 40.7958 105.745Z" fill="#C353F4"/>
<path d="M104.65 29.0038C104.906 27.4291 105.105 25.7989 105.452 24.2026C105.63 23.5055 105.614 22.7725 105.406 22.084C105.197 21.3955 104.805 20.7781 104.272 20.2996C103.147 19.1924 101.995 18.1097 100.918 16.9533C100.613 16.6272 100.309 15.9598 100.443 15.6553C100.581 15.4346 100.762 15.2445 100.976 15.0965C101.189 14.9484 101.43 14.8456 101.684 14.7941C103.125 14.498 104.58 14.2753 106.044 14.1267C106.781 14.0811 107.492 13.8301 108.097 13.4018C108.702 12.9734 109.177 12.3844 109.471 11.7C110.108 10.3621 110.718 9.00567 111.446 7.72311C111.712 7.25561 112.297 6.66507 112.715 6.68353C113.132 6.70198 113.672 7.31712 113.934 7.79693C114.66 9.08256 115.285 10.4297 115.916 11.7707C116.584 13.1948 117.682 13.9237 119.227 14.1144C120.688 14.2836 122.145 14.4927 123.584 14.7818C124.078 14.8803 124.828 15.2155 124.895 15.5538C124.984 16.0213 124.654 16.7041 124.286 17.0916C123.261 18.2235 122.127 19.2446 121.042 20.3273C119.956 21.4099 119.535 22.5664 119.852 24.0796C120.17 25.5929 120.395 27.2076 120.618 28.7762C120.804 30.0803 119.993 30.6862 118.816 30.1172C117.496 29.4806 116.191 28.8008 114.934 28.0411C113.373 27.1 111.885 27.1553 110.34 28.0411C109.065 28.7793 107.769 29.4867 106.446 30.1264C105.306 30.6954 104.632 30.2433 104.65 29.0038ZM111.078 21.0501C110.498 20.5026 110.09 19.9182 109.532 19.6445C109.479 19.6198 109.425 19.5982 109.37 19.5799C109.164 19.517 108.946 19.508 108.736 19.5537C108.526 19.5993 108.331 19.6982 108.169 19.841C108.008 19.9838 107.885 20.1658 107.812 20.3698C107.739 20.5738 107.719 20.7931 107.754 21.007C107.773 21.127 107.816 21.242 107.879 21.3453C108.376 22.1481 109.193 22.7448 109.867 23.4399C110.669 24.2703 111.434 24.1996 112.233 23.4122C113.758 21.9143 115.306 20.4472 116.825 18.9432C117.523 18.2543 118.654 17.5407 117.572 16.4365C116.566 15.4031 115.855 16.4642 115.178 17.107C113.797 18.3896 112.465 19.6998 111.053 21.0501H111.078Z" fill="#C353F4"/>
<path d="M124.258 119.644C124.215 119.859 124.126 120.061 123.995 120.236C123.865 120.41 123.697 120.553 123.504 120.653C123.171 120.776 122.827 120.867 122.477 120.924C122.172 120.988 121.867 121.016 121.581 121.078C121.492 121.103 121.418 121.163 121.373 121.244C121.181 121.68 120.998 122.126 120.827 122.575C120.813 122.619 120.808 122.664 120.814 122.71C120.819 122.755 120.834 122.798 120.858 122.837C121.117 123.221 121.392 123.597 121.657 123.978C121.898 124.271 122.017 124.648 121.988 125.029C121.958 125.409 121.782 125.762 121.498 126.014C121.062 126.46 120.623 126.906 120.178 127.343C119.931 127.626 119.585 127.801 119.212 127.831C118.84 127.862 118.47 127.745 118.181 127.506C117.809 127.241 117.437 126.98 117.074 126.703C117.026 126.663 116.967 126.639 116.905 126.634C116.843 126.629 116.78 126.644 116.727 126.675C116.324 126.854 115.919 127.023 115.507 127.183C115.446 127.2 115.393 127.235 115.353 127.284C115.313 127.333 115.289 127.393 115.284 127.457C115.202 127.976 115.126 128.499 115.01 129.013C114.945 129.319 114.779 129.594 114.539 129.794C114.3 129.993 114 130.105 113.69 130.111C112.961 130.129 112.232 130.132 111.504 130.111C111.167 130.101 110.846 129.971 110.595 129.744C110.345 129.517 110.183 129.208 110.138 128.871C110.058 128.404 109.979 127.949 109.909 127.469C109.905 127.406 109.882 127.345 109.843 127.295C109.804 127.246 109.75 127.21 109.69 127.192C109.287 127.038 108.888 126.884 108.491 126.697C108.444 126.668 108.389 126.656 108.334 126.661C108.279 126.667 108.227 126.69 108.186 126.728C107.802 127.014 107.412 127.29 107.019 127.567C106.739 127.793 106.385 127.904 106.028 127.878C105.67 127.852 105.336 127.69 105.092 127.426C104.61 126.962 104.138 126.487 103.677 125.999C103.42 125.753 103.263 125.42 103.237 125.063C103.211 124.707 103.318 124.354 103.537 124.073C103.801 123.69 104.072 123.311 104.351 122.935C104.391 122.887 104.416 122.828 104.422 122.765C104.428 122.703 104.415 122.64 104.384 122.585C104.201 122.185 104.025 121.776 103.872 121.354C103.853 121.29 103.816 121.233 103.764 121.191C103.712 121.15 103.649 121.125 103.582 121.121C103.128 121.047 102.668 120.967 102.217 120.887C101.853 120.846 101.519 120.667 101.282 120.387C101.045 120.106 100.922 119.745 100.939 119.377C100.939 118.728 100.939 118.076 100.939 117.427C100.934 117.066 101.061 116.717 101.296 116.445C101.53 116.173 101.856 115.998 102.21 115.953C102.674 115.874 103.14 115.806 103.601 115.714C103.647 115.699 103.69 115.676 103.727 115.644C103.763 115.612 103.793 115.573 103.814 115.529C104 115.105 104.159 114.668 104.348 114.24C104.374 114.191 104.384 114.135 104.377 114.08C104.37 114.025 104.346 113.974 104.308 113.933C104.04 113.564 103.778 113.188 103.512 112.813C103.265 112.516 103.143 112.132 103.175 111.745C103.206 111.358 103.388 110.999 103.68 110.746C104.105 110.316 104.53 109.888 104.955 109.464C105.079 109.315 105.231 109.193 105.403 109.104C105.574 109.016 105.761 108.962 105.953 108.946C106.145 108.93 106.339 108.953 106.522 109.013C106.705 109.073 106.875 109.168 107.022 109.295C107.385 109.556 107.744 109.827 108.116 110.079C108.158 110.103 108.204 110.118 108.252 110.123C108.3 110.128 108.348 110.122 108.394 110.107C108.815 109.941 109.226 109.744 109.653 109.581C109.713 109.562 109.766 109.526 109.804 109.477C109.843 109.427 109.866 109.367 109.869 109.304C109.943 108.836 110.019 108.381 110.101 107.901C110.137 107.61 110.26 107.336 110.453 107.117C110.646 106.897 110.901 106.742 111.184 106.671C111.218 106.657 111.252 106.641 111.284 106.622H113.833C113.865 106.641 113.899 106.657 113.934 106.671C114.213 106.738 114.465 106.889 114.658 107.104C114.85 107.319 114.974 107.587 115.013 107.874C115.098 108.338 115.175 108.796 115.245 109.276C115.249 109.336 115.271 109.392 115.308 109.438C115.345 109.485 115.395 109.518 115.452 109.534C115.897 109.704 116.333 109.901 116.778 110.073C116.824 110.088 116.872 110.094 116.92 110.089C116.967 110.085 117.014 110.071 117.056 110.048C117.443 109.79 117.815 109.513 118.193 109.242C118.484 109 118.857 108.881 119.233 108.912C119.609 108.943 119.958 109.121 120.205 109.408C120.641 109.842 121.077 110.282 121.507 110.725C121.797 110.976 121.975 111.332 122.005 111.716C122.035 112.1 121.913 112.48 121.666 112.773C121.404 113.148 121.132 113.514 120.879 113.896C120.855 113.938 120.841 113.986 120.836 114.034C120.831 114.083 120.837 114.132 120.852 114.179C121.016 114.612 121.206 115.04 121.37 115.474C121.387 115.527 121.419 115.575 121.462 115.61C121.506 115.645 121.558 115.666 121.614 115.671C122.077 115.744 122.547 115.8 123.001 115.914C123.277 115.987 123.539 116.106 123.776 116.267C124.029 116.478 124.202 116.772 124.264 117.098L124.258 119.644ZM106.061 110.227C106.001 110.27 105.943 110.318 105.888 110.368C105.464 110.793 105.043 111.223 104.613 111.648C104.584 111.668 104.559 111.694 104.541 111.725C104.523 111.756 104.513 111.791 104.51 111.826C104.507 111.862 104.512 111.898 104.524 111.931C104.537 111.965 104.557 111.995 104.583 112.02C104.936 112.506 105.272 113.01 105.628 113.493C105.738 113.629 105.804 113.796 105.817 113.971C105.829 114.146 105.788 114.321 105.698 114.471C105.422 115.056 105.18 115.657 104.973 116.27C104.931 116.448 104.834 116.609 104.697 116.728C104.559 116.848 104.388 116.921 104.208 116.938C103.631 117.018 103.055 117.128 102.479 117.221C102.445 117.221 102.412 117.228 102.381 117.242C102.351 117.257 102.323 117.278 102.302 117.304C102.28 117.33 102.265 117.361 102.256 117.394C102.248 117.427 102.247 117.461 102.253 117.494C102.253 118.085 102.253 118.675 102.253 119.263C102.253 119.484 102.32 119.571 102.54 119.604C103.131 119.694 103.72 119.814 104.311 119.912C104.471 119.927 104.622 119.992 104.742 120.1C104.862 120.207 104.945 120.35 104.979 120.509C105.154 121.167 105.417 121.798 105.759 122.385C105.853 122.522 105.9 122.688 105.891 122.854C105.882 123.021 105.819 123.181 105.711 123.307C105.357 123.796 105.019 124.295 104.662 124.781C104.635 124.807 104.614 124.839 104.6 124.874C104.587 124.909 104.582 124.947 104.585 124.985C104.588 125.023 104.599 125.059 104.617 125.092C104.636 125.125 104.662 125.153 104.692 125.174C105.119 125.584 105.538 126.007 105.948 126.442C105.968 126.471 105.994 126.496 106.025 126.515C106.055 126.533 106.09 126.544 106.125 126.548C106.16 126.551 106.196 126.546 106.229 126.534C106.263 126.521 106.293 126.501 106.317 126.475C106.802 126.116 107.299 125.777 107.781 125.417C107.916 125.306 108.081 125.24 108.255 125.227C108.428 125.215 108.601 125.256 108.75 125.347C109.317 125.62 109.898 125.86 110.491 126.066C110.668 126.109 110.827 126.208 110.944 126.348C111.061 126.488 111.131 126.662 111.144 126.844C111.226 127.429 111.333 128.007 111.424 128.588C111.424 128.622 111.432 128.656 111.446 128.687C111.46 128.718 111.481 128.745 111.507 128.767C111.533 128.789 111.563 128.804 111.596 128.813C111.628 128.821 111.663 128.822 111.696 128.816C112.306 128.816 112.882 128.816 113.473 128.816C113.675 128.816 113.754 128.742 113.778 128.548C113.87 127.933 113.979 127.343 114.083 126.74C114.098 126.583 114.162 126.434 114.267 126.317C114.372 126.199 114.512 126.119 114.666 126.088C115.319 125.914 115.945 125.651 116.528 125.307C116.667 125.216 116.831 125.173 116.995 125.184C117.16 125.195 117.317 125.258 117.443 125.365C117.925 125.725 118.419 126.066 118.904 126.423C118.928 126.449 118.957 126.47 118.99 126.483C119.023 126.496 119.058 126.502 119.094 126.5C119.129 126.497 119.164 126.487 119.195 126.469C119.225 126.452 119.252 126.428 119.272 126.399C119.69 125.965 120.117 125.537 120.544 125.116C120.573 125.095 120.597 125.068 120.615 125.037C120.633 125.006 120.643 124.971 120.646 124.935C120.648 124.899 120.643 124.863 120.63 124.829C120.617 124.796 120.597 124.766 120.571 124.741C120.218 124.252 119.879 123.75 119.526 123.264C119.421 123.134 119.358 122.974 119.346 122.806C119.334 122.638 119.373 122.471 119.458 122.326C119.742 121.711 120.001 121.096 120.224 120.481C120.266 120.319 120.356 120.173 120.481 120.063C120.607 119.953 120.763 119.885 120.928 119.866C121.513 119.773 122.096 119.669 122.678 119.58C122.87 119.552 122.953 119.472 122.95 119.272C122.95 118.688 122.934 118.107 122.95 117.525C122.95 117.295 122.861 117.218 122.645 117.193C122.059 117.104 121.48 116.993 120.895 116.901C120.737 116.88 120.589 116.813 120.47 116.706C120.35 116.6 120.266 116.46 120.227 116.304C119.992 115.667 119.736 115.04 119.452 114.425C119.369 114.283 119.329 114.119 119.34 113.954C119.35 113.79 119.41 113.632 119.51 113.502C119.867 113.013 120.202 112.515 120.559 112.026C120.586 112 120.608 111.969 120.622 111.934C120.636 111.899 120.641 111.861 120.639 111.823C120.637 111.786 120.626 111.749 120.608 111.716C120.59 111.683 120.565 111.654 120.535 111.632C120.108 111.222 119.689 110.8 119.279 110.365C119.258 110.334 119.23 110.308 119.197 110.289C119.165 110.27 119.129 110.259 119.092 110.256C119.054 110.254 119.017 110.259 118.982 110.274C118.948 110.288 118.916 110.309 118.891 110.337C118.403 110.703 117.907 111.054 117.416 111.414C117.303 111.513 117.162 111.573 117.012 111.586C116.863 111.599 116.714 111.563 116.586 111.485C115.946 111.12 115.263 110.837 114.553 110.645C114.415 110.612 114.29 110.537 114.197 110.429C114.103 110.322 114.045 110.187 114.031 110.045C113.931 109.43 113.818 108.815 113.726 108.2C113.699 108.021 113.629 107.954 113.446 107.957C112.861 107.957 112.278 107.957 111.693 107.957C111.485 107.957 111.388 108.018 111.363 108.227C111.275 108.812 111.162 109.39 111.08 109.971C111.062 110.146 110.992 110.311 110.88 110.444C110.767 110.578 110.617 110.673 110.449 110.719C109.839 110.946 109.229 111.208 108.619 111.491C108.477 111.578 108.311 111.619 108.144 111.609C107.978 111.6 107.818 111.539 107.686 111.435C107.211 111.082 106.726 110.74 106.241 110.396C106.184 110.34 106.124 110.288 106.061 110.239V110.227Z" fill="#C353F4"/>
<path d="M112.577 113.296C113.909 113.295 115.187 113.827 116.132 114.775C117.077 115.722 117.611 117.009 117.617 118.353C117.619 119.697 117.093 120.987 116.154 121.941C115.215 122.894 113.94 123.433 112.608 123.44C111.946 123.442 111.291 123.313 110.679 123.06C110.068 122.806 109.511 122.434 109.043 121.963C108.574 121.492 108.202 120.933 107.948 120.317C107.694 119.702 107.562 119.041 107.562 118.374C107.56 117.03 108.087 115.74 109.028 114.788C109.968 113.836 111.245 113.299 112.577 113.296ZM112.592 122.117C113.579 122.113 114.524 121.715 115.22 121.009C115.916 120.303 116.307 119.348 116.306 118.353C116.298 117.361 115.902 116.413 115.205 115.714C114.508 115.015 113.566 114.621 112.583 114.619C111.597 114.624 110.653 115.022 109.957 115.728C109.262 116.434 108.872 117.388 108.873 118.383C108.882 119.375 109.28 120.322 109.979 121.019C110.678 121.716 111.622 122.107 112.605 122.105L112.592 122.117Z" fill="#C353F4"/>
</svg>
