<svg width="131" height="132" viewBox="0 0 131 132" fill="none" xmlns="http://www.w3.org/2000/svg">
<path d="M13.9802 16.358C12.9405 13.916 12.8273 11.1784 13.6618 8.65888C14.4964 6.13935 16.2216 4.01085 18.5136 2.67238C20.3021 1.54202 22.3902 0.978222 24.5046 1.05502C26.619 1.13181 28.6611 1.84568 30.3629 3.10282C32.3885 4.54775 33.8651 6.63578 34.5528 9.02698C35.2404 11.4182 35.0985 13.9716 34.15 16.2719C35.2097 16.6569 36.2445 17.1072 37.2485 17.6202C38.5449 18.3955 39.6145 19.4984 40.3498 20.8179C41.0851 22.1373 41.4604 23.6269 41.4376 25.1373C41.4376 29.2974 41.4376 33.4288 41.4376 37.589C41.5383 38.1607 41.424 38.7496 41.1168 39.2421C40.8096 39.7347 40.331 40.0963 39.7733 40.2574C37.392 40.946 36.9042 42.4952 36.9042 44.8192C37.105 47.6883 36.9042 50.3566 36.9042 53.1109V54.6029C41.8727 53.2501 47.0868 53.0633 52.1393 54.0576C52.1598 53.704 52.1598 53.3496 52.1393 52.996C52.1393 49.5531 52.1393 46.0816 52.1393 42.6387C52.1104 42.3581 52.0209 42.0874 51.8773 41.8447C51.7336 41.602 51.5392 41.3931 51.3071 41.2328C47.0322 39.1384 47.8356 39.3966 47.7782 35.1791C47.7782 31.9657 47.7782 28.7524 47.7782 25.539C47.6468 23.4627 48.2718 21.409 49.5377 19.7581C50.8036 18.1071 52.6248 16.9706 54.6641 16.5587L55.1232 16.358C54.2253 14.1892 54.0414 11.7905 54.5986 9.51029C55.1557 7.23007 56.4248 5.1868 58.2217 3.6765C59.3178 2.70382 60.6098 1.9777 62.0105 1.54709C63.4112 1.11648 64.8879 0.991413 66.3411 1.1804C68.0527 1.32834 69.7008 1.89844 71.1379 2.83979C72.575 3.78115 73.7561 5.06436 74.5754 6.57431C75.41 8.00931 75.906 9.61587 76.0254 11.2716C76.1447 12.9273 75.8841 14.5884 75.264 16.1283C76.6478 16.7584 77.9895 17.4772 79.2808 18.2801C80.2947 19.0037 81.1206 19.9595 81.6897 21.0676C82.2587 22.1757 82.5543 23.4037 82.5516 24.6494C82.5516 29.0965 82.5516 33.5436 82.5516 37.962C82.6079 38.4099 82.5071 38.8637 82.2665 39.2456C82.0258 39.6275 81.6602 39.9139 81.2319 40.0564C78.3628 40.8884 77.9899 42.6675 78.1047 45.3071C78.3342 50.6149 78.1047 55.9512 78.1047 61.2878C78.1047 63.6117 77.4735 64.1569 75.2356 64.1569H70.5873C70.4349 64.1376 70.2809 64.1376 70.1285 64.1569C70.3 64.4657 70.4915 64.763 70.7022 65.0464C74.8097 69.8046 77.4029 75.681 78.1492 81.9223C78.8955 88.1637 77.7608 94.4855 74.891 100.078C72.111 105.974 67.6036 110.886 61.9667 114.16C56.3299 117.435 49.8302 118.918 43.3309 118.411C39.2268 118.095 35.2178 117.015 31.5103 115.227C31.3818 115.137 31.2364 115.075 31.083 115.044C30.9296 115.013 30.7714 115.014 30.6183 115.046C30.4651 115.078 30.3202 115.141 30.1924 115.231C30.0645 115.322 29.9566 115.437 29.8751 115.571C28.6414 116.862 27.3504 118.124 26.088 119.358C24.8256 120.592 23.5918 121.08 21.6982 119.358C21.2392 119.76 20.7515 120.19 20.3211 120.621L10.5949 130.376C9.189 131.81 8.15619 131.81 6.72165 130.376C4.77066 128.453 2.81968 126.474 0.983459 124.638C0.699095 124.433 0.467274 124.163 0.307513 123.852C0.147753 123.54 0.0644531 123.195 0.0644531 122.844C0.0644531 122.494 0.147753 122.149 0.307513 121.837C0.467274 121.525 0.699095 121.256 0.983459 121.051C4.45506 117.551 7.89799 114.051 11.3983 110.608C11.9434 110.063 12.1727 109.689 11.5415 109.001C11.3346 108.789 11.1752 108.535 11.0736 108.257C10.9721 107.978 10.9307 107.681 10.9524 107.386C10.9741 107.09 11.0582 106.802 11.1993 106.542C11.3405 106.281 11.5353 106.053 11.7709 105.874C13.1768 104.468 14.6403 103.005 15.9888 101.656C16.282 101.448 16.482 101.133 16.5463 100.779C16.6107 100.426 16.5343 100.06 16.333 99.7624C14.3803 95.7638 13.2845 91.4012 13.1165 86.9544C12.9485 82.5077 13.7118 78.075 15.3573 73.9406C16.5812 70.6566 18.3786 67.616 20.6654 64.9603L21.3827 63.9849H19.9481H13.6072C11.771 63.9849 10.9391 63.2389 10.9391 61.4314C10.9391 57.7302 10.9391 54.0578 10.9391 50.3567C10.9391 47.4876 10.9391 44.8193 10.9391 42.065C10.8971 41.8453 10.8089 41.6368 10.6803 41.4538C10.5517 41.2708 10.3856 41.1174 10.1931 41.0034C6.11902 38.9664 6.66418 39.5114 6.63549 34.8348C6.63549 31.9657 6.63549 29.0965 6.63549 26.4282C6.36811 24.1334 6.97551 21.8222 8.33691 19.9556C9.69831 18.089 11.7134 16.8046 13.9802 16.358ZM26.3749 57.7588V53.5126H30.6498V57.0128C32.7729 56.4677 32.859 56.3815 32.859 54.4019V42.6961C32.859 38.5933 32.6007 39.0523 36.3305 37.2447C36.6095 37.1448 36.8478 36.9557 37.0086 36.7068C37.1693 36.4579 37.2438 36.163 37.2201 35.8676C37.2201 32.2813 37.2201 28.6949 37.2201 25.1373C37.232 24.5438 37.1233 23.9542 36.9007 23.404C36.6782 22.8537 36.3464 22.3542 35.9253 21.9358C35.5043 21.5174 35.0025 21.1889 34.4508 20.9699C33.8992 20.7508 33.3088 20.646 32.7154 20.6617H30.0187C29.5501 20.7064 29.0799 20.592 28.6843 20.337C28.2887 20.0819 27.9907 19.7007 27.8381 19.2555C27.6705 18.8371 27.6383 18.3769 27.7464 17.9393C27.8545 17.5017 28.0973 17.109 28.4405 16.8168C28.8021 16.4877 29.1289 16.1224 29.4159 15.7265C30.3851 14.379 30.8058 12.7136 30.5927 11.0674C30.3796 9.42125 29.5486 7.9175 28.2682 6.86115C26.9502 5.77956 25.2624 5.25529 23.5636 5.39998C21.8647 5.54468 20.2895 6.34695 19.1734 7.63586C18.032 8.88743 17.4309 10.5388 17.5007 12.2312C17.5706 13.9237 18.3058 15.5203 19.5464 16.6736C19.9899 16.9864 20.3082 17.4463 20.4447 17.9715C20.5813 18.4968 20.5273 19.0534 20.2924 19.5427C20.0852 19.9886 19.7369 20.354 19.3012 20.5821C18.8656 20.8103 18.3667 20.8885 17.8821 20.8049H15.6732C15.0406 20.7572 14.4051 20.8472 13.8107 21.0686C13.2162 21.2901 12.6766 21.6379 12.2294 22.0878C11.7822 22.5377 11.4378 23.0792 11.22 23.675C11.0022 24.2708 10.9163 24.9067 10.9678 25.539C10.9678 28.4081 10.9678 31.2773 10.9678 33.9456C10.8528 34.3979 10.8293 34.8685 10.8989 35.33C10.9684 35.7915 11.1294 36.2346 11.3727 36.6329C11.616 37.0312 11.9364 37.3766 12.3152 37.6493C12.694 37.9219 13.1235 38.1163 13.5785 38.2205C15.0417 38.6795 15.4434 39.7983 15.4434 41.2615C15.4434 46.9997 15.4434 52.7381 15.4434 58.6771C15.4434 59.8822 15.8165 60.1975 16.9642 60.1688C19.6037 60.1688 22.272 60.0253 24.8829 60.1688C26.8626 60.1688 27.752 58.964 29.1865 57.9024L26.3749 57.7588ZM78.5922 30.4737C78.5922 29.3261 78.5922 28.1786 78.5922 27.0597C78.9652 22.1535 76.8994 20.3174 72.108 20.6617C71.5966 20.7637 71.0704 20.7637 70.559 20.6617C68.981 20.0878 68.4071 18.1941 70.186 16.5587C71.3179 15.44 71.9966 13.9424 72.0919 12.3538C72.1872 10.7652 71.6923 9.19746 70.7022 7.95142C69.7122 6.6782 68.292 5.80961 66.7075 5.50855C65.123 5.2075 63.4829 5.4948 62.0949 6.31619C61.2088 6.82397 60.4552 7.53358 59.8955 8.3878C59.3357 9.24203 58.9857 10.2165 58.8739 11.2317C58.762 12.2468 58.8914 13.274 59.2518 14.2297C59.6121 15.1853 60.1929 16.0425 60.9472 16.731C61.326 17.0161 61.603 17.4153 61.7373 17.87C61.8717 18.3246 61.8562 18.8103 61.6932 19.2555C61.5097 19.7094 61.184 20.092 60.7651 20.3454C60.3462 20.5988 59.8567 20.7098 59.3694 20.6617H56.9308C56.3181 20.6239 55.7043 20.7168 55.1302 20.9341C54.5562 21.1515 54.0348 21.4881 53.6008 21.9221C53.1667 22.3562 52.8298 22.8775 52.6124 23.4516C52.3951 24.0257 52.3022 24.6395 52.3399 25.2521C52.3399 28.1212 52.4834 30.9901 52.3399 34.0314C52.3399 36.1258 52.7703 37.4169 54.8073 38.0195C55.4427 38.2339 55.9832 38.6642 56.3343 39.2355C56.6855 39.8068 56.8253 40.4829 56.7297 41.1467C56.7297 45.4216 56.7297 49.7542 56.7297 53.9431C56.6656 54.3402 56.7502 54.7471 56.9672 55.0859C57.1842 55.4246 57.5186 55.6715 57.9062 55.7793C59.1647 56.1157 60.3509 56.6796 61.4064 57.4433C62.9739 58.5932 64.7589 59.4125 66.6528 59.8515C68.5468 60.2904 70.51 60.3399 72.4236 59.9968H73.0263C74.0592 59.9968 74.346 59.681 74.346 58.7055C74.346 53.369 74.346 48.0326 74.346 42.6961C74.346 38.5359 74.1453 39.0523 77.703 37.3022C78.0261 37.1973 78.3015 36.981 78.4801 36.6921C78.6588 36.4031 78.729 36.0603 78.6784 35.7244C78.5349 33.9742 78.5922 32.3386 78.5922 30.4737ZM45.8274 57.7588C38.386 57.7504 31.2403 60.6714 25.9357 65.8901C20.631 71.1089 17.5938 78.2058 17.4807 85.6463C17.4428 89.4053 18.1513 93.1346 19.5653 96.6177C20.9793 100.101 23.0704 103.269 25.7178 105.937C28.3653 108.606 31.5161 110.723 34.9877 112.165C38.4594 113.607 42.1828 114.345 45.9419 114.337C49.6868 114.318 53.3913 113.561 56.8429 112.108C60.2944 110.655 63.4253 108.535 66.056 105.869C68.6867 103.204 70.7654 100.046 72.1732 96.5756C73.581 93.1054 74.2901 89.3912 74.2599 85.6463C74.1244 78.198 71.0683 71.1013 65.7499 65.8849C60.4316 60.6685 53.2769 57.7501 45.8274 57.7588ZM5.25838 123.375C6.26256 124.293 7.26675 125.154 8.12747 126.244C8.61522 126.732 8.95931 126.56 9.36099 126.244C12.2301 123.375 15.2715 120.363 18.198 117.379C18.3702 117.207 18.4849 116.633 18.198 116.489C17.2225 115.428 16.1895 114.452 15.1279 113.419L5.25838 123.375ZM18.8004 104.956C18.1692 105.702 17.5378 106.505 16.7918 107.251C16.0459 107.997 16.3041 108.112 16.7918 108.542C17.0355 108.757 17.2658 108.987 17.4807 109.231L23.85 115.772L26.7191 112.903L18.8004 104.956Z" fill="white"/>
<path d="M122.689 66.2806C123.906 66.466 125.106 66.754 126.275 67.1415C127.631 67.6295 128.799 68.5325 129.613 69.7223C130.427 70.9121 130.845 72.3279 130.808 73.7689C130.808 82.1466 130.808 90.5244 130.808 98.9022C130.535 100.2 129.965 101.418 129.144 102.46C128.513 103.579 127.623 104.583 126.992 105.702C126.693 106.267 126.544 106.899 126.562 107.538C126.562 113.85 126.562 120.134 126.562 126.446C126.562 127.593 126.562 128.712 126.562 129.831C126.554 130.328 126.351 130.803 125.997 131.151C125.643 131.5 125.166 131.696 124.668 131.696C123.492 131.696 122.316 131.696 121.139 131.696H99.1908C96.6947 131.696 96.3217 131.151 96.3217 128.683C96.3217 121.654 96.3217 114.625 96.3217 107.567C96.3021 106.776 96.0746 106.004 95.6619 105.329C94.7438 103.751 93.5962 102.288 92.7928 100.738C92.3805 100.051 92.1437 99.2727 92.1039 98.4721C92.1039 90.496 92.1039 82.5293 92.1039 74.5723C91.9993 73.5356 92.1142 72.4885 92.4405 71.499C92.7668 70.5095 93.2976 69.6 93.9983 68.8289C94.6991 68.0578 95.5538 67.4426 96.5077 67.0234C97.4616 66.6042 98.4932 66.3902 99.5351 66.3955L100.195 66.2519C99.8793 65.3911 99.5636 64.6166 99.3054 63.8132C98.7532 62.1699 98.5394 60.4322 98.6763 58.704C98.8133 56.9759 99.2984 55.2932 100.102 53.7574C100.907 52.2216 102.013 50.8643 103.355 49.7672C104.697 48.6701 106.248 47.8558 107.913 47.3734C109.261 46.9717 109.634 46.3978 109.577 45.1067C109.577 42.2376 109.577 39.5983 109.577 36.8153C109.577 35.8685 109.118 35.7821 108.372 35.7821H96.8954C94.8584 35.7821 94.0263 35.0362 94.0263 32.913V3.87782C94.0263 1.55385 94.6862 0.865479 96.8954 0.865479H125.586C128.455 0.865479 128.915 1.43934 128.886 4.13629V32.4542C128.886 35.1225 128.341 35.6963 125.701 35.6963H114.856C113.938 35.6963 113.565 35.9256 113.594 36.9011C113.594 39.7128 113.594 42.5247 113.594 45.3364C113.539 45.5645 113.534 45.8017 113.581 46.0316C113.628 46.2616 113.724 46.4786 113.864 46.6673C114.003 46.856 114.182 47.0119 114.388 47.124C114.595 47.2361 114.822 47.3015 115.057 47.3159C117.835 48.0288 120.289 49.6626 122.019 51.9502C123.749 54.2378 124.653 57.0441 124.582 59.9113C124.348 61.7051 123.944 63.4725 123.377 65.1903C123.189 65.5785 122.958 65.9442 122.689 66.2806ZM122.172 127.45V125.929C122.172 119.502 122.172 113.076 122.172 106.649C122.225 105.633 122.531 104.647 123.062 103.78C123.894 102.259 125.013 100.911 125.931 99.4188C126.271 98.8741 126.469 98.2524 126.505 97.6112C126.505 89.8264 126.505 82.0511 126.505 74.2855C126.535 73.8269 126.466 73.3672 126.303 72.9374C126.14 72.5077 125.887 72.1179 125.561 71.7943C125.234 71.4707 124.842 71.2208 124.411 71.0616C123.98 70.9024 123.52 70.8376 123.062 70.8714H118.299C117.122 70.8714 116.09 70.6706 115.659 69.4081C115.476 68.8749 115.488 68.2938 115.693 67.7684C115.898 67.243 116.282 66.8074 116.778 66.5391C117.932 65.5651 118.816 64.3107 119.346 62.8967C119.875 61.4826 120.032 59.956 119.802 58.4638C119.571 56.9715 118.961 55.5637 118.029 54.3752C117.098 53.1867 115.877 52.2575 114.483 51.677C112.752 51.0704 110.881 50.989 109.104 51.4434C107.328 51.8978 105.725 52.8676 104.499 54.2305C103.731 55.1212 103.153 56.1597 102.802 57.2821C102.451 58.4045 102.334 59.5869 102.458 60.7564C102.581 61.9259 102.943 63.0577 103.521 64.0818C104.099 65.106 104.881 66.0007 105.818 66.711C106.231 66.9829 106.542 67.3836 106.703 67.8507C106.863 68.3178 106.865 68.8251 106.708 69.2933C106.534 69.7744 106.199 70.1804 105.759 70.442C105.32 70.7036 104.803 70.8047 104.298 70.7278H99.5351C99.0571 70.6532 98.5684 70.6905 98.1072 70.8367C97.6461 70.983 97.2252 71.2344 96.8776 71.5708C96.53 71.9073 96.2651 72.3198 96.1039 72.776C95.9427 73.2321 95.8897 73.7192 95.9487 74.1993C95.9487 82.0032 95.9487 89.836 95.9487 97.6399C95.9533 98.1633 96.0916 98.677 96.3505 99.1319C97.1033 100.383 97.9271 101.59 98.8178 102.747C99.8354 104.066 100.354 105.702 100.281 107.366C100.281 113.592 100.281 119.818 100.281 126.044C100.281 127.163 100.568 127.507 101.687 127.507C107.97 127.507 114.225 127.507 120.479 127.507L122.172 127.45ZM124.41 31.5646V30.3024C124.41 22.4411 124.41 14.5795 124.41 6.74691C124.41 5.57058 124.008 5.34108 122.947 5.34108C115.143 5.34108 107.339 5.34108 99.5351 5.34108C98.4162 5.34108 98.0718 5.65668 98.0718 6.77563C98.0718 14.5796 98.0718 22.3932 98.0718 30.2162C98.0718 31.2778 98.3301 31.6508 99.5064 31.6508C107.253 31.6508 115.028 31.6508 122.803 31.6508L124.41 31.5646Z" fill="#C84CFF"/>
<path d="M28.3241 27.0298L26.201 27.2592V35.8665C24.9386 35.8665 23.7622 35.8665 22.6146 35.8665C22.3564 35.8665 21.9547 35.2641 21.9261 34.9198C21.9261 32.7393 21.9261 30.5587 21.9261 28.3495C21.9261 27.4601 21.6964 27.0296 20.7496 27.1731C19.8028 27.3165 19.7455 26.9149 19.7168 26.1115C19.7168 22.9268 19.717 22.9556 22.7582 22.9556H27.3774C28.066 22.9556 28.3528 23.1853 28.3241 23.8739C28.2954 24.5625 28.3241 25.9396 28.3241 27.0298Z" fill="#C84CFF"/>
<path d="M67.6324 35.8382H63.4146C63.4146 35.3791 63.4146 34.9489 63.4146 34.5185C63.4146 32.4527 63.4146 30.3582 63.4146 28.2924C63.4146 27.5178 63.2711 27.0013 62.353 27.1447C61.4349 27.2882 61.2631 26.8294 61.2344 26.0261C61.2344 22.9275 61.2344 22.9272 64.1035 22.9272C65.4806 22.9272 66.9724 22.9272 68.2348 22.9272C69.4972 22.9272 69.8702 23.329 69.6981 24.4767C69.6552 24.7908 69.6552 25.1092 69.6981 25.4233C69.6981 26.5136 69.698 27.4317 68.2348 27.2309C68.0626 27.2309 67.6037 27.8907 67.6037 28.235C67.6037 30.3294 67.6037 32.4528 67.6037 34.5759L67.6324 35.8382Z" fill="#C84CFF"/>
<path d="M71.8772 57.758H68.5777C67.9178 57.758 67.7168 57.5 67.7168 56.8975V53.5405H71.8772V57.758Z" fill="white"/>
<path d="M69.779 85.7607C69.8518 91.9917 67.4969 98.0065 63.2128 102.532C58.9287 107.057 53.0518 109.737 46.8262 110.004C43.6491 110.115 40.4815 109.593 37.5083 108.468C34.5352 107.342 31.8159 105.636 29.5087 103.449C27.2015 101.262 25.3527 98.6378 24.0699 95.729C22.7872 92.8203 22.0962 89.6852 22.0372 86.5067C21.9558 80.2595 24.3034 74.2246 28.5855 69.675C32.8675 65.1253 38.7492 62.4164 44.9899 62.1194C48.175 62.024 51.3473 62.5618 54.3229 63.7018C57.2985 64.8418 60.018 66.5613 62.3239 68.7605C64.6299 70.9597 66.4763 73.595 67.756 76.5132C69.0357 79.4315 69.7234 82.5747 69.779 85.7607ZM45.8792 105.844C51.052 105.837 56.0136 103.791 59.6874 100.149C63.3612 96.5077 65.4512 91.5644 65.504 86.3919C65.5267 83.7951 65.0354 81.2199 64.0583 78.8139C63.0811 76.408 61.6375 74.219 59.8107 72.3735C57.9838 70.528 55.8096 69.0623 53.4137 68.0608C51.0178 67.0592 48.4473 66.5416 45.8505 66.538C43.2331 66.5333 40.6416 67.0529 38.2284 68.0664C35.8152 69.0798 33.6295 70.5663 31.8002 72.4383C29.971 74.3103 28.5352 76.5299 27.5779 78.9659C26.6205 81.4019 26.1608 84.0051 26.226 86.6216C26.3462 91.7461 28.4725 96.6188 32.1477 100.192C35.8229 103.765 40.7533 105.753 45.8792 105.73V105.844Z" fill="white"/>
<path d="M117.756 79.5347C116.551 79.5347 115.49 79.5347 114.457 79.5347C113.424 79.5347 113.366 79.8504 113.366 80.6824C113.366 84.9 113.366 89.1177 113.366 93.3639V94.741H109.149V79.6208H104.73C104.73 78.2437 104.73 77.0388 104.73 75.8625C104.73 75.633 105.161 75.2598 105.39 75.2598H116.867C117.032 75.3042 117.182 75.3911 117.303 75.5119C117.424 75.6328 117.511 75.7833 117.556 75.9483C117.814 77.0386 117.756 78.2436 117.756 79.5347Z" fill="#C84CFF"/>
<path d="M119.848 125.183H115.631C115.631 123.977 115.631 122.83 115.631 121.654C115.681 121.503 115.767 121.366 115.882 121.256C115.997 121.146 116.138 121.066 116.291 121.022C117.438 121.022 118.586 121.022 119.82 121.022L119.848 125.183Z" fill="white"/>
<path d="M118.1 8.75537L121.773 10.8785C120.74 12.7434 119.793 14.4935 118.904 16.2724L113.424 25.7689C112.706 27.06 111.473 27.6051 110.383 26.8592C107.514 24.7647 104.444 22.527 101.402 20.2605L103.497 17.3914C103.927 16.7602 104.357 17.0471 104.816 17.3914C106.71 18.8546 108.632 20.2603 110.698 21.8383L118.1 8.75537Z" fill="#C84CFF"/>
<path d="M45.7987 75.001C42.918 75.1213 40.1878 76.3215 38.1518 78.3629C36.1157 80.4043 34.9227 83.1372 34.8099 86.0182H30.6211C30.6743 84.8327 30.8183 83.6529 31.0515 82.4893C31.8397 79.3508 33.6085 76.5456 36.1008 74.4816C38.5931 72.4176 41.6787 71.2024 44.9091 71.0129C45.196 71.0129 45.7413 71.3287 45.7413 71.5295C45.8273 72.505 45.7987 73.8247 45.7987 75.001Z" fill="#C84CFF"/>
</svg>
