<svg width="112" height="111" viewBox="0 0 112 111" fill="none" xmlns="http://www.w3.org/2000/svg">
<rect x="1.30529" width="76.4786" height="76.4786" rx="4.60057" transform="matrix(0.709308 -0.704899 0.709308 0.704899 0.404828 56.1351)" stroke="#C84CFF" stroke-width="1.84023"/>
<path d="M48.6869 57.4649C48.6869 57.35 48.6869 57.1373 48.6869 56.9247C48.6869 56.4477 48.9383 56.3285 49.3467 56.4851C50.2186 56.8213 51.1095 57.1517 51.9626 57.5396C52.1878 57.6431 52.3811 57.9276 52.4785 58.1718C52.8738 59.1775 53.2051 60.2019 53.612 61.2005C53.6978 61.4088 53.9928 61.6646 54.2006 61.6717C55.1917 61.712 56.1843 61.6717 57.1769 61.6617C57.6129 61.6617 57.8512 61.4447 57.9791 61.0022C58.2697 60.0137 58.588 59.0324 58.9644 58.0755C59.1107 57.7689 59.3561 57.5192 59.662 57.3658C60.3246 57.0224 61.0498 56.7911 61.7111 56.452C61.897 56.344 62.1087 56.2871 62.3243 56.2871C62.54 56.2871 62.7517 56.344 62.9376 56.452C63.8692 56.9118 64.808 57.3586 65.7686 57.7451C65.9017 57.7889 66.0433 57.802 66.1823 57.7833C66.3214 57.7646 66.4543 57.7147 66.5708 57.6373C67.3054 56.9791 68.0008 56.2791 68.6533 55.5411C68.736 55.4148 68.7885 55.2715 68.8069 55.1222C68.8253 54.9728 68.809 54.8213 68.7594 54.6791C68.3379 53.7394 67.7915 52.853 67.389 51.9076C67.2436 51.5642 67.2771 51.0843 67.389 50.7108C67.5947 50.0232 67.8637 49.3556 68.1926 48.7165C68.3497 48.3884 68.611 48.12 68.9367 47.9522C69.8929 47.5513 70.8812 47.218 71.8723 46.9062C72.2923 46.7755 72.4536 46.5672 72.4536 46.1405C72.4289 45.208 72.4173 44.2727 72.4303 43.3431C72.4303 42.846 72.1993 42.6247 71.7386 42.4969C70.7649 42.2095 69.7927 41.9221 68.8451 41.5572C68.5362 41.4125 68.2818 41.1746 68.1185 40.8776C67.8656 40.4466 67.7915 39.9049 67.5067 39.5041C66.8571 38.5903 66.9937 37.7584 67.5285 36.8619C67.9064 36.2205 68.2264 35.5474 68.4847 34.8504C68.5297 34.7063 68.5414 34.5539 68.5187 34.4047C68.4961 34.2555 68.4397 34.1132 68.3539 33.9884C67.7072 33.2786 66.9835 32.6393 66.299 31.9626C65.9967 31.6637 65.7177 31.6422 65.3341 31.8491C64.4199 32.3419 63.4986 32.8261 62.5423 33.2298C62.2197 33.3735 61.7634 33.3333 61.4117 33.2298C60.7403 33.0373 60.1139 32.6939 59.4425 32.5028C59.2207 32.4498 59.0176 32.3383 58.8548 32.1801C58.6921 32.022 58.5757 31.8232 58.5182 31.6048C58.2043 30.6738 57.8352 29.7615 57.5402 28.8262C57.3949 28.3563 57.1391 28.1724 56.6537 28.1897C55.7338 28.2198 54.8139 28.2342 53.8925 28.2256C53.4202 28.2256 53.2138 28.4454 53.0845 28.8693C52.7851 29.8549 52.4712 30.8376 52.0977 31.7959C51.9618 32.1084 51.7239 32.367 51.4219 32.5301C50.6899 32.9004 49.9346 33.2238 49.1607 33.4985C48.8772 33.5941 48.5688 33.589 48.2887 33.4841C47.2889 33.0531 46.3064 32.5919 45.3342 32.1048C44.9709 31.9238 44.7151 31.9611 44.4346 32.2356C43.8039 32.8639 43.1621 33.4817 42.5091 34.089C42.2184 34.362 42.1806 34.6048 42.3928 34.9611C42.9203 35.8476 43.4304 36.747 43.8897 37.6694C44.0256 37.9591 44.0514 38.2876 43.9623 38.5946C43.65 39.4983 43.2851 40.3834 42.8695 41.2454C42.7014 41.5918 42.4182 41.8707 42.0673 42.0356C41.1023 42.4149 40.085 42.6664 39.1128 43.0313C38.8847 43.1175 38.6071 43.4451 38.5998 43.6692C38.5683 44.6717 38.5935 45.6752 38.6754 46.6749C38.6943 46.8991 38.9747 47.2051 39.2058 47.2927C40.1766 47.6577 41.1895 47.9177 42.1545 48.2985C42.5027 48.4632 42.7925 48.7281 42.9857 49.0585C43.2372 49.4593 43.2909 49.9866 43.5671 50.3688C44.2079 51.2826 44.0902 52.1188 43.5511 53.0196C43.1727 53.661 42.8523 54.3341 42.5934 55.0311C42.5018 55.2768 42.5483 55.7207 42.7198 55.8931C43.5307 56.7063 44.4405 57.4261 45.2354 58.2551C45.4432 58.4721 45.3633 58.9606 45.4141 59.3255C45.1569 59.2767 44.8169 59.3155 44.6526 59.1646C43.57 58.1761 42.4989 57.1718 41.4903 56.1115C41.2941 55.9046 41.2505 55.3802 41.3668 55.0928C41.7679 54.0871 42.2983 53.146 42.714 52.1518C42.8331 51.8645 42.7779 51.4866 42.714 51.1662C42.4233 49.6806 41.4424 48.9249 39.9673 48.6907C39.5662 48.6275 39.1942 48.389 38.7945 48.3229C37.9618 48.1792 37.5782 47.7266 37.5767 46.9106C37.5767 45.6175 37.5578 44.333 37.5636 43.0442C37.5636 42.5558 37.8252 42.2713 38.3178 42.129C39.293 41.8417 40.2478 41.4954 41.2244 41.2153C41.6604 41.0888 41.9118 40.8834 42.0499 40.4365C42.2519 39.7742 42.5701 39.1435 42.7852 38.4898C42.8504 38.2531 42.8272 38.0011 42.7198 37.78C42.2359 36.8432 41.7243 35.9122 41.1939 35.0042C40.9395 34.5732 40.9381 34.1953 41.3058 33.8404C42.2925 32.8893 43.2561 31.9109 44.2908 31.0115C44.5 30.829 45.0276 30.8319 45.3269 30.9497C46.2919 31.3304 47.2307 31.783 48.1565 32.2542C48.5605 32.4597 48.902 32.5517 49.2885 32.2542C49.4229 32.1495 49.5802 32.0772 49.7478 32.043C50.8886 31.8476 51.3536 31.079 51.5949 30.0503C51.7593 29.3264 51.9919 28.6193 52.2895 27.9382C52.4189 27.6509 52.7953 27.2917 53.0787 27.2745C54.5494 27.1883 56.0259 27.1653 57.498 27.2098C57.7785 27.217 58.1753 27.569 58.2988 27.8549C58.7246 28.8434 59.0254 29.8865 59.4367 30.8807C59.553 31.1609 59.8901 31.3591 60.1488 31.5689C60.2549 31.6537 60.4395 31.6451 60.5528 31.7212C61.5919 32.3922 62.5598 32.227 63.5509 31.5775C64.1373 31.1937 64.7675 30.8797 65.4285 30.6422C65.7279 30.5345 66.2409 30.5603 66.4574 30.7485C67.5241 31.681 68.5269 32.6867 69.5485 33.668C69.9351 34.0401 69.9278 34.4453 69.6938 34.9094C69.2201 35.8533 68.755 36.8016 68.3452 37.7728C68.2362 38.0329 68.2972 38.3906 68.3539 38.6895C68.662 40.3245 69.8581 40.8647 71.3433 41.2943C73.7601 41.9954 73.3488 41.438 73.5682 44.1491C73.6394 45.0255 73.5101 45.9163 73.5043 46.8014C73.5043 47.3186 73.2413 47.5758 72.7777 47.7324C71.7604 48.0686 70.7547 48.399 69.7709 48.7999C69.4802 48.9163 69.2869 49.2539 69.0675 49.5053C68.9948 49.5901 69.0021 49.7409 68.9352 49.8372C68.165 50.9464 68.4571 51.9708 69.1416 52.9981C69.4323 53.4291 69.5848 53.9636 69.8813 54.3946C70.3173 55.0282 70.2112 55.544 69.6982 56.0497C68.7923 56.9482 67.8913 57.8495 66.9951 58.7537C66.6042 59.1459 66.2031 59.1933 65.6872 58.9275C64.7876 58.4606 63.8473 58.0655 62.9391 57.6215C62.538 57.4218 62.2124 57.4894 61.7852 57.5971C60.2898 57.9807 59.5486 58.9405 59.3146 60.3815C59.3016 60.4277 59.2851 60.4729 59.2652 60.5166C58.5793 62.6286 58.5807 62.6573 56.3253 62.7709C55.3816 62.8073 54.4365 62.7703 53.4987 62.6602C53.2429 62.6344 52.9086 62.3341 52.8025 62.0855C52.3869 61.0913 52.0759 60.0554 51.6603 59.0597C51.5158 58.7537 51.2703 58.5054 50.9642 58.3557C50.2477 58.0253 49.4993 57.7781 48.6869 57.4649Z" fill="#C84CFF"/>
<path d="M46.5332 68.8469V64.8757C46.5332 61.4519 46.5521 58.0267 46.5201 54.6029C46.5201 53.9636 46.7352 53.6101 47.2758 53.2883C49.6229 51.8975 51.9263 50.4363 54.2849 49.0643C54.9927 48.6519 55.3022 48.2123 55.2586 47.3775C55.1772 45.5844 55.2194 43.7856 55.2063 41.9897C55.2063 41.7857 55.1758 41.5802 55.1452 41.1966L52.9334 43.8805C52.7881 44.0471 52.6849 44.2698 52.5061 44.3603C52.3012 44.4638 52.0338 44.448 51.7926 44.4839C51.7548 44.2281 51.6124 43.925 51.7039 43.7253C51.858 43.3876 52.1559 43.1104 52.4015 42.8144C53.3054 41.7196 54.2079 40.6248 55.1206 39.5371C55.5987 38.9624 55.8661 38.9625 56.3326 39.5156C57.4458 40.8417 58.543 42.1822 59.6562 43.5098C59.9149 43.8187 60.0922 44.1405 59.7085 44.4365C59.3248 44.7325 59.0444 44.4595 58.7973 44.1621C58.0183 43.2239 57.2336 42.2943 56.3413 41.2225C56.318 41.6118 56.2933 41.836 56.2933 42.0601C56.2933 44.1434 56.2933 46.2267 56.3224 48.31C56.3311 48.8559 56.1524 49.172 55.6757 49.4594C53.1456 50.9679 50.6445 52.5239 48.1187 54.0311C47.7002 54.2811 47.5839 54.5555 47.5868 55.0095C47.6033 59.1531 47.6067 63.2958 47.597 67.4374C47.5854 72.3693 47.5665 77.3022 47.5403 82.236C47.5403 83.1181 47.4255 83.2259 46.5332 83.2288C45.1279 83.2288 43.7211 83.2115 42.3187 83.2388C41.6807 83.2517 41.3843 83.042 41.3857 82.3768C41.4003 78.1623 41.4003 73.9478 41.3857 69.7334C41.3857 69.1012 41.6357 68.8239 42.2969 68.8368C43.6703 68.8656 45.0538 68.8469 46.5332 68.8469Z" fill="#C84CFF"/>
<path d="M46.3863 82.1081V69.9374H42.5293V82.1081H46.3863Z" fill="#C84CFF"/>
<path d="M69.6135 72.4014C69.6135 75.6819 69.6135 78.9621 69.6135 82.2417C69.6135 83.1353 69.5162 83.2287 68.6108 83.2302C67.2055 83.2302 65.8002 83.2057 64.3963 83.2416C63.69 83.2589 63.4546 82.9687 63.4561 82.3049C63.4667 75.6958 63.4667 69.0868 63.4561 62.4777C63.4561 61.8096 63.7147 61.5309 64.4094 61.5453C65.8375 61.5788 67.2665 61.5788 68.6965 61.5453C69.4115 61.5295 69.6223 61.8326 69.6194 62.4964C69.6019 65.8009 69.6106 69.0983 69.6106 72.3985L69.6135 72.4014Z" fill="#C84CFF"/>
<path d="M64.6074 62.6918V82.1454H67.5634C68.5254 82.1454 68.5254 82.1454 68.5269 81.1598L68.553 66.936C68.553 65.5337 68.553 64.1314 68.553 62.686L64.6074 62.6918Z" fill="#C84CFF"/>
<path d="M51.3285 53.4277C51.8648 52.863 52.3821 52.7524 53.1145 52.9737C54.2057 53.3041 55.3534 53.412 56.488 53.2909C57.6226 53.1698 58.7205 52.8222 59.7152 52.2691C60.7099 51.716 61.5806 50.969 62.2746 50.0734C62.9686 49.1777 63.4713 48.1521 63.7525 47.0586C64.9674 42.448 62.0274 37.7484 57.2854 36.714C52.7062 35.7212 48.0383 38.7699 47.1852 43.3676C46.6722 46.1304 47.4163 48.583 49.3332 50.7165C49.2108 50.832 49.0823 50.9409 48.9481 51.0427C48.8073 51.1309 48.6617 51.2115 48.5121 51.284C45.8584 48.8301 44.6551 43.5026 47.8712 39.2513C50.9434 35.191 56.7361 34.2758 60.9782 37.1594C65.1723 40.007 66.3712 45.7008 63.6057 50.0255C60.5509 54.8041 54.7902 55.2437 51.3285 53.4277Z" fill="#C84CFF"/>
<path d="M56.121 73.5523C56.121 70.6055 56.1355 67.6616 56.1094 64.7148C56.1094 64.0324 56.339 63.7709 57.0366 63.7867C58.4898 63.8212 59.9431 63.8125 61.3964 63.7867C62.0125 63.7781 62.2581 64.0022 62.2552 64.6301C62.2407 70.5456 62.2407 76.4607 62.2552 82.3754C62.2552 82.9903 62.0314 83.2374 61.4051 83.2374C59.9518 83.2159 58.4986 83.2073 57.0453 83.2374C56.3535 83.2532 56.1036 83.0004 56.1108 82.3136C56.1355 79.3956 56.121 76.4732 56.121 73.5523Z" fill="#C84CFF"/>
<path d="M57.2227 64.8785V82.1066H61.1189V64.8785H57.2227Z" fill="#C84CFF"/>
<path d="M54.8806 74.9186C54.8806 77.3827 54.8661 79.8481 54.8908 82.3122C54.8908 82.9889 54.6539 83.2561 53.9564 83.2403C52.5031 83.2073 51.0498 83.2173 49.5966 83.2403C48.9847 83.2489 48.7246 83.0219 48.7246 82.3955C48.7391 77.3975 48.7391 72.3981 48.7246 67.3972C48.7246 66.7766 48.9687 66.5352 49.5849 66.5438C51.0382 66.5625 52.4915 66.5711 53.9447 66.5438C54.6292 66.5294 54.8937 66.7708 54.8865 67.4619C54.8647 69.9504 54.8806 72.4316 54.8806 74.9186Z" fill="#C84CFF"/>
<path d="M53.7504 82.1397V67.6084C52.6677 67.6084 51.6504 67.6558 50.6404 67.5926C49.9298 67.5466 49.8077 67.8268 49.8106 68.4547C49.8338 72.7333 49.8237 77.012 49.8251 81.2906C49.8251 81.4573 49.7844 81.6426 49.8455 81.7863C49.9065 81.93 50.0664 82.1254 50.187 82.1282C51.3656 82.1498 52.5442 82.1397 53.7504 82.1397Z" fill="#C84CFF"/>
</svg>
