<svg width="112" height="111" viewBox="0 0 112 111" fill="none" xmlns="http://www.w3.org/2000/svg">
<rect x="1.30529" width="76.4786" height="76.4786" rx="4.60057" transform="matrix(0.709308 -0.704899 0.709308 0.704899 1.25053 56.1368)" stroke="#C84CFF" stroke-width="1.84023"/>
<path d="M88.654 59.5736C87.6913 60.0921 86.7205 60.6248 85.7394 61.1373C85.5361 61.2363 85.3188 61.3043 85.0949 61.339C84.5014 61.4439 84.2016 61.1372 84.3015 60.5441C84.4647 59.5353 84.6748 58.5466 84.789 57.5419C84.81 57.2056 84.7014 56.874 84.4851 56.6138C83.861 55.9298 83.143 55.3306 82.5087 54.6527C82.2864 54.4166 82.0131 53.9727 82.1008 53.7649C82.213 53.4986 82.6495 53.2787 82.9819 53.208C83.916 53.0063 84.8767 52.9397 85.8108 52.748C86.1189 52.6664 86.3833 52.4706 86.5491 52.2013C86.9958 51.4184 87.3344 50.573 87.7872 49.7922C87.9667 49.4795 88.3379 49.0659 88.603 49.074C88.8682 49.082 89.2373 49.4977 89.4189 49.8144C89.8451 50.5569 90.2041 51.3397 90.561 52.1185C90.627 52.3076 90.7484 52.473 90.9096 52.5937C91.0709 52.7144 91.2647 52.785 91.4666 52.7964C92.4395 52.8973 93.4083 53.0466 94.3689 53.2323C94.6423 53.2867 95.0094 53.4945 95.0869 53.7165C95.1644 53.9384 95.0012 54.3218 94.8136 54.5235C94.1466 55.2297 93.4348 55.8995 92.7169 56.5573C92.5624 56.6707 92.4466 56.828 92.385 57.0083C92.3234 57.1886 92.3189 57.3832 92.3722 57.5661C92.5761 58.5123 92.7271 59.4727 92.8454 60.4331C92.878 60.7095 92.8066 61.1494 92.6251 61.2603C92.4788 61.3251 92.32 61.3576 92.1597 61.3555C91.9994 61.3534 91.8416 61.3168 91.6971 61.2482C90.6773 60.7256 89.682 60.1446 88.654 59.5736ZM91.2912 59.4808C91.1586 58.6556 91.075 57.9676 90.9302 57.2937C90.8098 56.7268 90.92 56.2849 91.3952 55.9237C91.9398 55.5 92.4456 55.03 92.9698 54.578L92.8005 54.3762C92.1315 54.2774 91.4625 54.1382 90.7895 54.0918C90.1592 54.0494 89.8043 53.7669 89.5657 53.2C89.3006 52.5705 88.9538 51.9773 88.5908 51.2732C88.2155 52.0278 87.8728 52.6411 87.5995 53.2908C87.5158 53.525 87.3614 53.728 87.157 53.8724C86.9527 54.0168 86.7085 54.0955 86.4574 54.0978C85.7537 54.1624 85.0562 54.2996 84.3117 54.4085C84.8583 54.9714 85.2989 55.494 85.8108 55.9359C86.2881 56.3394 86.3962 56.7933 86.2697 57.3784C86.127 58.0322 86.0434 58.698 85.9108 59.499C86.592 59.1479 87.1733 58.8937 87.6995 58.5608C88.3379 58.1572 88.9069 58.1794 89.5351 58.5789C90.0471 58.8816 90.61 59.1358 91.2912 59.4808Z" fill="#C84CFF"/>
<path d="M24.3083 59.5736C23.3456 60.0921 22.3748 60.6248 21.3937 61.1373C21.1904 61.2363 20.9731 61.3043 20.7492 61.339C20.1557 61.4439 19.8559 61.1372 19.9558 60.5441C20.119 59.5353 20.3291 58.5466 20.4433 57.5419C20.4643 57.2056 20.3557 56.874 20.1394 56.6138C19.5153 55.9298 18.7973 55.3306 18.163 54.6527C17.9407 54.4166 17.6674 53.9727 17.7551 53.7649C17.8673 53.4986 18.3038 53.2787 18.6362 53.208C19.5703 53.0063 20.531 52.9397 21.4651 52.748C21.7732 52.6664 22.0376 52.4706 22.2034 52.2013C22.6501 51.4184 22.9887 50.573 23.4415 49.7922C23.621 49.4795 23.9922 49.0659 24.2573 49.074C24.5225 49.082 24.8916 49.4977 25.0732 49.8144C25.4994 50.5569 25.8584 51.3397 26.2153 52.1185C26.2813 52.3076 26.4027 52.473 26.5639 52.5937C26.7252 52.7144 26.919 52.785 27.1209 52.7964C28.0938 52.8973 29.0626 53.0466 30.0232 53.2323C30.2966 53.2867 30.6637 53.4945 30.7412 53.7165C30.8187 53.9384 30.6555 54.3218 30.4679 54.5235C29.8009 55.2297 29.0891 55.8995 28.3712 56.5573C28.2167 56.6707 28.1009 56.828 28.0393 57.0083C27.9777 57.1886 27.9732 57.3832 28.0265 57.5661C28.2304 58.5123 28.3814 59.4727 28.4997 60.4331C28.5323 60.7095 28.4609 61.1494 28.2794 61.2603C28.1331 61.3251 27.9743 61.3576 27.814 61.3555C27.6537 61.3534 27.4959 61.3168 27.3514 61.2482C26.3316 60.7256 25.3363 60.1446 24.3083 59.5736ZM26.9455 59.4808C26.8129 58.6556 26.7293 57.9676 26.5845 57.2937C26.4641 56.7268 26.5743 56.2849 27.0495 55.9237C27.5941 55.5 28.0999 55.03 28.6241 54.578L28.4548 54.3762C27.7858 54.2774 27.1168 54.1382 26.4438 54.0918C25.8135 54.0494 25.4586 53.7669 25.22 53.2C24.9549 52.5705 24.6081 51.9773 24.2451 51.2732C23.8698 52.0278 23.5271 52.6411 23.2538 53.2908C23.1701 53.525 23.0157 53.728 22.8113 53.8724C22.607 54.0168 22.3628 54.0955 22.1117 54.0978C21.408 54.1624 20.7105 54.2996 19.966 54.4085C20.5126 54.9714 20.9532 55.494 21.4651 55.9359C21.9424 56.3394 22.0505 56.7933 21.924 57.3784C21.7813 58.0322 21.6977 58.698 21.5651 59.499C22.2463 59.1479 22.8276 58.8937 23.3538 58.5608C23.9922 58.1572 24.5612 58.1794 25.1894 58.5789C25.7014 58.8816 26.2643 59.1358 26.9455 59.4808Z" fill="#C84CFF"/>
<path d="M74.3855 57.228C74.7991 57.6758 75.1205 58.0432 75.4628 58.391C77.4386 60.4007 79.3957 62.4264 81.408 64.3984C82.4739 65.443 83.7043 66.2881 85.1806 66.6946C85.6239 66.8163 86.0901 66.8559 86.5391 66.96C86.6761 66.9915 86.7923 67.111 86.9183 67.1904C86.8048 67.2842 86.7016 67.3965 86.5751 67.465C86.4959 67.5088 86.3807 67.498 86.2823 67.4975C84.7244 67.4882 83.1663 67.4774 81.6081 67.465C80.1834 67.4547 78.916 66.9801 77.9142 66.0021C76.4072 64.5304 74.9497 63.0061 73.5192 61.4607C72.3675 60.2157 71.2793 58.913 70.1812 57.6206C69.9697 57.3717 69.7644 57.2419 69.429 57.264C69.0185 57.2913 68.6049 57.2707 68.1605 57.2707C68.1366 57.4071 68.1207 57.5448 68.1131 57.683C68.1324 59.9787 68.1459 62.2743 68.185 64.5695C68.198 65.0115 68.2625 65.4505 68.3772 65.8779C68.5257 66.4592 68.9367 66.7946 69.5488 66.8513C70.027 66.8956 70.5088 66.9028 70.9855 66.9621C71.1193 66.9781 71.2392 67.1095 71.3652 67.1878C71.2517 67.2836 71.1501 67.4336 71.0204 67.4635C70.799 67.515 70.5599 67.4975 70.3286 67.4975C67.7101 67.4996 65.0914 67.4996 62.4726 67.4975C62.2736 67.4975 62.0636 67.531 61.8798 67.4779C61.7167 67.4305 61.5834 67.2842 61.4375 67.1816C61.5839 67.1048 61.7235 66.9879 61.8787 66.9606C62.1871 66.909 62.5038 66.9008 62.8164 66.8781C63.3654 66.8384 63.7509 66.554 63.8259 66.0253C63.9775 64.9586 64.127 63.8847 64.1645 62.8103C64.2265 61.0412 64.1989 59.2691 64.2088 57.498C64.2088 57.3223 64.2088 57.1465 64.2088 56.9827H76.9766C76.9766 57.0244 76.9766 57.0661 76.9802 57.1074L74.3855 57.228Z" fill="#C84CFF"/>
<path d="M34.0768 56.9888H57.7027C57.6099 57.9905 57.5568 59.0144 57.412 60.026C57.1354 61.9584 56.5139 63.7609 55.0929 65.1904C53.4702 66.8229 51.4834 67.7278 49.1804 67.8844C47.1546 68.0225 45.1349 67.972 43.2028 67.2259C40.7467 66.2772 39.1298 64.5323 38.4823 62.0249C38.1332 60.6717 38.0212 59.253 37.878 57.8565C37.8301 57.3871 37.7561 57.2021 37.2414 57.2078C36.186 57.2196 35.1296 57.1598 34.0742 57.1289L34.0768 56.9888ZM41.8662 57.3016C42.0401 58.6929 42.1349 60.0327 42.398 61.341C42.5557 62.1435 42.8602 62.9106 43.2966 63.6048C44.7317 65.8247 46.9045 66.524 49.4487 66.2148C51.2771 65.9927 52.7977 65.1842 53.7635 63.5728C54.052 63.0768 54.274 62.5457 54.424 61.9929C54.8543 60.4692 54.9131 58.9042 54.8788 57.3036L41.8662 57.3016Z" fill="#C84CFF"/>
<path d="M57.6375 52.4278H34.3164V52.2335C35.3431 52.2335 36.3699 52.2227 37.3961 52.2392C37.7607 52.2454 37.8821 52.1222 37.879 51.7564C37.8597 49.6251 37.8618 47.4932 37.8566 45.3614C37.8566 45.296 37.8519 45.2305 37.8488 45.1651C37.767 43.5836 37.3122 43.1286 35.701 43.0147C35.4202 42.9951 35.1379 42.9833 34.8597 42.9436C34.7847 42.9322 34.6748 42.8349 34.6691 42.7694C34.6633 42.704 34.7602 42.5896 34.8311 42.5726C35.0225 42.5252 35.2192 42.502 35.4166 42.5035C37.2065 42.5298 38.9958 42.5808 40.7857 42.5891C41.7791 42.5942 42.773 42.5308 43.7669 42.5004C43.9159 42.4958 44.0759 42.47 44.2118 42.5123C44.3681 42.5638 44.5015 42.6751 44.6452 42.7607C44.4983 42.8328 44.3582 42.9379 44.203 42.9704C43.8477 43.0436 43.4831 43.0734 43.1257 43.1363C42.5006 43.2497 42.1636 43.6691 42.1042 44.2525C42.0151 45.1316 41.9713 46.0169 41.9573 46.9006C41.9312 48.5074 41.9484 50.1146 41.9302 51.7213C41.926 52.0779 42.0344 52.2103 42.4115 52.2093C46.4233 52.1983 50.4344 52.1983 54.4448 52.2093C54.8464 52.2093 54.9563 52.0686 54.9506 51.694C54.9167 49.4973 54.9022 47.3 54.8771 45.1032C54.8747 44.9394 54.8587 44.776 54.8292 44.6147C54.6407 43.5568 54.2083 43.1569 53.1211 43.041C52.8086 43.0075 52.4903 43.0142 52.1803 42.9652C52.0433 42.9441 51.9199 42.8297 51.7923 42.7591C51.9183 42.6761 52.0345 42.5586 52.1731 42.52C52.3293 42.4767 52.5018 42.5025 52.6679 42.5025C54.9704 42.5025 57.2729 42.5025 59.5753 42.5025C59.7571 42.5025 59.9457 42.4891 60.1181 42.5319C60.2223 42.5581 60.3041 42.6813 60.3953 42.7607C60.2999 42.8297 60.2124 42.9415 60.1077 42.9596C59.7009 43.0302 59.2867 43.058 58.8799 43.1255C58.2637 43.2285 57.9016 43.6145 57.8313 44.2133C57.7417 44.9765 57.6688 45.7453 57.6563 46.5126C57.6276 48.2646 57.6401 50.0213 57.6359 51.7759C57.637 51.9872 57.6375 52.1985 57.6375 52.4278Z" fill="#C84CFF"/>
<path d="M71.6476 52.1588L76.775 52.3345C76.775 52.3623 76.775 52.3906 76.775 52.419H64.2287C64.2287 52.2711 64.2287 52.0969 64.2287 51.9227C64.2235 49.8893 64.2234 47.8559 64.2094 45.8225C64.2027 45.3635 64.1723 44.9052 64.1182 44.4493C64.0271 43.6248 63.4712 43.1533 62.4695 43.0383C62.1408 43.0007 61.8048 43.0157 61.4798 42.9621C61.3162 42.9353 61.1698 42.8075 61.0156 42.7276C61.1808 42.6498 61.3417 42.5215 61.5121 42.505C61.9069 42.4725 62.307 42.4978 62.705 42.4973C65.0408 42.4973 67.3766 42.4973 69.7124 42.4973C69.9442 42.4973 70.1812 42.4885 70.4052 42.5282C70.5068 42.5462 70.5891 42.6735 70.6803 42.7508C70.5855 42.8214 70.4995 42.9337 70.3948 42.9569C70.039 43.0301 69.6759 43.0646 69.3175 43.1254C68.6976 43.2285 68.346 43.6145 68.2757 44.2148C68.182 44.9124 68.1243 45.6143 68.1028 46.3178C68.0736 48.0064 68.0746 49.6961 68.0866 51.3848C68.0866 51.6496 68.172 52.1211 68.284 52.1412C68.7133 52.219 69.1748 52.3211 69.5691 51.9021C70.8777 50.5108 72.231 49.1602 73.5438 47.7725C74.3924 46.8758 75.2144 45.9529 76.0187 45.0171C76.2858 44.7056 76.499 44.3525 76.6495 43.9721C76.8386 43.4862 76.6656 43.2275 76.1854 43.0049C76.0619 42.9477 75.9827 42.7987 75.8827 42.691C76.0223 42.6266 76.1609 42.5076 76.2994 42.5076C76.8287 42.5076 77.3585 42.5637 77.8882 42.5622C79.3468 42.5581 80.8054 42.5364 82.264 42.5199C82.6807 42.5153 83.0938 42.487 83.5064 42.5096C83.6382 42.5169 83.7627 42.6544 83.8908 42.7323C83.771 42.8147 83.6616 42.9384 83.5293 42.9719C82.8094 43.1455 82.0509 43.212 81.367 43.4722C79.8834 44.0391 78.754 45.1145 77.6486 46.208C75.7865 48.0504 73.9209 49.8883 72.0518 51.7218C71.9456 51.8212 71.8523 51.9341 71.6476 52.1588Z" fill="#C84CFF"/>
</svg>
