<svg width="113" height="111" viewBox="0 0 113 111" fill="none" xmlns="http://www.w3.org/2000/svg">
<path d="M45.1936 52.7375H45.1621V52.6761C45.1736 52.6961 45.1836 52.7175 45.1936 52.7375Z" fill="#C84CFF"/>
<path d="M85.142 71.2635C84.535 72.4405 83.513 73.0011 82.1645 72.9997C65.0824 72.994 48.0003 72.994 30.9182 72.9997C29.5726 72.9997 28.5491 72.4462 27.9364 71.2707C27.3424 70.1294 27.4096 68.9738 28.1268 67.8867C31.7914 62.3238 35.4578 56.7633 39.1262 51.2052C39.8419 50.1281 40.8153 49.5874 42.1251 49.5974C42.639 49.5974 43.1514 49.5974 43.6653 49.5974C43.6152 49.9284 43.5794 50.2622 43.5594 50.596C43.5158 51.3047 43.5393 52.016 43.6295 52.7203H42.8952C42.2324 52.7203 41.7701 52.9357 41.4036 53.4935C38.2048 58.364 34.9978 63.2302 31.7828 68.0921C31.2102 68.9638 31.684 69.8269 32.7433 69.8654C33.22 69.8825 33.6966 69.8654 34.1747 69.8654H79.9085C80.0517 69.8654 80.1948 69.8654 80.338 69.8654C81.3944 69.8126 81.8582 68.9538 81.2856 68.0821C79.3646 65.1604 77.4378 62.242 75.5054 59.327C74.2471 57.4224 72.976 55.525 71.7435 53.6034C71.3412 52.9742 70.856 52.7046 70.0987 52.7117H69.4403C69.4632 52.5163 69.4832 52.3194 69.4975 52.1211C69.5625 51.2781 69.5365 50.4306 69.4202 49.5931C69.9026 49.5931 70.3836 49.5931 70.866 49.5803C72.2359 49.5617 73.2451 50.1138 73.9851 51.238C77.2689 56.2255 80.556 61.2101 83.8465 66.1919C84.2258 66.7625 84.6066 67.3432 84.9788 67.9252C85.6673 69.0152 85.716 70.1565 85.142 71.2635Z" fill="#C84CFF"/>
<path d="M78.4395 67.6584H34.6367L40.5444 58.7035C41.2916 57.5708 42.0302 56.4338 42.7961 55.3153C42.9249 55.127 43.1782 54.9044 43.3772 54.9016C43.6234 54.9016 43.8696 54.9016 44.1173 54.9016C44.3167 55.5218 44.5597 56.1272 44.8445 56.7134C46.0084 59.1842 47.9631 61.1996 50.4014 62.4427C51.2256 62.871 52.0938 63.2092 52.9909 63.4513C54.033 63.7303 55.1069 63.8741 56.1859 63.8793C56.8123 63.8845 57.4384 63.8473 58.0597 63.768C61.2791 63.36 64.0461 62.0361 66.2434 59.6308C67.5019 58.2773 68.4387 56.6591 68.9847 54.8959H69.4585C69.7448 54.8959 70.1384 55.0385 70.2801 55.2568C72.9756 59.2942 75.6395 63.3515 78.3092 67.4045C78.3493 67.4644 78.3751 67.5315 78.4395 67.6584Z" fill="#C84CFF"/>
<path d="M57.3125 39.099C59.2851 39.2274 61.2433 39.4214 63.1329 40.0363C63.544 40.1704 63.941 40.3443 64.3181 40.5555C64.5709 40.6877 64.7758 40.8953 64.9042 41.1494C65.0325 41.4034 65.0779 41.6911 65.0339 41.9722C64.8735 43.5115 65.2314 44.9324 65.9872 46.2692C66.9491 47.9394 67.3817 49.8605 67.2283 51.7802C67.0722 54.088 66.1245 56.2721 64.5443 57.966C62.7306 59.9519 60.4474 61.0447 57.7907 61.3799C55.6193 61.677 53.409 61.2931 51.4664 60.2815C49.4558 59.2553 47.8444 57.5922 46.8858 55.5536C46.1156 53.9629 45.7206 52.2924 45.8279 50.5191C45.9224 49.0972 46.3232 47.7124 47.0032 46.4589C47.1592 46.1636 47.3352 45.8797 47.4999 45.5887C47.7232 45.1859 47.833 44.7304 47.8176 44.2705C47.8052 43.4145 47.7986 42.5633 47.7976 41.7168C47.7976 41.1091 48.1039 40.6797 48.6894 40.4642C50.5159 39.7909 52.3869 39.3229 54.3422 39.2402C55.0179 39.2102 55.6921 39.1403 56.3678 39.0975C56.6813 39.0833 56.999 39.099 57.3125 39.099ZM47.2021 52.2239V52.4536C47.2114 53.0699 47.3256 53.6801 47.54 54.2583C48.0538 55.672 48.9385 56.8262 50.0636 57.8077C51.6826 59.2158 53.5392 60.1288 55.695 60.3399C57.6046 60.5502 59.5322 60.1548 61.2033 59.2101C63.2073 58.0688 64.6502 56.4324 65.4375 54.2554C65.5807 53.8488 65.6651 53.4194 65.7754 53.0014L65.7095 52.9771C65.6322 53.1027 65.552 53.2282 65.4776 53.3552C65.2205 53.8297 64.8588 54.2399 64.4197 54.555C64.0945 54.7858 63.7222 54.9424 63.3293 55.0137C62.9364 55.0849 62.5326 55.0691 62.1466 54.9673C60.8196 54.6377 59.6673 54.0129 58.827 52.8973C58.3609 52.272 57.969 51.5951 57.659 50.88C57.5066 50.4744 57.275 50.103 56.9776 49.7872C56.6913 49.5147 56.4837 49.4919 56.2203 49.7872C56 50.0426 55.808 50.321 55.6478 50.6175C55.4688 50.9285 55.3471 51.2709 55.1782 51.5876C54.5885 52.6847 53.8241 53.6263 52.7362 54.2754C52.2183 54.5997 51.6454 54.8269 51.0456 54.9459C49.6857 55.187 48.6508 54.6762 47.9136 53.5492C47.643 53.1441 47.4498 52.6961 47.2021 52.2253V52.2239ZM61.7229 47.6159C61.4538 47.633 61.1846 47.6401 60.917 47.6673C60.1372 47.7324 59.3735 47.9252 58.6567 48.2379C58.3488 48.3626 58.0916 48.5864 57.9261 48.8736C57.7606 49.1608 57.6963 49.495 57.7434 49.8229C57.7857 50.1074 57.8581 50.3867 57.9596 50.656C58.5865 52.4778 59.7618 53.7746 61.6055 54.4323C63.3233 55.0472 64.7118 54.4009 65.3044 52.6761C65.479 52.1711 65.5578 51.6347 65.7167 51.1225C65.8419 50.6663 65.8349 50.184 65.6966 49.7316C65.4719 48.8371 64.948 48.2279 64.0333 47.9683C63.282 47.75 62.5052 47.6315 61.7229 47.6159ZM47.4412 50.7202C47.4507 51.7046 47.7363 52.6667 48.2657 53.4979C48.7853 54.3082 49.544 54.7233 50.5117 54.6392C51.4335 54.5595 52.3147 54.2255 53.0568 53.6748C54.2363 52.8188 54.9549 51.6318 55.3715 50.2594C55.4547 49.9568 55.4689 49.6395 55.413 49.3307C55.2928 48.6374 54.7946 48.245 54.1605 48.0553C53.6544 47.9198 53.1398 47.8178 52.6202 47.75C52.2427 47.678 51.8594 47.6408 51.475 47.6387C50.9182 47.653 50.3614 47.72 49.8088 47.7885C49.0072 47.8898 48.3215 48.2079 47.8577 48.9027C47.5142 49.4092 47.4483 49.9912 47.4469 50.7145L47.4412 50.7202ZM47.4097 48.723C47.6353 48.4776 47.8742 48.2447 48.1254 48.0253C48.7596 47.5217 49.5197 47.3677 50.3055 47.3505C51.2918 47.3291 52.2781 47.3406 53.2629 47.3363C56.352 47.322 59.4406 47.3077 62.5288 47.2935C63.5437 47.2935 64.5171 47.459 65.3688 48.0624C65.406 48.0881 65.4475 48.1095 65.4862 48.1323L65.5434 48.0853C65.0711 47.265 64.5858 46.4503 64.1292 45.6215C64.0548 45.4754 63.9387 45.3545 63.7956 45.2741C63.6524 45.1936 63.4886 45.1571 63.3247 45.1692C62.8509 45.1692 62.3785 45.1578 61.9047 45.1564C57.8565 45.1478 53.8083 45.1379 49.7602 45.1264C49.5918 45.116 49.4237 45.15 49.2729 45.2252C49.1221 45.3004 48.9939 45.414 48.9013 45.5544C48.1927 46.5131 47.6416 47.546 47.4154 48.7187L47.4097 48.723Z" fill="#C84CFF"/>
<path d="M50.3234 32.425C49.7995 31.7203 49.4402 30.9984 48.8705 30.5262C48.0445 29.8428 47.074 29.3307 46.1507 28.7657C45.8029 28.5517 45.3935 28.4333 45.0585 28.2036C44.1825 27.603 44.0894 26.7342 44.8094 25.951C45.6783 25.0066 46.8278 24.5615 48.0331 24.2562C51.0936 23.4787 54.008 23.9495 56.8523 25.2391C57.791 25.6494 58.7676 25.9676 59.7682 26.1892C61.6076 26.6172 63.1937 25.9339 64.6867 24.9253C65.6887 24.2476 66.7738 23.7925 68.0292 23.8653C69.2202 23.9366 69.6038 24.5087 68.9482 25.4988C68.1852 26.66 67.2677 27.7186 66.4474 28.8428C65.7317 29.8414 65.0389 30.8543 64.3489 31.8686C64.2304 32.0835 64.1298 32.3078 64.0483 32.5391C64.8628 32.6818 65.6372 32.7688 66.3744 32.9771C67.6327 33.3324 68.8695 33.7618 70.1105 34.1755C70.2819 34.2457 70.4395 34.3457 70.5758 34.4708C71.2586 35.0272 71.2915 35.652 70.5615 36.1285C69.9079 36.549 69.2006 36.8801 68.4586 37.1129C65.94 37.8803 63.325 38.2885 60.6915 38.3255C57.5938 38.394 54.4861 38.3755 51.387 38.2128C48.9092 38.0816 46.4413 37.7035 44.1109 36.7548C43.7689 36.6162 43.4422 36.4426 43.1361 36.237C42.2772 35.6506 42.2414 34.9416 43.1218 34.4009C43.7788 33.9839 44.4948 33.6675 45.246 33.4622C46.6947 33.0984 48.1777 32.863 49.6464 32.5734C49.8095 32.5434 49.9641 32.5049 50.3234 32.425Z" fill="#C84CFF"/>
<rect x="1.30529" width="76.4786" height="76.4786" rx="4.60057" transform="matrix(0.709308 -0.704899 0.709308 0.704899 1.36577 56.3445)" stroke="#C84CFF" stroke-width="1.84023"/>
</svg>
