<svg width="158" height="158" viewBox="0 0 158 158" fill="none" xmlns="http://www.w3.org/2000/svg">
<path d="M157.485 48.0038C156.964 48.4586 156.509 49.065 155.903 49.3395C154.398 50.0156 152.886 48.856 152.869 47.0164C152.833 43.1855 152.869 39.3505 152.869 35.5155V33.6062H151.156C146.196 33.6062 141.236 33.6062 136.277 33.6062C129.374 33.5857 124.648 28.8657 124.607 21.9414C124.578 17.0247 124.607 12.108 124.607 7.21595V5.3927H57.3249C52.5823 5.3927 49.9138 8.05182 49.8851 12.7923C49.8851 14.7713 49.8851 16.7502 49.8851 18.8726C53.7587 18.8726 57.4273 18.8275 61.1001 18.8726C65.0451 18.8856 68.8706 20.2269 71.9592 22.68C75.0479 25.1332 77.2194 28.5551 78.1234 32.3934C78.4442 33.8361 78.6159 35.3079 78.6358 36.7856C78.7137 39.289 78.6932 41.7965 78.6358 44.2999C78.5831 45.611 78.8652 46.9139 79.4556 48.0858C80.0213 49.2289 80.1852 50.622 80.2959 51.9208C80.4312 53.4941 80.3369 55.0879 80.3205 56.6736C80.2795 61.4059 77.6438 64.0486 72.9422 64.1797C72.5323 64.1797 72.147 64.233 71.7945 64.2575C71.319 65.9497 70.9296 67.5804 70.4008 69.1742C69.156 72.8255 66.9175 76.0576 63.9366 78.5077C63.289 79.0567 62.2314 79.6139 62.1617 80.2531C61.9691 82.0599 62.1617 83.9119 62.2806 85.7393C62.2806 85.9605 62.6905 86.2432 62.9979 86.3456C64.5269 86.8824 66.1091 87.2798 67.6012 87.8944C70.4705 89.0744 73.307 90.3527 76.1436 91.6229C82.0626 94.2615 87.293 97.8384 91.3797 102.939C95.7364 108.306 98.1528 114.986 98.2374 121.897C98.3686 127.633 98.2784 133.37 98.2825 139.073V140.958H145.585C150.471 140.958 152.853 138.593 152.853 133.742C152.853 109.255 152.853 84.7668 152.853 60.2791C152.853 59.8694 152.853 59.4597 152.853 59.0499C152.792 57.7593 152.919 56.5261 154.361 56.0344C155.804 55.5427 156.772 56.354 157.485 57.5422V136.377C157.419 136.451 157.317 136.516 157.292 136.602C155.534 142.826 151.964 145.555 145.532 145.559H98.4915C98.4188 145.708 98.3611 145.865 98.3194 146.026C98.3194 146.69 98.3194 147.353 98.2825 148.017C98.1554 151.852 96.4051 154.737 93.0767 156.621C92.0748 157.102 91.0407 157.513 89.9819 157.85H8.66923C2.00009 155.163 0.413763 152.786 0.413763 145.46C0.413763 138.307 0.364571 131.149 0.442453 123.991C0.462027 121.592 0.660704 119.198 1.03682 116.829C1.81689 112.12 3.73624 107.672 6.62791 103.874C7.44772 102.804 8.45199 102.37 9.70219 103.017C10.7434 103.558 11.0754 104.513 10.8007 105.619C10.6656 106.057 10.4471 106.465 10.1572 106.82C7.28786 110.765 5.43099 115.157 5.29572 120.004C5.04158 129.403 5.05388 138.807 5.06618 148.21C5.07347 149.433 5.53149 150.611 6.3527 151.518C7.17391 152.425 8.30071 152.997 9.51773 153.126C12.0919 153.348 14.6948 153.175 17.4494 153.175V151.43C17.4494 146.063 17.4494 140.695 17.4494 135.328C17.4335 134.817 17.4486 134.305 17.4945 133.796C17.6461 132.566 18.3635 131.833 19.6014 131.767C20.9172 131.698 21.7247 132.394 21.9624 133.681C22.0369 134.187 22.0644 134.698 22.0444 135.209C22.0444 140.577 22.0444 145.944 22.0444 151.311V153.143H36.5386C36.637 152.696 36.7395 152.352 36.7928 152C38.8833 138.991 40.8631 125.966 43.134 112.99C43.63 110.159 43.134 108.049 41.1746 106.168C40.8085 105.791 40.3173 105.561 39.7933 105.521C36.8338 105.652 34.5752 104.451 32.7716 102.169C30.8451 99.7108 28.857 97.3303 26.6722 94.6425C23.8726 96.1708 21.0483 97.6745 18.261 99.2478C16.6747 100.145 15.4122 100.067 14.6128 98.8832C13.8135 97.6991 14.1538 96.3552 15.7032 95.421C17.7527 94.1918 19.835 92.9627 21.987 91.922C24.5489 90.6723 27.1764 89.5497 29.8162 88.4803C31.7837 87.6609 33.8414 87.0954 35.8131 86.3047C36.0267 86.1641 36.2065 85.9781 36.3398 85.76C36.473 85.5418 36.5563 85.2969 36.5837 85.0428C36.6944 83.8136 36.5837 82.5844 36.6616 81.3552C36.7191 80.9083 36.6478 80.4542 36.4561 80.0464C36.2644 79.6385 35.9603 79.2937 35.5794 79.0526C31.6936 76.1846 29.2095 72.3454 27.8446 67.7565C27.5002 66.6011 27.2789 65.4047 26.9838 64.1633C26.373 64.1633 25.8688 64.1633 25.3441 64.1633C21.1877 64.0281 18.4782 61.2952 18.4209 57.1529C18.4004 55.4649 18.343 53.7768 18.4209 52.0929C18.4864 50.8883 18.4536 49.4952 19.0357 48.5365C20.081 46.8157 20.0113 45.0538 20.0113 43.2347C20.0113 41.5958 20.0113 39.9569 20.0113 38.318C19.9429 36.1519 20.6281 34.0291 21.9501 32.3114C22.5076 31.6026 22.2985 31.1397 22.0403 30.4104C21.282 28.2634 20.4622 26.0878 20.1138 23.8548C19.6014 20.6098 21.3435 18.8439 24.6227 18.8398C30.9079 18.8398 37.1931 18.8398 43.4783 18.8398H45.2122C45.2122 16.6805 45.2122 14.7426 45.2122 12.8046C45.2491 5.42956 49.963 0.766919 57.3454 0.766919C79.3818 0.766919 101.42 0.75738 123.459 0.73826C124.836 0.699372 126.205 0.952798 127.477 1.48178C128.749 2.01077 129.894 2.80328 130.837 3.80708C138.278 11.3323 145.762 18.8152 153.288 26.2558C155.083 28.0381 156.739 29.8531 157.419 32.3606L157.485 48.0038ZM76.7338 153.151V145.243C76.7338 141.515 76.7133 137.782 76.7338 134.05C76.7338 132.661 77.6315 131.788 78.8817 131.735C80.1319 131.681 81.0788 132.48 81.2715 133.828C81.318 134.286 81.3317 134.746 81.3125 135.205C81.3125 140.523 81.3125 145.839 81.3125 151.151V153.2C83.6817 153.2 85.8706 153.221 88.0554 153.2C91.4125 153.163 93.6506 150.971 93.6588 147.628C93.6588 139.093 93.7367 130.555 93.6219 122.024C93.5867 115.878 91.3618 109.946 87.3462 105.291C83.4317 100.645 78.4021 97.4696 72.7742 95.2202C72.5165 95.1668 72.2498 95.1761 71.9965 95.2475C71.7432 95.3188 71.5108 95.45 71.319 95.63C69.458 97.8015 67.6708 100.039 65.8919 102.276C64.1129 104.513 61.9527 105.631 59.1284 105.553C58.8784 105.553 58.5095 105.467 58.3906 105.594C57.3741 106.733 56.2673 107.832 55.4721 109.118C55.1155 109.692 55.3081 110.683 55.427 111.453C56.8098 120.175 58.2089 128.895 59.6244 137.614C60.4442 142.793 61.3091 147.972 62.1576 153.184L76.7338 153.151ZM47.934 39.0186C43.9456 39.0186 39.9572 39.0883 35.9729 39.0186C32.4519 38.9367 32.3535 38.9367 31.7509 42.4972C31.6952 42.7988 31.6637 43.1043 31.6567 43.4109C31.6567 50.1057 31.4025 56.8088 31.7304 63.4873C32.1199 71.3662 39.3219 78.4913 47.1961 79.364C49.7094 79.6375 52.252 79.3808 54.6598 78.6105C57.0675 77.8402 59.2868 76.5734 61.174 74.892C63.0613 73.2107 64.5745 71.1521 65.616 68.8496C66.6574 66.547 67.2038 64.0516 67.2199 61.5247C67.2896 56.1081 67.2445 50.6916 67.2199 45.2751C67.2199 41.2311 65.0147 39.0309 60.9566 39.0145C56.6239 38.99 52.2789 39.0186 47.934 39.0186ZM74.0531 43.6485C74.0531 41.5056 74.0531 39.4693 74.0531 37.4289C74.0531 28.9353 68.5562 23.4573 60.0466 23.4532C48.8562 23.4532 37.6645 23.4532 26.4714 23.4532H24.6555C24.8318 24.3587 24.9178 25.0922 25.1187 25.8338C26.5984 31.1028 31.091 34.3887 36.9608 34.4092C45.0851 34.442 53.2094 34.4092 61.3337 34.4092C66.3018 34.4379 70.1385 37.2978 71.4215 41.8047C71.5854 42.3865 71.7043 42.9806 71.8601 43.6321L74.0531 43.6485ZM48.0036 111.253C45.7492 125.249 43.4947 139.179 41.2607 153.143H57.4437C57.4068 152.786 57.3986 152.532 57.3577 152.282C55.2589 139.286 53.1575 126.289 51.0533 113.293C50.6639 110.851 50.6844 110.851 48.0036 111.24V111.253ZM129.316 9.20724C129.316 14.0133 129.107 18.9463 129.398 23.8507C129.57 26.7188 132.501 28.9517 135.403 29.0009C139.912 29.0747 144.384 29.0214 148.877 29.0009C148.988 29.0009 149.102 28.8739 148.996 28.9394L129.316 9.20724ZM41.5354 82.5476C41.2115 84.4651 40.9123 86.1039 40.6746 87.7551C40.6527 87.9175 40.6659 88.0828 40.7132 88.2397C40.7606 88.3966 40.8411 88.5415 40.9492 88.6647C43.7324 90.8772 46.5444 93.0487 49.3768 95.253C52.1847 93.0651 54.89 90.9755 57.5749 88.845C57.7239 88.729 57.8461 88.5821 57.9332 88.4145C58.0202 88.2469 58.07 88.0625 58.0791 87.8739C57.8454 86.1367 57.5134 84.4159 57.1937 82.5476C54.7259 83.6342 52.0581 84.193 49.3615 84.1881C46.6649 84.1832 43.9991 83.6146 41.5354 82.5188V82.5476ZM31.1771 92.9094C33.1733 95.3677 35.0015 97.6868 36.9157 99.9239C37.3432 100.45 37.9434 100.808 38.6097 100.934C39.276 101.06 39.9654 100.946 40.5557 100.612C42.1256 99.8296 43.6136 98.8668 45.2696 97.9081C42.3634 95.6464 39.6498 93.483 36.8624 91.418C36.5878 91.2628 36.2844 91.1653 35.9707 91.1315C35.6571 91.0977 35.3398 91.1282 35.0384 91.2214C33.8005 91.6065 32.624 92.2539 31.1771 92.8807V92.9094ZM53.4554 97.9121C55.1278 98.8791 56.6239 99.8419 58.2103 100.633C59.3867 101.219 60.7107 101.124 61.6043 100.112C63.6333 97.8138 65.5352 95.3964 67.5725 92.9217C66.1132 92.2621 64.8917 91.6229 63.6046 91.1763C63.3245 91.0902 63.0293 91.064 62.7384 91.0993C62.4475 91.1346 62.1672 91.2306 61.9158 91.3811C59.1039 93.442 56.378 95.6259 53.4554 97.8834V97.9121ZM26.8649 48.4586C24.5571 48.1554 23.1184 49.2781 23.0487 51.507C22.9954 53.236 23.0241 54.9732 23.0487 56.7063C23.0487 59.1647 24.4464 60.0988 26.8772 59.263L26.8649 48.4586ZM71.9215 59.431C74.5777 59.7506 75.6353 59.1606 75.7214 57.239C75.8074 55.3174 75.8156 53.3589 75.7214 51.4291C75.6066 49.3027 74.2375 48.2497 71.9297 48.4013L71.9215 59.431ZM45.1548 103.386C46.0976 106.225 48.1266 106.828 50.7213 106.484C52.5618 106.242 52.7995 104.537 53.8981 103.566C49.3686 100.522 49.3686 100.522 45.2573 103.275C45.219 103.308 45.1846 103.345 45.1548 103.386ZM25.6352 35.0443C23.9956 37.8714 24.9219 40.805 24.6473 43.7509L26.7911 43.6444C27.3691 41.3254 27.9019 39.1702 28.4307 36.9946L25.6352 35.0443Z" fill="white"/>
<path d="M115.656 43.0858H138.361C141.718 43.0858 143.058 44.4461 143.062 47.8468C143.062 51.1697 143.062 54.4925 143.062 57.8153C143.062 60.6834 141.587 62.183 138.73 62.1871C123.347 62.2035 107.961 62.2035 92.5702 62.1871C89.7788 62.1871 88.2867 60.7244 88.2498 57.9506C88.2048 54.3737 88.1966 50.7968 88.2498 47.2199C88.2908 44.5403 89.8157 43.094 92.5088 43.0899C100.24 43.0572 107.938 43.0858 115.656 43.0858ZM138.389 47.7935H92.931V57.4958H138.389V47.7935Z" fill="#3FCDB8"/>
<path d="M115.536 83.301H91.6058C91.1465 83.325 90.6861 83.314 90.2285 83.2682C89.7116 83.2191 89.23 82.9846 88.8728 82.6079C88.5156 82.2313 88.307 81.7381 88.2855 81.2196C88.2107 80.7046 88.3293 80.1802 88.6185 79.7474C88.9076 79.3147 89.3468 79.0042 89.8514 78.876C90.3947 78.738 90.9559 78.6841 91.5156 78.7162C107.625 78.7162 123.733 78.7162 139.839 78.7162C140.299 78.6868 140.76 78.7158 141.212 78.8023C142.389 79.1095 143.082 79.9085 143.016 81.1335C143.015 81.6801 142.807 82.2061 142.433 82.6053C142.06 83.0045 141.549 83.2473 141.003 83.2846C140.544 83.3291 140.082 83.3387 139.622 83.3133L115.536 83.301Z" fill="#3FCDB8"/>
<path d="M115.758 68.4329H139.532C140.043 68.4163 140.554 68.4368 141.061 68.4943C141.593 68.5663 142.081 68.826 142.437 69.2265C142.794 69.6269 142.996 70.1418 143.005 70.6778C143.015 71.2139 142.833 71.7358 142.491 72.1492C142.15 72.5625 141.672 72.8401 141.143 72.9316C140.639 73.0103 140.128 73.0418 139.618 73.0258C123.616 73.0258 107.614 73.0258 91.6143 73.0258C91.1551 73.0376 90.6957 73.0102 90.2411 72.9439C88.9294 72.7268 88.2367 71.8745 88.29 70.6003C88.281 70.0526 88.4872 69.5232 88.8642 69.1257C89.2412 68.7281 89.7591 68.4941 90.3067 68.4738C90.8165 68.43 91.3283 68.415 91.8397 68.4288L115.758 68.4329Z" fill="#3FCDB8"/>
<path d="M103.184 89.0447C107.115 89.0447 111.05 89.0447 114.985 89.0447C116.928 89.0447 117.949 89.8641 117.916 91.3637C117.883 92.8632 116.887 93.6294 115.047 93.6335C107.078 93.6499 99.1082 93.6499 91.1369 93.6335C89.3497 93.6335 88.2676 92.7404 88.2676 91.3473C88.2676 89.9542 89.3128 89.0488 91.2394 89.0447C95.2114 89.0365 99.1997 89.0447 103.184 89.0447Z" fill="#3FCDB8"/>
</svg>
