<svg width="167" height="168" viewBox="0 0 167 168" fill="none" xmlns="http://www.w3.org/2000/svg">
<path d="M18.0545 20.4765C16.7318 17.3699 16.5878 13.8873 17.6495 10.6821C18.7112 7.47684 20.9059 4.76907 23.8216 3.06634C26.0969 1.62834 28.7533 0.91111 31.4431 1.0088C34.133 1.1065 36.7308 2.01465 38.8958 3.61392C41.4726 5.45209 43.3511 8.10837 44.2259 11.1503C45.1007 14.1923 44.9202 17.4407 43.7135 20.3669C45.0617 20.8567 46.378 21.4296 47.6553 22.0823C49.3045 23.0685 50.6652 24.4715 51.6006 26.1501C52.536 27.8287 53.0134 29.7236 52.9844 31.645C52.9844 36.9374 52.9844 42.1932 52.9844 47.4856C53.1125 48.2128 52.9671 48.9619 52.5763 49.5885C52.1855 50.2151 51.5767 50.6752 50.8672 50.8802C47.8378 51.7562 47.2173 53.727 47.2173 56.6834C47.4728 60.3333 47.2173 63.7278 47.2173 67.2317V69.1298C53.538 67.4088 60.171 67.1712 66.5986 68.4361C66.6247 67.9863 66.6247 67.5354 66.5986 67.0856C66.5986 62.7057 66.5986 58.2893 66.5986 53.9094C66.5619 53.5526 66.448 53.2081 66.2653 52.8994C66.0826 52.5906 65.8352 52.3249 65.5399 52.121C60.1016 49.4566 61.1236 49.7851 61.0506 44.4198C61.0506 40.3318 61.0506 36.244 61.0506 32.1561C60.8835 29.5147 61.6786 26.9021 63.289 24.8019C64.8995 22.7016 67.2163 21.2559 69.8105 20.7318L70.3946 20.4765C69.2523 17.7175 69.0184 14.666 69.7272 11.7652C70.436 8.86441 72.0504 6.26505 74.3364 4.34372C75.7307 3.10633 77.3744 2.1826 79.1563 1.6348C80.9382 1.08699 82.8168 0.92789 84.6655 1.16831C86.8428 1.35651 88.9395 2.08177 90.7677 3.27931C92.5958 4.47685 94.0984 6.10929 95.1407 8.03017C96.2024 9.85571 96.8335 11.8995 96.9853 14.0058C97.1371 16.1122 96.8056 18.2253 96.0167 20.1842C97.7771 20.9859 99.484 21.9002 101.127 22.9217C102.417 23.8422 103.467 25.0581 104.191 26.4678C104.915 27.8774 105.291 29.4397 105.288 31.0244C105.288 36.6818 105.288 42.3392 105.288 47.9601C105.359 48.5299 105.231 49.1071 104.925 49.593C104.619 50.0788 104.154 50.4431 103.609 50.6244C99.9589 51.6829 99.4845 53.9461 99.6305 57.3041C99.9225 64.0564 99.6305 70.8451 99.6305 77.6339C99.6305 80.5904 98.8275 81.2838 95.9806 81.2838H90.0673C89.8734 81.2594 89.6775 81.2594 89.4836 81.2838C89.7017 81.6767 89.9454 82.0549 90.2134 82.4155C95.4387 88.4686 98.7377 95.9443 99.6871 103.884C100.636 111.824 99.193 119.866 95.5422 126.981C92.0056 134.482 86.2715 140.73 79.1006 144.896C71.9297 149.062 63.6611 150.948 55.3931 150.304C50.172 149.902 45.072 148.528 40.3554 146.253C40.192 146.139 40.007 146.06 39.8118 146.02C39.6167 145.98 39.4155 145.981 39.2206 146.022C39.0257 146.063 38.8414 146.143 38.6788 146.258C38.5162 146.373 38.3789 146.521 38.2752 146.691C36.7057 148.333 35.0634 149.939 33.4575 151.508C31.8515 153.078 30.2819 153.698 27.873 151.508C27.289 152.019 26.6686 152.567 26.1211 153.114L13.7478 165.524C11.9594 167.349 10.6455 167.349 8.82051 165.524C6.33857 163.079 3.85662 160.56 1.52068 158.224C1.15892 157.964 0.864012 157.621 0.660772 157.225C0.457532 156.828 0.351562 156.389 0.351562 155.943C0.351562 155.498 0.457532 155.058 0.660772 154.661C0.864012 154.265 1.15892 153.922 1.52068 153.662C5.93708 149.209 10.317 144.756 14.7699 140.376C15.4634 139.683 15.7551 139.208 14.9521 138.332C14.6889 138.062 14.4861 137.74 14.3569 137.385C14.2277 137.031 14.1751 136.653 14.2027 136.277C14.2303 135.901 14.3373 135.535 14.5168 135.204C14.6963 134.872 14.9442 134.582 15.244 134.354C17.0324 132.565 18.8942 130.704 20.6097 128.989C20.9828 128.724 21.2371 128.323 21.319 127.873C21.4008 127.423 21.3037 126.959 21.0476 126.579C18.5634 121.493 17.1695 115.943 16.9557 110.286C16.742 104.629 17.713 98.9899 19.8064 93.7302C21.3633 89.5525 23.6499 85.6844 26.5591 82.3059L27.4715 81.0651H25.6466H17.58C15.244 81.0651 14.1858 80.116 14.1858 77.8166C14.1858 73.1082 14.1858 68.4364 14.1858 63.728C14.1858 60.078 14.1858 56.6836 14.1858 53.1796C14.1324 52.9001 14.0201 52.635 13.8565 52.4022C13.6929 52.1693 13.4816 51.9742 13.2368 51.8292C8.05389 49.2377 8.74741 49.9311 8.71091 43.9818C8.71091 40.3319 8.71091 36.6817 8.71091 33.2873C8.37076 30.368 9.14347 27.4278 10.8754 25.0532C12.6073 22.6786 15.1708 21.0446 18.0545 20.4765ZM33.8224 73.1446V67.7428H39.2607V72.1956C41.9616 71.5021 42.0712 71.3925 42.0712 68.874V53.9825C42.0712 48.7631 41.7426 49.347 46.4875 47.0476C46.8424 46.9205 47.1455 46.6799 47.35 46.3632C47.5546 46.0466 47.6493 45.6715 47.6192 45.2957C47.6192 40.7333 47.6192 36.1709 47.6192 31.645C47.6342 30.8901 47.4959 30.1401 47.2128 29.44C46.9297 28.74 46.5076 28.1045 45.972 27.5723C45.4363 27.0401 44.798 26.6221 44.0962 26.3435C43.3944 26.0648 42.6434 25.9315 41.8885 25.9514H38.4578C37.8618 26.0084 37.2636 25.8628 36.7603 25.5384C36.257 25.2139 35.878 24.729 35.6839 24.1625C35.4706 23.6303 35.4296 23.0448 35.5671 22.4882C35.7046 21.9315 36.0136 21.4319 36.4502 21.0602C36.9102 20.6415 37.3259 20.1768 37.691 19.6732C38.924 17.9589 39.4592 15.8403 39.1881 13.7461C38.917 11.6519 37.8599 9.73891 36.231 8.39508C34.5543 7.01913 32.4071 6.35218 30.246 6.53626C28.0848 6.72033 26.0808 7.74095 24.661 9.38063C23.209 10.9728 22.4442 13.0736 22.5331 15.2266C22.622 17.3797 23.5573 19.4108 25.1355 20.878C25.6997 21.2759 26.1046 21.861 26.2784 22.5292C26.4521 23.1973 26.3834 23.9055 26.0846 24.5279C25.821 25.0952 25.3778 25.56 24.8237 25.8503C24.2695 26.1405 23.6348 26.24 23.0183 26.1336H20.2082C19.4035 26.0729 18.5951 26.1874 17.8388 26.4691C17.0826 26.7508 16.3961 27.1933 15.8272 27.7657C15.2583 28.338 14.8202 29.0269 14.5431 29.7849C14.266 30.5428 14.1567 31.3517 14.2223 32.1561C14.2223 35.806 14.2223 39.4561 14.2223 42.8505C14.0759 43.426 14.0461 44.0247 14.1345 44.6118C14.223 45.1989 14.4279 45.7625 14.7374 46.2692C15.0468 46.7759 15.4544 47.2154 15.9363 47.5622C16.4183 47.909 16.9647 48.1563 17.5434 48.2889C19.4049 48.8729 19.916 50.2961 19.916 52.1576C19.916 59.4574 19.916 66.7575 19.916 74.3128C19.916 75.8458 20.3906 76.2469 21.8505 76.2104C25.2084 76.2104 28.6029 76.0279 31.9243 76.2104C34.4428 76.2104 35.5743 74.6777 37.3992 73.3273L33.8224 73.1446ZM100.251 38.4338C100.251 36.9739 100.251 35.5141 100.251 34.0906C100.725 27.8493 98.0972 25.5134 92.0018 25.9514C91.3513 26.0812 90.6818 26.0812 90.0312 25.9514C88.0237 25.2214 87.2937 22.8123 89.5567 20.7318C90.9967 19.3086 91.8601 17.4036 91.9813 15.3826C92.1026 13.3616 91.4729 11.3672 90.2134 9.78206C88.9539 8.16234 87.1472 7.05736 85.1315 6.67438C83.1158 6.29139 81.0294 6.65688 79.2637 7.70181C78.1364 8.34779 77.1777 9.25051 76.4656 10.3372C75.7535 11.4239 75.3083 12.6636 75.166 13.9551C75.0237 15.2465 75.1883 16.5532 75.6467 17.7689C76.1051 18.9846 76.844 20.0751 77.8036 20.951C78.2855 21.3137 78.6379 21.8215 78.8088 22.3999C78.9797 22.9783 78.96 23.5962 78.7526 24.1625C78.5191 24.74 78.1049 25.2267 77.5719 25.5491C77.039 25.8715 76.4163 26.0126 75.7964 25.9514H72.6941C71.9147 25.9034 71.1338 26.0215 70.4035 26.298C69.6732 26.5745 69.01 27.0028 68.4578 27.5549C67.9057 28.1071 67.477 28.7703 67.2005 29.5006C66.924 30.2309 66.8058 31.0118 66.8539 31.7912C66.8539 35.4411 67.0363 39.0908 66.8539 42.9597C66.8539 45.6241 67.4013 47.2667 69.9927 48.0331C70.801 48.3059 71.4886 48.8533 71.9353 49.5801C72.382 50.3069 72.5599 51.167 72.4383 52.0114C72.4383 57.4498 72.4383 62.9615 72.4383 68.2904C72.3568 68.7956 72.4643 69.3132 72.7404 69.7442C73.0165 70.1751 73.4418 70.4892 73.9349 70.6264C75.536 71.0543 77.0451 71.7717 78.3877 72.7431C80.3819 74.2061 82.6527 75.2483 85.062 75.8067C87.4714 76.3652 89.9689 76.4281 92.4033 75.9916H93.1701C94.484 75.9916 94.8489 75.5899 94.8489 74.3489C94.8489 67.5601 94.8489 60.7714 94.8489 53.9825C94.8489 48.6901 94.5936 49.3471 99.1195 47.1207C99.5305 46.9872 99.8809 46.7121 100.108 46.3445C100.335 45.9769 100.425 45.5408 100.36 45.1135C100.178 42.887 100.251 40.8063 100.251 38.4338ZM58.5689 73.1446C49.1024 73.1339 40.0119 76.8498 33.2636 83.4888C26.5154 90.1279 22.6516 99.1562 22.5077 108.622C22.4594 113.404 23.3608 118.148 25.1596 122.579C26.9584 127.01 29.6186 131.04 32.9865 134.435C36.3545 137.83 40.3628 140.523 44.7792 142.357C49.1957 144.192 53.9324 145.131 58.7146 145.121C63.4787 145.097 68.1914 144.133 72.5822 142.285C76.9731 140.436 80.9561 137.739 84.3028 134.348C87.6494 130.958 90.2938 126.94 92.0847 122.525C93.8757 118.111 94.7778 113.386 94.7393 108.622C94.567 99.1463 90.6792 90.1182 83.9134 83.4822C77.1476 76.8461 68.0459 73.1335 58.5689 73.1446ZM6.95902 156.618C8.23649 157.786 9.51396 158.881 10.6089 160.268C11.2294 160.889 11.6672 160.67 12.1782 160.268C15.8281 156.618 19.6973 152.786 23.4202 148.99C23.6392 148.771 23.7852 148.041 23.4202 147.858C22.1792 146.508 20.865 145.267 19.5145 143.953L6.95902 156.618ZM24.1865 133.186C23.3835 134.135 22.5803 135.157 21.6313 136.106C20.6823 137.055 21.0108 137.201 21.6313 137.748C21.9413 138.022 22.2342 138.314 22.5077 138.624L30.6104 146.946L34.2603 143.296L24.1865 133.186Z" fill="#53D2BF"/>
<path d="M156.348 83.9854C157.896 84.2213 159.423 84.5877 160.91 85.0806C162.635 85.7015 164.121 86.8503 165.156 88.3638C166.192 89.8774 166.724 91.6785 166.677 93.5117C166.677 104.169 166.677 114.827 166.677 125.485C166.33 127.137 165.605 128.686 164.56 130.011C163.757 131.434 162.625 132.712 161.822 134.135C161.441 134.854 161.253 135.658 161.275 136.471C161.275 144.501 161.275 152.495 161.275 160.525C161.275 161.985 161.275 163.408 161.275 164.831C161.265 165.464 161.007 166.067 160.557 166.511C160.106 166.955 159.499 167.204 158.866 167.204C157.37 167.204 155.873 167.204 154.377 167.204H126.455C123.28 167.204 122.805 166.51 122.805 163.371C122.805 154.429 122.805 145.487 122.805 136.508C122.78 135.502 122.491 134.52 121.966 133.661C120.798 131.653 119.338 129.792 118.316 127.821C117.791 126.946 117.49 125.956 117.439 124.938C117.439 114.791 117.439 104.656 117.439 94.5338C117.306 93.215 117.452 91.8829 117.867 90.6241C118.283 89.3653 118.958 88.2082 119.849 87.2272C120.741 86.2463 121.828 85.4637 123.042 84.9305C124.255 84.3972 125.567 84.1249 126.893 84.1316L127.732 83.9489C127.331 82.8539 126.929 81.8685 126.601 80.8466C125.898 78.7561 125.626 76.5454 125.8 74.3469C125.975 72.1485 126.592 70.0078 127.615 68.054C128.638 66.1003 130.045 64.3736 131.752 62.9779C133.46 61.5822 135.432 60.5463 137.55 59.9326C139.266 59.4216 139.741 58.6915 139.668 57.049C139.668 53.3991 139.668 50.0416 139.668 46.5012C139.668 45.2967 139.083 45.1868 138.135 45.1868H123.535C120.943 45.1868 119.885 44.2378 119.885 41.5369V4.59972C119.885 1.64329 120.724 0.767578 123.535 0.767578H160.034C163.684 0.767578 164.268 1.49762 164.232 4.92854V40.9532C164.232 44.3476 163.538 45.0776 160.18 45.0776H146.383C145.215 45.0776 144.741 45.3693 144.778 46.6103C144.778 50.1872 144.778 53.7644 144.778 57.3413C144.708 57.6315 144.702 57.9332 144.762 58.2257C144.821 58.5182 144.944 58.7943 145.121 59.0344C145.299 59.2744 145.526 59.4728 145.789 59.6154C146.051 59.7579 146.341 59.8412 146.639 59.8595C150.173 60.7665 153.295 62.8449 155.496 65.755C157.697 68.6652 158.846 72.2352 158.757 75.8827C158.459 78.1647 157.945 80.4132 157.224 82.5985C156.985 83.0922 156.691 83.5575 156.348 83.9854ZM155.691 161.802V159.867C155.691 151.692 155.691 143.516 155.691 135.34C155.758 134.048 156.147 132.794 156.822 131.69C157.881 129.756 159.304 128.04 160.472 126.142C160.905 125.449 161.156 124.658 161.202 123.843C161.202 113.939 161.202 104.048 161.202 94.1689C161.24 93.5855 161.153 93.0007 160.946 92.4539C160.738 91.9072 160.417 91.4114 160.001 90.9997C159.586 90.588 159.088 90.2702 158.539 90.0676C157.991 89.865 157.405 89.7827 156.822 89.8257H150.763C149.267 89.8257 147.953 89.5701 147.405 87.9642C147.172 87.2858 147.187 86.5465 147.448 85.8781C147.708 85.2097 148.198 84.6556 148.829 84.3143C150.297 83.0752 151.421 81.4795 152.095 79.6806C152.768 77.8816 152.968 75.9397 152.675 74.0413C152.382 72.1429 151.605 70.3519 150.42 68.84C149.236 67.328 147.682 66.146 145.909 65.4075C143.707 64.6357 141.327 64.5323 139.067 65.1103C136.806 65.6883 134.768 66.922 133.207 68.656C132.23 69.789 131.496 71.1102 131.049 72.538C130.603 73.9659 130.454 75.4701 130.611 76.9578C130.768 78.4456 131.229 79.8854 131.964 81.1883C132.699 82.4912 133.694 83.6294 134.886 84.533C135.411 84.8789 135.806 85.3886 136.011 85.9828C136.216 86.577 136.218 87.2224 136.018 87.818C135.797 88.4301 135.37 88.9466 134.811 89.2794C134.252 89.6122 133.595 89.7407 132.951 89.643H126.893C126.285 89.5481 125.663 89.5955 125.076 89.7816C124.49 89.9676 123.954 90.2874 123.512 90.7154C123.07 91.1435 122.733 91.6683 122.528 92.2486C122.323 92.8288 122.255 93.4484 122.331 94.0592C122.331 103.987 122.331 113.951 122.331 123.879C122.336 124.545 122.512 125.199 122.842 125.777C123.799 127.369 124.847 128.904 125.98 130.376C127.275 132.054 127.934 134.135 127.842 136.253C127.842 144.173 127.842 152.093 127.842 160.014C127.842 161.437 128.207 161.875 129.63 161.875C137.624 161.875 145.58 161.875 153.537 161.875L155.691 161.802ZM158.537 39.8215V38.2158C158.537 28.215 158.537 18.2139 158.537 8.24964C158.537 6.75318 158.026 6.46122 156.676 6.46122C146.748 6.46122 136.821 6.46122 126.893 6.46122C125.469 6.46122 125.031 6.86271 125.031 8.28618C125.031 18.214 125.031 28.1541 125.031 38.1062C125.031 39.4566 125.36 39.9311 126.856 39.9311C136.711 39.9311 146.602 39.9311 156.494 39.9311L158.537 39.8215Z" fill="#53D2BF"/>
<path d="M36.3013 34.0522L33.6004 34.344V45.2938C31.9944 45.2938 30.498 45.2938 29.038 45.2938C28.7095 45.2938 28.1986 44.5275 28.1621 44.0895C28.1621 41.3155 28.1621 38.5415 28.1621 35.731C28.1621 34.5995 27.87 34.0519 26.6655 34.2344C25.461 34.4169 25.3881 33.9059 25.3516 32.884C25.3516 28.8326 25.3518 28.8692 29.2207 28.8692H35.097C35.973 28.8692 36.3378 29.1614 36.3013 30.0374C36.2648 30.9134 36.3013 32.6652 36.3013 34.0522Z" fill="#53D2BF"/>
<path d="M86.3082 45.2586H80.9425C80.9425 44.6746 80.9425 44.1273 80.9425 43.5798C80.9425 40.9519 80.9425 38.2873 80.9425 35.6593C80.9425 34.6738 80.76 34.0168 79.592 34.1993C78.424 34.3818 78.2054 33.7982 78.1689 32.7762C78.1689 28.8343 78.1689 28.834 81.8189 28.834C83.5708 28.834 85.4686 28.834 87.0745 28.834C88.6805 28.834 89.155 29.3451 88.936 30.8051C88.8815 31.2047 88.8815 31.6098 88.936 32.0094C88.936 33.3964 88.936 34.5644 87.0745 34.3089C86.8555 34.3089 86.2717 35.1483 86.2717 35.5862C86.2717 38.2507 86.2717 40.9519 86.2717 43.6529L86.3082 45.2586Z" fill="#53D2BF"/>
<path d="M91.7096 73.1436H87.5121C86.6727 73.1436 86.417 72.8154 86.417 72.0489V67.7783H91.7096V73.1436Z" fill="#53D2BF"/>
<path d="M89.041 108.767C89.1337 116.693 86.1379 124.345 80.6879 130.102C75.2379 135.858 67.7615 139.268 59.8417 139.608C55.7999 139.75 51.7702 139.085 47.9879 137.653C44.2056 136.222 40.7463 134.051 37.8112 131.269C34.8761 128.487 32.5241 125.148 30.8923 121.448C29.2604 117.748 28.3813 113.759 28.3063 109.716C28.2027 101.768 31.1893 94.0911 36.6367 88.3033C42.0841 82.5154 49.5665 79.0693 57.5057 78.6915C61.5576 78.5701 65.5932 79.2542 69.3786 80.7045C73.164 82.1547 76.6236 84.3422 79.5571 87.1399C82.4906 89.9376 84.8396 93.2901 86.4675 97.0026C88.0955 100.715 88.9704 104.714 89.041 108.767ZM58.6369 134.316C65.2175 134.307 71.5294 131.704 76.203 127.071C80.8766 122.439 83.5354 116.15 83.6027 109.57C83.6316 106.266 83.0065 102.99 81.7634 99.9293C80.5204 96.8686 78.6839 94.084 76.3599 91.7362C74.0358 89.3884 71.2699 87.5239 68.2219 86.2497C65.174 84.9756 61.9039 84.3172 58.6004 84.3125C55.2707 84.3066 51.9739 84.9676 48.9039 86.2569C45.834 87.5461 43.0534 89.4371 40.7264 91.8186C38.3993 94.2001 36.5728 97.0238 35.3549 100.123C34.1369 103.222 33.5522 106.533 33.6351 109.862C33.788 116.381 36.493 122.58 41.1684 127.126C45.8437 131.671 52.116 134.201 58.6369 134.17V134.316Z" fill="#53D2BF"/>
<path d="M150.073 100.847C148.54 100.847 147.189 100.847 145.875 100.847C144.561 100.847 144.488 101.248 144.488 102.307C144.488 107.672 144.488 113.038 144.488 118.439V120.191H139.123V100.956H133.502C133.502 99.2042 133.502 97.6715 133.502 96.175C133.502 95.883 134.049 95.4082 134.341 95.4082H148.941C149.151 95.4647 149.342 95.5753 149.496 95.729C149.65 95.8827 149.761 96.0742 149.817 96.2841C150.146 97.6711 150.073 99.2041 150.073 100.847Z" fill="#53D2BF"/>
<path d="M152.733 158.918H147.368C147.368 157.385 147.368 155.925 147.368 154.429C147.432 154.237 147.542 154.063 147.688 153.923C147.834 153.783 148.013 153.681 148.208 153.626C149.668 153.626 151.127 153.626 152.697 153.626L152.733 158.918Z" fill="#53D2BF"/>
<path d="M150.511 10.8047L155.183 13.5056C153.869 15.878 152.664 18.1045 151.533 20.3675L144.561 32.4485C143.649 34.0909 142.08 34.7844 140.693 33.8354C137.043 31.171 133.137 28.3243 129.269 25.4409L131.933 21.791C132.48 20.988 133.028 21.353 133.612 21.791C136.021 23.6524 138.466 25.4406 141.094 27.4481L150.511 10.8047Z" fill="#53D2BF"/>
<path d="M58.5318 95.0793C54.8672 95.2324 51.394 96.7591 48.8038 99.3561C46.2136 101.953 44.6959 105.43 44.5524 109.095H39.2236C39.2914 107.587 39.4745 106.086 39.7712 104.606C40.7739 100.613 43.0241 97.0443 46.1947 94.4186C49.3652 91.7928 53.2906 90.2469 57.4002 90.0059C57.7651 90.0059 58.4588 90.4075 58.4588 90.663C58.5683 91.904 58.5318 93.5828 58.5318 95.0793Z" fill="#53D2BF"/>
</svg>
