<svg width="169" height="128" viewBox="0 0 169 128" fill="none" xmlns="http://www.w3.org/2000/svg">
<path d="M41.6959 127.373V114.309H0.499117V111.745C0.499117 104.376 0.45826 97.008 0.562302 89.6433C0.8447 69.5782 19.914 54.5887 39.1691 59.2966C44.1297 60.508 48.4586 62.9529 52.4047 66.4272C61.003 56.8777 71.4926 51.3783 84.4792 51.3449C97.4659 51.3114 107.889 56.7067 116.268 65.8884C119.515 64.0677 122.473 61.946 125.754 60.6492C140.439 54.8526 156.517 60.861 164.119 74.7282C166.751 79.3879 168.176 84.631 168.266 89.9815C168.348 97.6582 168.303 105.339 168.303 113.019C168.276 113.445 168.226 113.869 168.155 114.29H127.493V127.373H41.6959ZM121.433 121.406C121.433 112.885 121.395 104.655 121.433 96.4246C121.473 90.3122 120.318 84.4524 117.62 78.9902C111.456 66.5647 101.642 58.8767 87.6748 57.5131C66.7773 55.4731 49.0196 72.5248 47.8975 92.9132C47.3884 102.11 47.7451 111.355 47.7191 120.581C47.7512 120.861 47.8096 121.137 47.8938 121.406H121.433ZM48.8116 71.6144C45.7988 68.5688 42.0376 66.3697 37.9058 65.2381C24.0088 61.3366 8.8856 71.555 6.99428 86.444C6.31429 91.8133 6.64872 97.3127 6.54096 102.753C6.50752 104.525 6.54096 106.301 6.54096 108.129H41.811C41.3726 95.3656 41.1051 82.7394 48.8116 71.6144ZM127.456 108.155H162.492C162.261 100.605 162.67 93.1176 161.671 85.8235C159.865 72.6771 147.592 63.3728 134.631 64.5544C129.057 65.0635 124.379 67.4788 120.377 71.1797C121.384 73.1119 122.343 74.8397 123.205 76.6158C126.876 84.17 127.731 92.2221 127.467 100.486C127.385 103.005 127.456 105.525 127.456 108.155Z" fill="#53D2BF"/>
<path d="M108.472 24.64C108.557 37.3034 98.0676 48.5881 84.4196 48.5064C78.0887 48.4544 72.0353 45.9007 67.5801 41.4023C63.1249 36.904 60.6297 30.8262 60.6387 24.4951C60.6672 18.1658 63.1989 12.1049 67.681 7.63603C72.1632 3.16713 78.2315 0.653314 84.5608 0.643562C87.7088 0.641084 90.8262 1.2607 93.7339 2.46682C96.6416 3.67293 99.2823 5.44175 101.504 7.67164C103.726 9.90154 105.486 12.5485 106.681 15.4605C107.877 18.3725 108.486 21.4921 108.472 24.64ZM102.463 24.5285C102.455 22.1701 101.981 19.8364 101.069 17.6614C100.157 15.4864 98.8251 13.5127 97.1488 11.8537C95.4725 10.1946 93.4852 8.8828 91.3008 7.99336C89.1165 7.10392 86.7781 6.65439 84.4196 6.67054C82.0606 6.69669 79.73 7.18845 77.5615 8.11759C75.393 9.04674 73.4294 10.395 71.7833 12.0849C70.1372 13.7749 68.841 15.7733 67.9692 17.9654C67.0973 20.1576 66.667 22.5003 66.7028 24.8592C66.766 34.5202 74.8478 42.4608 84.6314 42.4534C86.9821 42.4599 89.3107 41.9999 91.4824 41.1C93.654 40.2002 95.6255 38.8784 97.2827 37.2112C98.9399 35.544 100.25 33.5645 101.137 31.3875C102.023 29.2105 102.469 26.8791 102.449 24.5285H102.463Z" fill="#53D2BF"/>
<path d="M119.11 39.4101C119.098 34.7197 120.939 30.2143 124.232 26.8741C127.525 23.5339 132.003 21.6292 136.693 21.5744C139.048 21.538 141.387 21.9684 143.575 22.8408C145.763 23.7132 147.756 25.0102 149.44 26.657C151.124 28.3039 152.465 30.2679 153.385 32.4357C154.306 34.6035 154.788 36.9323 154.804 39.2875C154.83 41.6431 154.389 43.9805 153.507 46.1648C152.625 48.3491 151.318 50.3369 149.663 52.0135C148.008 53.6901 146.038 55.0223 143.865 55.9331C141.693 56.8439 139.361 57.3153 137.006 57.3201C127.055 57.3535 119.17 49.4761 119.11 39.4101ZM137.02 27.5902C135.455 27.5794 133.903 27.8794 132.454 28.4728C131.005 29.0663 129.689 29.9413 128.581 31.0473C127.472 32.1533 126.595 33.4683 125.999 34.9159C125.403 36.3635 125.1 37.9151 125.108 39.4807C125.125 42.6118 126.381 45.6089 128.6 47.8177C130.819 50.0266 133.822 51.2679 136.954 51.2708C140.085 51.2524 143.084 50.0013 145.3 47.7885C147.517 45.5756 148.772 42.579 148.796 39.4472C148.807 32.9707 143.445 27.5791 137.006 27.5902H137.02Z" fill="#53D2BF"/>
<path d="M49.6625 39.3885C49.7183 49.4694 41.8594 57.2985 31.6485 57.3096C22.0915 57.3096 14.0729 49.3096 14.0097 39.682C13.9752 37.3105 14.4131 34.9558 15.298 32.7553C16.1828 30.5547 17.4969 28.5523 19.1636 26.8649C20.8303 25.1774 22.8163 23.8387 25.0057 22.9267C27.1951 22.0146 29.5442 21.5476 31.916 21.5528C41.7962 21.5714 49.6105 29.4228 49.6625 39.3885ZM43.7173 39.5074C43.7254 36.3774 42.4991 33.3705 40.3044 31.139C38.1097 28.9074 35.1237 27.6312 31.994 27.5872C28.8293 27.5763 25.7898 28.8229 23.544 31.0526C21.2982 33.2824 20.0299 36.3129 20.0181 39.4776C20.0463 42.605 21.3024 45.596 23.5156 47.8057C25.7288 50.0154 28.7217 51.2668 31.8491 51.2901C34.9796 51.2834 37.9811 50.0424 40.2023 47.8365C42.4235 45.6306 43.6852 42.6377 43.7136 39.5074H43.7173Z" fill="#53D2BF"/>
</svg>
