<svg width="194" height="179" viewBox="0 0 194 179" fill="none" xmlns="http://www.w3.org/2000/svg">
<path d="M0.905233 113.004C0.905233 107.604 1.11699 102.204 0.905233 96.8258C0.708681 94.2454 1.27677 91.6642 2.53837 89.4046C3.79997 87.145 5.69938 85.3072 7.99922 84.1205C11.7077 81.9436 15.7389 80.3709 19.9419 79.4618C26.867 77.7712 33.9947 77.0585 41.1174 77.3442C49.3729 77.4546 57.5312 79.1437 65.1518 82.3204C65.7447 82.5957 66.3163 82.9346 66.9092 83.2099C67.5021 83.4852 67.9256 83.2098 67.968 82.5745C67.968 82.2357 67.968 81.8757 67.968 81.5369V57.5876C67.9818 55.8949 68.3841 54.228 69.1441 52.7154C69.9041 51.2027 71.0013 49.8848 72.3512 48.8633C75.9846 46.0011 80.1972 43.9634 84.6967 42.8917C91.674 40.9766 98.8925 40.085 106.126 40.2448C114.566 40.112 122.949 41.6447 130.796 44.7552C133.502 45.9817 136.054 47.5242 138.398 49.3503C139.706 50.3973 140.747 51.7398 141.435 53.2675C142.124 54.7952 142.44 56.4646 142.357 58.1382C142.357 68.7259 142.357 79.5255 142.357 90.2191C142.357 92.0402 142.357 91.9978 144.115 91.8072C158.154 90.1979 170.584 93.9246 180.537 104.046C192.946 116.625 196.609 131.829 191.125 148.515C189.048 155.376 185.223 161.58 180.026 166.517C174.829 171.454 168.437 174.956 161.479 176.678C150.927 179.6 139.661 178.412 129.95 173.355C120.24 168.297 112.809 159.746 109.154 149.426C108.815 148.515 108.223 148.452 107.418 148.409C102.611 148.155 97.7829 148.113 92.9973 147.541C85.575 146.916 78.4615 144.288 72.4148 139.939C72.2074 139.824 71.9744 139.764 71.7373 139.764C71.5002 139.764 71.2669 139.824 71.0595 139.939C66.2497 143.502 60.6606 145.868 54.7545 146.842C43.9422 149.076 32.7873 149.076 21.975 146.842C15.8705 145.932 10.1025 143.467 5.22511 139.685C3.83807 138.563 2.73272 137.133 1.99735 135.507C1.26198 133.882 0.916981 132.108 0.990017 130.325C0.990017 124.46 0.990017 118.573 0.990017 112.707L0.905233 113.004ZM185.915 135.047C185.915 125.5 182.123 116.344 175.372 109.593C168.621 102.842 159.464 99.0491 149.917 99.0491C140.43 99.1147 131.347 102.897 124.617 109.583C117.887 116.27 114.046 125.328 113.919 134.814C113.879 144.409 117.647 153.628 124.396 160.448C131.144 167.268 140.322 171.132 149.917 171.194C154.653 171.194 159.343 170.259 163.717 168.444C168.092 166.628 172.065 163.967 175.409 160.613C178.753 157.259 181.403 153.278 183.205 148.898C185.008 144.519 185.929 139.826 185.915 135.09V135.047ZM105.3 67.1378H108.18C115.333 67.1382 122.412 65.6978 128.996 62.9027C131.175 62.1847 133.047 60.7521 134.311 58.8369C134.494 58.4647 134.589 58.0555 134.589 57.6406C134.589 57.2258 134.494 56.8163 134.311 56.4441C133.497 55.3224 132.476 54.3666 131.304 53.6278C126.097 50.6004 120.281 48.7703 114.279 48.2704C105.468 47.1443 96.5263 47.6393 87.8942 49.7313C83.9387 50.5566 80.2235 52.2732 77.0312 54.7502C74.723 56.656 74.7654 58.1804 77.0312 60.1286C79.4632 62.0814 82.2652 63.5219 85.2684 64.3637C91.7466 66.389 98.5156 67.3265 105.3 67.1378ZM37.9411 104.237V104.576C42.4515 104.089 46.9831 103.665 51.4934 103.094C53.0931 102.867 54.6721 102.513 56.2155 102.035C59.7121 101.187 63.003 99.6464 65.8928 97.5033C68.4339 95.3858 68.5186 93.5011 65.8928 91.6801C63.6472 90.104 61.1962 88.8429 58.6084 87.932C45.6382 83.883 31.763 83.7432 18.7139 87.5298C15.629 88.3431 12.7453 89.785 10.2437 91.7648C7.74498 93.7553 7.59688 95.5762 10.1168 97.3973C12.2395 98.9271 14.5531 100.173 16.9988 101.103C23.7562 103.459 30.8965 104.522 38.0471 104.237H37.9411ZM37.9411 122.808C44.6056 122.945 51.2506 122.038 57.6344 120.119C60.7764 119.268 63.7052 117.767 66.2317 115.714C66.7657 115.294 67.1906 114.751 67.4707 114.132C67.7508 113.513 67.8777 112.835 67.8408 112.157C67.8408 110.42 67.8408 108.663 67.8408 106.905C67.8408 105.571 67.5868 105.529 66.3586 106.016C63.1385 107.379 59.844 108.56 56.4908 109.552C47.2285 111.801 37.6313 112.325 28.1792 111.098C21.6676 110.525 15.3197 108.744 9.4602 105.846C8.61318 105.402 8.31664 105.846 8.31664 106.545C8.31664 108.388 8.31664 110.23 8.31664 112.072C8.23038 112.84 8.36848 113.617 8.7142 114.308C9.05992 115 9.59854 115.576 10.2649 115.968C12.4021 117.396 14.6711 118.616 17.0409 119.61C23.7973 121.916 30.9107 122.999 38.0471 122.808H37.9411ZM67.5867 124.036C66.9938 124.29 66.6127 124.396 66.2739 124.566C61.7213 126.827 56.8404 128.357 51.8111 129.097C45.7164 130.152 39.5206 130.5 33.3462 130.135C28.2192 129.957 23.1337 129.146 18.2057 127.721C15.2623 126.768 12.4037 125.603 9.52379 124.396C8.825 124.121 8.21092 123.867 8.21092 124.989C8.21092 127.107 8.21092 129.372 8.21092 131.553C8.24032 132.29 8.55087 132.987 9.07893 133.502C10.6612 134.863 12.3866 136.049 14.2247 137.038C19.5736 139.417 25.3178 140.781 31.165 141.061C38.4579 141.73 45.81 141.302 52.9759 139.791C56.975 139.02 60.8179 137.588 64.3471 135.556C65.4369 135.067 66.3415 134.242 66.9284 133.201C67.5152 132.161 67.7532 130.96 67.6079 129.775C67.5337 128.42 67.5337 127.063 67.6079 125.709C67.862 125.222 67.6927 124.756 67.6927 124.036H67.5867ZM75.1889 68.6835C75.2949 70.4042 75.2949 72.1296 75.1889 73.8502C75.0303 75.0956 75.2681 76.3594 75.8687 77.4618C76.4694 78.5643 77.4021 79.4492 78.5345 79.9912C83.2615 82.7122 88.5053 84.4144 93.9291 84.9885C102.27 86.2285 110.76 86.0567 119.043 84.4804C123.426 83.7707 127.636 82.2405 131.452 79.97C132.559 79.4755 133.477 78.6387 134.072 77.5826C134.667 76.5265 134.906 75.307 134.755 74.1043C134.68 72.6936 134.68 71.2799 134.755 69.8692C134.735 69.4821 134.671 69.0987 134.565 68.7259C125.183 72.6766 115.105 74.7082 104.926 74.7009C94.7459 74.6936 84.6707 72.6476 75.2946 68.6835H75.1889ZM75.3582 87.0428C75.3582 87.678 75.2101 88.1227 75.2101 88.5885C75.2101 90.1343 75.2101 91.6588 75.2101 93.1834C75.104 94.0552 75.2464 94.9394 75.6211 95.7337C75.9958 96.528 76.5874 97.2 77.3276 97.6726C78.0066 98.1716 78.7136 98.6312 79.4452 99.0491C85.7344 102.292 92.6978 104.011 99.7736 104.068C104.931 104.17 110.091 104.007 115.231 103.581C118.331 103.582 121.332 102.487 123.702 100.489C126.627 98.0418 129.96 96.1279 133.548 94.8352C133.954 94.739 134.31 94.4944 134.545 94.1497C134.78 93.8049 134.878 93.3848 134.819 92.9717C134.819 91.4471 134.819 89.9012 134.819 88.3766C134.819 86.8519 134.586 86.9156 133.485 87.4662C126.026 91.0033 117.895 92.8954 109.641 93.0141C104.957 93.1484 100.269 93.0071 95.6021 92.5907C90.929 92.2548 86.325 91.2713 81.9225 89.6685C79.7838 88.9062 77.7723 87.9957 75.4642 87.0428H75.3582ZM75.1889 105.465C75.307 107.157 75.307 108.855 75.1889 110.547C74.6807 113.957 76.4806 115.905 79.1063 117.408C79.8585 117.85 80.6362 118.245 81.4356 118.594C89.58 121.903 98.3726 123.308 107.143 122.702C107.412 122.639 107.663 122.517 107.879 122.345C108.095 122.173 108.27 121.955 108.392 121.707C109.895 118.658 111.293 115.566 112.627 112.474C112.754 112.178 112.924 111.712 112.797 111.564C112.666 111.461 112.517 111.385 112.357 111.341C112.196 111.298 112.029 111.287 111.865 111.31C108.413 111.31 104.961 111.649 101.51 111.564C94.2948 111.454 87.1528 110.1 80.398 107.562C78.7675 107.011 77.2216 106.291 75.2946 105.444L75.1889 105.465ZM75.3582 124.057C75.2835 124.556 75.2341 125.057 75.2101 125.561C75.2101 127.361 75.2101 129.161 75.2101 130.939C75.1643 131.513 75.2601 132.089 75.489 132.617C75.7179 133.145 76.073 133.609 76.523 133.967C78.0368 135.146 79.6523 136.188 81.3508 137.08C85.3978 138.971 89.7373 140.16 94.1832 140.595C97.9101 141.061 101.7 141.083 105.448 141.294C106.444 141.294 106.783 140.977 106.719 139.875C106.529 137.123 106.507 134.37 106.507 131.617C106.507 130.728 106.38 130.262 105.322 130.198C101.086 129.923 96.7032 129.563 92.3834 129.203C88.2986 128.769 84.2937 127.771 80.4828 126.238C78.8734 125.603 77.2641 124.841 75.4642 124.057H75.3582Z" fill="#53D2BF"/>
<path d="M33.0086 51.1294C33.0963 50.675 33.1528 50.2151 33.1779 49.753C33.1779 35.1137 33.1779 20.4744 33.1779 5.83509C33.1598 5.048 33.2167 4.261 33.3475 3.48464C33.5184 2.56624 34.0355 1.74871 34.7922 1.20089C35.5489 0.653075 36.4871 0.416832 37.413 0.541225C38.344 0.581381 39.2274 0.965025 39.8922 1.61809C40.557 2.27116 40.9562 3.14744 41.013 4.07762C41.013 5.32697 41.013 6.61878 41.013 7.88931C41.013 21.8651 41.013 35.8478 41.013 49.8378C41.013 50.3036 41.013 50.7696 41.013 51.5107C41.3682 51.3106 41.708 51.0839 42.0294 50.8329C45.0151 47.8684 48.0008 44.8827 50.9441 41.897C51.5433 41.1878 52.3496 40.684 53.2496 40.4561C54.1496 40.2283 55.0983 40.2879 55.9627 40.6265C56.5758 40.9071 57.1067 41.3403 57.5043 41.8848C57.902 42.4293 58.1533 43.0667 58.2341 43.7361C58.3148 44.4055 58.2223 45.0844 57.9655 45.7079C57.7087 46.3313 57.2962 46.8785 56.7674 47.2968C54.1205 49.9861 51.4314 52.6328 48.7633 55.3009C46.0952 57.969 43.2998 60.7221 40.5893 63.4749C37.8788 66.2277 35.9731 66.0371 33.4744 63.4749C28.0746 58.0751 22.6749 52.7177 17.3387 47.2756C16.6141 46.5238 16.0963 45.5973 15.8353 44.5863C15.6729 43.806 15.774 42.9941 16.1228 42.2775C16.4715 41.5608 17.0481 40.9801 17.7624 40.6265C18.4989 40.2123 19.3506 40.0501 20.1878 40.1648C21.025 40.2795 21.8017 40.6646 22.3997 41.2616C24.5172 43.3791 26.6348 45.4967 28.7523 47.6142L32.3732 51.1506L33.0086 51.1294Z" fill="#53D2BF"/>
<path d="M149.452 154.593C145.217 154.593 140.982 154.593 136.747 154.593C136.308 154.586 135.874 154.489 135.473 154.31C135.072 154.13 134.711 153.871 134.413 153.549C134.114 153.227 133.884 152.847 133.735 152.434C133.587 152.02 133.524 151.58 133.55 151.142C133.527 150.701 133.599 150.261 133.76 149.85C133.922 149.44 134.17 149.069 134.487 148.762C134.803 148.455 135.182 148.219 135.598 148.071C136.013 147.923 136.456 147.865 136.895 147.902C137.58 148.02 138.283 147.863 138.853 147.467C139.424 147.071 139.816 146.467 139.945 145.785C140.58 143.455 141.173 141.126 141.766 138.818C142.02 137.801 141.575 137.42 140.601 137.441H138.378C138.005 137.47 137.631 137.424 137.277 137.306C136.923 137.187 136.596 136.999 136.315 136.752C136.035 136.506 135.807 136.205 135.645 135.869C135.483 135.533 135.389 135.167 135.371 134.794C135.373 134.42 135.451 134.05 135.601 133.707C135.752 133.364 135.97 133.055 136.244 132.799C136.517 132.544 136.84 132.346 137.192 132.22C137.545 132.093 137.919 132.04 138.293 132.063H140.41C141.215 132.063 141.554 131.703 141.406 130.919C141.131 129.67 140.876 128.421 140.559 127.192C139.72 124.349 139.939 121.297 141.177 118.603C142.415 115.909 144.588 113.754 147.292 112.539C150.047 111.342 153.137 111.16 156.013 112.024C158.889 112.888 161.366 114.744 163.005 117.261C164.236 119.152 164.897 121.357 164.911 123.614C164.987 124.472 164.72 125.327 164.169 125.989C163.617 126.652 162.826 127.069 161.967 127.15C161.511 127.235 161.042 127.222 160.592 127.111C160.141 127.001 159.719 126.795 159.355 126.508C158.99 126.222 158.69 125.861 158.476 125.449C158.262 125.038 158.138 124.585 158.113 124.122C158.082 122.555 157.489 121.052 156.44 119.887C155.562 119.024 154.431 118.464 153.212 118.289C151.993 118.114 150.75 118.332 149.664 118.913C148.611 119.52 147.796 120.466 147.35 121.597C146.904 122.727 146.854 123.976 147.208 125.138C147.653 127.002 148.055 128.886 148.351 130.792C148.354 130.966 148.395 131.137 148.471 131.293C148.548 131.45 148.657 131.587 148.793 131.696C148.928 131.805 149.086 131.883 149.255 131.925C149.424 131.966 149.6 131.97 149.77 131.936C151.888 131.936 153.793 131.936 155.826 131.936C156.256 131.904 156.688 131.904 157.118 131.936C157.801 131.989 158.44 132.297 158.907 132.799C159.374 133.301 159.635 133.961 159.638 134.646C159.601 135.336 159.306 135.986 158.812 136.469C158.317 136.951 157.66 137.231 156.97 137.251C154.704 137.251 152.417 137.251 150.151 137.251C148.965 137.251 148.605 137.695 148.436 138.839C148.055 141.295 147.526 143.73 146.954 146.144C146.657 147.457 146.763 147.711 148.139 147.733C152.692 147.733 157.266 147.733 161.819 147.733C162.268 147.707 162.717 147.772 163.14 147.925C163.563 148.078 163.95 148.315 164.279 148.622C164.607 148.929 164.87 149.299 165.051 149.71C165.233 150.122 165.329 150.565 165.334 151.015C165.361 151.466 165.293 151.918 165.136 152.342C164.978 152.765 164.735 153.152 164.42 153.476C164.106 153.801 163.727 154.056 163.308 154.227C162.889 154.397 162.44 154.479 161.988 154.466C158.41 154.466 154.81 154.466 151.231 154.466H149.389L149.452 154.593Z" fill="#53D2BF"/>
</svg>
