<svg width="157" height="157" viewBox="0 0 157 157" fill="none" xmlns="http://www.w3.org/2000/svg">
<path d="M56.946 106.342H63.6322C64.2795 106.395 64.9239 106.21 65.4463 105.821C65.9687 105.432 66.3338 104.866 66.4741 104.226C67.6533 100.339 68.9858 96.4758 70.2122 92.6006C71.5211 88.44 74.6107 85.9912 78.5729 86.0388C82.535 86.0863 85.4477 88.4995 86.7448 92.6125C87.924 96.4402 89.2212 100.244 90.4122 104.072C90.5573 104.772 90.9547 105.392 91.5275 105.814C92.1004 106.236 92.8081 106.428 93.5135 106.354C97.5583 106.354 101.603 106.354 105.648 106.354C110.011 106.354 113.053 108.53 114.232 112.298C115.412 116.066 114.091 119.501 110.695 122.045C107.523 124.423 104.362 126.8 101.143 129.011C100.446 129.394 99.9181 130.028 99.6664 130.787C99.4148 131.546 99.4578 132.373 99.787 133.101C101.119 137.012 102.369 140.958 103.596 144.893C104.217 146.634 104.245 148.534 103.674 150.293C103.104 152.052 101.969 153.569 100.447 154.605C98.9727 155.651 97.2034 156.191 95.4007 156.146C93.598 156.101 91.8574 155.473 90.4358 154.355C87.1104 151.978 83.7732 149.529 80.495 147.056C79.9524 146.551 79.2409 146.27 78.5021 146.27C77.7634 146.27 77.0517 146.551 76.5092 147.056C73.2782 149.434 69.9764 151.811 66.6982 154.189C65.2717 155.349 63.509 156.009 61.6769 156.069C59.8448 156.13 58.0433 155.586 56.5451 154.521C55.0154 153.455 53.883 151.903 53.3276 150.114C52.7722 148.324 52.8255 146.399 53.4791 144.643C54.6583 140.97 55.8375 137.332 57.0168 133.683C57.9601 130.794 57.8304 130.39 55.4366 128.631C52.1702 126.254 48.833 123.876 45.6491 121.415C44.4861 120.506 43.5805 119.305 43.0231 117.932C42.4657 116.56 42.276 115.063 42.4731 113.593C42.6702 112.123 43.2471 110.731 44.146 109.556C45.0449 108.382 46.2342 107.466 47.5948 106.901C48.6963 106.503 49.8563 106.294 51.0263 106.283C53.0074 106.188 55.0121 106.283 57.005 106.283L56.946 106.342ZM57.8658 112.357C55.814 112.357 53.7621 112.357 51.7103 112.357C50.2598 112.357 48.9627 112.559 48.4557 114.152C47.9486 115.745 48.9273 116.53 50.0358 117.362C53.314 119.739 56.6041 122.117 59.8469 124.494C61.4077 125.532 62.5726 127.073 63.151 128.866C63.7295 130.658 63.687 132.596 63.0308 134.361C61.7808 138.323 60.5033 142.309 59.1983 146.319C58.9067 146.876 58.8285 147.522 58.9785 148.134C59.1286 148.745 59.4964 149.28 60.012 149.636C60.4988 149.973 61.0888 150.125 61.6764 150.064C62.2641 150.003 62.811 149.733 63.2194 149.303C66.364 146.925 69.544 144.6 72.7593 142.325C76.8158 139.365 80.153 139.365 84.1977 142.325C87.417 144.703 90.6598 147.08 93.8673 149.457C95.0465 150.373 96.4262 150.551 97.2752 149.303C97.7921 148.364 97.9233 147.259 97.6408 146.224C96.5559 142.373 95.2234 138.581 94.0206 134.753C92.6291 130.259 93.7258 127.014 97.5583 124.233C100.683 121.95 103.808 119.644 106.992 117.374C108.1 116.565 109.044 115.698 108.56 114.164C108.077 112.631 106.756 112.357 105.306 112.369C101.32 112.369 97.3342 112.369 93.3485 112.369C91.4233 112.469 89.5231 111.895 87.9694 110.745C86.4157 109.595 85.3041 107.939 84.8227 106.057C83.5885 102.237 82.366 98.4174 81.1553 94.5976C80.7308 93.2544 80.1058 92.2202 78.5375 92.1489C76.9691 92.0775 76.3559 93.2544 75.9314 94.5976C74.7286 98.4253 73.5062 102.245 72.2641 106.057C71.7807 107.938 70.6685 109.592 69.1153 110.742C67.5621 111.892 65.663 112.467 63.7383 112.369C61.7336 112.369 59.7997 112.357 57.913 112.357H57.8658Z" fill="#53D2BF"/>
<path d="M143.348 101.266C141.709 101.266 140.058 101.266 138.419 101.266C136.76 101.299 135.138 100.769 133.813 99.7629C132.488 98.7565 131.535 97.3312 131.108 95.7148C130.129 92.6241 129.21 89.5096 128.113 86.4664C127.842 85.7057 127.004 85.147 126.427 84.4932C125.837 85.1232 124.988 85.6819 124.717 86.407C123.608 89.4502 122.677 92.5647 121.674 95.6554C121.27 97.3098 120.311 98.7724 118.959 99.7951C117.607 100.818 115.946 101.337 114.257 101.266C110.79 101.266 107.335 101.266 103.868 101.266C101.675 101.266 100.484 100.184 100.46 98.33C100.437 96.4756 101.64 95.2988 103.998 95.2869C107.17 95.2869 110.33 95.2869 113.502 95.2869C114.111 95.3838 114.734 95.2364 115.236 94.8765C115.739 94.5166 116.081 93.9726 116.191 93.3611C117.099 90.2466 118.149 87.1797 119.127 84.0771C119.539 82.4587 120.477 81.0262 121.792 80.009C123.107 78.9917 124.722 78.4486 126.379 78.4663C128.036 78.4235 129.658 78.9444 130.985 79.9452C132.311 80.9459 133.264 82.3681 133.691 83.982C134.681 87.0133 135.731 90.0326 136.592 93.0877C136.64 93.4353 136.758 93.7694 136.937 94.0703C137.116 94.3711 137.354 94.6325 137.636 94.8388C137.917 95.0452 138.237 95.1922 138.577 95.2712C138.916 95.3502 139.267 95.3596 139.61 95.2987C142.653 95.1798 145.707 95.2987 148.749 95.2987C152.782 95.2987 155.471 97.1413 156.591 100.612C157.711 104.083 156.497 107.055 153.325 109.385C150.766 111.263 148.23 113.177 145.624 114.996C145.103 115.268 144.707 115.734 144.52 116.295C144.333 116.857 144.37 117.469 144.622 118.003C145.801 121.296 146.851 124.601 147.794 127.941C148.119 128.945 148.228 130.007 148.114 131.057C147.999 132.107 147.664 133.12 147.131 134.029C146.597 134.938 145.878 135.722 145.02 136.328C144.163 136.935 143.187 137.35 142.157 137.546C141.095 137.788 139.992 137.785 138.93 137.538C137.868 137.291 136.876 136.807 136.026 136.12C133.408 134.23 130.766 132.363 128.219 130.366C127.983 130.127 127.703 129.938 127.395 129.808C127.086 129.679 126.755 129.612 126.421 129.612C126.087 129.612 125.756 129.679 125.447 129.808C125.138 129.938 124.858 130.127 124.622 130.366C122.264 132.244 119.717 134.016 117.241 135.799C115.318 137.19 113.538 137.071 112.453 135.502C111.368 133.932 111.757 132.363 113.632 130.972C116.368 128.94 119.116 126.919 121.887 124.946C123.188 123.904 124.801 123.337 126.462 123.337C128.124 123.337 129.736 123.904 131.037 124.946C133.761 126.883 136.415 128.94 139.186 130.818C139.935 131.124 140.736 131.278 141.544 131.27C141.788 130.502 141.888 129.696 141.839 128.892C140.943 125.778 139.893 122.711 138.879 119.62C138.224 117.985 138.152 116.17 138.677 114.488C139.202 112.805 140.29 111.359 141.757 110.396C144.398 108.422 147.11 106.544 149.693 104.452C150.27 104 150.471 103.049 150.872 102.336C150.214 101.861 149.48 101.503 148.702 101.278C146.957 101.124 145.164 101.278 143.431 101.278L143.348 101.266Z" fill="#53D2BF"/>
<path d="M47.6775 101.266C46.0384 101.266 44.3993 101.266 42.7484 101.266C41.0617 101.343 39.3999 100.834 38.0412 99.823C36.6824 98.8125 35.7091 97.3624 35.284 95.7151C34.258 92.5769 33.3147 89.403 32.2062 86.2885C31.9468 85.5871 31.1331 85.0997 30.5789 84.4816C30.0129 85.0641 29.1638 85.5395 28.9162 86.2409C27.8195 89.2959 26.8644 92.3985 25.8974 95.4892C25.5001 97.2084 24.5131 98.7308 23.1107 99.7878C21.7083 100.845 19.9806 101.369 18.2325 101.266C14.9425 101.266 11.6642 101.266 8.38601 101.338C7.59286 101.532 6.84153 101.87 6.16907 102.336C6.57001 103.097 6.79408 104.096 7.40727 104.583C9.94259 106.592 12.6076 108.423 15.2019 110.36C16.6988 111.33 17.8088 112.801 18.3371 114.514C18.8655 116.227 18.7783 118.073 18.091 119.727C17.1004 122.759 16.0509 125.778 15.2019 128.845C15.1515 129.704 15.2717 130.565 15.5556 131.377C16.369 131.328 17.1674 131.135 17.9141 130.806C20.5791 128.988 23.1498 127.002 25.7677 125.124C27.1093 123.985 28.8071 123.36 30.5612 123.36C32.3153 123.36 34.0131 123.985 35.3547 125.124C38.0315 127.038 40.6848 128.988 43.3262 130.949C45.2719 132.387 45.6847 134.064 44.5055 135.621C43.3262 137.178 41.6871 137.178 39.7886 135.847C37.2061 133.992 34.6236 132.15 32.1001 130.212C31.6778 129.8 31.1133 129.57 30.5258 129.57C29.9383 129.57 29.3738 129.8 28.9516 130.212C26.428 132.126 23.8455 133.98 21.2748 135.847C18.0674 138.224 14.8953 138.331 11.9944 136.275C9.09354 134.218 8.18554 131.104 9.34117 127.3C10.261 124.245 11.1925 121.19 12.2774 118.206C12.4267 117.906 12.5146 117.578 12.5359 117.243C12.5573 116.908 12.5116 116.571 12.4016 116.254C12.2917 115.937 12.1196 115.646 11.8957 115.397C11.6718 115.148 11.4006 114.947 11.0982 114.806C8.48033 113.011 5.94502 111.085 3.39791 109.195C2.03057 108.301 0.991545 106.981 0.43993 105.435C-0.111685 103.889 -0.145479 102.203 0.343737 100.636C0.815766 99.0344 1.80582 97.6374 3.15633 96.6681C4.50683 95.6987 6.14018 95.2127 7.7964 95.2872C11.1336 95.2872 14.4826 95.2872 17.8197 95.2872C18.374 95.3568 18.9337 95.2095 19.3835 94.8756C19.8332 94.5416 20.1388 94.0465 20.2371 93.4922C21.1805 90.3896 22.2182 87.3107 23.197 84.22C24.3762 80.5231 26.9587 78.4785 30.5199 78.4785C34.0811 78.4785 36.699 80.5231 37.8546 84.2082C38.8334 87.3108 39.8711 90.3777 40.8145 93.4803C40.9099 94.0254 41.2057 94.5142 41.6428 94.8491C42.08 95.184 42.6264 95.3405 43.1729 95.2872C46.404 95.2872 49.6232 95.2872 52.8543 95.2872C55.2127 95.2872 56.3919 96.3689 56.3919 98.2708C56.3919 100.173 55.2127 101.243 52.8543 101.278C51.1916 101.278 49.4346 101.266 47.6775 101.266Z" fill="#53D2BF"/>
<path d="M77.7719 45.4556H94.8352C109.104 45.4556 119.728 56.1542 119.74 70.5854C119.74 71.5839 119.74 72.5944 119.74 73.5929C119.71 74.4022 119.362 75.1664 118.775 75.7187C118.187 76.2711 117.407 76.5666 116.604 76.5409C115.838 76.482 115.121 76.1376 114.594 75.575C114.066 75.0124 113.765 74.2718 113.75 73.4978C113.455 70.3952 113.573 67.1738 112.748 64.2257C111.675 60.5954 109.477 57.4067 106.477 55.1265C103.477 52.8462 99.8307 51.5942 96.0734 51.5538C83.7624 51.4706 71.4513 51.4349 59.1403 51.5538C49.2349 51.6489 41.5818 59.875 41.452 70.312C41.452 71.37 41.452 72.4398 41.452 73.4978C41.4532 74.2769 41.1579 75.0267 40.627 75.5929C40.0961 76.159 39.37 76.4983 38.5983 76.5409C37.8283 76.54 37.0855 76.2536 36.5114 75.7363C35.9373 75.219 35.572 74.5068 35.4852 73.7355C33.5041 60.4931 42.9614 47.5835 56.1923 45.8598C61.2747 45.2179 66.4868 45.5388 71.64 45.4437C73.6683 45.4199 75.7201 45.4556 77.7719 45.4556Z" fill="#53D2BF"/>
<path d="M98.5038 21.2291C98.51 24.0019 97.9734 26.7487 96.9247 29.312C95.876 31.8754 94.3359 34.2049 92.3926 36.1672C90.4493 38.1295 88.141 39.6859 85.5999 40.7474C83.0589 41.8088 80.335 42.3544 77.5844 42.3529C72.0372 42.3529 66.7169 40.1331 62.7922 36.1813C58.8676 32.2294 56.6596 26.8686 56.6533 21.2767C56.6627 15.6836 58.8709 10.3221 62.7942 6.36716C66.7175 2.4122 72.036 0.186187 77.5844 0.176758C83.1245 0.183025 88.4365 2.40186 92.3573 6.34757C96.278 10.2933 98.4882 15.6443 98.5038 21.2291ZM92.478 21.4075C92.5287 17.434 91.0208 13.6011 88.2824 10.7427C85.544 7.88427 81.7967 6.23155 77.8557 6.14413C75.8846 6.10953 73.9262 6.46786 72.0929 7.19856C70.2596 7.92927 68.5876 9.01798 67.173 10.4021C65.7583 11.7861 64.6289 13.4384 63.8496 15.2638C63.0703 17.0892 62.6565 19.0518 62.632 21.039C62.6008 23.0069 62.9546 24.9618 63.6733 26.7919C64.3921 28.6219 65.4616 30.2912 66.8207 31.7043C68.1798 33.1174 69.8018 34.2466 71.5941 35.0274C73.3864 35.8082 75.3138 36.2253 77.2661 36.2547C79.2368 36.3053 81.1977 35.9594 83.0343 35.2373C84.8709 34.5151 86.5463 33.4313 87.9626 32.0489C89.3789 30.6666 90.5077 29.0135 91.283 27.1864C92.0583 25.3593 92.4645 23.3947 92.478 21.4075Z" fill="#53D2BF"/>
<path d="M62.6314 73.3895C62.6314 75.3985 62.6314 77.3955 62.6314 79.4045C62.6754 79.8167 62.6345 80.2337 62.5111 80.6291C62.3877 81.0246 62.1846 81.3901 61.9144 81.7027C61.6442 82.0152 61.3128 82.2681 60.941 82.4454C60.5693 82.6227 60.1652 82.7206 59.7541 82.7329C59.3272 82.7593 58.8997 82.6918 58.5013 82.535C58.1029 82.3782 57.7431 82.1358 57.447 81.8248C57.1508 81.5137 56.9253 81.1415 56.7861 80.7338C56.6469 80.3262 56.5974 79.8928 56.641 79.4639C56.5702 75.339 56.5702 71.2142 56.641 67.0893C56.5991 66.6603 56.648 66.2273 56.7847 65.8189C56.9213 65.4105 57.1424 65.036 57.4334 64.7202C57.7243 64.4044 58.0785 64.1545 58.4725 63.9871C58.8665 63.8196 59.2913 63.7385 59.7187 63.7489C60.1293 63.7573 60.5339 63.8503 60.9075 64.0223C61.2811 64.1943 61.6158 64.4417 61.8909 64.7491C62.166 65.0565 62.3757 65.4174 62.5071 65.8097C62.6385 66.202 62.6888 66.6172 62.6549 67.0299C62.7257 69.1458 62.6549 71.2736 62.6549 73.3895H62.6314Z" fill="#53D2BF"/>
<path d="M98.5015 73.343C98.5015 75.352 98.5015 77.3728 98.5015 79.3818C98.5015 81.3907 97.3223 82.7577 95.4709 82.7339C95.0561 82.7325 94.6461 82.6439 94.2672 82.4738C93.8883 82.3037 93.5487 82.0558 93.2702 81.746C92.9917 81.4361 92.7803 81.0711 92.6496 80.6743C92.5189 80.2774 92.4717 79.8575 92.511 79.4412C92.4481 75.3044 92.4481 71.1676 92.511 67.0309C92.4786 66.6152 92.5316 66.1974 92.6666 65.8033C92.8016 65.4093 93.0158 65.0476 93.2958 64.7408C93.5758 64.4339 93.9156 64.1886 94.2939 64.0202C94.6722 63.8518 95.0809 63.7638 95.4945 63.7619C95.9066 63.7505 96.3166 63.8267 96.6976 63.9857C97.0786 64.1446 97.4221 64.3826 97.7057 64.6843C97.9894 64.986 98.2069 65.3445 98.344 65.7365C98.4811 66.1285 98.5347 66.5452 98.5015 66.9595C98.5722 69.0874 98.5015 71.2152 98.5015 73.343Z" fill="#53D2BF"/>
</svg>
