<svg width="157" height="158" viewBox="0 0 157 158" fill="none" xmlns="http://www.w3.org/2000/svg">
<path d="M143.626 114.25V32.7166H115.999C114.961 28.9963 113.971 25.4599 112.959 21.8438C113.134 21.8438 113.609 21.7794 114.084 21.7794C125.5 21.7794 136.918 21.7794 148.336 21.7794C152.424 21.7794 154.612 24.0042 154.612 28.1474C154.612 62.6005 154.612 97.0566 154.612 131.516C154.612 135.454 152.504 137.58 148.599 137.584H100.328V149.691C101.146 149.691 101.982 149.691 102.819 149.691C104.906 149.737 107.011 149.639 109.074 149.897C112.098 150.274 114.283 152.875 114.483 156.108H43.8031C43.5579 153.219 45.8532 150.329 48.9422 149.909C50.8453 149.652 52.8004 149.747 54.7341 149.691C55.3869 149.673 56.0396 149.691 56.8088 149.691V137.58H8.58284C4.45191 137.58 2.3885 135.514 2.39258 131.381V28.1658C2.39258 23.8357 4.43352 21.7794 8.73607 21.7764H44.8297L41.1523 32.6522H13.4033V114.25H143.626ZM72.6338 126.815C72.6456 128.36 73.2613 129.839 74.3493 130.936C75.4374 132.034 76.9113 132.662 78.4563 132.686C79.2345 132.686 80.0049 132.532 80.7235 132.234C81.4421 131.935 82.0948 131.498 82.6441 130.947C83.1935 130.396 83.6288 129.742 83.9251 129.022C84.2213 128.303 84.3728 127.532 84.3708 126.754C84.3652 125.208 83.751 123.727 82.6611 122.632C81.5712 121.536 80.0936 120.914 78.5483 120.9C77.7694 120.896 76.9974 121.045 76.277 121.342C75.5566 121.638 74.9022 122.074 74.3519 122.625C73.8016 123.176 73.3663 123.831 73.0714 124.552C72.7764 125.273 72.6277 126.045 72.6338 126.824V126.815Z" stroke="#53D2BF" stroke-width="3.28856" stroke-miterlimit="10"/>
<path d="M84.3297 27.3289C88.6199 27.3289 92.8949 27.3136 97.176 27.3289C100.547 27.3289 102.57 28.8611 102.714 32.1279C102.95 37.5061 103.253 42.9333 101.877 48.2379C99.4529 57.5724 91.3106 64.5839 81.7585 65.9813C69.614 67.7557 56.5132 59.3804 54.5918 45.3695C54.0065 41.1099 54.1965 36.7277 54.2394 32.4037C54.2639 30.0287 55.5112 28.2023 57.8953 27.476C58.8576 27.1695 58.9955 26.6087 59.0262 25.7813C59.1089 23.3941 58.974 20.9609 59.3908 18.6288C60.0756 14.7059 61.9372 11.084 64.7286 8.24383C67.5201 5.40371 71.1092 3.47967 75.0197 2.72713C85.0896 0.814885 95.8859 6.67114 97.8165 17.7186C97.8875 18.1188 97.9325 18.5231 97.9513 18.9291C98.0371 20.9609 97.7583 21.2551 95.7418 21.2643C93.8051 21.2643 91.8683 21.2643 89.9193 21.2643C88.9295 21.2643 88.2767 20.9118 88.1143 19.8239C87.3758 14.8166 83.6555 12.7756 80.3458 12.4355C75.2097 11.9145 71.373 14.1454 69.6048 18.4388C68.5322 21.0467 68.9061 23.7618 68.9735 26.4432C68.9735 26.7497 70.0001 27.2553 70.567 27.2799C72.8592 27.3779 75.1638 27.3197 77.4468 27.3197H84.3297V27.3289ZM78.4428 56.7296H79.6686C80.0731 56.7296 80.4807 56.7296 80.8944 56.7296C82.5706 56.6714 83.1713 56.0095 82.9935 54.3301C82.8158 52.6508 82.586 50.9071 82.3806 49.1971C82.2152 47.8119 82.3101 46.6015 83.3184 45.3849C85.3348 42.9517 84.8874 39.4122 82.5339 37.2732C81.4331 36.272 79.9976 35.7187 78.5097 35.7221C77.0217 35.7255 75.5888 36.2853 74.4926 37.2915C72.136 39.4367 71.7039 42.9363 73.7204 45.4033C74.7133 46.629 74.8236 47.8549 74.6397 49.2216C74.4926 50.3769 74.2842 51.5261 74.131 52.6784C73.6468 56.3557 73.9962 56.7388 77.6827 56.7327L78.4428 56.7296Z" stroke="#53D2BF" stroke-width="3.28856" stroke-miterlimit="10"/>
<path d="M54.7933 90.4762C54.7933 86.4924 54.7933 82.5331 54.7933 78.5615C54.7933 76.3428 55.4706 75.6195 57.7352 75.6992C61.7926 75.8463 65.9051 75.7268 69.8798 76.3949C75.1293 77.2805 78.7852 81.5493 79.2418 86.8969C79.5283 89.7128 79.4252 92.5548 78.9354 95.3426C77.8414 100.914 73.8238 104.459 68.1514 105.008C64.474 105.367 60.7415 105.314 57.0304 105.339C55.5196 105.339 54.8239 104.496 54.8147 102.848C54.7749 98.732 54.7933 94.601 54.7933 90.4762ZM61.5352 90.4455C61.5352 92.4834 61.5015 94.5183 61.5352 96.5562C61.6118 100.234 60.7752 99.8934 65.0164 99.8137C68.7214 99.7432 71.2864 97.8555 72.0311 94.411C72.4882 92.3292 72.6123 90.1881 72.3988 88.0675C71.9667 84.0837 69.748 81.8864 66.0614 81.3042C65.0655 81.1448 64.0266 81.2705 63.0153 81.1908C61.906 81.1019 61.4831 81.4972 61.5076 82.6556C61.5812 85.2482 61.5352 87.8499 61.5352 90.4578V90.4455Z" fill="#53D2BF"/>
<path d="M46.8536 96.2221C46.8536 98.0608 46.8536 99.8995 46.8536 101.738C46.8536 102.988 46.2898 103.914 45.0946 104.328C40.4979 105.918 35.7908 106.473 31.0286 105.106C25.4819 103.503 21.7769 98.7595 21.4674 92.9829C21.2774 89.4403 21.4674 85.956 23.1988 82.7322C25.6504 78.1814 29.5546 75.8401 34.611 75.3774C37.9299 75.071 41.2334 75.2119 44.35 76.6216C46.6974 77.6849 47.6167 80.0446 46.6575 82.4594C46.1396 83.7588 45.3337 83.2777 44.4174 82.959C42.2722 82.2173 40.1271 81.1631 37.9237 80.9793C30.6762 80.3664 27.7619 86.0572 28.3319 91.8858C28.6782 95.4314 30.0265 98.5082 33.7928 99.5685C35.325 100.004 37.0779 99.829 38.7266 99.8106C39.6735 99.8106 40.1608 99.1977 40.1179 98.1864C40.0658 97.0679 40.0597 95.9432 40.1179 94.8155C40.1761 93.6877 39.6797 93.366 38.6561 93.4181C37.6908 93.4702 36.7194 93.4487 35.7541 93.4181C34.2586 93.3813 33.6671 92.5753 33.707 90.6845C33.7468 88.7937 34.2647 88.1778 35.7939 88.1686C38.6541 88.1461 41.5061 88.1461 44.35 88.1686C46.1029 88.1686 46.8199 88.9071 46.8536 90.6999C46.8874 92.4926 46.8506 94.3895 46.8536 96.2221Z" fill="#53D2BF"/>
<path d="M129.566 91.6466C132.413 94.8398 133.55 98.7991 135.149 102.513C136.093 104.698 135.594 105.376 133.203 105.397C128.184 105.446 129.109 105.657 127.381 101.554C126.618 99.7154 125.867 97.8767 125.055 96.0809C124.405 94.6406 123.357 93.7213 121.684 93.6079C120.651 93.5374 120.195 93.8193 120.219 94.9409C120.277 97.6377 120.25 100.338 120.219 103.037C120.219 104.778 119.689 105.32 117.954 105.382C112.377 105.575 113.477 105.075 113.45 101.15C113.401 93.614 113.45 86.0784 113.45 78.5428C113.45 76.2598 114.063 75.6561 116.37 75.6898C119.775 75.7419 123.198 75.6377 126.575 75.9962C130.691 76.4283 133.363 78.6072 133.868 81.8801C134.463 85.7413 134.135 88.7323 129.961 91.3095C129.824 91.4148 129.692 91.5273 129.566 91.6466ZM120.247 88.1684C121.705 88.1684 122.977 88.2971 124.212 88.1378C125.033 88.0386 125.79 87.6457 126.343 87.0316C126.896 86.4175 127.208 85.6239 127.221 84.7975C127.301 83.1886 126.455 81.7605 124.963 81.402C123.774 81.1404 122.556 81.0374 121.341 81.0955C120.967 81.0955 120.317 81.7636 120.296 82.1528C120.198 84.062 120.259 85.9957 120.259 88.1684H120.247Z" fill="#53D2BF"/>
<path d="M86.2971 90.9258C86.2971 86.8531 86.2971 82.7804 86.2971 78.7107C86.2971 76.5043 87.1337 75.6462 89.3616 75.6922C92.4077 75.7351 95.4722 75.6922 98.4938 75.9986C103.498 76.5165 106.636 79.5841 106.817 83.7732C107.084 89.9237 104.476 93.7972 99.1557 94.9127C97.6235 95.2191 96.0299 95.2467 94.4609 95.2988C93.4374 95.3356 92.993 95.7033 93.0175 96.7606C93.0635 98.9486 92.993 101.14 93.0451 103.328C93.0758 104.673 92.4721 105.271 91.1727 105.39C86.6158 105.798 86.2695 105.513 86.2695 101.008L86.2971 90.9258ZM93.039 85.4894C93.039 86.6079 92.9747 87.7295 93.0727 88.8389C93.1095 89.2342 93.511 89.8839 93.8082 89.9206C95.604 90.1474 97.3936 90.0861 98.7635 88.6489C99.8483 87.5119 100.167 84.6865 99.4346 83.1695C98.5919 81.4289 97.0596 81.1164 95.3374 81.196C94.9329 81.2144 94.4517 81.0673 94.1361 81.2359C93.7071 81.4657 93.1463 81.8917 93.088 82.2962C92.9532 83.3412 93.0513 84.4229 93.0513 85.4894H93.039Z" fill="#53D2BF"/>
</svg>
