<svg width="121" height="100" viewBox="0 0 121 100" fill="none" xmlns="http://www.w3.org/2000/svg">
<path d="M0.59375 88.1759C1.21959 87.4723 1.98894 87.2525 2.96159 87.2641C6.71464 87.3103 10.4697 87.2834 14.2228 87.2834H15.4186C15.3482 87.1122 15.2642 86.9466 15.1675 86.7879C12.6043 83.4743 12.4389 79.6114 14.733 76.0838C18.1784 70.7802 21.6332 65.4837 25.0972 60.1942C25.5118 59.5639 25.741 58.976 25.5617 58.2203C25.4305 57.5577 25.3452 56.8873 25.3065 56.2136C25.0096 53.0966 26.9927 50.9146 30.2335 50.8606C32.7249 50.8182 35.2164 50.8606 37.7078 50.8606C40.4643 50.8606 43.2227 50.8394 45.9792 50.876C46.6489 50.8857 47.0815 50.6967 47.2568 50.0838C47.698 48.5416 48.1245 46.9995 48.5364 45.4574C48.6799 44.9177 48.4487 44.617 47.8926 44.3606C43.3583 42.2537 41.0243 38.7589 40.9725 33.8781C40.9486 31.5977 41.0203 29.3153 40.9426 27.0369C40.9169 26.3159 40.6963 25.6141 40.3028 25.0013C37.9689 21.5643 35.5691 18.1717 33.1754 14.7752C32.703 14.1043 32.3283 13.4451 32.7947 12.6547C33.2392 11.8837 34.0045 11.8567 34.7878 11.8664C35.9399 11.8818 37.0919 11.8664 38.4233 11.8664C38.0247 11.1628 37.7297 10.6057 37.4088 10.0563C36.3843 8.29314 35.3552 6.53192 34.3214 4.77262C33.9447 4.13457 33.7614 3.40208 34.3214 2.90475C34.748 2.53079 35.5054 2.23777 36.0614 2.30909C43.9602 3.32496 51.853 4.39867 59.7438 5.48201C67.3456 6.52486 72.741 12.543 72.7649 19.9894C72.7808 24.583 72.7948 29.1766 72.7649 33.7721C72.733 38.809 70.3233 42.3905 65.5717 44.4608C65.0355 44.696 64.8422 44.9967 64.9738 45.4863C65.3724 47.0285 65.8148 48.5706 66.2573 50.1127C66.4367 50.7353 66.8931 50.8837 67.5489 50.8837C72.731 50.8587 77.9131 50.8837 83.0953 50.8664C84.8711 50.8664 86.352 51.4254 87.3984 52.8596C87.7919 53.3821 88.0628 53.9814 88.1923 54.6156C88.3217 55.2498 88.3065 55.9037 88.1479 56.5317C87.7213 58.3475 88.0801 59.8685 89.1843 61.4742C92.457 66.2335 95.5344 71.1124 98.6775 75.9585C101.069 79.6576 100.948 83.2565 98.3108 86.8246C98.2411 86.921 98.1812 87.0173 98.0059 87.2988H110.513C110.845 87.2886 111.178 87.299 111.509 87.3296C112.38 87.4395 113.016 88.1142 112.946 88.8949C112.873 89.7334 112.39 90.2442 111.503 90.356C111.172 90.3825 110.839 90.3896 110.507 90.3772C74.6304 90.3772 38.7542 90.3824 2.87787 90.3926C1.89924 90.3926 1.10799 90.2172 0.603725 89.3498L0.59375 88.1759ZM32.4838 87.1773H81.0683C81.1599 86.4872 81.2437 85.8839 81.3214 85.2786C82.5452 75.6892 83.7703 66.0999 84.9967 56.5105C85.2598 54.4749 84.8134 53.939 82.6947 53.939H31.8839C31.2859 53.939 30.688 53.9159 30.09 53.939C28.9759 53.9949 28.3999 54.6272 28.4616 55.6951C28.4776 55.9843 28.5155 56.2734 28.5514 56.5587L30.7099 73.3793C31.2979 77.969 31.8878 82.5548 32.4818 87.1773H32.4838ZM37.2155 14.9332C37.5124 15.3959 37.7038 15.7178 37.919 16.0262C39.7727 18.6883 41.6641 21.3272 43.4659 24.024C43.8623 24.6402 44.0856 25.3459 44.1137 26.0711C44.1894 28.7987 44.0878 31.5302 44.1675 34.2578C44.305 38.8842 47.9544 42.2594 52.718 42.2845C55.4725 42.2986 58.2277 42.2986 60.9835 42.2845C65.8627 42.2672 69.5679 38.7164 69.5898 33.9957C69.6118 29.2749 69.6158 24.5502 69.5898 19.8333C69.6031 17.074 68.5769 14.4044 66.7033 12.3234C64.8297 10.2425 62.2367 8.89246 59.4089 8.52573C53.3638 7.68528 47.3126 6.88339 41.2715 6.06992C40.4403 5.95812 39.6072 5.87716 38.6525 5.75572C38.7801 6.02559 38.8239 6.14126 38.8877 6.2492C40.3048 8.68189 41.7339 11.1088 43.143 13.5472C43.6652 14.4532 43.5018 15.2706 42.7444 15.7563C41.987 16.2421 41.2416 16.0782 40.538 15.3515C40.3706 15.18 40.1394 14.9564 39.9401 14.9448C39.085 14.9062 38.234 14.9332 37.2135 14.9332H37.2155ZM86.079 73.0728C87.7632 73.1518 89.3477 73.2039 90.9283 73.306C92.1979 73.3889 92.8955 74.0115 92.8437 74.9349C92.7898 75.9257 91.9806 76.4558 90.6891 76.3922C89.3298 76.3247 87.9685 76.3228 86.6111 76.2418C85.8278 76.1956 85.6026 76.5348 85.5229 77.2326C85.2279 79.8176 84.8731 82.3949 84.5502 84.976C84.4566 85.722 84.3928 86.4699 84.3051 87.2891C85.8478 87.2891 87.239 87.3123 88.6302 87.2891C89.854 87.2622 91.1176 87.347 92.2955 87.0964C96.5509 86.1711 98.5041 81.5197 96.1841 77.89C93.4097 73.5508 90.5695 69.2464 87.7532 64.9304C87.5788 64.7062 87.3912 64.4918 87.1911 64.2885C86.7945 67.3323 86.4417 70.1852 86.077 73.0728H86.079ZM29.225 87.1581C28.7985 83.8136 28.3421 80.5385 27.9833 77.2519C27.8896 76.3903 27.5309 76.1821 26.7316 76.2283C25.27 76.3132 23.8084 76.3652 22.3467 76.3845C21.3721 76.398 20.7263 75.8062 20.6725 74.9503C20.6187 74.0944 21.1788 73.441 22.1434 73.3311C23.0005 73.2328 23.8635 73.1788 24.7245 73.1383C25.5856 73.0979 26.4805 73.1383 27.4312 73.1383C27.0445 70.1216 26.6818 67.2687 26.3051 64.3348C26.1237 64.4582 26.0221 64.4929 25.9762 64.5623C23.0025 69.125 19.945 73.6395 17.0949 78.2736C14.9343 81.7877 17.2643 86.5393 21.4797 87.0945C23.9771 87.4279 26.5602 87.1581 29.223 87.1581H29.225ZM51.9068 45.4054C51.4882 47.2231 51.0797 48.9908 50.6631 50.7873H62.877L61.6632 45.4054H51.9068Z" fill="white"/>
<path d="M120.181 22.0578C119.992 22.6705 119.769 23.2728 119.513 23.8621C118.043 26.8326 115.603 28.421 112.181 28.4537C107.963 28.4942 103.746 28.4538 99.5283 28.4923C98.9914 28.5221 98.4841 28.74 98.1013 29.1053C95.9826 31.2777 93.9157 33.4984 91.8508 35.719C91.2967 36.3147 90.6948 36.7098 89.8577 36.4207C88.9548 36.1123 88.7694 35.3913 88.7754 34.5586C88.7894 32.7582 88.7615 30.9597 88.7874 29.1612C88.7874 28.6292 88.6339 28.3901 88.0679 28.2282C84.2092 27.1738 82.0367 24.3864 82.0227 20.4984C82.0068 16.4503 82.0227 12.4023 82.0227 8.35425C82.0227 4.04212 84.1175 1.38969 88.4346 0.208041C88.5269 0.173839 88.6157 0.131234 88.6997 0.0808105H113.614C113.889 0.175265 114.162 0.273569 114.441 0.364168C115.513 0.657795 116.508 1.16852 117.36 1.86244C118.212 2.55637 118.902 3.41763 119.384 4.38908C119.685 5.05986 119.952 5.74506 120.181 6.44203V22.0578ZM91.9604 30.9751C93.5549 29.273 94.9721 27.8292 96.3174 26.3353C96.5885 26.0142 96.9341 25.7596 97.3262 25.5921C97.7183 25.4246 98.1457 25.349 98.5736 25.3714C103.022 25.4023 107.471 25.3946 111.928 25.3811C115.011 25.3715 116.992 23.4689 117 20.5157C117 16.3096 117.018 12.1035 117 7.8974C116.986 5.11775 114.965 3.17082 112.089 3.16697C104.753 3.15283 97.4163 3.15283 90.0789 3.16697C87.3105 3.16697 85.2516 5.09461 85.2277 7.74897C85.1878 12.0823 85.1878 16.4163 85.2277 20.7509C85.2516 23.411 87.1789 25.2577 89.9274 25.3772C91.5219 25.4505 91.9624 25.8919 91.9704 27.4514C91.9764 28.5289 91.9604 29.6065 91.9604 30.9751Z" fill="white"/>
<path d="M94.0706 99.5489C93.9052 99.3947 93.7278 99.2521 93.5783 99.0863C93.4335 98.9426 93.3198 98.7725 93.2437 98.5858C93.1676 98.3991 93.1307 98.1997 93.1351 97.9991C93.1396 97.7985 93.1853 97.6007 93.2696 97.4174C93.3539 97.234 93.4751 97.0688 93.6262 96.9312C93.9122 96.6585 94.2957 96.5028 94.6973 96.4963C95.0988 96.4898 95.4875 96.6332 95.7827 96.8965C96.0902 97.1692 96.2749 97.5476 96.2973 97.9505C96.3196 98.3533 96.1778 98.7487 95.9023 99.0516C95.7608 99.2213 95.6113 99.3832 95.4658 99.5489H94.0706Z" fill="white"/>
<path d="M74.9378 99.549C74.7884 99.3851 74.6329 99.227 74.4894 99.0593C74.2113 98.7582 74.0663 98.3637 74.0857 97.9603C74.1051 97.557 74.2872 97.1772 74.593 96.9023C74.8873 96.6377 75.2754 96.4926 75.6771 96.4969C76.0788 96.5012 76.4635 96.6546 76.7516 96.9254C77.0527 97.2053 77.2283 97.5882 77.2405 97.9919C77.2528 98.3956 77.1009 98.7879 76.8174 99.0844C76.6659 99.2482 76.4945 99.3947 76.333 99.549H74.9378Z" fill="white"/>
<path d="M84.5042 99.5491C84.3467 99.391 84.1813 99.2387 84.0338 99.0749C83.8919 98.9286 83.7813 98.7567 83.7083 98.569C83.6352 98.3813 83.6013 98.1815 83.6083 97.9811C83.6154 97.7807 83.6633 97.5836 83.7493 97.4011C83.8353 97.2186 83.9577 97.0544 84.1095 96.9178C84.3989 96.6482 84.785 96.4976 85.1868 96.4976C85.5886 96.4976 85.9747 96.6482 86.2641 96.9178C86.5705 97.1913 86.7523 97.5712 86.7695 97.9741C86.7866 98.3771 86.6379 98.7702 86.3558 99.0671C86.2083 99.2329 86.0508 99.391 85.8994 99.5529L84.5042 99.5491Z" fill="white"/>
<path d="M14.6994 32.0527C14.6994 31.5399 14.6595 31.0233 14.6994 30.5106C14.7791 29.6528 15.3212 29.1496 16.1882 29.1072C17.0552 29.0648 17.7209 29.5178 17.7967 30.3621C17.9013 31.5113 17.9013 32.6672 17.7967 33.8165C17.7209 34.6531 17.0632 35.1234 16.2022 35.0791C15.3411 35.0347 14.7831 34.549 14.7093 33.6834C14.6635 33.1456 14.7014 32.5982 14.6994 32.0527Z" fill="white"/>
<path d="M14.6893 21.7822C14.6893 21.3003 14.6633 20.8184 14.6893 20.3403C14.6948 19.9511 14.8536 19.5786 15.1331 19.2986C15.4127 19.0185 15.7921 18.852 16.1941 18.8329C16.5976 18.8088 16.9948 18.9383 17.3009 19.1937C17.6071 19.449 17.7978 19.8101 17.8324 20.1996C17.9066 21.2908 17.9066 22.3855 17.8324 23.4766C17.8208 23.6706 17.7687 23.8603 17.6793 24.0343C17.5898 24.2083 17.4649 24.363 17.312 24.4891C17.1591 24.6151 16.9814 24.71 16.7896 24.7679C16.5979 24.8258 16.396 24.8455 16.1961 24.826C15.3191 24.7604 14.7869 24.2804 14.7092 23.4265C14.6593 22.8848 14.7092 22.3374 14.7092 21.7918L14.6893 21.7822Z" fill="white"/>
<path d="M20.5459 28.4731C19.3101 28.4731 18.5527 28.0702 18.5527 27.2105C18.5527 26.7054 18.8417 25.8399 19.1666 25.7609C20.0642 25.5474 21.0007 25.5368 21.9032 25.73C22.24 25.8052 22.5769 26.6514 22.5908 27.1545C22.6147 28.0297 21.8175 28.475 20.5459 28.4731Z" fill="white"/>
<path d="M11.9726 28.4729C10.4619 28.4633 9.59285 27.5573 10.0353 26.4296C10.3921 25.5217 11.1794 25.3887 12.0663 25.3906C12.9234 25.3906 13.6608 25.5545 13.9937 26.4239C14.4441 27.5901 13.5592 28.4884 11.9726 28.4729Z" fill="white"/>
<path d="M56.6986 75.6905C56.125 75.6884 55.5577 75.5758 55.0296 75.3593C54.5015 75.1429 54.0232 74.8269 53.6227 74.4298C53.2221 74.0328 52.9073 73.5625 52.6966 73.0466C52.4859 72.5306 52.3836 71.9793 52.3955 71.4247C52.4006 70.87 52.5196 70.3218 52.7456 69.812C52.9715 69.3021 53.3 68.8407 53.7118 68.4546C54.1236 68.0685 54.6106 67.7654 55.1446 67.5628C55.6785 67.3602 56.2488 67.2622 56.8222 67.2745C57.3959 67.2792 57.9629 67.3937 58.4906 67.6114C59.0183 67.829 59.4963 68.1454 59.8971 68.5425C60.2978 68.9395 60.6133 69.4093 60.8255 69.9248C61.0377 70.4403 61.1423 70.9913 61.1333 71.5461C61.1253 72.1004 61.004 72.6476 60.7765 73.1564C60.5489 73.6652 60.2196 74.1254 59.8074 74.5106C59.3952 74.8957 58.9084 75.1983 58.3748 75.4008C57.8413 75.6033 57.2717 75.7018 56.6986 75.6905ZM56.9577 70.1871H56.5053C56.2023 70.6093 55.708 71.0025 55.6363 71.4594C55.5227 72.1476 56.023 72.6025 56.7823 72.5851C57.5417 72.5678 58.024 72.0859 57.8925 71.4112C57.8088 70.9678 57.2965 70.5958 56.9617 70.1871H56.9577Z" fill="white"/>
<path d="M92.5915 14.3993C93.4266 15.1704 94.3853 16.0474 95.342 16.938C96.1891 17.7283 96.3027 18.617 95.6629 19.3032C95.0231 19.9894 94.0106 19.9702 93.1296 19.1625C91.8009 17.9481 90.4827 16.7272 89.1753 15.5C88.2026 14.5882 88.2026 13.7844 89.1872 12.8591C90.516 11.6087 91.86 10.3692 93.2193 9.14069C94.0445 8.39083 95.0131 8.38118 95.6828 9.08092C96.3027 9.73246 96.1831 10.5806 95.4118 11.3787C94.4869 12.3406 93.59 13.3275 92.5915 14.3993Z" fill="white"/>
<path d="M109.815 14.193C108.755 13.2119 107.792 12.3348 106.845 11.4404C105.996 10.6366 105.891 9.74791 106.534 9.06939C107.212 8.35423 108.169 8.40243 109.068 9.22361C110.393 10.4361 111.713 11.6524 113.016 12.8861C113.987 13.8037 113.979 14.621 113.016 15.5231C111.705 16.7491 110.385 17.9699 109.058 19.1856C108.213 19.9567 107.264 20.0165 106.588 19.3669C105.881 18.6883 105.99 17.765 106.871 16.9303C107.816 16.032 108.777 15.153 109.815 14.193Z" fill="white"/>
<path d="M104.721 10.2145C104.642 10.488 104.545 10.7565 104.432 11.0183C103.166 13.5956 101.901 16.1728 100.615 18.7404C100.125 19.7197 99.1899 20.0705 98.3309 19.6464C97.5117 19.2397 97.2566 18.378 97.7329 17.4027C99.0085 14.7965 100.314 12.198 101.602 9.59957C102 8.80153 102.622 8.416 103.527 8.63575C104.298 8.80924 104.673 9.34511 104.721 10.2145Z" fill="white"/>
</svg>
