<svg width="85" height="86" viewBox="0 0 85 86" fill="none" xmlns="http://www.w3.org/2000/svg">
<path d="M0.222656 67.5565V17.8872C0.277752 17.827 0.323932 17.7592 0.35979 17.6859C1.18481 15.1379 2.85252 13.9147 5.50895 13.9147H9.16957C9.16957 11.0769 9.15409 8.34971 9.16957 5.62251C9.18505 3.51462 10.2158 2.02825 12.0826 1.09928C12.4232 0.931175 12.7859 0.809527 13.1376 0.667969H72.0789C72.1669 0.729316 72.261 0.781209 72.3598 0.822794C74.7354 1.57482 76.047 3.33324 76.0514 5.79282C76.0514 8.08282 76.0514 10.3728 76.0514 12.6628V13.9147H79.712C82.9258 13.9147 84.9917 15.9717 84.9917 19.1723V66.2692C84.9917 69.4675 82.9236 71.5289 79.712 71.5289H50.958V75.5103C52.0639 75.5103 53.1124 75.5103 54.1608 75.5103C55.4412 75.5298 56.6634 76.0488 57.5666 76.9566C58.4699 77.8644 58.9827 79.0891 58.9959 80.3697C59.0091 81.4741 59.0091 82.5801 58.9959 83.6875C58.9826 84.7934 58.3566 85.4569 57.2618 85.4569C47.4943 85.4569 37.7267 85.4569 27.9592 85.4569C26.8533 85.4569 26.2295 84.8155 26.2163 83.7052C26.203 82.5948 26.2163 81.4933 26.2163 80.3874C26.2279 79.0909 26.752 77.8516 27.6739 76.9399C28.5959 76.0283 29.841 75.5183 31.1376 75.5213C32.1772 75.5213 33.2168 75.5213 34.274 75.5213V71.54H33.2411C23.9159 71.54 14.5901 71.54 5.26344 71.54C4.20818 71.5635 3.17306 71.2488 2.30947 70.6419C1.44587 70.035 0.799111 69.1677 0.46374 68.1669C0.392961 67.9524 0.304495 67.7622 0.222656 67.5565ZM12.4741 17.2546V18.2323C12.4741 21.929 12.4741 25.6257 12.4741 29.3225C12.4877 29.6206 12.4549 29.9191 12.3767 30.2072C12.2468 30.5751 11.9899 30.8846 11.6521 31.0801C11.3144 31.2755 10.918 31.344 10.5343 31.2733C9.72475 31.145 9.174 30.4793 9.174 29.5613C9.16515 25.7525 9.16515 21.9452 9.174 18.1394V17.2148H5.76332C4.10443 17.2148 3.55147 17.7855 3.55147 19.4687V56.9241H9.16957V55.9929C9.16957 52.2682 9.16957 48.5434 9.16957 44.8187C9.16957 43.5933 9.78004 42.8944 10.8285 42.8966C11.8769 42.8988 12.4763 43.6021 12.4785 44.8275C12.4785 48.5523 12.4785 52.277 12.4785 56.0018V56.9175H20.9233C20.9233 55.19 20.9233 53.5134 20.9233 51.8302C20.9233 50.4124 21.5006 49.8396 22.9405 49.8396H24.6304C25.1657 48.5456 25.6788 47.3092 26.2318 45.9777C25.7673 45.5353 25.2541 45.1195 24.8051 44.6351C24.0398 43.8123 24.0398 42.9563 24.8317 42.1467C26.4331 40.51 28.0551 38.888 29.6977 37.2807C30.4829 36.5088 31.5159 36.4136 32.1728 37.2519C33.1858 38.5436 34.1015 38.4972 35.5569 37.8801C36.9504 37.2895 37.5984 36.7321 37.4126 35.1551C37.2755 34.0027 38.0762 33.337 39.2728 33.3237C41.5068 33.3016 43.7408 33.3016 45.9747 33.3237C47.1669 33.337 47.9853 34.0116 47.8282 35.1595C47.6071 36.8295 48.4122 37.3183 49.768 37.9111C51.1593 38.5171 52.0396 38.5746 53.015 37.3072C53.7029 36.4225 54.7336 36.4844 55.5498 37.2829C57.1644 38.8666 58.7636 40.4665 60.3473 42.0826C61.232 42.9784 61.2099 43.8388 60.3075 44.7523C59.8651 45.1947 59.3542 45.5795 58.9804 45.9091L60.6105 49.8307C61.2342 49.8307 61.8956 49.8307 62.5547 49.8307C63.6606 49.8484 64.2999 50.481 64.3242 51.5736C64.3375 52.4274 64.3242 53.2834 64.3242 54.1394V56.9241H72.7292V17.2546H12.4741ZM3.59572 60.3016C3.57171 60.3819 3.55396 60.464 3.54264 60.5471C3.54264 62.2576 3.54264 63.9674 3.54264 65.6764C3.54264 67.7622 3.98501 68.22 6.0553 68.22H79.2055C79.3979 68.22 79.5926 68.22 79.785 68.22C81.006 68.1868 81.6739 67.5343 81.6872 66.3112C81.7049 64.493 81.6872 62.6705 81.6872 60.8501C81.677 60.6668 81.6548 60.4843 81.6209 60.3038L3.59572 60.3016ZM72.7425 13.8882C72.7425 11.2141 72.7425 8.62398 72.7425 6.03612C72.7425 4.60727 72.1033 3.9791 70.6567 3.9791H14.5576C13.1111 3.9791 12.4829 4.60506 12.4785 6.04055C12.4785 8.44114 12.4785 10.841 12.4785 13.2401C12.4785 13.4502 12.5139 13.6604 12.5338 13.8882H72.7425ZM28.2667 43.4849C28.6405 43.8167 28.9855 44.0954 29.2952 44.405C30.1799 45.2898 30.1799 45.8826 29.6535 46.9885C28.928 48.5213 28.2932 50.1006 27.7159 51.6953C27.3532 52.6973 26.9019 53.1441 25.8093 53.1595C25.2984 53.1595 24.7852 53.1595 24.2743 53.1595V56.9197H34.4643C33.4335 50.8238 37.9347 46.7452 42.6061 46.7452C47.3549 46.7452 51.7786 50.8946 50.7523 56.8865H60.9268V53.164C60.3584 53.164 59.8386 53.164 59.321 53.164C58.3389 53.1441 57.8501 52.684 57.5117 51.786C56.8858 50.1227 56.2134 48.4682 55.4812 46.8536C55.0543 45.9091 55.0588 45.2876 55.7953 44.5333C56.1559 44.1662 56.5562 43.841 56.9189 43.5115L54.1298 40.7245C53.8179 41.0873 53.5171 41.4854 53.1677 41.8305C52.3802 42.6112 51.7631 42.6179 50.7855 42.1689C49.1952 41.4367 47.5739 40.7666 45.9349 40.1517C44.9285 39.7734 44.4884 39.3156 44.4596 38.234C44.4463 37.7496 44.4596 37.2652 44.4596 36.783H40.7481C40.7481 37.3006 40.7481 37.7629 40.7481 38.2274C40.7172 39.3112 40.2792 39.7757 39.2772 40.1495C37.6161 40.7798 35.9772 41.4766 34.3581 42.2065C33.4601 42.6112 32.8231 42.5958 32.1064 41.8902C31.726 41.5142 31.4031 41.0762 31.1045 40.7267L28.2667 43.4849ZM76.0912 56.902H81.6828V19.3514C81.6902 19.1588 81.6843 18.9659 81.6651 18.7742C81.5523 17.9403 81.0015 17.2966 80.161 17.2568C78.8206 17.1949 77.4736 17.2391 76.0912 17.2391V56.902ZM55.6891 82.0994V81.1969C55.6891 79.308 55.1893 78.8148 53.2716 78.8148H40.6176C37.5852 78.8148 34.5527 78.8148 31.5203 78.8148C30.39 78.8148 29.6712 79.339 29.5584 80.2945C29.5196 80.8946 29.5151 81.4965 29.5451 82.0971L55.6891 82.0994ZM47.4058 56.9595C47.4058 55.931 47.5628 54.9423 47.4058 54.0089C46.9435 51.3326 44.1123 49.5852 41.4891 50.2487C38.7066 50.9499 37.0455 53.7545 37.8727 56.4065C37.9283 56.5401 38.0148 56.6585 38.1252 56.7519C38.2356 56.8454 38.3666 56.9112 38.5075 56.944C41.3608 56.9728 44.2229 56.9595 47.4058 56.9595ZM37.6736 75.4395H47.5341V71.5776H37.6736V75.4395Z" fill="white"/>
<path d="M37.6464 21.8613H44.9256C46.0846 21.8613 46.8808 22.5536 46.8654 23.5313C46.8499 24.5089 46.0669 25.168 44.8879 25.168C40.0086 25.168 35.1293 25.168 30.25 25.168C29.0356 25.168 28.3389 24.5487 28.3477 23.4959C28.3566 22.443 29.0511 21.8635 30.2875 21.8613H37.6464Z" fill="white"/>
<path d="M59.3746 25.1719C57.1407 25.1719 54.9089 25.1719 52.6772 25.1719C51.5712 25.1719 50.8015 24.5084 50.7816 23.5418C50.7617 22.5752 51.5513 21.8674 52.7103 21.8652H66.1871C67.397 21.8652 68.107 22.4934 68.0982 23.5352C68.0893 24.577 67.3793 25.1719 66.154 25.1719C63.8935 25.1749 61.6337 25.1749 59.3746 25.1719Z" fill="white"/>
<path d="M60.7912 29.809C62.6094 29.809 64.4275 29.809 66.2457 29.809C67.3936 29.809 68.0969 30.4416 68.1036 31.448C68.1102 32.4544 67.4091 33.1135 66.2744 33.1157C62.6116 33.1157 58.948 33.1157 55.2837 33.1157C54.1933 33.1157 53.4258 32.3991 53.4457 31.4347C53.4656 30.4704 54.2088 29.8157 55.255 29.8112C57.1019 29.8024 58.9377 29.809 60.7912 29.809Z" fill="white"/>
<path d="M23.6118 29.8086C25.1601 29.8086 26.7083 29.8086 28.2412 29.8086C29.3228 29.8086 30.0106 30.4589 30.0239 31.441C30.0372 32.423 29.3427 33.1087 28.281 33.1109C25.1372 33.1212 21.9949 33.1212 18.8541 33.1109C17.7902 33.1109 17.1045 32.4252 17.1134 31.4365C17.1222 30.4478 17.8145 29.8152 18.8983 29.8086C20.4687 29.802 22.0414 29.8086 23.6118 29.8086Z" fill="white"/>
<path d="M20.7742 21.8624C21.4377 21.8624 22.1013 21.8447 22.7649 21.8624C23.1965 21.8699 23.6081 22.046 23.9115 22.3532C24.215 22.6603 24.3861 23.074 24.3884 23.5058C24.3919 23.9386 24.2241 24.3552 23.9216 24.6647C23.6191 24.9743 23.2065 25.1516 22.7737 25.158C21.4215 25.1846 20.0701 25.1846 18.7194 25.158C18.5052 25.1593 18.2929 25.1174 18.0952 25.0347C17.8976 24.952 17.7187 24.8304 17.5691 24.6769C17.4196 24.5235 17.3026 24.3415 17.2251 24.1417C17.1476 23.942 17.1112 23.7287 17.118 23.5146C17.1124 23.3008 17.1494 23.0881 17.2268 22.8887C17.3043 22.6894 17.4206 22.5074 17.569 22.3535C17.7174 22.1995 17.8949 22.0766 18.0913 21.9919C18.2877 21.9072 18.4989 21.8624 18.7128 21.8601H20.7808L20.7742 21.8624Z" fill="white"/>
<path d="M12.4698 37.0756C12.4758 37.2956 12.4371 37.5146 12.356 37.7192C12.2749 37.9238 12.1531 38.1098 11.998 38.2659C11.8429 38.4221 11.6577 38.5451 11.4537 38.6276C11.2496 38.71 11.0309 38.7502 10.8109 38.7456C10.5908 38.7487 10.3724 38.7071 10.1689 38.6233C9.96534 38.5395 9.78094 38.4152 9.62686 38.2581C9.47279 38.1009 9.35224 37.9141 9.27251 37.7089C9.19279 37.5038 9.15555 37.2845 9.16306 37.0646C9.16218 36.8514 9.20342 36.6401 9.28439 36.4429C9.36537 36.2457 9.4845 36.0665 9.63494 35.9154C9.78537 35.7644 9.96414 35.6445 10.161 35.5627C10.3579 35.481 10.569 35.4389 10.7821 35.4389C11.0019 35.4298 11.2211 35.4656 11.4266 35.544C11.6321 35.6225 11.8195 35.7419 11.9773 35.895C12.1352 36.0481 12.2602 36.2317 12.3449 36.4347C12.4296 36.6376 12.4721 36.8557 12.4698 37.0756Z" fill="white"/>
<path d="M56.5607 7.29238C59.4553 7.29238 62.3506 7.29238 65.2467 7.29238C66.399 7.29238 67.1024 7.92055 67.1112 8.92694C67.1201 9.93333 66.4211 10.5969 65.2842 10.5991C59.4391 10.5991 53.5932 10.5991 47.7465 10.5991C46.6118 10.5991 45.9129 9.93554 45.924 8.92252C45.935 7.90949 46.6362 7.29459 47.7907 7.29238C50.7148 7.28796 53.6381 7.28796 56.5607 7.29238Z" fill="white"/>
<path d="M21.4137 8.98481C21.4122 9.20493 21.3661 9.42246 21.2782 9.62425C21.1902 9.82604 21.0623 10.0079 20.902 10.1588C20.7418 10.3098 20.5526 10.4266 20.3459 10.5024C20.1392 10.5781 19.9193 10.6111 19.6995 10.5995C19.4795 10.5951 19.2626 10.5463 19.0621 10.4558C18.8615 10.3653 18.6813 10.2351 18.5324 10.073C18.3836 9.9109 18.2691 9.72032 18.196 9.51276C18.1229 9.3052 18.0926 9.08497 18.107 8.86537C18.1203 8.43512 18.3039 8.02775 18.6175 7.73285C18.931 7.43794 19.3489 7.27964 19.7791 7.29275C19.9991 7.29137 20.217 7.33463 20.4197 7.41992C20.6225 7.5052 20.8058 7.63073 20.9586 7.78892C21.1114 7.9471 21.2305 8.13465 21.3088 8.34021C21.387 8.54577 21.4227 8.76506 21.4137 8.98481Z" fill="white"/>
<path d="M27.0631 10.5992C26.8431 10.6058 26.6239 10.5676 26.4191 10.4869C26.2142 10.4062 26.0279 10.2847 25.8715 10.1297C25.7151 9.97475 25.5918 9.78959 25.5092 9.58549C25.4266 9.38139 25.3864 9.16263 25.391 8.94249C25.3872 8.72957 25.4254 8.51799 25.5033 8.31982C25.5813 8.12166 25.6976 7.9408 25.8454 7.78758C25.9933 7.63435 26.17 7.51176 26.3652 7.4268C26.5605 7.34185 26.7706 7.29619 26.9835 7.29245C27.2034 7.28046 27.4234 7.31327 27.6303 7.38889C27.8371 7.46451 28.0264 7.58136 28.1867 7.73236C28.347 7.88335 28.4749 8.06534 28.5628 8.26727C28.6506 8.46921 28.6965 8.68689 28.6977 8.9071C28.7067 9.12686 28.671 9.34615 28.5928 9.55171C28.5145 9.75727 28.3954 9.94481 28.2426 10.103C28.0898 10.2612 27.9065 10.3867 27.7037 10.472C27.501 10.5573 27.2831 10.6005 27.0631 10.5992Z" fill="white"/>
<path d="M35.9871 8.96765C35.9879 9.1877 35.9441 9.40562 35.8583 9.60825C35.7725 9.81089 35.6465 9.99402 35.4879 10.1466C35.3294 10.2992 35.1415 10.418 34.9357 10.4959C34.7299 10.5739 34.5105 10.6093 34.2906 10.6C34.0705 10.5986 33.853 10.5524 33.6512 10.4642C33.4495 10.3761 33.2678 10.2479 33.1172 10.0873C32.9666 9.92677 32.8502 9.73728 32.7751 9.53035C32.7 9.32342 32.6678 9.10337 32.6804 8.8836C32.6844 8.67068 32.7304 8.46064 32.8156 8.26547C32.9008 8.07031 33.0236 7.89384 33.1771 7.74616C33.3305 7.59848 33.5115 7.48247 33.7098 7.40476C33.9081 7.32706 34.1197 7.28917 34.3326 7.29328C34.5528 7.28897 34.7715 7.32949 34.9755 7.41236C35.1795 7.49524 35.3645 7.61874 35.5192 7.77537C35.674 7.93199 35.7953 8.11845 35.8757 8.32342C35.9562 8.52839 35.994 8.74758 35.9871 8.96765Z" fill="white"/>
</svg>
