<svg width="72" height="100" viewBox="0 0 72 100" fill="none" xmlns="http://www.w3.org/2000/svg">
<g clip-path="url(#clip0_993_2565)">
<path d="M35.974 48.5716C35.6809 48.5733 35.3898 48.5206 35.1155 48.4163C31.5396 47.0195 28.7897 44.2913 26.7081 40.0806C26.1989 39.2022 25.9554 38.1928 26.0075 37.1767C25.9937 37.1497 25.976 37.1249 25.9549 37.1032C24.403 35.1688 23.1509 33.0082 22.2414 30.6952C22.1456 30.4987 22.0303 30.3126 21.8971 30.1397C21.6392 29.8084 21.4306 29.4411 21.2776 29.0493C20.7876 27.6484 20.1679 25.7819 19.686 23.8746C19.587 23.3306 19.6176 22.7707 19.7752 22.2409C19.8188 22.0687 19.8526 21.8943 19.8764 21.7182C19.8947 21.5649 19.8947 21.4099 19.8764 21.2567C19.2689 19.1002 18.5682 15.8493 19.5118 12.5289C20.4837 9.11041 21.8567 5.27947 25.8416 3.13529C29.3244 1.24433 31.827 0.615329 36.1318 0.545898H36.1522C38.25 0.545898 41.0118 0.705125 43.5956 1.91812L44.0411 2.12642C45.9485 3.01268 47.9206 3.92753 49.3259 5.80216C49.9814 6.63801 50.5259 7.5566 50.9458 8.53454L50.9661 8.57532C51.6728 10.1925 52.2365 11.8694 52.6507 13.5866C53.246 16.4455 52.675 19.1534 52.1081 21.2077C52.1081 21.2077 52.1324 21.371 52.1486 21.469C52.1648 21.5671 52.1892 21.7754 52.1973 21.9224C52.2054 22.0695 52.2295 22.2899 52.2538 22.4737C52.3552 23.045 52.3552 23.63 52.2538 24.2013C52.2052 24.3974 52.1607 24.6097 52.1162 24.7976C51.8733 26.1424 51.4468 27.4468 50.8487 28.6734C50.4072 29.4903 49.9981 30.348 49.5972 31.1812C48.6171 33.2233 47.6048 35.3511 45.989 37.1562C46.1186 38.6919 45.434 39.9008 44.8306 40.9709L44.7213 41.1628C42.66 44.8386 40.0804 47.2115 36.8285 48.4408C36.5539 48.5365 36.2644 48.5808 35.974 48.5716ZM36.1684 2.55936C32.1916 2.62471 30.0046 3.17198 26.8094 4.90366C23.845 6.51282 22.5693 9.2247 21.4678 13.072C20.8523 15.2407 20.9657 17.585 21.8364 20.6726C21.9331 21.0737 21.9509 21.4899 21.889 21.8979C21.8572 22.1538 21.8099 22.4074 21.7472 22.6575C21.6818 22.8831 21.6478 23.1168 21.646 23.3519C22.1077 25.1897 22.7151 26.9868 23.189 28.3468C23.2822 28.5527 23.4006 28.7462 23.5413 28.9226C23.7705 29.224 23.9635 29.5516 24.1164 29.8987C24.9496 32.0218 26.098 34.0049 27.5222 35.7799C27.8823 36.1964 28.0643 36.7397 28.0284 37.2911C27.9515 37.8628 28.1418 38.3815 28.5184 39.1412C30.3894 42.9313 32.718 45.2674 35.8485 46.4927C35.9323 46.5131 36.0197 46.5131 36.1036 46.4927C38.9384 45.4226 41.101 43.3969 42.9436 40.1214L43.053 39.9253C43.5997 38.9615 44.0693 38.1283 43.9438 37.1726C43.9273 36.9149 43.9643 36.6566 44.0521 36.414C44.14 36.1714 44.2769 35.9499 44.4541 35.7636C45.8837 34.1749 46.7947 32.2716 47.7586 30.2541C48.1636 29.4005 48.593 28.5142 49.0587 27.6565C49.561 26.5919 49.9192 25.4642 50.1238 24.3034C50.1723 24.0992 50.2169 23.895 50.2655 23.6949C50.3074 23.3551 50.2977 23.0108 50.2371 22.6738C50.2087 22.4492 50.1845 22.2205 50.1724 21.9959C50.1724 21.9101 50.1521 21.8243 50.14 21.7386C50.0611 21.3712 50.0611 20.991 50.14 20.6236C50.8892 17.9035 51.0471 15.8533 50.6543 13.9746C50.2618 12.3764 49.7319 10.8159 49.0708 9.31049V9.26562C48.7169 8.45366 48.2639 7.68942 47.7222 6.99071C46.6247 5.51633 44.9683 4.74852 43.2108 3.93577L42.7613 3.72339C40.5177 2.68193 38.0596 2.55936 36.1684 2.55936Z" fill="white"/>
<path d="M59.2439 75.789V73.024C59.2155 69.4667 56.9193 67.1632 53.392 67.1632H49.901L49.8202 66.2321C49.5893 63.5937 48.5122 61.6129 46.5278 60.1793C44.6123 58.7948 42.3404 58.8398 39.9308 58.8847L38.6591 58.9091L38.3148 57.4756C38.1529 56.7894 37.9909 56.1237 37.8411 55.4335C37.7759 55.0928 37.8229 54.7401 37.9747 54.4288C38.3797 53.5262 38.7847 52.6236 39.214 51.6843L40.1495 49.6136L41.1821 50.6305C42.1536 51.6325 43.027 52.7267 43.7901 53.8978V53.8734C44.1424 52.0682 44.4785 50.361 44.7782 48.6375C45.0779 46.914 45.3574 45.1619 45.6449 43.3281C45.7664 42.533 45.8932 41.7285 46.0255 40.9144L46.3455 38.9131L47.7467 40.3671C50.0145 42.7114 52.906 43.8386 55.9636 45.0311L56.6155 45.2844C57.3323 45.5662 58.0815 45.8276 58.8023 46.1012C59.6528 46.3994 60.5316 46.7056 61.3902 47.0528C64.9134 48.4863 66.7682 51.4556 67.9872 53.8857C69.9084 57.6161 71.2249 61.6326 71.887 65.7828C72.1892 67.4617 71.9029 69.1944 71.0771 70.6838C70.7027 71.3426 70.1254 71.8603 69.4328 72.1582C67.2743 72.975 65.1199 73.7223 62.8439 74.5228L60.5721 75.3397L59.2439 75.789ZM51.7195 65.1211H53.392C58.037 65.1211 61.1877 68.2496 61.2687 72.9096L62.1961 72.5829C64.464 71.766 66.6062 71.0309 68.7485 70.2304C68.9984 70.0993 69.2053 69.8979 69.3439 69.6505C69.9286 68.5612 70.1218 67.3015 69.8906 66.085C69.2599 62.1483 68.0088 58.3387 66.185 54.8005C64.5894 51.623 62.9452 49.8709 60.6409 48.9397C59.831 48.6089 58.9726 48.3108 58.1464 48.0249C57.4053 47.7635 56.6358 47.498 55.8866 47.208L55.2387 46.9548C52.6671 45.9542 50.0227 44.9127 47.7346 43.1075C47.7063 43.2954 47.6778 43.4833 47.6454 43.6671C47.3619 45.505 47.0906 47.2366 46.7787 49.005C46.4669 50.7735 46.1349 52.4644 45.7786 54.2818C45.6193 55.0987 45.4599 55.9155 45.3006 56.7323L45.1954 57.2836C46.0952 57.5455 46.9441 57.9598 47.7061 58.5089C48.7842 59.2789 49.695 60.263 50.3823 61.4008C51.0697 62.5385 51.5191 63.8059 51.7033 65.1252L51.7195 65.1211ZM41.2307 56.8262C41.9366 56.8201 42.6422 56.8528 43.3446 56.9243L43.2069 56.7119C42.4553 55.4989 41.6374 54.329 40.7569 53.2076L39.8618 55.2008C39.9833 55.744 40.1129 56.2831 40.2466 56.8344C40.5706 56.8317 40.8987 56.8303 41.2307 56.8303V56.8262Z" fill="white"/>
<path d="M12.7317 75.5725L11.4318 75.1846L9.81191 74.7108C8.57675 74.3474 7.40644 74.0042 6.23202 73.6203C5.59621 73.412 4.98063 73.167 4.38532 72.9301C3.86291 72.7177 3.37289 72.5217 2.86668 72.3502C2.24768 72.1278 1.69308 71.7539 1.25272 71.262C0.812368 70.7702 0.500055 70.1757 0.34371 69.5321C-0.283997 67.5431 0.0318414 65.6522 0.404416 63.8797C1.32858 59.6262 2.92714 55.5509 5.13852 51.8109C6.96899 48.6825 9.82815 47.2857 12.3835 46.33C15.5747 45.1375 18.3892 43.9734 20.9931 42.7726C21.8021 42.3587 22.5651 41.859 23.2691 41.282C23.6174 41.0206 23.9778 40.747 24.3423 40.4978L25.6341 39.6074L28.1571 53.9837L31.6359 49.2624L32.7617 51.7496C33.2031 52.7298 33.6121 53.6284 34.009 54.535C34.1511 54.8761 34.1794 55.2546 34.0899 55.6133C33.9562 56.2137 33.8106 56.8141 33.6608 57.443L33.3124 58.8847H29.773C27.8829 58.8525 26.0507 59.5436 24.6456 60.819C23.2405 62.0944 22.3666 63.8592 22.1999 65.7583L22.0501 67.1632H20.2277C19.5595 67.1632 18.8872 67.1632 18.2028 67.1632C17.2656 67.1508 16.3415 67.3855 15.5219 67.844C14.7022 68.3024 14.0155 68.9688 13.5296 69.7772C12.9786 70.6586 12.6969 71.6841 12.7197 72.7259C12.7197 73.0159 12.7197 73.3099 12.7197 73.6448L12.7317 75.5725ZM24.2086 43.1321C23.4767 43.7139 22.6852 44.2149 21.8476 44.6269C19.1991 45.8521 16.336 47.0325 13.0962 48.2455C10.8769 49.0623 8.40253 50.2876 6.89603 52.8483C4.79475 56.3994 3.27553 60.2691 2.39685 64.3084C2.06477 65.8726 1.80972 67.4001 2.28354 68.9153C2.55892 69.7812 2.90714 70.2019 3.53484 70.4184C4.0856 70.6063 4.62422 70.8268 5.15473 71.031C5.75004 71.2679 6.30881 71.4884 6.87982 71.6762C8.02994 72.052 9.18004 72.391 10.399 72.7504L10.7189 72.8444V72.7014C10.7012 71.2666 11.1043 69.8586 11.8773 68.654C12.5424 67.5674 13.4736 66.6719 14.5816 66.0538C15.6896 65.4358 16.9367 65.1159 18.2028 65.1252C18.8913 65.1252 19.5757 65.1252 20.2601 65.1252C20.4903 63.3426 21.2189 61.6628 22.3605 60.2822C23.5022 58.9016 25.0097 57.8772 26.7072 57.3286L24.2086 43.1321ZM31.2309 53.2567L28.5296 56.9325C28.945 56.8838 29.3629 56.8578 29.7811 56.8548H31.733C31.8666 56.3035 31.9922 55.7725 32.1137 55.2212L31.2309 53.2567Z" fill="white"/>
<path d="M37.371 99.5172H18.4466C16.6202 99.5172 15.4378 98.4349 15.4297 96.7645C15.4297 92.7906 15.4297 88.8902 15.4297 84.7652V78.108L17.1103 79.5947C19.1518 81.4169 21.4906 82.8691 24.0231 83.8871C26.5471 84.8792 29.1856 85.5447 31.8756 85.8679L32.4263 85.9415L32.6895 86.5009C32.7785 86.6618 32.8324 86.8401 32.8474 87.0237C32.9365 88.4858 32.9366 88.4859 34.3904 88.4859H37.9703C38.9382 88.4859 39.1043 88.3266 39.1407 87.3586C39.1407 87.2443 39.1407 87.1258 39.169 86.991L39.254 85.9863L40.064 85.8801C46.2641 85.0633 50.974 83.0744 54.886 79.5947L56.5707 78.0957V91.794C56.5707 93.3501 56.5707 94.9062 56.5707 96.4623C56.5707 98.4063 55.461 99.5213 53.5455 99.5213L37.371 99.5172ZM17.4423 82.4984V84.7733C17.4423 88.8983 17.4423 92.7947 17.4423 96.7604C17.4423 97.0299 17.4424 97.4833 18.4345 97.4833H53.5172C54.3272 97.4833 54.5176 97.2832 54.5176 96.4582C54.5176 94.9062 54.5176 93.3541 54.5176 91.7981V82.5066C50.8202 85.2879 46.495 86.9992 41.1088 87.7956C40.9307 89.6375 39.8939 90.532 37.946 90.532H34.3621C32.0457 90.532 31.1223 89.8499 30.855 87.7956C28.2475 87.4307 25.6921 86.7562 23.2416 85.7862C21.1745 84.9502 19.2248 83.8449 17.4423 82.4984Z" fill="white"/>
<path d="M39.7678 84.6061L39.4277 83.7892C39.3265 83.5483 39.2495 83.3154 39.1766 83.103C39.1235 82.9087 39.0488 82.721 38.9539 82.5436C38.7229 82.3553 38.4403 82.2427 38.144 82.2209C37.1883 82.1637 36.1961 82.1759 35.2404 82.1841C34.8597 82.1841 34.4789 82.1841 34.0982 82.1841C33.0656 82.1841 32.9441 82.225 32.7619 83.4339L32.6039 84.4631L31.5875 84.2875C31.3405 84.2426 31.0934 84.2058 30.8464 84.1649C30.2997 84.0751 29.7287 83.9853 29.1658 83.8627C24.7111 82.8825 21.1716 81.1835 18.3854 78.6759C17.9318 78.2523 17.5031 77.8022 17.1017 77.3281L16.7736 76.9605C16.245 76.3876 15.8469 75.7052 15.6069 74.9609C15.367 74.2167 15.291 73.4286 15.3845 72.6517C15.5586 70.92 16.644 69.8786 18.2841 69.8663C20.2483 69.8459 22.5606 69.8295 24.877 69.8663C24.8365 68.8943 24.8527 67.9222 24.877 66.9788V66.5499C24.9256 63.5399 26.902 61.5918 29.8907 61.5918H42.06C45.073 61.5918 47.0331 63.5522 47.0534 66.5785C47.0534 67.5383 47.0534 68.5022 47.0534 69.4906V69.8581H48.8352C50.3903 69.8581 51.9454 69.8581 53.5005 69.8581C54.76 69.8581 56.3111 70.3768 56.5582 72.8069C56.7566 74.7877 55.821 76.1804 54.9867 77.1728C52.8039 79.7703 49.9165 81.6409 46.1624 82.8906C44.8584 83.3236 43.5342 83.6463 42.2505 83.9526C41.6916 84.0914 41.1367 84.2221 40.594 84.361L39.7678 84.6061ZM36.4229 80.1379C37.0384 80.1379 37.662 80.138 38.2816 80.187C39.0571 80.2468 39.7902 80.5675 40.3632 81.0977C40.6611 81.4083 40.8805 81.7865 41.0031 82.2004L41.8131 82.0044C43.0563 81.7063 44.34 81.3959 45.563 80.9875C48.9567 79.8561 51.5446 78.1857 53.4803 75.8864C54.3591 74.8408 54.675 74.0199 54.5778 73.0274C54.4806 72.035 54.1727 71.9166 53.5288 71.9166C51.9777 71.9166 50.4268 71.9166 48.8758 71.9166H45.0649V69.5069C45.0649 68.5186 45.0649 67.5629 45.0649 66.6112C45.0649 64.7039 43.9958 63.6502 42.0964 63.6502H29.9473C28.0479 63.6502 26.983 64.6998 26.9547 66.599V67.0319C26.9547 68.008 26.9182 69.0168 26.9547 69.9889C26.9845 70.2463 26.9614 70.5072 26.8868 70.7552C26.8123 71.0033 26.6878 71.2332 26.5212 71.4306C26.3222 71.6131 26.0875 71.7517 25.8323 71.8375C25.5771 71.9233 25.307 71.9544 25.0392 71.9288C22.6944 71.8921 20.3414 71.9084 18.3449 71.9288C17.9399 71.9288 17.5349 72.0064 17.4418 72.8804C17.3755 73.3725 17.4201 73.8734 17.5723 74.3457C17.7244 74.8181 17.9802 75.2498 18.3205 75.6087L18.6608 75.9925C19.0108 76.4072 19.3838 76.8012 19.7785 77.1728C22.2974 79.4395 25.521 80.9834 29.6396 81.886C30.0932 81.9881 30.5507 82.0616 31.0327 82.1392C31.4903 80.7343 32.4299 80.1625 34.1429 80.1625H35.2605C35.6291 80.1461 36.0219 80.1379 36.4229 80.1379ZM42.3151 71.8634H29.6558V66.3948H42.3151V71.8634ZM31.6807 69.8213H40.2903V68.4369H31.6807V69.8213Z" fill="white"/>
</g>
<defs>
<clipPath id="clip0_993_2565">
<rect width="72" height="99" fill="white" transform="translate(0 0.517578)"/>
</clipPath>
</defs>
</svg>
