<svg width="70" height="86" viewBox="0 0 70 86" fill="none" xmlns="http://www.w3.org/2000/svg">
<path d="M69.8741 38.639C69.8741 40.0638 69.8741 41.4886 69.8741 42.9113C69.8741 44.5946 69.3785 45.0924 67.7379 45.1052C66.422 45.1159 65.0997 45.0582 63.7903 45.15C63.3374 45.1842 62.7222 45.4833 62.5342 45.8443C62.3911 46.1199 62.7008 46.7778 62.9892 47.1046C63.8437 48.0595 64.79 48.9268 65.6786 49.8475C66.501 50.702 66.5331 51.5265 65.7 52.3746C63.4812 54.6332 61.2404 56.8705 58.9774 59.0864C58.0931 59.9409 57.2813 59.9046 56.3692 59.0138C55.1195 57.7962 53.9275 56.5209 52.648 55.3396C52.2827 55.0042 51.5008 54.6197 51.2466 54.782C50.8514 55.0341 50.5673 55.7305 50.546 56.2496C50.4648 58.1722 50.5204 60.0947 50.5097 62.0173C50.5097 63.5916 50.0269 64.1064 48.4931 64.115C45.4028 64.1335 42.311 64.1335 39.2178 64.115C38.0387 64.115 37.4662 63.4741 37.4491 62.1924C37.4235 60.1289 37.4705 58.0653 37.4085 55.9975C37.3957 55.5703 37.1116 54.8846 36.8211 54.8077C36.4237 54.7009 35.7893 54.9401 35.4561 55.2477C34.1466 56.4525 32.9247 57.7492 31.6537 58.9924C30.6732 59.9516 29.8571 59.9559 28.8766 58.9924C26.7006 56.8392 24.5352 54.6759 22.3805 52.5027C21.4278 51.5436 21.447 50.6998 22.404 49.7257C23.2777 48.8413 24.2048 48.0018 25.0251 47.0683C25.305 46.7479 25.5485 46.1156 25.4139 45.7866C25.2793 45.4576 24.662 45.1735 24.239 45.1458C22.9274 45.0646 21.6072 45.1308 20.2892 45.1073C19.0545 45.086 18.4543 44.5028 18.4457 43.2574C18.4243 40.1599 18.4243 37.0632 18.4457 33.9672C18.4457 32.6534 19.0289 32.0724 20.3469 32.0553C22.3741 32.0297 24.4056 32.0873 26.4307 32.0168C26.9156 31.9998 27.6505 31.7178 27.7915 31.376C27.9325 31.0342 27.5779 30.3271 27.2489 29.9683C25.8369 28.4729 24.3522 27.031 22.8889 25.5763C21.7632 24.4591 21.729 23.6751 22.8142 22.5856C24.9162 20.4623 27.0267 18.3468 29.1458 16.2391C30.2139 15.171 30.9509 15.1859 32.0489 16.2668C33.1468 17.3477 34.185 18.4543 35.33 19.4711C35.7017 19.8065 36.3746 20.1568 36.7527 20.0308C37.0924 19.9176 37.3701 19.1763 37.3936 18.6829C37.4833 17.4011 37.4149 16.1194 37.4256 14.8377C37.4406 13.3168 37.9874 12.7379 39.4699 12.7293C42.4947 12.7165 45.5203 12.7165 48.5465 12.7293C49.8966 12.7293 50.4691 13.3189 50.499 14.6968C50.5225 15.9785 50.4349 17.2602 50.5289 18.5419C50.5673 19.0674 50.8279 19.7573 51.221 20.0116C51.4731 20.176 52.2506 19.7979 52.6181 19.4583C53.7545 18.4372 54.8098 17.3221 55.895 16.254C56.9801 15.1859 57.7833 15.1859 58.813 16.222C60.8765 18.2884 62.9415 20.3533 65.0079 22.4169C66.2469 23.6495 66.2554 24.3864 65.0079 25.6489C63.551 27.1143 62.0599 28.5434 60.6458 30.0452C60.3275 30.3827 60.0263 31.0492 60.1545 31.4016C60.2827 31.7541 60.9748 32.0254 61.4362 32.0425C63.4976 32.1087 65.5633 32.066 67.6311 32.0681C69.34 32.0681 69.8762 32.5957 69.8805 34.2919C69.8783 35.721 69.8741 37.18 69.8741 38.639ZM57.1852 19.375C56.3072 20.3106 55.457 21.3189 54.5 22.2097C53.1585 23.4593 51.5649 23.7819 49.856 23.0471C48.1471 22.3122 47.3374 20.9258 47.2926 19.0909C47.2691 18.309 47.3481 17.5186 47.2691 16.7411C47.2413 16.4612 46.8974 15.9955 46.6838 15.9891C44.7377 15.9315 42.7895 15.955 40.679 15.955V19.2575C40.6855 19.8474 40.5603 20.4312 40.3128 20.9667C40.0652 21.5021 39.7014 21.9756 39.2478 22.3528C37.5388 23.8481 35.1271 23.8118 33.448 22.1755C32.5188 21.2698 31.7028 20.2529 30.8846 19.3387L26.0654 24.1066C26.3047 24.3587 26.5375 24.6193 26.7853 24.8671C27.8876 25.9779 29.0219 27.0588 30.0921 28.2016C31.2734 29.4641 31.5127 30.9787 30.9039 32.5658C30.2951 34.153 29.0753 35.1057 27.36 35.2425C26.1231 35.3407 24.8713 35.2873 23.6259 35.298C23.0022 35.298 22.3763 35.298 21.7311 35.298V41.886C22.6924 41.886 23.5383 41.886 24.3843 41.886C26.2705 41.8988 27.6889 42.6913 28.443 44.4494C29.1971 46.2074 28.8296 47.8032 27.5244 49.149C26.9135 49.7898 26.1936 50.3132 25.6275 50.8024L30.5728 55.8394C31.5917 54.7137 32.5103 53.4533 33.6788 52.4942C34.4755 51.8662 35.4436 51.4939 36.4558 51.4261C38.8056 51.315 40.6192 53.212 40.6512 55.5959C40.6747 57.3219 40.6512 59.048 40.6512 60.8616C42.7767 60.8616 44.7228 60.8851 46.6667 60.8274C46.8803 60.8274 47.2328 60.351 47.2435 60.084C47.299 58.6656 47.2712 57.2408 47.2648 55.8117C47.2499 52.868 49.6744 50.8194 52.5219 51.5543C53.4512 51.7935 54.312 52.5134 55.0661 53.1735C55.9612 53.9575 56.7067 54.9166 57.465 55.7369L62.3782 50.8899C61.7652 50.3516 61.1329 49.8347 60.5454 49.2729C59.2787 48.0616 58.8365 46.5962 59.3491 44.9001C60.022 42.6699 61.9467 41.8902 63.5147 41.8689C64.3328 41.8689 65.1531 41.8924 65.967 41.8283C66.1977 41.8091 66.5908 41.5164 66.595 41.3434C66.6399 39.3653 66.6249 37.3851 66.6249 35.2617C64.7472 35.2617 63.0063 35.33 61.2845 35.2318C60.43 35.1827 59.4752 35.0182 58.7596 34.5781C56.4098 33.1576 56.068 30.0494 57.997 28.0564C59.3022 26.7085 60.6864 25.4374 61.9382 24.2262L57.1852 19.375Z" fill="white"/>
<path d="M3.44442 68.7764H4.90343H43.5682C43.8544 68.7764 44.1385 68.7764 44.4226 68.7764C45.621 68.8041 46.3601 69.4471 46.3452 70.4447C46.3452 71.3953 45.6317 71.9956 44.444 71.9998C39.4254 72.0112 34.4068 72.0112 29.3882 71.9998C21.1277 71.9998 12.8671 72.0169 4.60864 71.9764C3.60891 71.9764 3.32693 72.2626 3.35897 73.2346C3.42946 75.0482 3.35897 76.8661 3.38674 78.6818C3.42092 80.8714 4.91624 82.3902 7.09514 82.3923C17.8828 82.4094 28.6698 82.4094 39.456 82.3923C41.4042 82.3923 42.8739 81.0166 43.0875 79.0279C43.1751 78.2183 43.4122 77.5603 44.2218 77.2634C45.3647 76.8362 46.4221 77.7889 46.358 79.1454C46.1828 82.638 43.267 85.5731 39.7529 85.6009C32.8467 85.6564 25.9383 85.618 19.0321 85.618C15.1165 85.618 11.2009 85.6329 7.28312 85.618C3.01077 85.5987 0.139757 82.6978 0.139757 78.4084C0.139757 61.2464 0.139757 44.0858 0.139757 26.9266C0.139757 20.595 0.135498 14.2627 0.126953 7.92962C0.126953 3.85167 3.14109 0.841797 7.2105 0.841797C17.9255 0.841797 28.6406 0.841797 39.3556 0.841797C43.0469 0.841797 45.9009 3.4052 46.3238 7.0367C46.4712 8.29918 45.9286 9.17287 44.9204 9.27968C43.9121 9.38649 43.2605 8.72855 43.0918 7.50025C42.7885 5.28931 41.4277 4.06528 39.2104 4.06315C28.6335 4.06315 18.0587 4.06315 7.48606 4.06315C4.77953 4.06315 3.40169 5.44952 3.39956 8.15178C3.39956 28.0509 3.39956 47.9487 3.39956 67.845C3.38888 68.1056 3.41665 68.3513 3.44442 68.7764Z" fill="white"/>
<path d="M23.8919 79.0577C23.0374 79.0577 22.183 79.0876 21.3434 79.0577C20.4292 79.0171 19.9143 78.4916 19.8374 77.5858C19.7605 76.6801 20.2903 75.9453 21.2302 75.9025C23.031 75.8214 24.8446 75.8064 26.6454 75.9025C27.5148 75.9474 28.0233 76.6246 27.9955 77.5218C27.9677 78.419 27.4679 78.9957 26.5472 79.0491C25.6649 79.1004 24.7784 79.0491 23.894 79.0491L23.8919 79.0577Z" fill="white"/>
<path d="M11.446 11.4875C10.6684 11.4875 9.88872 11.4746 9.10902 11.4875C8.23746 11.5067 7.65429 11.1008 7.49194 10.2677C7.31677 9.37051 7.77819 8.55876 8.61557 8.49681C10.5871 8.3423 12.5666 8.31804 14.5413 8.42418C15.3061 8.46263 15.6927 9.23593 15.6243 10.0284C15.5517 10.8616 15.0818 11.4405 14.2123 11.496C13.2938 11.5537 12.3688 11.5088 11.4353 11.5088L11.446 11.4875Z" fill="white"/>
<path d="M51.5437 38.399C51.5437 42.4577 48.2562 45.803 44.2615 45.8051C40.175 45.8051 36.7977 42.5603 36.7678 38.5998C36.7358 34.3937 40.0041 31.0356 44.1141 31.0463C45.0861 31.0361 46.0505 31.2188 46.9515 31.5838C47.8525 31.9487 48.6721 32.4887 49.363 33.1725C50.054 33.8563 50.6025 34.6702 50.9768 35.5674C51.3511 36.4645 51.5438 37.4269 51.5437 38.399ZM48.301 38.4652C48.3086 37.9215 48.2087 37.3815 48.007 36.8765C47.8053 36.3715 47.5057 35.9113 47.1256 35.5224C46.7454 35.1336 46.2922 34.8236 45.7919 34.6105C45.2915 34.3974 44.754 34.2852 44.2102 34.2805C43.1119 34.2712 42.0543 34.6953 41.2665 35.4606C40.4788 36.226 40.0244 37.271 40.002 38.3691C39.9952 39.4673 40.4243 40.5234 41.1952 41.3055C41.9662 42.0877 43.0159 42.532 44.1141 42.541C44.6582 42.5541 45.1994 42.4585 45.706 42.2597C46.2126 42.0609 46.6744 41.7629 47.0644 41.3833C47.4543 41.0037 47.7646 40.55 47.9769 40.049C48.1893 39.5479 48.2995 39.0094 48.301 38.4652Z" fill="white"/>
</svg>
