<svg width="104" height="90" viewBox="0 0 104 90" fill="none" xmlns="http://www.w3.org/2000/svg">
<path d="M80.4274 89.9182H80.2058C74.0372 89.9064 68.1189 87.4777 63.7204 83.1528C59.3219 78.8279 56.7937 72.9515 56.6779 66.7839C56.62 63.6538 57.1873 60.5434 58.3467 57.6353C59.5062 54.7272 61.2347 52.0798 63.4303 49.8481C65.6139 47.6079 68.2218 45.8254 71.1022 44.6048C73.9826 43.3842 77.0774 42.75 80.2058 42.7393H80.3781C83.4656 42.7441 86.5216 43.3605 89.3694 44.5532C92.2172 45.7459 94.8005 47.4912 96.9698 49.6881C99.1745 51.8574 100.922 54.4466 102.109 57.3026C103.296 60.1586 103.899 63.2235 103.881 66.3164C103.884 69.4704 103.256 72.5932 102.035 75.5014C100.815 78.4096 99.0256 81.0447 96.7728 83.2522C92.4106 87.5337 86.5396 89.9279 80.4274 89.9182ZM80.3169 86.8065C83.0134 86.8279 85.687 86.3114 88.1815 85.2871C90.6761 84.2628 92.9411 82.7516 94.8445 80.8414C96.7479 78.9311 98.2516 76.6604 99.2669 74.1622C100.282 71.6639 100.789 68.9883 100.757 66.2918C100.771 63.6118 100.247 60.9562 99.2164 58.4824C98.1855 56.0086 96.6685 53.7668 94.7556 51.8897C92.8581 49.9639 90.5942 48.4375 88.0974 47.4003C85.6007 46.3632 82.9219 45.8365 80.2184 45.851C77.5023 45.8563 74.8147 46.4027 72.3123 47.4586C69.8099 48.5145 67.5428 50.0586 65.6439 52.0005C63.7308 53.9447 62.2261 56.2521 61.2185 58.7869C60.211 61.3216 59.7209 64.0323 59.7772 66.7593C59.8741 72.1292 62.0806 77.245 65.9195 81.0011C69.7584 84.7571 74.9215 86.8514 80.2922 86.8311L80.3169 86.8065Z" fill="white"/>
<path d="M35.7009 27.3021C35.811 27.4098 35.9376 27.4997 36.0761 27.5681C36.2649 27.6612 36.4717 27.7123 36.6826 27.718L35.7009 27.3021ZM35.7009 27.3021C35.6644 27.1508 35.6522 26.9942 35.6652 26.8385C35.6825 26.631 35.7435 26.4304 35.8441 26.2497C40.6589 18.438 45.5151 10.6591 50.4117 2.91291C50.9877 2.02766 51.3389 1.96156 51.4097 1.96192C51.4879 1.96231 51.8414 2.04077 52.4174 2.91262L66.7879 26.0114L66.7879 26.0115L66.7928 26.0192C67.0372 26.404 67.1894 26.6943 67.2428 26.9298C67.2663 27.0332 67.2631 27.0974 67.2551 27.137C67.2498 27.1633 67.2383 27.2005 67.2037 27.2511C66.8226 27.5697 66.3451 27.752 65.847 27.7674L65.847 27.7673L65.8337 27.7679C64.3969 27.8318 62.9729 27.8113 61.4711 27.7898C60.6862 27.7785 59.88 27.7669 59.0397 27.7669H58.0397V28.7669V35.2855V35.309V35.3326V35.3562V35.3797V35.4033V35.4269V35.4504V35.474V35.4976V35.5211V35.5447V35.5683V35.5919V35.6154V35.639V35.6626V35.6861V35.7097V35.7333V35.7568V35.7804V35.804V35.8276V35.8511V35.8747V35.8983V35.9218V35.9454V35.969V35.9926V36.0161V36.0397V36.0633V36.0869V36.1104V36.134V36.1576V36.1811V36.2047V36.2283V36.2519V36.2755V36.299V36.3226V36.3462V36.3698V36.3933V36.4169V36.4405V36.4641V36.4876V36.5112V36.5348V36.5584V36.582V36.6055V36.6291V36.6527V36.6763V36.6999V36.7234V36.747V36.7706V36.7942V36.8178V36.8413V36.8649V36.8885V36.9121V36.9357V36.9593V36.9828V37.0064V37.03V37.0536V37.0772V37.1007V37.1243V37.1479V37.1715V37.1951V37.2187V37.2423V37.2658V37.2894V37.313V37.3366V37.3602V37.3838V37.4074V37.4309V37.4545V37.4781V37.5017V37.5253V37.5489V37.5725V37.5961V37.6196V37.6432V37.6668V37.6904V37.714V37.7376V37.7612V37.7848V37.8083V37.8319V37.8555V37.8791V37.9027V37.9263V37.9499V37.9735V37.9971V38.0207V38.0442V38.0678V38.0914V38.115V38.1386V38.1622V38.1858V38.2094V38.233V38.2566V38.2802V38.3038V38.3273V38.3509V38.3745V38.3981V38.4217V38.4453V38.4689V38.4925V38.5161V38.5397V38.5633V38.5869V38.6105V38.6341V38.6577V38.6812V38.7048V38.7284V38.752V38.7756V38.7992V38.8228V38.8464V38.87V38.8936V38.9172V38.9408V38.9644V38.988V39.0116V39.0352V39.0588V39.0824V39.106V39.1296V39.1532V39.1768V39.2004V39.2239V39.2475V39.2711V39.2947V39.3183V39.3419V39.3655V39.3891V39.4127V39.4363V39.4599V39.4835V39.5071V39.5307V39.5543V39.5779V39.6015V39.6251V39.6487V39.6723V39.6959V39.7195V39.7431V39.7667V39.7903V39.8139V39.8375V39.8611V39.8847V39.9083V39.9319V39.9555V39.9791V40.0027V40.0263V40.0499V40.0735V40.0971V40.1207V40.1443V40.1679V40.1915V40.2151V40.2387V40.2623V40.2859V40.3095V40.3331V40.3567V40.3803V40.4039V40.4275V40.4511V40.4747V40.4983V40.5219V40.5455V40.5691V40.5927V40.6163V40.6399V40.6635V40.6871V40.7107V40.7343V40.7579V40.7815V40.8051V40.8287V40.8523V40.8759V40.8995V40.9231V40.9467V40.9703V40.9939V41.0175V41.0411V41.0647V41.0883V41.1119V41.1355V41.1591V41.1827V41.2063V41.2299V41.2535V41.2771V41.3007V41.3243V41.3479V41.3716V41.3952V41.4188V41.4424V41.466V41.4896V41.5132V41.5368V41.5604V41.584V41.6076V41.6312V41.6548V41.6784V41.702V41.7256V41.7492V41.7728V41.7964V41.82V41.8436V41.8672V41.8908V41.9144V41.938V41.9616V41.9852V42.0088V42.0324V42.056V42.0796V42.1032V42.1268V42.1504V42.174V42.1976V42.2212V42.2448V42.2684V42.292V42.3156V42.3392V42.3628V42.3864V42.41V42.4336V42.4572V42.4808V42.5044V42.528V42.5516V42.5752V42.5988V42.6224V42.646V42.6696V42.6932V42.7168V42.7404V42.764V42.7876V42.8112V42.8348V42.8584V42.882V42.9056V42.9292V42.9528V42.9764V43V43.0236V43.0472V43.0708V43.0944V43.118V43.1416V43.1652V43.1888V43.2124V43.236V43.2596V43.2832V43.3068V43.3304V43.354V43.3775V43.4011V43.4247V43.4483V43.4719V43.4955V43.5191V43.5427V43.5663V43.5899V43.6135V43.6371V43.6607V43.6843V43.7079V43.7315V43.7551V43.7787V43.8023V43.8259V43.8495V43.8731V43.8967V43.9203V43.9439V43.9674V43.991V44.0146V44.0382V44.0618V44.0854V44.109V44.1326V44.1562V44.1798V44.2034V44.227V44.2506V44.2742V44.2978V44.3214V44.3449V44.3685V44.3921V44.4157V44.4393V44.4629V44.4865V44.5101V44.5337V44.5573V44.5809V44.6045V44.628V44.6516V44.6752V44.6988V44.7224V44.746V44.7696V44.7932V44.8168V44.8403V44.8639V44.8875V44.9111V44.9347V44.9583V44.9819V45.0055V45.0291V45.0526V45.0762V45.0998V45.1234V45.147V45.1706V45.1942V45.2178V45.2413V45.2649V45.2885V45.3121V45.3357V45.3593V45.3829V45.4064V45.43V45.4536V45.4772V45.5008V45.5244V45.5479V45.5715V45.5951V45.6187V45.6423V45.6659V45.6894V45.713V45.7366V45.7602V45.7838V45.8074V45.8309V45.8545V45.8781V45.9017V45.9253V45.9488V45.9724V45.996V46.0196V46.0432V46.0667V46.0903V46.1139V46.1375V46.161V46.1846V46.2082V46.2318V46.2554V46.2789V46.3025V46.3261V46.3497V46.3732V46.3968V46.4204V46.444V46.4675V46.4911V46.5147V46.5383V46.5618V46.5854V46.609V46.6326V46.6561V46.6797V46.7033V46.7269V46.7504V46.774V46.7976V46.8211V46.8447V46.8683V46.8919V46.9154V46.939V46.9626V46.9861V47.0097V47.0333V47.0568V47.0804V47.104V47.1276V47.1511V47.1747V47.1983V47.2218V47.2454V47.269V47.2815C57.9882 47.5531 57.8604 47.8049 57.6705 48.0074L57.6481 48.0314L57.6272 48.0568C54.1786 52.2577 52.0146 57.3638 51.3937 62.7631C50.4188 70.2944 52.4659 77.9055 57.0879 83.9312C57.1193 83.9728 57.1504 84.0137 57.181 84.0541C57.3894 84.3289 57.5776 84.5771 57.7259 84.826C57.8078 84.9635 57.8609 85.0747 57.8911 85.1614C57.9109 85.2181 57.9165 85.2517 57.9181 85.2659C57.8869 85.4979 57.7691 85.7105 57.5874 85.8603C57.3973 86.017 57.1527 86.0921 56.9075 86.069L56.8606 86.0645H56.8135H56.7923H56.771H56.7497H56.7285H56.7072H56.686H56.6647H56.6434H56.6222H56.6009H56.5797H56.5584H56.5372H56.5159H56.4946H56.4734H56.4521H56.4309H56.4096H56.3883H56.3671H56.3458H56.3246H56.3033H56.282H56.2608H56.2395H56.2183H56.197H56.1758H56.1545H56.1332H56.112H56.0907H56.0695H56.0482H56.0269H56.0057H55.9844H55.9632H55.9419H55.9206H55.8994H55.8781H55.8569H55.8356H55.8144H55.7931H55.7718H55.7506H55.7293H55.7081H55.6868H55.6655H55.6443H55.623H55.6018H55.5805H55.5592H55.538H55.5167H55.4955H55.4742H55.453H55.4317H55.4104H55.3892H55.3679H55.3467H55.3254H55.3041H55.2829H55.2616H55.2404H55.2191H55.1979H55.1766H55.1553H55.1341H55.1128H55.0916H55.0703H55.049H55.0278H55.0065H54.9853H54.964H54.9428H54.9215H54.9002H54.879H54.8577H54.8365H54.8152H54.7939H54.7727H54.7514H54.7302H54.7089H54.6877H54.6664H54.6451H54.6239H54.6026H54.5814H54.5601H54.5389H54.5176H54.4963H54.4751H54.4538H54.4326H54.4113H54.39H54.3688H54.3475H54.3263H54.305H54.2838H54.2625H54.2412H54.22H54.1987H54.1775H54.1562H54.1349H54.1137H54.0924H54.0712H54.0499H54.0287H54.0074H53.9861H53.9649H53.9436H53.9224H53.9011H53.8799H53.8586H53.8373H53.8161H53.7948H53.7736H53.7523H53.731H53.7098H53.6885H53.6673H53.646H53.6248H53.6035H53.5822H53.561H53.5397H53.5185H53.4972H53.476H53.4547H53.4334H53.4122H53.3909H53.3697H53.3484H53.3271H53.3059H53.2846H53.2634H53.2421H53.2209H53.1996H53.1783H53.1571H53.1358H53.1146H53.0933H53.0721H53.0508H53.0295H53.0083H52.987H52.9658H52.9445H52.9232H52.902H52.8807H52.8595H52.8382H52.817H52.7957H52.7744H52.7532H52.7319H52.7107H52.6894H52.6682H52.6469H52.6256H52.6044H52.5831H52.5619H52.5406H52.5194H52.4981H52.4768H52.4556H52.4343H52.4131H52.3918H52.3705H52.3493H52.328H52.3068H52.2855H52.2643H52.243H52.2217H52.2005H52.1792H52.158H52.1367H52.1155H52.0942H52.0729H52.0517H52.0304H52.0092H51.9879H51.9667H51.9454H51.9241H51.9029H51.8816H51.8604H51.8391H51.8178H51.7966H51.7753H51.7541H51.7328H51.7116H51.6903H51.669H51.6478H51.6265H51.6053H51.584H51.5628H51.5415H51.5202H51.499H51.4777H51.4565H51.4352H51.4139H51.3927H51.3714H51.3502H51.3289H51.3077H51.2864H51.2651H51.2439H51.2226H51.2014H51.1801H51.1589H51.1376H51.1163H51.0951H51.0738H51.0526H51.0313H51.0101H50.9888H50.9675H50.9463H50.925H50.9038H50.8825H50.8612H50.84H50.8187H50.7975H50.7762H50.755H50.7337H50.7124H50.6912H50.6699H50.6487H50.6274H50.6062H50.5849H50.5636H50.5424H50.5211H50.4999H50.4786H50.4574H50.4361H50.4148H50.3936H50.3723H50.3511H50.3298H50.3085H50.2873H50.266H50.2448H50.2235H50.2023H50.181H50.1597H50.1385H50.1172H50.096H50.0747H50.0535H50.0322H50.0109H49.9897H49.9684H49.9472H49.9259H49.9047H49.8834H49.8621H49.8409H49.8196H49.7984H49.7771H49.7558H49.7346H49.7133H49.6921H49.6708H49.6496H49.6283H49.607H49.5858H49.5645H49.5433H49.522H49.5008H49.4795H49.4582H49.437H49.4157H49.3945H49.3732H49.3519H49.3307H49.3094H49.2882H49.2669H49.2457H49.2244H49.2031H49.1819H49.1606H49.1394H49.1181H49.0969H49.0756H49.0543H49.0331H49.0118H48.9906H48.9693H48.948H48.9268H48.9055H48.8843H48.863H48.8418H48.8205H48.7992H48.778H48.7567H48.7355H48.7142H48.693H48.6717H48.6504H48.6292H48.6079H48.5867H48.5654H48.5441H48.5229H48.5016H48.4804H48.4591H48.4379H48.4166H48.3953H48.3741H48.3528H48.3316H48.3103H48.2891H48.2678H48.2465H48.2253H48.204H48.1828H48.1615H48.1402H48.119H48.0977H48.0765H48.0552H48.034H48.0127H47.9914H47.9702H47.9489H47.9277H47.9064H47.8851H47.8639H47.8426H47.8214H47.8001H47.7789H47.7576H47.7363H47.7151H47.6938H47.6726H47.6513H47.63H47.6088H47.5875H47.5663H47.545H47.5238H47.5025H47.4812H47.46H47.4387H47.4175H47.3962H47.3749H47.3537H47.3324H47.3112H47.2899H47.2687H47.2474H47.2261H47.2049H47.1836H47.1624H47.1411H47.1198H47.0986H47.0773H47.0561H47.0348H47.0136H46.9923H46.971H46.9498H46.9285H46.9073H46.886H46.8647H46.8435H46.8222H46.801H46.7797H46.7584H46.7372H46.7159H46.6947H46.6734H46.6522H46.6309H46.6096H46.5884H46.5671H46.5459H46.5246H46.5033H46.4821H46.4608H46.4396H46.4183H46.397H46.3758H46.3545H46.3333H46.312H46.2908H46.2695H46.2482H46.227H46.2057H46.1845H46.1632H46.1419H46.1207H46.0994H46.0782H46.0569H46.0356H46.0144H45.9931H45.9719H45.9506H45.9294H45.9088L45.8882 86.0654C45.6145 86.0767 45.3464 85.9832 45.1389 85.8042C44.9318 85.6255 44.8004 85.3745 44.7714 85.1017L44.7697 85.0852L44.7674 85.0687C44.7031 84.6102 44.6771 84.1476 44.6901 83.6859L44.6905 83.6718V83.6577V29.7177V28.7177V28.6808H43.6905L35.7009 27.3021Z" stroke="white" stroke-width="2"/>
<path d="M36.2954 64.1267V83.8052C36.2954 85.1115 36.1058 85.5401 35.9319 85.7162C35.7625 85.8878 35.3519 86.0769 34.0729 86.0769H24.8606C23.933 86.0769 23.5229 85.8813 23.3248 85.6857C23.1297 85.4931 22.9336 85.0962 22.9336 84.1866V84.1078V84.029V83.9502V83.8714V83.7926V83.7138V83.635V83.5562V83.4774V83.3987V83.3199V83.2411V83.1623V83.0835V83.0047V82.9259V82.8471V82.7683V82.6896V82.6108V82.532V82.4532V82.3744V82.2956V82.2168V82.1381V82.0593V81.9805V81.9017V81.8229V81.7441V81.6653V81.5866V81.5078V81.429V81.3502V81.2714V81.1926V81.1139V81.0351V80.9563V80.8775V80.7987V80.7199V80.6412V80.5624V80.4836V80.4048V80.326V80.2472V80.1685V80.0897V80.0109V79.9321V79.8533V79.7746V79.6958V79.617V79.5382V79.4594V79.3807V79.3019V79.2231V79.1443V79.0655V78.9868V78.908V78.8292V78.7504V78.6717V78.5929V78.5141V78.4353V78.3565V78.2778V78.199V78.1202V78.0414V77.9627V77.8839V77.8051V77.7263V77.6476V77.5688V77.49V77.4112V77.3325V77.2537V77.1749V77.0961V77.0174V76.9386V76.8598V76.7811V76.7023V76.6235V76.5447V76.466V76.3872V76.3084V76.2296V76.1509V76.0721V75.9933V75.9146V75.8358V75.757V75.6782V75.5995V75.5207V75.4419V75.3632V75.2844V75.2056V75.1269V75.0481V74.9693V74.8905V74.8118V74.733V74.6542V74.5755V74.4967V74.4179V74.3392V74.2604V74.1816V74.1029V74.0241V73.9453V73.8666V73.7878V73.709V73.6303V73.5515V73.4727V73.394V73.3152V73.2365V73.1577V73.0789V73.0002V72.9214V72.8426V72.7639V72.6851V72.6063V72.5276V72.4488V72.37V72.2913V72.2125V72.1338V72.055V71.9762V71.8975V71.8187V71.74V71.6612V71.5824V71.5037V71.4249V71.3461V71.2674V71.1886V71.1099V71.0311V70.9524V70.8736V70.7948V70.7161V70.6373V70.5586V70.4798V70.401V70.3223V70.2435V70.1648V70.086V70.0073V69.9285V69.8497V69.771V69.6922V69.6135V69.5347V69.456V69.3772V69.2984V69.2197V69.1409V69.0622V68.9834V68.9047V68.8259V68.7472V68.6684V68.5897V68.5109V68.4321V68.3534V68.2746V68.1959V68.1171V68.0384V67.9596V67.8809V67.8021V67.7234V67.6446V67.5659V67.4871V67.4084V67.3296V67.2509V67.1721V67.0934V67.0146V66.9359V66.8571V66.7784V66.6996V66.6209V66.5421V66.4634V66.3846V66.3059V66.2271V66.1484V66.0696V65.9909V65.9121V65.8334V65.7546V65.6759V65.5972V65.5184V65.4397V65.3609V65.2822V65.2034V65.1247V65.0459V64.9672V64.8884V64.8097V64.731V64.6522V64.5735V64.4947V64.416V64.3372V64.2585V64.1797V64.101V64.0223V63.9435V63.8648V63.786V63.7073V63.6285V63.5498V63.4711V63.3923V63.3136V63.2348V63.1561V63.0774V62.9986V62.9199V62.8411V62.7624V62.6837V62.6049V62.5262V62.4474V62.3687V62.29V62.2112V62.1325V62.0538V61.975V61.8963V61.8175V61.7388V61.6601V61.5813V61.5026V61.4239V61.3451V61.2664V61.1876V61.1089V61.0302V60.9514V60.8727V60.794V60.7152V60.6365V60.5578V60.479V60.4003V60.3216V60.2428V60.1641V60.0854V60.0066V59.9279V59.8492V59.7704V59.6917V59.613V59.5342V59.4555V59.3768V59.298V59.2193V59.1406V59.0618V58.9831V58.9044V58.8256V58.7469V58.6682V58.5895V58.5107V58.432V58.3533V58.2745V58.1958V58.1171V58.0384V57.9596V57.8809V57.8022V57.7234V57.6447V57.566V57.4873V57.4085V57.3298V57.2511V57.1723V57.0936V57.0149V56.9362V56.8574V56.7787V56.7V56.6213V56.5425V56.4638V56.3851V56.3064V56.2276V56.1489V56.0702V55.9915V55.9128V55.834V55.7553V55.6766V55.5979V55.5191V55.4404V55.3617V55.283V55.2042V55.1255V55.0468V54.9681V54.8894V54.8106V54.7319V54.6532V54.5745V54.4958V54.417V54.3383V54.2596V54.1809V54.1022V54.0234V53.9447V53.866V53.7873V53.7086V53.6299V53.5511V53.4724V53.3937V53.315V53.2363V53.1575V53.0788V53.0001V52.9214V52.8427V52.764V52.6852V52.6065V52.5278V52.4491V52.3704V52.2917V52.213V52.1342V52.0555V51.9768V51.8981V51.8194V51.7407V51.662V51.5832V51.5045V51.4258V51.3471V51.2684V51.1897V51.111V51.0323V50.9535V50.8748V50.7961V50.7174V50.6387V50.56V50.4813V50.4026V50.3239V50.2452V50.1664V50.0877V50.009V49.9303V49.8516V49.7729V49.6942V49.6155V49.5368V49.4581V49.3794V49.3006V49.2219V49.1432V49.0645V48.9858V48.9071V48.8284V48.7497V48.671V48.5923V48.5136V48.4349V48.3562V48.2775V48.1988V48.1201V48.0413V47.9626V47.8839V47.8052V47.7265V47.6478V47.5691V47.4904V47.4117V47.333V47.2543V47.1756V47.0969V47.0182V46.9395V46.8608V46.7821V46.7034V46.6247V46.546V46.4673V46.3886V46.3099V46.2312V46.1525V46.0738V45.9951V45.9164V45.8377V45.759V45.6803V45.6016V45.5229V45.4442V45.3655V45.2868V45.2081V45.1294V45.0507V44.972V44.8933V44.8146V44.7359V44.6572V44.5785V44.4998V44.4211V44.3424V44.2637V44.1851V44.1064V44.0277V43.949V43.8703C22.9336 42.9507 23.1248 42.5638 23.3102 42.3796C23.4984 42.1926 23.898 41.9981 24.8391 41.9922H24.854H24.872H24.89H24.9081H24.9261H24.9441H24.9621H24.9801H24.9981H25.0162H25.0342H25.0522H25.0702H25.0882H25.1062H25.1243H25.1423H25.1603H25.1783H25.1963H25.2143H25.2324H25.2504H25.2684H25.2864H25.3044H25.3224H25.3405H25.3585H25.3765H25.3945H25.4125H25.4305H25.4485H25.4666H25.4846H25.5026H25.5206H25.5386H25.5566H25.5747H25.5927H25.6107H25.6287H25.6467H25.6647H25.6828H25.7008H25.7188H25.7368H25.7548H25.7728H25.7909H25.8089H25.8269H25.8449H25.8629H25.8809H25.8989H25.917H25.935H25.953H25.971H25.989H26.007H26.0251H26.0431H26.0611H26.0791H26.0971H26.1151H26.1331H26.1512H26.1692H26.1872H26.2052H26.2232H26.2412H26.2592H26.2773H26.2953H26.3133H26.3313H26.3493H26.3673H26.3854H26.4034H26.4214H26.4394H26.4574H26.4754H26.4934H26.5115H26.5295H26.5475H26.5655H26.5835H26.6015H26.6195H26.6376H26.6556H26.6736H26.6916H26.7096H26.7276H26.7456H26.7636H26.7817H26.7997H26.8177H26.8357H26.8537H26.8717H26.8897H26.9078H26.9258H26.9438H26.9618H26.9798H26.9978H27.0158H27.0338H27.0519H27.0699H27.0879H27.1059H27.1239H27.1419H27.1599H27.1779H27.196H27.214H27.232H27.25H27.268H27.286H27.304H27.322H27.3401H27.3581H27.3761H27.3941H27.4121H27.4301H27.4481H27.4661H27.4841H27.5022H27.5202H27.5382H27.5562H27.5742H27.5922H27.6102H27.6282H27.6462H27.6642H27.6823H27.7003H27.7183H27.7363H27.7543H27.7723H27.7903H27.8083H27.8263H27.8443H27.8624H27.8804H27.8984H27.9164H27.9344H27.9524H27.9704H27.9884H28.0064H28.0244H28.0424H28.0604H28.0785H28.0965H28.1145H28.1325H28.1505H28.1685H28.1865H28.2045H28.2225H28.2405H28.2585H28.2765H28.2945H28.3126H28.3306H28.3486H28.3666H28.3846H28.4026H28.4206H28.4386H28.4566H28.4746H28.4926H28.5106H28.5286H28.5466H28.5646H28.5826H28.6006H28.6187H28.6367H28.6547H28.6727H28.6907H28.7087H28.7267H28.7447H28.7627H28.7807H28.7987H28.8167H28.8347H28.8527H28.8707H28.8887H28.9067H28.9247H28.9427H28.9607H28.9787H28.9967H29.0147H29.0327H29.0507H29.0687H29.0867H29.1047H29.1227H29.1407H29.1587H29.1767H29.1947H29.2127H29.2307H29.2487H29.2667H29.2847H29.3027H29.3207H29.3387H29.3567H29.3747H29.3927H29.4107H29.4287H29.4467H29.4647H29.4827H29.5007H29.5187H29.5367H29.5547H29.5727H29.5907H29.6087H29.6267H29.6447H29.6627H29.6807H29.6987H29.7167H29.7347H29.7527H29.7707H29.7887H29.8067H29.8247H29.8427H29.8607H29.8787H29.8967H29.9147H29.9327H29.9507H29.9687H29.9866H30.0046H30.0226H30.0406H30.0586H30.0766H30.0946H30.1126H30.1306H30.1486H30.1666H30.1846H30.2026H30.2206H30.2386H30.2565H30.2745H30.2925H30.3105H30.3285H30.3465H30.3645H30.3825H30.4005H30.4185H30.4365H30.4545H30.4724H30.4904H30.5084H30.5264H30.5444H30.5624H30.5804H30.5984H30.6164H30.6343H30.6523H30.6703H30.6883H30.7063H30.7243H30.7423H30.7603H30.7782H30.7962H30.8142H30.8322H30.8502H30.8682H30.8862H30.9042H30.9221H30.9401H30.9581H30.9761H30.9941H31.0121H31.03H31.048H31.066H31.084H31.102H31.12H31.1379H31.1559H31.1739H31.1919H31.2099H31.2279H31.2458H31.2638H31.2818H31.2998H31.3178H31.3358H31.3537H31.3717H31.3897H31.4077H31.4257H31.4436H31.4616H31.4796H31.4976H31.5156H31.5335H31.5515H31.5695H31.5875H31.6054H31.6234H31.6414H31.6594H31.6774H31.6953H31.7133H31.7313H31.7493H31.7672H31.7852H31.8032H31.8212H31.8391H31.8571H31.8751H31.8931H31.911H31.929H31.947H31.965H31.9829H32.0009H32.0189H32.0369H32.0548H32.0728H32.0908H32.1087H32.1267H32.1447H32.1627H32.1806H32.1986H32.2166H32.2345H32.2525H32.2705H32.2885H32.3064H32.3244H32.3424H32.3603H32.3783H32.3963H32.4142H32.4322H32.4502H32.4681H32.4861H32.5041H32.522H32.54H32.558H32.5759H32.5939H32.6119H32.6298H32.6478H32.6658H32.6837H32.7017H32.7197H32.7376H32.7556H32.7735H32.7915H32.8095H32.8274H32.8454H32.8634H32.8813H32.8993H32.9172H32.9352H32.9532H32.9711H32.9891H33.007H33.025H33.043H33.0609H33.0789H33.0968H33.1148H33.1328H33.1507H33.1687H33.1866H33.2046H33.2225H33.2405H33.2585H33.2764H33.2944H33.3123H33.3303H33.3482H33.3662H33.3841H33.4021H33.42H33.438H33.456H33.4739H33.4919H33.5098H33.5278H33.5457H33.5637H33.5816H33.5996H33.6175H33.6355H33.6534H33.6714H33.6893H33.7073H33.7252H33.7432H33.7611H33.7791H33.797H33.815H33.8329H33.8509H33.8688H33.8868H33.9047H33.9226H33.9406H33.9585H33.9765H33.9944H34.0124H34.0303H34.0483C35.3752 41.9922 35.7853 42.1817 35.9484 42.3463C36.114 42.5135 36.2954 42.9259 36.2954 44.2393V64.1267Z" stroke="white" stroke-width="2"/>
<path d="M1.13943 56.6119V56.5615L1.13437 56.5114C1.11345 56.3042 1.13691 56.0954 1.20306 55.8989C1.26945 55.7017 1.37697 55.5213 1.51842 55.3695C1.65958 55.218 1.83227 55.0979 2.02467 55.0176C2.21699 54.9373 2.42338 54.8992 2.63043 54.9054L2.64546 54.9058H2.66049C3.81486 54.9058 4.96277 54.8976 6.10738 54.8893C8.3832 54.873 10.646 54.8567 12.9208 54.9056L12.9316 54.9058H12.9423C13.7089 54.9058 14.0208 55.0895 14.1692 55.2511C14.336 55.4328 14.5073 55.8136 14.5132 56.6399V56.6638V56.6911V56.7184V56.7457V56.7731V56.8004V56.8277V56.855V56.8823V56.9096V56.9369V56.9642V56.9916V57.0189V57.0462V57.0735V57.1008V57.1281V57.1554V57.1827V57.2101V57.2374V57.2647V57.292V57.3193V57.3466V57.3739V57.4012V57.4286V57.4559V57.4832V57.5105V57.5378V57.5651V57.5924V57.6197V57.6471V57.6744V57.7017V57.729V57.7563V57.7836V57.8109V57.8382V57.8656V57.8929V57.9202V57.9475V57.9748V58.0021V58.0294V58.0567V58.0841V58.1114V58.1387V58.166V58.1933V58.2206V58.2479V58.2752V58.3026V58.3299V58.3572V58.3845V58.4118V58.4391V58.4664V58.4937V58.521V58.5484V58.5757V58.603V58.6303V58.6576V58.6849V58.7122V58.7395V58.7669V58.7942V58.8215V58.8488V58.8761V58.9034V58.9307V58.958V58.9854V59.0127V59.04V59.0673V59.0946V59.1219V59.1492V59.1765V59.2039V59.2312V59.2585V59.2858V59.3131V59.3404V59.3677V59.395V59.4224V59.4497V59.477V59.5043V59.5316V59.5589V59.5862V59.6135V59.6409V59.6682V59.6955V59.7228V59.7501V59.7774V59.8047V59.832V59.8593V59.8867V59.914V59.9413V59.9686V59.9959V60.0232V60.0505V60.0778V60.1052V60.1325V60.1598V60.1871V60.2144V60.2417V60.269V60.2963V60.3237V60.351V60.3783V60.4056V60.4329V60.4602V60.4875V60.5148V60.5422V60.5695V60.5968V60.6241V60.6514V60.6787V60.706V60.7333V60.7607V60.788V60.8153V60.8426V60.8699V60.8972V60.9245V60.9518V60.9791V61.0065V61.0338V61.0611V61.0884V61.1157V61.143V61.1703V61.1976V61.225V61.2523V61.2796V61.3069V61.3342V61.3615V61.3888V61.4161V61.4435V61.4708V61.4981V61.5254V61.5527V61.58V61.6073V61.6346V61.6619V61.6893V61.7166V61.7439V61.7712V61.7985V61.8258V61.8531V61.8804V61.9078V61.9351V61.9624V61.9897V62.017V62.0443V62.0716V62.0989V62.1263V62.1536V62.1809V62.2082V62.2355V62.2628V62.2901V62.3174V62.3448V62.3721V62.3994V62.4267V62.454V62.4813V62.5086V62.5359V62.5632V62.5906V62.6179V62.6452V62.6725V62.6998V62.7271V62.7544V62.7817V62.8091V62.8364V62.8637V62.891V62.9183V62.9456V62.9729V63.0002V63.0276V63.0549V63.0822V63.1095V63.1368V63.1641V63.1914V63.2187V63.246V63.2734V63.3007V63.328V63.3553V63.3826V63.4099V63.4372V63.4645V63.4919V63.5192V63.5465V63.5738V63.6011V63.6284V63.6557V63.683V63.7104V63.7377V63.765V63.7923V63.8196V63.8469V63.8742V63.9015V63.9289V63.9562V63.9835V64.0108V64.0381V64.0654V64.0927V64.12V64.1473V64.1747V64.202V64.2293V64.2566V64.2839V64.3112V64.3385V64.3658V64.3932V64.4205V64.4478V64.4751V64.5024V64.5297V64.557V64.5843V64.6117V64.639V64.6663V64.6936V64.7209V64.7482V64.7755V64.8028V64.8301V64.8575V64.8848V64.9121V64.9394V64.9667V64.994V65.0213V65.0486V65.076V65.1033V65.1306V65.1579V65.1852V65.2125V65.2398V65.2671V65.2945V65.3218V65.3491V65.3764V65.4037V65.431V65.4583V65.4856V65.513V65.5403V65.5676V65.5949V65.6222V65.6495V65.6768V65.7041V65.7314V65.7588V65.7861V65.8134V65.8407V65.868V65.8953V65.9226V65.9499V65.9773V66.0046V66.0319V66.0592V66.0865V66.1138V66.1411V66.1684V66.1958V66.2231V66.2504V66.2777V66.305V66.3323V66.3596V66.3869V66.4142V66.4416V66.4689V66.4962V66.5235V66.5508V66.5781V66.6054V66.6327V66.6601V66.6874V66.7147V66.742V66.7693V66.7966V66.8239V66.8512V66.8786V66.9059V66.9332V66.9605V66.9878V67.0151V67.0424V67.0697V67.0971V67.1244V67.1517V67.179V67.2063V67.2336V67.2609V67.2882V67.3156V67.3429V67.3702V67.3975V67.4248V67.4521V67.4794V67.5067V67.534V67.5614V67.5887V67.616V67.6433V67.6706V67.6979V67.7252V67.7525V67.7799V67.8072V67.8345V67.8618V67.8891V67.9164V67.9437V67.971V67.9984V68.0257V68.053V68.0803V68.1076V68.1349V68.1622V68.1895V68.2169V68.2442V68.2715V68.2988V68.3261V68.3534V68.3807V68.408V68.4354V68.4627V68.49V68.5173V68.5446V68.5719V68.5992V68.6265V68.6538V68.6812V68.7085V68.7358V68.7631V68.7904V68.8177V68.845V68.8723V68.8997V68.927V68.9543V68.9816V69.0089V69.0362V69.0635V69.0908V69.1182V69.1455V69.1728V69.2001V69.2274V69.2547V69.282V69.3093V69.3367V69.364V69.3913V69.4186V69.4459V69.4732V69.5005V69.5278V69.5552V69.5825V69.6098V69.6371V69.6644V69.6917V69.719V69.7463V69.7737V69.801V69.8283V69.8556V69.8829V69.9102V69.9375V69.9648V69.9922V70.0195V70.0468V70.0741V70.1014V70.1287V70.156V70.1833V70.2107V70.238V70.2653V70.2926V70.3199V70.3472V70.3745V70.4018V70.4292V70.4565V70.4838V70.5111V70.5384V70.5657V70.593V70.608V70.6203V70.6346V70.6612V70.6878V70.7144V70.741V70.7676V70.7942V70.8208V70.8474V70.874V70.9006V70.9272V70.9537V70.9803V71.0069V71.0335V71.0601V71.0867V71.1133V71.1399V71.1665V71.1931V71.2197V71.2463V71.2729V71.2995V71.3261V71.3527V71.3793V71.4059V71.4325V71.4591V71.4857V71.5123V71.5389V71.5655V71.5921V71.6187V71.6453V71.6719V71.6985V71.7251V71.7517V71.7783V71.8049V71.8315V71.8581V71.8847V71.9114V71.938V71.9646V71.9912V72.0178V72.0444V72.071V72.0976V72.1242V72.1508V72.1774V72.204V72.2306V72.2572V72.2838V72.3104V72.337V72.3637V72.3903V72.4169V72.4435V72.4701V72.4967V72.5233V72.5499V72.5765V72.6031V72.6298V72.6564V72.683V72.7096V72.7362V72.7628V72.7894V72.816V72.8426V72.8693V72.8959V72.9225V72.9491V72.9757V73.0023V73.0289V73.0555V73.0822V73.1088V73.1354V73.162V73.1886V73.2152V73.2418V73.2684V73.2951V73.3217V73.3483V73.3749V73.4015V73.4281V73.4548V73.4814V73.508V73.5346V73.5612V73.5878V73.6145V73.6411V73.6677V73.6943V73.7209V73.7475V73.7742V73.8008V73.8274V73.854V73.8806V73.9073V73.9339V73.9605V73.9871V74.0137V74.0403V74.067V74.0936V74.1202V74.1468V74.1734V74.2001V74.2267V74.2533V74.2799V74.3065V74.3332V74.3598V74.3864V74.413V74.4396V74.4663V74.4929V74.5195V74.5461V74.5728V74.5994V74.626V74.6526V74.6792V74.7059V74.7325V74.7591V74.7857V74.8124V74.839V74.8656V74.8922V74.9188V74.9455V74.9721V74.9987V75.0253V75.052V75.0786V75.1052V75.1318V75.1585V75.1851V75.2117V75.2383V75.265V75.2916V75.3182V75.3448V75.3715V75.3981V75.4247V75.4513V75.478V75.5046V75.5312V75.5578V75.5845V75.6111V75.6377V75.6643V75.691V75.7176V75.7442V75.7708V75.7975V75.8241V75.8507V75.8773V75.904V75.9306V75.9572V75.9839V76.0105V76.0371V76.0637V76.0904V76.117V76.1436V76.1702V76.1969V76.2235V76.2501V76.2767V76.3034V76.33V76.3566V76.3833V76.4099V76.4365V76.4631V76.4898V76.5164V76.543V76.5696V76.5963V76.6229V76.6495V76.6762V76.7028V76.7294V76.756V76.7827V76.8093V76.8359V76.8626V76.8892V76.9158V76.9424V76.9691V76.9957V77.0223V77.049V77.0756V77.1022V77.1288V77.1555V77.1821V77.2087V77.2353V77.262V77.2886V77.3152V77.3419V77.3685V77.3951V77.4217V77.4484V77.475V77.5016V77.5283V77.5549V77.5815V77.6081V77.6348V77.6614V77.688V77.7147V77.7413V77.7679V77.7945V77.8212V77.8478V77.8744V77.9011V77.9277V77.9543V77.9809V78.0076V78.0342V78.0608V78.0874V78.1141V78.1407V78.1673V78.194V78.2206V78.2472V78.2738V78.3005V78.3271V78.3537V78.3804V78.407V78.4336V78.4602V78.4869V78.5135V78.5401V78.5667V78.5934V78.62V78.6466V78.6733V78.6999V78.7265V78.7531V78.7798V78.8064V78.833V78.8596V78.8863V78.9129V78.9395V78.9661V78.9928V79.0194V79.046V79.0726V79.0993V79.1259V79.1525V79.1792V79.2058V79.2324V79.259V79.2857V79.3123V79.3389V79.3655V79.3922V79.4188V79.4454V79.472V79.4987V79.5253V79.5519V79.5785V79.6052V79.6318V79.6584V79.685V79.7117V79.7383V79.7649V79.7915V79.8181V79.8448V79.8714V79.898V79.9246V79.9513V79.9779V80.0045V80.0311V80.0578V80.0844V80.111V80.1376V80.1642V80.1909V80.2175V80.2441V80.2707V80.2974V80.324V80.3506V80.3772V80.4038V80.4305V80.4571V80.4837V80.5103V80.5369V80.5636V80.5902V80.6168V80.6434V80.67V80.6967V80.7233V80.7499V80.7765V80.8031V80.8298V80.8564V80.883V80.9096V80.9362V80.9629V80.9895V81.0161V81.0427V81.0693V81.0959V81.1226V81.1492V81.1758V81.2024V81.229V81.2556V81.2823V81.3089V81.3355V81.3621V81.3887V81.4153V81.442V81.4686V81.4952V81.5218V81.5484V81.575V81.6017V81.6283V81.6549V81.6815V81.7081V81.7347V81.7613V81.788V81.8146V81.8412V81.8678V81.8944V81.921V81.9476V81.9742V82.0009V82.0275V82.0541V82.0807V82.1073V82.1339V82.1605V82.1871V82.2137V82.2403V82.267V82.2936V82.3202V82.3468V82.3734V82.4V82.4266V82.4532V82.4798V82.5064V82.533V82.5597V82.5863V82.6129V82.6395V82.6661V82.6927V82.7193V82.7459V82.7725V82.7991V82.8257V82.8523V82.8789V82.9055V82.9321V82.9587V82.9853V83.012V83.0386V83.0652V83.0918V83.1184V83.145V83.1716V83.1982V83.2248V83.2514V83.278V83.3046V83.3312V83.3578V83.3844V83.411V83.4376V83.4642V83.4908V83.5174V83.544V83.5706V83.5972V83.6238V83.6504V83.677V83.7036V83.7302V83.7568V83.7834V83.81V83.8365V83.8631V83.8897V83.9163V83.9429V83.9695V83.9961V84.0227V84.0493V84.0759V84.1025V84.1291V84.1557V84.1823V84.2089V84.2355C14.5132 85.2381 14.3266 85.6148 14.1642 85.7783C14.0037 85.9398 13.6356 86.1256 12.6475 86.1256H3.07846C2.18094 86.1256 1.75878 85.9289 1.54705 85.7219C1.34021 85.5196 1.13943 85.1162 1.13943 84.2355V84.1815V84.1275V84.0735V84.0195V83.9655V83.9115V83.8575V83.8035V83.7495V83.6955V83.6415V83.5875V83.5335V83.4795V83.4255V83.3715V83.3175V83.2635V83.2095V83.1555V83.1015V83.0475V82.9935V82.9395V82.8855V82.8315V82.7775V82.7235V82.6695V82.6155V82.5615V82.5075V82.4535V82.3996V82.3456V82.2916V82.2376V82.1836V82.1296V82.0756V82.0216V81.9676V81.9136V81.8596V81.8056V81.7516V81.6976V81.6437V81.5897V81.5357V81.4817V81.4277V81.3737V81.3197V81.2657V81.2117V81.1577V81.1038V81.0498V80.9958V80.9418V80.8878V80.8338V80.7798V80.7258V80.6718V80.6179V80.5639V80.5099V80.4559V80.4019V80.3479V80.2939V80.2399V80.186V80.132V80.078V80.024V79.97V79.916V79.862V79.8081V79.7541V79.7001V79.6461V79.5921V79.5381V79.4841V79.4302V79.3762V79.3222V79.2682V79.2142V79.1602V79.1063V79.0523V78.9983V78.9443V78.8903V78.8364V78.7824V78.7284V78.6744V78.6204V78.5665V78.5125V78.4585V78.4045V78.3505V78.2965V78.2426V78.1886V78.1346V78.0806V78.0267V77.9727V77.9187V77.8647V77.8107V77.7568V77.7028V77.6488V77.5948V77.5409V77.4869V77.4329V77.3789V77.3249V77.271V77.217V77.163V77.109V77.0551V77.0011V76.9471V76.8931V76.8392V76.7852V76.7312V76.6772V76.6233V76.5693V76.5153V76.4613V76.4074V76.3534V76.2994V76.2455V76.1915V76.1375V76.0835V76.0296V75.9756V75.9216V75.8677V75.8137V75.7597V75.7057V75.6518V75.5978V75.5438V75.4899V75.4359V75.3819V75.3279V75.274V75.22V75.166V75.1121V75.0581V75.0041V74.9502V74.8962V74.8422V74.7883V74.7343V74.6803V74.6264V74.5724V74.5184V74.4645V74.4105V74.3565V74.3026V74.2486V74.1946V74.1407V74.0867V74.0327V73.9788V73.9248V73.8708V73.8169V73.7629V73.709V73.655V73.601V73.5471V73.4931V73.4391V73.3852V73.3312V73.2773V73.2233V73.1693V73.1154V73.0614V73.0074V72.9535V72.8995V72.8456V72.7916V72.7376V72.6837V72.6297V72.5758V72.5218V72.4678V72.4139V72.3599V72.306V72.252V72.198V72.1441V72.0901V72.0362V71.9822V71.9283V71.8743V71.8203V71.7664V71.7124V71.6585V71.6045V71.5506V71.4966V71.4426V71.3887V71.3347V71.2808V71.2268V71.1729V71.1189V71.065V71.011V70.957V70.9031V70.8491V70.7952V70.7412V70.6873V70.6333V70.5794V70.5254V70.4715V70.4175V70.3636V70.3096V70.2557V70.2017V70.1478V70.0938V70.0399V69.9859V69.932V69.878V69.8241V69.7701V69.7162V69.6622V69.6083V69.5543V69.5004V69.4464V69.3925V69.3385V69.2846V69.2306V69.1767V69.1227V69.0688V69.0148V68.9609V68.9069V68.853V68.799V68.7451V68.6911V68.6372V68.5832V68.5293V68.4754V68.4214V68.3675V68.3135V68.2596V68.2056V68.1517V68.0977V68.0438V67.9899V67.9359V67.882V67.828V67.7741V67.7201V67.6662V67.6123V67.5583V67.5044V67.4504V67.3965V67.3425V67.2886V67.2347V67.1807V67.1268V67.0728V67.0189V66.965V66.911V66.8571V66.8031V66.7492V66.6953V66.6413V66.5874V66.5334V66.4795V66.4256V66.3716V66.3177V66.2637V66.2098V66.1559V66.1019V66.048V65.9941V65.9401V65.8862V65.8323V65.7783V65.7244V65.6704V65.6165V65.5626V65.5086V65.4547V65.4008V65.3468V65.2929V65.239V65.185V65.1311V65.0772V65.0232V64.9693V64.9154V64.8614V64.8075V64.7536V64.6996V64.6457V64.5918V64.5378V64.4839V64.43V64.376V64.3221V64.2682V64.2142V64.1603V64.1064V64.0525V63.9985V63.9446V63.8907V63.8367V63.7828V63.7289V63.6749V63.621V63.5671V63.5132V63.4592V63.4053V63.3514V63.2975V63.2435V63.1896V63.1357V63.0817V63.0278V62.9739V62.92V62.866V62.8121V62.7582V62.7043V62.6503V62.5964V62.5425V62.4886V62.4346V62.3807V62.3268V62.2729V62.2189V62.165V62.1111V62.0572V62.0032V61.9493V61.8954V61.8415V61.7876V61.7336V61.6797V61.6258V61.5719V61.5179V61.464V61.4101V61.3562V61.3023V61.2483V61.1944V61.1405V61.0866V61.0327V60.9787V60.9248V60.8709V60.817V60.7631V60.7091V60.6552V60.6013V60.5474V60.4935V60.4396V60.3856V60.3317V60.2778V60.2239V60.17V60.1161V60.0621V60.0082V59.9543V59.9004V59.8465V59.7926V59.7386V59.6847V59.6308V59.5769V59.523V59.4691V59.4152V59.3612V59.3073V59.2534V59.1995V59.1456V59.0917V59.0378V58.9838V58.9299V58.876V58.8221V58.7682V58.7143V58.6604V58.6065V58.5526V58.4986V58.4447V58.3908V58.3369V58.283V58.2291V58.1752V58.1213V58.0674V58.0134V57.9595V57.9056V57.8517V57.7978V57.7439V57.69V57.6361V57.5822V57.5283V57.4744V57.4205V57.3666V57.3126V57.2587V57.2048V57.1509V57.097V57.0431V56.9892V56.9353V56.8814V56.8275V56.7736V56.7197V56.6658V56.6119Z" stroke="white" stroke-width="2"/>
<path d="M78.4848 64.3974H84.1544V67.9766H79.2348C79.2278 68.7335 79.0864 69.4829 78.8168 70.1902C78.7334 70.515 78.5638 70.8112 78.3256 71.0472C78.0874 71.2832 77.7894 71.4504 77.4638 71.5309H88.2627V75.5774H72.1875V71.5063C72.5784 71.5383 72.9713 71.4664 73.3255 71.2979C73.6797 71.1295 73.9828 70.8704 74.2047 70.5469C74.6271 69.7556 74.8511 68.8736 74.8569 67.9766H72.1875V64.3974H74.1681C73.9048 63.6496 73.7595 62.8655 73.7375 62.073C73.6637 61.1709 73.7874 60.2637 74.0996 59.4141C74.4118 58.5646 74.9048 57.7931 75.5451 57.1534C76.2751 56.483 77.1328 55.9664 78.0668 55.6347C79.0008 55.3029 79.9924 55.1627 80.9818 55.2224C82.8213 55.1184 84.6331 55.7064 86.0611 56.8706C86.6941 57.4586 87.1857 58.1823 87.4988 58.9875C87.812 59.7927 87.9381 60.6585 87.8688 61.5196H83.9947C83.9947 59.8962 82.9742 59.0598 80.9818 59.0598C80.2224 59.0465 79.4884 59.3337 78.94 59.8591C78.6513 60.1481 78.4268 60.4945 78.2806 60.8759C78.1344 61.2572 78.0699 61.6652 78.0914 62.073C78.1328 62.8604 78.2647 63.6403 78.4848 64.3974Z" fill="white"/>
</svg>
