<svg width="116" height="85" viewBox="0 0 116 85" fill="none" xmlns="http://www.w3.org/2000/svg">
<path d="M66.1953 21.9028C61.0206 21.9028 55.832 21.9028 50.6435 21.9028C49.4951 21.9028 48.0147 21.4185 47.2675 22.1103C46.5204 22.8021 47.0185 24.324 47.0185 25.4586C47.0185 33.4696 47.0185 41.467 47.0185 49.4643C46.9418 50.3145 47.2056 51.1603 47.7518 51.8163C48.3739 52.6501 48.6603 53.687 48.5543 54.7219C48.5543 60.6299 48.5543 66.5241 48.5543 72.4321C48.5188 72.6212 48.5232 72.8158 48.5671 73.0031C48.6111 73.1905 48.6936 73.3666 48.8095 73.5203C48.9254 73.6739 49.0721 73.8017 49.2402 73.8954C49.4083 73.9892 49.5941 74.0468 49.7857 74.0646C52.1101 74.7149 54.4069 75.4483 56.7037 76.2093C57.3744 76.4304 57.9942 76.7832 58.5266 77.2472C59.059 77.7111 59.4932 78.2768 59.8039 78.911C60.1145 79.5452 60.2953 80.2351 60.3355 80.9401C60.3757 81.6451 60.2747 82.3513 60.0382 83.0167C59.72 83.9437 59.0282 84.0129 58.2257 84.0129H27.648C25.8078 84.0129 25.6556 83.8745 25.4896 82.1035C25.1575 78.6583 26.126 77.1225 29.3775 76.071C31.4944 75.3792 33.6252 74.6873 35.7697 74.0923C36.1967 74.0306 36.5819 73.8024 36.8411 73.4576C37.1004 73.1128 37.2126 72.6795 37.1533 72.2522C37.1533 66.4826 37.1533 60.7129 37.1533 54.9571C37.0494 54.3148 37.098 53.657 37.2951 53.0369C37.4922 52.4169 37.8323 51.8518 38.2879 51.3873C38.6615 51.0553 38.5785 50.5711 38.5785 50.1284C38.5785 41.098 38.5785 32.0676 38.5785 23.0373C38.5785 22.1794 38.3433 21.8751 37.4577 21.8889C31.4114 21.8889 25.3789 21.8889 19.3463 21.8889C18.3917 21.8889 18.1426 22.1933 18.1565 23.1065C18.1445 24.8499 18.503 26.576 19.208 28.1705C23.2758 36.9979 27.2883 45.8668 31.3422 54.708C33.4176 59.2324 32.4491 62.6775 28.1046 65.2234C24.5196 67.2817 20.4345 68.3066 16.3024 68.1843C12.3463 68.1731 8.47277 67.0513 5.12288 64.9467C3.94771 64.29 2.95357 63.3523 2.22925 62.2175C1.50493 61.0827 1.07299 59.7863 0.972064 58.4438C0.947788 57.9089 1.05717 57.3763 1.29031 56.8942C5.69018 47.2735 10.0901 37.6573 14.4899 28.0459C15.0255 26.8153 15.3348 25.4984 15.4031 24.1581C15.4861 22.9405 15.666 21.792 13.9364 21.2939C12.6359 20.9203 12.3868 19.5229 12.5528 18.25C12.6397 17.6478 12.9227 17.0911 13.3579 16.6659C13.7931 16.2407 14.3563 15.9708 14.9603 15.898C17.7276 15.4137 20.4948 14.9709 23.262 14.5144C27.8832 13.7395 32.4906 12.8817 37.098 12.2452C38.5785 12.0377 38.62 11.2905 38.4816 10.2666C38.3344 9.71036 38.1059 9.17885 37.8036 8.68926C37.1675 7.49403 36.9686 6.1143 37.2415 4.78808C37.5143 3.46185 38.2417 2.27239 39.298 1.42533C40.3487 0.61399 41.646 0.187836 42.9731 0.218056C44.3003 0.248276 45.5769 0.733032 46.5896 1.59136C47.5999 2.44836 48.2748 3.63487 48.495 4.94127C48.7153 6.24766 48.4667 7.58992 47.7933 8.73081C47.6345 8.99957 47.5003 9.28202 47.3921 9.57479C46.7141 11.6917 46.9493 12.0653 49.1354 12.342L70.5398 15.8149C71.1925 15.8535 71.8104 16.1221 72.284 16.5729C72.7577 17.0237 73.0563 17.6277 73.1271 18.2777C73.2189 18.6166 73.2426 18.9704 73.1968 19.3185C73.151 19.6666 73.0367 20.002 72.8604 20.3057C72.6841 20.6093 72.4494 20.875 72.1698 21.0873C71.8903 21.2997 71.5714 21.4546 71.2316 21.543M16.9389 29.9414C16.4961 29.9414 16.4546 30.2735 16.3716 30.4534C12.5529 38.8565 8.7341 47.2504 4.91535 55.6351C4.48643 56.5759 4.91535 56.562 5.60715 56.562C13.0233 56.562 20.4256 56.562 27.8417 56.562C29.0454 56.562 28.9071 56.1471 28.5335 55.3446C27.2606 52.5774 26.0153 49.8102 24.7701 47.0429L16.9389 29.9414ZM42.7985 81.1348H56.2056C56.5654 81.1348 57.0911 81.3563 57.2433 80.8305C57.3412 80.5764 57.3618 80.2991 57.3027 80.0333C57.2437 79.7675 57.1075 79.525 56.9113 79.3363C56.6341 79.1091 56.3141 78.9397 55.9704 78.8382C53.6736 78.1049 51.3907 77.33 49.0524 76.7074C45.3478 75.6228 41.4268 75.5085 37.6653 76.3753C35.161 76.9841 32.712 77.8697 30.2492 78.6583C29.7637 78.7883 29.2982 78.9837 28.8656 79.2393C28.6248 79.4054 28.4429 79.6435 28.346 79.9195C28.249 80.1954 28.2421 80.4949 28.326 80.7751C28.4782 81.3977 29.0731 81.1348 29.4605 81.1348H42.7985ZM41.4149 31.0207C41.4149 37.1362 41.4149 43.2656 41.4149 49.3812C41.4149 50.488 41.6778 50.8478 42.7985 50.7648C43.9192 50.6817 44.3066 50.6541 44.3066 49.3812C44.3066 37.1778 44.3066 24.9744 44.3066 12.771C44.3066 11.6364 43.9469 11.3874 42.923 11.3874C41.8991 11.3874 41.4287 11.5119 41.4425 12.771C41.3734 18.9557 41.3319 25.0298 41.3319 31.1176L41.4149 31.0207ZM45.7041 63.3555C45.7041 60.4223 45.7041 57.4752 45.7041 54.5281C45.7041 53.7948 45.538 53.5043 44.7494 53.532C43.4626 53.532 42.162 53.532 40.8753 53.532C40.1696 53.532 39.9483 53.7396 39.9483 54.4452C39.9483 60.367 39.9483 66.2981 39.9483 72.2384C39.9483 72.9163 40.1558 73.1929 40.8614 73.1653C42.1482 73.1653 43.4488 73.1653 44.7355 73.1653C45.5242 73.1653 45.7179 72.9163 45.7041 72.1691C45.5934 69.3465 45.6211 66.3996 45.6211 63.4525L45.7041 63.3555ZM16.759 59.4123C13.5767 59.4123 10.4083 59.4123 7.2398 59.4123C6.21593 59.4123 4.47261 58.9833 4.32041 59.7028C4.1267 60.7959 5.53796 61.6122 6.50649 62.3317C7.323 62.9553 8.2276 63.4544 9.19069 63.8122C13.6889 65.5518 18.65 65.6837 23.2343 64.1857C25.3222 63.6209 27.2014 62.4627 28.6442 60.8513C28.9347 60.4777 29.4605 60.0765 29.2392 59.606C29.0178 59.1356 28.4367 59.4123 28.0216 59.4123H16.759ZM15.5553 18.5959V18.928H35.327C38.6338 18.928 38.6061 18.928 38.4539 15.6627C38.4539 14.9294 38.2464 14.7771 37.5131 14.9155C35.1886 15.3582 32.8504 15.7041 30.5259 16.0915L15.5553 18.5959ZM70.097 18.9972V18.7204C69.992 18.6458 69.875 18.5897 69.7511 18.5544L49.5505 15.2891C47.1153 14.9017 47.1845 14.9432 47.0877 17.4199C47.0877 18.7343 47.4612 19.0388 48.7342 19.0249C55.4723 19.0249 62.2243 19.0249 68.9625 19.0249L70.097 18.9972ZM45.7041 5.94975C45.7096 5.56091 45.6384 5.17475 45.4946 4.81341C45.3509 4.45207 45.1373 4.12258 44.8662 3.84377C44.5951 3.56496 44.2718 3.34244 43.9146 3.18862C43.5575 3.0348 43.1735 2.95268 42.7846 2.94727C42.0207 2.97017 41.2931 3.27834 40.7451 3.81101C40.197 4.34367 39.8684 5.06233 39.8237 5.82527C39.8306 6.6136 40.1431 7.3685 40.6953 7.93108C41.2476 8.49367 41.9966 8.81997 42.7846 8.84144C43.5378 8.81378 44.2524 8.50143 44.784 7.96723C45.3156 7.43303 45.6247 6.71687 45.6487 5.9636L45.7041 5.94975Z" fill="white"/>
<path d="M101.989 60.1736C101.989 66.9671 101.989 73.7606 101.989 80.5679C102.029 81.0535 101.963 81.5419 101.794 81.9991C101.626 82.4564 101.36 82.8715 101.015 83.2154C100.67 83.5592 100.254 83.8235 99.7958 83.9899C99.3379 84.1564 98.8492 84.221 98.3638 84.1791C89.0106 84.1791 79.6574 84.1791 70.3043 84.1791C69.8009 84.2562 69.2864 84.214 68.8023 84.0558C68.3182 83.8977 67.878 83.628 67.5172 83.2686C67.1564 82.9091 66.8851 82.4698 66.7251 81.9863C66.5651 81.5028 66.521 80.9885 66.5962 80.4848C66.5962 68.7057 66.5962 56.9312 66.5962 45.1613C66.5691 44.5642 66.6712 43.9683 66.8957 43.4142C67.1202 42.8602 67.4616 42.3613 67.8968 41.9514C69.4879 40.4295 71.0376 38.8522 72.5734 37.2887C72.926 36.91 73.3551 36.6106 73.8321 36.4102C74.3092 36.2099 74.8233 36.1132 75.3406 36.1265H98.5713C99.0417 36.0751 99.5177 36.1306 99.9636 36.289C100.41 36.4474 100.814 36.7045 101.147 37.0411C101.479 37.3777 101.731 37.785 101.884 38.2328C102.037 38.6806 102.087 39.1571 102.03 39.6269C102.003 46.4619 101.989 53.3109 101.989 60.1736ZM75.7003 38.3402C75.7003 39.7238 75.7003 41.1074 75.7003 42.408C75.7003 44.0683 74.9947 44.8016 73.3344 44.8016C72.0753 44.8016 70.83 44.8016 69.5848 44.8016C68.9898 44.8016 68.7546 44.9539 68.7684 45.5903C68.7684 47.14 68.7684 48.6896 68.7684 50.2392V80.5125C68.7684 81.6747 69.059 81.9792 70.1521 81.9792H98.3776C99.3876 81.9792 99.692 81.6887 99.692 80.5956C99.692 79.0737 99.692 77.5516 99.692 76.0296V39.8899C99.692 38.5063 99.4983 38.2848 98.1009 38.2848H75.7418L75.7003 38.3402ZM73.5142 39.7238L70.6363 42.6155C71.4942 42.6155 72.3105 42.6155 73.1406 42.6155C73.2652 42.6155 73.4866 42.3527 73.5004 42.2005C73.5696 41.3565 73.5558 40.5816 73.5558 39.6823L73.5142 39.7238Z" fill="white"/>
<path d="M89.8964 27.6716C89.6612 28.9583 89.4259 30.1206 89.2322 31.2966C88.9002 33.3582 88.1253 33.9116 86.1053 33.5104C84.8047 33.2613 83.4903 33.0399 82.1758 32.8047H81.9406C81.8438 33.2198 81.7607 33.6625 81.6501 34.1052C81.6329 34.2557 81.5838 34.4008 81.5061 34.5308C81.4284 34.6608 81.3238 34.7728 81.1994 34.8592C81.0751 34.9456 80.9337 35.0045 80.7847 35.032C80.6358 35.0594 80.4827 35.0548 80.3357 35.0184C80.1934 34.9941 80.0576 34.9408 79.9368 34.8617C79.816 34.7826 79.7129 34.6794 79.6337 34.5587C79.5545 34.438 79.501 34.3022 79.4766 34.1599C79.4522 34.0177 79.4573 33.8718 79.4916 33.7316C79.487 32.8468 79.7161 31.9766 80.1559 31.2088C80.5956 30.441 81.2304 29.8031 81.996 29.3595C83.7531 28.3495 85.3858 27.1043 87.0462 25.9282C87.4412 25.6435 87.8916 25.4446 88.3682 25.3445C88.8448 25.2444 89.3371 25.2453 89.8134 25.347L101.809 27.6162L112.878 29.7054C113.289 29.7405 113.687 29.8615 114.047 30.0608C114.408 30.2601 114.723 30.5331 114.971 30.862C115.219 31.191 115.394 31.5686 115.487 31.97C115.579 32.3715 115.586 32.7879 115.507 33.1922C115.189 35.4889 114.704 37.7441 114.289 40.0132C112.657 48.7392 111.019 57.4652 109.378 66.1911C108.866 68.9583 108.354 71.7255 107.8 74.4928C107.652 75.2488 107.223 75.9205 106.599 76.3724C105.975 76.8243 105.203 77.0229 104.438 76.9279C103.76 76.8311 103.304 76.4989 103.331 75.7656C103.325 75.6136 103.353 75.4622 103.413 75.3224C103.472 75.1825 103.562 75.0578 103.676 74.9571C103.79 74.8564 103.925 74.7824 104.071 74.7404C104.217 74.6983 104.371 74.6894 104.521 74.7142C104.669 74.7379 104.82 74.7297 104.965 74.6902C105.109 74.6507 105.244 74.5808 105.359 74.4852C105.474 74.3895 105.568 74.2704 105.633 74.1357C105.699 74.001 105.735 73.8537 105.739 73.704C106.965 67.1365 108.192 60.569 109.419 54.0015L113.279 33.2474C113.445 32.2927 113.21 31.8639 112.269 31.767L93.6874 28.308L89.8964 27.6716ZM83.8638 30.8538L86.9216 31.4211L87.5166 28.3634L83.8638 30.8538Z" fill="white"/>
<path d="M55.5982 36.4862C56.4007 39.461 57.1894 42.3388 57.9781 45.2167L63.5125 65.4173L65.0483 70.9517C65.3111 71.9618 65.0483 72.5845 64.3426 72.7505C63.637 72.9165 63.1666 72.543 62.959 71.7266L61.271 65.4312C59.5646 59.1496 57.8535 52.8634 56.1378 46.5726L53.5228 36.9982C53.3923 36.5366 53.3569 36.0532 53.4187 35.5776C53.4806 35.1019 53.6384 34.6438 53.8826 34.231C55.0587 32.2109 56.207 30.177 57.3554 28.1431C57.5824 27.7266 57.8943 27.3623 58.2708 27.0739C58.6474 26.7856 59.0803 26.5794 59.5415 26.4688C66.4319 24.624 73.3176 22.7423 80.1988 20.8237L82.3987 20.2289C83.1707 20.0241 83.9918 20.1238 84.6923 20.5075C85.3928 20.8913 85.919 21.5296 86.1621 22.2904C86.3334 22.8049 86.4629 23.3324 86.5495 23.8678C86.5884 24.0073 86.5968 24.1535 86.5742 24.2966C86.5516 24.4397 86.4984 24.5763 86.4184 24.697C86.3383 24.8178 86.2332 24.9198 86.1102 24.9963C85.9872 25.0729 85.8492 25.1221 85.7055 25.1406C85.5719 25.1712 85.4336 25.175 85.2985 25.1519C85.1635 25.1287 85.0343 25.0791 84.9186 25.0058C84.8028 24.9325 84.7027 24.837 84.624 24.7247C84.5453 24.6125 84.4897 24.4858 84.4602 24.352C84.3634 24.0476 84.2666 23.7293 84.1836 23.4249C83.9068 22.3872 83.5609 22.1936 82.5232 22.4842L61.6308 28.1708C60.6207 28.4475 60.6207 28.4474 60.8974 29.4436L61.8106 32.7366C61.8899 32.9863 61.9166 33.2498 61.8889 33.5104C61.8612 33.771 61.7798 34.023 61.6498 34.2505C61.5197 34.4781 61.3439 34.6762 61.1335 34.8324C60.923 34.9886 60.6825 35.0994 60.427 35.1579L55.5982 36.4862ZM58.7667 30.3429H58.5591L56.5391 33.9126L59.5277 33.0686L58.7667 30.3429Z" fill="white"/>
<path d="M84.2657 59.2733H73.6673C72.6849 59.2733 72.173 58.8858 72.1868 58.1802C72.2006 57.4746 72.7402 57.0457 73.6949 57.0457H94.9748C96.0263 57.0457 96.649 57.613 96.4691 58.4293C96.2892 59.2456 95.7911 59.3148 95.0855 59.3148L84.2657 59.2733Z" fill="white"/>
<path d="M80.7652 54.5688H73.6673C72.7403 54.5688 72.2837 54.1675 72.2837 53.4757C72.2837 52.7839 72.7956 52.3828 73.6673 52.3828H87.9323C88.887 52.3828 89.3159 52.7563 89.3159 53.4896C89.3159 54.2229 88.9008 54.5688 87.9323 54.5688H80.7652Z" fill="white"/>
<path d="M80.5853 68.7512H73.6673C72.768 68.7512 72.2837 68.3499 72.2837 67.6581C72.2837 66.9662 72.7818 66.5513 73.6673 66.5513H87.5034C88.3612 66.5513 88.8039 66.9801 88.8039 67.6719C88.8039 68.3637 88.375 68.7373 87.4203 68.7373H80.5023L80.5853 68.7512Z" fill="white"/>
<path d="M88.2638 64.0192C85.9808 64.0192 83.6979 64.0192 81.4288 64.0192C81.2125 64.0003 81.0029 63.9348 80.8142 63.8274C80.6256 63.7199 80.4624 63.573 80.3357 63.3967C80.2646 63.2207 80.2386 63.0297 80.2604 62.8412C80.2822 62.6526 80.3509 62.4726 80.4603 62.3174C80.5994 62.1821 80.7639 62.0757 80.9444 62.0045C81.1249 61.9332 81.3178 61.8986 81.5118 61.9025C85.6626 61.9025 89.8134 61.9025 93.8951 61.9025H95.3617C95.5054 61.8911 95.65 61.9093 95.7864 61.9562C95.9227 62.003 96.048 62.0774 96.1544 62.1747C96.2608 62.272 96.3461 62.3901 96.4049 62.5218C96.4637 62.6535 96.4948 62.796 96.4962 62.9402C96.5026 63.0908 96.4769 63.241 96.4208 63.381C96.3648 63.5209 96.2797 63.6474 96.1712 63.7521C96.0626 63.8567 95.9331 63.937 95.7912 63.9878C95.6493 64.0387 95.4982 64.0588 95.3479 64.0469H88.2638V64.0192Z" fill="white"/>
<path d="M89.7866 49.8101H84.4044C83.5604 49.8101 83.09 49.395 83.0208 48.7032C82.9516 48.0114 83.5189 47.5824 84.4044 47.5824H95.1689C95.3346 47.5571 95.5037 47.5668 95.6655 47.6106C95.8273 47.6544 95.9781 47.7314 96.1084 47.8369C96.2386 47.9424 96.3454 48.074 96.4219 48.2232C96.4984 48.3723 96.5429 48.5358 96.5525 48.7032C96.5525 49.3535 96.0267 49.7963 95.1689 49.7963L89.7866 49.8101Z" fill="white"/>
<path d="M76.4342 49.8091H73.4318C73.2768 49.8264 73.1199 49.8112 72.9711 49.7645C72.8223 49.7177 72.685 49.6404 72.5677 49.5375C72.4505 49.4346 72.3561 49.3084 72.2905 49.1669C72.2248 49.0255 72.1894 48.8719 72.1865 48.716C72.1856 48.5577 72.2181 48.401 72.2821 48.2562C72.346 48.1114 72.4399 47.9819 72.5575 47.876C72.6752 47.7702 72.8139 47.6903 72.9646 47.6419C73.1153 47.5936 73.2745 47.5776 73.4318 47.5952H79.5335C79.6899 47.5748 79.849 47.589 79.9993 47.6367C80.1497 47.6844 80.2879 47.7645 80.4039 47.8713C80.52 47.9782 80.6112 48.1091 80.6712 48.255C80.7312 48.401 80.7585 48.5584 80.7511 48.716C80.7511 49.4078 80.336 49.8091 79.5335 49.8091H76.4342Z" fill="white"/>
<path d="M75.162 63.9922H73.2941C73.1499 64.0043 73.0047 63.9853 72.8685 63.9365C72.7322 63.8876 72.6081 63.81 72.5044 63.709C72.4007 63.6079 72.32 63.4859 72.2676 63.3509C72.2153 63.2159 72.1926 63.0713 72.2011 62.9268C72.1884 62.7819 72.2076 62.6358 72.2573 62.4991C72.3071 62.3625 72.3862 62.2384 72.489 62.1355C72.5919 62.0327 72.7161 61.9535 72.8527 61.9038C72.9894 61.854 73.1354 61.8349 73.2803 61.8475C74.5532 61.8475 75.8261 61.8475 77.099 61.8475C77.2438 61.8382 77.3888 61.8609 77.5237 61.9143C77.6586 61.9676 77.78 62.0501 77.8792 62.156C77.9784 62.2618 78.053 62.3883 78.0975 62.5263C78.142 62.6644 78.1554 62.8107 78.1367 62.9545C78.1448 63.0911 78.1238 63.2278 78.0752 63.3556C78.0266 63.4835 77.9515 63.5996 77.8547 63.6963C77.758 63.793 77.6419 63.8681 77.514 63.9167C77.3861 63.9653 77.2494 63.9864 77.1128 63.9784C76.4625 63.9784 75.8122 63.9784 75.162 63.9784V63.9922Z" fill="white"/>
<path d="M93.8951 54.5694C93.3831 54.5694 92.8574 54.5694 92.3454 54.5694C92.2154 54.5751 92.0857 54.5541 91.9641 54.5078C91.8425 54.4615 91.7316 54.3909 91.6383 54.3002C91.545 54.2095 91.4713 54.1005 91.4216 53.9803C91.3719 53.8601 91.3472 53.7311 91.3492 53.601C91.3492 52.9783 91.5706 52.494 92.2209 52.4525C93.3269 52.3902 94.4355 52.3902 95.5416 52.4525C95.6797 52.4527 95.8161 52.4829 95.9414 52.541C96.0667 52.599 96.1779 52.6837 96.2674 52.7889C96.3568 52.8941 96.4223 53.0175 96.4595 53.1505C96.4966 53.2835 96.5044 53.4231 96.4824 53.5594C96.4865 53.6973 96.4618 53.8345 96.41 53.9624C96.3582 54.0903 96.2805 54.2061 96.1816 54.3024C96.0827 54.3986 95.965 54.4733 95.8357 54.5216C95.7065 54.57 95.5687 54.591 95.4309 54.5833L93.8951 54.5694Z" fill="white"/>
</svg>
