<svg width="116" height="85" viewBox="0 0 116 85" fill="none" xmlns="http://www.w3.org/2000/svg">
<path d="M66.264 21.9555C61.0767 21.9555 55.8755 21.9555 50.6744 21.9555C49.5232 21.9555 48.0392 21.4701 47.2902 22.1636C46.5413 22.857 47.0406 24.3826 47.0406 25.5199C47.0406 33.5505 47.0406 41.5673 47.0406 49.584C46.9638 50.4362 47.2281 51.2841 47.7757 51.9418C48.3993 52.7775 48.6864 53.817 48.5801 54.8544C48.5801 60.7767 48.5801 66.6853 48.5801 72.6076C48.5446 72.7972 48.5489 72.9922 48.593 73.1801C48.637 73.3679 48.7198 73.5444 48.836 73.6985C48.9522 73.8525 49.0992 73.9805 49.2677 74.0745C49.4362 74.1685 49.6224 74.2262 49.8145 74.2442C52.1446 74.896 54.447 75.6312 56.7493 76.394C57.4217 76.6156 58.043 76.9693 58.5766 77.4344C59.1103 77.8995 59.5456 78.4665 59.857 79.1023C60.1684 79.738 60.3496 80.4296 60.39 81.1363C60.4303 81.8431 60.329 82.5509 60.0919 83.218C59.7729 84.1472 59.0795 84.2166 58.275 84.2166H27.623C25.7783 84.2166 25.6258 84.0779 25.4593 82.3025C25.1265 78.849 26.0973 77.3095 29.3567 76.2554C31.4788 75.5619 33.6147 74.8683 35.7645 74.2719C36.1925 74.2101 36.5786 73.9813 36.8385 73.6357C37.0984 73.29 37.2109 72.8557 37.1515 72.4273C37.1515 66.6437 37.1515 60.86 37.1515 55.0902C37.0473 54.4463 37.096 53.7869 37.2936 53.1653C37.4911 52.5438 37.832 51.9773 38.2888 51.5117C38.6633 51.1788 38.5801 50.6935 38.5801 50.2497C38.5801 41.1974 38.5801 32.145 38.5801 23.0927C38.5801 22.2328 38.3443 21.9277 37.4566 21.9416C31.3955 21.9416 25.3484 21.9416 19.3012 21.9416C18.3442 21.9416 18.0945 22.2467 18.1084 23.1621C18.0965 24.9098 18.4558 26.6401 19.1625 28.2385C23.2402 37.0874 27.2624 45.9777 31.3262 54.8405C33.4067 59.3759 32.4358 62.8294 28.0807 65.3814C24.487 67.4448 20.392 68.4722 16.2499 68.3495C12.2841 68.3383 8.40117 67.2138 5.04314 65.1041C3.86511 64.4457 2.86855 63.5058 2.14247 62.3682C1.41639 61.2307 0.983396 59.9311 0.882229 58.5854C0.857893 58.0491 0.967544 57.5153 1.20125 57.032C5.61181 47.3879 10.0224 37.7484 14.4329 28.1135C14.9698 26.88 15.2799 25.5598 15.3483 24.2163C15.4316 22.9957 15.6118 21.8444 13.8781 21.3451C12.5744 20.9706 12.3247 19.5699 12.4912 18.2939C12.5783 17.6902 12.8619 17.1322 13.2982 16.7059C13.7344 16.2797 14.299 16.0091 14.9045 15.9361C17.6784 15.4506 20.4524 15.0068 23.2263 14.5491C27.8588 13.7724 32.4774 12.9125 37.096 12.2745C38.5801 12.0664 38.6217 11.3174 38.483 10.291C38.3354 9.73343 38.1064 9.20064 37.8033 8.70986C37.1656 7.51172 36.9663 6.12864 37.2398 4.79919C37.5133 3.46974 38.2424 2.27739 39.3013 1.42827C40.3545 0.614956 41.655 0.187766 42.9854 0.21806C44.3158 0.248353 45.5955 0.734288 46.6106 1.5947C47.6234 2.45378 48.2999 3.64318 48.5207 4.95275C48.7415 6.26232 48.4924 7.60784 47.8173 8.75151C47.6581 9.02092 47.5236 9.30406 47.4151 9.59754C46.7355 11.7196 46.9712 12.0941 49.1626 12.3715L70.619 15.8528C71.2733 15.8915 71.8928 16.1607 72.3676 16.6126C72.8423 17.0646 73.1417 17.67 73.2127 18.3216C73.3046 18.6613 73.3284 19.016 73.2825 19.3649C73.2366 19.7138 73.122 20.0501 72.9453 20.3545C72.7686 20.6589 72.5333 20.9252 72.2531 21.1381C71.9728 21.351 71.6531 21.5063 71.3125 21.5949M16.8879 30.0137C16.444 30.0137 16.4024 30.3466 16.3192 30.5269C12.4912 38.9504 8.66313 47.3648 4.8351 55.7698C4.40514 56.7129 4.8351 56.699 5.52858 56.699C12.9627 56.699 20.383 56.699 27.8172 56.699C29.0239 56.699 28.8852 56.283 28.5107 55.4786C27.2347 52.7047 25.9864 49.9307 24.7381 47.1568L16.8879 30.0137ZM42.8103 81.3316H56.2501C56.6107 81.3316 57.1377 81.5535 57.2903 81.0265C57.3884 80.7717 57.409 80.4938 57.3498 80.2273C57.2906 79.9609 57.1542 79.7178 56.9574 79.5286C56.6795 79.3009 56.3588 79.1311 56.0143 79.0293C53.7119 78.2942 51.4234 77.5174 49.0794 76.8933C45.3659 75.8061 41.4353 75.6915 37.6647 76.5605C35.1543 77.1707 32.6993 78.0584 30.2305 78.849C29.7439 78.9793 29.2773 79.1752 28.8435 79.4314C28.6022 79.5979 28.4199 79.8366 28.3227 80.1132C28.2255 80.3898 28.2185 80.6901 28.3026 80.9709C28.4552 81.5951 29.0516 81.3316 29.4399 81.3316H42.8103ZM41.4234 31.0956C41.4234 37.226 41.4234 43.3703 41.4234 49.5007C41.4234 50.6102 41.6869 50.9709 42.8103 50.8876C43.9338 50.8044 44.3221 50.7767 44.3221 49.5007C44.3221 37.2676 44.3221 25.0346 44.3221 12.8015C44.3221 11.6642 43.9615 11.4146 42.9351 11.4146C41.9088 11.4146 41.4372 11.5394 41.4511 12.8015C41.3817 19.0013 41.3401 25.0901 41.3401 31.1927L41.4234 31.0956ZM45.723 63.509C45.723 60.5687 45.723 57.6144 45.723 54.6602C45.723 53.9251 45.5565 53.6338 44.766 53.6616C43.4761 53.6616 42.1723 53.6616 40.8824 53.6616C40.1751 53.6616 39.9532 53.8697 39.9532 54.577C39.9532 60.5133 39.9532 66.4587 39.9532 72.4134C39.9532 73.093 40.1612 73.3703 40.8686 73.3426C42.1585 73.3426 43.4622 73.3426 44.7521 73.3426C45.5426 73.3426 45.7368 73.093 45.723 72.344C45.612 69.5146 45.6398 66.5605 45.6398 63.6062L45.723 63.509ZM16.7076 59.5562C13.5175 59.5562 10.3414 59.5562 7.1652 59.5562C6.13884 59.5562 4.39128 59.1262 4.23871 59.8474C4.04454 60.9431 5.45923 61.7615 6.43011 62.4827C7.2486 63.1078 8.1554 63.6081 9.12083 63.9668C13.63 65.7106 18.6031 65.8428 23.1986 64.3412C25.2915 63.775 27.1753 62.614 28.6216 60.9987C28.9129 60.6242 29.44 60.222 29.218 59.7504C28.9961 59.2788 28.4136 59.5562 27.9975 59.5562H16.7076ZM15.5009 18.6406V18.9735H35.3207C38.6356 18.9735 38.6078 18.9735 38.4552 15.7002C38.4552 14.9651 38.2472 14.8125 37.5121 14.9512C35.182 15.3951 32.838 15.7418 30.5079 16.1301L15.5009 18.6406ZM70.1752 19.0429V18.7654C70.0699 18.6906 69.9527 18.6343 69.8285 18.599L49.5787 15.3257C47.1377 14.9374 47.207 14.979 47.1099 17.4617C47.1099 18.7793 47.4844 19.0845 48.7604 19.0706C55.515 19.0706 62.2834 19.0706 69.0379 19.0706L70.1752 19.0429ZM45.723 5.96369C45.7285 5.5739 45.6571 5.1868 45.513 4.82459C45.3689 4.46237 45.1549 4.13208 44.8831 3.85259C44.6114 3.5731 44.2872 3.35004 43.9292 3.19584C43.5712 3.04165 43.1862 2.95933 42.7964 2.9539C42.0307 2.97686 41.3013 3.28578 40.7519 3.81974C40.2026 4.35371 39.8731 5.07411 39.8283 5.83891C39.8352 6.62915 40.1485 7.38588 40.7021 7.94984C41.2557 8.51379 42.0065 8.84088 42.7964 8.86241C43.5514 8.83468 44.2677 8.52157 44.8007 7.98607C45.3336 7.45057 45.6434 6.73268 45.6675 5.97757L45.723 5.96369Z" fill="white"/>
<path d="M101.132 62.9124L102.519 64.2994C102.811 64.5627 103.024 64.9019 103.134 65.279C103.244 65.6561 103.247 66.0563 103.143 66.4352C103.138 66.5618 103.159 66.6883 103.207 66.8057C103.255 66.923 103.328 67.0284 103.421 67.1148C106.916 70.6377 110.425 74.1515 113.948 77.6559C114.489 78.1291 114.881 78.7495 115.075 79.4416C115.27 80.1337 115.259 80.8673 115.044 81.5532C114.866 82.1267 114.55 82.6481 114.125 83.0721C113.7 83.496 113.177 83.8097 112.603 83.986C112.029 84.1623 111.421 84.1958 110.831 84.0837C110.241 83.9715 109.688 83.7171 109.218 83.3425C108.988 83.1536 108.77 82.9496 108.566 82.7321C105.108 79.2924 101.669 75.8482 98.2474 72.3993C98.1383 72.2488 97.9833 72.1378 97.8058 72.0828C97.6283 72.0278 97.4377 72.0318 97.2626 72.0942C96.9422 72.1908 96.6003 72.191 96.2797 72.0948C95.9591 71.9986 95.6739 71.8103 95.4596 71.5532C94.6551 70.7626 93.8507 69.9721 93.074 69.1677C92.988 69.0517 92.8603 68.9738 92.7179 68.9505C92.5755 68.9271 92.4296 68.9602 92.3112 69.0427C89.503 70.4234 86.3513 70.9491 83.2471 70.5546C80.1428 70.1601 77.2227 68.8628 74.8492 66.8236C73.6969 65.7655 72.6431 64.6049 71.7008 63.3562C71.6144 63.2177 71.4936 63.104 71.3502 63.0262C71.2068 62.9484 71.0456 62.9093 70.8825 62.9124H58.6355C58.1972 62.9654 57.7526 62.9184 57.3349 62.7751C56.9173 62.6319 56.5375 62.3961 56.2239 62.0852C55.9104 61.7743 55.6712 61.3965 55.5244 60.9801C55.3776 60.5637 55.3269 60.1195 55.3762 59.6807V27.5169C55.328 27.0839 55.3777 26.6454 55.5215 26.2341C55.6653 25.8228 55.8995 25.449 56.207 25.1402C56.5144 24.8314 56.8873 24.5957 57.298 24.4501C57.7087 24.3045 58.1468 24.2528 58.5801 24.2991H108.164C108.593 24.2561 109.025 24.3088 109.431 24.453C109.836 24.5972 110.205 24.8295 110.51 25.1333C110.815 25.437 111.049 25.8046 111.195 26.2095C111.341 26.6145 111.395 27.0468 111.354 27.4753V59.7501C111.39 60.1744 111.333 60.6014 111.187 61.0013C111.04 61.4012 110.809 61.7644 110.507 62.0655C110.206 62.3667 109.843 62.5984 109.443 62.7446C109.043 62.8909 108.616 62.9482 108.192 62.9124H101.132ZM78.5663 39.2645C80.8354 38.2127 83.3192 37.7062 85.819 37.7856C88.3188 37.8651 90.7653 38.5283 92.963 39.7222C95.1745 40.8752 97.0921 42.5201 98.5685 44.5302C100.045 46.5403 101.04 48.8622 101.479 51.3174H104.406C105.238 51.3174 105.584 51.6641 105.584 52.4824C105.584 53.6058 105.584 54.7431 105.584 55.8665C105.584 56.768 105.252 57.1009 104.35 57.1009H101.576L100.383 60.9568H108.192C109.177 60.9568 109.496 60.6515 109.496 59.6668V27.5169C109.496 26.5322 109.177 26.2131 108.206 26.2131H58.691C57.6924 26.2131 57.3734 26.5183 57.3734 27.4892V59.7084C57.3734 60.6377 57.6924 60.9568 58.6494 60.9568H70.3277C69.9948 59.8472 69.6203 58.7653 69.3568 57.6558C69.2458 57.2119 69.0933 57.0871 68.6495 57.0871C66.5551 57.0871 64.4885 57.0871 62.3803 57.0871C61.6452 57.0871 61.2431 56.7403 61.2431 56.0607C61.2431 54.8124 61.2431 53.5642 61.2431 52.316C61.2327 52.1803 61.2517 52.0441 61.2989 51.9166C61.3461 51.789 61.4204 51.6731 61.5165 51.5769C61.6127 51.4808 61.7285 51.4066 61.8561 51.3594C61.9836 51.3122 62.1199 51.2931 62.2555 51.3035H63.157V29.4587C63.157 28.474 63.4761 28.1549 64.4469 28.1549H67.4566C68.7049 28.1549 68.9546 28.4046 68.9546 29.6252V51.3866C69.1349 51.2895 69.1904 51.2757 69.2042 51.248C69.2474 51.1392 69.2845 51.0281 69.3152 50.9151C69.8268 48.3798 70.9346 46.0027 72.5468 43.9803C72.7142 43.7406 72.8016 43.4543 72.7965 43.162C72.7965 40.4851 72.7965 37.8082 72.7965 35.1314C72.7965 34.2715 73.1432 33.9386 74.017 33.9386H77.3319C78.275 33.9386 78.594 34.2575 78.594 35.2006L78.5663 39.2645ZM70.8409 54.2161C70.8445 58.0505 72.3674 61.7272 75.0762 64.4411C77.7849 67.155 81.4587 68.685 85.2931 68.696C89.1288 68.696 92.8084 67.1772 95.5272 64.4714C98.2459 61.7657 99.7824 58.0934 99.8008 54.2578C99.8026 52.3526 99.4292 50.4656 98.7018 48.7048C97.9744 46.9439 96.9073 45.3436 95.5614 43.9952C94.2155 42.6467 92.6172 41.5765 90.8578 40.8457C89.0983 40.1149 87.2121 39.7379 85.3069 39.7361C81.4713 39.747 77.7961 41.2767 75.0851 43.9903C72.3742 46.7038 70.8482 50.3804 70.8409 54.2161ZM99.3015 70.6655L99.5373 70.929L110.148 81.5393C110.243 81.6389 110.345 81.7317 110.453 81.8168C110.671 82.0015 110.932 82.1292 111.211 82.1888C111.491 82.2484 111.781 82.2379 112.055 82.1583C112.33 82.0787 112.581 81.9323 112.785 81.7323C112.989 81.5324 113.141 81.2851 113.227 81.0123C113.346 80.6586 113.353 80.2765 113.246 79.9187C113.139 79.561 112.924 79.2453 112.63 79.0151L102.103 68.4879C101.992 68.3769 101.867 68.2938 101.77 68.2106L99.3015 70.6655ZM66.9435 51.248V30.0967H65.0849V51.248H66.9435ZM98.9825 63.5781L94.7106 67.8499L96.8743 70.0137L101.16 65.7556L98.9825 63.5781ZM68.913 53.259H63.1709V55.1038H68.913V53.259ZM74.7521 35.8665V41.5947C75.3208 41.1925 75.8478 40.8318 76.361 40.4434C76.472 40.3602 76.6245 40.2076 76.6245 40.0828C76.6245 38.6958 76.6245 37.3089 76.6245 35.9219L74.7521 35.8665ZM101.743 55.1038H103.629V53.3145H101.743V55.1038Z" fill="white"/>
<path d="M97.8741 54.2443C97.8484 57.5639 96.5117 60.7386 94.1553 63.0768C91.7989 65.415 88.6139 66.7272 85.2942 66.7271C81.9747 66.7014 78.7999 65.3648 76.4617 63.0084C74.1235 60.652 72.8114 57.4668 72.8115 54.1472C72.8371 50.8276 74.1738 47.6527 76.5302 45.3145C78.8866 42.9763 82.0717 41.6643 85.3913 41.6644C88.7097 41.6937 91.8825 43.0316 94.2199 45.3872C96.5573 47.7428 97.8705 50.9258 97.8741 54.2443ZM75.1416 57.1292C75.4738 58.3281 76.0136 59.4594 76.7366 60.4718C76.8355 60.6416 76.9805 60.7799 77.1548 60.8707C77.3291 60.9615 77.5255 61.0012 77.7214 60.985C82.5064 60.985 87.2776 60.985 92.0627 60.985C92.5625 61.0612 93.0735 60.9654 93.5119 60.7134C93.9503 60.4615 94.2902 60.0683 94.476 59.598L95.5994 57.1569L75.1416 57.1292ZM82.4232 51.2901V46.6853C82.4232 45.8947 82.7838 45.5341 83.5744 45.5341H87.0696C87.8601 45.5341 88.2069 45.8947 88.2207 46.6714V51.2762H92.0765C92.0765 50.3192 92.0765 49.4177 92.0765 48.5023C92.0647 48.3656 92.082 48.2278 92.1272 48.0983C92.1724 47.9688 92.2446 47.8503 92.339 47.7507C92.4333 47.6511 92.5477 47.5728 92.6746 47.5206C92.8015 47.4684 92.938 47.4437 93.0751 47.4482H93.3941C93.3941 47.3649 93.3941 47.351 93.3941 47.3371C91.6286 45.2647 89.1305 43.9549 86.4219 43.6809C83.7132 43.4069 81.0035 44.1901 78.8587 45.867C78.737 45.9588 78.6531 46.0921 78.6229 46.2415C78.6229 47.9336 78.6229 49.6119 78.6229 51.3178L82.4232 51.2901ZM95.8907 55.1596V53.315H74.7533V55.1735L95.8907 55.1596ZM79.3303 62.9268C83.297 65.7839 88.7062 65.0904 91.175 62.9268H79.3303ZM86.2651 47.4898H84.3927V51.2901H86.2374L86.2651 47.4898ZM76.5563 48.3497L76.376 48.2803L74.9891 51.2901H76.5563V48.3497ZM95.3914 51.304C95.1972 49.917 94.7811 49.3344 94.0044 49.4592V51.304H95.3914Z" fill="white"/>
</svg>
