<svg width="93" height="62" viewBox="0 0 93 62" fill="none" xmlns="http://www.w3.org/2000/svg">
<path d="M46.4295 61.1037C34.2297 61.1037 22.0239 61.1278 9.8271 61.1037C4.85257 61.1037 1.27608 58.2956 0.311906 53.764C0.151988 52.9261 0.079296 52.0739 0.0949766 51.221C0.0829245 38.0178 0.0829245 24.8137 0.0949766 11.6086C0.0949766 5.31135 4.40965 0.978599 10.6798 0.981612C22.0721 0.981612 33.4643 1.03886 44.8566 1.05694C47.716 1.05694 50.5814 0.993664 53.4378 0.990651C55.0889 0.990651 56.1013 1.84334 56.1495 3.17812C56.1857 4.61232 55.1853 5.51924 53.4378 5.51924C42.4462 5.51924 31.4536 5.50117 20.4601 5.46501C17.0463 5.46501 13.6325 5.46501 10.2158 5.54034C6.88032 5.62169 4.66575 8.04116 4.6537 11.5664C4.62658 18.4422 4.6537 25.3179 4.6537 32.1936C4.6537 38.521 4.6537 44.8484 4.6537 51.1758C4.6537 54.6438 6.47958 56.5209 9.90842 56.5239C34.1573 56.5239 58.4073 56.5239 82.6582 56.5239C86.4094 56.5239 88.0817 54.8155 88.0817 51.1004C88.0817 37.7406 88.0817 24.3829 88.0817 11.0271C88.0817 7.01069 86.545 5.51322 82.5106 5.5313C79.6 5.54636 76.6864 5.55239 73.7728 5.5313C72.1035 5.5313 71.1122 4.68463 71.061 3.35287C71.0219 1.9488 72.0704 1.0027 73.7728 0.990651C76.9364 0.970564 80.0991 0.970564 83.2608 0.990651C88.9404 1.02078 92.6524 4.7449 92.6826 10.4667C92.7097 14.935 92.6826 19.4063 92.6826 23.8747C92.6826 32.962 92.6826 42.0503 92.6826 51.1396C92.6826 57.2591 88.8681 61.1218 82.7395 61.1369C70.6392 61.167 58.5388 61.1369 46.4385 61.1369L46.4295 61.1037Z" fill="white"/>
<path d="M58.3763 33.2658L50.5424 27.999C50.161 27.7585 49.792 27.4991 49.4366 27.2216C48.3911 26.3448 48.1922 25.1878 48.8882 24.1574C49.5842 23.1269 50.8347 22.7654 51.9314 23.4794C55.9177 26.0797 59.8858 28.7101 63.8028 31.4158C65.1857 32.3709 65.1797 34.1576 63.8028 35.1068C59.8858 37.8185 55.9176 40.4459 51.9374 43.0551C51.6958 43.216 51.4245 43.3269 51.1393 43.3813C50.8542 43.4357 50.561 43.4325 50.2772 43.3719C49.9933 43.3112 49.7244 43.1944 49.4864 43.0282C49.2484 42.862 49.046 42.6499 48.8913 42.4043C48.1681 41.3317 48.367 40.0662 49.536 39.2497C51.8772 37.6136 54.2695 36.0528 56.6378 34.459C57.147 34.1275 57.6411 33.781 58.3763 33.2658Z" fill="white"/>
<path d="M19.3745 33.2995L26.1387 37.8492C26.7202 38.2409 27.3138 38.6145 27.8833 39.0213C29.206 39.9704 29.5435 41.2268 28.7872 42.3627C28.0309 43.4987 26.7293 43.7216 25.3674 42.8298C22.7702 41.1274 20.2001 39.3798 17.6179 37.6534C16.4127 36.8489 15.1743 36.0806 14.0023 35.2279C12.4385 34.092 12.4325 32.3534 14.0414 31.2597C17.8499 28.6655 21.6945 26.1195 25.5452 23.5855C26.7022 22.8202 28.0098 23.0703 28.736 24.0887C29.5013 25.1613 29.2633 26.4991 28.043 27.3518C25.6145 29.0331 23.1438 30.6661 20.6942 32.3113C20.3025 32.5915 19.9259 32.8958 19.3745 33.2995Z" fill="white"/>
<path d="M45.5905 20.9187C45.4906 21.3559 45.3607 21.7858 45.2018 22.2053C41.8091 30.0191 38.4125 37.8299 35.0117 45.6376C34.5658 46.6651 33.8608 47.4726 32.7791 47.2707C31.9457 47.055 31.2194 46.5429 30.7362 45.8305C30.4349 45.3875 30.6006 44.4445 30.8537 43.8539C34.2263 35.9758 37.628 28.1118 41.0589 20.2619C41.5741 19.0807 42.4238 18.3877 43.7706 18.6438C44.9156 18.8608 45.473 19.6351 45.5905 20.9187Z" fill="white"/>
<path d="M82.1097 23.1914C82.0932 23.4912 82.0177 23.7848 81.8875 24.0554C81.7574 24.326 81.5752 24.5683 81.3513 24.7684C81.1274 24.9685 80.8662 25.1225 80.5827 25.2216C80.2993 25.3206 79.9991 25.3628 79.6993 25.3457C79.1183 25.3284 78.5677 25.082 78.1675 24.6604C77.7673 24.2388 77.5501 23.6761 77.5631 23.095C77.5588 22.7937 77.6158 22.4948 77.7306 22.2162C77.8454 21.9377 78.0156 21.6853 78.2308 21.4746C78.4461 21.2638 78.702 21.099 78.9829 20.9901C79.2638 20.8812 79.5639 20.8306 79.865 20.8412C80.4727 20.8601 81.0486 21.1171 81.4685 21.5568C81.8884 21.9964 82.1187 22.5835 82.1097 23.1914Z" fill="white"/>
<path d="M79.7515 16.1433C79.4504 16.1399 79.1531 16.0752 78.8778 15.9532C78.6025 15.8312 78.3548 15.6545 78.1499 15.4338C77.945 15.2132 77.7872 14.9531 77.6859 14.6695C77.5847 14.3859 77.5422 14.0847 77.561 13.7841C77.5826 13.201 77.8278 12.6486 78.2457 12.2413C78.6636 11.8341 79.2222 11.6032 79.8057 11.5967C80.4135 11.6061 80.9933 11.8534 81.4208 12.2854C81.8483 12.7175 82.0895 13.2999 82.0926 13.9077C82.0888 14.2091 82.0248 14.5068 81.9045 14.7832C81.7841 15.0596 81.6098 15.3092 81.3918 15.5175C81.1738 15.7257 80.9164 15.8883 80.6347 15.9957C80.353 16.1032 80.0528 16.1534 79.7515 16.1433Z" fill="white"/>
<path d="M82.086 32.2289C82.1073 32.8356 81.8887 33.4262 81.4775 33.8729C81.0664 34.3195 80.4958 34.5862 79.8894 34.6152C79.2822 34.6241 78.696 34.393 78.2582 33.9721C77.8204 33.5512 77.5663 32.9746 77.5513 32.3675C77.5386 31.7868 77.751 31.2238 78.1442 30.7963C78.5374 30.3689 79.0808 30.1102 79.6605 30.0745C80.2655 30.0478 80.8572 30.2578 81.31 30.66C81.7628 31.0622 82.0411 31.6249 82.086 32.2289Z" fill="white"/>
</svg>
