<svg width="85" height="85" viewBox="0 0 85 85" fill="none" xmlns="http://www.w3.org/2000/svg">
<path d="M35.2868 75.6719C37.1445 73.3155 39.0022 70.9583 40.86 68.6003C42.2322 66.8586 43.6185 65.1287 44.9557 63.359C45.1685 63.0402 45.252 62.6524 45.1895 62.2743C44.9136 60.9348 44.591 59.6022 44.2123 58.2861C43.9785 57.4749 44.1983 56.8834 44.7757 56.3247C45.7646 55.3733 46.7511 54.4171 47.6745 53.4049C47.8044 53.2505 47.9021 53.0717 47.9619 52.879C48.0217 52.6863 48.0424 52.4836 48.0228 52.2828C47.7774 50.7609 47.4314 49.2437 47.1275 47.7405C46.8072 46.1345 47.6231 45.3677 49.2011 45.8002C52.8714 46.7773 56.117 48.9375 58.4352 51.9461C59.1903 52.9046 58.9916 53.8958 57.998 54.3189C57.1845 54.6626 56.6608 54.2348 56.2003 53.6503C54.8949 51.9947 53.2567 50.6313 51.3915 49.6481C51.0876 49.4868 50.772 49.3536 50.3022 49.1291C50.557 50.457 50.751 51.6282 51.0175 52.7854C51.1098 53.1079 51.1092 53.4499 51.0158 53.7721C50.9223 54.0942 50.7398 54.3835 50.4892 54.6065C49.5284 55.5416 48.6026 56.5188 47.6254 57.4398C47.2023 57.8396 47.0363 58.1949 47.221 58.8004C47.588 59.995 47.8031 61.2363 48.1561 62.4356C48.3899 63.2281 48.1982 63.8383 47.7072 64.4507C43.4712 69.8042 39.2469 75.167 35.0343 80.5391C34.8543 80.7729 34.6766 81.0067 34.3657 81.4018H35.3967C41.4748 81.4018 47.553 81.4018 53.6311 81.4018C54.6971 81.4018 55.2371 81.8179 55.3119 82.6548C55.3384 82.8363 55.3273 83.0214 55.2792 83.1984C55.2311 83.3754 55.1472 83.5407 55.0325 83.6839C54.9178 83.827 54.7749 83.9451 54.6126 84.0307C54.4504 84.1163 54.2722 84.1676 54.0893 84.1814C53.7977 84.2044 53.5049 84.2098 53.2126 84.1977H2.71726C0.980308 84.1977 0.613281 83.826 0.613281 82.1101C0.613281 75.8403 0.613281 69.5704 0.613281 63.3006C0.631983 54.9665 6.07426 47.7919 13.9665 45.6646C15.6029 45.2274 16.4001 45.9942 16.0284 47.6423C15.6847 49.1782 15.3551 50.7165 14.939 52.2313C14.78 52.8087 14.939 53.1407 15.3294 53.5194C16.2809 54.4241 17.1809 55.3896 18.1347 56.2897C18.7425 56.8718 18.9646 57.4866 18.7168 58.3282C18.3357 59.642 18.0272 60.9768 17.7303 62.3023C17.6549 62.5987 17.6968 62.9127 17.8472 63.179C21.092 67.3425 24.3625 71.485 27.7592 75.5691C27.6423 75.1553 27.5254 74.7392 27.4109 74.3301C24.6368 65.3469 21.8564 56.3645 19.0698 47.3828C18.7612 46.394 18.8734 45.6506 19.6683 44.9633C20.3509 44.3718 20.94 43.6775 21.6039 43.0627C22.0201 42.6769 22.4969 42.3613 23.058 41.9195C23.058 41.1878 23.0814 40.2831 23.0416 39.3854C23.0227 39.1063 22.9069 38.8425 22.7144 38.6396C21.4516 37.3919 20.4349 35.9176 19.7174 34.2938C19.6177 34.1346 19.4868 33.9975 19.3324 33.8906C19.1781 33.7837 19.0036 33.7093 18.8197 33.6719C17.3152 33.3865 15.9496 32.6054 14.9407 31.4534C13.9319 30.3013 13.3379 28.8446 13.2535 27.3156C13.2045 26.6431 13.3104 25.9683 13.5632 25.3432C13.816 24.7181 14.2089 24.1594 14.7115 23.71C15.2142 23.2606 15.8133 22.9326 16.4627 22.7511C17.1121 22.5697 17.7945 22.5397 18.4573 22.6635C18.6256 22.6915 18.7916 22.7359 18.9856 22.7803C19.1329 22.4998 19.2568 22.2403 19.4041 21.9949C20.227 20.6133 21.4216 19.8324 23.0533 19.8161C24.8651 19.7974 26.6769 19.8161 28.4886 19.8161C30.9877 19.8021 32.6755 18.2288 32.8695 15.7531C32.9444 14.7642 33.468 14.2055 34.3003 14.2218C35.1325 14.2382 35.6024 14.7829 35.6795 15.7203C35.8782 18.1984 37.4515 19.7132 39.9366 19.8208C41.7483 19.9002 42.6834 20.5688 43.9645 22.7009C44.605 22.7757 44.8599 22.4671 44.9767 21.8453C45.5846 18.5981 45.809 15.3814 44.6354 12.1903C42.4473 6.25012 36.3317 2.3718 30.1718 3.07312C23.5185 3.82354 18.4269 8.68372 17.5994 15.1219C17.4987 16.1941 17.4588 17.2712 17.4801 18.348C17.4801 19.393 17.0734 19.933 16.2107 19.9844C15.3084 20.0522 14.78 19.5332 14.6772 18.4766C13.8707 10.1612 19.7782 2.23153 28.0234 0.564715C39.3591 -1.72628 49.5307 7.61303 48.1771 19.0633C48.0345 20.2486 47.7914 21.4198 47.6675 22.605C47.6577 22.7771 47.6844 22.9493 47.7456 23.1104C47.8068 23.2715 47.9013 23.4179 48.0228 23.5401C48.6606 24.0354 49.1491 24.6972 49.4346 25.4525C49.7201 26.2078 49.7913 27.0273 49.6406 27.8205C49.152 30.9999 47.1859 33.0197 44.0066 33.7163C43.6863 33.7865 43.366 34.1208 43.1627 34.4177C42.2509 35.7245 41.4397 37.1037 40.4719 38.3685C40.0955 38.8617 39.8384 39.2755 39.8758 39.902C39.9225 40.6291 39.8758 41.3584 39.8758 42.0481C41.5286 42.9598 42.6811 44.3695 43.8242 45.7324C44.1001 46.0597 43.9972 46.8592 43.8406 47.3688C41.3953 55.3873 38.9282 63.4003 36.4393 71.4079C36.0092 72.7942 35.5884 74.1851 35.1652 75.5738L35.2868 75.6719ZM12.8023 49.0403C12.3581 49.246 12.0869 49.3489 11.8391 49.4868C6.46232 52.5025 3.53078 57.0588 3.42325 63.2468C3.32974 69.0748 3.4022 74.9075 3.40454 80.7402C3.40454 80.9342 3.42092 81.1306 3.43027 81.3433H10.4155V80.3474C10.4155 77.5421 10.4155 74.7431 10.4155 71.9502C10.4155 70.8281 10.9157 70.211 11.8017 70.2016C12.6878 70.1923 13.2044 70.8024 13.2184 71.9152C13.2184 74.3932 13.2184 76.8712 13.2184 79.3492V81.3433H28.4839C28.2502 81.0254 28.0795 80.7916 27.9018 80.5672C23.6627 75.1795 19.422 69.7941 15.1798 64.411C14.7122 63.8149 14.5276 63.2421 14.752 62.4753C15.105 61.2761 15.3317 60.0394 15.6871 58.8401C15.7845 58.6031 15.8014 58.3407 15.7351 58.0932C15.6688 57.8456 15.5229 57.6268 15.3201 57.4702C14.3172 56.5351 13.3751 55.5369 12.3979 54.5737C12.1565 54.3614 11.9819 54.0837 11.8952 53.7742C11.8085 53.4646 11.8134 53.1366 11.9093 52.8298C12.2366 51.6539 12.4703 50.4593 12.8023 49.0496V49.0403ZM34.2628 19.8184C32.596 21.8476 30.5365 22.6565 28.0795 22.598C26.4431 22.5606 24.8067 22.5793 23.1702 22.598C22.2795 22.598 21.6647 23.0656 21.6647 23.8487C21.6647 26.322 21.5432 28.8188 21.84 31.2617C22.3801 35.7034 26.3238 39.1282 30.831 39.3737C35.5416 39.6309 39.9482 36.6946 40.8389 32.2178C41.3766 29.4874 41.1756 26.6072 41.2363 23.8019C41.2364 23.6455 41.2051 23.4905 41.1441 23.3464C41.0832 23.2022 40.994 23.0718 40.8817 22.9628C40.7694 22.8538 40.6364 22.7684 40.4905 22.7118C40.3446 22.6551 40.1888 22.6284 40.0324 22.6331C37.718 22.57 35.8011 21.705 34.2628 19.8348V19.8184ZM25.8469 40.8956C25.8469 41.9382 25.8469 42.8382 25.8469 43.7406C25.8504 43.9371 25.9281 44.125 26.0644 44.2666C27.8387 45.7674 29.6271 47.2496 31.4412 48.7668C33.2693 47.2449 35.039 45.7791 36.7946 44.297C36.939 44.1622 37.0268 43.9775 37.0401 43.7804C37.0635 42.8616 37.0401 41.9405 37.0401 40.9002C33.3184 42.6255 29.6505 42.6325 25.8563 40.9119L25.8469 40.8956ZM31.6516 58.9944H31.329C31.2462 59.2182 31.1775 59.447 31.1232 59.6794C30.6557 62.4333 30.1765 65.1871 29.7463 67.9457C29.571 69.0865 29.232 70.2975 29.4518 71.3798C29.8585 73.3926 30.6206 75.3353 31.2331 77.306C31.3123 77.4908 31.4045 77.6697 31.509 77.8414C32.1659 75.7117 32.8041 73.7526 33.3652 71.7632C33.5302 71.1822 33.5739 70.5735 33.4937 69.9748C33.136 67.5576 32.7106 65.1497 32.3038 62.7278C32.1074 61.5052 31.8737 60.2592 31.6609 59.0108L31.6516 58.9944ZM39.6981 45.5641L33.7532 50.5084L38.8238 54.1202C39.4386 52.1191 39.9296 50.1718 40.6449 48.3086C41.1358 47.0719 40.9628 46.2303 39.7075 45.5804L39.6981 45.5641ZM23.1375 45.5033C22.9771 45.6759 22.8053 45.8376 22.6232 45.9872C21.9219 46.4688 21.8003 47.0275 22.1252 47.841C22.5671 48.9444 22.85 50.111 23.2006 51.2495C23.4882 52.1846 23.778 53.1197 24.089 54.1226L29.1549 50.5084L23.1375 45.5033ZM27.2847 64.5068L27.481 64.4882C27.8294 62.3842 28.1824 60.2615 28.512 58.1458C28.5315 57.9742 28.4919 57.801 28.3998 57.6549C27.9486 56.9536 27.4647 56.2639 26.9667 55.5182L24.9563 56.9559C25.7581 59.5415 26.5272 62.0335 27.294 64.5232L27.2847 64.5068ZM35.427 64.4788H35.6304C36.4097 61.9665 37.1827 59.4534 37.9495 56.9395L35.946 55.5369C35.6445 55.9787 35.3779 56.3247 35.1559 56.7058C34.88 57.1733 34.3821 57.6923 34.4335 58.1365C34.6907 60.2685 35.0904 62.3772 35.4364 64.4952L35.427 64.4788ZM18.829 30.6469C18.829 29.132 18.8477 27.6849 18.8127 26.2379C18.7984 26.1033 18.7561 25.9733 18.6884 25.8561C18.6208 25.7389 18.5293 25.6372 18.4199 25.5576C17.5713 25.0363 16.2622 25.6371 16.0635 26.5979C15.7432 28.2647 17.057 30.2612 18.836 30.6632L18.829 30.6469ZM44.0767 30.6235C45.6126 30.3734 46.8236 28.7954 46.868 27.0608C46.8818 26.7921 46.8282 26.5242 46.7121 26.2815C46.5959 26.0388 46.4209 25.829 46.2029 25.6712C45.985 25.5135 45.731 25.4127 45.4642 25.3782C45.1974 25.3436 44.9261 25.3764 44.6752 25.4734C44.5301 25.5429 44.403 25.6448 44.3037 25.7713C44.2043 25.8978 44.1355 26.0454 44.1024 26.2028C44.0627 27.6873 44.0907 29.1507 44.0907 30.6399L44.0767 30.6235ZM33.6387 53.8911C32.9818 53.4236 32.4114 52.9701 31.8035 52.5843C31.7012 52.5308 31.588 52.5013 31.4726 52.498C31.3571 52.4948 31.2424 52.5179 31.1373 52.5656C30.5061 52.9584 29.9146 53.4166 29.3372 53.828C29.3475 53.9153 29.3687 54.0009 29.4003 54.0828C29.7323 54.5924 30.0642 55.1021 30.4056 55.6047C31.0017 56.4884 31.9181 56.472 32.5212 55.572C32.8906 55.06 33.2389 54.5293 33.6527 53.9075L33.6387 53.8911Z" fill="white"/>
<path d="M67.9334 54.8917C70.5984 54.9385 72.8263 56.243 75.1968 57.1149C77.2844 57.8841 79.3065 57.8303 81.1908 56.4674C81.843 55.9998 82.5747 56.1541 83.047 56.7713C83.5192 57.3885 83.5145 58.1739 82.8646 58.6415C81.9763 59.275 80.978 59.7566 79.9284 60.3621C79.9564 60.4345 80.0313 60.6707 80.1318 60.8951C81.5017 63.9832 82.8436 67.0854 84.2673 70.1479C84.7036 71.0679 84.8165 72.1083 84.5875 73.1005C83.8254 76.7707 80.8682 78.9238 77.0039 78.5848C75.2953 78.4628 73.6978 77.6933 72.5373 76.4334C71.3769 75.1735 70.7411 73.5182 70.7597 71.8054C70.7791 71.3997 70.8801 71.0022 71.0566 70.6365C72.4406 67.4899 73.8432 64.3526 75.2389 61.213C75.3768 60.9021 75.5007 60.5818 75.6082 60.32C74.236 59.7543 72.9198 59.2189 71.6107 58.6672C68.1719 57.2201 64.7447 57.2646 61.3246 58.7116C60.0692 59.247 58.8045 59.7589 57.4743 60.3083C57.6122 60.6356 57.7712 61.033 57.9419 61.4211C59.23 64.3222 60.4853 67.2397 61.8319 70.1128C62.2851 71.0589 62.3974 72.1325 62.1498 73.1519C61.3947 76.6585 58.7344 78.697 55.043 78.5989C51.5691 78.5053 49.0467 76.2845 48.4483 72.8527C48.2758 71.9673 48.3905 71.05 48.7755 70.2344C50.2904 66.9288 51.7421 63.5975 53.1892 60.3387C52.1816 59.7776 51.1834 59.3101 50.2904 58.7023C49.5657 58.202 49.5306 57.4352 50.0216 56.7853C50.5125 56.1354 51.2349 55.9928 51.8754 56.458C53.9163 57.9425 56.0576 57.8256 58.2832 56.9864C59.9967 56.3388 61.7173 55.7029 63.4496 55.1162C63.9639 54.9408 64.5366 54.9291 65.1398 54.8333C65.1398 53.9262 65.1258 53.0543 65.1398 52.1846C65.1608 51.2074 65.7032 50.6137 66.5424 50.6207C67.3817 50.6277 67.917 51.2145 67.9451 52.187C67.9451 53.0426 67.9334 53.9146 67.9334 54.8917ZM55.3282 62.4427L51.9058 70.1572H58.7577C57.6169 67.6021 56.5228 65.1521 55.3282 62.4427ZM74.3388 70.1339H81.1627L77.7519 62.466C76.5667 65.1287 75.4726 67.5834 74.3388 70.1339ZM51.4499 73.0514C51.9362 74.8748 53.4066 75.8356 55.4825 75.7982C57.327 75.7678 59.0032 74.6153 59.1715 73.0514H51.4499ZM73.911 73.0397C74.0326 74.5569 75.7602 75.9362 78.0418 75.8029C79.9377 75.693 81.4035 74.5779 81.5672 73.0397H73.911Z" fill="white"/>
<path d="M67.9331 81.4112C69.7869 81.4112 71.5075 81.4112 73.2304 81.4112C74.3642 81.4112 74.9534 81.9022 74.958 82.8139C74.9627 83.7256 74.3923 84.2165 73.2421 84.2165C68.7723 84.2165 64.3026 84.2165 59.8328 84.2165C58.692 84.2165 58.1075 83.7279 58.1099 82.8139C58.1122 81.8998 58.7107 81.4112 59.8398 81.4112C61.5604 81.4112 63.2833 81.4112 65.1371 81.4112V62.5082C65.1371 62.2464 65.1231 61.9822 65.1371 61.7204C65.212 60.9022 65.7239 60.4089 66.486 60.3995C66.6692 60.3849 66.8534 60.4086 67.0269 60.4693C67.2003 60.53 67.3592 60.6263 67.4932 60.752C67.6273 60.8777 67.7336 61.03 67.8053 61.1992C67.877 61.3684 67.9126 61.5507 67.9097 61.7344C67.9495 62.6087 67.9237 63.4854 67.9237 64.3597V81.4112H67.9331Z" fill="white"/>
</svg>
