<svg width="88" height="102" viewBox="0 0 88 102" fill="none" xmlns="http://www.w3.org/2000/svg">
<path d="M51.5878 70.9067L50.6231 70.7338V54.1595C51.3958 54.0789 52.1112 53.7164 52.6313 53.1419C53.1515 52.5674 53.4396 51.8216 53.4401 51.0482V42.5402C53.4396 41.7669 53.1515 41.0211 52.6313 40.4466C52.1112 39.8721 51.3958 39.5096 50.6231 39.429V35.0501C50.618 29.5608 48.4249 24.2977 44.5253 20.4162C40.6257 16.5347 35.3382 14.3518 29.8233 14.3467C24.31 14.3568 19.0255 16.5413 15.127 20.4218C11.2285 24.3022 9.0338 29.5624 9.0236 35.0501V39.429C8.25436 39.514 7.54365 39.8785 7.02747 40.4525C6.51129 41.0265 6.22588 41.7699 6.22587 42.5402V51.0482C6.22588 51.8186 6.51129 52.562 7.02747 53.136C7.54365 53.71 8.25436 54.0745 9.0236 54.1595V70.7338L8.05886 70.9067C5.82414 71.3043 3.80188 72.4737 2.34787 74.209C0.893858 75.9444 0.101246 78.1345 0.109438 80.3941V98.3128C0.109438 99.2908 0.499727 100.229 1.19447 100.92C1.88922 101.612 2.83151 102 3.81403 102H55.9098C56.8941 102 57.8384 101.612 58.5362 100.921C59.234 100.23 59.6286 99.2925 59.6337 98.3128V80.3941C59.638 78.1206 58.8317 75.9193 57.3584 74.182C55.885 72.4447 53.8402 71.2841 51.5878 70.9067ZM43.8699 69.5047C42.6827 69.2887 41.6094 68.6648 40.8372 67.7416C40.0649 66.8185 39.6428 65.6549 39.6444 64.4536V63.3781C40.011 63.0709 40.3776 62.7636 40.7249 62.4179C41.0722 62.0722 41.3616 61.7457 41.6703 61.4C43.2362 61.1169 44.6906 60.4014 45.8677 59.3351C47.0447 58.2688 47.8968 56.8947 48.327 55.3695V70.3113L43.8699 69.5047ZM14.156 39.5634C24.6138 38.0654 31.2704 35.7223 35.3802 32.1309C38.1992 35.3353 41.5957 37.9864 45.3942 39.9475L44.6224 49.0125C44.4439 51.1637 43.8957 53.2684 43.0016 55.235C42.5272 56.2703 41.9589 57.2603 41.3037 58.1927C41.0336 58.5576 40.7635 58.9225 40.474 59.2682H33.8752C33.725 59.2656 33.5758 59.2931 33.4365 59.3491C33.2972 59.4051 33.1707 59.4885 33.0645 59.5943C32.9582 59.7 32.8745 59.826 32.8182 59.9646C32.7619 60.1033 32.7342 60.2518 32.7369 60.4013C32.7369 60.7018 32.8568 60.99 33.0703 61.2025C33.2838 61.415 33.5733 61.5344 33.8752 61.5344H38.3902C36.6277 63.0922 34.5852 64.3042 32.3703 65.1066C30.7814 65.6836 29.0389 65.6836 27.4501 65.1066C24.056 63.8771 21.0862 61.7066 18.8912 58.8515C16.6963 55.9963 15.3679 52.5756 15.0629 48.9933L14.156 39.5634ZM46.2817 54.1979C46.0335 55.523 45.3557 56.7306 44.3523 57.6357C44.6224 57.1556 44.8732 56.6754 45.1048 56.1761C45.3965 55.5502 45.6542 54.9091 45.8766 54.2556L46.2817 54.1979ZM26.5818 67.2576C27.6168 67.6223 28.7062 67.8106 29.804 67.8146C30.9084 67.8124 32.0044 67.6241 33.0456 67.2576C34.5856 66.6986 36.0553 65.9639 37.4255 65.0682C37.534 66.4558 38.0357 67.7843 38.8725 68.8993C39.7093 70.0144 40.8467 70.8703 42.1527 71.3676C39.7478 78.1686 35.4685 84.1586 29.804 88.6525C24.1505 84.1525 19.8789 78.1639 17.4747 71.3676C18.7807 70.8703 19.9181 70.0144 20.7549 68.8993C21.5916 67.7843 22.0934 66.4558 22.2019 65.0682C23.5756 65.9696 25.0524 66.7046 26.6011 67.2576H26.5818ZM51.144 42.5402V51.0482C51.144 51.2826 51.0505 51.5073 50.8841 51.673C50.7176 51.8386 50.4919 51.9317 50.2565 51.9317H46.494C46.709 51.0347 46.8574 50.1232 46.9378 49.2045L47.5745 41.6568H50.2565C50.4937 41.6567 50.7215 41.7492 50.891 41.9144C51.0605 42.0795 51.1583 42.3042 51.1633 42.5402H51.144ZM29.8233 16.709C34.7344 16.714 39.4428 18.6582 42.9154 22.1147C46.388 25.5712 48.3412 30.2579 48.3463 35.1462V39.4866H47.7675C47.7855 39.2682 47.7406 39.0492 47.6381 38.8554C47.5356 38.6615 47.3797 38.5007 47.1886 38.3919C43.0228 36.3402 39.3404 33.4341 36.3836 29.8647C36.2847 29.7396 36.1588 29.6383 36.0151 29.5685C35.8714 29.4987 35.7138 29.462 35.5539 29.4614C35.3977 29.457 35.2422 29.4836 35.0964 29.5396C34.9507 29.5957 34.8176 29.6801 34.7049 29.7878C30.846 33.6289 24.1314 36.0488 12.8054 37.47C12.5171 37.5084 12.2546 37.6552 12.0716 37.8802C11.8886 38.1052 11.799 38.3913 11.8213 38.68V39.3906H11.3776V35.0501C11.4029 30.1902 13.3551 25.5368 16.8094 22.1021C20.2637 18.6674 24.9408 16.7291 29.8233 16.709ZM8.50263 51.1443V42.6363C8.49437 42.5097 8.51301 42.3828 8.55734 42.2638C8.60166 42.1449 8.67068 42.0366 8.75989 41.946C8.8491 41.8554 8.95652 41.7845 9.07509 41.738C9.19367 41.6915 9.32076 41.6703 9.44809 41.676H12.1301L12.7668 49.2237C12.8484 50.141 12.9902 51.052 13.1913 51.9509H9.44809C9.32511 51.959 9.2018 51.9414 9.08602 51.8994C8.97023 51.8574 8.8645 51.7918 8.77556 51.7069C8.68662 51.622 8.61642 51.5196 8.56944 51.4062C8.52245 51.2928 8.49969 51.1709 8.50263 51.0482V51.1443ZM11.3004 54.294H13.7701C14.987 57.8584 17.1386 61.0344 20.0023 63.4934V64.5497C20.0039 65.7509 19.5817 66.9146 18.8095 67.8377C18.0372 68.7608 16.9639 69.3847 15.7768 69.6007L11.3004 70.4073V54.294ZM8.46407 73.2305L15.2558 72.0014C17.9049 79.5729 22.7369 86.1995 29.148 91.0532L29.8233 91.5525L30.5179 91.0532C36.9233 86.1939 41.7539 79.5691 44.4102 72.0014L51.1826 73.2305C52.8929 73.5368 54.4405 74.4317 55.5551 75.7587C56.6696 77.0858 57.2801 78.7605 57.2797 80.4902V81.0279L48.7901 88.7101C47.8681 89.5326 47.1304 90.5391 46.6251 91.6641C46.1198 92.7892 45.8582 94.0076 45.8573 95.2399V99.9069H13.7894V95.0671C13.7874 93.8367 13.5271 92.6204 13.0254 91.4959C12.5237 90.3715 11.7916 89.3637 10.8759 88.5372L2.3862 80.8551V80.3173C2.40303 78.6036 3.01894 76.9493 4.12808 75.6385C5.23721 74.3277 6.77034 73.4424 8.46407 73.1345V73.2305ZM2.3862 98.4088V83.9279L9.35161 90.1697C10.0315 90.7814 10.575 91.5281 10.9472 92.3617C11.3194 93.1953 11.512 94.0973 11.5126 95.0095V99.6764H3.79474C3.42923 99.6718 3.07939 99.5278 2.81734 99.2741C2.5553 99.0204 2.40099 98.6764 2.3862 98.3128V98.4088ZM55.8326 99.83H48.1147V95.0671C48.1153 94.1549 48.308 93.2529 48.6802 92.4193C49.0524 91.5858 49.5959 90.839 50.2758 90.2273L57.2412 83.9855V98.3128C57.2413 98.5044 57.2026 98.694 57.1272 98.8703C57.0519 99.0466 56.9415 99.2059 56.8027 99.3387C56.6639 99.4714 56.4996 99.5749 56.3197 99.6428C56.1397 99.7108 55.9478 99.7418 55.7555 99.734L55.8326 99.83Z" fill="white"/>
<path d="M20.3688 44.3643C21.2445 43.9099 22.2175 43.6726 23.2051 43.6726C24.1927 43.6726 25.1657 43.9099 26.0414 44.3643C26.2066 44.4008 26.3779 44.4008 26.5431 44.3643C26.7565 44.3668 26.9662 44.3084 27.1474 44.1961C27.3286 44.0838 27.4737 43.9223 27.5657 43.7306C27.631 43.5957 27.6688 43.4494 27.677 43.2999C27.6852 43.1505 27.6635 43.0009 27.6133 42.8599C27.563 42.7188 27.4852 42.589 27.3843 42.4781C27.2834 42.3671 27.1615 42.2771 27.0254 42.2133C25.8314 41.6033 24.5086 41.2852 23.1665 41.2852C21.8244 41.2852 20.5016 41.6033 19.3075 42.2133C19.1715 42.2771 19.0495 42.3671 18.9487 42.4781C18.8478 42.589 18.7699 42.7188 18.7197 42.8599C18.6695 43.0009 18.6478 43.1505 18.656 43.2999C18.6641 43.4494 18.702 43.5957 18.7673 43.7306C18.8235 43.8824 18.9112 44.0208 19.0246 44.1367C19.1381 44.2526 19.2748 44.3434 19.4259 44.4032C19.577 44.4629 19.7391 44.4904 19.9015 44.4837C20.0639 44.477 20.2232 44.4363 20.3688 44.3643Z" fill="white"/>
<path d="M33.0465 44.3643C33.9222 43.9099 34.8952 43.6726 35.8828 43.6726C36.8704 43.6726 37.8434 43.9099 38.7191 44.3643C38.8842 44.4021 39.0557 44.4021 39.2208 44.3643C39.4342 44.3668 39.6439 44.3084 39.8251 44.1961C40.0063 44.0838 40.1514 43.9223 40.2434 43.7306C40.3087 43.5957 40.3465 43.4494 40.3547 43.2999C40.3629 43.1505 40.3412 43.0009 40.291 42.8599C40.2408 42.7188 40.163 42.589 40.0621 42.4781C39.9612 42.3671 39.8392 42.2771 39.7031 42.2133C38.5091 41.6033 37.1863 41.2852 35.8442 41.2852C34.5021 41.2852 33.1793 41.6033 31.9853 42.2133C31.8492 42.2771 31.7273 42.3671 31.6264 42.4781C31.5255 42.589 31.4477 42.7188 31.3974 42.8599C31.3472 43.0009 31.3255 43.1505 31.3337 43.2999C31.3419 43.4494 31.3797 43.5957 31.445 43.7306C31.5012 43.8824 31.5889 44.0208 31.7024 44.1367C31.8159 44.2526 31.9526 44.3434 32.1037 44.4032C32.2547 44.4629 32.4168 44.4904 32.5792 44.4837C32.7417 44.477 32.9009 44.4363 33.0465 44.3643Z" fill="white"/>
<path d="M24.6339 55.2154C24.423 55.4275 24.3047 55.7139 24.3047 56.0124C24.3047 56.3109 24.423 56.5973 24.6339 56.8094C25.9631 58.2774 27.8224 59.1613 29.8049 59.2677C31.7921 59.158 33.6562 58.2751 34.9952 56.8094C35.2061 56.5973 35.3244 56.3109 35.3244 56.0124C35.3244 55.7139 35.2061 55.4275 34.9952 55.2154C34.7821 55.0054 34.4943 54.8877 34.1945 54.8877C33.8946 54.8877 33.6069 55.0054 33.3937 55.2154C30.8854 57.6353 28.6858 57.6161 26.1968 55.2154C25.9878 55.0124 25.7073 54.8988 25.4153 54.8988C25.1233 54.8988 24.8429 55.0124 24.6339 55.2154Z" fill="white"/>
<path d="M56.7972 36.6439C56.6297 36.6426 56.4647 36.6032 56.3148 36.5287C56.12 36.438 55.9551 36.2943 55.839 36.1142C55.7229 35.934 55.6604 35.7248 55.6588 35.5108V28.0591C54.1973 27.7902 52.8765 27.0208 51.925 25.8843C50.9735 24.7479 50.4515 23.3159 50.4492 21.8366V6.33778C50.4492 4.66022 51.1174 3.05108 52.3073 1.86306C53.4973 0.675045 55.1118 0.00508353 56.7972 0H80.8384C82.5271 0 84.1467 0.667725 85.3408 1.85629C86.5349 3.04486 87.2057 4.65689 87.2057 6.33778V21.8366C87.2134 22.6737 87.0543 23.504 86.7377 24.2796C86.4212 25.0552 85.9534 25.7607 85.3614 26.3554C84.7693 26.95 84.0648 27.422 83.2885 27.7441C82.5122 28.0662 81.6795 28.232 80.8384 28.232H67.6601L57.6076 36.4327C57.3743 36.6031 57.0845 36.6786 56.7972 36.6439ZM56.7972 2.26624C55.7157 2.27132 54.6802 2.70252 53.9172 3.46554C53.1543 4.22855 52.726 5.26126 52.726 6.33778V21.8366C52.726 22.9131 53.1543 23.9458 53.9172 24.7088C54.6802 25.4718 55.7157 25.903 56.7972 25.9081C56.9474 25.9055 57.0966 25.933 57.2359 25.9891C57.3752 26.0451 57.5017 26.1285 57.608 26.2342C57.7142 26.3399 57.798 26.4659 57.8542 26.6045C57.9105 26.7432 57.9382 26.8917 57.9356 27.0412V33.1101L66.4445 26.1578C66.6462 25.9946 66.8986 25.9063 67.1585 25.9081H80.8384C81.3756 25.9081 81.9075 25.8028 82.4038 25.5982C82.9001 25.3936 83.351 25.0937 83.7309 24.7156C84.1107 24.3375 84.412 23.8886 84.6175 23.3947C84.8231 22.9007 84.9289 22.3712 84.9289 21.8366V6.33778C84.9289 5.8031 84.8231 5.27365 84.6175 4.77967C84.412 4.28569 84.1107 3.83685 83.7309 3.45877C83.351 3.08069 82.9001 2.78077 82.4038 2.57616C81.9075 2.37154 81.3756 2.26624 80.8384 2.26624H56.7972Z" fill="white"/>
<path d="M79.6035 12.1383H57.9548C57.6544 12.1334 57.3677 12.0124 57.1553 11.8009C56.9429 11.5895 56.8214 11.3042 56.8164 11.0052C56.8164 10.7047 56.9363 10.4165 57.1498 10.204C57.3633 9.99145 57.6529 9.87207 57.9548 9.87207H79.6035C79.753 9.87207 79.901 9.90137 80.0391 9.95832C80.1773 10.0153 80.3027 10.0987 80.4085 10.204C80.5142 10.3092 80.598 10.4341 80.6552 10.5716C80.7124 10.709 80.7419 10.8564 80.7419 11.0052C80.7369 11.3042 80.6154 11.5895 80.403 11.8009C80.1906 12.0124 79.9039 12.1334 79.6035 12.1383Z" fill="white"/>
<path d="M68.7791 19.4549H57.9548C57.8053 19.4549 57.6573 19.4256 57.5191 19.3686C57.381 19.3117 57.2555 19.2282 57.1498 19.123C57.0441 19.0178 56.9603 18.8929 56.9031 18.7554C56.8458 18.6179 56.8164 18.4706 56.8164 18.3218C56.8164 18.173 56.8458 18.0256 56.9031 17.8881C56.9603 17.7507 57.0441 17.6257 57.1498 17.5205C57.2555 17.4153 57.381 17.3318 57.5191 17.2749C57.6573 17.218 57.8053 17.1886 57.9548 17.1886H68.7791C68.9294 17.186 69.0786 17.2136 69.2178 17.2696C69.3571 17.3256 69.4837 17.409 69.5899 17.5147C69.6962 17.6205 69.7799 17.7464 69.8362 17.8851C69.8925 18.0237 69.9201 18.1722 69.9175 18.3218C69.9201 18.4713 69.8925 18.6198 69.8362 18.7584C69.7799 18.8971 69.6962 19.023 69.5899 19.1288C69.4837 19.2345 69.3571 19.3179 69.2178 19.3739C69.0786 19.43 68.9294 19.4575 68.7791 19.4549Z" fill="white"/>
</svg>
