<svg width="113" height="112" viewBox="0 0 113 112" fill="none" xmlns="http://www.w3.org/2000/svg">
<g clip-path="url(#clip0_1016_1154)">
<path d="M26.7149 98.5585C15.5158 82.4551 13.4396 65.5849 19.7714 47.3792C16.9716 50.2311 14.1202 53.0227 11.4411 55.9952C10.9586 56.5208 11.0705 57.7184 11.1222 58.58C11.2362 59.8971 10.8594 61.2098 10.0643 62.2658C9.2692 63.3219 8.11191 64.0467 6.81485 64.3011C5.51277 64.5572 4.16214 64.3209 3.02424 63.6381C1.88634 62.9552 1.04222 61.8744 0.655403 60.6048C0.254231 59.3397 0.349848 57.9693 0.92272 56.7722C1.49559 55.5751 2.50279 54.6411 3.73954 54.16C4.60452 53.7872 5.55828 53.6705 6.48759 53.824C7.06644 53.9842 7.68005 53.9664 8.2486 53.7727C8.81715 53.5791 9.31423 53.2186 9.67499 52.7384C14.3729 47.9593 19.1139 43.2205 23.8979 38.5219C24.3266 38.2114 24.6223 37.7506 24.7261 37.2315C24.83 36.7124 24.7341 36.1732 24.4578 35.7217C23.6835 34.0943 23.4474 32.2627 23.7835 30.4921C24.1196 28.7215 25.0106 27.1039 26.3273 25.8735C29.1788 23.1509 32.5299 22.4271 36.1739 24.0211C36.626 24.2952 37.1652 24.388 37.6829 24.2809C38.2007 24.1738 38.6587 23.8748 38.965 23.4438C43.7721 18.5671 48.6567 13.7594 53.4378 8.85684C53.9867 8.19442 54.2582 7.34547 54.1958 6.48743C53.834 3.04101 55.8759 0.206327 59.1064 0.0081576C59.8524 -0.0499971 60.6021 0.0510839 61.3061 0.304702C62.0101 0.558321 62.6524 0.958694 63.19 1.47927C63.7276 1.99985 64.1483 2.62875 64.4245 3.3243C64.7007 4.01986 64.826 4.76618 64.792 5.51381C64.7058 8.81376 62.0697 10.8644 58.5204 10.6231C57.5834 10.5905 56.666 10.8964 55.936 11.4847C53.2138 13.992 50.6294 16.6544 48.0364 19.4804C66.0584 12.9581 82.8915 15.0604 98.7943 26.0889C99.5954 25.3221 100.517 24.5122 101.336 23.642C102.404 22.5564 103.429 22.453 104.54 23.5731C106.892 25.9511 109.279 28.3119 111.639 30.6899C112.664 31.7152 112.595 32.7233 111.587 33.7228C109.261 36.0405 106.935 38.3496 104.635 40.6845C103.463 41.8649 102.404 41.7874 101.267 40.6242C99.1734 38.4874 97.0282 36.411 94.9176 34.2914C93.0224 32.3959 93.0397 31.9651 94.9694 30.0265C95.3226 29.6732 95.6585 29.2941 96.0117 28.9322C82.6072 17.6194 58.0035 15.3878 40.8258 27.8552C44.108 36.0836 37.1732 43.6743 28.3948 40.271C17.4368 55.0302 16.4289 78.5693 29.0667 95.4136C29.2046 95.4136 29.3941 95.4136 29.463 95.4136C33.0984 91.8294 32.9864 92.691 36.1221 95.8014C37.8451 97.5246 39.5079 99.2478 41.2136 100.911C41.468 101.094 41.6752 101.336 41.818 101.615C41.9609 101.894 42.0353 102.204 42.0353 102.518C42.0353 102.831 41.9609 103.141 41.818 103.42C41.6752 103.699 41.468 103.941 41.2136 104.124C38.8962 106.434 36.5616 108.743 34.2614 111.078C33.064 112.292 32.0131 112.086 30.9018 110.948C28.7653 108.76 26.5944 106.563 24.3976 104.46C22.9848 103.125 22.8556 101.927 24.3976 100.635C25.1127 99.9888 25.8535 99.2995 26.7149 98.5585ZM38.0777 32.1546C38.0668 30.7271 37.5004 29.36 36.4984 28.3434C35.4964 27.3268 34.1377 26.7406 32.7108 26.7093C31.2444 26.716 29.8398 27.3005 28.8013 28.3359C27.7628 29.3713 27.1742 30.7743 27.1629 32.2408C27.1752 32.966 27.331 33.6816 27.6214 34.3462C27.9119 35.0109 28.3313 35.6113 28.8552 36.1128C29.3791 36.6144 29.9972 37.0071 30.6738 37.2683C31.3504 37.5294 32.072 37.6539 32.797 37.6344C34.2099 37.605 35.5541 37.0194 36.538 36.0048C37.5218 34.9901 38.0658 33.6283 38.0518 32.2149L38.0777 32.1546ZM37.4402 102.806L32.5816 97.6366L27.7659 102.332L32.6247 107.304L37.4402 102.806ZM107.952 32.2149L102.998 27.2521L97.9586 32.0943L102.981 37.1864L107.952 32.2149ZM59.4509 2.75668C58.5894 3.94569 57.659 4.71252 57.7279 5.27256C57.8744 5.98769 58.8737 6.53051 59.5026 7.15087C60.0626 6.53913 61.0187 5.95324 61.0703 5.30703C61.122 4.66083 60.3124 3.95431 59.4509 2.75668ZM8.32242 59.0367C7.1422 58.1751 6.47893 57.3824 5.79837 57.3738C5.1178 57.3652 4.63538 58.3043 4.07542 58.8213C4.71291 59.4675 5.24703 60.3636 6.02236 60.6565C6.39279 60.803 7.20252 59.8638 8.33104 59.0367H8.32242Z" fill="white"/>
<path d="M45.6674 37.3848C46.5805 37.7208 47.2008 37.9362 47.8038 38.1774C61.9147 43.8123 76.0313 49.4415 90.1537 55.0649C90.8652 55.3119 91.5092 55.7217 92.0342 56.2617C92.5592 56.8018 92.9506 57.4571 93.1775 58.1753C95.0641 63.3449 97.1834 68.5145 99.07 73.6842C99.2917 74.3635 99.6574 74.9869 100.142 75.5118C100.627 76.0367 101.219 76.4508 101.878 76.7256C104.851 78.0956 107.762 79.5948 110.674 81.1026C112.716 82.1537 112.879 83.1446 111.251 84.7816C102.556 93.5011 93.8496 102.206 85.1315 110.897C83.5119 112.508 82.5471 112.319 81.4616 110.242C79.9023 107.201 78.4808 104.082 76.8268 101.092C76.2725 100.12 75.4254 99.3477 74.4062 98.8861C69.0823 96.7235 63.6635 94.8021 58.3655 92.5964C57.1778 92.0605 56.2192 91.12 55.6606 89.9427C49.8715 75.7348 44.2287 61.458 38.4826 47.2329C37.7676 45.5097 37.983 44.2518 39.4045 43.011C40.9896 41.6239 42.3852 40.0213 43.9272 38.5738C44.4616 38.1145 45.0453 37.7157 45.6674 37.3848V37.3848ZM67.9794 64.4392C73.5187 61.8543 78.5842 62.7159 81.763 67.024C83.1969 68.8956 83.9378 71.2065 83.8593 73.5631C83.7807 75.9196 82.8876 78.1761 81.3323 79.948C78.1707 83.6271 72.7693 84.773 68.6773 82.1537C66.7726 80.8678 65.2158 79.1302 64.1459 77.0961C63.4321 75.6698 63.0999 74.0828 63.1814 72.4899C63.2629 70.8969 63.7555 69.3522 64.6112 68.0062L41.9716 45.3718C41.9992 45.999 42.1004 46.6208 42.2732 47.2243C47.6718 60.8147 53.1019 74.3878 58.5636 87.9437C58.9089 88.7088 59.5216 89.3216 60.2865 89.6669C65.2831 91.6659 70.3313 93.5269 75.3364 95.5172C75.7729 95.7612 76.2819 95.8423 76.7725 95.7461C77.2632 95.6498 77.7037 95.3825 78.0157 94.9917C83.7445 89.1844 89.5594 83.4548 95.2452 77.6131C95.5131 77.2821 95.7021 76.8943 95.7977 76.4792C95.8932 76.0641 95.8927 75.6327 95.7964 75.2178C93.9442 70.0913 91.9714 65.0078 89.947 59.9416C89.6558 59.2278 89.1134 58.6455 88.4222 58.3045C74.7362 52.773 61.0273 47.2904 47.2955 41.8565C46.6197 41.7429 45.9297 41.7429 45.2539 41.8565L67.9794 64.4392ZM98.8288 79.0864C92.6004 85.3331 86.5269 91.4074 80.4794 97.5075C80.1262 97.8694 79.6612 98.5932 79.799 98.8947C81.0568 101.626 82.4437 104.306 83.6498 106.718C91.5495 98.8172 99.3027 91.08 107.134 83.2566L98.8288 79.0864ZM66.808 73.1069C66.8011 74.0014 66.9711 74.8884 67.3081 75.717C67.6451 76.5456 68.1425 77.2994 68.7717 77.9351C69.4009 78.5708 70.1496 79.0759 70.9746 79.4214C71.7996 79.7668 72.6846 79.9458 73.579 79.948C75.3873 79.9186 77.1117 79.1795 78.38 77.89C79.6483 76.6005 80.3591 74.8641 80.3589 73.0552C80.3344 71.2873 79.6212 69.5987 78.3712 68.3485C77.1211 67.0982 75.4329 66.385 73.6652 66.3605C72.7665 66.3454 71.8739 66.5111 71.0404 66.8476C70.207 67.1841 69.4497 67.6846 68.8134 68.3195C68.177 68.9543 67.6746 69.7106 67.3361 70.5433C66.9975 71.3761 66.8296 72.2683 66.8424 73.1672L66.808 73.1069Z" fill="white"/>
</g>
<defs>
<clipPath id="clip0_1016_1154">
<rect width="112" height="112" fill="white" transform="translate(0.388672)"/>
</clipPath>
</defs>
</svg>
