<svg width="130" height="113" viewBox="0 0 130 113" fill="none" xmlns="http://www.w3.org/2000/svg">
<g clip-path="url(#clip0_1016_1137)">
<path d="M129.461 28.4845C129.44 21.5685 124.253 16.5529 117.295 16.5189C112.654 16.4963 108.013 16.4963 103.372 16.5189C102.897 16.5189 102.189 16.5834 102.005 16.882C100.744 18.779 99.592 20.7439 98.2455 22.9497C104.739 22.9497 110.815 22.9497 116.878 22.9497C120.856 22.9497 123.005 25.0706 123.009 29.0309C123.009 37.7387 122.981 46.4498 122.968 55.161C122.968 56.4166 122.968 57.6756 122.968 59.1077C122.968 66.6311 122.998 77.1816 123.005 83.2425C123.005 88.1936 121.071 90.1347 116.146 90.1381C106.051 90.1381 95.9558 90.1506 85.8605 90.1754C85.8128 90.1616 85.7632 90.1547 85.7135 90.1551C62.7582 90.1313 36.5017 90.1551 13.5532 90.1347C9.18228 90.1347 7.06002 88.0511 7.06002 83.7277C7.06002 76.771 7.06002 69.8143 7.06002 62.8575V61.5001C7.16938 60.2276 7.03951 57.17 7.06002 55.8838C7.09077 47.1184 7.05999 38.3495 7.07708 29.584C7.07708 24.9111 9.03191 22.9497 13.6797 22.9497C24.7273 22.9497 35.7772 22.9497 46.8293 22.9497C55.6601 22.9497 64.4875 22.9497 73.3149 22.9259C73.8719 22.9259 74.7571 22.7969 74.9279 22.4508C75.8575 20.6013 76.6093 18.6636 77.4842 16.6072C76.8007 16.563 76.3735 16.5053 75.9395 16.5053C54.808 16.5053 33.6765 16.5053 12.5451 16.5053C6.02791 16.5053 0.7718 21.3479 0.659023 27.8533C0.467644 39.1605 0.594124 50.4746 0.607794 61.7886C0.607794 62.1279 0.471086 73.3911 0.641961 74.9114C0.669301 77.745 0.68296 80.5752 0.546261 83.3952C0.204512 90.5657 5.36493 96.993 13.7959 96.5756C16.441 96.4467 19.0861 96.2363 21.7313 96.2125C23.7818 96.2125 25.8084 96.5519 27.8486 96.5519C38.2138 96.5892 48.5825 96.5519 58.9478 96.5519H61.0358V104.357H24.79C24.2192 104.357 23.6451 104.333 23.0812 104.388C22.2026 104.493 21.3833 104.883 20.7492 105.496C20.1151 106.109 19.7013 106.912 19.5714 107.781C19.4777 108.655 19.687 109.535 20.1647 110.276C20.6425 111.016 21.3603 111.573 22.1995 111.853C22.9657 112.057 23.758 112.147 24.5507 112.121C51.5489 112.135 78.5471 112.135 105.545 112.121C106.057 112.14 106.57 112.124 107.08 112.074C108.703 111.857 109.773 110.89 110.343 109.427C110.89 108.029 110.61 106.549 109.489 105.694C108.429 104.897 107.153 104.435 105.825 104.367C94.2641 104.269 82.6993 104.309 71.138 104.309H69.0294V96.5044H71.114C86.438 96.5044 101.761 96.5044 117.083 96.5044C124.181 96.5044 129.43 91.4921 129.451 84.5626C129.514 65.9004 129.518 47.2077 129.461 28.4845ZM2.36439 64.4355C2.41565 64.2998 2.46689 64.2455 2.51474 64.2862C2.46689 64.3371 2.41565 64.3846 2.36439 64.4355ZM123.709 58.6156L123.88 58.5037C123.825 58.6767 123.767 58.6971 123.709 58.6156Z" fill="white"/>
<path d="M101.971 8.36116C101.523 9.68124 101.287 11.1269 100.604 12.2977C95.0809 21.5077 89.4728 30.6634 83.8818 39.8361C80.9769 44.5871 78.096 49.3923 75.133 54.1263C73.6225 56.5391 71.3737 57.2789 69.1797 56.271C66.9071 55.2156 65.8955 53.305 66.7465 50.8176C67.7717 47.8313 69.0977 44.9468 70.3417 42.0385C74.3675 32.5932 78.4058 23.1558 82.4567 13.7263C83.7007 10.8283 84.9822 7.95734 86.2604 5.05587C87.8632 1.43498 91.5404 -0.414494 95.4876 0.403346C99.0828 1.15332 101.728 4.48915 101.971 8.36116Z" fill="white"/>
<path d="M73.264 58.656C75.2495 62.7553 72.806 69.5153 67.9019 72.2301C62.9978 74.9449 57.0377 73.9879 54.3584 69.8885C54.4825 69.8104 54.6128 69.7423 54.748 69.6849C58.3295 68.375 58.6918 67.7812 58.2851 63.9159C57.6631 57.9908 59.4847 55.0656 64.4366 53.7354C65.6532 55.0249 66.6033 56.5486 67.9771 57.3427C69.351 58.1368 71.1383 58.1605 73.264 58.656Z" fill="white"/>
</g>
<defs>
<clipPath id="clip0_1016_1137">
<rect width="129" height="112" fill="white" transform="translate(0.501953 0.212891)"/>
</clipPath>
</defs>
</svg>
