<svg width="118" height="110" viewBox="0 0 118 110" fill="none" xmlns="http://www.w3.org/2000/svg">
<g clip-path="url(#clip0_1016_1141)">
<path d="M0.107701 3.66239C1.21741 0.801533 3.41097 -0.00737067 6.34799 5.04834e-05C28.1722 0.0668408 49.9964 0.0371528 71.8206 0.0371528C75.7527 0.0371528 77.5319 1.82565 77.5319 5.78113V31.013C78.0387 31.039 78.4752 31.0798 78.9116 31.0798C83.6723 31.0798 88.4329 31.0798 93.1936 31.0798C96.8667 31.0798 98.7421 32.9611 98.7421 36.6457C98.7421 45.7762 98.7421 54.9079 98.7421 64.0409V65.5251H100.111C104.035 65.5251 107.956 65.5251 111.881 65.5251C115.151 65.5251 117.111 67.5362 117.111 70.8386C117.111 82.1064 117.111 93.3767 117.111 104.649C117.111 107.967 115.095 109.989 111.759 109.993C105.101 109.993 98.4425 109.993 91.7842 109.993C88.4292 109.993 86.4539 108.015 86.4391 104.657C86.4391 100.946 86.4391 97.2357 86.4391 93.5251V92.1967H70.1413C70.7775 94.3303 71.3841 96.4305 72.0611 98.5047C72.1202 98.6939 72.6085 98.8201 72.9044 98.8386C74.0807 98.9091 75.2755 98.8164 76.437 98.9834C77.7128 99.1635 78.8812 99.7986 79.7283 100.772C80.5754 101.746 81.0445 102.993 81.0497 104.286C81.0756 105.202 81.0793 106.141 81.0497 107.039C81.0016 108.724 79.9732 109.811 78.2976 109.97C77.9573 110.004 77.6133 109.97 77.2693 109.97H34.0684C31.1795 109.97 30.2436 109.035 30.2584 106.13C30.2094 105.138 30.2577 104.144 30.4027 103.161C30.9095 100.705 32.9624 99.039 35.5258 98.8461C35.7515 98.8461 35.9808 98.8461 36.2102 98.8461C39.2101 98.8461 39.2138 98.8461 40.0793 95.9073C40.4492 94.7013 40.7821 93.4954 41.189 92.0854H18.1626C14.4303 92.0854 12.5438 90.1967 12.5401 86.449C12.5401 79.7997 12.5401 73.1516 12.5401 66.5047V65.0205C12.0852 64.9908 11.7263 64.9462 11.3638 64.9425C9.57351 64.9425 7.77949 64.8498 5.99656 64.9425C3.07803 65.1206 1.07686 63.9852 0.078125 61.1763L0.107701 3.66239ZM74.0881 16.0706C74.0881 12.4453 74.0881 9.02046 74.0881 5.58075C74.0881 3.85163 73.7182 3.47686 72.0241 3.47686H5.65257C3.86225 3.47686 3.533 3.81081 3.533 5.61044C3.533 7.98026 3.533 10.3488 3.533 12.7162V16.0557H5.03482C14.6695 16.0557 24.303 16.0557 33.9353 16.0557C34.4273 16.0341 34.9198 16.0866 35.3964 16.2116C35.7718 16.3084 36.096 16.5458 36.3024 16.875C36.5088 17.2042 36.5816 17.6001 36.5061 17.9815C36.4897 18.3699 36.3286 18.738 36.0546 19.0128C35.7806 19.2877 35.4136 19.4493 35.0265 19.4657C34.6475 19.4973 34.267 19.5048 33.8872 19.488H3.52564V59.2282C3.52564 61.2616 3.74388 61.488 5.74505 61.488H71.8872C73.7885 61.488 74.1066 61.1911 74.1066 59.3173C74.1066 46.4812 74.1066 33.6451 74.1066 20.809V19.488H43.6859C43.3419 19.488 42.9978 19.488 42.6575 19.488C42.2501 19.4856 41.8592 19.3264 41.5653 19.0434C41.2714 18.7603 41.097 18.3749 41.0781 17.9667C41.0122 17.5623 41.1071 17.1481 41.3422 16.813C41.5773 16.478 41.934 16.2487 42.3357 16.1744C42.7817 16.0795 43.2379 16.042 43.6933 16.0631H74.0918L74.0881 16.0706ZM77.5171 34.5121V36.0446C77.5171 43.911 77.5171 51.7774 77.5171 59.6438C77.5171 61.5251 77.0103 63.2245 75.2977 64.1262C74.2165 64.6596 73.0254 64.9304 71.8206 64.9166C53.7028 64.966 35.5776 64.9772 17.4451 64.95H16.0209V79.8702H86.3652C86.3652 76.8052 86.3652 73.8331 86.3652 70.8572C86.3652 67.4583 88.2924 65.5436 91.6696 65.5214C92.831 65.5214 93.9926 65.5214 95.1503 65.5214C95.195 65.317 95.2272 65.1101 95.2465 64.9017C95.2465 55.3532 95.2465 45.8059 95.2465 36.2598C95.2465 34.9425 94.773 34.5232 93.397 34.5195C89.2837 34.5195 85.1741 34.5195 81.0608 34.5195L77.5171 34.5121ZM113.671 87.7811C113.671 82.2449 113.671 76.7063 113.671 71.1652C113.671 69.3099 113.324 68.9611 111.452 68.9611H92.0321C90.1419 68.9611 89.8126 69.2802 89.8126 71.1392C89.8126 82.219 89.8126 93.2988 89.8126 104.379C89.8126 106.137 90.2232 106.557 91.9433 106.557H111.478C113.209 106.557 113.649 106.115 113.649 104.401C113.671 98.8621 113.68 93.3223 113.675 87.7811H113.671ZM15.9802 83.4509V86.0743C15.9802 88.4008 16.2354 88.6717 18.5103 88.6717H50.714C51.1325 88.651 51.552 88.6659 51.968 88.7162C52.3525 88.7568 52.7081 88.9398 52.9653 89.2293C53.2225 89.5189 53.3628 89.8942 53.3588 90.2821C53.4291 91.3952 52.6893 92.0817 51.3539 92.1002C49.4526 92.1299 47.5477 92.0817 45.6464 92.1373C45.2765 92.1373 44.7401 92.4268 44.6476 92.7051C43.9818 94.6865 43.4121 96.7013 42.7981 98.7867H68.4693C67.9588 97.0427 67.4003 95.4175 67.023 93.7514C66.7308 92.4713 66.1833 91.9518 64.8036 92.0743C63.0937 92.1763 61.3792 92.1763 59.6693 92.0743C58.5078 92.0372 57.8457 91.2988 57.8938 90.2635C57.9419 89.2282 58.5892 88.7125 59.7433 88.6605C60.0873 88.6605 60.4276 88.6605 60.7716 88.6605H86.3393V83.4657L15.9802 83.4509ZM33.754 106.475H77.5134C77.8833 103.262 77.3728 102.249 73.9217 102.271C61.7149 102.349 49.4711 102.301 37.2496 102.301C34.0536 102.301 33.5505 102.839 33.68 106.056C33.6974 106.197 33.7221 106.337 33.754 106.475Z" fill="white"/>
<path d="M32.1374 40.5274C32.1374 44.5744 32.1374 48.6214 32.1374 52.6684C32.1374 55.0246 31.0647 56.1118 28.7343 56.1192C23.2573 56.1192 17.7778 56.1192 12.2959 56.1192C10.0395 56.1192 8.96674 55.0061 8.94824 52.7278C8.94824 44.5942 8.94824 36.4631 8.94824 28.3344C8.94824 26.0302 10.0136 24.9949 12.2996 24.9727C17.8136 24.9727 23.3301 24.9727 28.849 24.9727C31.0684 24.9727 32.13 26.0413 32.1337 28.2788C32.1485 32.3604 32.1374 36.4458 32.1374 40.5274ZM12.4586 28.4569V52.6201H28.6345V28.4532L12.4586 28.4569Z" fill="white"/>
<path d="M53.1107 38.4086C49.1527 38.4086 45.1948 38.4086 41.2368 38.4086C38.555 38.4086 37.5711 37.4179 37.5674 34.7649C37.5674 32.5385 37.5674 30.3344 37.5674 28.1192C37.5674 26.1229 38.6993 24.9764 40.6709 24.9727C48.9715 24.9727 57.2696 24.9727 65.5653 24.9727C67.5406 24.9727 68.6466 26.1192 68.6614 28.1266C68.6614 30.4198 68.6614 32.7092 68.6614 35.0023C68.6614 37.2955 67.6071 38.3864 65.3323 38.4012C61.2559 38.4272 57.1833 38.4086 53.1107 38.4086ZM41.0482 34.8799H65.1399V28.468H41.0408L41.0482 34.8799Z" fill="white"/>
<path d="M53.1218 47.937C48.6682 47.937 44.2171 47.937 39.7684 47.937C38.3221 47.937 37.549 47.321 37.5748 46.2116C37.6007 45.1021 38.3628 44.5047 39.8165 44.501C48.6793 44.501 57.5434 44.501 66.4087 44.501C66.5234 44.501 66.6343 44.501 66.749 44.501C67.966 44.5678 68.7058 45.2728 68.6577 46.3154C68.6096 47.3581 67.9179 47.9258 66.7009 47.9295C62.1807 47.9444 57.6494 47.937 53.1218 47.937Z" fill="white"/>
<path d="M19.6419 11.4879C16.8676 11.4879 14.0933 11.4879 11.3154 11.4879C9.92084 11.4879 9.21434 10.9091 9.20325 9.80706C9.19215 8.70502 9.94305 8.05937 11.2784 8.05566C16.8664 8.05566 22.4556 8.05566 28.046 8.05566C29.3814 8.05566 30.1212 8.7347 30.099 9.82561C30.0768 10.9165 29.3888 11.4768 28.083 11.4842C25.2718 11.4842 22.4568 11.4842 19.6419 11.4842V11.4879Z" fill="white"/>
<path d="M59.9356 52.6827C62.1809 52.6827 64.4262 52.6827 66.6715 52.6827C67.9439 52.6827 68.6652 53.3357 68.6615 54.3858C68.6578 55.4359 67.9217 56.1038 66.6641 56.1075C62.134 56.1249 57.6052 56.1249 53.0776 56.1075C51.8421 56.1075 51.0801 55.3988 51.0801 54.3784C51.0801 53.358 51.8495 52.6938 53.085 52.6827C55.3673 52.6716 57.6533 52.6827 59.9356 52.6827Z" fill="white"/>
<path d="M41.333 56.1116C40.6524 56.1116 39.9643 56.1562 39.2837 56.1116C38.211 56.03 37.5526 55.3213 37.5748 54.3528C37.597 53.3843 38.2813 52.7276 39.3762 52.7053C40.7411 52.6756 42.1098 52.6719 43.4747 52.7053C44.5179 52.735 45.1393 53.3695 45.1726 54.3231C45.197 54.766 45.0471 55.2008 44.7552 55.5339C44.4632 55.867 44.0526 56.0718 43.6116 56.1042C43.5352 56.1097 43.4586 56.1097 43.3823 56.1042H41.333V56.1116Z" fill="white"/>
<path d="M49.8078 11.4879C49.3672 11.501 48.9393 11.3385 48.6177 11.0361C48.2961 10.7336 48.1069 10.3158 48.0915 9.87385C48.0816 9.64541 48.117 9.41727 48.1958 9.2027C48.2745 8.98812 48.3951 8.79139 48.5503 8.62394C48.7055 8.45649 48.8924 8.32167 49.1 8.22729C49.3076 8.13292 49.5319 8.08089 49.7597 8.07422C50.2197 8.08099 50.6587 8.26803 50.9829 8.59533C51.3071 8.92264 51.4907 9.36422 51.4945 9.82561C51.4812 10.2674 51.2983 10.6869 50.984 10.9967C50.6697 11.3064 50.2484 11.4824 49.8078 11.4879Z" fill="white"/>
<path d="M58.226 8.09277C58.6862 8.09667 59.1263 8.28229 59.451 8.60941C59.7758 8.93653 59.9589 9.37882 59.9608 9.84046C59.9513 10.2825 59.7707 10.7035 59.4573 11.0144C59.1439 11.3253 58.7222 11.5018 58.2815 11.5065C57.8409 11.5177 57.4134 11.3554 57.0906 11.0545C56.7677 10.7535 56.5752 10.3377 56.5541 9.89611C56.5452 9.66742 56.5814 9.43922 56.6607 9.22464C56.74 9.01005 56.8608 8.8133 57.0162 8.64571C57.1716 8.47813 57.3585 8.343 57.5661 8.24811C57.7737 8.15321 57.998 8.10042 58.226 8.09277Z" fill="white"/>
<path d="M68.4281 9.78483C68.4311 10.2273 68.2613 10.6533 67.955 10.9717C67.6487 11.29 67.2303 11.4754 66.7894 11.488C66.5614 11.4985 66.3336 11.4627 66.1198 11.3827C65.9059 11.3027 65.7104 11.1802 65.5449 11.0225C65.3794 10.8648 65.2474 10.6752 65.1568 10.4651C65.0662 10.255 65.0188 10.0286 65.0176 9.79968C65.0244 9.33776 65.2129 8.89725 65.542 8.57409C65.871 8.25092 66.3141 8.07127 66.7746 8.07426C67.2154 8.09496 67.6317 8.28339 67.9389 8.60118C68.2461 8.91897 68.421 9.34224 68.4281 9.78483Z" fill="white"/>
<path d="M103.428 101.388C103.428 101.616 103.383 101.842 103.295 102.053C103.206 102.264 103.077 102.455 102.915 102.615C102.752 102.775 102.559 102.9 102.348 102.985C102.136 103.069 101.91 103.11 101.682 103.106C101.223 103.09 100.788 102.895 100.47 102.563C100.152 102.23 99.9764 101.786 99.9805 101.325C100.002 100.884 100.192 100.469 100.51 100.165C100.828 99.8602 101.25 99.6897 101.69 99.6884C101.917 99.6776 102.144 99.7139 102.357 99.7949C102.57 99.876 102.764 100 102.927 100.159C103.09 100.319 103.218 100.51 103.305 100.721C103.391 100.933 103.433 101.16 103.428 101.388Z" fill="white"/>
</g>
<defs>
<clipPath id="clip0_1016_1141">
<rect width="117" height="110" fill="white" transform="translate(0.107422)"/>
</clipPath>
</defs>
</svg>
