<svg width="120" height="102" viewBox="0 0 120 102" fill="none" xmlns="http://www.w3.org/2000/svg">
<path d="M59.5992 71.0906C58.6959 70.0358 57.971 69.1178 57.168 68.2665C55.8186 66.8415 55.681 65.3832 56.8186 63.7621C57.7628 62.4 58.6327 60.9898 59.7926 59.2243C59.1679 59.2999 58.5475 59.4074 57.9338 59.5463C54.4344 60.5876 50.9375 61.6412 47.4431 62.7072C41.5658 64.506 38.3241 68.7921 38.2944 74.9215C38.2609 82.9421 38.2944 90.9591 38.2944 98.9798C38.2944 101.678 38.0193 101.941 35.3204 101.941C25.8409 101.941 16.3613 101.941 6.88175 101.941C2.9784 101.941 0.904108 99.894 0.900391 96.041C0.900391 76.5476 0.900391 57.0541 0.900391 37.5607C0.900391 33.7039 2.96725 31.6386 6.88175 31.6386C20.2646 31.6386 33.6475 31.6584 47.0304 31.6978C51.2312 31.6978 53.1792 33.6706 53.1866 37.8309C53.1866 43.5086 53.1866 49.1827 53.1866 54.8568V57.4033C57.3762 56.0856 61.2758 55.0826 64.9859 53.6132C67.5658 52.5916 67.9598 48.709 66.0193 46.7288C62.6344 43.3992 60.5542 38.9761 60.1531 34.2554C60.0714 33.3782 60.0826 32.6639 58.8037 32.5047C55.2387 32.0606 53.0007 29.5437 53.0899 26.3902C53.1792 23.2367 55.5286 20.879 59.0862 20.5052C59.3278 20.483 59.562 20.4274 60.0453 20.3423V18.3584C60.0453 15.3974 59.9821 12.4364 60.0714 9.47533C60.2349 4.10847 64.1606 0.151794 69.5546 0.0555604C75.0045 -0.040673 80.458 0.00744368 85.9115 0.0555604C88.2684 0.0555604 89.681 1.43985 90.1271 3.69763C90.2692 4.44205 90.6347 5.12604 91.1754 5.65931C93.484 7.72462 94.6811 10.2378 94.6699 13.3247C94.6699 15.6528 94.6699 17.9846 94.6699 19.8019C96.6402 20.7346 98.4208 21.2306 99.7442 22.2892C101.629 23.7956 102.083 26.0201 101.339 28.3445C100.57 30.7466 98.8446 32.2197 96.3613 32.4714C94.9784 32.6121 94.6699 33.1191 94.5584 34.3813C94.1955 38.9169 92.2319 43.1782 89.0156 46.4105C86.3315 49.1605 87.313 53.0395 91.0676 54.1832C96.8037 55.9487 102.566 57.6476 108.313 59.365C114.261 61.1601 118.034 65.0501 119.558 71.061C119.744 71.7771 119.844 72.5126 119.856 73.2522C119.876 82.0711 119.876 90.8925 119.856 99.7164C119.856 99.8385 119.908 100.009 119.856 100.086C119.328 100.705 118.774 101.308 118.231 101.915C117.648 101.338 116.67 100.805 116.558 100.164C116.298 98.6837 116.458 97.0958 116.454 95.5524C116.454 88.768 116.454 81.9798 116.454 75.1953C116.454 68.8143 113.268 64.543 107.194 62.6887C103.819 61.656 100.439 60.6456 97.0565 59.6351C96.4877 59.4649 95.9003 59.3501 94.8966 59.1096C96.049 60.901 96.9338 62.3667 97.9078 63.7658C99.0231 65.3943 98.9115 66.8415 97.5361 68.2628C96.7257 69.103 96.0007 70.0247 95.0937 71.0795C95.8966 71.7606 96.6141 72.3935 97.3576 72.9968C98.7034 74.0813 99.0416 75.373 98.2275 76.9239C94.1011 84.7952 89.9735 92.6666 85.8446 100.538C85.2573 101.648 84.3948 102.389 83.1754 101.719C81.9561 101.049 82.2275 99.894 82.8037 98.8021C86.5472 91.7031 90.2386 84.5707 94.0379 77.5161C94.8446 76.0355 94.7591 75.2176 93.3427 74.2145C90.5807 72.2639 90.5175 70.9981 92.7033 68.496C95.0491 65.8052 95.049 65.8052 93.049 62.7331C92.5472 61.9632 92.0416 61.1971 91.2944 60.0497C90.8595 61.1342 90.5174 61.8707 90.2609 62.6406C86.2163 74.8178 82.1791 86.9963 78.1494 99.176C78.0118 99.5831 77.8632 99.9903 77.7331 100.401C77.3613 101.574 76.5918 102.274 75.3687 101.826C74.1457 101.378 73.9822 100.26 74.5026 99.2019C75.5435 97.0847 75.1345 95.1083 74.4208 92.98C70.9635 82.6904 67.6141 72.3639 64.2238 62.0521C64.0416 61.4895 63.8297 60.9417 63.4803 59.9646C62.194 61.9484 61.0825 63.5548 60.1122 65.2463C59.9301 65.5609 60.1977 66.2901 60.484 66.675C61.0936 67.5263 61.8669 68.2554 62.5286 69.0697C64.0156 70.9019 63.9003 72.1862 62.1568 73.6778C59.7776 75.6987 59.7888 75.6913 61.2572 78.4895C64.7665 85.1518 68.2646 91.8203 71.7516 98.4949C72.0565 99.0797 72.4357 99.783 72.3539 100.371C72.2721 100.96 71.6104 101.826 71.2387 101.808C70.4952 101.767 69.4803 101.389 69.1531 100.823C67.3873 97.7806 65.8074 94.6382 64.1569 91.5291C61.826 87.1061 59.5137 82.6756 57.1717 78.2563C55.4691 75.0436 55.5769 74.4551 58.3985 72.2047C58.7517 71.9049 59.0899 71.557 59.5992 71.0906ZM46.3279 59.3427C49.6736 58.51 49.6736 58.51 49.6736 55.4897C49.6736 49.6935 49.6736 43.8948 49.6736 38.0937C49.6736 35.562 49.3241 35.2178 46.7591 35.2104C33.624 35.1832 20.4889 35.1622 7.35387 35.1474C4.7219 35.1474 4.35385 35.5176 4.35385 38.1418C4.35385 57.2602 4.35385 76.3761 4.35385 95.4895C4.35385 98.0804 4.74796 98.4505 7.3948 98.4505C15.8806 98.4875 24.3663 98.5147 32.852 98.5319C33.4468 98.5319 34.0453 98.4727 34.7851 98.432V96.2112C34.7851 89.3046 34.655 82.3943 34.8557 75.484C34.9301 72.8931 35.7814 70.3245 36.2647 67.741C36.3998 67.2394 36.4537 66.7197 36.4245 66.2012C36.2572 65.0094 35.7888 63.8398 35.7702 62.6554C35.6959 56.9517 35.9263 56.8074 41.7182 56.7333C43.7962 56.7778 45.5584 57.0331 46.3279 59.3427ZM63.5769 23.9955C63.5769 27.2822 63.4803 30.2358 63.5955 33.1784C63.8297 39.0338 66.5695 43.5123 71.5324 46.5992C72.8189 47.4111 74.2631 47.9432 75.7705 48.1607C77.2779 48.3782 78.8144 48.2762 80.2795 47.8614C85.826 46.4364 90.6885 40.2811 91.0937 33.9371C91.2721 31.0501 91.2164 28.1446 91.1197 25.2539C91.1197 24.7616 90.4579 24.0584 89.9412 23.8511C87.4356 22.8481 84.8892 21.9487 82.3278 21.0937C81.7814 20.9086 80.9822 20.8309 80.5323 21.0937C76.9599 23.2071 73.0974 24.0547 68.9859 23.9955C67.2647 23.9733 65.5435 23.9955 63.5769 23.9955ZM63.6736 20.4459C66.3762 20.4459 68.9673 20.5829 71.5361 20.42C79.4246 19.9204 86.0602 13.1877 86.5509 5.3447C86.6178 4.23431 86.6067 3.42743 85.0937 3.44594C79.8892 3.50516 74.6848 3.41263 69.4803 3.50146C66.5547 3.54958 63.9041 5.58528 63.7257 8.31313C63.4692 12.2846 63.6736 16.2857 63.6736 20.4459ZM77.3427 61.9744C79.8632 59.4242 82.2424 57.0368 84.5881 54.6162C84.7075 54.4872 84.7979 54.3343 84.853 54.1677C84.9081 54.001 84.9269 53.8246 84.9078 53.6502C84.6067 52.5398 84.1941 51.4923 83.7926 50.319C79.3985 52.2511 75.0863 52.1326 70.8632 50.3412C70.4915 51.5256 70.1197 52.4398 69.9003 53.3911C69.8539 53.6106 69.8533 53.8372 69.8987 54.0569C69.9441 54.2766 70.0345 54.4847 70.1643 54.668C72.4505 57.0516 74.8 59.3983 77.3427 61.9744ZM77.2982 89.8376C80.142 85.4368 79.7516 80.688 78.5211 75.8949C78.4111 75.6788 78.2495 75.493 78.0506 75.3536C77.8516 75.2142 77.6213 75.1255 77.3799 75.0954C77.0082 75.0954 76.3205 75.5322 76.2647 75.8764C75.2833 80.6399 74.2387 85.4294 77.2982 89.8376ZM89.8929 9.33838L84.5361 18.6101L91.2758 20.7717C90.7814 16.5707 92.1234 12.788 89.8929 9.33838ZM88.313 56.9517L87.9859 56.8888L80.8855 64.1766C81.51 64.5134 82.4803 65.0205 83.4283 65.5609C84.6997 66.2827 85.5174 65.9643 85.9635 64.5764C86.5323 62.8257 87.1495 61.086 87.7071 59.3316C87.9524 58.5544 88.1122 57.7401 88.3093 56.9517H88.313ZM66.6587 56.911L66.2201 57.0442C67.1866 59.8498 68.1271 62.6628 69.168 65.4388C69.2721 65.7201 70.0974 66.0236 70.406 65.894C71.7182 65.3351 72.9673 64.6208 73.6439 64.2692L66.6587 56.911ZM74.4989 68.2295C75.5472 69.3251 76.5968 70.4182 77.6476 71.5089L80.6847 68.3332C77.6476 66.0162 76.9933 66.0014 74.4952 68.2295H74.4989ZM98.0862 27.1453C98.0862 25.1429 96.997 23.9659 95.6885 24.0325C93.9747 24.1213 94.8929 25.476 94.6884 26.2533C94.5732 26.7122 94.6884 27.2267 94.6884 27.7116C94.6252 29.081 95.432 29.4067 96.4208 28.8442C97.1978 28.4074 97.7405 27.5154 98.0714 27.1527L98.0862 27.1453ZM60.1159 26.6974C59.5992 25.8387 60.9598 24.1694 58.9189 24.0547C57.6178 23.9807 56.5509 25.2539 56.6178 26.6197C56.6847 28.0595 57.536 28.9552 58.9115 29.0107C60.7553 29.0884 59.6773 27.5043 60.1122 26.7048L60.1159 26.6974ZM72.3836 75.7987C73.5657 72.3935 72.8929 70.3133 70.3725 69.5065C71.0342 71.5903 71.6252 73.4483 72.3799 75.8061L72.3836 75.7987ZM42.51 60.8862L42.4208 60.3162C41.4468 60.3754 40.313 60.1718 39.5509 60.6086C39.1271 60.8492 39.313 62.1557 39.1792 63.4216L42.51 60.8862ZM82.3613 75.3841L84.261 69.5842C81.7368 71.8494 81.3985 72.8598 82.3576 75.3915L82.3613 75.3841Z" fill="white"/>
<path d="M26.9219 52.3327H11.8735C8.8252 52.3327 7.8736 51.3963 7.86245 48.3761C7.86245 46.2182 7.84015 44.0604 7.86245 41.9025C7.88847 39.5448 8.88841 38.4788 11.2341 38.4714C21.8215 38.4418 32.4102 38.4418 43 38.4714C45.0223 38.4714 46.1152 39.5411 46.1709 41.5472C46.2378 44.0122 46.223 46.481 46.1709 48.9498C46.1263 51.289 45.0818 52.3142 42.71 52.3253C37.4461 52.3549 32.1822 52.3253 26.9182 52.3253L26.9219 52.3327ZM27.2565 41.8988H16.2862C11.249 41.8988 11.3011 41.8988 11.2937 46.977C11.2937 48.4575 11.7806 48.8498 13.2193 48.8276C21.3345 48.7684 29.4498 48.8017 37.565 48.8017C42.8215 48.8017 42.7694 48.8017 42.7285 43.5163C42.7285 42.1764 42.2565 41.8507 41.0037 41.8655C36.4275 41.9321 31.8438 41.8988 27.2565 41.8988Z" fill="white"/>
<path d="M32.22 75.9168C32.22 76.7163 32.2758 77.5194 32.22 78.3115C32.0751 80.0474 31.0528 81.0024 29.3427 81.0986C27.801 81.18 26.2561 81.18 24.7144 81.0986C22.9635 81.0061 21.8929 79.8994 21.8148 78.1376C21.7479 76.657 21.7479 75.1765 21.8148 73.696C21.9003 71.8454 22.9746 70.8127 24.8928 70.735C26.127 70.6795 27.3649 70.7017 28.6103 70.735C31.2609 70.7794 32.194 71.6899 32.2609 74.2734C32.2609 74.8286 32.2609 75.3838 32.2609 75.9353L32.22 75.9168ZM28.6475 74.303H25.5397C24.8519 77.6638 25.5397 78.2893 28.6475 77.2826V74.303Z" fill="white"/>
<path d="M26.9705 67.2042C26.1676 67.2042 25.3609 67.2597 24.5616 67.2042C22.9111 67.0635 21.9593 66.0938 21.8218 64.4874C21.7196 62.8926 21.7196 61.2928 21.8218 59.698C21.911 58.0768 22.8367 57.0256 24.4836 56.9072C26.1456 56.7887 27.814 56.7887 29.4761 56.9072C31.1973 57.0219 32.1526 58.0657 32.227 59.7979C32.2828 61.0267 32.2642 62.2555 32.2493 63.4992C32.2159 66.3344 31.3014 67.2338 28.4612 67.2634C27.9668 67.2634 27.4724 67.2634 26.9742 67.2634L26.9705 67.2042ZM25.5208 60.4308C24.8813 63.7398 25.4278 64.2616 28.6397 63.4733V60.4308H25.5208Z" fill="white"/>
<path d="M26.9816 94.979C26.2381 94.979 25.4946 95.0198 24.7511 94.979C22.9556 94.8643 21.8775 93.8427 21.7772 92.0735C21.6954 90.5398 21.6954 89.0029 21.7772 87.4691C21.8775 85.7517 22.8924 84.7376 24.6098 84.634C26.2117 84.5322 27.8185 84.5322 29.4203 84.634C31.1489 84.7487 32.1006 85.7962 32.1824 87.5173C32.2456 88.8682 32.2344 90.2229 32.2084 91.5887C32.1601 93.9242 31.1377 94.9198 28.7994 94.9901C28.1823 94.9901 27.5652 94.9901 26.9407 94.9901L26.9816 94.979ZM28.688 87.9022C27.4203 88.1428 26.1861 88.065 25.4686 88.6424C25.0559 88.9682 25.1489 90.841 25.5913 91.1297C26.3682 91.6331 27.5913 91.4517 28.688 91.5628V87.9022Z" fill="white"/>
<path d="M13.0378 67.2119C12.2943 67.2119 11.5508 67.2489 10.8073 67.2119C9.01924 67.1045 7.95237 66.083 7.8743 64.3027C7.80739 62.7703 7.79995 61.2306 7.8743 59.6983C7.96352 57.9735 8.96717 56.9741 10.6921 56.8705C12.2324 56.7854 13.7763 56.7854 15.3166 56.8705C17.2051 56.9667 18.1865 58.029 18.2906 59.9648C18.3426 61.127 18.3166 62.2966 18.2906 63.4625C18.2608 66.2792 17.3241 67.2119 14.5099 67.2378C14.0155 67.2378 13.5211 67.2378 13.0229 67.2378L13.0378 67.2119ZM14.6921 60.2646C13.5768 60.4052 12.3538 60.2831 11.5025 60.7864C11.1121 61.0159 11.1122 62.948 11.5546 63.2774C12.2981 63.8178 13.5248 63.6883 14.6921 63.8659V60.2646Z" fill="white"/>
<path d="M13.0596 81.121C12.3161 81.121 11.5726 81.158 10.8291 81.121C9.04101 81.0062 7.96287 79.9773 7.87737 78.2118C7.80674 76.7312 7.81418 75.2507 7.87737 73.7887C7.948 71.8752 8.96659 70.8277 10.8514 70.7389C12.3383 70.6685 13.8254 70.6722 15.2901 70.7389C17.1488 70.8314 18.1265 71.8048 18.2641 73.6296C18.3458 74.851 18.3086 76.0872 18.2975 77.3309C18.2789 80.1327 17.3049 81.1136 14.5354 81.1432H13.0484L13.0596 81.121ZM11.5428 74.2773C11.0112 77.7121 11.3867 78.0711 14.6655 77.3753V74.2773H11.5428Z" fill="white"/>
<path d="M7.87017 89.7078C7.87017 88.9675 7.83299 88.2273 7.87017 87.487C7.97797 85.7548 8.94824 84.7407 10.6583 84.6222C12.2601 84.5205 13.8668 84.5205 15.4687 84.6222C17.1973 84.7296 18.175 85.7585 18.2605 87.4759C18.3441 89.0096 18.3441 90.5467 18.2605 92.0803C18.1527 93.8866 17.1006 94.8748 15.2865 94.9562C13.9965 95.0192 12.6843 94.9895 11.4018 94.9562C8.86273 94.9229 7.88502 93.9199 7.85156 91.3401C7.85156 90.7849 7.85156 90.2297 7.85156 89.6819L7.87017 89.7078ZM11.5876 88.1792C10.9036 91.5103 11.3385 91.936 14.6954 91.2809V88.1792H11.5876Z" fill="white"/>
</svg>
