<svg width="168" height="128" viewBox="0 0 168 128" fill="none" xmlns="http://www.w3.org/2000/svg">
<path d="M41.2046 127.164V114.1H0.0079064V111.536C0.0079064 104.167 -0.0329507 96.799 0.0710908 89.4343C0.353489 69.3692 19.4228 54.3798 38.6779 59.0876C43.6385 60.299 47.9674 62.744 51.9135 66.2182C60.5118 56.6687 71.0014 51.1693 83.988 51.1359C96.9746 51.1025 107.397 56.4978 115.776 65.6794C119.024 63.8587 121.982 61.737 125.263 60.4402C139.948 54.6436 156.026 60.652 163.628 74.5192C166.259 79.1789 167.685 84.422 167.775 89.7725C167.857 97.4493 167.812 105.13 167.812 112.81C167.784 113.236 167.735 113.66 167.663 114.081H127.002V127.164H41.2046ZM120.941 121.197C120.941 112.676 120.904 104.446 120.941 96.2156C120.982 90.1032 119.827 84.2434 117.129 78.7812C110.965 66.3557 101.151 58.6678 87.1836 57.3041C66.2861 55.2641 48.5284 72.3158 47.4063 92.7042C46.8972 101.901 47.2539 111.146 47.2279 120.372C47.2599 120.652 47.3184 120.928 47.4026 121.197H120.941ZM48.3204 71.4054C45.3076 68.3598 41.5464 66.1607 37.4146 65.0292C23.5176 61.1276 8.39439 71.346 6.50307 86.2351C5.82308 91.6044 6.15751 97.1037 6.04975 102.544C6.01631 104.316 6.04975 106.092 6.04975 107.92H41.3198C40.8814 95.1566 40.6138 82.5304 48.3204 71.4054ZM126.965 107.946H162.001C161.77 100.396 162.179 92.9086 161.179 85.6145C159.374 72.4681 147.1 63.1638 134.14 64.3455C128.566 64.8545 123.888 67.2698 119.886 70.9707C120.893 72.9029 121.852 74.6307 122.714 76.4069C126.385 83.961 127.24 92.0131 126.976 100.277C126.894 102.796 126.965 105.316 126.965 107.946Z" fill="#703773"/>
<path d="M107.981 24.431C108.066 37.0944 97.5764 48.3792 83.9284 48.2974C77.5975 48.2454 71.544 45.6917 67.0889 41.1933C62.6337 36.695 60.1384 30.6172 60.1475 24.2861C60.1759 17.9568 62.7077 11.8959 67.1898 7.42704C71.672 2.95814 77.7403 0.44433 84.0696 0.434578C87.2175 0.4321 90.3349 1.05172 93.2427 2.25783C96.1504 3.46394 98.7911 5.23277 101.013 7.46266C103.235 9.69255 104.994 12.3395 106.19 15.2515C107.386 18.1635 107.994 21.2831 107.981 24.431V24.431ZM101.972 24.3195C101.964 21.9611 101.49 19.6274 100.578 17.4524C99.6662 15.2774 98.3339 13.3038 96.6576 11.6447C94.9813 9.98566 92.994 8.67381 90.8096 7.78438C88.6253 6.89494 86.2868 6.4454 83.9284 6.46156C81.5694 6.4877 79.2388 6.97946 77.0703 7.90861C74.9018 8.83775 72.9382 10.186 71.2921 11.8759C69.6459 13.5659 68.3498 15.5643 67.4779 17.7565C66.6061 19.9486 66.1758 22.2914 66.2116 24.6503C66.2748 34.3113 74.3566 42.2519 84.1402 42.2444C86.4909 42.2509 88.8195 41.7909 90.9912 40.891C93.1628 39.9912 95.1343 38.6694 96.7915 37.0022C98.4487 35.335 99.7586 33.3555 100.645 31.1785C101.532 29.0015 101.978 26.6702 101.957 24.3195H101.972Z" fill="#703773"/>
<path d="M118.619 39.2011C118.607 34.5107 120.448 30.0053 123.741 26.6651C127.033 23.325 131.512 21.4203 136.202 21.3654C138.557 21.329 140.896 21.7595 143.084 22.6318C145.272 23.5042 147.265 24.8012 148.949 26.4481C150.632 28.0949 151.973 30.0589 152.894 32.2267C153.815 34.3946 154.297 36.7233 154.313 39.0785C154.339 41.4341 153.898 43.7715 153.016 45.9558C152.133 48.1401 150.827 50.1279 149.172 51.8045C147.517 53.4812 145.547 54.8133 143.374 55.7241C141.202 56.635 138.87 57.1064 136.514 57.1111C126.564 57.1446 118.679 49.2671 118.619 39.2011ZM136.529 27.3812C134.964 27.3704 133.412 27.6704 131.963 28.2638C130.514 28.8573 129.197 29.7323 128.089 30.8383C126.981 31.9443 126.104 33.2593 125.508 34.7069C124.911 36.1546 124.609 37.7061 124.616 39.2717C124.634 42.4028 125.89 45.3999 128.109 47.6088C130.328 49.8176 133.331 51.0589 136.462 51.0618C139.594 51.0434 142.593 49.7923 144.809 47.5795C147.025 45.3667 148.281 42.3701 148.304 39.2383C148.316 32.7617 142.954 27.3701 136.514 27.3812H136.529Z" fill="#703773"/>
<path d="M49.1713 39.1795C49.227 49.2604 41.3682 57.0895 31.1573 57.1006C21.6003 57.1006 13.5817 49.1006 13.5185 39.473C13.484 37.1015 13.9219 34.7468 14.8068 32.5463C15.6916 30.3457 17.0057 28.3434 18.6724 26.6559C20.3391 24.9685 22.3251 23.6297 24.5145 22.7177C26.7039 21.8056 29.053 21.3386 31.4248 21.3438C41.305 21.3624 49.1193 29.2138 49.1713 39.1795ZM43.2261 39.2984C43.2342 36.1685 42.0079 33.1615 39.8132 30.93C37.6185 28.6984 34.6325 27.4222 31.5028 27.3782C28.3381 27.3673 25.2986 28.6139 23.0528 30.8437C20.807 33.0735 19.5387 36.1039 19.5269 39.2687C19.5551 42.396 20.8112 45.387 23.0244 47.5967C25.2376 49.8064 28.2305 51.0578 31.3579 51.0811C34.4884 51.0744 37.4899 49.8334 39.7111 47.6275C41.9323 45.4216 43.194 42.4287 43.2224 39.2984H43.2261Z" fill="#703773"/>
</svg>
