<svg width="190" height="191" viewBox="0 0 190 191" fill="none" xmlns="http://www.w3.org/2000/svg">
<path d="M113.199 85.8688L113.269 85.3736C113.702 82.7114 113.021 81.0176 110.282 79.6135C104.215 76.5057 99.7328 71.5677 96.8676 65.362C95.6839 62.8039 94.9683 60.013 94.2303 57.2766C93.948 56.239 93.6384 55.7116 92.5365 55.4515C85.558 53.7998 81.8435 46.9006 84.4065 40.2119C85.8502 36.4454 88.7674 34.1745 92.6652 33.2335C93.5394 33.0205 93.8415 32.6441 93.9901 31.7898C95.679 22.0304 100.627 14.2769 108.774 8.70749C113.456 5.4592 118.956 3.59125 124.648 3.31644C132.183 2.9747 139.741 3.0688 147.289 3.02423C149.023 3.02423 150.768 2.98956 152.47 3.22729C156.86 3.84639 159.995 7.51884 160.015 11.9763C160.047 18.5387 160.047 25.1011 160.015 31.6635C160.015 32.6169 160.263 32.9982 161.219 33.236C168.44 35.0239 172.201 42.2475 169.329 48.8891C167.791 52.4452 165.017 54.6739 161.211 55.4936C160.27 55.6967 159.881 56.0459 159.703 57.0513C158.046 66.3451 152.99 73.4548 145.197 78.5462C143.111 79.9107 142.591 81.4485 142.777 83.5955C142.978 85.901 143 85.849 145.303 86.166C158.032 87.9193 167.283 94.5114 172.922 106.098C173.014 106.284 173.093 106.475 173.17 106.665C174.16 109.075 174.16 109.065 176.842 109.077C178.576 109.077 180.309 109.152 182.043 109.142C186.267 109.117 190.15 112.963 189.967 117.98C189.883 120.209 189.942 122.437 189.942 124.666C189.942 143.61 189.855 162.555 189.999 181.501C190.039 186.563 186.245 190.664 180.871 190.639C160.813 190.508 140.754 190.587 120.695 190.59H76.7446C72.3788 190.59 69.474 188.557 68.1541 184.505C67.9479 183.837 67.8443 183.142 67.847 182.442C67.8148 178.852 67.8222 175.261 67.8297 171.67C67.8297 170.311 68.3819 169.578 69.3601 169.555C70.4001 169.533 70.9871 170.281 70.9945 171.72C71.0118 175.023 71.1455 178.332 70.9697 181.625C70.7939 184.919 73.3495 187.514 76.8016 187.497C93.9306 187.413 111.06 187.457 128.189 187.457C145.771 187.457 163.353 187.41 180.936 187.502C184.219 187.519 186.859 185.129 186.839 181.558C186.735 162.324 186.792 143.09 186.795 123.859C186.795 121.714 186.812 119.57 186.78 117.42C186.738 114.587 184.799 112.51 181.988 112.22C181.493 112.17 180.997 112.183 180.502 112.183H105.589C105.176 112.209 104.761 112.19 104.351 112.128C103.977 112.073 103.639 111.877 103.404 111.581C103.169 111.285 103.056 110.91 103.088 110.533C103.106 109.64 103.653 109.186 104.497 109.112C105.154 109.053 105.817 109.063 106.478 109.063H170.56C170.464 108.635 170.342 108.214 170.193 107.802C167.095 100.754 162.036 95.6084 155.132 92.2282C151.719 90.5566 148.109 89.6527 144.36 89.1847C143.369 89.0609 142.874 89.202 142.589 90.3808C141.762 93.8477 139.224 95.9501 136.15 97.2453C129.873 99.8777 123.672 99.6994 117.825 95.9402C115.624 94.5238 113.974 92.5649 113.504 89.8805C113.345 88.9767 112.801 89.1178 112.243 89.1698C108.872 89.4927 105.565 90.3009 102.425 91.5694C101.865 91.7923 100.956 91.6313 100.444 91.2946C100.107 91.0766 99.9804 90.1406 100.149 89.6651C100.317 89.1896 100.936 88.8603 101.437 88.6473C105.013 87.1265 108.819 86.2175 112.697 85.958C112.866 85.9379 113.034 85.9081 113.199 85.8688ZM160.03 36.4379C160.03 37.4285 160.03 38.3844 160.03 39.3279C160.003 43.8473 156.563 47.4652 152.272 47.4726C147.814 47.4726 144.347 43.9909 144.335 39.4046C144.315 35.6083 144.335 31.8121 144.322 28.0133C144.322 27.5775 144.285 27.1416 144.256 26.4507C133.236 32.4411 121.721 33.7461 109.586 31.4035C109.586 31.9978 109.586 32.4436 109.586 32.8893C109.586 35.1527 109.623 37.4186 109.554 39.6795C109.44 43.3272 106.83 46.5118 103.39 47.2894C98.6234 48.3666 94.0124 44.7561 93.8489 39.7984C93.8118 38.6667 93.8489 37.535 93.8489 36.2918C93.4412 36.3385 93.0362 36.4063 92.6355 36.4949C87.871 37.8717 85.3797 43.5575 87.6283 47.9853C89.1141 50.9272 91.6078 52.4427 94.8494 52.6507C96.2262 52.7374 96.9122 53.2773 96.9766 54.6318C96.9915 54.9587 97.0781 55.2831 97.1202 55.61C97.7122 60.1348 99.4314 64.4384 102.12 68.1256C107.506 75.5547 114.792 79.8933 123.981 80.8319C131.886 81.6367 139.087 79.6259 145.35 74.8019C151.895 69.7625 155.882 63.1134 156.907 54.8101C157.13 53.0049 157.338 52.829 159.136 52.6829C164.304 52.2694 167.836 47.8466 166.999 42.8641C166.394 39.4319 162.823 36.3414 160.03 36.4429V36.4379ZM156.892 25.7177C156.892 21.219 156.892 16.7194 156.892 12.219C156.892 9.13592 154.854 6.77098 151.818 6.30047C151.534 6.24739 151.246 6.21511 150.957 6.20388C142.376 6.25836 133.785 6.10483 125.215 6.45152C119.213 6.65877 113.441 8.80481 108.762 12.5682C100.109 19.5169 96.1495 28.6349 96.9444 39.7464C97.1722 42.9657 100.292 45.0656 103.21 44.0379C104.998 43.4064 106.352 41.5368 106.392 39.4368C106.451 36.1779 106.409 32.919 106.441 29.6601C106.459 28.0529 107.202 27.5081 108.747 27.8425C110.396 28.199 112.04 28.6151 113.7 28.833C124.128 30.2743 133.991 28.62 143.193 23.385C144.01 22.9194 144.367 22.3944 144.342 21.4262C144.295 19.5936 144.724 18.982 145.85 18.9696C146.977 18.9572 147.415 19.6234 147.418 21.394C147.418 27.3794 147.418 33.3648 147.418 39.3502C147.418 41.6408 148.928 43.6169 151.001 44.1271C154.082 44.8848 156.831 42.6784 156.863 39.3328C156.925 34.8035 156.892 30.2619 156.892 25.7227V25.7177ZM116.352 82.4539C116.476 85.0788 116.379 87.4438 116.785 89.7171C116.986 90.8488 117.887 92.1217 118.848 92.8076C124.078 96.5569 129.712 96.7921 135.44 94.0755C137.649 93.028 139.493 91.4283 139.649 88.7067C139.778 86.6117 139.768 84.4969 139.798 82.4044C139.798 82.1914 139.649 81.976 139.538 81.6788C135.93 83.1641 132.086 83.9943 128.186 84.1304C124.173 84.2742 120.167 83.7066 116.352 82.4539Z" fill="white"/>
<path d="M87.7552 89.8134C88.934 89.8134 90.0459 89.8134 91.1578 89.8134C95.645 89.8605 98.9138 93.0723 98.9212 97.5595C98.9361 105.15 98.8593 112.74 98.8618 120.342C98.8618 132.889 98.8832 145.436 98.9262 157.983C98.9262 162.936 95.7911 166.135 90.8408 166.138C81.3489 166.138 71.8544 166.163 62.3625 166.138C55.9759 166.12 49.5894 165.982 43.2028 165.989C31.4896 165.989 19.7788 166.093 8.06554 166.13C3.03602 166.145 -0.00247486 163.079 1.51252e-06 158.018C0.00990701 145.388 0.0247634 132.759 0.0445744 120.129C0.0445744 112.784 0.00989431 105.439 0.00246519 98.0895C0.00246519 92.8891 3.14746 89.7664 8.31565 89.7911C12.1119 89.8085 15.9107 89.7565 19.707 89.8233C20.7446 89.8431 21.116 89.5311 21.3067 88.5084C22.1908 83.7736 26.5888 81.0421 31.1156 82.4933C33.9214 83.3922 35.6078 85.4996 36.1724 88.3722C36.3903 89.4841 36.7865 89.8407 37.9281 89.8332C47.4622 89.7837 56.9962 89.7961 66.5302 89.7911C68.0557 89.7911 69.5811 89.7664 71.1041 89.7911C71.9188 89.8134 72.2903 89.6351 72.4463 88.6867C73.3031 83.5358 78.5283 80.6211 83.0625 82.7434C85.3086 83.7983 86.7226 85.6383 87.3887 88.0304C87.5274 88.548 87.6042 89.0879 87.7552 89.8134ZM49.5473 107.178H4.74968C3.13014 107.178 3.12518 107.178 3.12518 108.82C3.12518 114.51 3.12518 120.2 3.12518 125.889C3.12518 136.62 3.12518 147.351 3.12518 158.082C3.12518 161.301 4.8215 162.985 7.99869 162.995C20.8758 163.027 33.7464 163.055 46.6103 163.082C52.306 163.082 58.0016 163.01 63.6824 163C72.7212 162.985 81.7583 162.985 90.7937 163C94.013 163 95.7787 161.249 95.7812 158.03C95.7812 141.521 95.7812 125.018 95.7812 108.522C95.7812 107.512 95.5038 107.155 94.4563 107.173C90.9101 107.23 87.364 107.2 83.8079 107.2L49.5473 107.178ZM21.012 93.0104C16.2822 93.0104 11.7058 92.9361 7.14433 93.0401C4.83388 93.0946 3.23909 94.9197 3.15984 97.2995C3.10041 99.1147 3.20194 100.935 3.11775 102.748C3.06822 103.827 3.50655 104.075 4.48719 104.06C7.70647 104.015 10.9258 104.043 14.145 104.043H80.6134C85.2318 104.043 89.8527 104.01 94.4811 104.043C95.4989 104.043 95.8753 103.738 95.8332 102.703C95.7663 101.098 95.8332 99.4837 95.8158 97.8765C95.7886 94.8008 93.9586 92.9782 90.8631 92.9683C86.2818 92.9683 81.7005 92.9683 77.1242 92.9683H75.5665V97.6189H76.515C77.669 97.6189 78.8279 97.562 79.9819 97.6189C80.918 97.6759 81.5494 98.2182 81.5098 99.2137C81.4727 100.155 80.9551 100.757 79.9423 100.759C75.9429 100.759 71.9411 100.781 67.9418 100.742C67.4985 100.742 66.8819 100.534 66.6615 100.209C66.3841 99.8007 66.1662 99.0008 66.3965 98.6764C66.7827 98.1365 67.3649 97.7693 68.0185 97.6536C69.3905 97.505 70.7846 97.6066 72.315 97.6066C72.315 96.7745 72.315 96.1208 72.315 95.4719C72.315 92.946 72.3151 92.946 69.7991 92.946H25.4868H24.2486C24.2486 94.2511 24.2858 95.4051 24.2363 96.5516C24.2016 97.3837 24.5532 97.6264 25.3358 97.5991C26.4898 97.557 27.6487 97.5546 28.8027 97.6264C29.7412 97.6833 30.4148 98.2702 30.3702 99.2088C30.3745 99.4186 30.3351 99.627 30.2544 99.8208C30.1738 100.015 30.0537 100.189 29.9019 100.334C29.75 100.479 29.5697 100.591 29.3724 100.662C29.1751 100.734 28.965 100.763 28.7556 100.749C24.7117 100.749 20.6703 100.724 16.6214 100.68C16.245 100.68 15.7052 100.544 15.5368 100.284C15.2594 99.8502 14.9548 99.1097 15.148 98.7754C15.4402 98.2628 16.1138 97.723 16.6784 97.6611C18.0899 97.5026 19.5287 97.6091 21.0467 97.6091L21.012 93.0104ZM33.176 89.7094C32.8194 86.8269 30.6996 84.9424 28.3545 85.2371C26.0663 85.5268 24.1991 87.659 24.4938 89.7094H33.176ZM75.5591 89.7094H84.3577C84.1521 87.1563 82.3196 85.2668 80.0636 85.2C77.8077 85.1331 75.881 87.0028 75.5665 89.7144L75.5591 89.7094Z" fill="white"/>
<path d="M27.7605 18.6402C25.9998 20.126 24.2762 21.3369 22.8647 22.8326C16.4434 29.6427 14.1974 37.7057 16.275 46.8213C18.7514 57.7569 28.6569 65.9141 39.8551 66.5035C40.4321 66.5357 41.0932 66.4218 41.5638 66.6546C42.0343 66.8874 42.7648 67.4668 42.7846 67.9175C42.9035 70.6737 42.9406 73.4398 42.8366 76.196C42.7549 78.3752 42.3933 78.6476 40.1572 78.5585C28.7114 78.1078 19.2368 73.4968 12.0181 64.6388C4.34139 55.2286 1.86501 44.3746 4.43301 32.5549C6.85243 21.384 13.3628 13.0832 23.303 7.48657C24.1375 7.01605 24.3307 6.58021 23.9939 5.7531C23.7462 5.14392 23.5902 4.49759 23.3773 3.87355C22.9513 2.63536 23.3525 1.64481 24.3827 0.966285C25.3732 0.312522 26.3167 0.513102 27.2206 1.25354C29.8728 3.42036 32.525 5.58471 35.2143 7.69211C36.4377 8.65294 36.8611 9.75245 36.3733 11.2655C35.3208 14.5195 34.3253 17.7933 33.3224 21.0645C32.9608 22.2458 32.2774 23.058 30.9773 23.0704C29.6772 23.0828 28.9739 22.2928 28.6346 21.0893C28.4415 20.3959 28.1492 19.7199 27.7605 18.6402ZM27.3494 5.51538C27.3989 5.96113 27.4039 6.11466 27.4361 6.25829C27.9313 8.48703 27.8298 8.73467 25.8165 9.72522C20.9197 12.1568 16.6784 15.7288 13.4495 20.1408C8.09558 27.4263 5.90646 35.581 6.85491 44.5133C7.73898 52.8587 11.2802 59.9857 17.3572 65.8101C23.3005 71.4909 30.4052 74.6235 38.5822 75.3838C39.6223 75.4804 39.9219 75.0198 39.8798 74.1184C39.8377 73.2541 39.7213 72.3849 39.7535 71.5281C39.8154 69.7649 39.8451 69.7723 38.186 69.547C37.7378 69.49 37.292 69.3959 36.8438 69.3266C28.9516 68.071 22.5229 64.2228 17.9515 57.7569C11.4238 48.5226 10.5843 38.5353 15.2919 28.2311C17.8698 22.585 22.0425 18.3257 27.5128 15.354C29.0506 14.5219 29.9892 14.9528 30.5563 16.5922C30.6529 16.872 30.8039 17.137 31.0293 17.6521C31.5617 16.0301 32.0471 14.6804 32.4482 13.3085C33.5255 9.6212 33.8028 10.7281 30.9624 8.37559C30.4547 7.95213 29.9496 7.53115 29.4295 7.12255C28.8129 6.62479 28.1765 6.15181 27.3494 5.51538Z" fill="#C84CFF"/>
<path d="M74.373 39.9121C74.5488 54.5574 65.7676 67.2909 52.1575 72.105C51.6622 72.2833 51.1372 72.4219 50.6221 72.5631C49.6984 72.8107 48.963 72.5879 48.641 71.6369C48.3191 70.686 48.7896 70.0025 49.8594 69.5667C51.7637 68.7916 53.73 68.1155 55.5154 67.12C63.8757 62.4669 69.1355 55.3671 70.7897 45.9966C73.0061 33.5156 67.6819 21.8148 57.2935 15.1137C53.4712 12.6338 49.1213 11.0835 44.5921 10.5869C43.3193 10.4408 42.7151 9.87122 42.7745 8.85343C42.8389 7.77868 43.5174 7.28836 44.9091 7.44437C51.1001 8.14023 56.61 10.4655 61.5256 14.242C65.4503 17.2878 68.6419 21.1751 70.8653 25.6176C73.0887 30.0602 74.2874 34.9449 74.373 39.9121Z" fill="white"/>
<path d="M116.38 149.888C116.363 142.838 121.828 137.343 128.888 137.311C130.53 137.306 132.158 137.625 133.676 138.25C135.195 138.875 136.576 139.793 137.739 140.953C138.903 142.112 139.826 143.49 140.456 145.006C141.086 146.523 141.41 148.149 141.411 149.792C141.424 151.435 141.112 153.065 140.494 154.588C139.876 156.112 138.964 157.498 137.809 158.668C136.655 159.838 135.281 160.769 133.766 161.408C132.252 162.046 130.626 162.379 128.982 162.389C121.929 162.389 116.4 156.911 116.38 149.888ZM128.834 159.234C134.017 159.234 138.264 155.054 138.259 149.945C138.259 144.67 134.113 140.461 128.918 140.443C123.621 140.426 119.508 144.606 119.508 149.982C119.522 155.051 123.732 159.229 128.834 159.234Z" fill="white"/>
<path d="M42.913 41.1945C45.2829 41.1945 47.4968 41.1796 49.7131 41.1945C50.9934 41.1945 51.6645 41.7838 51.5927 42.8091C51.5308 43.6733 51.1544 44.332 50.1564 44.332C47.1848 44.332 44.2131 44.3519 41.2415 44.3023C39.9909 44.28 39.7358 43.3613 39.7383 42.3212C39.7532 37.7845 39.7688 33.2494 39.7854 28.716C39.7854 27.4382 39.768 26.1579 39.7854 24.8801C39.8027 23.6023 40.3623 22.8767 41.3009 22.8495C42.3088 22.8198 42.9576 23.5577 42.9551 24.8677C42.9551 29.8205 42.918 34.7732 42.8957 39.7111C42.9105 40.1544 42.913 40.5977 42.913 41.1945Z" fill="#C84CFF"/>
<path d="M13.6691 149.86C13.6639 149.056 13.8175 148.259 14.1211 147.515C14.4247 146.77 14.8724 146.093 15.4384 145.522C16.0044 144.951 16.6776 144.497 17.4194 144.187C18.1612 143.877 18.9569 143.716 19.761 143.714C23.0917 143.714 25.9321 146.522 25.9321 149.823C25.9321 153.124 23.1065 155.989 19.8006 155.969C18.1781 155.97 16.6215 155.327 15.4721 154.182C14.3227 153.037 13.6743 151.483 13.6691 149.86ZM19.7808 152.782C20.1727 152.781 20.5606 152.703 20.922 152.551C21.2835 152.4 21.6114 152.178 21.8869 151.9C22.1624 151.621 22.3801 151.291 22.5274 150.927C22.6746 150.564 22.7486 150.175 22.745 149.783C22.7121 148.995 22.3718 148.251 21.7969 147.71C21.2221 147.17 20.4583 146.875 19.6693 146.891C18.9001 146.926 18.1751 147.261 17.6487 147.823C17.1224 148.385 16.8362 149.13 16.8512 149.9C16.8741 150.664 17.1904 151.39 17.7347 151.927C18.2789 152.464 19.009 152.77 19.7733 152.782H19.7808Z" fill="white"/>
<path d="M54.9681 149.948C55.2157 152.919 51.9618 156.119 48.7771 156.037C45.7758 155.963 42.6976 153.189 42.7769 149.868C42.8586 146.372 45.5281 143.695 49.0372 143.747C52.3084 143.794 54.9928 146.602 54.9681 149.948ZM51.8132 149.881C51.8197 149.499 51.7504 149.12 51.6092 148.766C51.4681 148.411 51.2579 148.088 50.9908 147.816C50.7238 147.543 50.4052 147.326 50.0537 147.178C49.7022 147.03 49.3246 146.953 48.943 146.951C48.5521 146.939 48.1628 147.006 47.7987 147.149C47.4346 147.292 47.1035 147.507 46.8254 147.782C46.5474 148.057 46.3282 148.386 46.1814 148.749C46.0346 149.111 45.9631 149.5 45.9714 149.891C45.9656 150.281 46.0388 150.669 46.1865 151.03C46.3341 151.391 46.5533 151.719 46.8309 151.994C47.1084 152.268 47.4386 152.484 47.8016 152.628C48.1645 152.771 48.5528 152.84 48.943 152.83C49.711 152.808 50.4403 152.488 50.9761 151.937C51.512 151.387 51.8122 150.649 51.8132 149.881Z" fill="white"/>
<path d="M54.9711 118.438C54.9856 119.243 54.8393 120.042 54.5406 120.79C54.242 121.538 53.7971 122.218 53.232 122.792C52.6669 123.365 51.9929 123.82 51.2498 124.129C50.5066 124.439 49.7091 124.597 48.904 124.594C48.1094 124.606 47.3202 124.461 46.5822 124.166C45.8441 123.871 45.172 123.433 44.6046 122.877C44.0373 122.32 43.5861 121.656 43.2771 120.924C42.9681 120.192 42.8075 119.406 42.8047 118.611C42.8047 115.095 45.3504 112.447 48.7926 112.403C49.5967 112.385 50.3964 112.528 51.1446 112.823C51.8928 113.118 52.5747 113.56 53.1501 114.122C53.7255 114.684 54.183 115.355 54.4957 116.096C54.8084 116.837 54.97 117.633 54.9711 118.438ZM48.8371 121.451C49.2288 121.457 49.6177 121.384 49.9806 121.236C50.3436 121.089 50.6733 120.87 50.9503 120.593C51.2273 120.316 51.446 119.986 51.5934 119.623C51.7409 119.26 51.8141 118.872 51.8088 118.48C51.8088 116.922 50.4468 115.523 48.9189 115.508C48.1467 115.507 47.4049 115.809 46.8536 116.35C46.3023 116.89 45.9856 117.626 45.972 118.398C45.9299 120.124 47.1482 121.424 48.8371 121.451Z" fill="white"/>
<path d="M71.2946 118.416C71.2981 117.62 71.4592 116.834 71.7684 116.101C72.0776 115.368 72.5289 114.704 73.0962 114.147C73.6635 113.589 74.3355 113.15 75.0736 112.853C75.8117 112.557 76.6011 112.41 77.3964 112.42C78.2016 112.413 79.0003 112.565 79.746 112.869C80.4917 113.173 81.1695 113.622 81.74 114.19C82.3104 114.758 82.762 115.435 83.0685 116.179C83.3751 116.924 83.5304 117.722 83.5254 118.527C83.5173 119.332 83.3508 120.127 83.0352 120.868C82.7197 121.608 82.2613 122.279 81.6864 122.842C81.1115 123.405 80.4312 123.85 79.6845 124.15C78.9378 124.45 78.1392 124.6 77.3345 124.592C76.5315 124.586 75.7378 124.421 74.9988 124.107C74.2599 123.792 73.5905 123.335 73.029 122.761C72.4676 122.187 72.0254 121.507 71.7277 120.762C71.43 120.016 71.2828 119.219 71.2946 118.416ZM77.3741 121.454C78.1598 121.449 78.9124 121.137 79.4719 120.585C80.0314 120.034 80.3538 119.286 80.3705 118.5C80.3548 117.734 80.05 117.002 79.5173 116.45C78.9846 115.899 78.2633 115.57 77.4979 115.528C76.7109 115.524 75.9528 115.824 75.3819 116.366C74.8111 116.908 74.4717 117.649 74.4346 118.436C74.4381 119.221 74.7465 119.975 75.2948 120.538C75.8431 121.102 76.5885 121.43 77.3741 121.454Z" fill="white"/>
<path d="M76.8172 150.806C78.3031 149.321 79.6576 147.941 81.0147 146.579C81.3467 146.214 81.7069 145.875 82.0919 145.566C82.8348 145.029 83.6025 145.071 84.2117 145.73C84.7813 146.339 84.8308 147.139 84.2464 147.748C82.1662 149.912 80.0613 152.052 77.9068 154.142C77.2308 154.801 76.3963 154.717 75.6979 154.036C74.4028 152.773 73.1027 151.515 71.8298 150.227C71.1117 149.499 71.0547 148.667 71.7927 147.936C72.5306 147.206 73.3677 147.33 74.0858 148.025C74.9971 148.907 75.8614 149.828 76.8172 150.806Z" fill="#C84CFF"/>
<path d="M48.2526 135.28C49.986 133.44 51.4223 131.917 52.8636 130.399C53.0881 130.154 53.337 129.934 53.6065 129.74C54.3494 129.217 55.0923 129.245 55.7213 129.926C56.3503 130.607 56.2636 131.387 55.652 132.026C54.0572 133.692 52.4129 135.312 50.8032 136.978C49.0153 138.818 48.6017 139.918 45.9446 137.016C45.1125 136.107 44.1789 135.282 43.3295 134.391C42.6783 133.707 42.552 132.89 43.2156 132.162C43.9363 131.387 44.8426 131.508 45.531 132.177C46.4275 133.061 47.2075 134.076 48.2526 135.28Z" fill="#C84CFF"/>
<path d="M76.7476 135.149L80.789 130.939C80.9599 130.76 81.1258 130.575 81.3041 130.404C82.5027 129.257 83.4511 129.077 84.194 129.847C84.9369 130.617 84.7264 131.503 83.5304 132.707C81.7969 134.465 80.0634 136.231 78.2953 137.972C77.2404 139.014 76.5049 138.987 75.4549 137.949C74.2811 136.79 73.08 135.661 71.9409 134.483C71.1014 133.603 71.0643 132.719 71.7899 132.108C72.6368 131.394 73.4614 131.531 74.1895 132.316C74.9968 133.187 75.7867 134.081 76.7476 135.149Z" fill="#C84CFF"/>
<path d="M18.6787 135.892L22.6409 131.929C22.9628 131.61 23.2699 131.273 23.6092 130.976C24.4363 130.253 25.4788 130.184 26.036 130.865C26.6873 131.667 26.5313 132.499 25.8602 133.202C24.5502 134.567 23.2006 135.894 21.8707 137.239C21.264 137.853 20.6945 138.509 20.0481 139.079C18.9882 140.012 18.285 139.988 17.2746 139.007C16.0364 137.808 14.8304 136.57 13.6021 135.359C12.8047 134.577 12.9657 133.807 13.6566 133.098C14.3475 132.39 15.0731 132.524 15.7393 133.128C16.7199 134 17.656 134.916 18.6787 135.892Z" fill="#C84CFF"/>
<path d="M18.4622 119.567C20.0545 117.96 21.3199 116.675 22.5953 115.397C23.0014 114.991 23.4125 114.585 23.8483 114.211C24.5466 113.612 25.2796 113.607 25.9483 114.243C26.6169 114.88 26.6416 115.65 26.0647 116.343C25.4877 117.037 24.8265 117.653 24.1876 118.3C22.8652 119.652 21.5477 121.024 20.213 122.353C19.1011 123.473 18.2987 123.453 17.1745 122.331C16.0502 121.209 14.8888 120.083 13.7645 118.941C13.0439 118.213 12.7739 117.406 13.5936 116.566C14.2821 115.86 15.2033 115.935 16.07 116.836C16.8798 117.661 17.5979 118.557 18.4622 119.567Z" fill="#C84CFF"/>
</svg>
