<svg width="158" height="158" viewBox="0 0 158 158" fill="none" xmlns="http://www.w3.org/2000/svg">
<path d="M94.0332 71.0809L94.0905 70.6714C94.4488 68.4705 93.8858 67.0701 91.6214 65.9092C86.6053 63.3397 82.8995 59.2572 80.5306 54.1264C79.552 52.0115 78.9603 49.7041 78.3502 47.4417C78.1168 46.5839 77.8608 46.1478 76.9498 45.9328C71.1802 44.5672 68.1091 38.8631 70.2282 33.3331C71.4218 30.219 73.8336 28.3416 77.0562 27.5635C77.7789 27.3875 78.0287 27.0763 78.1516 26.3699C79.5479 18.3011 83.6386 11.8907 90.3745 7.28616C94.2453 4.60057 98.7926 3.0562 103.498 2.82899C109.729 2.54645 115.977 2.62425 122.218 2.5874C123.651 2.5874 125.094 2.55874 126.501 2.75529C130.131 3.26714 132.723 6.30341 132.739 9.98872C132.765 15.4143 132.765 20.8399 132.739 26.2655C132.739 27.0538 132.944 27.369 133.734 27.5656C139.704 29.0438 142.814 35.0161 140.439 40.5072C139.168 43.4472 136.875 45.2899 133.728 45.9676C132.95 46.1355 132.629 46.4241 132.481 47.2554C131.112 54.9393 126.931 60.8173 120.488 65.0268C118.764 66.1549 118.334 67.4263 118.487 69.2014C118.653 71.1075 118.672 71.0645 120.576 71.3266C131.099 72.7761 138.748 78.2263 143.41 87.8061C143.486 87.9596 143.551 88.1173 143.615 88.2749C144.434 90.267 144.434 90.2589 146.651 90.2691C148.084 90.2691 149.518 90.3305 150.951 90.3223C154.444 90.3018 157.654 93.4815 157.502 97.6295C157.433 99.4721 157.482 101.315 157.482 103.157C157.482 118.82 157.41 134.483 157.529 150.147C157.562 154.332 154.425 157.723 149.982 157.702C133.398 157.594 116.815 157.659 100.231 157.661H63.8935C60.284 157.661 57.8824 155.98 56.7911 152.631C56.6206 152.078 56.535 151.503 56.5372 150.925C56.5106 147.956 56.5168 144.988 56.5229 142.019C56.5229 140.895 56.9795 140.289 57.7882 140.271C58.6481 140.252 59.1333 140.87 59.1395 142.06C59.1538 144.791 59.2644 147.527 59.119 150.25C58.9736 152.973 61.0865 155.118 63.9406 155.104C78.1024 155.034 92.2643 155.071 106.426 155.071C120.963 155.071 135.499 155.032 150.036 155.108C152.75 155.122 154.933 153.147 154.917 150.194C154.831 134.292 154.878 118.39 154.88 102.49C154.88 100.717 154.894 98.9439 154.867 97.1668C154.833 94.8246 153.23 93.1068 150.906 92.8672C150.496 92.8263 150.087 92.8365 149.677 92.8365H87.7416C87.3997 92.8579 87.0565 92.8428 86.7179 92.7915C86.4088 92.7457 86.1287 92.5839 85.9347 92.339C85.7408 92.094 85.6474 91.7843 85.6737 91.473C85.688 90.7338 86.1405 90.3592 86.8387 90.2978C87.3812 90.2486 87.9299 90.2568 88.4766 90.2568H141.457C141.378 89.9034 141.277 89.5553 141.154 89.2147C138.593 83.3878 134.41 79.1333 128.702 76.3386C125.88 74.9566 122.895 74.2093 119.796 73.8224C118.977 73.72 118.567 73.8367 118.332 74.8113C117.648 77.6776 115.549 79.4158 113.008 80.4866C107.818 82.663 102.692 82.5156 97.8577 79.4077C96.0376 78.2366 94.674 76.6171 94.285 74.3977C94.154 73.6504 93.7036 73.7671 93.2429 73.8101C90.4555 74.077 87.7213 74.7452 85.125 75.794C84.6623 75.9783 83.9109 75.8452 83.4871 75.5668C83.2086 75.3866 83.1042 74.6127 83.2434 74.2196C83.3827 73.8265 83.8945 73.5542 84.3081 73.3781C87.2648 72.1208 90.4118 71.3692 93.6176 71.1546C93.7574 71.138 93.8962 71.1134 94.0332 71.0809ZM132.751 30.2129C132.751 31.0318 132.751 31.8221 132.751 32.6022C132.729 36.3387 129.885 39.3299 126.337 39.3361C122.652 39.3361 119.785 36.4574 119.775 32.6657C119.759 29.527 119.775 26.3883 119.765 23.2476C119.765 22.8873 119.734 22.527 119.71 21.9558C110.599 26.9084 101.078 27.9874 91.0461 26.0505C91.0461 26.5419 91.0461 26.9104 91.0461 27.279C91.0461 29.1503 91.0768 31.0236 91.0194 32.8929C90.9253 35.9087 88.7673 38.5417 85.9235 39.1846C81.9822 40.0752 78.17 37.0901 78.0349 32.9912C78.0042 32.0555 78.0349 31.1199 78.0349 30.0921C77.6978 30.1307 77.3629 30.1867 77.0316 30.26C73.0925 31.3983 71.0328 36.0991 72.8918 39.7599C74.1203 42.1922 76.182 43.4452 78.862 43.6172C80.0004 43.6888 80.5675 44.1352 80.6207 45.2551C80.633 45.5253 80.7047 45.7936 80.7395 46.0638C81.2289 49.8048 82.6503 53.3629 84.8732 56.4113C89.3263 62.5535 95.3497 66.1406 102.948 66.9165C109.483 67.5819 115.437 65.9194 120.615 61.9311C126.026 57.7647 129.322 52.2674 130.17 45.4025C130.354 43.9099 130.526 43.7646 132.012 43.6438C136.285 43.3019 139.205 39.6452 138.513 35.5259C138.013 32.6882 135.061 30.133 132.751 30.217V30.2129ZM130.157 21.3497C130.157 17.6303 130.157 13.9102 130.157 10.1894C130.157 7.64037 128.472 5.6851 125.962 5.2961C125.727 5.25222 125.489 5.22553 125.25 5.21625C118.156 5.26129 111.053 5.13435 103.967 5.42099C99.0055 5.59233 94.2329 7.36661 90.3643 10.4781C83.2107 16.223 79.9369 23.7615 80.5941 32.9482C80.7825 35.6098 83.3622 37.346 85.774 36.4963C87.2522 35.9742 88.3722 34.4285 88.4049 32.6923C88.4541 29.9979 88.4192 27.3035 88.4459 24.6092C88.4602 23.2804 89.0744 22.83 90.352 23.1064C91.7156 23.4012 93.075 23.7452 94.4468 23.9253C103.068 25.1169 111.223 23.7493 118.831 19.4211C119.507 19.0362 119.802 18.6021 119.781 17.8016C119.742 16.2865 120.097 15.7808 121.028 15.7706C121.96 15.7603 122.322 16.3111 122.324 17.775C122.324 22.7235 122.324 27.6721 122.324 32.6206C122.324 34.5145 123.573 36.1483 125.287 36.57C127.834 37.1965 130.106 35.3723 130.133 32.6063C130.184 28.8616 130.157 25.1067 130.157 21.3538V21.3497ZM96.6395 68.2576C96.7419 70.4278 96.6621 72.3831 96.9978 74.2626C97.1637 75.1982 97.9089 76.2506 98.7033 76.8177C103.027 79.9175 107.685 80.112 112.421 77.866C114.247 76.9999 115.772 75.6773 115.901 73.4272C116.008 71.6951 116 69.9467 116.024 68.2166C116.024 68.0405 115.901 67.8624 115.809 67.6167C112.826 68.8447 109.648 69.5311 106.424 69.6436C103.106 69.7625 99.7937 69.2933 96.6395 68.2576Z" fill="white"/>
<path d="M72.9988 74.3425C73.9734 74.3425 74.8927 74.3425 75.8119 74.3425C79.5218 74.3814 82.2244 77.0369 82.2305 80.7468C82.2428 87.022 82.1793 93.2973 82.1814 99.5828C82.1814 109.956 82.1991 120.33 82.2346 130.703C82.2346 134.798 79.6426 137.443 75.5499 137.445C67.7022 137.445 59.8525 137.466 52.0048 137.445C46.7246 137.431 41.4444 137.316 36.1641 137.322C26.48 137.322 16.7978 137.408 7.11367 137.439C2.95541 137.451 0.443266 134.917 0.445314 130.732C0.453503 120.29 0.465786 109.848 0.482165 99.4067C0.482165 93.3342 0.453493 87.2616 0.447351 81.1849C0.447351 76.8854 3.04754 74.3036 7.32046 74.3241C10.4591 74.3384 13.5998 74.2954 16.7385 74.3507C17.5963 74.3671 17.9034 74.1091 18.0611 73.2636C18.792 69.3489 22.4282 67.0907 26.1708 68.2904C28.4905 69.0336 29.8848 70.776 30.3516 73.1509C30.5318 74.0702 30.8593 74.3651 31.8032 74.3589C39.6857 74.318 47.5681 74.3282 55.4506 74.3241C56.7118 74.3241 57.973 74.3036 59.2321 74.3241C59.9057 74.3425 60.2128 74.1951 60.3418 73.411C61.0502 69.1524 65.3702 66.7426 69.119 68.4972C70.976 69.3694 72.1451 70.8906 72.6958 72.8684C72.8105 73.2963 72.8739 73.7427 72.9988 74.3425ZM41.4096 88.6989H4.37221C3.03322 88.6989 3.02912 88.6989 3.02912 90.0563C3.02912 94.7612 3.02912 99.4654 3.02912 104.169C3.02912 113.041 3.02912 121.913 3.02912 130.785C3.02912 133.447 4.43159 134.839 7.05839 134.847C17.7048 134.873 28.3458 134.897 38.9814 134.919C43.6904 134.919 48.3994 134.859 53.0961 134.851C60.5691 134.839 68.0407 134.839 75.511 134.851C78.1726 134.851 79.6324 133.404 79.6344 130.742C79.6344 117.093 79.6344 103.449 79.6344 89.8106C79.6344 88.9753 79.4051 88.6804 78.5391 88.6948C75.6072 88.7419 72.6753 88.7173 69.7353 88.7173L41.4096 88.6989ZM17.8174 76.9857C13.9069 76.9857 10.1233 76.9243 6.35204 77.0103C4.44182 77.0553 3.12329 78.5643 3.05778 80.5318C3.00864 82.0325 3.09259 83.5374 3.02298 85.0361C2.98203 85.9287 3.34442 86.1335 4.15519 86.1212C6.8168 86.0843 9.47842 86.1069 12.14 86.1069H67.0941C70.9125 86.1069 74.733 86.0802 78.5595 86.1069C79.401 86.1069 79.7122 85.855 79.6774 84.9992C79.6221 83.6725 79.6774 82.3376 79.6631 81.0088C79.6406 78.466 78.1275 76.9591 75.5683 76.9509C71.7806 76.9509 67.9929 76.9509 64.2094 76.9509H62.9215V80.7959H63.7057C64.6598 80.7959 65.618 80.7488 66.572 80.7959C67.346 80.843 67.868 81.2914 67.8353 82.1144C67.8046 82.8925 67.3767 83.39 66.5393 83.392C63.2327 83.392 59.9242 83.4104 56.6176 83.3777C56.2511 83.3777 55.7413 83.2057 55.5591 82.9375C55.3298 82.5997 55.1496 81.9384 55.34 81.6701C55.6593 81.2238 56.1407 80.9202 56.6811 80.8246C57.8153 80.7017 58.968 80.7857 60.2333 80.7857C60.2333 80.0978 60.2333 79.5572 60.2333 79.0208C60.2333 76.9325 60.2333 76.9325 58.1532 76.9325H21.5171H20.4934C20.4934 78.0115 20.5241 78.9655 20.4832 79.9135C20.4545 80.6014 20.7452 80.8021 21.3922 80.7795C22.3463 80.7447 23.3045 80.7427 24.2586 80.8021C25.0345 80.8491 25.5914 81.3344 25.5545 82.1103C25.5581 82.2838 25.5255 82.4561 25.4588 82.6163C25.3921 82.7765 25.2929 82.9211 25.1673 83.0408C25.0418 83.1606 24.8927 83.2529 24.7296 83.312C24.5664 83.371 24.3928 83.3955 24.2197 83.3838C20.8763 83.3838 17.5349 83.3634 14.1874 83.3265C13.8762 83.3265 13.4299 83.2139 13.2907 82.9989C13.0614 82.6406 12.8095 82.0284 12.9692 81.752C13.2108 81.3282 13.7677 80.8819 14.2345 80.8307C15.4015 80.6997 16.5911 80.7877 17.8461 80.7877L17.8174 76.9857ZM27.8742 74.2565C27.5794 71.8734 25.8269 70.3153 23.888 70.5589C21.9962 70.7985 20.4524 72.5613 20.6961 74.2565H27.8742ZM62.9154 74.2565H70.1898C70.0199 72.1457 68.5048 70.5835 66.6396 70.5282C64.7744 70.473 63.1816 72.0187 62.9215 74.2606L62.9154 74.2565Z" fill="white"/>
<path d="M61.9347 33.0846C62.0801 45.1929 54.82 55.7206 43.5675 59.7007C43.158 59.8481 42.724 59.9628 42.2981 60.0795C41.5345 60.2842 40.9264 60.1 40.6602 59.3138C40.3941 58.5276 40.7831 57.9625 41.6675 57.6022C43.242 56.9613 44.8676 56.4024 46.3438 55.5793C53.2558 51.7323 57.6045 45.8624 58.9721 38.115C60.8045 27.7962 56.4026 18.1222 47.8138 12.582C44.6537 10.5317 41.0573 9.24993 37.3127 8.83936C36.2604 8.71856 35.7608 8.24766 35.8099 7.40618C35.8632 6.51761 36.4242 6.11223 37.5748 6.24122C42.6933 6.81653 47.2487 8.73904 51.3128 11.8613C54.5576 14.3795 57.1963 17.5934 59.0346 21.2664C60.8729 24.9393 61.8639 28.9779 61.9347 33.0846Z" fill="white"/>
<path d="M96.666 124.01C96.6517 118.181 101.17 113.638 107.007 113.611C108.365 113.607 109.711 113.871 110.966 114.388C112.222 114.905 113.364 115.664 114.325 116.623C115.287 117.581 116.05 118.72 116.571 119.974C117.092 121.228 117.361 122.572 117.361 123.93C117.372 125.289 117.114 126.637 116.603 127.896C116.092 129.155 115.338 130.302 114.383 131.269C113.429 132.236 112.293 133.006 111.041 133.534C109.788 134.062 108.444 134.338 107.085 134.345C101.254 134.345 96.6824 129.817 96.666 124.01ZM106.962 131.737C111.248 131.737 114.759 128.281 114.755 124.057C114.755 119.696 111.327 116.216 107.032 116.201C102.653 116.187 99.2519 119.643 99.2519 124.088C99.2642 128.279 102.745 131.733 106.962 131.737Z" fill="white"/>
<path d="M11.7482 123.988C11.7438 123.323 11.8708 122.664 12.1219 122.049C12.3729 121.433 12.743 120.873 13.211 120.401C13.6789 119.929 14.2355 119.554 14.8488 119.297C15.4621 119.041 16.12 118.908 16.7847 118.906C19.5385 118.906 21.8869 121.228 21.8869 123.957C21.8869 126.686 19.5508 129.055 16.8175 129.039C15.476 129.039 14.1891 128.508 13.2388 127.561C12.2886 126.614 11.7525 125.329 11.7482 123.988ZM16.8011 126.404C17.1252 126.403 17.4458 126.338 17.7447 126.213C18.0435 126.088 18.3146 125.905 18.5424 125.674C18.7702 125.444 18.9502 125.17 19.0719 124.87C19.1937 124.57 19.2548 124.248 19.2519 123.924C19.2247 123.273 18.9433 122.657 18.468 122.21C17.9927 121.763 17.3613 121.52 16.709 121.533C16.073 121.562 15.4736 121.839 15.0384 122.303C14.6032 122.768 14.3667 123.384 14.3791 124.021C14.3979 124.652 14.6595 125.253 15.1095 125.696C15.5594 126.14 16.1631 126.394 16.795 126.404H16.8011Z" fill="white"/>
<path d="M45.8911 124.06C46.0958 126.517 43.4056 129.162 40.7726 129.094C38.2912 129.033 35.7463 126.74 35.8118 123.994C35.8793 121.103 38.0864 118.89 40.9876 118.933C43.6922 118.972 45.9116 121.294 45.8911 124.06ZM43.2827 124.005C43.2882 123.689 43.2308 123.376 43.1141 123.083C42.9974 122.79 42.8236 122.523 42.6028 122.297C42.382 122.072 42.1187 121.893 41.828 121.77C41.5374 121.647 41.2253 121.584 40.9098 121.583C40.5866 121.572 40.2647 121.628 39.9637 121.746C39.6627 121.864 39.3889 122.042 39.159 122.27C38.9291 122.497 38.7479 122.769 38.6266 123.069C38.5052 123.368 38.4461 123.69 38.4529 124.013C38.4481 124.336 38.5086 124.656 38.6307 124.955C38.7528 125.253 38.9341 125.524 39.1635 125.751C39.393 125.978 39.666 126.157 39.966 126.276C40.2661 126.394 40.5871 126.451 40.9098 126.443C41.5447 126.425 42.1477 126.16 42.5907 125.705C43.0337 125.25 43.2819 124.64 43.2827 124.005Z" fill="white"/>
<path d="M45.8928 98.0073C45.9048 98.6728 45.7838 99.334 45.5369 99.9521C45.29 100.57 44.9222 101.133 44.4549 101.607C43.9877 102.081 43.4306 102.457 42.8161 102.713C42.2017 102.969 41.5423 103.099 40.8767 103.097C40.2197 103.107 39.5673 102.987 38.9571 102.743C38.3469 102.5 37.7912 102.137 37.3221 101.677C36.8531 101.217 36.48 100.668 36.2245 100.063C35.9691 99.4577 35.8363 98.8077 35.834 98.1506C35.834 95.2433 37.9387 93.0547 40.7846 93.0178C41.4494 93.0031 42.1106 93.1212 42.7292 93.3653C43.3478 93.6093 43.9115 93.9744 44.3873 94.4391C44.863 94.9038 45.2412 95.4587 45.4997 96.0714C45.7583 96.6841 45.8919 97.3423 45.8928 98.0073ZM40.8214 100.499C41.1453 100.503 41.4668 100.443 41.7668 100.321C42.0669 100.199 42.3395 100.018 42.5685 99.7892C42.7976 99.5602 42.9784 99.2876 43.1003 98.9875C43.2222 98.6874 43.2827 98.366 43.2783 98.0421C43.2783 96.7543 42.1522 95.5975 40.889 95.5852C40.2506 95.5841 39.6373 95.834 39.1815 96.281C38.7257 96.728 38.4639 97.3362 38.4526 97.9746C38.4178 99.4016 39.4251 100.476 40.8214 100.499Z" fill="white"/>
<path d="M59.3892 97.9894C59.3921 97.3319 59.5253 96.6814 59.7809 96.0756C60.0366 95.4698 60.4097 94.9206 60.8787 94.4598C61.3477 93.9989 61.9034 93.6355 62.5136 93.3906C63.1238 93.1457 63.7765 93.024 64.434 93.0327C65.0997 93.0261 65.7601 93.1521 66.3766 93.4033C66.9931 93.6545 67.5535 94.0259 68.0251 94.4958C68.4967 94.9656 68.8701 95.5247 69.1236 96.1403C69.377 96.7559 69.5054 97.4158 69.5013 98.0815C69.4946 98.7469 69.3569 99.4044 69.096 100.017C68.8351 100.629 68.4562 101.183 67.9809 101.649C67.5055 102.115 66.9431 102.482 66.3258 102.73C65.7084 102.978 65.0482 103.103 64.3828 103.096C63.719 103.091 63.0627 102.954 62.4518 102.694C61.8409 102.435 61.2874 102.057 60.8232 101.582C60.359 101.107 59.9934 100.545 59.7473 99.9289C59.5012 99.3124 59.3795 98.6532 59.3892 97.9894ZM64.4156 100.502C65.0652 100.497 65.6874 100.239 66.15 99.7831C66.6126 99.327 66.8791 98.7085 66.8929 98.059C66.8799 97.4255 66.6279 96.8202 66.1875 96.3646C65.7471 95.9089 65.1507 95.6366 64.5179 95.6021C63.8673 95.5988 63.2405 95.847 62.7685 96.2949C62.2965 96.7428 62.0159 97.3558 61.9853 98.0058C61.9882 98.6556 62.2431 99.2789 62.6964 99.7444C63.1498 100.21 63.7661 100.481 64.4156 100.502Z" fill="white"/>
<path d="M23.3977 15.4984C21.942 16.7268 20.517 17.728 19.35 18.9646C14.0411 24.595 12.1841 31.2613 13.9019 38.7977C15.9493 47.839 24.1389 54.5832 33.3972 55.0704C33.8742 55.097 34.4209 55.0029 34.8099 55.1953C35.1989 55.3878 35.8029 55.8669 35.8193 56.2395C35.9175 58.5182 35.9482 60.8052 35.8623 63.0839C35.7947 64.8856 35.4958 65.1108 33.647 65.0371C24.1839 64.6645 16.3506 60.8523 10.3824 53.5287C4.03551 45.7486 1.98811 36.7749 4.11126 27.0027C6.11157 17.7669 11.4942 10.904 19.7124 6.27692C20.4024 5.88792 20.5621 5.52758 20.2836 4.84375C20.0789 4.34009 19.9499 3.80572 19.7738 3.28978C19.4217 2.26608 19.7534 1.44713 20.6051 0.886142C21.424 0.34563 22.2041 0.511463 22.9514 1.12363C25.1441 2.9151 27.3369 4.70453 29.5604 6.44686C30.5718 7.24125 30.9219 8.15029 30.5186 9.40125C29.6484 12.0915 28.8254 14.7982 27.9962 17.5028C27.6973 18.4794 27.1322 19.1509 26.0573 19.1612C24.9824 19.1714 24.4009 18.5183 24.1205 17.5233C23.9608 16.95 23.7192 16.3911 23.3977 15.4984ZM23.0579 4.6472C23.0988 5.01573 23.1029 5.14267 23.1295 5.26142C23.539 7.10408 23.455 7.30882 21.7905 8.12777C17.742 10.1381 14.2354 13.0914 11.5658 16.7391C7.13936 22.7625 5.32947 29.5046 6.11362 36.8896C6.84454 43.7893 9.77231 49.6817 14.7966 54.4972C19.7104 59.1939 25.5843 61.7838 32.3448 62.4124C33.2047 62.4922 33.4525 62.1114 33.4177 61.3662C33.3829 60.6516 33.2866 59.933 33.3132 59.2246C33.3644 57.7668 33.389 57.773 32.0172 57.5867C31.6467 57.5396 31.2781 57.4618 30.9076 57.4044C24.3825 56.3664 19.0675 53.1848 15.288 47.839C9.89106 40.2043 9.197 31.9472 13.0891 23.4279C15.2204 18.7599 18.6703 15.2384 23.193 12.7815C24.4644 12.0936 25.2404 12.4498 25.7092 13.8052C25.7891 14.0365 25.914 14.2556 26.1003 14.6815C26.5405 13.3404 26.9418 12.2246 27.2734 11.0903C28.1641 8.04178 28.3934 8.95697 26.045 7.01194C25.6253 6.66184 25.2076 6.31378 24.7777 5.97596C24.2679 5.56443 23.7417 5.17338 23.0579 4.6472Z" fill="#703773"/>
<path d="M35.9236 34.1453C37.883 34.1453 39.7133 34.1331 41.5458 34.1453C42.6043 34.1453 43.1591 34.6326 43.0997 35.4802C43.0485 36.1948 42.7373 36.7394 41.9122 36.7394C39.4554 36.7394 36.9985 36.7558 34.5416 36.7148C33.5077 36.6964 33.2968 35.9368 33.2988 35.0769C33.3111 31.3261 33.3241 27.5766 33.3377 23.8285C33.3377 22.7721 33.3234 21.7136 33.3377 20.6571C33.3521 19.6007 33.8148 19.0008 34.5907 18.9783C35.424 18.9537 35.9605 19.5638 35.9584 20.6469C35.9584 24.7417 35.9277 28.8364 35.9093 32.919C35.9216 33.2854 35.9236 33.6519 35.9236 34.1453Z" fill="#703773"/>
<path d="M63.954 124.77C65.1824 123.542 66.3024 122.401 67.4243 121.275C67.6989 120.973 67.9966 120.693 68.315 120.438C68.9292 119.994 69.5639 120.028 70.0675 120.573C70.5384 121.077 70.5794 121.738 70.0962 122.242C68.3764 124.031 66.6361 125.8 64.8549 127.528C64.2959 128.073 63.606 128.003 63.0286 127.44C61.9578 126.396 60.8829 125.356 59.8306 124.291C59.2368 123.689 59.1897 123.001 59.7998 122.397C60.41 121.793 61.102 121.896 61.6957 122.471C62.4492 123.2 63.1637 123.961 63.954 124.77Z" fill="#703773"/>
<path d="M40.3389 111.933C41.7721 110.412 42.9596 109.153 44.1512 107.898C44.3368 107.696 44.5426 107.513 44.7654 107.353C45.3796 106.921 45.9938 106.944 46.5139 107.507C47.0339 108.07 46.9622 108.715 46.4565 109.243C45.138 110.621 43.7785 111.96 42.4477 113.338C40.9695 114.859 40.6276 115.768 38.4308 113.368C37.7428 112.617 36.971 111.935 36.2687 111.198C35.7302 110.633 35.6258 109.957 36.1745 109.355C36.7703 108.714 37.5197 108.815 38.0888 109.368C38.83 110.099 39.4749 110.938 40.3389 111.933Z" fill="#703773"/>
<path d="M63.8965 111.824L67.2378 108.344C67.3791 108.196 67.5163 108.043 67.6637 107.901C68.6546 106.953 69.4388 106.804 70.053 107.441C70.6672 108.077 70.4932 108.81 69.5043 109.805C68.0711 111.259 66.6379 112.719 65.1761 114.158C64.3039 115.02 63.6958 114.998 62.8277 114.14C61.8573 113.182 60.8643 112.248 59.9225 111.273C59.2284 110.547 59.1977 109.816 59.7976 109.31C60.4978 108.72 61.1796 108.833 61.7815 109.482C62.449 110.203 63.1021 110.942 63.8965 111.824Z" fill="#703773"/>
<path d="M15.8885 112.438L19.1643 109.162C19.4305 108.898 19.6843 108.62 19.9648 108.374C20.6487 107.776 21.5106 107.719 21.9713 108.282C22.5097 108.945 22.3808 109.633 21.8259 110.214C20.7428 111.343 19.627 112.44 18.5276 113.552C18.0259 114.059 17.555 114.602 17.0207 115.073C16.1444 115.845 15.5629 115.824 14.7276 115.014C13.7039 114.023 12.7068 112.999 11.6913 111.998C11.0321 111.351 11.1651 110.714 11.7364 110.128C12.3076 109.543 12.9075 109.653 13.4582 110.153C14.269 110.874 15.0429 111.631 15.8885 112.438Z" fill="#703773"/>
<path d="M15.7073 98.9419C17.0238 97.6132 18.07 96.5506 19.1244 95.4941C19.4602 95.1583 19.8001 94.8226 20.1604 94.5134C20.7378 94.0179 21.3438 94.0138 21.8966 94.54C22.4494 95.0662 22.4699 95.703 21.9928 96.2762C21.5158 96.8495 20.9691 97.3593 20.4409 97.8937C19.3476 99.0115 18.2584 100.146 17.1548 101.245C16.2355 102.171 15.5722 102.154 14.6427 101.227C13.7132 100.299 12.7529 99.3678 11.8234 98.424C11.2276 97.822 11.0044 97.1546 11.6821 96.4605C12.2513 95.877 13.0129 95.9384 13.7295 96.6837C14.399 97.3655 14.9928 98.1066 15.7073 98.9419Z" fill="#703773"/>
</svg>
