<svg width="158" height="157" viewBox="0 0 158 157" fill="none" xmlns="http://www.w3.org/2000/svg">
<path d="M94.1951 69.4687L94.2525 69.0587C94.6112 66.8549 94.0475 65.4527 91.7802 64.2904C86.7577 61.7176 83.0472 57.6299 80.6754 52.4926C79.6955 50.375 79.103 48.0647 78.4921 45.7994C78.2584 44.9405 78.0022 44.5038 77.09 44.2886C71.3131 42.9213 68.2381 37.21 70.3598 31.6729C71.555 28.5549 73.9699 26.675 77.1965 25.896C77.9202 25.7197 78.1703 25.4081 78.2933 24.7009C79.6914 16.6219 83.7873 10.2033 90.5318 5.59291C94.4075 2.9039 98.9605 1.35758 103.672 1.13008C109.91 0.847181 116.167 0.925082 122.415 0.888182C123.85 0.888182 125.296 0.859484 126.704 1.05628C130.339 1.56878 132.934 4.60891 132.95 8.2989C132.976 13.7314 132.976 19.1639 132.95 24.5963C132.95 25.3856 133.155 25.7013 133.947 25.8981C139.924 27.3782 143.038 33.358 140.66 38.8561C139.387 41.7999 137.091 43.6449 133.94 44.3234C133.161 44.4915 132.84 44.7806 132.692 45.6129C131.32 53.3065 127.134 59.1921 120.683 63.4068C118.957 64.5364 118.526 65.8094 118.68 67.5868C118.846 69.4953 118.865 69.4522 120.771 69.7146C131.308 71.166 138.967 76.6231 143.635 86.215C143.711 86.3688 143.776 86.5266 143.84 86.6845C144.66 88.6791 144.66 88.6709 146.88 88.6812C148.315 88.6812 149.75 88.7427 151.185 88.7345C154.682 88.714 157.897 91.8976 157.745 96.0509C157.675 97.8959 157.724 99.7409 157.724 101.586C157.724 117.268 157.653 132.951 157.772 148.635C157.804 152.826 154.664 156.22 150.215 156.2C133.61 156.091 117.005 156.157 100.4 156.159H64.0171C60.403 156.159 57.9984 154.476 56.9057 151.122C56.735 150.569 56.6493 149.993 56.6515 149.414C56.6249 146.442 56.631 143.469 56.6372 140.497C56.6372 139.371 57.0943 138.765 57.9041 138.746C58.7651 138.728 59.2509 139.347 59.2571 140.538C59.2714 143.273 59.3821 146.011 59.2366 148.738C59.091 151.464 61.2066 153.613 64.0643 153.598C78.2441 153.529 92.4239 153.566 106.604 153.566C121.159 153.566 135.714 153.527 150.269 153.602C152.987 153.617 155.172 151.639 155.156 148.682C155.07 132.76 155.117 116.838 155.119 100.918C155.119 99.1423 155.133 97.367 155.107 95.5876C155.072 93.2424 153.467 91.5225 151.14 91.2826C150.73 91.2416 150.32 91.2519 149.91 91.2519H87.8955C87.5532 91.2733 87.2096 91.2581 86.8705 91.2068C86.561 91.161 86.2806 90.9989 86.0863 90.7537C85.8921 90.5084 85.7987 90.1983 85.825 89.8866C85.8393 89.1465 86.2924 88.7714 86.9914 88.7099C87.5347 88.6607 88.0841 88.6689 88.6314 88.6689H141.679C141.6 88.315 141.499 87.9665 141.376 87.6254C138.811 81.7912 134.623 77.5313 128.908 74.7331C126.083 73.3493 123.094 72.6011 119.99 72.2136C119.17 72.1111 118.76 72.2279 118.524 73.2037C117.84 76.0737 115.738 77.8142 113.194 78.8863C107.998 81.0655 102.865 80.9179 98.0245 77.806C96.202 76.6334 94.8367 75.0118 94.4472 72.7896C94.316 72.0414 93.865 72.1582 93.4038 72.2013C90.6129 72.4686 87.8752 73.1376 85.2756 74.1877C84.8123 74.3722 84.0599 74.239 83.6356 73.9602C83.3568 73.7798 83.2522 73.0049 83.3916 72.6113C83.531 72.2177 84.0435 71.945 84.4576 71.7687C87.4181 70.5098 90.5691 69.7573 93.7789 69.5425C93.919 69.5258 94.0579 69.5012 94.1951 69.4687ZM132.963 28.5487C132.963 29.3687 132.963 30.16 132.963 30.9411C132.94 34.6823 130.093 37.6773 126.54 37.6835C122.85 37.6835 119.98 34.8012 119.97 31.0046C119.953 27.862 119.97 24.7194 119.959 21.5747C119.959 21.2139 119.929 20.8531 119.904 20.2811C110.782 25.2401 101.249 26.3204 91.2042 24.3811C91.2042 24.8731 91.2042 25.2421 91.2042 25.6111C91.2042 27.4848 91.2349 29.3605 91.1775 31.2322C91.0832 34.2518 88.9225 36.8881 86.0751 37.5318C82.1288 38.4235 78.3117 35.4347 78.1764 31.3306C78.1457 30.3937 78.1764 29.4569 78.1764 28.4278C77.8389 28.4665 77.5036 28.5226 77.1719 28.5959C73.2278 29.7357 71.1655 34.4425 73.0269 38.1079C74.2569 40.5433 76.3212 41.7978 79.0046 41.97C80.1444 42.0418 80.7123 42.4887 80.7656 43.61C80.7779 43.8806 80.8496 44.1492 80.8845 44.4198C81.3745 48.1655 82.7977 51.7281 85.0234 54.7804C89.4822 60.9304 95.5132 64.522 103.121 65.299C109.664 65.9652 115.626 64.3006 120.81 60.3073C126.228 56.1355 129.529 50.6313 130.377 43.7576C130.562 42.2632 130.734 42.1176 132.222 41.9967C136.501 41.6543 139.424 37.9931 138.731 33.8685C138.231 31.0272 135.275 28.4688 132.963 28.5528V28.5487ZM130.365 19.6743C130.365 15.9502 130.365 12.2253 130.365 8.49981C130.365 5.94757 128.678 3.98982 126.165 3.60032C125.929 3.55638 125.691 3.52966 125.451 3.52037C118.348 3.56547 111.237 3.43837 104.142 3.72537C99.1737 3.89693 94.395 5.67346 90.5215 8.78885C83.3588 14.5411 80.0809 22.0892 80.7389 31.2875C80.9275 33.9525 83.5105 35.6909 85.9254 34.8402C87.4055 34.3174 88.5269 32.7697 88.5597 31.0313C88.6089 28.3335 88.574 25.6357 88.6007 22.9379C88.615 21.6075 89.23 21.1565 90.5092 21.4332C91.8745 21.7284 93.2357 22.0728 94.6092 22.2532C103.242 23.4463 111.407 22.0769 119.025 17.7432C119.701 17.3578 119.996 16.9232 119.976 16.1217C119.937 14.6047 120.292 14.0983 121.224 14.0881C122.157 14.0778 122.52 14.6293 122.522 16.095C122.522 21.0499 122.522 26.0047 122.522 30.9595C122.522 32.8558 123.772 34.4917 125.488 34.914C128.038 35.5413 130.314 33.7147 130.341 30.9452C130.392 27.1957 130.365 23.4361 130.365 19.6784V19.6743ZM96.8047 66.6417C96.9072 68.8147 96.8273 70.7725 97.1635 72.6544C97.3295 73.5912 98.0757 74.6449 98.8711 75.2127C103.201 78.3164 107.864 78.5112 112.606 76.2623C114.435 75.3952 115.962 74.0709 116.091 71.8179C116.198 70.0836 116.189 68.333 116.214 66.6007C116.214 66.4244 116.091 66.2461 115.999 66.0001C113.012 67.2296 109.83 67.9169 106.602 68.0296C103.28 68.1486 99.9629 67.6787 96.8047 66.6417Z" fill="white"/>
<path d="M73.1319 72.7345C74.1077 72.7345 75.0282 72.7345 75.9486 72.7345C79.6632 72.7734 82.3692 75.4323 82.3754 79.1468C82.3877 85.4301 82.3241 91.7133 82.3262 98.0068C82.3262 108.393 82.3439 118.78 82.3795 129.167C82.3795 133.267 79.7842 135.915 75.6862 135.917C67.8286 135.917 59.9689 135.938 52.1113 135.917C46.8244 135.903 41.5374 135.788 36.2505 135.794C26.554 135.794 16.8596 135.88 7.16315 135.911C2.99961 135.923 0.484279 133.386 0.486329 129.195C0.494529 118.74 0.506828 108.285 0.523228 97.8305C0.523228 91.7502 0.494519 85.6699 0.488369 79.5855C0.488369 75.2806 3.09186 72.6955 7.3702 72.716C10.5128 72.7304 13.6575 72.6873 16.8002 72.7427C17.6591 72.7591 17.9666 72.5008 18.1245 71.6541C18.8563 67.7345 22.4971 65.4734 26.2445 66.6747C28.5671 67.4188 29.9632 69.1634 30.4306 71.5414C30.611 72.4618 30.939 72.757 31.884 72.7509C39.7765 72.7099 47.669 72.7201 55.5614 72.716C56.8242 72.716 58.087 72.6955 59.3478 72.716C60.0222 72.7345 60.3297 72.5869 60.4589 71.8017C61.1682 67.5377 65.4937 65.1249 69.2472 66.8817C71.1065 67.755 72.2771 69.2782 72.8285 71.2585C72.9433 71.6869 73.0069 72.1338 73.1319 72.7345ZM41.5026 87.109H4.41822C3.07752 87.109 3.07342 87.109 3.07342 88.4682C3.07342 93.1791 3.07342 97.8893 3.07342 102.599C3.07342 111.482 3.07342 120.365 3.07342 129.249C3.07342 131.914 4.47766 133.308 7.10781 133.316C17.7678 133.342 28.4223 133.366 39.0713 133.388C43.7863 133.388 48.5013 133.328 53.204 133.32C60.6864 133.308 68.1675 133.308 75.6473 133.32C78.3123 133.32 79.7739 131.871 79.776 129.206C79.776 115.539 79.776 101.878 79.776 88.2222C79.776 87.3858 79.5464 87.0906 78.6792 87.1049C75.7436 87.1521 72.808 87.1275 69.8643 87.1275L41.5026 87.109ZM17.8805 75.381C13.965 75.381 10.1766 75.3195 6.40056 75.4056C4.48791 75.4507 3.16771 76.9616 3.10211 78.9316C3.05291 80.4343 3.13696 81.941 3.06726 83.4416C3.02626 84.3354 3.38912 84.5404 4.20092 84.5281C6.86591 84.4912 9.5309 84.5137 12.1959 84.5137H67.2198C71.043 84.5137 74.8683 84.4871 78.6997 84.5137C79.5423 84.5137 79.8539 84.2616 79.819 83.4047C79.7637 82.0763 79.819 80.7397 79.8047 79.4093C79.7821 76.8632 78.2672 75.3544 75.7047 75.3462C71.9122 75.3462 68.1197 75.3462 64.3313 75.3462H63.0419V79.196H63.827C64.7823 79.196 65.7417 79.1489 66.697 79.196C67.4719 79.2432 67.9947 79.6922 67.9619 80.5163C67.9311 81.2952 67.5027 81.7934 66.6642 81.7954C63.3535 81.7954 60.0407 81.8139 56.7299 81.7811C56.363 81.7811 55.8526 81.6089 55.6701 81.3404C55.4405 81.0021 55.2601 80.3399 55.4508 80.0714C55.7704 79.6245 56.2524 79.3205 56.7935 79.2247C57.9292 79.1017 59.0833 79.1858 60.3502 79.1858C60.3502 78.497 60.3502 77.9558 60.3502 77.4187C60.3502 75.3277 60.3502 75.3277 58.2674 75.3277H21.5849H20.5599C20.5599 76.4081 20.5906 77.3634 20.5496 78.3125C20.5209 79.0013 20.812 79.2022 21.4598 79.1797C22.4151 79.1448 23.3745 79.1427 24.3298 79.2022C25.1068 79.2493 25.6643 79.7352 25.6274 80.5121C25.631 80.6858 25.5983 80.8584 25.5316 81.0188C25.4648 81.1792 25.3654 81.3239 25.2397 81.4438C25.114 81.5637 24.9648 81.6562 24.8014 81.7153C24.6381 81.7744 24.4642 81.7989 24.2909 81.7872C20.9432 81.7872 17.5976 81.7668 14.2459 81.7299C13.9343 81.7299 13.4874 81.6171 13.348 81.4018C13.1184 81.0431 12.8662 80.4301 13.0261 80.1534C13.268 79.7291 13.8256 79.2822 14.293 79.2309C15.4615 79.0997 16.6526 79.1879 17.9092 79.1879L17.8805 75.381ZM27.9501 72.6484C27.6549 70.2622 25.9001 68.7021 23.9588 68.9461C22.0646 69.1859 20.5189 70.951 20.7628 72.6484H27.9501ZM63.0357 72.6484H70.3193C70.1492 70.5348 68.6322 68.9707 66.7647 68.9153C64.8971 68.86 63.3022 70.4077 63.0419 72.6525L63.0357 72.6484Z" fill="white"/>
<path d="M96.8272 122.466C96.8128 116.629 101.337 112.08 107.182 112.054C108.541 112.05 109.888 112.314 111.146 112.831C112.403 113.349 113.546 114.109 114.509 115.069C115.472 116.029 116.236 117.169 116.758 118.424C117.279 119.68 117.548 121.026 117.549 122.386C117.559 123.746 117.301 125.096 116.79 126.357C116.278 127.618 115.523 128.765 114.567 129.734C113.611 130.702 112.474 131.473 111.22 132.002C109.966 132.53 108.62 132.806 107.26 132.814C101.421 132.814 96.8436 128.279 96.8272 122.466ZM107.137 130.202C111.427 130.202 114.943 126.742 114.939 122.513C114.939 118.146 111.507 114.661 107.206 114.647C102.821 114.633 99.4163 118.093 99.4163 122.544C99.4286 126.74 102.914 130.198 107.137 130.202Z" fill="white"/>
<circle cx="65.0148" cy="121.237" r="3.19001" stroke="white" stroke-width="1.65354"/>
<circle cx="35.8906" cy="31.5293" r="26.3008" stroke="#703773" stroke-width="2.48032"/>
<path d="M36.009 32.4878C37.9708 32.4878 39.8035 32.4755 41.6383 32.4878C42.6981 32.4878 43.2536 32.9757 43.1942 33.8244C43.1429 34.5399 42.8313 35.0852 42.0052 35.0852C39.5452 35.0852 37.0852 35.1016 34.6252 35.0606C33.59 35.0421 33.3788 34.2816 33.3809 33.4206C33.3932 29.665 33.4062 25.9108 33.4198 22.1579C33.4198 21.1001 33.4055 20.0403 33.4198 18.9825C33.4342 17.9247 33.8975 17.324 34.6744 17.3015C35.5088 17.2769 36.0459 17.8878 36.0438 18.9722C36.0438 23.0722 36.0131 27.1722 35.9946 31.2599C36.0069 31.6268 36.009 31.9938 36.009 32.4878Z" fill="#703773"/>
<path d="M40.4267 110.372C41.8617 108.849 43.0507 107.588 44.2438 106.331C44.4296 106.129 44.6357 105.946 44.8588 105.786C45.4738 105.353 46.0888 105.376 46.6095 105.94C47.1302 106.503 47.0584 107.149 46.5521 107.678C45.2319 109.058 43.8707 110.398 42.5382 111.778C41.0581 113.301 40.7158 114.211 38.5161 111.809C37.8273 111.057 37.0545 110.374 36.3513 109.636C35.8122 109.07 35.7076 108.394 36.257 107.791C36.8536 107.149 37.6039 107.25 38.1738 107.803C38.9159 108.535 39.5616 109.376 40.4267 110.372Z" fill="#703773"/>
<path d="M40.4267 97.405C41.8617 95.8819 43.0507 94.6211 44.2438 93.3645C44.4296 93.1622 44.6357 92.9795 44.8588 92.8192C45.4738 92.3867 46.0888 92.4092 46.6095 92.9729C47.1302 93.5367 47.0584 94.1824 46.5521 94.7113C45.2319 96.091 43.8707 97.4317 42.5382 98.8113C41.0581 100.334 40.7158 101.245 38.5161 98.8421C37.8273 98.0897 37.0545 97.4071 36.3513 96.6691C35.8122 96.1033 35.7076 95.4268 36.257 94.8241C36.8536 94.1824 37.6039 94.2829 38.1738 94.8364C38.9159 95.5682 39.5616 96.4087 40.4267 97.405Z" fill="#703773"/>
<path d="M40.4267 123.022C41.8617 121.499 43.0507 120.238 44.2438 118.982C44.4296 118.779 44.6357 118.597 44.8588 118.436C45.4738 118.004 46.0888 118.026 46.6095 118.59C47.1302 119.154 47.0584 119.8 46.5521 120.329C45.2319 121.708 43.8707 123.049 42.5382 124.429C41.0581 125.952 40.7158 126.862 38.5161 124.459C37.8273 123.707 37.0545 123.024 36.3513 122.286C35.8122 121.72 35.7076 121.044 36.257 120.441C36.8536 119.8 37.6039 119.9 38.1738 120.454C38.9159 121.185 39.5616 122.026 40.4267 123.022Z" fill="#703773"/>
<path d="M64.0175 110.264L67.363 106.779C67.5045 106.631 67.6418 106.477 67.7894 106.336C68.7816 105.387 69.5668 105.237 70.1818 105.875C70.7968 106.512 70.6225 107.246 69.6324 108.242C68.1974 109.698 66.7624 111.16 65.2987 112.601C64.4254 113.464 63.8165 113.441 62.9474 112.582C61.9757 111.623 60.9814 110.688 60.0384 109.712C59.3435 108.985 59.3127 108.253 59.9134 107.746C60.6145 107.156 61.2971 107.269 61.8998 107.919C62.5681 108.64 63.2221 109.38 64.0175 110.264Z" fill="#703773"/>
<path d="M64.0175 97.297L67.363 93.812C67.5045 93.6644 67.6418 93.5106 67.7894 93.3692C68.7816 92.42 69.5668 92.2704 70.1818 92.9079C70.7968 93.5455 70.6225 94.2794 69.6324 95.2757C68.1974 96.7312 66.7624 98.1928 65.2987 99.634C64.4254 100.497 63.8165 100.474 62.9474 99.6155C61.9757 98.6561 60.9814 97.7213 60.0384 96.7455C59.3435 96.0178 59.3127 95.2859 59.9134 94.7796C60.6145 94.1892 61.2971 94.3019 61.8998 94.9518C62.5681 95.6734 63.2221 96.4134 64.0175 97.297Z" fill="#703773"/>
<path d="M15.9451 110.879L19.2251 107.599C19.4916 107.335 19.7458 107.056 20.0267 106.81C20.7114 106.211 21.5744 106.154 22.0357 106.718C22.5748 107.382 22.4457 108.071 21.8901 108.653C20.8057 109.782 19.6884 110.881 18.5876 111.994C18.0853 112.503 17.6138 113.046 17.0788 113.518C16.2014 114.29 15.6192 114.27 14.7828 113.458C13.7578 112.466 12.7595 111.441 11.7427 110.438C11.0826 109.791 11.2158 109.153 11.7877 108.567C12.3597 107.981 12.9604 108.091 13.5118 108.591C14.3236 109.313 15.0985 110.072 15.9451 110.879Z" fill="#703773"/>
<path d="M15.9451 97.9124L19.2251 94.6324C19.4916 94.368 19.7458 94.0892 20.0267 93.8432C20.7114 93.2446 21.5744 93.1872 22.0357 93.7509C22.5748 94.4151 22.4457 95.1039 21.8901 95.6861C20.8057 96.8157 19.6884 97.9145 18.5876 99.0276C18.0853 99.536 17.6138 100.079 17.0788 100.551C16.2014 101.324 15.6192 101.303 14.7828 100.491C13.7578 99.4991 12.7595 98.4741 11.7427 97.4717C11.0826 96.8239 11.2158 96.1863 11.7877 95.6C12.3597 95.0137 12.9604 95.1244 13.5118 95.6246C14.3236 96.3462 15.0985 97.1047 15.9451 97.9124Z" fill="#703773"/>
<path d="M15.9451 123.53L19.2251 120.25C19.4916 119.985 19.7458 119.706 20.0267 119.46C20.7114 118.862 21.5744 118.804 22.0357 119.368C22.5748 120.032 22.4457 120.721 21.8901 121.303C20.8057 122.433 19.6884 123.532 18.5876 124.645C18.0853 125.153 17.6138 125.696 17.0788 126.168C16.2014 126.941 15.6192 126.92 14.7828 126.108C13.7578 125.116 12.7595 124.091 11.7427 123.089C11.0826 122.441 11.2158 121.804 11.7877 121.217C12.3597 120.631 12.9604 120.742 13.5118 121.242C14.3236 121.963 15.0985 122.722 15.9451 123.53Z" fill="#703773"/>
</svg>
