<svg width="167" height="168" viewBox="0 0 167 168" fill="none" xmlns="http://www.w3.org/2000/svg">
<path d="M18.3738 20.2812C17.0511 17.1746 16.9071 13.692 17.9688 10.4868C19.0305 7.28153 21.2253 4.57376 24.141 2.87103C26.4163 1.43303 29.0726 0.715798 31.7625 0.813492C34.4523 0.911186 37.0502 1.81934 39.2151 3.4186C41.792 5.25678 43.6704 7.91306 44.5452 10.955C45.42 13.997 45.2395 17.2454 44.0328 20.1716C45.381 20.6614 46.6973 21.2342 47.9746 21.887C49.6238 22.8732 50.9845 24.2762 51.9199 25.9548C52.8553 27.6334 53.3327 29.5283 53.3038 31.4497C53.3038 36.7421 53.3038 41.9979 53.3038 47.2902C53.4318 48.0175 53.2864 48.7666 52.8956 49.3932C52.5049 50.0198 51.896 50.4799 51.1865 50.6849C48.1571 51.5608 47.5366 53.5317 47.5366 56.4881C47.7921 60.138 47.5366 63.5325 47.5366 67.0364V68.9345C53.8573 67.2135 60.4904 66.9759 66.9179 68.2407C66.944 67.791 66.944 67.3401 66.9179 66.8903C66.9179 62.5104 66.9179 58.094 66.9179 53.7141C66.8812 53.3572 66.7674 53.0128 66.5846 52.7041C66.4019 52.3953 66.1545 52.1296 65.8593 51.9257C60.4209 49.2613 61.4429 49.5898 61.3699 44.2244C61.3699 40.1365 61.3699 36.0487 61.3699 31.9608C61.2029 29.3194 61.998 26.7068 63.6084 24.6066C65.2188 22.5063 67.5356 21.0605 70.1298 20.5365L70.714 20.2812C69.5716 17.5222 69.3377 14.4707 70.0465 11.5699C70.7553 8.66909 72.3698 6.06974 74.6557 4.14841C76.0501 2.91102 77.6937 1.98729 79.4756 1.43948C81.2576 0.891682 83.1361 0.732578 84.9848 0.972997C87.1622 1.1612 89.2589 1.88646 91.087 3.084C92.9152 4.28154 94.4177 5.91398 95.4601 7.83486C96.5217 9.6604 97.1528 11.7042 97.3046 13.8105C97.4564 15.9169 97.1249 18.03 96.336 19.9889C98.0964 20.7906 99.8033 21.7049 101.446 22.7264C102.736 23.6469 103.787 24.8628 104.51 26.2725C105.234 27.6821 105.61 29.2444 105.607 30.8291C105.607 36.4865 105.607 42.1439 105.607 47.7648C105.679 48.3345 105.55 48.9118 105.244 49.3977C104.938 49.8835 104.473 50.2478 103.928 50.4291C100.278 51.4876 99.8038 53.7508 99.9498 57.1088C100.242 63.8611 99.9498 70.6498 99.9498 77.4386C99.9498 80.395 99.1468 81.0885 96.2999 81.0885H90.3866C90.1927 81.0641 89.9968 81.0641 89.8029 81.0885C90.021 81.4814 90.2647 81.8596 90.5328 82.2202C95.758 88.2733 99.057 95.749 100.006 103.689C100.956 111.629 99.5123 119.671 95.8615 126.786C92.3249 134.287 86.5909 140.535 79.4199 144.701C72.249 148.866 63.9804 150.752 55.7124 150.109C50.4913 149.706 45.3913 148.332 40.6747 146.057C40.5113 145.943 40.3263 145.864 40.1312 145.825C39.936 145.785 39.7348 145.786 39.5399 145.827C39.3451 145.868 39.1608 145.948 38.9982 146.063C38.8355 146.178 38.6982 146.325 38.5945 146.495C37.025 148.138 35.3828 149.743 33.7768 151.313C32.1708 152.882 30.6013 153.503 28.1923 151.313C27.6083 151.824 26.9879 152.372 26.4404 152.919L14.0671 165.329C12.2787 167.154 10.9648 167.154 9.13985 165.329C6.6579 162.883 4.17596 160.365 1.84001 158.029C1.47826 157.769 1.18335 157.426 0.980108 157.029C0.776868 156.633 0.670898 156.194 0.670898 155.748C0.670898 155.302 0.776868 154.863 0.980108 154.466C1.18335 154.069 1.47826 153.727 1.84001 153.467C6.25641 149.014 10.6363 144.561 15.0892 140.181C15.7827 139.487 16.0744 139.013 15.2715 138.137C15.0083 137.867 14.8054 137.544 14.6762 137.19C14.547 136.836 14.4945 136.458 14.5221 136.082C14.5497 135.706 14.6566 135.34 14.8362 135.009C15.0157 134.677 15.2635 134.387 15.5633 134.158C17.3518 132.37 19.2136 130.509 20.929 128.793C21.3021 128.528 21.5565 128.128 21.6383 127.678C21.7202 127.228 21.623 126.763 21.367 126.384C18.8828 121.297 17.4888 115.747 17.2751 110.09C17.0614 104.434 18.0323 98.7946 20.1257 93.5349C21.6826 89.3572 23.9693 85.4891 26.8784 82.1106L27.7909 80.8698H25.9659H17.8993C15.5633 80.8698 14.5051 79.9207 14.5051 77.6213C14.5051 72.9129 14.5051 68.241 14.5051 63.5326C14.5051 59.8827 14.5051 56.4883 14.5051 52.9843C14.4517 52.7048 14.3395 52.4397 14.1759 52.2068C14.0123 51.974 13.801 51.7789 13.5561 51.6339C8.37322 49.0424 9.06674 49.7358 9.03024 43.7865C9.03024 40.1365 9.03024 36.4864 9.03024 33.092C8.6901 30.1727 9.46281 27.2325 11.1947 24.8579C12.9266 22.4833 15.4901 20.8493 18.3738 20.2812ZM34.1417 72.9493V67.5475H39.58V72.0003C42.281 71.3068 42.3905 71.1972 42.3905 68.6787V53.7872C42.3905 48.5678 42.0619 49.1517 46.8068 46.8523C47.1617 46.7251 47.4649 46.4846 47.6694 46.1679C47.8739 45.8512 47.9686 45.4762 47.9385 45.1004C47.9385 40.538 47.9385 35.9756 47.9385 31.4497C47.9536 30.6948 47.8153 29.9447 47.5322 29.2447C47.249 28.5447 46.827 27.9092 46.2913 27.377C45.7557 26.8447 45.1174 26.4268 44.4156 26.1482C43.7137 25.8695 42.9627 25.7362 42.2079 25.7561H38.7772C38.1811 25.813 37.5829 25.6675 37.0796 25.3431C36.5764 25.0186 36.1973 24.5337 36.0032 23.9672C35.7899 23.435 35.7489 22.8495 35.8865 22.2929C36.024 21.7362 36.333 21.2366 36.7695 20.8649C37.2296 20.4462 37.6453 19.9815 38.0104 19.4779C39.2434 17.7636 39.7785 15.645 39.5074 13.5508C39.2363 11.4566 38.1792 9.5436 36.5503 8.19976C34.8737 6.82382 32.7264 6.15687 30.5653 6.34094C28.4042 6.52501 26.4002 7.54563 24.9804 9.18531C23.5284 10.7775 22.7636 12.8783 22.8524 15.0313C22.9413 17.1843 23.8766 19.2155 25.4549 20.6826C26.019 21.0806 26.424 21.6656 26.5977 22.3338C26.7714 23.002 26.7027 23.7102 26.4039 24.3326C26.1403 24.8999 25.6972 25.3647 25.143 25.6549C24.5888 25.9452 23.9541 26.0447 23.3376 25.9383H20.5276C19.7228 25.8776 18.9144 25.9921 18.1582 26.2738C17.4019 26.5555 16.7154 26.998 16.1465 27.5704C15.5776 28.1427 15.1396 28.8316 14.8624 29.5896C14.5853 30.3475 14.4761 31.1564 14.5417 31.9608C14.5417 35.6107 14.5417 39.2608 14.5417 42.6552C14.3953 43.2306 14.3654 43.8293 14.4539 44.4165C14.5424 45.0036 14.7472 45.5672 15.0567 46.0739C15.3662 46.5806 15.7738 47.02 16.2557 47.3669C16.7376 47.7137 17.284 47.961 17.8628 48.0936C19.7242 48.6776 20.2353 50.1008 20.2353 51.9622C20.2353 59.2621 20.2353 66.5622 20.2353 74.1175C20.2353 75.6505 20.7099 76.0516 22.1699 76.0151C25.5278 76.0151 28.9222 75.8326 32.2437 76.0151C34.7621 76.0151 35.8936 74.4824 37.7185 73.132L34.1417 72.9493ZM100.57 38.2385C100.57 36.7785 100.57 35.3188 100.57 33.8953C101.045 27.654 98.4165 25.3181 92.3212 25.7561C91.6706 25.8859 91.0011 25.8859 90.3505 25.7561C88.3431 25.0261 87.6131 22.617 89.876 20.5365C91.316 19.1133 92.1794 17.2082 92.3007 15.1873C92.4219 13.1663 91.7922 11.1719 90.5328 9.58675C89.2733 7.96703 87.4666 6.86205 85.4509 6.47906C83.4351 6.09608 81.3488 6.46157 79.583 7.50649C78.4557 8.15247 77.4971 9.0552 76.785 10.1419C76.0729 11.2286 75.6276 12.4683 75.4853 13.7597C75.343 15.0512 75.5076 16.3579 75.966 17.5736C76.4245 18.7893 77.1634 19.8798 78.1229 20.7557C78.6048 21.1184 78.9572 21.6262 79.1281 22.2046C79.299 22.783 79.2794 23.4009 79.072 23.9672C78.8384 24.5446 78.4242 25.0314 77.8913 25.3538C77.3583 25.6761 76.7356 25.8173 76.1158 25.7561H73.0134C72.234 25.7081 71.4531 25.8262 70.7229 26.1027C69.9926 26.3792 69.3293 26.8074 68.7772 27.3596C68.225 27.9118 67.7963 28.575 67.5198 29.3053C67.2433 30.0356 67.1252 30.8165 67.1732 31.5959C67.1732 35.2458 67.3557 38.8955 67.1732 42.7644C67.1732 45.4288 67.7206 47.0713 70.3121 47.8378C71.1204 48.1106 71.8079 48.658 72.2546 49.3848C72.7014 50.1115 72.8792 50.9717 72.7577 51.8161C72.7577 57.2545 72.7577 62.7662 72.7577 68.095C72.6761 68.6003 72.7837 69.1179 73.0598 69.5489C73.3358 69.9798 73.7612 70.2939 74.2543 70.431C75.8553 70.859 77.3644 71.5763 78.7071 72.5478C80.7012 74.0108 82.972 75.053 85.3813 75.6114C87.7907 76.1698 90.2882 76.2328 92.7226 75.7963H93.4894C94.8034 75.7963 95.1682 75.3946 95.1682 74.1536C95.1682 67.3647 95.1682 60.576 95.1682 53.7872C95.1682 48.4948 94.9129 49.1518 99.4388 46.9253C99.8498 46.7919 100.2 46.5168 100.427 46.1492C100.655 45.7816 100.744 45.3455 100.68 44.9182C100.497 42.6917 100.57 40.611 100.57 38.2385ZM58.8882 72.9493C49.4217 72.9386 40.3313 76.6545 33.583 83.2935C26.8347 89.9325 22.9709 98.9609 22.827 108.426C22.7787 113.208 23.6801 117.953 25.4789 122.384C27.2778 126.815 29.9379 130.844 33.3059 134.24C36.6738 137.635 40.6822 140.327 45.0986 142.162C49.515 143.996 54.2517 144.935 59.0339 144.926C63.798 144.902 68.5107 143.938 72.9016 142.09C77.2925 140.241 81.2755 137.544 84.6221 134.153C87.9688 130.762 90.6131 126.745 92.4041 122.33C94.195 117.915 95.0971 113.19 95.0586 108.426C94.8863 98.951 90.9985 89.9229 84.2327 83.2868C77.467 76.6508 68.3652 72.9381 58.8882 72.9493ZM7.27836 156.423C8.55583 157.591 9.8333 158.686 10.9283 160.073C11.5488 160.693 11.9865 160.474 12.4975 160.073C16.1474 156.423 20.0166 152.591 23.7395 148.795C23.9585 148.576 24.1045 147.845 23.7395 147.663C22.4985 146.313 21.1843 145.072 19.8339 143.758L7.27836 156.423ZM24.5059 132.991C23.7029 133.94 22.8996 134.961 21.9507 135.91C21.0017 136.859 21.3302 137.006 21.9507 137.553C22.2606 137.827 22.5536 138.119 22.827 138.429L30.9298 146.751L34.5797 143.101L24.5059 132.991Z" fill="#703773"/>
<path d="M156.667 83.7901C158.216 84.026 159.742 84.3924 161.229 84.8853C162.955 85.5062 164.441 86.655 165.476 88.1685C166.511 89.6821 167.043 91.4832 166.996 93.3164C166.996 103.974 166.996 114.632 166.996 125.29C166.649 126.941 165.924 128.49 164.879 129.816C164.076 131.239 162.945 132.516 162.142 133.94C161.761 134.658 161.572 135.463 161.594 136.276C161.594 144.306 161.594 152.299 161.594 160.329C161.594 161.789 161.594 163.212 161.594 164.636C161.585 165.268 161.327 165.872 160.876 166.316C160.425 166.76 159.818 167.009 159.186 167.008C157.689 167.008 156.193 167.008 154.696 167.008H126.774C123.599 167.008 123.124 166.315 123.124 163.176C123.124 154.234 123.124 145.291 123.124 136.312C123.099 135.306 122.81 134.324 122.285 133.465C121.117 131.458 119.657 129.597 118.635 127.626C118.111 126.751 117.809 125.761 117.759 124.743C117.759 114.596 117.759 104.461 117.759 94.3384C117.626 93.0197 117.772 91.6876 118.187 90.4288C118.602 89.17 119.277 88.0129 120.169 87.0319C121.06 86.051 122.147 85.2684 123.361 84.7351C124.574 84.2019 125.887 83.9296 127.212 83.9363L128.052 83.7536C127.65 82.6586 127.248 81.6732 126.92 80.6513C126.218 78.5608 125.946 76.3501 126.12 74.1516C126.294 71.9532 126.911 69.8125 127.934 67.8587C128.957 65.9049 130.364 64.1783 132.072 62.7826C133.779 61.3869 135.751 60.351 137.87 59.7373C139.585 59.2263 140.06 58.4962 139.987 56.8537C139.987 53.2038 139.987 49.8463 139.987 46.3058C139.987 45.1014 139.403 44.9915 138.454 44.9915H123.854C121.263 44.9915 120.204 44.0425 120.204 41.3416V4.40441C120.204 1.44798 121.044 0.572266 123.854 0.572266H160.353C164.003 0.572266 164.587 1.3023 164.551 4.73323V40.7579C164.551 44.1523 163.857 44.8823 160.499 44.8823H146.703C145.535 44.8823 145.06 45.174 145.097 46.415C145.097 49.9919 145.097 53.5691 145.097 57.146C145.027 57.4362 145.022 57.7379 145.081 58.0304C145.14 58.3229 145.263 58.599 145.44 58.8391C145.618 59.0791 145.846 59.2775 146.108 59.4201C146.37 59.5626 146.66 59.6459 146.958 59.6642C150.492 60.5712 153.615 62.6496 155.815 65.5597C158.016 68.4698 159.166 72.0399 159.076 75.6874C158.778 77.9694 158.264 80.2179 157.543 82.4031C157.304 82.8969 157.01 83.3622 156.667 83.7901ZM156.01 161.607V159.672C156.01 151.496 156.01 143.321 156.01 135.145C156.078 133.853 156.466 132.598 157.141 131.495C158.2 129.56 159.623 127.845 160.791 125.947C161.224 125.254 161.476 124.463 161.522 123.647C161.522 113.744 161.522 103.853 161.522 93.9735C161.56 93.3901 161.472 92.8054 161.265 92.2586C161.058 91.7119 160.736 91.216 160.321 90.8044C159.906 90.3927 159.407 90.0748 158.859 89.8723C158.31 89.6697 157.724 89.5873 157.141 89.6304H151.082C149.586 89.6304 148.272 89.3748 147.725 87.7689C147.491 87.0904 147.506 86.3512 147.767 85.6828C148.028 85.0144 148.517 84.4603 149.148 84.1189C150.616 82.8799 151.741 81.2842 152.414 79.4853C153.088 77.6863 153.287 75.7444 152.994 73.846C152.701 71.9476 151.925 70.1566 150.74 68.6447C149.555 67.1327 148.001 65.9507 146.228 65.2122C144.027 64.4404 141.646 64.337 139.386 64.915C137.126 65.493 135.087 66.7267 133.527 68.4607C132.55 69.5937 131.815 70.9148 131.369 72.3427C130.922 73.7706 130.773 75.2748 130.93 76.7625C131.088 78.2503 131.548 79.6901 132.283 80.993C133.019 82.2959 134.013 83.4341 135.205 84.3377C135.73 84.6836 136.126 85.1933 136.33 85.7875C136.535 86.3817 136.537 87.0271 136.337 87.6227C136.116 88.2348 135.69 88.7513 135.131 89.0841C134.571 89.4169 133.914 89.5454 133.271 89.4477H127.212C126.604 89.3527 125.982 89.4002 125.396 89.5863C124.809 89.7723 124.274 90.0921 123.831 90.5201C123.389 90.9482 123.052 91.473 122.847 92.0532C122.642 92.6335 122.575 93.2531 122.65 93.8639C122.65 103.792 122.65 113.756 122.65 123.684C122.656 124.35 122.832 125.003 123.161 125.582C124.119 127.174 125.167 128.709 126.3 130.181C127.594 131.859 128.254 133.94 128.161 136.057C128.161 143.978 128.161 151.898 128.161 159.818C128.161 161.242 128.526 161.68 129.95 161.68C137.943 161.68 145.9 161.68 153.856 161.68L156.01 161.607ZM158.857 39.6262V38.0205C158.857 28.0197 158.857 18.0186 158.857 8.05433C158.857 6.55786 158.346 6.26591 156.995 6.26591C147.067 6.26591 137.14 6.26591 127.212 6.26591C125.789 6.26591 125.351 6.6674 125.351 8.09087C125.351 18.0186 125.351 27.9587 125.351 37.9109C125.351 39.2613 125.679 39.7358 127.176 39.7358C137.031 39.7358 146.922 39.7358 156.813 39.7358L158.857 39.6262Z" fill="#703773"/>
<path d="M36.6207 33.8569L33.9197 34.1487V45.0985C32.3138 45.0985 30.8173 45.0985 29.3574 45.0985C29.0289 45.0985 28.5179 44.3321 28.4814 43.8942C28.4814 41.1202 28.4814 38.3461 28.4814 35.5357C28.4814 34.4042 28.1893 33.8566 26.9848 34.0391C25.7803 34.2216 25.7074 33.7106 25.6709 32.6887C25.6709 28.6373 25.6711 28.6738 29.54 28.6738H35.4163C36.2923 28.6738 36.6572 28.9661 36.6207 29.8421C36.5842 30.718 36.6207 32.4699 36.6207 33.8569Z" fill="#703773"/>
<path d="M86.6275 45.0633H81.2618C81.2618 44.4793 81.2618 43.932 81.2618 43.3845C81.2618 40.7565 81.2618 38.0919 81.2618 35.464C81.2618 34.4785 81.0793 33.8214 79.9114 34.0039C78.7434 34.1864 78.5248 33.6028 78.4883 32.5809C78.4883 28.639 78.4883 28.6387 82.1382 28.6387C83.8902 28.6387 85.7879 28.6387 87.3939 28.6387C88.9998 28.6387 89.4744 29.1498 89.2554 30.6098C89.2008 31.0094 89.2008 31.4144 89.2554 31.8141C89.2554 33.2011 89.2553 34.369 87.3939 34.1135C87.1749 34.1135 86.591 34.9529 86.591 35.3909C86.591 38.0554 86.591 40.7566 86.591 43.4576L86.6275 45.0633Z" fill="#703773"/>
<path d="M92.029 72.9483H87.8315C86.992 72.9483 86.7363 72.6201 86.7363 71.8536V67.583H92.029V72.9483Z" fill="#703773"/>
<path d="M89.3603 108.571C89.453 116.498 86.4572 124.15 81.0072 129.906C75.5572 135.663 68.0809 139.072 60.161 139.413C56.1192 139.554 52.0895 138.89 48.3072 137.458C44.5249 136.026 41.0656 133.856 38.1305 131.074C35.1954 128.292 32.8435 124.953 31.2116 121.253C29.5798 117.552 28.7007 113.564 28.6257 109.52C28.522 101.573 31.5087 93.8958 36.956 88.1079C42.4034 82.3201 49.8858 78.874 57.825 78.4962C61.8769 78.3748 65.9125 79.0589 69.6979 80.5091C73.4833 81.9594 76.9429 84.1469 79.8764 86.9446C82.8099 89.7423 85.1589 93.0948 86.7869 96.8072C88.4148 100.52 89.2897 104.518 89.3603 108.571ZM58.9562 134.121C65.5368 134.112 71.8487 131.508 76.5224 126.876C81.196 122.243 83.8548 115.955 83.922 109.374C83.9509 106.071 83.3259 102.795 82.0828 99.734C80.8397 96.6733 79.0032 93.8887 76.6792 91.5409C74.3551 89.1931 71.5892 87.3285 68.5413 86.0544C65.4933 84.7803 62.2232 84.1219 58.9197 84.1172C55.59 84.1113 52.2932 84.7723 49.2233 86.0615C46.1533 87.3508 43.3728 89.2418 41.0457 91.6233C38.7187 94.0048 36.8921 96.8285 35.6742 99.9274C34.4563 103.026 33.8715 106.338 33.9544 109.667C34.1073 116.186 36.8123 122.384 41.4877 126.93C46.1631 131.476 52.4354 134.005 58.9562 133.975V134.121Z" fill="#703773"/>
<path d="M150.392 100.651C148.859 100.651 147.509 100.651 146.195 100.651C144.881 100.651 144.808 101.053 144.808 102.111C144.808 107.477 144.808 112.842 144.808 118.244V119.996H139.442V100.761H133.821C133.821 99.0089 133.821 97.4761 133.821 95.9797C133.821 95.6877 134.369 95.2129 134.661 95.2129H149.26C149.47 95.2694 149.662 95.3799 149.816 95.5337C149.969 95.6874 150.08 95.8789 150.137 96.0888C150.465 97.4758 150.392 99.0088 150.392 100.651Z" fill="#703773"/>
<path d="M153.053 158.723H147.688C147.688 157.19 147.688 155.73 147.688 154.234C147.751 154.041 147.861 153.868 148.007 153.728C148.154 153.588 148.332 153.486 148.527 153.431C149.987 153.431 151.447 153.431 153.016 153.431L153.053 158.723Z" fill="#703773"/>
<path d="M150.83 10.6094L155.502 13.3103C154.188 15.6827 152.984 17.9092 151.852 20.1721L144.881 32.2531C143.968 33.8956 142.399 34.5891 141.012 33.6401C137.362 30.9757 133.457 28.129 129.588 25.2456L132.252 21.5957C132.8 20.7927 133.347 21.1577 133.931 21.5957C136.34 23.4571 138.786 25.2453 141.414 27.2528L150.83 10.6094Z" fill="#703773"/>
<path d="M58.8512 94.884C55.1865 95.0371 51.7133 96.5638 49.1231 99.1608C46.5329 101.758 45.0152 105.234 44.8717 108.9H39.543C39.6107 107.391 39.7938 105.891 40.0905 104.41C41.0932 100.418 43.3434 96.849 46.514 94.2232C49.6845 91.5975 53.6099 90.0516 57.7195 89.8105C58.0845 89.8105 58.7781 90.2122 58.7781 90.4677C58.8876 91.7087 58.8512 93.3875 58.8512 94.884Z" fill="#703773"/>
</svg>
