<svg width="99" height="100" viewBox="0 0 99 100" fill="none" xmlns="http://www.w3.org/2000/svg">
<g clip-path="url(#clip0_1018_1167)">
<path d="M33.3848 10.4062C33.3848 7.7275 33.3848 5.18823 33.3848 2.64895C33.3848 0.652189 34.0371 0.0117188 36.0244 0.0117188H80.6822C82.7449 0.0117188 83.3972 0.678562 83.401 2.76197C83.401 3.89222 83.401 5.02246 83.401 6.13386C83.401 7.43741 82.4847 8.39434 81.2743 8.35667C80.0638 8.31899 79.2456 7.40727 79.2192 6.13386C79.2192 5.52353 79.2192 4.9132 79.2192 4.25012H37.5629V5.19199C37.5629 33.1969 37.5629 61.2017 37.5629 89.2066C37.5629 92.7593 39.7311 95.3325 43.0947 95.7733C43.9152 95.8719 44.7471 95.8048 45.5412 95.576C46.3352 95.3471 47.0752 94.9612 47.7171 94.4411C48.359 93.921 48.8897 93.2774 49.2778 92.5484C49.666 91.8194 49.9035 91.0199 49.9764 90.1975C50.0782 88.7884 50.0178 87.3643 50.0254 85.9477C50.0254 84.064 50.7607 83.3331 52.665 83.3331H79.2343V82.2933C79.2343 74.457 79.2343 66.6194 79.2343 58.7805C79.2274 58.2521 79.3408 57.729 79.5661 57.2509C79.775 56.8555 80.1146 56.5445 80.527 56.3707C80.9394 56.197 81.3993 56.1712 81.8286 56.2977C82.2595 56.4065 82.6442 56.6503 82.9265 56.9933C83.2087 57.3363 83.3737 57.7606 83.3972 58.2041C83.4274 58.8144 83.3972 59.4323 83.3972 60.0464V83.3294H93.3409C95.1924 83.3294 95.9541 84.0565 95.924 85.8875C95.89 87.7712 96.0182 89.7152 95.6788 91.5613C94.77 96.5419 90.6146 99.9552 85.4976 99.9703C71.6021 100.015 57.7066 99.9929 43.8111 99.9703C42.3187 99.9902 40.8406 99.678 39.484 99.0564C38.1274 98.4347 36.9263 97.5191 35.9678 96.3761C35.8225 96.1925 35.6346 96.0468 35.4205 95.9517C35.2064 95.8565 34.9724 95.8147 34.7385 95.8298C25.3944 95.8449 16.0515 95.8449 6.70996 95.8298C3.94594 95.8298 1.80785 94.6996 0.646439 92.1452C0.238094 91.1606 0.0366541 90.1027 0.0544852 89.0371C0.016777 71.0361 0.0079526 53.0339 0.0280637 35.0304V17.0746C0.0280637 13.0698 2.64126 10.4212 6.64588 10.4137C15.1931 10.4137 23.734 10.4137 32.2686 10.4137L33.3848 10.4062ZM33.3848 43.737H10.8956C9.08561 43.737 8.3503 43.0136 8.34653 41.2279C8.34653 38.0707 8.34653 34.9136 8.34653 31.7564C8.34653 29.8727 9.0705 29.1192 10.9597 29.1192H33.3848C33.3848 27.3334 33.3395 25.6268 33.4074 23.9239C33.4376 23.1101 33.2151 22.8953 32.3931 22.8991C25.2964 22.933 18.2034 22.9179 11.1067 22.8991C10.7599 22.9113 10.4128 22.8911 10.0697 22.8388C9.66744 22.7833 9.2926 22.6035 8.99777 22.3244C8.70294 22.0454 8.50295 21.6812 8.4257 21.2829C8.22962 20.4276 8.4257 19.6214 9.17987 19.1731C9.70811 18.8796 10.3024 18.7253 10.9068 18.7248C18.0299 18.6946 25.1493 18.7248 32.2724 18.7248H33.3132V14.5504H6.94002C4.90754 14.5504 4.16842 15.2737 4.16842 17.2818C4.16842 41.1952 4.16842 65.1074 4.16842 89.0182C4.16842 90.8794 4.92259 91.6555 6.808 91.6555H33.3848V43.737ZM52.4086 95.8035C52.4743 95.8173 52.5413 95.8249 52.6084 95.8261C63.5438 95.8261 74.5057 95.875 85.4524 95.8035C89.6719 95.7771 92.4586 92.1678 91.5875 87.5414H54.3129C54.1922 89.0069 54.2337 90.4499 53.9358 91.8099C53.6379 93.17 52.9554 94.4434 52.4199 95.8072L52.4086 95.8035ZM33.3395 33.3878H12.5999V39.4835H33.3395V33.3878Z" fill="white"/>
<path d="M77.2471 10.4058C79.9886 10.4221 82.6999 10.978 85.2263 12.0419C87.7526 13.1057 90.0444 14.6565 91.9705 16.6058C93.8966 18.555 95.4193 20.8644 96.4516 23.4019C97.4838 25.9394 98.0055 28.6554 97.9866 31.3944C97.9348 36.9145 95.6944 42.1889 91.7564 46.0611C87.8185 49.9334 82.5045 52.0876 76.9793 52.0515C74.2309 52.0338 71.513 51.473 68.9824 50.4013C66.4519 49.3296 64.1586 47.7683 62.2346 45.8072C60.3107 43.8461 58.7942 41.524 57.7724 38.9747C56.7507 36.4255 56.2439 33.6994 56.2812 30.9536C56.3868 19.606 65.8478 10.3229 77.2471 10.4058ZM60.4707 31.1684C60.4065 40.2367 67.8463 47.8055 76.9001 47.8809C79.1001 47.9087 81.284 47.5021 83.3263 46.6843C85.3686 45.8665 87.229 44.6537 88.8008 43.1155C90.3726 41.5773 91.6248 39.744 92.4855 37.7209C93.3461 35.6978 93.7983 33.5248 93.816 31.3266C93.8272 26.9155 92.0933 22.6787 88.9919 19.5392C85.8906 16.3997 81.6732 14.6118 77.2584 14.5651C72.8266 14.5451 68.5683 16.2846 65.4201 19.401C62.2719 22.5175 60.4916 26.7556 60.4707 31.1834V31.1684Z" fill="white"/>
<path d="M58.4311 66.6543C63.1898 66.6543 67.9524 66.6543 72.7112 66.6543C73.62 66.6543 74.3515 66.9331 74.7927 67.7393C74.9601 68.0461 75.0482 68.3896 75.0493 68.739C75.0504 69.0883 74.9643 69.4324 74.7989 69.7401C74.6335 70.0479 74.3939 70.3096 74.1018 70.5016C73.8097 70.6937 73.4743 70.8099 73.126 70.84C72.9928 70.8475 72.8595 70.8475 72.7263 70.84H44.0001C42.8085 70.84 41.9563 70.1957 41.7376 69.1823C41.4586 67.8147 42.4202 66.6618 43.8946 66.6581C47.986 66.6581 52.081 66.6581 56.1723 66.6581L58.4311 66.6543Z" fill="white"/>
<path d="M51.1083 8.3411C53.5405 8.3411 55.9727 8.3411 58.4086 8.3411C58.8413 8.3321 59.2651 8.46448 59.6157 8.71813C59.9662 8.97177 60.2242 9.33281 60.3506 9.74637C60.4926 10.1543 60.4993 10.597 60.3695 11.009C60.2398 11.4209 59.9806 11.7801 59.6304 12.0332C59.2061 12.3016 58.7181 12.4524 58.2163 12.4703C53.4525 12.5004 48.6912 12.5004 43.9324 12.4703C42.5862 12.4703 41.6699 11.5849 41.6888 10.3755C41.7076 9.16618 42.6051 8.3298 43.9513 8.32227C46.3306 8.32227 48.71 8.32227 51.0932 8.32227L51.1083 8.3411Z" fill="white"/>
<path d="M49.9769 54.1579C47.9972 54.1579 46.0137 54.1579 44.0341 54.1579C42.6162 54.1579 41.6962 53.3215 41.6924 52.0782C41.6886 50.8349 42.62 49.9797 44.019 49.976C48.0638 49.976 52.1074 49.976 56.1498 49.976C56.636 49.9487 57.1167 50.0903 57.5104 50.3766C57.9042 50.6629 58.1869 51.0764 58.3105 51.547C58.4294 51.9767 58.4021 52.4338 58.2328 52.8464C58.0636 53.259 57.7619 53.6036 57.3753 53.8263C56.9749 54.0315 56.5318 54.1399 56.0818 54.1428C54.0569 54.1767 52.0244 54.1579 49.9769 54.1579Z" fill="white"/>
<path d="M67.6997 62.4838C66.0443 62.4838 64.3851 62.4838 62.726 62.4838C61.3873 62.4838 60.4635 61.6248 60.4371 60.423C60.4107 59.2212 61.3647 58.3358 62.6996 58.332C66.0656 58.332 69.4355 58.332 72.8092 58.332C74.1667 58.332 75.0339 59.1722 75.0264 60.4267C75.0188 61.6813 74.1289 62.4763 72.7639 62.4838C71.0934 62.4913 69.4003 62.4838 67.6997 62.4838Z" fill="white"/>
<path d="M49.0684 74.9802C50.7275 74.9802 52.3867 74.9802 54.0496 74.9802C55.3769 74.9802 56.3121 75.8693 56.3121 77.0749C56.3121 78.2805 55.3807 79.1508 54.0496 79.1545C50.7011 79.1545 47.3538 79.1545 44.0079 79.1545C42.6315 79.1545 41.7002 78.2692 41.719 77.0184C41.7379 75.7676 42.6617 74.984 44.023 74.9802C45.6934 74.9764 47.3828 74.9802 49.0684 74.9802Z" fill="white"/>
<path d="M47.9552 45.8203C46.5939 45.8203 45.2327 45.8203 43.8677 45.8203C43.5866 45.8336 43.3057 45.7895 43.0423 45.6905C42.7789 45.5916 42.5384 45.4399 42.3358 45.2449C42.1331 45.0498 41.9725 44.8154 41.8637 44.5561C41.7549 44.2968 41.7003 44.018 41.7032 43.7369C41.7015 43.4557 41.7568 43.1771 41.8659 42.9179C41.975 42.6587 42.1355 42.4243 42.3378 42.2289C42.5401 42.0334 42.78 41.881 43.043 41.7808C43.306 41.6806 43.5865 41.6347 43.8677 41.6459C46.5952 41.6258 49.319 41.6258 52.039 41.6459C52.3206 41.6336 52.6018 41.6788 52.8653 41.7789C53.1288 41.879 53.3691 42.0318 53.5714 42.2279C53.7737 42.424 53.9338 42.6594 54.0418 42.9195C54.1499 43.1796 54.2036 43.459 54.1997 43.7406C54.2053 44.0217 54.1528 44.301 54.0454 44.5608C53.938 44.8207 53.7781 45.0556 53.5756 45.2508C53.3731 45.4461 53.1324 45.5974 52.8687 45.6954C52.6049 45.7934 52.3238 45.8359 52.0428 45.8203C50.6815 45.8203 49.3165 45.8203 47.9552 45.8203Z" fill="white"/>
<path d="M46.9605 16.6444C47.9484 16.6444 48.9402 16.6444 49.9282 16.6444C51.2329 16.6707 52.0926 17.4883 52.1189 18.6976C52.1338 18.9795 52.0898 19.2614 51.9895 19.5253C51.8893 19.7892 51.735 20.0293 51.5367 20.2303C51.3383 20.4313 51.1002 20.5888 50.8376 20.6927C50.5749 20.7966 50.2934 20.8447 50.0111 20.8338C47.9573 20.8715 45.9009 20.8715 43.842 20.8338C43.5597 20.8438 43.2783 20.7956 43.0155 20.6921C42.7527 20.5887 42.514 20.4322 42.3144 20.2324C42.1149 20.0327 41.9587 19.794 41.8556 19.5312C41.7525 19.2684 41.7048 18.9872 41.7153 18.7052C41.7342 17.526 42.6316 16.6708 43.9174 16.6481C44.9204 16.6293 45.9348 16.6444 46.9605 16.6444Z" fill="white"/>
<path d="M44.8331 58.3352C45.2329 58.3352 45.6363 58.3089 46.0322 58.3352C46.5568 58.3732 47.0476 58.6079 47.4063 58.9921C47.7651 59.3764 47.9652 59.8819 47.9666 60.4074C47.9675 60.9333 47.7667 61.4395 47.4055 61.8221C47.0443 62.2047 46.5502 62.4345 46.0247 62.4644C45.226 62.5115 44.4251 62.5115 43.6264 62.4644C43.1013 62.4343 42.6081 62.2028 42.2497 61.8181C41.8914 61.4334 41.6957 60.9253 41.7033 60.3998C41.7021 59.8609 41.9114 59.3428 42.2868 58.9558C42.6622 58.5688 43.174 58.3434 43.7131 58.3277C44.0902 58.3089 44.4673 58.3277 44.8444 58.3277L44.8331 58.3352Z" fill="white"/>
<path d="M62.5105 74.984C62.7839 74.9775 63.056 75.0256 63.3106 75.1257C63.5651 75.2258 63.797 75.3757 63.9927 75.5667C64.1884 75.7576 64.344 75.9858 64.4501 76.2377C64.5562 76.4896 64.6109 76.7602 64.6108 77.0335C64.6204 77.3071 64.5752 77.5798 64.4779 77.8357C64.3806 78.0916 64.2331 78.3255 64.0442 78.5238C63.8553 78.722 63.6287 78.8806 63.3776 78.9902C63.1265 79.0998 62.8561 79.1583 62.5821 79.1621C62.0295 79.1662 61.4973 78.9534 61.1003 78.5693C60.7032 78.1853 60.473 77.6608 60.4592 77.1088C60.4521 76.5561 60.6635 76.0229 61.0476 75.6251C61.4317 75.2272 61.9574 74.9968 62.5105 74.984Z" fill="white"/>
<path d="M56.2968 60.4306C56.2944 60.7042 56.2377 60.9745 56.1299 61.226C56.0222 61.4775 55.8656 61.7052 55.6692 61.8958C55.4728 62.0864 55.2405 62.2362 54.9858 62.3365C54.7311 62.4368 54.4589 62.4856 54.1852 62.4801C53.6323 62.4732 53.1045 62.2492 52.7157 61.8565C52.3269 61.4638 52.1084 60.934 52.1074 60.3817C52.1213 59.8294 52.3522 59.3047 52.7502 58.9212C53.1482 58.5376 53.6813 58.326 54.2342 58.3322C54.508 58.3331 54.7788 58.3883 55.0311 58.4946C55.2834 58.6009 55.5121 58.7561 55.7039 58.9513C55.8957 59.1464 56.0469 59.3777 56.1487 59.6316C56.2505 59.8855 56.3008 60.1571 56.2968 60.4306Z" fill="white"/>
<path d="M18.8033 83.3325C20.8094 83.3325 22.8155 83.3325 24.8366 83.3325C26.2054 83.3325 27.0991 84.15 27.1292 85.3631C27.1594 86.5762 26.2205 87.4804 24.8291 87.4842C20.8069 87.4842 16.7946 87.4842 12.7925 87.4842C11.3596 87.4842 10.466 86.6629 10.4697 85.4008C10.4735 84.1387 11.3596 83.34 12.7963 83.3325C14.7873 83.3249 16.7935 83.3325 18.8033 83.3325Z" fill="white"/>
<path d="M25.0327 54.1537C24.7585 54.1589 24.486 54.1085 24.2318 54.0057C23.9775 53.9029 23.7467 53.7497 23.5533 53.5554C23.3598 53.3611 23.2078 53.1297 23.1062 52.8751C23.0047 52.6205 22.9559 52.348 22.9625 52.0741C22.9585 51.5222 23.1738 50.9912 23.5612 50.5978C23.9486 50.2043 24.4765 49.9806 25.0289 49.9756C25.5824 49.9815 26.1115 50.2043 26.5022 50.5961C26.8929 50.9879 27.114 51.5173 27.1179 52.0703C27.1179 52.6229 26.8982 53.1528 26.5071 53.5435C26.1161 53.9342 25.5857 54.1537 25.0327 54.1537Z" fill="white"/>
<path d="M27.1183 60.3811C27.1218 60.6546 27.0712 60.9262 26.9693 61.1801C26.8674 61.434 26.7162 61.6653 26.5245 61.8607C26.3328 62.056 26.1044 62.2116 25.8523 62.3185C25.6002 62.4253 25.3295 62.4813 25.0557 62.4833C24.7819 62.492 24.5092 62.4451 24.254 62.3454C23.9989 62.2458 23.7666 62.0954 23.5713 61.9034C23.376 61.7115 23.2217 61.4819 23.1178 61.2287C23.0139 60.9754 22.9625 60.7037 22.9667 60.43C22.9549 60.1564 22.9991 59.8832 23.0966 59.6273C23.1942 59.3713 23.343 59.138 23.534 58.9415C23.725 58.745 23.9541 58.5896 24.2073 58.4847C24.4606 58.3798 24.7326 58.3277 25.0067 58.3316C25.2806 58.3256 25.553 58.374 25.8079 58.4741C26.0629 58.5743 26.2953 58.724 26.4918 58.9148C26.6883 59.1055 26.845 59.3333 26.9525 59.585C27.0601 59.8368 27.1164 60.1074 27.1183 60.3811Z" fill="white"/>
<path d="M14.6026 68.7037C14.6108 69.2559 14.4016 69.7892 14.02 70.1888C13.6384 70.5884 13.115 70.8222 12.5626 70.8399C12.0098 70.8429 11.4781 70.6277 11.0833 70.241C10.6886 69.8544 10.4626 69.3276 10.4547 68.7753C10.444 68.5017 10.4887 68.2288 10.5859 67.9728C10.6832 67.7168 10.8311 67.483 11.0208 67.2854C11.2105 67.0878 11.4382 66.9304 11.6901 66.8226C11.9421 66.7148 12.2131 66.6588 12.4872 66.658C12.7613 66.6505 13.0342 66.6977 13.2898 66.797C13.5454 66.8963 13.7786 67.0456 13.9756 67.2362C14.1727 67.4268 14.3297 67.6548 14.4373 67.9068C14.545 68.1588 14.6012 68.4297 14.6026 68.7037Z" fill="white"/>
<path d="M14.6023 52.0703C14.6053 52.3438 14.5538 52.6151 14.4508 52.8685C14.3477 53.1219 14.1953 53.3523 14.0022 53.5462C13.8092 53.7401 13.5795 53.8937 13.3264 53.998C13.0734 54.1023 12.8021 54.1552 12.5283 54.1537C12.2545 54.1578 11.9827 54.1069 11.729 54.0039C11.4753 53.901 11.2449 53.7482 11.0514 53.5545C10.858 53.3609 10.7054 53.1304 10.6029 52.8767C10.5003 52.6231 10.4498 52.3514 10.4544 52.0778C10.4504 51.5256 10.6657 50.9942 11.053 50.6002C11.4403 50.2062 11.9681 49.9816 12.5208 49.9756C13.0745 49.9786 13.6045 50.2007 13.9947 50.5933C14.3848 50.9859 14.6033 51.517 14.6023 52.0703Z" fill="white"/>
<path d="M25.0405 70.8393C24.4878 70.8363 23.9587 70.6146 23.5693 70.2227C23.1799 69.8308 22.9618 69.3006 22.9628 68.7484C22.9546 68.4744 23.0021 68.2017 23.1022 67.9465C23.2023 67.6914 23.3531 67.4591 23.5455 67.2638C23.7378 67.0684 23.9678 66.914 24.2215 66.8098C24.4752 66.7056 24.7474 66.6537 25.0217 66.6574C25.5744 66.6554 26.1055 66.8723 26.4984 67.2607C26.8914 67.6491 27.1142 68.1773 27.1182 68.7295C27.1163 69.2827 26.8979 69.8131 26.5097 70.2074C26.1214 70.6017 25.5941 70.8285 25.0405 70.8393Z" fill="white"/>
<path d="M12.5323 62.4832C12.2585 62.4882 11.9866 62.4383 11.7325 62.3363C11.4784 62.2343 11.2474 62.0823 11.0532 61.8894C10.8591 61.6964 10.7057 61.4665 10.6022 61.2132C10.4988 60.9599 10.4472 60.6884 10.4508 60.4148C10.4442 60.141 10.493 59.8687 10.5942 59.6141C10.6955 59.3596 10.8471 59.1281 11.0401 58.9336C11.233 58.739 11.4634 58.5854 11.7172 58.4819C11.971 58.3785 12.2431 58.3273 12.5172 58.3314C12.7912 58.3263 13.0634 58.3763 13.3177 58.4782C13.572 58.5802 13.8032 58.7321 13.9976 58.925C14.1921 59.1179 14.3458 59.3478 14.4497 59.6011C14.5536 59.8544 14.6055 60.126 14.6025 60.3997C14.6075 60.6735 14.5576 60.9454 14.4555 61.1995C14.3535 61.4535 14.2015 61.6846 14.0084 61.8788C13.8154 62.0731 13.5852 62.2267 13.3317 62.3305C13.0781 62.4343 12.8063 62.4862 12.5323 62.4832Z" fill="white"/>
<path d="M14.6031 77.0565C14.6081 77.6085 14.3938 78.1398 14.0071 78.534C13.6204 78.9281 13.0928 79.1528 12.5404 79.1588C12.2667 79.1613 11.9951 79.1095 11.7415 79.0064C11.4879 78.9034 11.2573 78.7511 11.063 78.5584C10.8688 78.3656 10.7147 78.1363 10.6097 77.8837C10.5047 77.6311 10.4509 77.3602 10.4514 77.0867C10.4474 76.8133 10.4977 76.5418 10.5992 76.2879C10.7006 76.034 10.8514 75.8027 11.0428 75.6073C11.2342 75.4119 11.4623 75.2562 11.7142 75.1493C11.9661 75.0424 12.2366 74.9864 12.5102 74.9844C12.784 74.9824 13.0556 75.0345 13.3092 75.1377C13.5627 75.2409 13.7934 75.3932 13.9879 75.5858C14.1824 75.7783 14.3368 76.0074 14.4424 76.2598C14.548 76.5122 14.6026 76.783 14.6031 77.0565Z" fill="white"/>
<path d="M27.1176 77.0903C27.1057 77.6426 26.8767 78.1681 26.4801 78.553C26.0836 78.9379 25.5513 79.1515 24.9984 79.1474C24.7245 79.144 24.4539 79.0861 24.2026 78.9769C23.9514 78.8678 23.7245 78.7096 23.5352 78.5117C23.3459 78.3138 23.198 78.0802 23.1003 77.8244C23.0025 77.5687 22.9569 77.2961 22.966 77.0225C22.9659 76.749 23.0205 76.4783 23.1266 76.2262C23.2327 75.9741 23.3881 75.7457 23.5838 75.5544C23.7794 75.3631 24.0113 75.2129 24.2659 75.1124C24.5205 75.0119 24.7926 74.9632 25.0663 74.9692C25.6187 74.9821 26.1438 75.212 26.5278 75.609C26.9118 76.006 27.1237 76.5383 27.1176 77.0903Z" fill="white"/>
<path d="M74.9433 41.649C73.9855 41.649 73.024 41.649 72.0624 41.649C70.7351 41.649 69.8791 40.839 69.864 39.6221C69.8489 38.4052 70.72 37.4897 72.0586 37.4747C74.0119 37.4521 75.9652 37.4747 77.9185 37.4747C79.2986 37.4747 80.2225 36.676 80.2564 35.4817C80.2903 34.2874 79.3551 33.3945 77.9637 33.338C76.8325 33.2928 75.6371 33.3606 74.5398 33.1006C73.2112 32.7941 72.0257 32.047 71.1766 30.9811C70.3275 29.9151 69.8648 28.5933 69.864 27.2309C69.8167 25.8569 70.2315 24.5066 71.0421 23.3955C71.8527 22.2845 73.0125 21.4768 74.3362 21.1012C74.5375 21.0654 74.723 20.969 74.8679 20.8249C75.0128 20.6808 75.1101 20.4959 75.1469 20.295C75.2542 19.8486 75.5108 19.4522 75.8742 19.1713C76.2376 18.8905 76.6861 18.7419 77.1455 18.7503C77.6059 18.7423 78.0551 18.8919 78.4187 19.1743C78.7822 19.4567 79.0382 19.8548 79.144 20.3025C79.2572 20.7396 79.4381 20.8564 79.8491 20.8488C80.6536 20.8262 81.4568 20.8262 82.2587 20.8488C83.5408 20.8827 84.4495 21.753 84.4495 22.9247C84.4495 24.0964 83.5484 24.978 82.255 24.993C80.2753 25.0194 78.2918 24.993 76.3121 24.993C74.932 24.993 74.0496 25.8445 74.0496 27.0652C74.0343 27.593 74.2281 28.1055 74.5889 28.4914C74.9497 28.8773 75.4483 29.1053 75.9765 29.126C76.6439 29.1599 77.3114 29.126 77.9826 29.126C81.2557 29.126 83.8914 31.3299 84.3666 34.4306C84.8417 37.5312 83.0317 40.4095 79.9094 41.4343C79.6285 41.5112 79.3882 41.6933 79.2383 41.9429C78.8386 43.1334 78.205 43.7211 77.1756 43.7287C76.1461 43.7362 75.4825 43.205 75.0715 41.9881C75.03 41.9015 74.9961 41.7997 74.9433 41.649Z" fill="white"/>
</g>
<defs>
<clipPath id="clip0_1018_1167">
<rect width="98" height="100" fill="white" transform="translate(0.00195312)"/>
</clipPath>
</defs>
</svg>
