<svg width="191" height="189" viewBox="0 0 191 189" fill="none" xmlns="http://www.w3.org/2000/svg">
<path d="M113.418 83.4555L113.487 82.9595C113.921 80.2941 113.24 78.5981 110.497 77.1922C104.422 74.0804 99.9344 69.1362 97.0656 62.9226C95.8804 60.3612 95.1638 57.5668 94.4249 54.827C94.1423 53.788 93.8324 53.2599 92.729 52.9995C85.7417 51.3457 82.0224 44.4378 84.5887 37.7406C86.0343 33.9692 88.9551 31.6955 92.8579 30.7533C93.7332 30.5401 94.0357 30.1632 94.1844 29.3077C95.8755 19.536 100.83 11.7726 108.987 6.19616C113.675 2.94374 119.182 1.07342 124.881 0.798257C132.426 0.456084 139.994 0.550307 147.551 0.505676C149.287 0.505676 151.035 0.470965 152.738 0.708998C157.134 1.32888 160.273 5.00599 160.293 9.46912C160.325 16.0398 160.325 22.6106 160.293 29.1813C160.293 30.1359 160.541 30.5177 161.498 30.7558C168.729 32.546 172.495 39.7788 169.619 46.4288C168.079 49.9894 165.302 52.221 161.491 53.0417C160.549 53.245 160.159 53.5946 159.981 54.6013C158.322 63.9069 153.259 71.0256 145.456 76.1235C143.368 77.4897 142.847 79.0295 143.033 81.1792C143.234 83.4877 143.257 83.4356 145.563 83.753C158.307 85.5085 167.571 92.1089 173.217 103.711C173.308 103.897 173.388 104.088 173.465 104.278C174.456 106.691 174.456 106.681 177.142 106.693C178.877 106.693 180.613 106.768 182.349 106.758C186.579 106.733 190.467 110.584 190.283 115.607C190.199 117.839 190.258 120.07 190.258 122.302C190.258 141.27 190.172 160.239 190.315 179.209C190.355 184.278 186.556 188.384 181.176 188.359C161.092 188.227 141.008 188.307 120.924 188.309H76.9171C72.5457 188.309 69.6372 186.274 68.3156 182.217C68.1092 181.548 68.0055 180.852 68.0082 180.152C67.9759 176.556 67.9834 172.961 67.9908 169.366C67.9908 168.005 68.5437 167.271 69.5232 167.248C70.5646 167.226 71.1522 167.975 71.1596 169.415C71.177 172.723 71.3109 176.036 71.1348 179.333C70.9588 182.631 73.5177 185.23 76.9741 185.212C94.1249 185.128 111.276 185.173 128.427 185.173C146.031 185.173 163.636 185.126 181.24 185.217C184.528 185.235 187.171 182.842 187.151 179.266C187.047 160.008 187.104 140.75 187.107 121.494C187.107 119.346 187.124 117.199 187.092 115.047C187.05 112.21 185.108 110.13 182.294 109.84C181.798 109.79 181.302 109.803 180.806 109.803H105.798C105.384 109.829 104.969 109.81 104.559 109.748C104.184 109.693 103.845 109.497 103.61 109.2C103.375 108.904 103.262 108.529 103.294 108.151C103.312 107.256 103.86 106.803 104.705 106.728C105.362 106.669 106.027 106.679 106.689 106.679H170.851C170.756 106.251 170.633 105.829 170.484 105.417C167.382 98.3598 162.317 93.2074 155.404 89.8229C151.987 88.1492 148.372 87.2442 144.618 86.7755C143.626 86.6516 143.13 86.7929 142.845 87.9731C142.017 91.4444 139.475 93.5496 136.398 94.8463C130.113 97.4821 123.904 97.3036 118.05 93.5397C115.846 92.1214 114.194 90.16 113.723 87.4723C113.564 86.5672 113.019 86.7086 112.461 86.7606C109.085 87.0839 105.774 87.8932 102.63 89.1633C102.069 89.3865 101.159 89.2253 100.646 88.8881C100.309 88.6699 100.182 87.7326 100.351 87.2565C100.52 86.7805 101.139 86.4507 101.64 86.2375C105.221 84.7148 109.032 83.8045 112.915 83.5447C113.084 83.5246 113.252 83.4948 113.418 83.4555ZM160.308 33.9618C160.308 34.9536 160.308 35.9107 160.308 36.8554C160.281 41.3805 156.837 45.0031 152.54 45.0105C148.077 45.0105 144.605 41.5243 144.593 36.9323C144.573 33.1312 144.593 29.3301 144.581 25.5265C144.581 25.0901 144.543 24.6537 144.514 23.9619C133.48 29.9599 121.95 31.2666 109.8 28.921C109.8 29.516 109.8 29.9624 109.8 30.4087C109.8 32.6749 109.838 34.9437 109.768 37.2075C109.654 40.8598 107.041 44.0485 103.597 44.827C98.8236 45.9056 94.2068 42.2905 94.0431 37.3265C94.0059 36.1934 94.0431 35.0602 94.0431 33.8155C93.6349 33.8623 93.2293 33.9301 92.8281 34.0188C88.0575 35.3974 85.5632 41.0904 87.8146 45.5238C89.3023 48.4695 91.7991 49.9869 95.0448 50.1952C96.4234 50.282 97.1103 50.8225 97.1747 52.1788C97.1896 52.5061 97.2764 52.8309 97.3186 53.1582C97.9113 57.6888 99.6327 61.9978 102.325 65.6897C107.718 73.1283 115.012 77.4724 124.214 78.4121C132.128 79.218 139.339 77.2046 145.61 72.3745C152.163 67.3287 156.155 60.6712 157.182 52.3573C157.405 50.5498 157.613 50.3737 159.413 50.2274C164.588 49.8134 168.124 45.3849 167.286 40.3961C166.681 36.9595 163.105 33.8651 160.308 33.9668V33.9618ZM157.167 23.228C157.167 18.7235 157.167 14.2182 157.167 9.71213C157.167 6.62513 155.126 4.25718 152.086 3.78607C151.801 3.73293 151.513 3.70061 151.223 3.68937C142.632 3.74392 134.03 3.59019 125.449 3.93732C119.44 4.14483 113.66 6.29359 108.975 10.0617C100.311 17.0193 96.3466 26.1488 97.1425 37.2744C97.3706 40.4978 100.495 42.6004 103.416 41.5714C105.206 40.9392 106.562 39.0671 106.602 36.9645C106.661 33.7015 106.619 30.4384 106.651 27.1754C106.669 25.5662 107.413 25.0207 108.96 25.3554C110.611 25.7125 112.258 26.129 113.919 26.3472C124.36 27.7903 134.236 26.134 143.45 20.8923C144.268 20.4261 144.625 19.9005 144.6 18.931C144.553 17.0961 144.982 16.4837 146.11 16.4713C147.239 16.4589 147.678 17.1259 147.68 18.8987C147.68 24.8917 147.68 30.8847 147.68 36.8777C147.68 39.1713 149.193 41.1499 151.268 41.6607C154.352 42.4194 157.105 40.2102 157.137 36.8603C157.199 32.3253 157.167 27.7779 157.167 23.2329V23.228ZM116.574 80.0362C116.698 82.6645 116.602 85.0324 117.008 87.3086C117.209 88.4418 118.112 89.7162 119.074 90.4031C124.311 94.1571 129.951 94.3926 135.687 91.6726C137.898 90.6237 139.746 89.022 139.902 86.297C140.031 84.1993 140.021 82.0818 140.051 79.9866C140.051 79.7734 139.902 79.5576 139.79 79.2601C136.177 80.7473 132.329 81.5785 128.424 81.7148C124.406 81.8588 120.394 81.2905 116.574 80.0362Z" fill="white"/>
<circle cx="42.9043" cy="37.5654" r="31.8115" stroke="#C84CFF" stroke-width="3"/>
<path d="M87.9418 87.4053C89.1221 87.4053 90.2354 87.4053 91.3487 87.4053C95.8416 87.4524 99.1145 90.6684 99.122 95.1612C99.1369 102.761 99.06 110.361 99.0625 117.973C99.0625 130.536 99.084 143.099 99.1269 155.661C99.1269 160.621 95.9879 163.824 91.0313 163.827C81.5273 163.827 72.0209 163.851 62.5169 163.827C56.1222 163.809 49.7275 163.67 43.3328 163.678C31.6047 163.678 19.8791 163.782 8.15097 163.819C3.11507 163.834 0.0727173 160.764 0.0751968 155.696C0.0851149 143.051 0.0999902 130.405 0.119826 117.76C0.119826 110.405 0.0851022 103.051 0.0776636 95.6919C0.0776636 90.4849 3.22665 87.3582 8.40141 87.383C12.2025 87.4004 16.0061 87.3483 19.8072 87.4152C20.8461 87.4351 21.218 87.1227 21.409 86.0986C22.2941 81.3578 26.6978 78.6229 31.2303 80.0759C34.0396 80.9759 35.7282 83.086 36.2935 85.9622C36.5117 87.0755 36.9084 87.4326 38.0515 87.4252C47.5976 87.3756 57.1438 87.388 66.6899 87.383C68.2173 87.383 69.7447 87.3582 71.2696 87.383C72.0853 87.4053 72.4573 87.2268 72.6135 86.2771C73.4714 81.1197 78.7032 78.2014 83.2432 80.3263C85.4921 81.3826 86.9079 83.2249 87.5749 85.6201C87.7137 86.1383 87.7906 86.6788 87.9418 87.4053ZM49.6854 104.792H4.83091C3.2093 104.792 3.20435 104.792 3.20435 106.436C3.20435 112.134 3.20435 117.831 3.20435 123.527C3.20435 134.272 3.20435 145.016 3.20435 155.761C3.20435 158.984 4.90281 160.67 8.08403 160.68C20.9775 160.711 33.8644 160.74 46.7447 160.767C52.4476 160.767 58.1504 160.695 63.8385 160.685C72.8887 160.67 81.9373 160.67 90.9842 160.685C94.2076 160.685 95.9755 158.932 95.978 155.709C95.978 139.178 95.978 122.655 95.978 106.138C95.978 105.126 95.7003 104.769 94.6514 104.787C91.1008 104.844 87.5501 104.814 83.9895 104.814L49.6854 104.792ZM21.1139 90.6064C16.378 90.6064 11.7959 90.532 7.2286 90.6361C4.91521 90.6907 3.31839 92.5181 3.23905 94.9009C3.17954 96.7184 3.2812 98.5408 3.1969 100.356C3.14731 101.437 3.58619 101.685 4.56808 101.67C7.79145 101.625 11.0148 101.653 14.2382 101.653H80.7909C85.4152 101.653 90.042 101.62 94.6762 101.653C95.6953 101.653 96.0722 101.348 96.03 100.311C95.9631 98.7045 96.03 97.0878 96.0127 95.4786C95.9854 92.3991 94.153 90.5742 91.0536 90.5642C86.4665 90.5642 81.8794 90.5642 77.2973 90.5642H75.7377V95.2208H76.6873C77.8428 95.2208 79.0032 95.1637 80.1586 95.2208C81.0959 95.2778 81.7282 95.8208 81.6885 96.8176C81.6513 97.7598 81.1331 98.3623 80.119 98.3648C76.1145 98.3648 72.1077 98.3871 68.1032 98.3475C67.6594 98.3475 67.042 98.1392 66.8213 97.8143C66.5436 97.4052 66.3254 96.6043 66.556 96.2795C66.9427 95.7389 67.5257 95.3713 68.1801 95.2555C69.5537 95.1067 70.9497 95.2084 72.482 95.2084C72.482 94.3753 72.482 93.7207 72.482 93.071C72.482 90.5419 72.4821 90.5419 69.9629 90.5419H25.5944H24.3546C24.3546 91.8486 24.3918 93.0041 24.3422 94.1521C24.3075 94.9852 24.6596 95.2282 25.4431 95.2009C26.5986 95.1588 27.759 95.1563 28.9145 95.2282C29.8542 95.2852 30.5286 95.8729 30.484 96.8126C30.4882 97.0227 30.4488 97.2314 30.368 97.4254C30.2873 97.6194 30.1671 97.7945 30.0151 97.9395C29.863 98.0845 29.6825 98.1964 29.4849 98.2679C29.2873 98.3394 29.077 98.369 28.8674 98.3549C24.8183 98.3549 20.7717 98.3301 16.7177 98.2855C16.3408 98.2855 15.8003 98.1491 15.6317 97.8887C15.354 97.4548 15.049 96.7134 15.2424 96.3787C15.535 95.8654 16.2094 95.3249 16.7747 95.2629C18.1881 95.1042 19.6287 95.2109 21.1486 95.2109L21.1139 90.6064ZM33.2933 87.3012C32.9362 84.415 30.8138 82.5281 28.4657 82.8232C26.1746 83.1133 24.305 85.2481 24.6001 87.3012H33.2933ZM75.7302 87.3012H84.5399C84.3341 84.7448 82.4993 82.8529 80.2405 82.786C77.9816 82.719 76.0526 84.5911 75.7377 87.3062L75.7302 87.3012Z" fill="white"/>
<path d="M116.603 147.556C116.585 140.497 122.058 134.995 129.127 134.963C130.771 134.958 132.4 135.278 133.921 135.903C135.442 136.529 136.824 137.449 137.989 138.61C139.154 139.771 140.078 141.15 140.709 142.668C141.34 144.187 141.665 145.815 141.666 147.46C141.678 149.106 141.366 150.738 140.748 152.263C140.129 153.788 139.215 155.176 138.059 156.347C136.903 157.519 135.528 158.451 134.011 159.09C132.494 159.73 130.867 160.064 129.221 160.073C122.159 160.073 116.622 154.588 116.603 147.556ZM129.072 156.914C134.262 156.914 138.514 152.729 138.509 147.613C138.509 142.332 134.358 138.117 129.156 138.1C123.853 138.082 119.734 142.268 119.734 147.651C119.749 152.726 123.964 156.909 129.072 156.914Z" fill="white"/>
<path d="M43.043 38.7246C45.4159 38.7246 47.6326 38.7097 49.8518 38.7246C51.1337 38.7246 51.8056 39.3147 51.7337 40.3412C51.6717 41.2066 51.2949 41.8661 50.2956 41.8661C47.3202 41.8661 44.3448 41.886 41.3693 41.8364C40.1172 41.8141 39.8618 40.8942 39.8643 39.8528C39.8792 35.3103 39.8949 30.7695 39.9114 26.2303C39.9114 24.9509 39.894 23.669 39.9114 22.3895C39.9287 21.1101 40.4891 20.3836 41.4289 20.3563C42.438 20.3266 43.0876 21.0655 43.0852 22.3771C43.0852 27.3362 43.048 32.2952 43.0257 37.2394C43.0405 37.6832 43.043 38.127 43.043 38.7246Z" fill="#C84CFF"/>
<path d="M48.3884 132.929C50.1241 131.086 51.5622 129.561 53.0053 128.042C53.2301 127.797 53.4793 127.576 53.7492 127.382C54.493 126.859 55.2369 126.886 55.8667 127.568C56.4965 128.25 56.4097 129.031 55.7972 129.671C54.2004 131.339 52.554 132.961 50.9423 134.63C49.1521 136.472 48.738 137.573 46.0775 134.667C45.2444 133.757 44.3096 132.931 43.4592 132.038C42.807 131.354 42.6806 130.536 43.3451 129.807C44.0666 129.031 44.9741 129.152 45.6635 129.822C46.561 130.707 47.3421 131.724 48.3884 132.929Z" fill="#C84CFF"/>
<path d="M48.3884 117.245C50.1241 115.403 51.5622 113.878 53.0053 112.358C53.2301 112.113 53.4793 111.892 53.7492 111.698C54.493 111.175 55.2369 111.202 55.8667 111.884C56.4965 112.566 56.4097 113.347 55.7972 113.987C54.2004 115.656 52.554 117.277 50.9423 118.946C49.1521 120.788 48.738 121.889 46.0775 118.983C45.2444 118.073 44.3096 117.248 43.4592 116.355C42.807 115.671 42.6806 114.852 43.3451 114.123C44.0666 113.347 44.9741 113.469 45.6635 114.138C46.561 115.023 47.3421 116.04 48.3884 117.245Z" fill="#C84CFF"/>
<path d="M48.3884 148.229C50.1241 146.387 51.5622 144.862 53.0053 143.342C53.2301 143.098 53.4793 142.877 53.7492 142.683C54.493 142.16 55.2369 142.187 55.8667 142.869C56.4965 143.551 56.4097 144.332 55.7972 144.971C54.2004 146.64 52.554 148.262 50.9423 149.93C49.1521 151.773 48.738 152.874 46.0775 149.968C45.2444 149.058 44.3096 148.232 43.4592 147.339C42.807 146.655 42.6806 145.837 43.3451 145.108C44.0666 144.332 44.9741 144.453 45.6635 145.123C46.561 146.008 47.3421 147.024 48.3884 148.229Z" fill="#C04BF3"/>
<path d="M76.9205 132.798L80.9671 128.582C81.1382 128.404 81.3043 128.218 81.4828 128.047C82.6829 126.899 83.6326 126.718 84.3764 127.489C85.1203 128.26 84.9095 129.148 83.7119 130.353C81.9763 132.113 80.2406 133.881 78.4702 135.624C77.414 136.668 76.6775 136.641 75.6262 135.602C74.4509 134.441 73.2484 133.311 72.1078 132.131C71.2672 131.25 71.23 130.365 71.9565 129.753C72.8045 129.039 73.6302 129.175 74.3592 129.961C75.1675 130.834 75.9585 131.729 76.9205 132.798Z" fill="#C84CFF"/>
<path d="M76.9205 117.114L80.9671 112.899C81.1382 112.72 81.3043 112.534 81.4828 112.363C82.6829 111.215 83.6326 111.034 84.3764 111.805C85.1203 112.576 84.9095 113.464 83.7119 114.669C81.9763 116.43 80.2406 118.198 78.4702 119.941C77.414 120.984 76.6775 120.957 75.6262 119.918C74.4509 118.758 73.2484 117.627 72.1078 116.447C71.2672 115.567 71.23 114.682 71.9565 114.069C72.8045 113.355 73.6302 113.491 74.3592 114.277C75.1675 115.15 75.9585 116.045 76.9205 117.114Z" fill="#C84CFF"/>
<path d="M18.7776 133.541L22.7449 129.574C23.0672 129.254 23.3746 128.917 23.7143 128.619C24.5425 127.895 25.5864 127.826 26.1443 128.508C26.7964 129.311 26.6402 130.144 25.9682 130.848C24.6566 132.215 23.3052 133.544 21.9737 134.89C21.3662 135.505 20.7959 136.162 20.1488 136.732C19.0876 137.667 18.3834 137.642 17.3717 136.66C16.132 135.46 14.9245 134.221 13.6946 133.008C12.8962 132.225 13.0574 131.453 13.7492 130.744C14.4409 130.035 15.1674 130.169 15.8344 130.774C16.8163 131.647 17.7536 132.564 18.7776 133.541Z" fill="#C84CFF"/>
<path d="M18.7776 117.858L22.7449 113.89C23.0672 113.571 23.3746 113.233 23.7143 112.936C24.5425 112.212 25.5864 112.142 26.1443 112.824C26.7964 113.628 26.6402 114.461 25.9682 115.165C24.6566 116.531 23.3052 117.86 21.9737 119.206C21.3662 119.821 20.7959 120.478 20.1488 121.049C19.0876 121.984 18.3834 121.959 17.3717 120.977C16.132 119.777 14.9245 118.537 13.6946 117.325C12.8962 116.541 13.0574 115.77 13.7492 115.061C14.4409 114.352 15.1674 114.485 15.8344 115.09C16.8163 115.963 17.7536 116.881 18.7776 117.858Z" fill="#C84CFF"/>
<path d="M18.7776 148.842L22.7449 144.875C23.0672 144.555 23.3746 144.218 23.7143 143.92C24.5425 143.196 25.5864 143.127 26.1443 143.809C26.7964 144.612 26.6402 145.445 25.9682 146.149C24.6566 147.515 23.3052 148.844 21.9737 150.191C21.3662 150.806 20.7959 151.463 20.1488 152.033C19.0876 152.968 18.3834 152.943 17.3717 151.961C16.132 150.761 14.9245 149.521 13.6946 148.309C12.8962 147.525 13.0574 146.754 13.7492 146.045C14.4409 145.336 15.1674 145.47 15.8344 146.075C16.8163 146.948 17.7536 147.865 18.7776 148.842Z" fill="#C84CFF"/>
<circle cx="78.126" cy="146.071" r="3.8584" stroke="white" stroke-width="2"/>
</svg>
