<svg width="254" height="238" viewBox="0 0 254 238" fill="none" xmlns="http://www.w3.org/2000/svg">
<path d="M220.042 85.4317H208.84C205.08 85.4317 204.26 84.8538 202.945 81.3861C199.327 80.9209 196.217 81.2522 193.051 83.853C181.834 92.9521 155.43 93.3046 145.083 74.634C144.313 73.4592 143.605 72.2453 142.962 70.9971C141.959 68.6219 140.298 68.0229 137.732 68.8263C146.213 79.8849 149.747 92.2332 147.415 105.97C145.773 116.125 140.713 125.419 133.068 132.323C125.573 139.182 116.036 143.41 105.909 144.363C95.7822 145.316 85.6204 142.942 76.9718 137.602C60.3911 127.375 49.0829 104.849 58.5323 79.9624C55.988 81.372 53.8748 82.6407 51.6979 83.7755C43.662 87.9621 34.149 85.5093 29.3784 78.0594C24.0847 69.7919 26.6997 59.2972 35.5201 54.1591C51.2597 44.9965 67.0771 35.9325 82.8733 26.8263C90.1176 22.6538 97.4043 18.5448 104.592 14.2666C110.133 10.9381 116.5 9.22863 122.968 9.33285C142.453 9.43857 161.946 9.47382 181.431 9.33285C188.216 9.28352 194.542 10.524 200.464 13.8225C201.221 14.2454 202.033 14.5767 202.62 14.8586C203.327 13.315 203.645 11.3839 204.74 10.5663C206.006 9.65002 207.992 9.51612 209.688 9.43859C213.024 9.27648 216.374 9.38921 220.105 9.38921C220.105 7.90205 220.035 6.52766 220.105 5.16032C220.261 2.64412 221.795 1.00195 224.346 0.980808C232.827 0.900929 241.292 0.900929 249.74 0.980808C252.256 0.980808 253.761 2.65117 253.981 5.16032C254.023 5.7735 253.981 6.39375 253.981 7.01398V87.7647C253.981 92.6068 252.744 93.8332 247.895 93.8402H226.127C221.272 93.8402 220.084 92.6421 220.042 87.7647V85.4317ZM203.079 72.7451C203.079 56.929 203.079 41.4654 203.079 26.0018C203.076 25.6746 202.999 25.3523 202.855 25.0584C202.711 24.7646 202.503 24.5065 202.246 24.3031C196.295 21.3429 190.633 17.7484 183.523 17.7977C162.815 17.9457 142.1 17.8611 121.392 17.8399C117.496 17.8163 113.664 18.8336 110.296 20.7861C106.479 22.9804 102.667 25.1771 98.8602 27.3761C79.1839 38.7048 59.5124 50.0383 39.8455 61.3764C35.4353 63.9278 33.9582 68.7911 36.1774 72.8931C38.3401 76.8754 43.5207 78.6374 47.5846 76.3115C56.5887 71.1522 65.5293 65.8732 74.3144 60.3686C79.2617 57.2533 84.2868 54.293 90.054 53.1794C95.1992 52.1926 100.458 51.7698 105.991 51.0649C105.871 51.2834 106.041 51.065 106.112 50.8253C108.416 42.7552 113.363 38.9633 121.66 38.9563C134.18 38.9563 146.696 38.9563 159.211 38.9563C160.001 38.9002 160.795 38.9333 161.578 39.0549C163.699 39.5695 164.985 40.9509 164.992 43.164C164.999 45.3771 163.713 46.7726 161.593 47.2801C160.724 47.4205 159.841 47.4584 158.963 47.3929C146.242 47.3929 133.576 47.3929 120.883 47.3929C119.324 47.3347 117.797 47.8461 116.589 48.8312C115.382 49.8162 114.576 51.207 114.324 52.7424C113.844 55.7308 115.858 58.6629 119.201 59.6355C120.304 59.9169 121.441 60.0473 122.579 60.0232C129.364 60.0232 136.156 60.0866 142.941 60.0232C143.954 59.9435 144.968 60.163 145.857 60.6544C146.745 61.1457 147.469 61.8871 147.938 62.786C149.203 64.9991 150.553 67.163 151.867 69.3479C153.821 72.5925 156.48 75.3583 159.648 77.4415C162.816 79.5247 166.412 80.872 170.172 81.384C173.932 81.8961 177.76 81.5599 181.372 80.4001C184.984 79.2404 188.289 77.2868 191.043 74.6833C192.378 73.6198 193.993 72.9638 195.694 72.7945C197.998 72.5337 200.394 72.7662 203.108 72.7662L203.079 72.7451ZM101.383 136.122C108.967 136.156 116.388 133.929 122.694 129.727C128.999 125.525 133.901 119.54 136.771 112.539C139.634 105.534 140.339 97.8362 138.796 90.4295C137.253 83.0227 133.531 76.2427 128.106 70.9549C126.375 69.2492 124.643 68.3189 122.092 68.488C117.144 68.8123 112.635 67.2757 109.716 63.2724C107.787 60.6364 105.518 60.136 102.754 60.1782C100.73 60.1828 98.7083 60.3005 96.6975 60.5307C87.056 61.7376 78.2431 66.5779 72.0663 74.0587C65.8896 81.5395 62.8173 91.0936 63.4797 100.761C64.1622 110.336 68.4471 119.299 75.476 125.857C82.5048 132.414 91.7585 136.081 101.383 136.122ZM228.601 85.3049H245.273V9.60774H228.615L228.601 85.3049ZM211.744 17.9951V76.7766H219.893V17.9951H211.744Z" fill="white"/>
<path d="M33.8115 152.995H44.724C49.4805 152.995 50.6537 154.137 50.7809 158.838C50.7809 159.184 50.8375 159.543 50.894 160.192C55.071 159.17 59.2409 158.5 63.1705 157.133C74.7967 153.073 86.0979 153.778 97.8019 157.337C114.63 162.44 131.726 166.57 148.774 171.046C153.424 172.265 157.523 174.26 160.513 178.545C162.852 177.22 165.121 175.951 167.376 174.654C178.74 168.114 190.063 161.496 201.477 155.039C211.711 149.26 223.811 154.335 226.659 165.414C228.56 172.815 225.245 180.272 218.121 184.444C203.986 192.662 189.766 200.803 175.581 208.979C166.57 214.131 157.552 219.276 148.618 224.506C143.431 227.553 137.505 229.12 131.486 229.038C111.916 228.96 92.3456 228.897 72.7754 229.038C65.8067 229.094 59.3469 227.84 53.2687 224.372C52.6696 224.053 52.0539 223.766 51.4241 223.512C50.6042 225.112 50.1943 227.036 48.9999 227.946C47.8054 228.855 45.8901 228.869 44.2716 228.939C40.9357 229.073 37.5927 228.982 33.8398 228.982C33.8398 230.391 33.8893 231.639 33.8398 232.914C33.7126 235.734 32.1718 237.376 29.3731 237.397C21.0898 237.463 12.8042 237.463 4.51621 237.397C1.51247 237.397 0.0141353 235.656 0 232.463C0 223.223 0 213.99 0 204.757C0 186.634 0 168.516 0 150.402C0 145.877 1.30045 144.559 5.76719 144.552H27.7192C32.6242 144.552 33.8257 145.736 33.861 150.571L33.8115 152.995ZM50.7738 168.931V171.969C50.7738 184.656 50.8799 197.3 50.6961 209.959C50.6537 212.855 51.4947 214.286 54.138 215.477C59.3469 217.817 64.266 220.644 70.3017 220.608C91.0169 220.489 111.739 220.552 132.454 220.566C136.35 220.606 140.185 219.601 143.558 217.655C167.05 204.127 190.536 190.593 214.015 177.051C218.552 174.436 219.987 169.46 217.591 165.316C215.195 161.171 210.078 159.903 205.626 162.447C192.075 170.181 178.568 177.965 165.107 185.798C164.675 186.091 164.309 186.472 164.034 186.915C163.759 187.358 163.58 187.854 163.51 188.37C162.881 199.76 153.085 207.118 141.953 204.221C125.436 199.929 108.962 195.454 92.4799 191.041C89.4621 190.231 88.1333 188.257 88.7836 185.685C89.4338 183.112 91.6601 182.118 94.6638 182.908C101.816 184.787 108.959 186.688 116.093 188.61C125.359 191.091 134.61 193.621 143.89 196.053C150.159 197.688 155.537 193.311 154.993 187.137C154.668 183.444 152.279 180.857 147.869 179.666C129.088 174.619 110.304 169.592 91.5187 164.583C86.7551 163.307 81.9986 161.474 77.0089 162.574C68.2521 164.505 59.566 166.768 50.7385 168.931H50.7738ZM8.55184 228.805H25.2526V153.158H8.55184V228.805ZM34.0377 161.552V220.425H42.1655V161.545L34.0377 161.552Z" fill="white"/>
<path d="M105.952 119.306C105.33 126.065 104.475 127.651 101.521 127.644C98.5664 127.637 97.7537 126.037 97.1105 119.369C90.7496 118.601 86.3606 115.429 84.8764 108.952C84.5938 107.761 84.5938 106.52 84.8764 105.329C85.0802 104.41 85.6188 103.599 86.3879 103.054C87.157 102.508 88.1018 102.267 89.0393 102.376C91.2514 102.496 92.5731 103.828 93.0184 105.964C93.9159 110.087 94.7146 110.756 98.8279 110.771C100.772 110.771 102.708 110.771 104.645 110.771C108.002 110.771 109.938 109.227 109.981 106.612C110.023 103.997 108.044 102.383 104.51 102.327C102.312 102.327 100.107 102.327 97.9021 102.327C90.7002 102.27 85.1167 97.3438 84.6432 90.6339C84.1555 83.8043 88.8343 78.1939 95.9514 77.0521C96.2977 76.9957 96.6582 76.9676 97.1953 76.8971C97.6406 73.5774 96.0998 68.5098 101.796 68.7213C106.843 68.9045 105.507 73.514 105.846 76.8337C112.433 77.5949 116.815 80.9146 118.271 87.5046C118.702 89.4569 118.646 91.3881 116.949 92.8471C114.433 95.0038 110.758 93.6154 110.044 90.2534C109.168 86.1161 108.376 85.4536 104.242 85.4465C102.305 85.4465 100.362 85.4465 98.4251 85.4465C95.0538 85.4465 93.1385 86.9689 93.089 89.5979C93.0396 92.2268 95.0256 93.869 98.5523 93.8831C100.757 93.8831 102.963 93.8831 105.161 93.8831C112.377 93.9325 117.946 98.8169 118.426 105.569C118.907 112.321 114.257 117.995 107.118 119.158C106.772 119.214 106.426 119.242 105.952 119.306Z" fill="white"/>
</svg>
