<svg width="190" height="192" viewBox="0 0 190 192" fill="none" xmlns="http://www.w3.org/2000/svg">
<path d="M190 58.1619C189.37 58.7119 188.82 59.4454 188.086 59.7774C186.267 60.5951 184.437 59.1926 184.417 56.9675C184.373 52.3339 184.417 47.6954 184.417 43.0569V40.7475H182.345C176.346 40.7475 170.347 40.7475 164.348 40.7475C155.999 40.7228 150.282 35.0138 150.233 26.6387C150.198 20.6919 150.233 14.745 150.233 8.8279V6.62264H68.8539C63.1176 6.62264 59.89 9.83891 59.8553 15.5727C59.8553 17.9663 59.8553 20.3598 59.8553 22.9269C64.5405 22.9269 68.9779 22.8724 73.4201 22.9269C78.1917 22.9426 82.8187 24.5649 86.5545 27.5321C90.2903 30.4992 92.9169 34.6381 94.0103 39.2807C94.3982 41.0256 94.6059 42.8058 94.63 44.5932C94.7242 47.6211 94.6994 50.654 94.63 53.6819C94.5662 55.2676 94.9075 56.8435 95.6216 58.2609C96.3058 59.6436 96.5041 61.3286 96.6379 62.8995C96.8015 64.8025 96.6875 66.7303 96.6677 68.6481C96.6181 74.3719 93.4302 77.5683 87.7435 77.7269C87.2477 77.7269 86.7816 77.7914 86.3553 77.8211C85.7802 79.8678 85.3092 81.8402 84.6696 83.7679C83.1639 88.1843 80.4564 92.0936 76.851 95.057C76.0676 95.721 74.7885 96.395 74.7042 97.1681C74.4712 99.3536 74.7042 101.594 74.848 103.804C74.848 104.071 75.3438 104.413 75.7156 104.537C77.5649 105.186 79.4787 105.667 81.2833 106.41C84.7539 107.838 88.1847 109.384 91.6156 110.92C98.7748 114.112 105.101 118.438 110.044 124.608C115.314 131.099 118.236 139.179 118.339 147.538C118.497 154.476 118.388 161.414 118.393 168.312V170.592H175.607C181.517 170.592 184.398 167.732 184.398 161.865C184.398 132.246 184.398 102.628 184.398 73.0091C184.398 72.5135 184.398 72.018 184.398 71.5224C184.323 69.9613 184.477 68.4697 186.222 67.875C187.967 67.2803 189.137 68.2616 190 69.6987V165.051C189.921 165.14 189.797 165.22 189.767 165.324C187.64 172.851 183.322 176.152 175.543 176.157H118.646C118.558 176.338 118.488 176.527 118.438 176.722C118.438 177.525 118.438 178.328 118.393 179.13C118.239 183.769 116.122 187.258 112.097 189.537C110.885 190.119 109.634 190.616 108.353 191.024H10.0037C1.93724 187.773 0.0185361 184.899 0.0185361 176.038C0.0185361 167.385 -0.0409626 158.728 0.0532374 150.07C0.0769129 147.169 0.317218 144.273 0.772138 141.408C1.71566 135.712 4.03715 130.332 7.5347 125.738C8.52628 124.444 9.74096 123.919 11.2531 124.702C12.5124 125.356 12.914 126.511 12.5818 127.849C12.4184 128.378 12.1541 128.872 11.8034 129.301C8.33292 134.073 6.087 139.386 5.92339 145.248C5.616 156.617 5.63087 167.99 5.64575 179.363C5.65457 180.843 6.20855 182.267 7.20183 183.364C8.1951 184.461 9.55799 185.154 11.03 185.31C14.1436 185.578 17.2918 185.37 20.6235 185.37V183.258C20.6235 176.767 20.6235 170.275 20.6235 163.783C20.6044 163.164 20.6226 162.545 20.6781 161.929C20.8615 160.442 21.7291 159.555 23.2264 159.476C24.8179 159.392 25.7946 160.234 26.0822 161.79C26.1723 162.402 26.2055 163.021 26.1813 163.639C26.1813 170.131 26.1813 176.623 26.1813 183.115V185.33H43.7124C43.8314 184.79 43.9554 184.373 44.0198 183.947C46.5484 168.213 48.943 152.459 51.6897 136.764C52.2896 133.34 51.6897 130.788 49.3198 128.513C48.877 128.057 48.2828 127.779 47.649 127.73C44.0694 127.888 41.3376 126.436 39.1561 123.676C36.8259 120.703 34.4213 117.823 31.7788 114.572C28.3925 116.421 24.9766 118.24 21.6052 120.143C19.6865 121.228 18.1595 121.134 17.1927 119.702C16.2259 118.269 16.6374 116.644 18.5115 115.514C20.9904 114.027 23.509 112.541 26.1119 111.282C29.2106 109.77 32.3886 108.413 35.5815 107.119C37.9613 106.128 40.4501 105.444 42.8349 104.488C43.0932 104.318 43.3108 104.093 43.4719 103.829C43.6331 103.565 43.7338 103.269 43.767 102.961C43.9008 101.475 43.767 99.9879 43.8612 98.5012C43.9307 97.9606 43.8445 97.4114 43.6126 96.9181C43.3808 96.4247 43.013 96.0078 42.5523 95.7161C37.8522 92.2471 34.8477 87.6036 33.1967 82.0532C32.7803 80.6557 32.5126 79.2087 32.1556 77.7071C31.4169 77.7071 30.807 77.7071 30.1724 77.7071C25.1451 77.5435 21.868 74.2381 21.7986 69.2279C21.7738 67.1861 21.7044 65.1444 21.7986 63.1076C21.8779 61.6507 21.8382 59.9658 22.5422 58.8061C23.8065 56.7247 23.7222 54.5938 23.7222 52.3934C23.7222 50.4111 23.7222 48.4289 23.7222 46.4466C23.6395 43.8267 24.4683 41.2591 26.0673 39.1815C26.7416 38.3242 26.4887 37.7643 26.1764 36.8821C25.2592 34.2854 24.2676 31.6539 23.8462 28.953C23.2264 25.0281 25.3335 22.8922 29.2998 22.8872C36.9019 22.8872 44.504 22.8872 52.1061 22.8872H54.2033C54.2033 20.2756 54.2033 17.9315 54.2033 15.5875C54.248 6.66723 59.9495 1.02764 68.8787 1.02764C95.5323 1.02764 122.188 1.01611 148.845 0.99298C150.51 0.945945 152.167 1.25247 153.705 1.89229C155.243 2.53211 156.628 3.49067 157.769 4.70479C166.769 13.8067 175.82 22.8575 184.923 31.8571C187.095 34.0128 189.098 36.2081 189.921 39.241L190 58.1619ZM92.3295 185.34V175.775C92.3295 171.266 92.3047 166.751 92.3295 162.236C92.3295 160.556 93.4153 159.501 94.9275 159.436C96.4396 159.372 97.5849 160.338 97.8179 161.969C97.8742 162.522 97.8908 163.078 97.8675 163.634C97.8675 170.066 97.8675 176.496 97.8675 182.921V185.399C100.733 185.399 103.381 185.424 106.023 185.399C110.084 185.355 112.791 182.703 112.801 178.66C112.801 168.337 112.895 158.009 112.756 147.691C112.713 140.258 110.022 133.082 105.166 127.452C100.431 121.833 94.3474 117.992 87.5402 115.271C87.2286 115.207 86.906 115.218 86.5996 115.304C86.2933 115.39 86.0122 115.549 85.7802 115.767C83.5293 118.393 81.3676 121.099 79.2159 123.805C77.0642 126.511 74.4514 127.864 71.0354 127.77C70.7329 127.77 70.2867 127.665 70.143 127.819C68.9134 129.197 67.5748 130.525 66.6129 132.081C66.1816 132.775 66.4146 133.974 66.5584 134.906C68.2309 145.455 69.9232 156.002 71.6353 166.548C72.6269 172.812 73.673 179.076 74.6993 185.379L92.3295 185.34ZM57.4954 47.294C52.6713 47.294 47.8473 47.3782 43.0282 47.294C38.7694 47.1949 38.6504 47.1949 37.9216 51.5014C37.8542 51.8662 37.8161 52.2357 37.8076 52.6065C37.8076 60.7041 37.5002 68.8117 37.8968 76.8894C38.3678 86.4192 47.0788 95.0372 56.603 96.0928C59.6428 96.4236 62.7182 96.1131 65.6304 95.1813C68.5426 94.2496 71.2269 92.7174 73.5095 90.6838C75.7922 88.6501 77.6225 86.1603 78.8822 83.3753C80.1418 80.5902 80.8028 77.572 80.8223 74.5156C80.9065 67.9642 80.852 61.4128 80.8223 54.8613C80.8223 49.9701 78.1549 47.3089 73.2466 47.2891C68.0061 47.2594 62.7507 47.294 57.4954 47.294ZM89.0871 52.894C89.0871 50.3021 89.0871 47.8391 89.0871 45.3712C89.0871 35.098 82.4385 28.4723 72.1459 28.4673C58.6109 28.4673 45.0742 28.4673 31.5359 28.4673H29.3395C29.5527 29.5625 29.6568 30.4496 29.8997 31.3466C31.6895 37.7196 37.1234 41.6941 44.2231 41.7188C54.0496 41.7585 63.8762 41.7188 73.7027 41.7188C79.7117 41.7535 84.3523 45.2126 85.9041 50.6639C86.1024 51.3676 86.2462 52.0862 86.4346 52.8741L89.0871 52.894ZM57.5797 134.663C54.8528 151.592 52.126 168.441 49.4239 185.33H68.9977C68.9531 184.899 68.9431 184.592 68.8936 184.289C66.3551 168.57 63.8134 152.85 61.2683 137.131C60.7973 134.177 60.8221 134.177 57.5797 134.648V134.663ZM155.929 11.2364C155.929 17.0494 155.677 23.0161 156.029 28.9481C156.237 32.4171 159.782 35.1179 163.292 35.1773C168.746 35.2665 174.155 35.2021 179.588 35.1773C179.722 35.1773 179.861 35.0237 179.732 35.103L155.929 11.2364ZM49.7561 99.9433C49.3644 102.263 49.0025 104.245 48.715 106.242C48.6885 106.438 48.7044 106.638 48.7617 106.828C48.819 107.018 48.9164 107.193 49.0471 107.342C52.4135 110.018 55.8147 112.645 59.2406 115.311C62.6367 112.665 65.9089 110.137 69.1563 107.56C69.3366 107.42 69.4844 107.242 69.5897 107.04C69.6949 106.837 69.7551 106.614 69.7662 106.386C69.4836 104.285 69.082 102.203 68.6953 99.9433C65.7104 101.258 62.4836 101.934 59.222 101.928C55.9604 101.922 52.7361 101.234 49.7561 99.9086V99.9433ZM37.2275 112.476C39.642 115.45 41.8532 118.255 44.1686 120.96C44.6856 121.597 45.4115 122.03 46.2174 122.182C47.0234 122.334 47.8572 122.197 48.5712 121.793C50.47 120.846 52.2698 119.682 54.2727 118.522C50.7576 115.787 47.4755 113.17 44.1041 110.672C43.772 110.485 43.4049 110.367 43.0255 110.326C42.6462 110.285 42.2624 110.322 41.8979 110.435C40.4006 110.9 38.9776 111.683 37.2275 112.442V112.476ZM64.1737 118.527C66.1965 119.697 68.0061 120.861 69.9248 121.818C71.3477 122.526 72.9491 122.412 74.0299 121.188C76.4841 118.408 78.7846 115.484 81.2486 112.491C79.4836 111.693 78.0062 110.92 76.4494 110.38C76.1106 110.276 75.7536 110.244 75.4017 110.287C75.0498 110.33 74.7108 110.446 74.4068 110.628C71.0056 113.12 67.7086 115.762 64.1737 118.492V118.527ZM32.0118 58.7119C29.2205 58.3452 27.4803 59.7031 27.396 62.399C27.3316 64.4903 27.3663 66.5915 27.396 68.6877C27.396 71.6612 29.0867 72.7911 32.0267 71.7801L32.0118 58.7119ZM86.509 71.9833C89.7217 72.3698 91.0008 71.6562 91.1049 69.332C91.209 67.0078 91.219 64.6389 91.1049 62.3048C90.9661 59.7328 89.3102 58.4592 86.5189 58.6425L86.509 71.9833ZM54.1339 125.148C55.2742 128.582 57.7284 129.311 60.8667 128.894C63.0928 128.602 63.3804 126.541 64.7091 125.366C59.2306 121.684 59.2306 121.684 54.2579 125.014C54.2115 125.054 54.17 125.099 54.1339 125.148ZM30.5244 42.487C28.5413 45.9064 29.6618 49.4547 29.3296 53.0178L31.9226 52.889C32.6216 50.0841 33.2662 47.4774 33.9057 44.8459L30.5244 42.487Z" fill="white"/>
<path d="M139.404 52.2152H166.866C170.926 52.2152 172.548 53.8605 172.553 57.9737C172.553 61.9928 172.553 66.0118 172.553 70.0309C172.553 73.4999 170.768 75.3137 167.312 75.3187C148.707 75.3385 130.096 75.3385 111.481 75.3187C108.105 75.3187 106.3 73.5495 106.256 70.1945C106.201 65.8682 106.191 61.5418 106.256 57.2155C106.305 53.9745 108.15 52.2251 111.407 52.2202C120.757 52.1805 130.068 52.2152 139.404 52.2152ZM166.901 57.9093H111.918V69.6444H166.901V57.9093Z" fill="#C84CFF"/>
<path d="M139.261 100.855H110.317C109.761 100.884 109.204 100.87 108.651 100.815C108.026 100.756 107.443 100.472 107.011 100.017C106.579 99.561 106.327 98.9644 106.301 98.3372C106.21 97.7144 106.354 97.0801 106.704 96.5567C107.053 96.0332 107.584 95.6577 108.195 95.5026C108.852 95.3357 109.531 95.2705 110.208 95.3093C129.692 95.3093 149.175 95.3093 168.656 95.3093C169.212 95.2738 169.77 95.3088 170.317 95.4134C171.74 95.7851 172.578 96.7514 172.499 98.2332C172.498 98.8943 172.246 99.5304 171.794 100.013C171.342 100.496 170.724 100.79 170.064 100.835C169.509 100.889 168.951 100.9 168.394 100.87L139.261 100.855Z" fill="#C84CFF"/>
<path d="M139.527 82.8713H168.283C168.9 82.8512 169.518 82.8761 170.132 82.9456C170.775 83.0327 171.366 83.3468 171.797 83.8311C172.228 84.3155 172.472 84.9382 172.484 85.5866C172.496 86.235 172.275 86.8663 171.862 87.3663C171.449 87.8662 170.871 88.2019 170.231 88.3126C169.621 88.4078 169.004 88.4459 168.387 88.4266C149.031 88.4266 129.677 88.4266 110.325 88.4266C109.77 88.4408 109.214 88.4077 108.664 88.3275C107.078 88.0649 106.24 87.0341 106.304 85.4929C106.293 84.8304 106.543 84.1901 106.999 83.7092C107.455 83.2284 108.081 82.9454 108.744 82.9208C109.36 82.8679 109.979 82.8497 110.598 82.8663L139.527 82.8713Z" fill="#C84CFF"/>
<path d="M124.318 107.803C129.073 107.803 133.832 107.803 138.592 107.803C140.942 107.803 142.176 108.794 142.137 110.608C142.097 112.422 140.892 113.349 138.666 113.354C129.028 113.373 119.388 113.373 109.747 113.354C107.585 113.354 106.276 112.273 106.276 110.588C106.276 108.903 107.541 107.808 109.871 107.803C114.675 107.793 119.499 107.803 124.318 107.803Z" fill="#C84CFF"/>
</svg>
