<svg width="194" height="179" viewBox="0 0 194 179" fill="none" xmlns="http://www.w3.org/2000/svg">
<path d="M0.389608 113.202C0.389608 107.802 0.601362 102.403 0.389608 97.024C0.193056 94.4436 0.761144 91.8624 2.02274 89.6028C3.28434 87.3432 5.18375 85.5054 7.48359 84.3188C11.1921 82.1418 15.2233 80.5691 19.4263 79.66C26.3514 77.9695 33.4791 77.2567 40.6018 77.5425C48.8573 77.6528 57.0155 79.3419 64.6361 82.5187C65.229 82.7939 65.8007 83.1328 66.3936 83.4081C66.9865 83.6834 67.41 83.408 67.4524 82.7727C67.4524 82.4339 67.4524 82.074 67.4524 81.7352V57.7859C67.4662 56.0931 67.8685 54.4262 68.6285 52.9136C69.3885 51.401 70.4857 50.0831 71.8356 49.0616C75.4689 46.1994 79.6816 44.1616 84.181 43.09C91.1584 41.1749 98.3769 40.2832 105.611 40.443C114.05 40.3103 122.433 41.843 130.28 44.9534C132.986 46.1799 135.538 47.7224 137.882 49.5486C139.19 50.5955 140.231 51.938 140.92 53.4657C141.608 54.9935 141.924 56.6628 141.842 58.3364C141.842 68.9242 141.842 79.7237 141.842 90.4173C141.842 92.2384 141.842 92.1961 143.599 92.0055C157.639 90.3961 170.069 94.1228 180.021 104.245C192.43 116.823 196.093 132.027 190.609 148.713C188.532 155.574 184.708 161.778 179.51 166.715C174.313 171.652 167.922 175.154 160.963 176.877C150.412 179.798 139.145 178.61 129.435 173.553C119.725 168.495 112.293 159.944 108.639 149.624C108.3 148.713 107.707 148.65 106.902 148.607C102.095 148.353 97.2673 148.311 92.4816 147.739C85.0594 147.114 77.9459 144.487 71.8992 140.137C71.6918 140.022 71.4587 139.962 71.2217 139.962C70.9846 139.962 70.7513 140.022 70.5439 140.137C65.7341 143.7 60.145 146.067 54.2389 147.04C43.4266 149.275 32.2717 149.275 21.4593 147.04C15.3548 146.13 9.58685 143.665 4.70948 139.883C3.32244 138.762 2.2171 137.331 1.48173 135.706C0.746354 134.081 0.401356 132.306 0.474392 130.524C0.474392 124.658 0.474392 118.771 0.474392 112.906L0.389608 113.202ZM185.4 135.246C185.4 125.698 181.607 116.542 174.856 109.791C168.105 103.04 158.949 99.2473 149.401 99.2473C139.914 99.313 130.831 103.095 124.101 109.782C117.371 116.468 113.53 125.526 113.403 135.013C113.364 144.607 117.132 153.826 123.88 160.646C130.629 167.466 139.807 171.331 149.401 171.392C154.138 171.392 158.827 170.458 163.202 168.642C167.576 166.826 171.549 164.165 174.894 160.811C178.238 157.457 180.887 153.476 182.69 149.096C184.493 144.717 185.413 140.024 185.4 135.288V135.246ZM104.785 67.336H107.665C114.817 67.3364 121.896 65.8961 128.48 63.1009C130.659 62.383 132.532 60.9503 133.795 59.0351C133.978 58.6629 134.073 58.2537 134.073 57.8389C134.073 57.424 133.978 57.0146 133.795 56.6423C132.981 55.5207 131.961 54.5649 130.788 53.8261C125.581 50.7987 119.765 48.9685 113.763 48.4686C104.953 47.3425 96.0107 47.8376 87.3785 49.9296C83.4231 50.7549 79.7079 52.4715 76.5155 54.9484C74.2074 56.8542 74.2498 58.3787 76.5155 60.3268C78.9476 62.2796 81.7495 63.7202 84.7528 64.5619C91.231 66.5873 98 67.5248 104.785 67.336ZM37.4255 104.435V104.774C41.9358 104.287 46.4674 103.864 50.9778 103.292C52.5775 103.065 54.1565 102.711 55.6999 102.233C59.1965 101.386 62.4874 99.8447 65.3772 97.7015C67.9183 95.584 68.003 93.6994 65.3772 91.8783C63.1316 90.3023 60.6806 89.0412 58.0927 88.1302C45.1226 84.0812 31.2474 83.9414 18.1982 87.728C15.1133 88.5414 12.2297 89.9832 9.72806 91.9631C7.22935 93.9536 7.08126 95.7745 9.60114 97.5956C11.7239 99.1254 14.0375 100.371 16.4832 101.301C23.2406 103.657 30.3808 104.72 37.5314 104.435H37.4255ZM37.4255 123.006C44.09 123.143 50.735 122.236 57.1187 120.317C60.2608 119.466 63.1896 117.965 65.7161 115.912C66.2501 115.492 66.6749 114.949 66.955 114.33C67.2351 113.711 67.3621 113.034 67.3252 112.355C67.3252 110.619 67.3252 108.861 67.3252 107.103C67.3252 105.769 67.0712 105.727 65.843 106.214C62.6229 107.578 59.3284 108.758 55.9752 109.75C46.7128 111.999 37.1157 112.523 27.6636 111.296C21.152 110.723 14.8041 108.942 8.94458 106.045C8.09756 105.6 7.80102 106.045 7.80102 106.744C7.80102 108.586 7.80102 110.428 7.80102 112.27C7.71475 113.038 7.85286 113.815 8.19857 114.507C8.54429 115.198 9.08292 115.775 9.74925 116.166C11.8864 117.594 14.1554 118.814 16.5253 119.809C23.2817 122.114 30.3951 123.197 37.5314 123.006H37.4255ZM67.0711 124.234C66.4782 124.489 66.097 124.594 65.7582 124.764C61.2057 127.026 56.3248 128.555 51.2955 129.295C45.2008 130.35 39.005 130.698 32.8306 130.333C27.7035 130.155 22.6181 129.345 17.69 127.919C14.7467 126.966 11.888 125.801 9.00816 124.594C8.30937 124.319 7.6953 124.065 7.6953 125.187C7.6953 127.305 7.6953 129.571 7.6953 131.752C7.7247 132.488 8.03524 133.185 8.5633 133.7C10.1456 135.061 11.871 136.247 13.7091 137.236C19.058 139.615 24.8022 140.979 30.6494 141.259C37.9423 141.928 45.2944 141.5 52.4602 139.989C56.4594 139.218 60.3023 137.787 63.8315 135.754C64.9213 135.265 65.8259 134.44 66.4127 133.4C66.9996 132.359 67.2376 131.158 67.0923 129.973C67.0181 128.619 67.0181 127.261 67.0923 125.907C67.3464 125.42 67.1771 124.954 67.1771 124.234H67.0711ZM74.6733 68.8818C74.7792 70.6024 74.7792 72.3278 74.6733 74.0485C74.5146 75.2938 74.7525 76.5577 75.3531 77.6601C75.9537 78.7625 76.8865 79.6474 78.0189 80.1894C82.7458 82.9104 87.9897 84.6126 93.4135 85.1868C101.754 86.4267 110.244 86.255 118.528 84.6786C122.911 83.9689 127.121 82.4387 130.936 80.1682C132.043 79.6737 132.961 78.8369 133.556 77.7808C134.151 76.7247 134.391 75.5052 134.24 74.3026C134.165 72.8919 134.165 71.4782 134.24 70.0675C134.22 69.6803 134.156 69.2969 134.049 68.9242C124.667 72.8748 114.59 74.9064 104.41 74.8992C94.2303 74.8919 84.1551 72.8458 74.779 68.8818H74.6733ZM74.8426 87.241C74.8426 87.8763 74.6945 88.3209 74.6945 88.7868C74.6945 90.3326 74.6945 91.857 74.6945 93.3817C74.5884 94.2535 74.7308 95.1376 75.1055 95.9319C75.4801 96.7262 76.0718 97.3983 76.812 97.8709C77.4909 98.3698 78.1979 98.8294 78.9296 99.2473C85.2188 102.49 92.1821 104.209 99.2579 104.266C104.416 104.368 109.575 104.206 114.716 103.779C117.816 103.781 120.816 102.686 123.186 100.687C126.111 98.24 129.444 96.3261 133.033 95.0334C133.439 94.9372 133.794 94.6927 134.029 94.3479C134.264 94.0032 134.362 93.5831 134.303 93.17C134.303 91.6453 134.303 90.0994 134.303 88.5748C134.303 87.0502 134.07 87.1138 132.969 87.6644C125.511 91.2015 117.379 93.0936 109.126 93.2124C104.442 93.3466 99.7539 93.2053 95.0864 92.789C90.4133 92.453 85.8094 91.4696 81.4069 89.8667C79.2682 89.1044 77.2567 88.1939 74.9486 87.241H74.8426ZM74.6733 105.664C74.7913 107.356 74.7913 109.054 74.6733 110.746C74.1651 114.155 75.9649 116.103 78.5907 117.607C79.3428 118.048 80.1206 118.444 80.9199 118.792C89.0643 122.101 97.8569 123.506 106.627 122.9C106.896 122.837 107.148 122.716 107.364 122.543C107.58 122.371 107.755 122.153 107.876 121.905C109.38 118.856 110.777 115.764 112.111 112.672C112.238 112.376 112.408 111.91 112.281 111.762C112.151 111.659 112.001 111.583 111.841 111.54C111.681 111.496 111.513 111.485 111.349 111.508C107.897 111.508 104.446 111.847 100.994 111.762C93.7791 111.652 86.6372 110.298 79.8824 107.76C78.2518 107.209 76.706 106.489 74.779 105.642L74.6733 105.664ZM74.8426 124.256C74.7678 124.754 74.7185 125.256 74.6945 125.759C74.6945 127.559 74.6945 129.359 74.6945 131.138C74.6487 131.711 74.7445 132.287 74.9734 132.815C75.2023 133.343 75.5574 133.807 76.0073 134.166C77.5211 135.344 79.1367 136.386 80.8351 137.278C84.8822 139.17 89.2217 140.358 93.6676 140.794C97.3945 141.259 101.185 141.281 104.933 141.493C105.928 141.493 106.267 141.175 106.204 140.074C106.013 137.321 105.992 134.568 105.992 131.815C105.992 130.926 105.865 130.46 104.806 130.396C100.571 130.121 96.1875 129.761 91.8677 129.401C87.783 128.967 83.778 127.97 79.9671 126.437C78.3578 125.801 76.7485 125.039 74.9486 124.256H74.8426Z" fill="#703773"/>
<path d="M32.493 51.3277C32.5806 50.8732 32.6371 50.4133 32.6623 49.9512C32.6623 35.3119 32.6623 20.6726 32.6623 6.03333C32.6442 5.24624 32.7011 4.45925 32.8318 3.68289C33.0028 2.76448 33.5198 1.94695 34.2765 1.39913C35.0332 0.851318 35.9715 0.615074 36.8974 0.739467C37.8284 0.779623 38.7117 1.16327 39.3765 1.81633C40.0413 2.4694 40.4406 3.34568 40.4973 4.27586C40.4973 5.52521 40.4973 6.81702 40.4973 8.08755C40.4973 22.0634 40.4973 36.0461 40.4973 50.036C40.4973 50.5019 40.4973 50.9678 40.4973 51.7089C40.8526 51.5088 41.1923 51.2822 41.5137 51.0312C44.4995 48.0666 47.4851 45.0809 50.4285 42.0952C51.0277 41.386 51.834 40.8822 52.734 40.6544C53.634 40.4265 54.5826 40.4861 55.4471 40.8247C56.0602 41.1053 56.591 41.5386 56.9887 42.083C57.3864 42.6275 57.6377 43.265 57.7184 43.9344C57.7992 44.6037 57.7066 45.2827 57.4499 45.9061C57.1931 46.5295 56.7805 47.0767 56.2518 47.495C53.6048 50.1843 50.9157 52.8311 48.2476 55.4992C45.5795 58.1673 42.7841 60.9203 40.0737 63.6731C37.3632 66.4259 35.4575 66.2354 32.9588 63.6731C27.559 58.2734 22.1593 52.9159 16.8231 47.4739C16.0985 46.722 15.5806 45.7956 15.3197 44.7845C15.1573 44.0043 15.2584 43.1923 15.6071 42.4757C15.9559 41.7591 16.5325 41.1783 17.2467 40.8247C17.9833 40.4105 18.8349 40.2484 19.6721 40.3631C20.5093 40.4777 21.286 40.8628 21.884 41.4598C24.0016 43.5774 26.1191 45.6949 28.2367 47.8125L31.8576 51.3489L32.493 51.3277Z" fill="#703773"/>
<path d="M148.937 154.792C144.702 154.792 140.467 154.792 136.231 154.792C135.792 154.784 135.359 154.687 134.958 154.508C134.556 154.328 134.196 154.07 133.897 153.747C133.598 153.425 133.368 153.046 133.22 152.632C133.071 152.218 133.008 151.779 133.034 151.34C133.011 150.899 133.083 150.459 133.245 150.049C133.406 149.638 133.654 149.267 133.971 148.96C134.288 148.653 134.667 148.418 135.082 148.269C135.498 148.121 135.94 148.063 136.38 148.1C137.064 148.218 137.767 148.062 138.338 147.666C138.908 147.269 139.3 146.665 139.429 145.983C140.064 143.653 140.657 141.324 141.25 139.016C141.504 138 141.06 137.618 140.086 137.64H137.862C137.49 137.668 137.115 137.622 136.761 137.504C136.407 137.386 136.08 137.197 135.8 136.951C135.519 136.704 135.292 136.404 135.129 136.067C134.967 135.731 134.874 135.366 134.855 134.993C134.857 134.618 134.936 134.248 135.086 133.905C135.236 133.562 135.454 133.253 135.728 132.998C136.001 132.742 136.324 132.545 136.677 132.418C137.029 132.291 137.403 132.238 137.777 132.261H139.895C140.699 132.261 141.038 131.901 140.89 131.118C140.615 129.868 140.361 128.619 140.043 127.391C139.204 124.547 139.424 121.495 140.662 118.801C141.9 116.107 144.072 113.953 146.777 112.737C149.531 111.54 152.621 111.358 155.497 112.222C158.374 113.087 160.851 114.942 162.489 117.459C163.72 119.35 164.382 121.555 164.395 123.812C164.471 124.671 164.205 125.525 163.653 126.188C163.101 126.85 162.31 127.268 161.451 127.348C160.995 127.433 160.527 127.42 160.076 127.31C159.626 127.199 159.204 126.993 158.839 126.707C158.474 126.42 158.175 126.059 157.961 125.647C157.746 125.236 157.623 124.783 157.597 124.32C157.567 122.753 156.973 121.25 155.925 120.085C155.046 119.222 153.915 118.662 152.696 118.487C151.477 118.312 150.234 118.531 149.148 119.111C148.096 119.719 147.28 120.665 146.834 121.795C146.388 122.926 146.338 124.174 146.692 125.337C147.137 127.2 147.539 129.085 147.836 130.99C147.838 131.164 147.879 131.335 147.956 131.492C148.032 131.648 148.142 131.785 148.277 131.895C148.412 132.004 148.57 132.082 148.739 132.123C148.908 132.164 149.084 132.168 149.254 132.134C151.372 132.134 153.278 132.134 155.311 132.134C155.741 132.102 156.172 132.102 156.602 132.134C157.286 132.187 157.924 132.495 158.391 132.997C158.858 133.499 159.119 134.159 159.122 134.844C159.085 135.534 158.79 136.185 158.296 136.667C157.802 137.15 157.144 137.429 156.454 137.449C154.188 137.449 151.901 137.449 149.635 137.449C148.45 137.449 148.09 137.894 147.92 139.037C147.539 141.494 147.01 143.929 146.438 146.343C146.142 147.655 146.247 147.91 147.624 147.931C152.177 147.931 156.75 147.931 161.303 147.931C161.752 147.905 162.201 147.971 162.624 148.123C163.047 148.276 163.434 148.513 163.763 148.82C164.091 149.127 164.354 149.497 164.536 149.908C164.717 150.32 164.813 150.764 164.818 151.213C164.845 151.664 164.777 152.116 164.62 152.54C164.463 152.964 164.219 153.35 163.905 153.675C163.59 153.999 163.211 154.255 162.793 154.425C162.374 154.595 161.925 154.677 161.473 154.665C157.894 154.665 154.294 154.665 150.715 154.665H148.873L148.937 154.792Z" fill="#703773"/>
</svg>
