<svg width="137" height="204" viewBox="0 0 137 204" fill="none" xmlns="http://www.w3.org/2000/svg">
<path d="M110.453 175.713H128.737V7.5677H7.25304V175.589H65.3129L62.9428 183.094H6.68276C2.26323 183.094 0 180.823 0 176.441C0 119.878 0 63.3027 0 6.71605C0 2.31591 1.99594 0.257812 6.48676 0.257812C23.9332 0.257812 41.3975 0.257812 58.844 0.257812C82.0109 0.257812 105.053 0.346525 128.149 0.257812C133.245 0.257812 136.115 2.1917 136.097 7.97575C135.978 64.2194 135.978 120.463 136.097 176.707C136.195 177.567 136.1 178.439 135.819 179.258C135.537 180.077 135.076 180.824 134.469 181.444C133.861 182.064 133.123 182.542 132.307 182.842C131.492 183.143 130.619 183.259 129.753 183.183C124.709 183.183 119.648 183.183 114.587 183.183C114.318 183.234 114.041 183.227 113.775 183.163C113.508 183.098 113.259 182.978 113.043 182.81C112.827 182.642 112.649 182.43 112.522 182.189C112.395 181.947 112.322 181.681 112.306 181.408C111.807 179.581 111.094 177.807 110.453 175.713Z" fill="#703773"/>
<path d="M93.2732 168.527C89.7091 166.008 86.1449 167.285 82.3669 167.924C81.0482 168.155 79.1236 166.789 77.9831 165.653C76.7964 164.154 75.0958 163.143 73.2071 162.814C69.4291 162.353 68.2173 160.738 67.3797 156.959C66.9974 155.388 66.161 153.963 64.9739 152.861C63.7562 152.027 62.869 150.796 62.4656 149.38C62.0621 147.965 62.1677 146.454 62.7642 145.107C63.245 143.401 63.245 141.597 62.7642 139.891C62.196 138.585 62.0874 137.126 62.4561 135.751C62.8249 134.376 63.6493 133.165 64.7957 132.315C66.0713 131.069 66.9776 129.498 67.4154 127.773C67.586 126.313 68.257 124.956 69.3153 123.932C70.3736 122.907 71.7545 122.277 73.2249 122.148C74.9561 121.678 76.5189 120.731 77.7335 119.416C80.0681 116.95 81.9392 116.222 85.0757 117.642C85.9909 118.054 86.9862 118.259 87.9904 118.244C88.9946 118.228 89.9831 117.993 90.8852 117.553C92.0971 116.902 93.5148 116.741 94.8428 117.105C96.1708 117.468 97.3066 118.328 98.0135 119.505C98.569 120.34 99.3124 121.035 100.185 121.534C101.057 122.033 102.034 122.322 103.039 122.379C106.14 122.645 107.779 124.721 108.385 127.702C108.778 129.433 109.67 131.011 110.951 132.244C112.148 133.099 113.008 134.343 113.382 135.762C113.756 137.181 113.621 138.685 113.001 140.015C112.52 141.661 112.52 143.409 113.001 145.054C113.627 146.38 113.765 147.884 113.391 149.301C113.016 150.719 112.152 151.96 110.951 152.807C109.665 154.044 108.772 155.63 108.385 157.367C107.779 160.135 106.603 162.122 103.734 162.566C102.451 162.701 101.213 163.113 100.105 163.771C98.9975 164.43 98.0467 165.32 97.3185 166.38C96.4987 167.427 94.7345 167.764 93.2732 168.527ZM87.927 124.171C85.4865 124.155 83.0668 124.619 80.8071 125.537C78.5475 126.455 76.4924 127.809 74.76 129.52C73.0277 131.232 71.6523 133.267 70.713 135.51C69.7736 137.753 69.2889 140.158 69.2866 142.588C69.352 147.473 71.3425 152.138 74.8291 155.576C78.3158 159.014 83.0196 160.951 87.927 160.969C92.8224 160.946 97.5101 158.997 100.968 155.547C104.427 152.097 106.375 147.426 106.389 142.552C106.418 140.128 105.96 137.723 105.043 135.477C104.126 133.231 102.768 131.19 101.049 129.473C99.3293 127.756 97.2831 126.398 95.03 125.479C92.7768 124.559 90.362 124.097 87.927 124.118V124.171Z" fill="#703773"/>
<path d="M67.9685 56.1638C54.4069 56.1638 40.8453 56.1638 27.2838 56.1638C25.8795 56.1785 24.5111 55.7223 23.3989 54.8687C22.9668 54.4279 22.6622 53.8793 22.517 53.2807C22.3718 52.682 22.3915 52.0555 22.5739 51.4671C22.7563 50.8786 23.0947 50.35 23.5536 49.937C24.0124 49.5239 24.5746 49.2417 25.181 49.1201C26.0775 48.8966 27.0024 48.8069 27.9254 48.8539H109.312C111.896 48.9604 113.625 50.3798 113.661 52.4024C113.696 54.4251 112.021 56.1284 109.223 56.1284L67.9685 56.1638Z" fill="#703773"/>
<path d="M67.9866 73.8174H28.0505C27.3733 73.8174 26.6961 73.8174 26.0189 73.8174C25.5448 73.8402 25.0711 73.7641 24.6283 73.5938C24.1855 73.4236 23.7834 73.163 23.4477 72.8288C23.1121 72.4947 22.8504 72.0942 22.6794 71.6534C22.5084 71.2125 22.4319 70.741 22.4548 70.2689C22.4198 69.8091 22.4819 69.347 22.6373 68.9126C22.7927 68.4781 23.0378 68.0809 23.3568 67.7466C23.6758 67.4123 24.0617 67.1482 24.4895 66.9715C24.9174 66.7947 25.3776 66.7092 25.8407 66.7204C29.4048 66.5608 33.0759 66.614 36.6935 66.614H107.709C111.719 66.614 113.536 67.7318 113.59 70.1625C113.643 72.5932 111.808 73.8529 107.638 73.8529L67.9866 73.8174Z" fill="#703773"/>
<path d="M68.0216 84.3213H109.971C110.902 84.321 111.795 84.6827 112.461 85.3291C113.127 85.9755 113.512 86.8554 113.536 87.7811C113.568 88.2612 113.499 88.7428 113.334 89.1948C113.168 89.6469 112.908 90.0592 112.573 90.4053C112.237 90.7514 111.832 91.0235 111.384 91.2041C110.936 91.3847 110.455 91.4698 109.971 91.4538C105.837 91.5425 101.721 91.4538 97.5861 91.4538H27.8359C27.0828 91.5161 26.3258 91.5161 25.5727 91.4538C25.1264 91.4229 24.691 91.3028 24.2923 91.1007C23.8936 90.8987 23.5398 90.6188 23.2521 90.2777C22.9644 89.9366 22.7487 89.5413 22.6177 89.1155C22.4867 88.6896 22.4432 88.2418 22.4898 87.7989C22.4604 86.9429 22.7682 86.1094 23.3475 85.4762C23.9269 84.8431 24.7318 84.4605 25.5906 84.41C26.3502 84.3655 27.1119 84.3655 27.8715 84.41L68.0216 84.3213Z" fill="#703773"/>
<path d="M68.0212 102.028H108.189C108.948 101.966 109.711 101.966 110.47 102.028C110.916 102.059 111.352 102.179 111.751 102.381C112.149 102.583 112.503 102.863 112.791 103.204C113.078 103.545 113.294 103.941 113.425 104.366C113.556 104.792 113.6 105.24 113.553 105.683C113.587 106.539 113.284 107.375 112.708 108.011C112.132 108.648 111.329 109.035 110.47 109.09C109.627 109.134 108.783 109.134 107.94 109.09H28.0851C24.2536 109.09 22.5072 108.025 22.4181 105.541C22.329 103.057 24.2002 101.833 28.0851 101.833L68.0212 102.028Z" fill="#703773"/>
<path d="M112.502 198.885C110.186 197.749 107.815 196.738 105.588 195.478C103.806 194.503 102.95 194.68 102.024 196.543C100.972 198.885 99.6357 201.103 98.2279 203.746C97.7768 203.253 97.3823 202.712 97.0517 202.132C94.5554 195.402 92.4023 188.55 90.6007 181.604C90.0126 178.925 91.9907 175.678 92.8282 172.733C92.8282 172.644 93.1134 172.555 93.2738 172.537C95.1381 172.418 96.9415 171.829 98.5154 170.827C100.089 169.825 101.382 168.441 102.273 166.807L102.968 167.02L113.179 198.335L112.502 198.885Z" fill="#703773"/>
<path d="M78.3395 200.269C77.1455 198.087 75.8268 195.975 74.7753 193.704C73.7239 191.433 72.6903 191.345 70.7301 192.48C68.7698 193.616 66.4174 194.609 64.2433 195.656L63.4414 195.195L72.7616 166.381C76.896 172.307 82.0105 173.921 88.8002 170.586C85.3786 181.018 82.2422 190.617 79.1058 200.234L78.3395 200.269Z" fill="#703773"/>
<path d="M68.0213 31.1113H91.0457C94.0752 31.1113 95.7504 32.4598 95.7504 34.8018C95.7504 37.1438 94.0574 38.4744 91.0101 38.4744C75.6605 38.4744 60.3169 38.4744 44.9792 38.4744C41.9675 38.4744 40.2567 37.0905 40.2746 34.7663C40.2924 32.442 42.0566 31.1113 45.0149 31.1113H68.0213Z" fill="#703773"/>
<path d="M40.328 119.7H53.4618C56.1884 119.7 57.7388 120.978 57.8279 123.249C57.917 125.52 56.3131 127.046 53.4975 127.063C44.5752 127.063 35.6649 127.063 26.7664 127.063C26.24 127.122 25.707 127.073 25.2006 126.918C24.6941 126.763 24.225 126.507 23.8223 126.164C23.4196 125.821 23.0919 125.4 22.8595 124.926C22.6272 124.452 22.4952 123.935 22.4717 123.408C22.4717 121.12 24.1289 119.86 26.9803 119.771L40.328 119.7Z" fill="#703773"/>
<path d="M87.9272 128.306C84.1419 128.291 80.5031 129.761 77.7982 132.398C75.0934 135.034 73.5402 138.625 73.4746 142.393C73.5071 146.201 75.0397 149.844 77.7425 152.538C80.4454 155.233 84.1026 156.763 87.9272 156.8C91.6967 156.763 95.3014 155.256 97.967 152.602C100.633 149.948 102.147 146.359 102.184 142.606C102.198 140.733 101.84 138.876 101.129 137.142C100.419 135.407 99.3713 133.83 98.046 132.501C96.7208 131.171 95.1444 130.116 93.4077 129.396C91.671 128.676 89.8084 128.306 87.9272 128.306Z" fill="#703773"/>
<path d="M87.9272 128.306C91.7082 128.306 95.3345 129.801 98.0081 132.463C100.682 135.125 102.184 138.735 102.184 142.5C102.147 146.253 100.633 149.842 97.967 152.496C95.3014 155.149 91.6967 156.657 87.9272 156.694C84.1026 156.657 80.4454 155.126 77.7425 152.432C75.0397 149.738 73.5071 146.095 73.4746 142.287C73.5678 138.537 75.1332 134.974 77.835 132.36C80.5369 129.746 84.16 128.291 87.9272 128.306Z" fill="#703773"/>
</svg>
