<svg width="157" height="158" viewBox="0 0 157 158" fill="none" xmlns="http://www.w3.org/2000/svg">
<path d="M143.626 114.106V32.5721H115.999C114.961 28.8518 113.971 25.3153 112.959 21.6992C113.134 21.6992 113.609 21.6349 114.084 21.6349C125.5 21.6349 136.918 21.6349 148.336 21.6349C152.424 21.6349 154.612 23.8597 154.612 28.0029C154.612 62.456 154.612 96.9121 154.612 131.371C154.612 135.309 152.504 137.436 148.599 137.439H100.328V149.547C101.146 149.547 101.982 149.547 102.819 149.547C104.906 149.593 107.011 149.495 109.074 149.752C112.098 150.129 114.283 152.731 114.483 155.964H43.8031C43.5579 153.074 45.8532 150.184 48.9422 149.764C50.8453 149.507 52.8004 149.602 54.7341 149.547C55.3869 149.528 56.0396 149.547 56.8088 149.547V137.436H8.58284C4.45191 137.436 2.3885 135.369 2.39258 131.236V28.0213C2.39258 23.6912 4.43352 21.6349 8.73607 21.6318H44.8297L41.1523 32.5077H13.4033V114.106H143.626ZM72.6338 126.67C72.6456 128.216 73.2613 129.695 74.3493 130.792C75.4374 131.889 76.9113 132.517 78.4563 132.542C79.2345 132.542 80.0049 132.388 80.7235 132.089C81.4421 131.791 82.0948 131.353 82.6441 130.802C83.1935 130.251 83.6288 129.597 83.9251 128.878C84.2213 128.158 84.3728 127.387 84.3708 126.609C84.3652 125.064 83.751 123.583 82.6611 122.487C81.5712 121.392 80.0936 120.77 78.5483 120.756C77.7694 120.751 76.9974 120.901 76.277 121.197C75.5566 121.493 74.9022 121.929 74.3519 122.481C73.8016 123.032 73.3663 123.687 73.0714 124.408C72.7764 125.128 72.6277 125.901 72.6338 126.68V126.67Z" stroke="#703773" stroke-width="3.28856" stroke-miterlimit="10"/>
<path d="M84.3297 27.1843C88.6199 27.1843 92.8949 27.169 97.176 27.1843C100.547 27.1843 102.57 28.7166 102.714 31.9833C102.95 37.3615 103.253 42.7887 101.877 48.0934C99.4529 57.4278 91.3106 64.4394 81.7585 65.8368C69.614 67.6111 56.5132 59.2359 54.5918 45.225C54.0065 40.9654 54.1965 36.5831 54.2394 32.2591C54.2639 29.8842 55.5112 28.0577 57.8953 27.3314C58.8576 27.025 58.9955 26.4642 59.0262 25.6368C59.1089 23.2495 58.974 20.8163 59.3908 18.4843C60.0756 14.5613 61.9372 10.9394 64.7286 8.0993C67.5201 5.25918 71.1092 3.33514 75.0197 2.5826C85.0896 0.670353 95.8859 6.52661 97.8165 17.5741C97.8875 17.9743 97.9325 18.3786 97.9513 18.7846C98.0371 20.8163 97.7583 21.1105 95.7418 21.1197C93.8051 21.1197 91.8683 21.1197 89.9193 21.1197C88.9295 21.1197 88.2767 20.7673 88.1143 19.6794C87.3758 14.672 83.6555 12.6311 80.3458 12.2909C75.2097 11.77 71.373 14.0009 69.6048 18.2943C68.5322 20.9021 68.9061 23.6173 68.9735 26.2987C68.9735 26.6052 70.0001 27.1108 70.567 27.1353C72.8592 27.2334 75.1638 27.1751 77.4468 27.1751H84.3297V27.1843ZM78.4428 56.5851H79.6686C80.0731 56.5851 80.4807 56.5851 80.8944 56.5851C82.5706 56.5269 83.1713 55.8649 82.9935 54.1856C82.8158 52.5062 82.586 50.7626 82.3806 49.0526C82.2152 47.6674 82.3101 46.4569 83.3184 45.2403C85.3348 42.8071 84.8874 39.2676 82.5339 37.1286C81.4331 36.1274 79.9976 35.5741 78.5097 35.5775C77.0217 35.581 75.5888 36.1408 74.4926 37.147C72.136 39.2922 71.7039 42.7918 73.7204 45.2587C74.7133 46.4845 74.8236 47.7103 74.6397 49.0771C74.4926 50.2324 74.2842 51.3816 74.131 52.5338C73.6468 56.2112 73.9962 56.5943 77.6827 56.5882L78.4428 56.5851Z" stroke="#703773" stroke-width="3.28856" stroke-miterlimit="10"/>
<path d="M54.7933 90.3317C54.7933 86.3478 54.7933 82.3885 54.7933 78.4169C54.7933 76.1982 55.4706 75.475 57.7352 75.5547C61.7926 75.7018 65.9051 75.5823 69.8798 76.2503C75.1293 77.136 78.7852 81.4048 79.2418 86.7523C79.5283 89.5683 79.4252 92.4103 78.9354 95.1981C77.8414 100.769 73.8238 104.315 68.1514 104.863C64.474 105.222 60.7415 105.17 57.0304 105.194C55.5196 105.194 54.8239 104.352 54.8147 102.703C54.7749 98.5874 54.7933 94.4565 54.7933 90.3317ZM61.5352 90.301C61.5352 92.3389 61.5015 94.3737 61.5352 96.4116C61.6118 100.089 60.7752 99.7489 65.0164 99.6692C68.7214 99.5987 71.2864 97.711 72.0311 94.2665C72.4882 92.1847 72.6123 90.0436 72.3988 87.923C71.9667 83.9391 69.748 81.7419 66.0614 81.1596C65.0655 81.0003 64.0266 81.1259 63.0153 81.0463C61.906 80.9574 61.4831 81.3527 61.5076 82.5111C61.5812 85.1037 61.5352 87.7054 61.5352 90.3133V90.301Z" fill="#703773"/>
<path d="M46.8536 96.0776C46.8536 97.9163 46.8536 99.7549 46.8536 101.594C46.8536 102.844 46.2898 103.769 45.0946 104.183C40.4979 105.774 35.7908 106.328 31.0286 104.962C25.4819 103.359 21.7769 98.6149 21.4674 92.8384C21.2774 89.2958 21.4674 85.8115 23.1988 82.5877C25.6504 78.0369 29.5546 75.6956 34.611 75.2329C37.9299 74.9264 41.2334 75.0674 44.35 76.477C46.6974 77.5404 47.6167 79.9001 46.6575 82.3149C46.1396 83.6143 45.3337 83.1331 44.4174 82.8144C42.2722 82.0728 40.1271 81.0186 37.9237 80.8347C30.6762 80.2218 27.7619 85.9126 28.3319 91.7413C28.6782 95.2869 30.0265 98.3636 33.7928 99.424C35.325 99.8591 37.0779 99.6845 38.7266 99.6661C39.6735 99.6661 40.1608 99.0532 40.1179 98.0419C40.0658 96.9233 40.0597 95.7987 40.1179 94.6709C40.1761 93.5432 39.6797 93.2214 38.6561 93.2735C37.6908 93.3256 36.7194 93.3042 35.7541 93.2735C34.2586 93.2368 33.6671 92.4308 33.707 90.54C33.7468 88.6492 34.2647 88.0333 35.7939 88.0241C38.6541 88.0016 41.5061 88.0016 44.35 88.0241C46.1029 88.0241 46.8199 88.7626 46.8536 90.5553C46.8874 92.3481 46.8506 94.245 46.8536 96.0776Z" fill="#703773"/>
<path d="M129.566 91.5021C132.413 94.6953 133.55 98.6546 135.149 102.369C136.093 104.554 135.594 105.231 133.203 105.252C128.184 105.301 129.109 105.513 127.381 101.41C126.618 99.5709 125.867 97.7322 125.055 95.9364C124.405 94.4961 123.357 93.5767 121.684 93.4633C120.651 93.3929 120.195 93.6748 120.219 94.7964C120.277 97.4931 120.25 100.193 120.219 102.893C120.219 104.633 119.689 105.176 117.954 105.237C112.377 105.43 113.477 104.931 113.45 101.005C113.401 93.4695 113.45 85.9339 113.45 78.3983C113.45 76.1152 114.063 75.5116 116.37 75.5453C119.775 75.5974 123.198 75.4932 126.575 75.8517C130.691 76.2838 133.363 78.4626 133.868 81.7355C134.463 85.5968 134.135 88.5877 129.961 91.165C129.824 91.2702 129.692 91.3828 129.566 91.5021ZM120.247 88.0239C121.705 88.0239 122.977 88.1526 124.212 87.9932C125.033 87.8941 125.79 87.5011 126.343 86.8871C126.896 86.273 127.208 85.4793 127.221 84.6529C127.301 83.0441 126.455 81.616 124.963 81.2574C123.774 80.9959 122.556 80.8929 121.341 80.951C120.967 80.951 120.317 81.6191 120.296 82.0083C120.198 83.9174 120.259 85.8511 120.259 88.0239H120.247Z" fill="#703773"/>
<path d="M86.2971 90.7813C86.2971 86.7086 86.2971 82.6358 86.2971 78.5662C86.2971 76.3598 87.1337 75.5017 89.3616 75.5476C92.4077 75.5905 95.4722 75.5476 98.4938 75.8541C103.498 76.372 106.636 79.4395 106.817 83.6287C107.084 89.7791 104.476 93.6527 99.1557 94.7682C97.6235 95.0746 96.0299 95.1022 94.4609 95.1543C93.4374 95.1911 92.993 95.5588 93.0175 96.616C93.0635 98.8041 92.993 100.995 93.0451 103.183C93.0758 104.529 92.4721 105.126 91.1727 105.246C86.6158 105.653 86.2695 105.368 86.2695 100.863L86.2971 90.7813ZM93.039 85.3449C93.039 86.4634 92.9747 87.585 93.0727 88.6943C93.1095 89.0896 93.511 89.7393 93.8082 89.7761C95.604 90.0029 97.3936 89.9416 98.7635 88.5043C99.8483 87.3674 100.167 84.5419 99.4346 83.025C98.5919 81.2844 97.0596 80.9718 95.3374 81.0515C94.9329 81.0699 94.4517 80.9228 94.1361 81.0913C93.7071 81.3212 93.1463 81.7471 93.088 82.1516C92.9532 83.1966 93.0513 84.2784 93.0513 85.3449H93.039Z" fill="#703773"/>
</svg>
