<svg width="125" height="101" viewBox="0 0 125 101" fill="none" xmlns="http://www.w3.org/2000/svg">
<path d="M124.888 97.2802C124.845 97.3687 124.807 97.4594 124.774 97.5518C123.995 100.088 120.876 100.865 118.971 98.9863C116.604 96.6529 114.245 94.3111 111.893 91.9611L102.566 82.7064C102.478 82.6192 102.384 82.5373 102.3 82.4599C101.554 82.893 100.848 83.3436 100.105 83.729C92.3389 87.7631 82.8766 86.3597 76.7404 80.1493C71.9542 75.3065 70.1371 69.4366 71.2654 62.7558C72.6475 54.573 79.2286 48.1411 87.4716 46.7498C97.0027 45.1409 106.326 50.4486 109.559 59.4704C111.772 65.643 111.035 71.5599 107.483 77.1081C107.138 77.649 107.08 77.4722 107.567 77.9562C112.953 83.3042 118.341 88.6486 123.732 93.9895C124.291 94.5425 124.645 95.1873 124.887 95.9133L124.888 97.2802ZM104.997 66.2415C105.013 58.5503 98.7044 52.2169 91.008 52.1994C83.109 52.1812 76.7274 58.3985 76.7128 66.1269C76.6983 73.9638 83.0371 80.3002 90.8734 80.282C98.6715 80.2646 104.983 73.9888 104.999 66.2415H104.997Z" fill="white"/>
<path d="M56.9727 100.908V46.9229H75.976C75.6396 47.199 75.356 47.4243 75.0801 47.6594C69.9468 52.0463 66.9479 57.5634 66.4074 64.2784C65.8096 71.739 68.265 78.152 73.5328 83.4947C74.2973 84.2692 75.181 84.9238 75.9959 85.6483C76.1197 85.7583 76.2428 85.9517 76.2435 86.1034C76.2568 90.9446 76.2601 95.7861 76.2535 100.628C76.2535 100.714 76.242 100.799 76.2336 100.908H56.9727Z" fill="white"/>
<path d="M28.5742 100.902V62.0205H47.8138V100.902H28.5742Z" fill="white"/>
<path d="M8.30429 58.4986C9.89968 58.4888 10.9691 58.78 11.9576 59.352C12.1517 59.4643 12.3061 59.4878 12.5202 59.3945C18.9415 56.613 25.2581 53.6144 31.47 50.3985C31.6779 50.2916 31.7529 50.1709 31.7582 49.9335C31.8668 45.1105 37.1024 42.2074 41.3092 44.6409C41.5867 44.8017 41.7778 44.8108 42.0599 44.6485C48.1851 41.1408 54.1684 37.4091 60.0098 33.4534C60.2598 33.2835 60.3416 33.1249 60.3118 32.8101C60.0824 30.4092 60.9462 28.4498 62.9109 27.0449C64.8365 25.6674 66.9479 25.48 69.1396 26.4077C69.401 26.5185 69.5745 26.5321 69.8176 26.3433C75.1993 22.1627 80.3723 17.7478 85.2074 12.9498C86.3961 11.7702 87.5451 10.5512 88.7239 9.36021C88.9142 9.16753 88.9249 9.01506 88.8255 8.767C87.8317 6.28266 88.2139 3.98796 90.0402 2.04904C91.8665 0.110113 94.1835 -0.4611 96.7169 0.405196C99.2502 1.27149 100.7 3.12242 100.968 5.77441C101.369 9.72357 98.0524 12.9695 94.062 12.6138C93.8929 12.6076 93.7282 12.6675 93.6033 12.7806C87.2171 19.249 80.3157 25.1371 73.1047 30.6747C72.9098 30.8265 72.8448 30.963 72.8754 31.2133C73.4105 35.0601 70.5996 38.3523 66.6834 38.4593C65.7224 38.4892 64.7701 38.2707 63.9199 37.8251C63.5973 37.6559 63.4024 37.7303 63.1432 37.9093C57.8431 41.5727 52.4086 45.0316 46.8399 48.2859C46.1167 48.7107 45.3875 49.1203 44.6697 49.5588C44.6088 49.6004 44.5578 49.6548 44.5204 49.7181C44.483 49.7814 44.4601 49.8521 44.4533 49.9252C44.5863 53.0672 42.0469 55.9847 38.8935 56.3192C37.3501 56.4823 35.9305 56.1675 34.6348 55.3232C34.4475 55.2018 34.3137 55.2056 34.1203 55.3058C27.9895 58.4837 21.7481 61.4338 15.396 64.1561C15.1812 64.2479 15.0956 64.348 15.1109 64.6014C15.3357 68.3389 11.8872 71.5257 8.11239 71.0591C5.58973 70.7474 3.79407 69.4161 2.87826 67.0743C1.95634 64.7174 2.38289 62.5107 4.0555 60.5999C5.2809 59.1965 6.88319 58.5312 8.30429 58.4986ZM12.1472 64.8252C12.1517 64.3851 12.0686 63.9486 11.9028 63.5405C11.737 63.1324 11.4916 62.7608 11.1808 62.4469C10.8699 62.1331 10.4997 61.8833 10.0914 61.7117C9.68306 61.5402 9.2446 61.4503 8.80118 61.4472C6.95963 61.426 5.40934 62.9492 5.40399 64.785C5.39864 66.6207 6.93287 68.1424 8.78054 68.147C9.66908 68.1436 10.5205 67.7932 11.1506 67.1715C11.7807 66.5498 12.1387 65.7068 12.1472 64.8252ZM66.6451 28.8064C65.7487 28.8082 64.8887 29.1588 64.2498 29.7828C63.6109 30.4069 63.2441 31.2547 63.2281 32.1441C63.2036 33.97 64.7256 35.4818 66.6046 35.5076C68.4057 35.5281 69.9682 33.9905 69.9865 32.1752C70.0049 30.3599 68.4645 28.8162 66.6451 28.8064ZM94.6575 9.70688C96.4845 9.70233 98.0539 8.13663 98.0363 6.33424C98.0187 4.49849 96.47 2.97754 94.6361 2.9965C92.8174 3.01243 91.2725 4.54097 91.287 6.30239C91.3069 8.20111 92.7999 9.71068 94.6575 9.70612V9.70688ZM41.4697 50.0572C41.4697 48.2153 39.911 46.7005 38.0297 46.7133C36.2715 46.7255 34.7365 48.2707 34.7189 50.0397C34.7006 51.8891 36.2676 53.4252 38.1665 53.4199C39.9416 53.4139 41.4705 51.8565 41.4697 50.0564V50.0572Z" fill="white"/>
<path d="M0.326172 77.1143H19.5856V100.909H0.326172V77.1143Z" fill="white"/>
<path d="M84.8561 42.6745V42.2633C84.8561 37.0423 84.8533 31.8208 84.8477 26.5987C84.8477 26.2308 84.9501 26.1436 85.3147 26.1436C91.4435 26.1552 97.5718 26.1577 103.7 26.1511H104.132V45.7983C98.1329 42.123 91.7353 41.0337 84.8561 42.6745Z" fill="white"/>
<path d="M104.134 86.7705V100.904H84.8887V89.905C91.735 91.5238 98.1327 90.4526 104.134 86.7705Z" fill="white"/>
<path d="M89.4414 64.7299H93.2353V67.1073H89.978C89.9719 67.6077 89.8777 68.1031 89.6998 68.5713C89.5148 69.0771 89.2113 69.3749 88.7893 69.4649H96.0141V72.1458H85.2637V69.446C85.915 69.4328 86.3652 69.2204 86.6144 68.8088C86.8636 68.3971 87.0074 67.83 87.0456 67.1073H85.2637V64.7299H86.5862C86.4137 64.2336 86.3169 63.7146 86.2987 63.19C86.2345 61.8458 86.6369 60.7461 87.5058 59.8909C88.3747 59.0358 89.5884 58.6079 91.1469 58.6074C92.5774 58.6074 93.708 58.9718 94.5387 59.7005C95.3694 60.4293 95.7717 61.4592 95.7457 62.7902H93.1589C93.1461 61.713 92.4755 61.1744 91.1469 61.1744C90.8944 61.1691 90.6434 61.2133 90.4082 61.3044C90.173 61.3955 89.9582 61.5318 89.7762 61.7055C89.3996 62.0595 89.2113 62.5475 89.2113 63.1695C89.2113 63.5746 89.288 64.0947 89.4414 64.7299Z" fill="white"/>
</svg>
