<svg width="87" height="78" viewBox="0 0 87 78" fill="none" xmlns="http://www.w3.org/2000/svg">
<path d="M74.9534 28.0319H71.1525C69.8767 28.0319 69.5985 27.8427 69.1525 26.7075C67.9247 26.5552 66.8695 26.6636 65.7952 27.515C61.9894 30.4938 53.0302 30.6092 49.5194 24.497C49.2583 24.1124 49.0182 23.715 48.8 23.3065C48.4595 22.5289 47.8959 22.3328 47.0254 22.5958C49.9031 26.216 51.1022 30.2585 50.3108 34.7555C49.7537 38.0797 48.0368 41.1224 45.4427 43.3826C42.8999 45.6281 39.6639 47.0122 36.2278 47.3242C32.7916 47.6362 29.3437 46.8589 26.4092 45.1108C20.7833 41.7629 16.9464 34.3886 20.1526 26.2414C19.2893 26.7029 18.5723 27.1182 17.8337 27.4897C15.1071 28.8602 11.8793 28.0573 10.2606 25.6184C8.4644 22.9119 9.35169 19.4763 12.3445 17.7942C17.685 14.7947 23.0519 11.8274 28.4116 8.84634C30.8696 7.48039 33.342 6.13522 35.7809 4.73467C37.661 3.64504 39.8213 3.08541 42.0159 3.11953C48.6273 3.15414 55.2412 3.16568 61.8527 3.11953C64.1549 3.10338 66.3012 3.50947 68.3107 4.5893C68.5673 4.72774 68.8431 4.83618 69.0422 4.92848C69.282 4.42317 69.3899 3.79096 69.7616 3.52331C70.1908 3.22336 70.8647 3.17952 71.4402 3.15414C72.5721 3.10108 73.7088 3.13798 74.975 3.13798C74.975 2.65113 74.951 2.2012 74.975 1.75357C75.0277 0.929852 75.5481 0.392257 76.4138 0.385335C79.2915 0.359185 82.1636 0.359185 85.0301 0.385335C85.8838 0.385335 86.3946 0.932159 86.469 1.75357C86.4834 1.95431 86.469 2.15736 86.469 2.3604V28.7956C86.469 30.3808 86.0493 30.7822 84.4042 30.7846H77.0182C75.3707 30.7846 74.9678 30.3923 74.9534 28.7956V28.0319ZM69.198 23.8787C69.198 18.701 69.198 13.6387 69.198 8.5764C69.1968 8.46929 69.1708 8.36378 69.1218 8.26759C69.0729 8.17139 69.0023 8.08691 68.9151 8.02032C66.8959 7.05124 64.975 5.8745 62.5626 5.89065C55.5362 5.9391 48.5074 5.9114 41.4811 5.90448C40.1591 5.89674 38.8591 6.22978 37.7161 6.86896C36.4211 7.58731 35.1278 8.30643 33.836 9.02632C27.1598 12.735 20.4851 16.4452 13.8121 20.1569C12.3157 20.9922 11.8145 22.5843 12.5675 23.9271C13.3013 25.2308 15.0591 25.8076 16.438 25.0462C19.4931 23.3572 22.5267 21.629 25.5075 19.827C27.1862 18.8071 28.8912 17.838 30.848 17.4735C32.5938 17.1505 34.378 17.012 36.2557 16.7813C36.2149 16.8528 36.2725 16.7813 36.2964 16.7028C37.0782 14.0609 38.7569 12.8196 41.5722 12.8173C45.82 12.8173 50.067 12.8173 54.3132 12.8173C54.5814 12.7989 54.8509 12.8098 55.1165 12.8496C55.836 13.018 56.2724 13.4703 56.2748 14.1948C56.2772 14.9193 55.8408 15.3761 55.1213 15.5422C54.8265 15.5882 54.5271 15.6006 54.2293 15.5792C49.9127 15.5792 45.6154 15.5792 41.3084 15.5792C40.7794 15.5601 40.2614 15.7276 39.8516 16.05C39.4418 16.3725 39.1685 16.8278 39.083 17.3304C38.9199 18.3087 39.6034 19.2686 40.7377 19.587C41.112 19.6791 41.4977 19.7218 41.884 19.7139C44.1861 19.7139 46.4907 19.7347 48.7928 19.7139C49.1365 19.6878 49.4806 19.7597 49.7821 19.9206C50.0836 20.0814 50.3292 20.3241 50.4883 20.6184C50.9175 21.3429 51.3755 22.0513 51.8216 22.7665C52.4843 23.8287 53.3865 24.7342 54.4614 25.4161C55.5364 26.0981 56.7568 26.5392 58.0325 26.7068C59.3083 26.8744 60.6069 26.7643 61.8325 26.3847C63.0582 26.005 64.1796 25.3655 65.1141 24.5132C65.5671 24.165 66.1151 23.9503 66.692 23.8948C67.4738 23.8095 68.2868 23.8856 69.2076 23.8856L69.198 23.8787ZM34.6921 44.6263C37.2653 44.6375 39.7833 43.9084 41.9228 42.5328C44.0622 41.1571 45.7256 39.1977 46.6993 36.9059C47.6708 34.6126 47.9101 32.0927 47.3864 29.668C46.8627 27.2432 45.5999 25.0237 43.7593 23.2926C43.1717 22.7342 42.5842 22.4297 41.7185 22.4851C40.0398 22.5912 38.5099 22.0882 37.5195 20.7776C36.8648 19.9147 36.095 19.7508 35.1574 19.7647C34.4706 19.7662 33.7845 19.8047 33.1022 19.8801C29.8308 20.2752 26.8405 21.8597 24.7448 24.3087C22.649 26.7577 21.6065 29.8854 21.8313 33.0504C22.0629 36.1847 23.5167 39.1191 25.9016 41.2657C28.2866 43.4123 31.4264 44.6127 34.6921 44.6263ZM77.8575 27.9904H83.5145V3.20952H77.8623L77.8575 27.9904ZM72.1381 5.95526V25.1985H74.9031V5.95526H72.1381Z" fill="white"/>
<path d="M11.7654 50.1502H15.468C17.0819 50.1502 17.48 50.524 17.5231 52.063C17.5231 52.176 17.5423 52.2937 17.5615 52.506C18.9788 52.1714 20.3936 51.9522 21.727 51.5046C25.6718 50.1756 29.5063 50.4063 33.4775 51.5715C39.1873 53.242 44.9883 54.5941 50.7724 56.0593C52.3504 56.4585 53.7413 57.1114 54.7556 58.5143C55.5494 58.0805 56.3192 57.6652 57.0842 57.2406C60.9403 55.0994 64.782 52.9328 68.6549 50.8193C72.1273 48.9273 76.2328 50.5886 77.1992 54.2157C77.8443 56.6384 76.7196 59.0796 74.3023 60.4455C69.5062 63.1359 64.6813 65.8009 59.8683 68.4774C56.8108 70.1641 53.7508 71.8484 50.7197 73.5605C48.9598 74.5578 46.949 75.071 44.9067 75.0441C38.2665 75.0187 31.6262 74.9979 24.9859 75.0441C22.6214 75.0625 20.4296 74.6518 18.3673 73.5166C18.164 73.4121 17.955 73.3182 17.7414 73.2351C17.4632 73.7589 17.3241 74.3888 16.9188 74.6864C16.5135 74.9841 15.8637 74.9887 15.3145 75.0118C14.1826 75.0556 13.0483 75.0256 11.7749 75.0256C11.7749 75.4871 11.7917 75.8955 11.7749 76.3131C11.7318 77.2361 11.209 77.7737 10.2594 77.7806C7.44882 77.8021 4.63748 77.8021 1.82534 77.7806C0.806157 77.7806 0.297765 77.2107 0.292969 76.1655C0.292969 73.1405 0.292969 70.1179 0.292969 67.0953C0.292969 61.1624 0.292969 55.231 0.292969 49.3011C0.292969 47.8198 0.734215 47.3883 2.2498 47.386H9.69822C11.3625 47.386 11.7702 47.7736 11.7821 49.3565L11.7654 50.1502ZM17.5207 55.3671V56.3615C17.5207 60.5148 17.5567 64.6541 17.4944 68.7981C17.48 69.7464 17.7653 70.2148 18.6622 70.6048C20.4296 71.3708 22.0987 72.296 24.1466 72.2845C31.1754 72.2453 38.2065 72.2661 45.2353 72.2707C46.5572 72.2838 47.8584 71.9547 49.0027 71.3177C56.9739 66.8892 64.9427 62.4583 72.9091 58.0251C74.4486 57.1691 74.9354 55.5401 74.1225 54.1834C73.3095 52.8267 71.5733 52.4114 70.0625 53.2443C65.4646 55.7763 60.8819 58.3243 56.3144 60.8886C56.1678 60.9846 56.0438 61.1092 55.9504 61.2543C55.8571 61.3993 55.7964 61.5617 55.7724 61.7307C55.559 65.4594 52.2353 67.8683 48.4583 66.9199C42.854 65.5148 37.2641 64.0496 31.6718 62.6052C30.6478 62.3399 30.197 61.6938 30.4176 60.8516C30.6382 60.0095 31.3936 59.6841 32.4128 59.9425C34.8396 60.5578 37.2633 61.18 39.6837 61.8092C42.8276 62.6214 45.9667 63.4497 49.1154 64.2457C51.2425 64.781 53.0674 63.3482 52.8827 61.327C52.7724 60.1179 51.9619 59.2711 50.4655 58.8812C44.093 57.2291 37.7197 55.5832 31.3456 53.9435C29.7293 53.5258 28.1154 52.9259 26.4224 53.2859C23.4512 53.9181 20.5039 54.6587 17.5087 55.3671H17.5207ZM3.19464 74.968H8.86129V50.2033H3.19464V74.968ZM11.8421 52.9513V72.2245H14.5999V52.949L11.8421 52.9513Z" fill="white"/>
<path d="M36.242 39.121C36.031 41.3337 35.7408 41.8529 34.7384 41.8505C33.736 41.8482 33.4602 41.3245 33.242 39.1417C31.0837 38.8902 29.5945 37.8519 29.0909 35.7315C28.995 35.3415 28.995 34.9354 29.0909 34.5455C29.1601 34.2446 29.3428 33.9792 29.6038 33.8005C29.8647 33.6219 30.1853 33.5429 30.5034 33.5787C31.254 33.618 31.7025 34.054 31.8535 34.7532C32.1581 36.103 32.4291 36.3222 33.8247 36.3268C34.4842 36.3268 35.1413 36.3268 35.7984 36.3268C36.9374 36.3268 37.5945 35.8215 37.6089 34.9654C37.6233 34.1094 36.9518 33.581 35.7528 33.5626C35.007 33.5626 34.2588 33.5626 33.5106 33.5626C31.067 33.5441 29.1725 31.9313 29.0118 29.7347C28.8463 27.4989 30.4339 25.6622 32.8487 25.2884C32.9662 25.27 33.0885 25.2608 33.2708 25.2377C33.4219 24.1509 32.8991 22.492 34.8319 22.5612C36.5442 22.6212 36.0909 24.1302 36.206 25.2169C38.441 25.4661 39.9278 26.5529 40.4219 28.7102C40.5681 29.3494 40.5489 29.9816 39.9734 30.4592C39.1197 31.1653 37.8727 30.7107 37.6305 29.6101C37.3331 28.2557 37.0645 28.0388 35.6617 28.0365C35.0046 28.0365 34.3451 28.0365 33.6881 28.0365C32.5442 28.0365 31.8943 28.5349 31.8775 29.3955C31.8607 30.2562 32.5346 30.7938 33.7312 30.7984C34.4794 30.7984 35.2276 30.7984 35.9734 30.7984C38.4219 30.8145 40.3115 32.4135 40.4746 34.624C40.6377 36.8344 39.0597 38.6918 36.6377 39.0725C36.5202 39.091 36.4027 39.1002 36.242 39.121Z" fill="white"/>
</svg>
