<svg width="180" height="100" viewBox="0 0 180 100" fill="none" xmlns="http://www.w3.org/2000/svg">
<path d="M92.7983 12.017C92.7983 15.54 92.7297 18.826 92.8241 22.1121C92.8712 23.6065 92.3952 24.1622 90.8813 24.1234C88.5997 24.0717 86.3053 24.1233 84.0194 24.2612C82.3726 24.3688 81.9179 23.6884 81.9565 22.1379C82.038 18.8476 81.9823 15.5529 81.9823 11.7414C65.4923 13.4297 51.8414 20.286 39.0741 30.2261C41.5443 32.5905 43.7916 34.7482 46.0517 36.8973C48.1446 38.8913 48.1489 38.8827 46.0904 41.0533C44.3277 42.9052 42.5736 44.7614 40.6866 46.7512L31.3759 37.9051C19.7965 50.9762 13.1534 66.0499 11.2749 83.5914C13.9339 83.5914 16.4685 83.5914 18.9946 83.5914C24.8615 83.5311 24.8614 83.5225 24.9257 89.4917C24.9257 90.9043 24.9257 92.3213 24.9257 93.8545H0C0.120083 61.8508 12.1927 35.644 38.3407 17.4823C69.648 -4.25404 103.048 -5.58909 135.865 13.6622C165.847 31.2468 179.58 58.9695 180 93.82H154.903C154.903 91.1756 154.903 88.6088 154.903 86.0419C154.903 84.6681 155.79 84.6164 156.777 84.5949C159.993 84.5346 163.21 84.4643 166.426 84.3839C167.117 84.3839 167.812 84.3236 168.759 84.2805C167.215 66.683 160.697 51.549 149.1 38.198C146.651 40.782 144.224 43.1637 141.998 45.7348C140.711 47.2034 139.854 47.1948 138.567 45.8037C137.222 44.3165 135.773 42.9277 134.231 41.6477C132.807 40.4676 132.662 39.5804 134.068 38.2023C136.521 35.8206 138.786 33.2537 141.269 30.6266C127.339 18.3824 111.042 12.9085 92.7983 12.017Z" fill="#C84CFF"/>
<path d="M85.3784 99.1261C81.6516 98.5447 76.3723 97.7221 71.0758 96.8909C60.2812 95.1984 49.4951 93.4714 38.6877 91.8477C37.1094 91.6108 36.7149 90.9863 36.7706 89.4833C36.9465 84.2764 36.9036 84.3151 41.9942 83.5958C56.7001 81.5243 71.4017 79.3924 86.1119 77.3251C91.2326 76.6059 95.6412 78.6172 97.9142 82.5536C99.0029 84.4663 99.5026 86.6602 99.3499 88.858C99.1972 91.0558 98.3991 93.1588 97.0565 94.9011C94.4833 98.1528 90.9494 99.2036 85.3784 99.1261Z" fill="white"/>
</svg>
