<svg width="106" height="138" viewBox="0 0 106 138" fill="none" xmlns="http://www.w3.org/2000/svg">
<path d="M105.036 52.0431C105.036 63.0831 105.036 74.1237 105.036 85.165C105.036 90.5403 103.488 95.471 100.862 100.098C98.1257 104.92 94.0884 108.413 89.6066 111.549C77.8945 119.742 66.266 128.059 54.6056 136.329C53.1158 137.385 53.0429 137.401 51.5673 136.354C39.4926 127.796 27.4499 119.194 15.3361 110.694C10.8543 107.549 7.15834 103.764 4.60722 98.8945C2.50765 94.9445 1.29751 90.5794 1.06233 86.1079C0.994771 84.8024 0.964497 83.4934 0.964497 82.1791C0.964497 60.605 0.956814 39.0303 0.941406 17.455C0.941406 16.6514 1.19032 16.3192 1.94054 16.0924C17.8967 11.2742 33.8488 6.44234 49.7967 1.59677C53.0696 0.603843 53.0642 0.607415 56.4651 1.64141C70.4883 5.89885 84.5114 10.1533 98.5346 14.4048C100.405 14.9727 102.268 15.5602 104.151 16.0781C104.842 16.2692 105.055 16.5764 105.054 17.3086C105.029 28.8951 105.023 40.4732 105.036 52.0431ZM97.8501 54.4379C97.8501 43.9336 97.8377 33.4275 97.8715 22.9233C97.8715 22.0786 97.6261 21.7321 96.8244 21.5178C94.995 21.032 93.1941 20.4374 91.3808 19.8873C78.9162 16.1037 66.4491 12.3285 53.9798 8.56153C53.3028 8.39301 52.5931 8.41278 51.9265 8.61869C47.6598 9.86877 43.4233 11.1814 39.1744 12.4707C29.2295 15.4888 19.2822 18.4979 9.33249 21.4981C8.48449 21.7517 8.26582 22.1232 8.26582 22.9732C8.29071 43.2389 8.29967 63.5052 8.29256 83.772C8.28591 84.9604 8.35418 86.148 8.49699 87.3276C9.38588 94.1138 12.5343 99.632 18.049 103.602C29.4268 111.799 40.9238 119.853 52.3602 127.979C52.9149 128.373 53.2865 128.336 53.8305 127.952C65.2367 119.835 76.7052 111.81 88.0528 103.614C94.3941 99.0373 97.7026 92.628 97.8199 84.7918C97.9639 74.675 97.8501 64.5564 97.8501 54.4379Z" fill="#C84CFF"/>
<path d="M28.4707 95.182V54.4328H31.4733C32.748 54.4328 32.7391 54.4327 32.7498 53.1148C32.7694 50.9146 32.6823 48.7056 32.8494 46.5161C33.3614 39.8425 36.5827 34.7296 42.2023 31.258C52.3943 24.954 65.4681 28.5006 71.2068 39.0513C72.6097 41.6545 73.343 44.5685 73.3402 47.5287C73.3579 49.552 73.3704 51.5754 73.3277 53.6005C73.3135 54.2863 73.5446 54.4756 74.1953 54.4506C75.3153 54.4042 76.4388 54.4381 77.6673 54.4381C77.6921 54.7953 77.7295 55.115 77.7295 55.4257C77.7295 68.3087 77.7378 81.1917 77.7544 94.0747C77.7544 94.9891 77.5019 95.207 76.6113 95.2052C60.9431 95.1766 45.2748 95.1701 29.6066 95.1855L28.4707 95.182ZM53.0823 60.1796C47.1285 60.1796 41.1712 60.1956 35.2192 60.1599C34.3516 60.1599 34.1258 60.4189 34.1276 61.2672C34.1548 70.3154 34.1548 79.3636 34.1276 88.4119C34.1276 89.1691 34.3053 89.4441 35.1107 89.4423C47.0811 89.4185 59.0515 89.4185 71.0219 89.4423C71.7721 89.4423 71.9695 89.1958 71.9695 88.4708C71.9493 79.3654 71.9493 70.2576 71.9695 61.1475C71.9695 60.3385 71.701 60.1581 70.9437 60.1617C64.9917 60.1813 59.0379 60.1688 53.0823 60.1706V60.1796ZM53.0308 54.4435C57.5926 54.4435 62.1544 54.4309 66.7197 54.4577C67.4184 54.4577 67.6477 54.256 67.6299 53.5488C67.5872 51.704 67.7383 49.8485 67.5783 48.0127C67.4308 46.3126 67.237 44.5392 66.6219 42.973C63.8486 35.91 55.8806 32.3259 48.4779 34.6653C42.4725 36.5637 38.5454 41.9105 38.5454 48.1895C38.5454 49.945 38.5827 51.7004 38.5276 53.4541C38.5027 54.2452 38.7481 54.4631 39.5303 54.4577C44.0263 54.4184 48.5312 54.4363 53.0308 54.4345V54.4435Z" fill="white"/>
<path d="M55.9277 80.5628H50.2495C50.4895 79.7913 50.7046 79.068 50.9375 78.3519C51.2664 77.3358 51.5846 76.3143 51.9544 75.316C52.1321 74.841 52.0717 74.6017 51.5988 74.3213C51.0475 74.0165 50.6165 73.5316 50.3772 72.9469C50.1379 72.3622 50.1047 71.713 50.2833 71.1068C50.4535 70.5009 50.8134 69.9663 51.3097 69.5819C51.8059 69.1976 52.4123 68.9839 53.0388 68.9727C53.6654 68.969 54.276 69.1709 54.7779 69.5477C55.2798 69.9245 55.6454 70.4556 55.8193 71.0603C56.0108 71.6613 55.9902 72.3103 55.761 72.8978C55.5317 73.4853 55.1077 73.9754 54.5606 74.2856C54.0539 74.5874 54.0273 74.866 54.1926 75.3571C54.7758 77.0429 55.3215 78.7341 55.9277 80.5628Z" fill="white"/>
</svg>
