<svg width="165" height="137" viewBox="0 0 165 137" fill="none" xmlns="http://www.w3.org/2000/svg">
<path d="M136.811 88.8107V65.355C136.811 61.7823 136.412 58.156 136.888 54.6445C138.384 43.6357 133.404 35.1821 126.668 27.3099C99.2003 -4.76795 46.4058 3.82336 30.6772 42.9778C29.7983 45.2146 29.3304 47.5909 29.2961 49.9931C29.1426 59.9385 29.1273 69.8839 29.2961 79.8294C29.3309 82.3526 29.8927 84.8406 30.9456 87.1353C38.0964 102.046 49.7204 111.961 65.403 117.262C67.8889 118.104 69.4004 118.112 70.9579 115.419C74.4182 109.444 81.1238 107.218 87.5304 109.298C93.6684 111.303 97.8271 117.522 97.2746 123.742C96.98 126.939 95.6325 129.948 93.4423 132.301C91.2521 134.654 88.3425 136.217 85.1674 136.748C81.9746 137.27 78.6989 136.671 75.9 135.052C73.1012 133.434 70.953 130.896 69.8224 127.873C68.9477 125.655 67.6817 124.813 65.541 124.193C47.572 118.961 34.245 108.028 25.3755 91.5649C24.3403 89.9289 22.7501 88.718 20.8947 88.1528C6.35529 83.8457 -2.12293 70.2818 1.99721 57.0696C5.02018 47.3384 12.0484 41.6234 21.7311 39.1141C22.8196 38.8832 23.8407 38.4075 24.7169 37.7234C25.5931 37.0393 26.3012 36.1651 26.7871 35.1668C39.2627 12.9808 58.2446 0.786223 83.8554 0.94688C109.466 1.10754 128.195 13.6002 140.632 35.8321C141.705 37.4396 143.305 38.6247 145.159 39.1832C157.673 43.0543 165.545 53.206 164.954 65.0946C164.348 78.4215 150.844 90.0194 136.811 88.8107Z" fill="#C84CFF"/>
<path d="M83.6944 99.4523C78.7635 99.4393 73.8836 98.4571 69.3337 96.5621C64.7837 94.6672 60.653 91.8966 57.1777 88.4086C53.7025 84.9207 50.9507 80.7837 49.08 76.2346C47.2093 71.6855 46.2565 66.8135 46.2757 61.8969C46.3163 51.9694 50.3046 42.4634 57.3656 35.4644C64.4266 28.4654 73.9836 24.5447 83.9399 24.5631C93.8962 24.6096 103.427 28.5924 110.442 35.6374C117.457 42.6823 121.383 52.214 121.359 62.1416C121.348 67.0588 120.364 71.9254 118.465 76.4632C116.565 81.0009 113.786 85.1208 110.288 88.5864C106.789 92.052 102.64 94.7954 98.0764 96.66C93.5132 98.5245 88.6258 99.4734 83.6944 99.4523ZM83.4874 92.697C91.6334 92.795 99.4854 89.6654 105.319 83.9951C111.152 78.3248 114.49 70.5777 114.599 62.4554C114.656 58.3999 113.907 54.3734 112.395 50.6082C110.883 46.843 108.638 43.4134 105.789 40.5178C102.941 37.6223 99.5459 35.3181 95.7997 33.7379C92.0536 32.1576 88.0305 31.3327 83.963 31.3109C75.8153 31.2823 67.9877 34.4718 62.192 40.182C56.3963 45.8921 53.1039 53.658 53.035 61.7819C52.9696 69.9049 56.1396 77.7222 61.849 83.517C67.5585 89.3117 75.3408 92.6107 83.4874 92.6895V92.697Z" fill="white"/>
<path d="M66.3163 58.7218C70.283 58.7218 73.9889 58.6377 77.6793 58.7218C79.8737 58.7907 80.5949 57.911 80.5488 55.7995C80.4491 51.2093 80.5488 46.6729 80.5488 41.8608H87.1855C87.1855 49.2358 87.2393 56.3427 87.0858 63.4499C87.0858 64.1002 85.674 65.2476 84.8991 65.2706C79.2726 65.4287 73.6461 65.444 68.0196 65.3165C65.4186 65.2783 65.0503 63.7481 66.3163 58.7218Z" fill="white"/>
</svg>
