<svg width="65" height="64" viewBox="0 0 65 64" fill="none" xmlns="http://www.w3.org/2000/svg">
<path fill-rule="evenodd" clip-rule="evenodd" d="M51.2324 11.2359C44.7673 17.2781 39.4783 22.4993 39.4783 22.8384C39.4783 23.178 39.8109 23.7313 40.2175 24.0685C41.5603 25.1815 40.6042 25.3476 35.3514 24.9158L30.1557 24.4879L26.3078 26.2638C22.3731 28.0794 21.3911 28.2688 18.7064 27.7328C17.5348 27.4988 17.1967 27.185 17.2791 26.4076C17.372 25.5305 16.2927 24.9529 9.48407 22.237C4.53063 20.2613 1.40606 19.2593 1.11266 19.5523C0.258297 20.4056 1.18564 20.9643 7.82498 23.596C11.446 25.0308 14.6058 26.3803 14.8476 26.594C15.0978 26.8156 14.9672 27.7968 14.5447 28.8746C14.1367 29.9148 12.3004 34.604 10.4645 39.2947L7.1265 47.8237L4.60857 46.8321C2.09561 45.8431 0.508005 45.8882 0.858985 46.9387C1.02976 47.4514 6.74424 49.854 7.79222 49.854C8.0459 49.854 8.60042 49.0176 9.02487 47.9948C10.0187 45.5996 9.85044 45.6879 11.658 46.6214C13.1453 47.3894 13.2044 47.5317 12.8936 49.6031C12.6072 51.5099 12.7238 51.9353 13.8373 53.0474C14.5358 53.7449 15.5868 54.3161 16.1721 54.3161C16.7579 54.3161 17.8629 54.9854 18.6279 55.8035C19.595 56.8372 20.4886 57.2908 21.5574 57.2908C22.515 57.2908 23.0959 57.5427 23.0959 57.9577C23.0959 58.922 24.7828 60.3008 26.1445 60.4495C26.7889 60.5199 28.0245 61.2879 28.8908 62.1565C30.8879 64.1595 32.626 64.2101 34.5169 62.3216C35.4561 61.3841 36.1541 61.0474 36.589 61.3226C38.3052 62.4094 41.9605 60.7128 41.9605 58.8298C41.9605 58.2388 42.5547 57.8149 43.8221 57.502C45.2151 57.1585 45.8714 56.6399 46.4284 55.4425C46.8648 54.5045 47.5488 53.8372 48.08 53.8312C49.1389 53.8183 51.8892 51.2318 51.8892 50.2481C51.8892 49.8689 52.4864 49.5288 53.2544 49.4702C56.1506 49.2486 57.3862 45.3101 55.2659 43.0567L54.1753 41.8971L55.254 40.8197L56.3328 39.7424L57.494 40.8316C58.1324 41.431 58.8726 41.9214 59.1382 41.9214C59.4037 41.9214 60.7203 40.8073 62.0632 39.4454C63.9183 37.5644 64.3661 36.8311 63.9278 36.3933C63.4894 35.9555 62.8684 36.2525 61.3418 37.6298C60.2368 38.6268 59.2007 39.4424 59.0389 39.4424C58.4278 39.4424 42.2087 23.4537 42.2087 22.8513C42.2087 22.5042 47.1234 17.6262 53.1303 12.0108C59.1372 6.39553 64.0519 1.53233 64.0519 1.20312C64.0519 0.874414 63.8121 0.525874 63.5192 0.428204C63.2258 0.330533 57.697 5.19423 51.2324 11.2359ZM49.0084 32.8464L54.8643 38.6799L53.6684 39.8737L52.4725 41.0681L49.8826 39.4766C48.1853 38.4335 47.1244 38.0532 46.8047 38.3725C46.0526 39.1236 46.6875 39.7533 50.4431 41.9813C54.0328 44.1113 55.0738 45.2699 54.5719 46.5763C53.935 48.2347 52.4248 47.9611 48.221 45.4251C43.8305 42.7766 42.9533 42.4747 42.9533 43.612C42.9533 43.9967 44.4163 45.2342 46.2045 46.3621C49.6498 48.5352 50.3746 49.4921 49.5569 50.7891C48.7085 52.1351 47.5474 51.9854 44.5022 50.1381C42.8962 49.1638 41.3325 48.3666 41.0267 48.3666C39.7761 48.3666 40.6042 49.8773 42.581 51.2035C44.8765 52.743 45.3903 54.5109 43.8285 55.4946C43.1544 55.92 42.4812 55.7732 40.7352 54.8208C39.1248 53.9418 38.3533 53.7539 37.9632 54.1436C37.5725 54.5338 37.7487 54.9433 38.5976 55.6156C39.244 56.1282 39.9405 56.8213 40.145 57.1565C40.7591 58.1629 39.5612 59.7698 38.1975 59.7698C37.0423 59.7698 36.9747 59.6429 37.2766 58.038C37.7869 55.3211 37.1877 53.8496 35.2407 53.0375C34.1565 52.5848 33.521 51.9804 33.521 51.4014C33.521 50.084 31.6316 47.8708 30.5062 47.8708C29.8122 47.8708 29.5495 47.5243 29.5495 46.609C29.5495 45.2174 27.5514 42.9129 26.345 42.9129C25.8655 42.9129 25.5781 42.4652 25.5781 41.7176C25.5781 39.9605 22.9107 37.8628 21.196 38.2713C19.2594 38.7334 19.2475 38.7448 16.8571 42.4687C15.6503 44.3492 14.5388 45.8877 14.3869 45.8877C14.1327 45.8877 11.1213 44.434 10.7872 44.1499C10.6487 44.0324 15.8896 30.3417 16.3706 29.5643C16.4957 29.362 17.2642 29.2936 18.0779 29.4131C19.4212 29.6099 19.5141 29.7418 19.0916 30.8519C18.128 33.3834 19.8953 35.9724 22.586 35.9714C24.4243 35.9709 30.046 33.185 30.046 32.2743C30.046 31.2495 29.6508 31.3 26.3704 32.7492C22.1725 34.6035 20.6137 34.3149 20.6137 31.6833C20.6137 31.2415 22.4495 30.0789 25.2057 28.7755L29.7978 26.6044L36.4748 26.8092L43.1524 27.0134L49.0084 32.8464ZM31.7736 30.5345C31.3035 31.2936 31.8912 31.8533 33.4942 32.1736C34.3099 32.3367 36.8055 33.6025 39.0399 34.9867C42.8312 37.3348 44.6372 37.8955 44.608 36.7156C44.6015 36.4429 42.4951 34.9585 39.9271 33.4171C35.3166 30.6491 32.3514 29.601 31.7736 30.5345ZM22.9966 40.5331C24.0659 41.6011 23.5794 43.0909 20.6812 47.6229C18.1464 51.5858 17.6639 52.085 16.3662 52.085C13.9465 52.085 14.1943 50.3924 17.3839 45.1276C18.9288 42.5778 20.4548 40.3849 20.7755 40.254C21.7828 39.8435 22.3815 39.9189 22.9966 40.5331ZM27.4645 46.4206C27.6224 47.7791 23.7134 54.675 22.3547 55.4346C21.3276 56.0087 19.6208 54.9839 19.6208 53.793C19.6208 53.2516 20.2146 51.8654 20.9403 50.7117C21.6661 49.5585 22.7945 47.7642 23.4478 46.7251C24.4154 45.1866 24.885 44.8639 25.9757 44.9898C26.9954 45.1073 27.3513 45.4489 27.4645 46.4206ZM31.3973 51.5893C31.5268 53.3349 28.3114 58.4207 26.907 58.6909C25.8114 58.9017 24.5837 57.9309 24.5901 56.8585C24.5926 56.4143 25.4897 54.6423 26.5833 52.9205C28.3233 50.1812 28.7418 49.8094 29.9298 49.9457C31.0418 50.0736 31.3069 50.3706 31.3973 51.5893ZM35.3072 55.5645C35.89 56.4425 35.7902 56.8818 34.4881 59.159C33.3349 61.1758 32.7347 61.7529 31.791 61.7529C30.178 61.7529 29.3088 60.1684 30.0907 58.6543C31.2801 56.3518 33.1432 54.2665 33.8805 54.4128C34.2999 54.4961 34.9423 55.0142 35.3072 55.5645Z" fill="white"/>
</svg>
