<svg width="108" height="105" viewBox="0 0 108 105" fill="none" xmlns="http://www.w3.org/2000/svg">
<path d="M59.0072 42.5379C57.9047 44.6691 56.8988 46.7018 55.7882 48.6651C55.6193 48.9662 55.013 49.0941 54.5838 49.1713C52.4916 49.5603 50.292 49.6215 48.315 50.3222C44.7072 51.6036 43.095 54.9949 44.0044 58.7165C45.0317 62.931 47.7598 66.048 50.9653 68.736C57.0248 73.8216 63.9428 77.1889 71.8882 78.1693C73.927 78.416 75.9909 78.3729 78.0175 78.0414C84.2515 77.0158 86.7407 72.2045 84.0959 66.4982C83.5594 65.3393 82.7278 64.3163 82.1457 63.1735C81.9338 62.7579 81.8453 62.0732 82.0438 61.6843C86.4484 53.0599 90.8931 44.4577 95.3781 35.8778C95.5927 35.4675 96.2875 35.1745 96.8052 35.0786C98.6829 34.7269 100.663 34.7402 102.438 34.1462C106.797 32.6916 108.53 28.922 107.071 24.5717C105.92 21.1404 103.718 18.4017 101.019 16.0867C93.8867 9.9594 85.7939 6.02465 76.1747 5.92076C74.48 5.92738 72.7983 6.21457 71.1988 6.77057C67.2073 8.10258 65.3189 11.6404 66.5367 15.6551C67.1054 17.52 68.291 19.209 69.1574 20.9832C69.3452 21.3748 69.5866 21.9475 69.4257 22.2592C68.2266 24.7314 66.9364 27.161 65.6086 29.7185C64.7824 29.3003 64.0367 28.9193 63.2937 28.549L10.4955 1.6423C7.00835 -0.131942 3.87796 0.877752 2.08878 4.333C1.7803 4.92442 1.46647 5.51048 1.16335 6.10722C-0.523888 9.4346 0.457878 12.5728 3.7975 14.2938C10.9721 17.9915 18.1556 21.6714 25.3481 25.3335C27.0952 26.2215 28.8406 27.1167 30.5842 28.0189C31.523 28.5011 32.4619 28.6289 32.9796 27.5314C33.4678 26.4844 32.8589 25.813 31.8932 25.3202C23.0752 20.8162 14.2661 16.2989 5.46596 11.7683C3.24223 10.6281 2.9257 9.48788 3.96648 7.23944C5.83076 3.22208 6.84473 3.08619 10.7235 5.08155C28.1593 14.062 45.6675 22.9306 63.1461 31.8604C63.4573 32.0203 63.7604 32.2014 64.1896 32.4411C62.9369 34.8734 61.7057 37.2657 60.4047 39.7886L50.7158 34.8708C49.4443 34.2234 48.1809 33.5627 46.9148 32.9074C45.9813 32.4252 45.0586 32.2866 44.5006 33.3816C43.9427 34.4765 44.5784 35.1212 45.528 35.6034C49.7859 37.7612 54.0375 39.9271 58.2829 42.101C58.4948 42.2182 58.6826 42.3407 59.0072 42.5379ZM58.4707 50.157L72.2208 23.5486L92.8754 34.0849C88.2456 43.0334 83.7042 51.814 79.12 60.6826L58.4707 50.157ZM74.6645 75.5905L74.6269 75.404C74.4016 75.404 74.1763 75.4227 73.9563 75.404C64.2996 74.469 56.1531 70.4409 49.7769 63.1815C48.4357 61.6416 47.6444 59.529 46.9014 57.5683C46.3917 56.215 46.9765 54.8564 48.1299 53.868C50.0908 52.187 54.7394 51.6249 57.0329 52.8024C63.629 56.1671 70.1768 59.6143 76.8319 62.8644C79.7235 64.279 81.1237 66.6367 81.9285 69.4739C82.6259 71.9195 81.6415 73.803 79.2085 74.6421C77.76 75.1323 76.18 75.2815 74.6591 75.5905H74.6645ZM97.1968 32.2947C96.1239 31.9563 94.9034 31.7299 93.8304 31.1917C87.3738 27.9549 80.995 24.569 74.5169 21.4041C71.5663 19.9682 70.1875 17.5439 69.364 14.6694C68.7283 12.4503 69.6939 10.5295 71.8882 9.73294C73.2884 9.22677 74.8388 8.81653 76.3142 8.89113C86.8749 9.42393 95.5284 13.8489 102.256 21.9156C103.195 23.0425 103.841 24.5024 104.303 25.9117C105.129 28.4345 104.115 30.4059 101.588 31.3063C100.26 31.7805 98.8197 31.943 97.2022 32.2947H97.1968Z" fill="white"/>
<path d="M63.4038 104.924H97.7388C99.807 104.924 100.153 104.588 100.153 102.526C100.153 99.6385 100.169 96.7534 100.153 93.8682C100.113 88.1858 95.6573 83.7023 89.9383 83.6943C72.1914 83.6677 54.4445 83.6677 36.6976 83.6943C34.1168 83.6885 31.6323 84.6671 29.7569 86.428C27.8816 88.1888 26.7586 90.5976 26.6197 93.1569C26.4507 96.4763 26.5419 99.817 26.5687 103.142C26.5687 104.511 27.1455 104.911 28.8086 104.911L63.4038 104.924ZM29.5436 101.82C29.5436 99.3508 29.5436 97.0064 29.5436 94.6621C29.5436 89.6377 32.564 86.646 37.6418 86.6434C46.4473 86.6434 55.2537 86.6434 64.061 86.6434C72.5535 86.6434 81.0461 86.6434 89.544 86.6434C93.2216 86.6434 96.4405 88.8519 96.8697 92.2378C97.2667 95.3601 96.9529 98.5729 96.9529 101.828L29.5436 101.82Z" fill="white"/>
</svg>
