<svg width="387" height="74" viewBox="0 0 387 74" fill="none" xmlns="http://www.w3.org/2000/svg">
<path d="M40.8857 73.7007L38.5859 64.8647H39.9577L41.612 71.3605L43.2662 64.8647H44.4766L46.1308 71.3605L47.785 64.8647H49.1568L46.8974 73.7007H45.3642L43.831 67.8503L42.3786 73.7007H40.8857Z" fill="white"/>
<path d="M57.2275 64.8647H58.5589V73.7007H57.2275V69.6256H53.1928V73.7007H51.8613V64.8647H53.1928V68.2942H57.2275V64.8647Z" fill="white"/>
<path d="M61.543 73.7007V64.8647H67.0705V66.1961H62.8744V68.3345H66.2636V69.666H62.8744V72.4499H67.0705V73.7814H61.543V73.7007Z" fill="white"/>
<path d="M69.9766 73.7007V64.8647H73.2447C73.7288 64.8647 74.1727 64.9857 74.5358 65.2278C74.9393 65.4699 75.2217 65.7926 75.4638 66.1961C75.7058 66.5996 75.8269 67.0434 75.8269 67.5276C75.8269 67.931 75.7462 68.3345 75.5848 68.6573C75.4234 68.9801 75.2217 69.3028 74.9393 69.5449C74.6568 69.787 74.334 69.9484 73.9709 70.0694L76.1093 73.741H74.5761L72.4781 70.1905H71.2677V73.741H69.9766V73.7007ZM71.2677 68.8187H73.0833C73.3254 68.8187 73.5674 68.738 73.7692 68.6169C73.9709 68.4959 74.1323 68.3345 74.2533 68.0924C74.3744 67.8907 74.4551 67.6486 74.4551 67.3662C74.4551 67.0838 74.3744 66.882 74.2533 66.6399C74.1323 66.4382 73.9709 66.2768 73.7692 66.1154C73.5674 65.9944 73.3254 65.9137 73.0833 65.9137H71.2677V68.8187Z" fill="white"/>
<path d="M78.8125 73.7007V64.8647H84.34V66.1961H80.144V68.3345H83.5331V69.666H80.144V72.4499H84.34V73.7814H78.8125V73.7007Z" fill="white"/>
<path d="M95.6354 73.8619C95.0302 73.8619 94.4654 73.7409 93.9409 73.4988C93.4163 73.2567 92.9322 72.9339 92.5287 72.4901C92.1252 72.0867 91.8025 71.6025 91.5604 71.0376C91.3183 70.4728 91.1973 69.9079 91.1973 69.2624C91.1973 68.6168 91.3183 68.052 91.5604 67.4871C91.8025 66.9222 92.1252 66.4381 92.5287 66.0346C92.9322 65.6311 93.4163 65.268 93.9409 65.0663C94.4654 64.8242 95.0302 64.7032 95.6354 64.7032C96.2406 64.7032 96.8055 64.8242 97.33 65.0663C97.8545 65.3084 98.3387 65.6311 98.7422 66.0346C99.1456 66.4381 99.4684 66.9626 99.6701 67.4871C99.9122 68.052 100.033 68.6168 100.033 69.2624C100.033 69.9079 99.9122 70.4728 99.6701 71.0376C99.4281 71.6025 99.1456 72.0867 98.7422 72.4901C98.3387 72.8936 97.8545 73.2567 97.33 73.4988C96.8055 73.7409 96.2406 73.8619 95.6354 73.8619ZM95.6354 72.5305C96.0793 72.5305 96.4424 72.4498 96.8458 72.2884C97.209 72.127 97.5317 71.8849 97.8142 71.5621C98.0966 71.2394 98.3387 70.9166 98.4597 70.5131C98.6211 70.1097 98.7018 69.7062 98.7018 69.2624C98.7018 68.8186 98.6211 68.4151 98.4597 68.0116C98.2983 67.6081 98.0966 67.2854 97.8142 66.9626C97.5317 66.6398 97.209 66.4381 96.8458 66.2363C96.4827 66.075 96.0793 65.9943 95.6354 65.9943C95.1916 65.9943 94.8285 66.075 94.425 66.2363C94.0619 66.3977 93.7391 66.6398 93.4567 66.9626C93.1743 67.245 92.9725 67.6081 92.8111 68.0116C92.6498 68.4151 92.5691 68.8186 92.5691 69.2624C92.5691 69.7062 92.6498 70.15 92.8111 70.5131C92.9725 70.9166 93.1743 71.2394 93.4567 71.5621C93.7391 71.8446 94.0619 72.0867 94.425 72.2884C94.7881 72.4498 95.1916 72.5305 95.6354 72.5305Z" fill="white"/>
<path d="M106.166 73.862C105.44 73.862 104.835 73.7007 104.31 73.3375C103.786 72.9744 103.382 72.5306 103.1 71.9657C102.818 71.4009 102.656 70.715 102.656 70.0291V64.8647H103.988V70.0291C103.988 70.4729 104.068 70.9167 104.23 71.3202C104.391 71.6833 104.674 72.0061 104.996 72.2482C105.319 72.4902 105.723 72.5709 106.207 72.5709C106.691 72.5709 107.094 72.4499 107.417 72.2482C107.74 72.0061 107.982 71.7237 108.143 71.3202C108.305 70.9167 108.386 70.5132 108.386 70.0291V64.8647H109.717V70.0291C109.717 70.5536 109.636 71.0781 109.475 71.5219C109.314 71.9657 109.071 72.4096 108.749 72.7323C108.426 73.0955 108.063 73.3779 107.619 73.5393C107.175 73.741 106.691 73.862 106.166 73.862Z" fill="white"/>
<path d="M119.322 64.8647V66.1961H116.498V73.7007H115.166V66.1961H112.342V64.8647H119.322Z" fill="white"/>
<path d="M124.969 73.8619C124.484 73.8619 124 73.7812 123.556 73.6198C123.113 73.4585 122.709 73.2567 122.386 72.9743C122.064 72.6919 121.822 72.3691 121.66 71.9656L122.911 71.5218C122.992 71.7235 123.113 71.9253 123.314 72.0463C123.516 72.2077 123.758 72.3287 124.041 72.4094C124.323 72.4901 124.646 72.5305 124.969 72.5305C125.291 72.5305 125.614 72.4901 125.937 72.3691C126.219 72.248 126.461 72.127 126.663 71.9253C126.865 71.7235 126.946 71.5218 126.946 71.2394C126.946 70.9569 126.865 70.7552 126.663 70.5938C126.461 70.4324 126.219 70.271 125.937 70.1904C125.655 70.1097 125.332 70.029 125.009 69.9483C124.404 69.8676 123.839 69.7062 123.314 69.5045C122.83 69.3027 122.427 69.0203 122.144 68.6975C121.862 68.3344 121.701 67.8906 121.701 67.3257C121.701 66.8012 121.862 66.3574 122.144 65.9539C122.467 65.5504 122.871 65.268 123.355 65.0259C123.839 64.8242 124.404 64.7032 124.969 64.7032C125.453 64.7032 125.897 64.7839 126.34 64.9452C126.784 65.1066 127.188 65.3084 127.51 65.5908C127.874 65.8732 128.116 66.196 128.237 66.6398L126.986 67.0836C126.905 66.8819 126.784 66.6802 126.582 66.5591C126.381 66.3977 126.139 66.2767 125.856 66.196C125.574 66.1153 125.251 66.075 124.969 66.075C124.646 66.075 124.323 66.1153 124 66.2363C123.718 66.3574 123.476 66.4784 123.274 66.6802C123.072 66.8819 122.992 67.0836 122.992 67.3661C122.992 67.6888 123.072 67.9309 123.234 68.0923C123.395 68.2537 123.637 68.3747 123.92 68.4554C124.202 68.5361 124.565 68.6168 124.928 68.6572C125.533 68.7379 126.058 68.8992 126.542 69.101C127.026 69.3027 127.43 69.5851 127.753 69.9483C128.075 70.3114 128.196 70.7552 128.196 71.2394C128.196 71.7639 128.035 72.2077 127.753 72.6112C127.47 73.0146 127.067 73.2971 126.542 73.5392C126.058 73.7409 125.533 73.8619 124.969 73.8619Z" fill="white"/>
<path d="M135.014 73.8619C134.409 73.8619 133.844 73.7409 133.32 73.4988C132.795 73.2567 132.311 72.9339 131.908 72.4901C131.504 72.0867 131.181 71.6025 130.939 71.0376C130.697 70.4728 130.576 69.9079 130.576 69.2624C130.576 68.6168 130.697 68.052 130.939 67.4871C131.181 66.9222 131.504 66.4381 131.908 66.0346C132.311 65.6311 132.795 65.268 133.32 65.0663C133.844 64.8242 134.409 64.7032 135.014 64.7032C135.62 64.7032 136.184 64.8242 136.709 65.0663C137.233 65.3084 137.718 65.6311 138.121 66.0346C138.525 66.4381 138.847 66.9626 139.049 67.4871C139.291 68.052 139.412 68.6168 139.412 69.2624C139.412 69.9079 139.291 70.4728 139.049 71.0376C138.807 71.6025 138.525 72.0867 138.121 72.4901C137.718 72.8936 137.233 73.2567 136.709 73.4988C136.184 73.7409 135.62 73.8619 135.014 73.8619ZM135.014 72.5305C135.458 72.5305 135.821 72.4498 136.225 72.2884C136.588 72.127 136.911 71.8849 137.193 71.5621C137.476 71.2394 137.718 70.9166 137.839 70.5131C138 70.1097 138.081 69.7062 138.081 69.2624C138.081 68.8186 138 68.4151 137.839 68.0116C137.677 67.6081 137.476 67.2854 137.193 66.9626C136.911 66.6398 136.588 66.4381 136.225 66.2363C135.862 66.075 135.458 65.9943 135.014 65.9943C134.571 65.9943 134.207 66.075 133.804 66.2363C133.441 66.3977 133.118 66.6398 132.836 66.9626C132.553 67.245 132.351 67.6081 132.19 68.0116C132.029 68.4151 131.948 68.8186 131.948 69.2624C131.948 69.7062 132.029 70.15 132.19 70.5131C132.351 70.9166 132.553 71.2394 132.836 71.5621C133.118 71.8446 133.441 72.0867 133.804 72.2884C134.207 72.4498 134.611 72.5305 135.014 72.5305Z" fill="white"/>
<path d="M145.547 73.862C144.821 73.862 144.216 73.7007 143.691 73.3375C143.167 72.9744 142.763 72.5306 142.481 71.9657C142.198 71.4009 142.037 70.715 142.037 70.0291V64.8647H143.369V70.0291C143.369 70.4729 143.449 70.9167 143.611 71.3202C143.772 71.6833 144.054 72.0061 144.377 72.2482C144.7 72.4902 145.103 72.5709 145.588 72.5709C146.072 72.5709 146.475 72.4499 146.798 72.2482C147.121 72.0061 147.363 71.7237 147.524 71.3202C147.686 70.9167 147.766 70.5132 147.766 70.0291V64.8647H149.098V70.0291C149.098 70.5536 149.017 71.0781 148.856 71.5219C148.694 71.9657 148.452 72.4096 148.129 72.7323C147.807 73.0955 147.444 73.3779 147 73.5393C146.596 73.741 146.112 73.862 145.547 73.862Z" fill="white"/>
<path d="M152.041 73.7007V64.8647H155.309C155.793 64.8647 156.237 64.9857 156.6 65.2278C157.004 65.4699 157.286 65.7926 157.528 66.1961C157.77 66.5996 157.891 67.0434 157.891 67.5276C157.891 67.931 157.811 68.3345 157.649 68.6573C157.488 68.9801 157.286 69.3028 157.004 69.5449C156.721 69.787 156.399 69.9484 156.035 70.0694L158.174 73.741H156.641L154.543 70.1905H153.332V73.741H152.041V73.7007ZM153.332 68.8187H155.148C155.39 68.8187 155.632 68.738 155.834 68.6169C156.035 68.4959 156.197 68.3345 156.318 68.0924C156.439 67.8907 156.52 67.6486 156.52 67.3662C156.52 67.0838 156.439 66.882 156.318 66.6399C156.197 66.4382 156.035 66.2768 155.834 66.1154C155.632 65.9944 155.39 65.9137 155.148 65.9137H153.332V68.8187Z" fill="white"/>
<path d="M164.549 73.8619C163.944 73.8619 163.379 73.7408 162.854 73.4987C162.33 73.2567 161.846 72.9339 161.442 72.5304C161.039 72.1269 160.716 71.6024 160.514 71.0779C160.272 70.5131 160.191 69.9482 160.191 69.3027C160.191 68.6571 160.312 68.0922 160.514 67.5274C160.756 66.9625 161.039 66.4784 161.442 66.0749C161.846 65.6714 162.33 65.3083 162.854 65.1066C163.379 64.8645 163.944 64.7434 164.549 64.7434C165.275 64.7434 165.921 64.9048 166.526 65.2276C167.131 65.5504 167.656 65.9942 168.019 66.5591L166.849 67.1643C166.566 66.8011 166.243 66.5591 165.84 66.3573C165.437 66.1556 164.993 66.0345 164.549 66.0345C164.105 66.0345 163.742 66.1152 163.338 66.2766C162.975 66.438 162.653 66.6801 162.37 67.0029C162.088 67.2853 161.886 67.6484 161.725 68.0519C161.563 68.4554 161.483 68.8588 161.483 69.3027C161.483 69.7465 161.563 70.1903 161.725 70.5534C161.886 70.9569 162.088 71.2797 162.37 71.6024C162.653 71.8849 162.975 72.1269 163.338 72.3287C163.702 72.4901 164.105 72.5708 164.509 72.5708C164.993 72.5708 165.396 72.4497 165.8 72.248C166.203 72.0462 166.566 71.7638 166.808 71.4007L167.978 72.0462C167.575 72.6111 167.091 73.0549 166.486 73.3777C165.961 73.7005 165.275 73.8619 164.549 73.8619Z" fill="white"/>
<path d="M170.963 73.7007V64.8647H172.294V73.7007H170.963Z" fill="white"/>
<path d="M175.564 73.7007V64.8647H177.017L181.092 71.3202V64.8647H182.423V73.7007H181.011L176.896 67.2451V73.7007H175.564Z" fill="white"/>
<path d="M189.363 73.8619C188.757 73.8619 188.152 73.7409 187.628 73.4988C187.103 73.2567 186.619 72.9339 186.216 72.4901C185.812 72.0463 185.53 71.5621 185.288 71.0376C185.086 70.4728 184.965 69.9079 184.965 69.2624C184.965 68.6168 185.086 68.0116 185.328 67.4468C185.57 66.8819 185.893 66.3977 186.296 65.9943C186.7 65.5908 187.184 65.268 187.708 65.0259C188.233 64.7839 188.798 64.7032 189.363 64.7032C190.008 64.7032 190.654 64.8645 191.259 65.147C191.864 65.4294 192.389 65.9136 192.833 66.5188L191.662 67.1643C191.34 66.8012 191.017 66.5188 190.573 66.317C190.17 66.1153 189.766 66.0346 189.322 66.0346C188.919 66.0346 188.515 66.1153 188.152 66.2767C187.789 66.4381 187.466 66.6802 187.184 66.9626C186.901 67.245 186.659 67.6081 186.498 68.0116C186.337 68.4151 186.256 68.8186 186.256 69.3027C186.256 69.7465 186.337 70.1903 186.498 70.5535C186.659 70.9569 186.861 71.2797 187.144 71.6025C187.426 71.8849 187.749 72.127 188.112 72.2884C188.475 72.4498 188.878 72.5305 189.322 72.5305C189.645 72.5305 189.928 72.4901 190.21 72.3691C190.492 72.2884 190.775 72.127 191.017 71.9253C191.259 71.7235 191.501 71.5218 191.662 71.2394C191.864 70.9973 191.985 70.6745 192.106 70.3517H190.21V69.2624H193.639C193.639 69.9079 193.518 70.4728 193.317 71.0376C193.075 71.6025 192.792 72.0867 192.389 72.4901C191.985 72.8936 191.541 73.2567 190.977 73.4988C190.533 73.7409 189.968 73.8619 189.363 73.8619Z" fill="white"/>
<path d="M200.619 73.7007L202.354 64.8647H203.443L205.743 70.7957L208.003 64.8647H209.092L210.827 73.7007H209.495L208.325 67.7697L206.187 73.3375H205.299L203.161 67.7697L201.991 73.7007H200.619Z" fill="white"/>
<path d="M213.65 73.7007V64.8647H219.178V66.1961H214.982V68.3345H218.371V69.666H214.982V72.4499H219.178V73.7814H213.65V73.7007Z" fill="white"/>
<path d="M222.004 73.7007V64.8647H227.531V66.1961H223.335V68.3345H226.725V69.666H223.335V72.4499H227.531V73.7814H222.004V73.7007Z" fill="white"/>
<path d="M237.011 64.8647V66.1961H234.187V73.7007H232.856V66.1961H230.031V64.8647H237.011Z" fill="white"/>
<path d="M242.66 73.8619C242.176 73.8619 241.692 73.7812 241.248 73.6198C240.804 73.4585 240.401 73.2567 240.078 72.9743C239.755 72.6919 239.513 72.3691 239.352 71.9656L240.602 71.5218C240.683 71.7235 240.804 71.9253 241.006 72.0463C241.208 72.2077 241.45 72.3287 241.732 72.4094C242.014 72.4901 242.337 72.5305 242.66 72.5305C242.983 72.5305 243.306 72.4901 243.628 72.3691C243.911 72.248 244.153 72.127 244.355 71.9253C244.556 71.7235 244.637 71.5218 244.637 71.2394C244.637 70.9569 244.556 70.7552 244.355 70.5938C244.153 70.4324 243.911 70.271 243.628 70.1904C243.346 70.1097 243.023 70.029 242.7 69.9483C242.095 69.8676 241.53 69.7062 241.006 69.5045C240.522 69.3027 240.118 69.0203 239.836 68.6975C239.553 68.3344 239.392 67.8906 239.392 67.3257C239.392 66.8012 239.553 66.3574 239.836 65.9539C240.159 65.5504 240.562 65.268 241.046 65.0259C241.53 64.8242 242.095 64.7032 242.66 64.7032C243.144 64.7032 243.588 64.7839 244.032 64.9452C244.476 65.1066 244.879 65.3084 245.202 65.5908C245.565 65.8732 245.807 66.196 245.928 66.6398L244.677 67.0836C244.597 66.8819 244.476 66.6802 244.274 66.5591C244.072 66.3977 243.83 66.2767 243.548 66.196C243.265 66.1153 242.942 66.075 242.66 66.075C242.337 66.075 242.014 66.1153 241.692 66.2363C241.409 66.3574 241.167 66.4784 240.965 66.6802C240.764 66.8819 240.683 67.0836 240.683 67.3661C240.683 67.6888 240.764 67.9309 240.925 68.0923C241.086 68.2537 241.329 68.3747 241.611 68.4554C241.893 68.5361 242.257 68.6168 242.62 68.6572C243.225 68.7379 243.749 68.8992 244.234 69.101C244.718 69.3027 245.121 69.5851 245.444 69.9483C245.767 70.3114 245.888 70.7552 245.888 71.2394C245.888 71.7639 245.726 72.2077 245.444 72.6112C245.162 73.0146 244.758 73.2971 244.234 73.5392C243.79 73.7409 243.265 73.8619 242.66 73.8619Z" fill="white"/>
<path d="M253.312 73.7007V64.8647H254.644V73.7007H253.312Z" fill="white"/>
<path d="M257.91 73.7007V64.8647H259.363L263.438 71.3202V64.8647H264.769V73.7007H263.357L259.242 67.2451V73.7007H257.91Z" fill="white"/>
<path d="M274.455 64.8647V66.1961H271.63V73.7007H270.299V66.1961H267.475V64.8647H274.455Z" fill="white"/>
<path d="M277.078 73.7007V64.8647H282.606V66.1961H278.41V68.3345H281.799V69.666H278.41V72.4499H282.606V73.7814H277.078V73.7007Z" fill="white"/>
<path d="M285.389 73.7007V64.8647H286.72V72.3692H290.553V73.7007H285.389Z" fill="white"/>
<path d="M293.297 73.7007V64.8647H294.628V72.3692H298.461V73.7007H293.297Z" fill="white"/>
<path d="M301.406 73.7007V64.8647H302.738V73.7007H301.406Z" fill="white"/>
<path d="M309.8 73.8619C309.195 73.8619 308.59 73.7409 308.065 73.4988C307.541 73.2567 307.057 72.9339 306.653 72.4901C306.25 72.0463 305.967 71.5621 305.725 71.0376C305.523 70.4728 305.402 69.9079 305.402 69.2624C305.402 68.6168 305.523 68.0116 305.765 67.4468C306.008 66.8819 306.33 66.3977 306.734 65.9943C307.137 65.5908 307.621 65.268 308.146 65.0259C308.67 64.7839 309.235 64.7032 309.8 64.7032C310.446 64.7032 311.091 64.8645 311.696 65.147C312.302 65.4294 312.826 65.9136 313.27 66.5188L312.1 67.1643C311.777 66.8012 311.454 66.5188 311.011 66.317C310.607 66.1153 310.204 66.0346 309.76 66.0346C309.356 66.0346 308.953 66.1153 308.59 66.2767C308.227 66.4381 307.904 66.6802 307.621 66.9626C307.339 67.245 307.097 67.6081 306.936 68.0116C306.774 68.4151 306.693 68.8186 306.693 69.3027C306.693 69.7465 306.774 70.1903 306.936 70.5535C307.097 70.9569 307.299 71.2797 307.581 71.6025C307.863 71.8849 308.186 72.127 308.549 72.2884C308.913 72.4498 309.316 72.5305 309.76 72.5305C310.083 72.5305 310.365 72.4901 310.647 72.3691C310.93 72.2884 311.212 72.127 311.454 71.9253C311.696 71.7235 311.939 71.5218 312.1 71.2394C312.302 70.9973 312.423 70.6745 312.544 70.3517H310.647V69.2624H314.077C314.077 69.9079 313.956 70.4728 313.754 71.0376C313.512 71.6025 313.23 72.0867 312.826 72.4901C312.423 72.8936 311.979 73.2567 311.414 73.4988C310.97 73.7409 310.405 73.8619 309.8 73.8619Z" fill="white"/>
<path d="M316.818 73.7007V64.8647H322.386V66.1961H318.19V68.3345H321.579V69.666H318.19V72.4499H322.386V73.7814H316.818V73.7007Z" fill="white"/>
<path d="M325.25 73.7007V64.8647H326.703L330.778 71.3202V64.8647H332.109V73.7007H330.697L326.581 67.2451V73.7007H325.25Z" fill="white"/>
<path d="M339.051 73.8619C338.446 73.8619 337.881 73.7408 337.356 73.4987C336.832 73.2567 336.348 72.9339 335.944 72.5304C335.541 72.1269 335.218 71.6024 335.016 71.0779C334.774 70.5131 334.693 69.9482 334.693 69.3027C334.693 68.6571 334.814 68.0922 335.016 67.5274C335.258 66.9625 335.541 66.4784 335.944 66.0749C336.348 65.6714 336.832 65.3083 337.356 65.1066C337.881 64.8645 338.446 64.7434 339.051 64.7434C339.777 64.7434 340.423 64.9048 341.028 65.2276C341.633 65.5504 342.158 65.9942 342.521 66.5591L341.351 67.1643C341.068 66.8011 340.745 66.5591 340.342 66.3573C339.938 66.1556 339.495 66.0345 339.051 66.0345C338.607 66.0345 338.244 66.1152 337.84 66.2766C337.477 66.438 337.155 66.6801 336.872 67.0029C336.59 67.2853 336.388 67.6484 336.227 68.0519C336.065 68.4554 335.984 68.8588 335.984 69.3027C335.984 69.7465 336.065 70.1903 336.227 70.5534C336.388 70.9569 336.59 71.2797 336.872 71.6024C337.155 71.8849 337.477 72.1269 337.84 72.3287C338.204 72.4901 338.607 72.5708 339.01 72.5708C339.495 72.5708 339.898 72.4497 340.302 72.248C340.705 72.0462 341.068 71.7638 341.31 71.4007L342.48 72.0462C342.077 72.6111 341.593 73.0549 340.987 73.3777C340.423 73.7005 339.777 73.8619 339.051 73.8619Z" fill="white"/>
<path d="M345.264 73.7007V64.8647H350.791V66.1961H346.595V68.3345H349.984V69.666H346.595V72.4499H350.791V73.7814H345.264V73.7007Z" fill="white"/>
<path d="M225.401 30.6988V27.4518L226.712 27.3326V17.2341C225.699 17.8 224.806 18.2171 223.972 18.7831C223.257 19.2597 222.691 19.1406 221.976 18.7831C218.163 16.7574 214.022 15.3573 209.762 14.6424C205.502 13.9274 201.451 14.8509 197.459 16.251C195.314 16.9957 193.289 18.0384 191.174 18.932C190.876 19.0512 190.399 19.1704 190.161 19.0214C187.42 17.5617 184.709 16.0425 181.85 14.4339C183.101 13.7487 184.173 13.1231 185.275 12.5273C192.246 8.65475 199.217 4.78214 206.217 0.939329C206.575 0.760593 207.23 0.820171 207.588 1.0287C213.188 4.09699 218.758 7.22486 224.359 10.3229C224.716 10.5315 225.074 10.7102 225.491 10.9485C226.116 10.174 226.861 9.57821 227.874 10.2038C228.797 10.7698 228.678 11.6337 228.321 12.5273L231.776 14.4637C230.555 15.1488 229.423 15.7744 228.321 16.4297C228.023 16.6085 227.695 17.0255 227.695 17.3234C227.665 20.5704 227.665 23.8175 227.695 27.0645C227.725 27.1837 227.755 27.273 227.785 27.3922L228.887 27.4816V30.7286C228.261 29.8051 227.755 29.0902 227.159 28.2263C226.563 29.0008 226.057 29.7455 225.401 30.6988ZM228.529 13.6891C228.47 13.004 228.023 12.5273 227.248 12.4678C226.533 12.4082 225.789 13.0933 225.848 13.8083C225.908 14.5828 226.325 15.0892 227.159 15.1488C227.904 15.1786 228.529 14.553 228.529 13.6891ZM227.844 12.2295C228.261 11.4847 228.321 10.8889 227.606 10.4719C226.891 10.0548 226.355 10.3229 225.997 11.157L227.844 12.2295Z" fill="white"/>
<path d="M206.874 16.4298C210.389 16.549 213.874 16.8171 217.24 17.8299C217.747 17.9789 218.223 18.1576 218.7 18.3661C219.981 18.9023 220.845 19.7662 220.577 21.3153C220.577 21.3451 220.577 21.3749 220.577 21.4046C220.428 23.7282 220.904 25.7539 222.126 27.9285C227.13 36.8057 222.513 48.066 212.712 51.3726C204.014 54.3218 194.868 50.479 191.294 42.2869C189 37.0738 189.447 31.95 192.396 27.0944C192.843 26.4092 193.081 25.6049 193.051 24.7708C192.992 23.4899 193.111 22.209 193.022 20.928C192.932 19.7662 193.468 18.9917 194.422 18.6342C196.298 17.9789 198.205 17.3533 200.171 17.0256C202.375 16.6682 204.639 16.6086 206.874 16.4298ZM192.068 37.4015C191.77 43.6274 198.979 50.2406 206.248 50.5981C215.542 51.0747 221.202 43.7764 221.768 38.5633C221.5 39.0101 221.292 39.3676 221.083 39.6952C219.832 41.6613 217.836 42.4656 215.632 41.8401C214.738 41.572 213.874 41.2145 213.07 40.7379C211.342 39.7548 210.27 38.2058 209.346 36.5078C208.959 35.7631 208.691 34.9885 208.244 34.2736C207.976 33.8268 207.499 33.2608 207.082 33.2608C206.695 33.2608 206.218 33.8268 205.92 34.2438C205.622 34.6609 205.444 35.2269 205.205 35.7333C204.103 37.9973 202.673 39.9038 200.379 41.0953C196.894 42.9125 193.975 41.8699 192.456 38.2654L192.068 37.4015ZM199.099 30.1031C197.847 30.2223 196.775 30.2521 195.732 30.4606C193.796 30.8776 192.604 32.2479 192.485 34.1247C192.336 35.9418 192.724 37.7292 193.617 39.308C194.481 40.857 196.09 41.6613 197.818 41.3337C201.482 40.6783 203.656 38.2952 204.967 34.9885C205.801 32.8139 204.997 31.2351 202.733 30.6393C201.511 30.3414 200.201 30.2818 199.099 30.1031ZM221.887 34.9588C221.768 32.8139 220.994 31.2947 219.206 30.7287C216.436 29.835 213.427 29.9244 210.687 30.967C209.227 31.533 208.631 32.7841 209.048 34.2438C210.001 37.61 212.027 40.0527 215.423 41.1549C217.925 41.9592 220.07 40.9166 220.994 38.4143C221.411 37.3419 221.589 36.1205 221.887 34.9588ZM192.366 32.0692C193.647 30.0137 195.643 29.6563 197.788 29.6563C203.567 29.6563 209.346 29.6563 215.095 29.5967C217.3 29.5669 219.504 29.4775 221.44 31.0564C220.726 29.5073 219.862 27.9881 218.938 26.5582C218.789 26.3199 218.283 26.1709 217.955 26.1709C210.627 26.1411 203.299 26.1113 195.971 26.1113C195.673 26.1113 195.286 26.1709 195.137 26.3497C193.766 28.0477 192.753 29.8946 192.366 32.0692Z" fill="white"/>
<path d="M251.885 21.7024V34.8991H269.252V37.9674H251.885V52.2066H248.34V18.6341H271.367V21.7024H251.885Z" fill="white"/>
<path d="M293.886 21.8216V34.8991H311.104V37.9376H293.886V52.0577H290.371V18.7831H313.19V21.8216H293.886Z" fill="white"/>
<path d="M332.137 18.5153H335.711V52.2665H332.137V18.5153Z" fill="white"/>
<path d="M386.502 18.5747V52.2366H383.553L361.896 24.9198V52.2366H358.381V18.5747H361.33L383.017 45.8915V18.5747H386.502Z" fill="white"/>
<path d="M12.2893 21.2858H0.224609V18.1579H27.9584V21.2858H15.9235V52.4751H12.2893V21.2858Z" fill="white"/>
<path d="M59.1763 52.8324C55.7506 52.8324 52.6525 52.0876 49.8821 50.5684C47.1117 49.0193 44.9668 46.9341 43.388 44.2531C41.839 41.6018 41.0645 38.5931 41.0645 35.2865C41.0645 31.9799 41.839 28.9712 43.388 26.3199C44.9668 23.6687 47.1415 21.5834 49.8821 20.0642C52.6823 18.5151 55.7803 17.7406 59.1763 17.7406C62.6021 17.7406 65.6704 18.4853 68.3812 20.0046C71.1516 21.5239 73.2964 23.6091 74.8753 26.3199C76.4541 28.9712 77.2286 31.9799 77.2286 35.2865C77.2286 38.5931 76.4541 41.6018 74.8753 44.2828C73.2964 46.9341 71.1218 49.0193 68.3812 50.5386C65.6406 52.0876 62.5723 52.8324 59.1763 52.8324ZM59.1763 49.5853C61.8871 49.5853 64.3596 48.9895 66.5641 47.7682C68.7685 46.517 70.4962 44.819 71.7474 42.6444C72.9985 40.44 73.6241 37.9973 73.6241 35.3163C73.6241 32.6352 72.9985 30.1925 71.7474 28.0179C70.4962 25.8135 68.7685 24.1155 66.5641 22.8942C64.3596 21.643 61.9169 21.0174 59.1763 21.0174C56.4655 21.0174 53.9632 21.643 51.729 22.8942C49.5246 24.1155 47.7968 25.8135 46.5159 28.0179C45.2647 30.1925 44.6392 32.6055 44.6392 35.3163C44.6392 37.9973 45.2647 40.44 46.5159 42.6444C47.7968 44.819 49.5246 46.517 51.729 47.7682C53.9632 48.9895 56.4357 49.5853 59.1763 49.5853Z" fill="white"/>
<path d="M109.075 18.0381C113.484 18.0381 116.939 19.0808 119.442 21.1958C121.944 23.3108 123.195 26.2004 123.195 29.8645C123.195 33.5286 121.944 36.4479 119.442 38.5332C116.939 40.6184 113.484 41.6312 109.075 41.6312H99.8106V52.5639H96.1465V18.0381H109.075ZM108.986 38.4736C112.411 38.4736 115.033 37.7288 116.82 36.2394C118.637 34.7201 119.531 32.6051 119.531 29.8645C119.531 27.0643 118.637 24.9195 116.82 23.4598C115.003 21.9405 112.411 21.1958 108.986 21.1958H99.8106V38.4438H108.986V38.4736Z" fill="white"/>
<path d="M163.231 34.7803C165.495 35.2569 167.222 36.24 168.414 37.7294C169.665 39.1593 170.291 41.036 170.291 43.3298C170.291 46.279 169.188 48.5429 167.014 50.1516C164.869 51.7304 161.652 52.5049 157.392 52.5049H141.604V18.1579H156.409C160.222 18.1579 163.201 18.9324 165.286 20.4517C167.401 22.0007 168.473 24.1753 168.473 26.9755C168.473 28.882 167.997 30.4906 167.044 31.8312C166.15 33.1419 164.869 34.1249 163.231 34.7803ZM145.238 21.1368V33.5887H156.17C158.941 33.5887 161.086 33.0525 162.605 32.0099C164.094 30.9375 164.869 29.3884 164.869 27.3628C164.869 25.3371 164.124 23.7881 162.605 22.7454C161.115 21.673 158.971 21.1368 156.17 21.1368H145.238ZM157.362 49.4664C160.43 49.4664 162.754 48.9302 164.333 47.8876C165.912 46.8449 166.686 45.2065 166.686 42.9723C166.686 38.6827 163.588 36.5379 157.362 36.5379H145.268V49.4366H157.362V49.4664Z" fill="white"/>
</svg>
