<svg width="158" height="158" viewBox="0 0 158 158" fill="none" xmlns="http://www.w3.org/2000/svg">
<path d="M93.9746 71.0809L94.0319 70.6714C94.3902 68.4705 93.8272 67.0701 91.5628 65.9092C86.5467 63.3397 82.8409 59.2572 80.4721 54.1264C79.4934 52.0115 78.9017 49.7041 78.2916 47.4417C78.0582 46.5839 77.8023 46.1478 76.8912 45.9328C71.1216 44.5672 68.0505 38.8631 70.1696 33.3331C71.3632 30.219 73.775 28.3416 76.9976 27.5635C77.7203 27.3875 77.9701 27.0763 78.093 26.3699C79.4893 18.3011 83.58 11.8907 90.3159 7.28616C94.1867 4.60057 98.734 3.0562 103.44 2.82899C109.67 2.54645 115.919 2.62425 122.159 2.5874C123.592 2.5874 125.036 2.55874 126.442 2.75529C130.072 3.26714 132.664 6.30341 132.681 9.98872C132.707 15.4143 132.707 20.8399 132.681 26.2655C132.681 27.0538 132.885 27.369 133.676 27.5656C139.646 29.0438 142.756 35.0161 140.381 40.5072C139.109 43.4472 136.816 45.2899 133.669 45.9676C132.891 46.1355 132.57 46.4241 132.423 47.2554C131.053 54.9393 126.872 60.8173 120.429 65.0268C118.705 66.1549 118.275 67.4263 118.429 69.2014C118.595 71.1075 118.613 71.0645 120.517 71.3266C131.041 72.7761 138.69 78.2263 143.352 87.8061C143.427 87.9596 143.493 88.1173 143.556 88.2749C144.375 90.267 144.375 90.2589 146.593 90.2691C148.026 90.2691 149.459 90.3305 150.892 90.3223C154.385 90.3018 157.595 93.4815 157.444 97.6295C157.374 99.4721 157.423 101.315 157.423 103.157C157.423 118.82 157.352 134.483 157.47 150.147C157.503 154.332 154.367 157.723 149.924 157.702C133.34 157.594 116.756 157.659 100.172 157.661H63.8349C60.2254 157.661 57.8238 155.98 56.7325 152.631C56.562 152.078 56.4764 151.503 56.4786 150.925C56.452 147.956 56.4582 144.988 56.4643 142.019C56.4643 140.895 56.9209 140.289 57.7296 140.271C58.5895 140.252 59.0747 140.87 59.0809 142.06C59.0952 144.791 59.2058 147.527 59.0604 150.25C58.915 152.973 61.0279 155.118 63.882 155.104C78.0438 155.034 92.2057 155.071 106.367 155.071C120.904 155.071 135.44 155.032 149.977 155.108C152.692 155.122 154.874 153.147 154.858 150.194C154.772 134.292 154.819 118.39 154.821 102.49C154.821 100.717 154.835 98.9439 154.809 97.1668C154.774 94.8246 153.171 93.1068 150.847 92.8672C150.438 92.8263 150.028 92.8365 149.619 92.8365H87.683C87.3411 92.8579 86.9979 92.8428 86.6593 92.7915C86.3502 92.7457 86.0701 92.5839 85.8762 92.339C85.6822 92.094 85.5888 91.7843 85.6151 91.473C85.6294 90.7338 86.0819 90.3592 86.7801 90.2978C87.3226 90.2486 87.8713 90.2568 88.418 90.2568H141.398C141.32 89.9034 141.218 89.5553 141.095 89.2147C138.534 83.3878 134.351 79.1333 128.643 76.3386C125.822 74.9566 122.837 74.2093 119.737 73.8224C118.918 73.72 118.509 73.8367 118.273 74.8113C117.589 77.6776 115.491 79.4158 112.95 80.4866C107.76 82.663 102.633 82.5156 97.7991 79.4077C95.979 78.2366 94.6154 76.6171 94.2264 74.3977C94.0954 73.6504 93.645 73.7671 93.1843 73.8101C90.3969 74.077 87.6627 74.7452 85.0664 75.794C84.6037 75.9783 83.8523 75.8452 83.4285 75.5668C83.15 75.3866 83.0456 74.6127 83.1848 74.2196C83.3241 73.8265 83.8359 73.5542 84.2495 73.3781C87.2062 72.1208 90.3532 71.3692 93.559 71.1546C93.6988 71.138 93.8376 71.1134 93.9746 71.0809ZM132.693 30.2129C132.693 31.0318 132.693 31.8221 132.693 32.6022C132.67 36.3387 129.827 39.3299 126.278 39.3361C122.593 39.3361 119.727 36.4574 119.717 32.6657C119.7 29.527 119.717 26.3883 119.706 23.2476C119.706 22.8873 119.676 22.527 119.651 21.9558C110.54 26.9084 101.02 27.9874 90.9875 26.0505C90.9875 26.5419 90.9875 26.9104 90.9875 27.279C90.9875 29.1503 91.0182 31.0236 90.9608 32.8929C90.8667 35.9087 88.7087 38.5417 85.8649 39.1846C81.9236 40.0752 78.1114 37.0901 77.9763 32.9912C77.9456 32.0555 77.9763 31.1199 77.9763 30.0921C77.6392 30.1307 77.3043 30.1867 76.973 30.26C73.0339 31.3983 70.9742 36.0991 72.8332 39.7599C74.0617 42.1922 76.1234 43.4452 78.8034 43.6172C79.9418 43.6888 80.5089 44.1352 80.5621 45.2551C80.5744 45.5253 80.6461 45.7936 80.6809 46.0638C81.1703 49.8048 82.5917 53.3629 84.8146 56.4113C89.2677 62.5535 95.2911 66.1406 102.889 66.9165C109.424 67.5819 115.378 65.9194 120.556 61.9311C125.967 57.7647 129.264 52.2674 130.111 45.4025C130.295 43.9099 130.467 43.7646 131.954 43.6438C136.227 43.3019 139.146 39.6452 138.454 35.5259C137.955 32.6882 135.002 30.133 132.693 30.217V30.2129ZM130.099 21.3497C130.099 17.6303 130.099 13.9102 130.099 10.1894C130.099 7.64037 128.414 5.6851 125.904 5.2961C125.668 5.25222 125.43 5.22553 125.191 5.21625C118.097 5.26129 110.995 5.13435 103.909 5.42099C98.9469 5.59233 94.1743 7.36661 90.3057 10.4781C83.1521 16.223 79.8783 23.7615 80.5355 32.9482C80.7239 35.6098 83.3036 37.346 85.7154 36.4963C87.1936 35.9742 88.3136 34.4285 88.3463 32.6923C88.3955 29.9979 88.3607 27.3035 88.3873 24.6092C88.4016 23.2804 89.0158 22.83 90.2934 23.1064C91.657 23.4012 93.0164 23.7452 94.3882 23.9253C103.01 25.1169 111.165 23.7493 118.773 19.4211C119.448 19.0362 119.743 18.6021 119.723 17.8016C119.684 16.2865 120.038 15.7808 120.97 15.7706C121.901 15.7603 122.263 16.3111 122.266 17.775C122.266 22.7235 122.266 27.6721 122.266 32.6206C122.266 34.5145 123.514 36.1483 125.228 36.57C127.775 37.1965 130.048 35.3723 130.074 32.6063C130.125 28.8616 130.099 25.1067 130.099 21.3538V21.3497ZM96.5809 68.2576C96.6833 70.4278 96.6035 72.3831 96.9392 74.2626C97.1051 75.1982 97.8503 76.2506 98.6447 76.8177C102.969 79.9175 107.627 80.112 112.362 77.866C114.189 76.9999 115.714 75.6773 115.843 73.4272C115.949 71.6951 115.941 69.9467 115.966 68.2166C115.966 68.0405 115.843 67.8624 115.751 67.6167C112.768 68.8447 109.589 69.5311 106.365 69.6436C103.048 69.7625 99.7351 69.2933 96.5809 68.2576Z" fill="white"/>
<path d="M72.9402 74.3425C73.9148 74.3425 74.8341 74.3425 75.7533 74.3425C79.4632 74.3814 82.1658 77.0369 82.1719 80.7468C82.1842 87.022 82.1207 93.2973 82.1228 99.5828C82.1228 109.956 82.1405 120.33 82.176 130.703C82.176 134.798 79.584 137.443 75.4913 137.445C67.6436 137.445 59.7939 137.466 51.9462 137.445C46.666 137.431 41.3858 137.316 36.1055 137.322C26.4214 137.322 16.7392 137.408 7.05507 137.439C2.89681 137.451 0.384673 134.917 0.38672 130.732C0.39491 120.29 0.407192 109.848 0.423572 99.4067C0.423572 93.3342 0.394899 87.2616 0.388757 81.1849C0.388757 76.8854 2.98895 74.3036 7.26186 74.3241C10.4005 74.3384 13.5412 74.2954 16.6799 74.3507C17.5377 74.3671 17.8448 74.1091 18.0025 73.2636C18.7334 69.3489 22.3696 67.0907 26.1122 68.2904C28.4319 69.0336 29.8262 70.776 30.293 73.1509C30.4732 74.0702 30.8008 74.3651 31.7446 74.3589C39.6271 74.318 47.5095 74.3282 55.392 74.3241C56.6532 74.3241 57.9144 74.3036 59.1735 74.3241C59.8471 74.3425 60.1542 74.1951 60.2832 73.411C60.9916 69.1524 65.3116 66.7426 69.0604 68.4972C70.9174 69.3694 72.0865 70.8906 72.6372 72.8684C72.7519 73.2963 72.8153 73.7427 72.9402 74.3425ZM41.351 88.6989H4.31362C2.97462 88.6989 2.97053 88.6989 2.97053 90.0563C2.97053 94.7612 2.97053 99.4654 2.97053 104.169C2.97053 113.041 2.97053 121.913 2.97053 130.785C2.97053 133.447 4.37299 134.839 6.9998 134.847C17.6463 134.873 28.2872 134.897 38.9228 134.919C43.6318 134.919 48.3408 134.859 53.0375 134.851C60.5105 134.839 67.9821 134.839 75.4524 134.851C78.114 134.851 79.5738 133.404 79.5758 130.742C79.5758 117.093 79.5758 103.449 79.5758 89.8106C79.5758 88.9753 79.3465 88.6804 78.4805 88.6948C75.5486 88.7419 72.6167 88.7173 69.6767 88.7173L41.351 88.6989ZM17.7589 76.9857C13.8483 76.9857 10.0647 76.9243 6.29345 77.0103C4.38323 77.0553 3.0647 78.5643 2.99918 80.5318C2.95005 82.0325 3.03399 83.5374 2.96438 85.0361C2.92343 85.9287 3.28583 86.1335 4.0966 86.1212C6.75821 86.0843 9.41982 86.1069 12.0814 86.1069H67.0355C70.8539 86.1069 74.6744 86.0802 78.5009 86.1069C79.3424 86.1069 79.6536 85.855 79.6188 84.9992C79.5635 83.6725 79.6188 82.3376 79.6045 81.0088C79.582 78.466 78.0689 76.9591 75.5097 76.9509C71.722 76.9509 67.9343 76.9509 64.1508 76.9509H62.8629V80.7959H63.6471C64.6012 80.7959 65.5594 80.7488 66.5135 80.7959C67.2874 80.843 67.8094 81.2914 67.7767 82.1144C67.746 82.8925 67.3181 83.39 66.4807 83.392C63.1741 83.392 59.8656 83.4104 56.559 83.3777C56.1925 83.3777 55.6827 83.2057 55.5005 82.9375C55.2712 82.5997 55.091 81.9384 55.2815 81.6701C55.6007 81.2238 56.0821 80.9202 56.6225 80.8246C57.7567 80.7017 58.9094 80.7857 60.1747 80.7857C60.1747 80.0978 60.1747 79.5572 60.1747 79.0208C60.1747 76.9325 60.1747 76.9325 58.0946 76.9325H21.4585H20.4348C20.4348 78.0115 20.4655 78.9655 20.4246 79.9135C20.3959 80.6014 20.6866 80.8021 21.3336 80.7795C22.2877 80.7447 23.2459 80.7427 24.2 80.8021C24.9759 80.8491 25.5328 81.3344 25.496 82.1103C25.4995 82.2838 25.4669 82.4561 25.4002 82.6163C25.3335 82.7765 25.2343 82.9211 25.1087 83.0408C24.9832 83.1606 24.8341 83.2529 24.671 83.312C24.5078 83.371 24.3342 83.3955 24.1611 83.3838C20.8177 83.3838 17.4763 83.3634 14.1288 83.3265C13.8176 83.3265 13.3713 83.2139 13.2321 82.9989C13.0028 82.6406 12.7509 82.0284 12.9106 81.752C13.1522 81.3282 13.7091 80.8819 14.1759 80.8307C15.3429 80.6997 16.5325 80.7877 17.7875 80.7877L17.7589 76.9857ZM27.8157 74.2565C27.5208 71.8734 25.7683 70.3153 23.8294 70.5589C21.9376 70.7985 20.3939 72.5613 20.6375 74.2565H27.8157ZM62.8568 74.2565H70.1312C69.9613 72.1457 68.4462 70.5835 66.581 70.5282C64.7158 70.473 63.123 72.0187 62.8629 74.2606L62.8568 74.2565Z" fill="white"/>
<path d="M61.8761 33.0846C62.0215 45.1929 54.7614 55.7206 43.5089 59.7007C43.0994 59.8481 42.6654 59.9628 42.2395 60.0795C41.4759 60.2842 40.8678 60.1 40.6016 59.3138C40.3355 58.5276 40.7245 57.9625 41.6089 57.6022C43.1834 56.9613 44.809 56.4024 46.2852 55.5793C53.1972 51.7323 57.5459 45.8624 58.9135 38.115C60.7459 27.7962 56.344 18.1222 47.7552 12.582C44.5951 10.5317 40.9987 9.24993 37.2541 8.83936C36.2018 8.71856 35.7022 8.24766 35.7513 7.40618C35.8046 6.51761 36.3656 6.11223 37.5162 6.24122C42.6347 6.81653 47.1901 8.73904 51.2542 11.8613C54.499 14.3795 57.1377 17.5934 58.976 21.2664C60.8143 24.9393 61.8053 28.9779 61.8761 33.0846Z" fill="white"/>
<path d="M96.6075 124.01C96.5931 118.181 101.112 113.638 106.949 113.611C108.307 113.607 109.652 113.871 110.908 114.388C112.163 114.905 113.305 115.664 114.267 116.623C115.228 117.581 115.992 118.72 116.513 119.974C117.034 121.228 117.302 122.572 117.303 123.93C117.313 125.289 117.055 126.637 116.544 127.896C116.033 129.155 115.279 130.302 114.325 131.269C113.37 132.236 112.234 133.006 110.982 133.534C109.73 134.062 108.386 134.338 107.027 134.345C101.196 134.345 96.6238 129.817 96.6075 124.01ZM106.904 131.737C111.189 131.737 114.7 128.281 114.696 124.057C114.696 119.696 111.269 116.216 106.973 116.201C102.594 116.187 99.1933 119.643 99.1933 124.088C99.2056 128.279 102.686 131.733 106.904 131.737Z" fill="white"/>
<path d="M11.6896 123.988C11.6852 123.323 11.8122 122.664 12.0633 122.049C12.3143 121.433 12.6844 120.873 13.1524 120.401C13.6203 119.929 14.1769 119.554 14.7902 119.297C15.4035 119.041 16.0614 118.908 16.7262 118.906C19.4799 118.906 21.8283 121.228 21.8283 123.957C21.8283 126.686 19.4922 129.055 16.7589 129.039C15.4175 129.039 14.1305 128.508 13.1802 127.561C12.23 126.614 11.6939 125.329 11.6896 123.988ZM16.7425 126.404C17.0666 126.403 17.3872 126.338 17.6861 126.213C17.9849 126.088 18.256 125.905 18.4838 125.674C18.7116 125.444 18.8916 125.17 19.0133 124.87C19.1351 124.57 19.1962 124.248 19.1933 123.924C19.1661 123.273 18.8847 122.657 18.4094 122.21C17.9342 121.763 17.3027 121.52 16.6504 121.533C16.0145 121.562 15.415 121.839 14.9798 122.303C14.5446 122.768 14.3081 123.384 14.3205 124.021C14.3393 124.652 14.6009 125.253 15.0509 125.696C15.5008 126.14 16.1045 126.394 16.7364 126.404H16.7425Z" fill="white"/>
<path d="M45.8325 124.06C46.0372 126.517 43.347 129.162 40.714 129.094C38.2326 129.033 35.6877 126.74 35.7532 123.994C35.8208 121.103 38.0278 118.89 40.929 118.933C43.6336 118.972 45.853 121.294 45.8325 124.06ZM43.2241 124.005C43.2296 123.689 43.1722 123.376 43.0555 123.083C42.9388 122.79 42.765 122.523 42.5442 122.297C42.3235 122.072 42.0601 121.893 41.7694 121.77C41.4788 121.647 41.1667 121.584 40.8512 121.583C40.528 121.572 40.2061 121.628 39.9051 121.746C39.6041 121.864 39.3303 122.042 39.1004 122.27C38.8705 122.497 38.6894 122.769 38.568 123.069C38.4466 123.368 38.3875 123.69 38.3943 124.013C38.3895 124.336 38.45 124.656 38.5721 124.955C38.6942 125.253 38.8755 125.524 39.1049 125.751C39.3344 125.978 39.6074 126.157 39.9075 126.276C40.2075 126.394 40.5285 126.451 40.8512 126.443C41.4861 126.425 42.0891 126.16 42.5321 125.705C42.9751 125.25 43.2233 124.64 43.2241 124.005Z" fill="white"/>
<path d="M45.8342 98.0073C45.8462 98.6728 45.7252 99.334 45.4783 99.9521C45.2314 100.57 44.8636 101.133 44.3964 101.607C43.9291 102.081 43.372 102.457 42.7575 102.713C42.1431 102.969 41.4837 103.099 40.8181 103.097C40.1611 103.107 39.5087 102.987 38.8985 102.743C38.2883 102.5 37.7326 102.137 37.2635 101.677C36.7945 101.217 36.4214 100.668 36.166 100.063C35.9105 99.4577 35.7777 98.8077 35.7754 98.1506C35.7754 95.2433 37.8801 93.0547 40.726 93.0178C41.3909 93.0031 42.052 93.1212 42.6706 93.3653C43.2892 93.6093 43.8529 93.9744 44.3287 94.4391C44.8044 94.9038 45.1826 95.4587 45.4411 96.0714C45.6997 96.6841 45.8333 97.3423 45.8342 98.0073ZM40.7628 100.499C41.0867 100.503 41.4082 100.443 41.7082 100.321C42.0083 100.199 42.2809 100.018 42.5099 99.7892C42.739 99.5602 42.9198 99.2876 43.0417 98.9875C43.1636 98.6874 43.2241 98.366 43.2197 98.0421C43.2197 96.7543 42.0936 95.5975 40.8304 95.5852C40.192 95.5841 39.5787 95.834 39.1229 96.281C38.6671 96.728 38.4053 97.3362 38.394 97.9746C38.3592 99.4016 39.3665 100.476 40.7628 100.499Z" fill="white"/>
<path d="M59.3306 97.9894C59.3335 97.3319 59.4667 96.6814 59.7223 96.0756C59.978 95.4698 60.3511 94.9206 60.8201 94.4598C61.2891 93.9989 61.8448 93.6355 62.455 93.3906C63.0652 93.1457 63.7179 93.024 64.3754 93.0327C65.0411 93.0261 65.7015 93.1521 66.318 93.4033C66.9345 93.6545 67.4949 94.0259 67.9665 94.4958C68.4381 94.9656 68.8115 95.5247 69.065 96.1403C69.3184 96.7559 69.4468 97.4158 69.4427 98.0815C69.436 98.7469 69.2983 99.4044 69.0374 100.017C68.7765 100.629 68.3976 101.183 67.9223 101.649C67.4469 102.115 66.8845 102.482 66.2672 102.73C65.6498 102.978 64.9896 103.103 64.3242 103.096C63.6604 103.091 63.0041 102.954 62.3932 102.694C61.7823 102.435 61.2288 102.057 60.7646 101.582C60.3004 101.107 59.9348 100.545 59.6887 99.9289C59.4426 99.3124 59.3209 98.6532 59.3306 97.9894ZM64.357 100.502C65.0066 100.497 65.6288 100.239 66.0914 99.7831C66.554 99.327 66.8205 98.7085 66.8343 98.059C66.8213 97.4255 66.5693 96.8202 66.1289 96.3646C65.6885 95.9089 65.0921 95.6366 64.4593 95.6021C63.8087 95.5988 63.1819 95.847 62.7099 96.2949C62.2379 96.7428 61.9573 97.3558 61.9267 98.0058C61.9296 98.6556 62.1845 99.2789 62.6379 99.7444C63.0912 100.21 63.7075 100.481 64.357 100.502Z" fill="white"/>
<path d="M23.3391 15.4984C21.8834 16.7268 20.4584 17.728 19.2914 18.9646C13.9825 24.595 12.1255 31.2613 13.8433 38.7977C15.8907 47.839 24.0803 54.5832 33.3386 55.0704C33.8156 55.097 34.3623 55.0029 34.7513 55.1953C35.1403 55.3878 35.7443 55.8669 35.7607 56.2395C35.8589 58.5182 35.8897 60.8052 35.8037 63.0839C35.7361 64.8856 35.4372 65.1108 33.5884 65.0371C24.1253 64.6645 16.292 60.8523 10.3238 53.5287C3.97692 45.7486 1.92952 36.7749 4.05267 27.0027C6.05297 17.7669 11.4356 10.904 19.6538 6.27692C20.3438 5.88792 20.5035 5.52758 20.225 4.84375C20.0203 4.34009 19.8913 3.80572 19.7152 3.28978C19.3631 2.26608 19.6948 1.44713 20.5465 0.886142C21.3654 0.34563 22.1455 0.511463 22.8928 1.12363C25.0856 2.9151 27.2783 4.70453 29.5018 6.44686C30.5132 7.24125 30.8633 8.15029 30.46 9.40125C29.5898 12.0915 28.7668 14.7982 27.9376 17.5028C27.6387 18.4794 27.0736 19.1509 25.9987 19.1612C24.9238 19.1714 24.3424 18.5183 24.0619 17.5233C23.9022 16.95 23.6606 16.3911 23.3391 15.4984ZM22.9993 4.6472C23.0402 5.01573 23.0443 5.14267 23.0709 5.26142C23.4804 7.10408 23.3965 7.30882 21.7319 8.12777C17.6834 10.1381 14.1768 13.0914 11.5072 16.7391C7.08077 22.7625 5.27087 29.5046 6.05503 36.8896C6.78595 43.7893 9.71371 49.6817 14.738 54.4972C19.6518 59.1939 25.5257 61.7838 32.2862 62.4124C33.1461 62.4922 33.3939 62.1114 33.3591 61.3662C33.3243 60.6516 33.228 59.933 33.2547 59.2246C33.3058 57.7668 33.3304 57.773 31.9586 57.5867C31.5881 57.5396 31.2195 57.4618 30.849 57.4044C24.3239 56.3664 19.0089 53.1848 15.2294 47.839C9.83247 40.2043 9.1384 31.9472 13.0305 23.4279C15.1618 18.7599 18.6117 15.2384 23.1344 12.7815C24.4058 12.0936 25.1818 12.4498 25.6506 13.8052C25.7305 14.0365 25.8554 14.2556 26.0417 14.6815C26.4819 13.3404 26.8832 12.2246 27.2148 11.0903C28.1055 8.04178 28.3348 8.95697 25.9864 7.01194C25.5667 6.66184 25.149 6.31378 24.7191 5.97596C24.2093 5.56443 23.6831 5.17338 22.9993 4.6472Z" fill="#25694D"/>
<path d="M35.865 34.1453C37.8244 34.1453 39.6547 34.1331 41.4872 34.1453C42.5457 34.1453 43.1005 34.6326 43.0411 35.4802C42.9899 36.1948 42.6787 36.7394 41.8536 36.7394C39.3968 36.7394 36.9399 36.7558 34.483 36.7148C33.4491 36.6964 33.2382 35.9368 33.2402 35.0769C33.2525 31.3261 33.2655 27.5766 33.2792 23.8285C33.2792 22.7721 33.2648 21.7136 33.2792 20.6571C33.2935 19.6007 33.7562 19.0008 34.5322 18.9783C35.3654 18.9537 35.9019 19.5638 35.8998 20.6469C35.8998 24.7417 35.8691 28.8364 35.8507 32.919C35.863 33.2854 35.865 33.6519 35.865 34.1453Z" fill="#25694D"/>
<path d="M63.8954 124.77C65.1238 123.542 66.2438 122.401 67.3657 121.275C67.6403 120.973 67.9381 120.693 68.2564 120.438C68.8706 119.994 69.5053 120.028 70.0089 120.573C70.4798 121.077 70.5208 121.738 70.0376 122.242C68.3178 124.031 66.5775 125.8 64.7963 127.528C64.2373 128.073 63.5474 128.003 62.97 127.44C61.8992 126.396 60.8243 125.356 59.772 124.291C59.1782 123.689 59.1311 123.001 59.7413 122.397C60.3514 121.793 61.0434 121.896 61.6371 122.471C62.3906 123.2 63.1051 123.961 63.8954 124.77Z" fill="#25694D"/>
<path d="M40.2803 111.933C41.7135 110.412 42.901 109.153 44.0926 107.898C44.2782 107.696 44.484 107.513 44.7068 107.353C45.321 106.921 45.9352 106.944 46.4553 107.507C46.9753 108.07 46.9037 108.715 46.398 109.243C45.0794 110.621 43.72 111.96 42.3891 113.338C40.9109 114.859 40.569 115.768 38.3722 113.368C37.6842 112.617 36.9124 111.935 36.2101 111.198C35.6716 110.633 35.5672 109.957 36.1159 109.355C36.7117 108.714 37.4611 108.815 38.0303 109.368C38.7714 110.099 39.4163 110.938 40.2803 111.933Z" fill="#25694D"/>
<path d="M63.8379 111.824L67.1792 108.344C67.3205 108.196 67.4577 108.043 67.6051 107.901C68.596 106.953 69.3802 106.804 69.9944 107.441C70.6086 108.077 70.4346 108.81 69.4457 109.805C68.0125 111.259 66.5793 112.719 65.1175 114.158C64.2453 115.02 63.6372 114.998 62.7691 114.14C61.7987 113.182 60.8057 112.248 59.8639 111.273C59.1698 110.547 59.1391 109.816 59.739 109.31C60.4392 108.72 61.121 108.833 61.7229 109.482C62.3904 110.203 63.0435 110.942 63.8379 111.824Z" fill="#25694D"/>
<path d="M15.8299 112.438L19.1057 109.162C19.3719 108.898 19.6257 108.62 19.9062 108.374C20.5901 107.776 21.452 107.719 21.9127 108.282C22.4511 108.945 22.3222 109.633 21.7673 110.214C20.6842 111.343 19.5684 112.44 18.469 113.552C17.9673 114.059 17.4965 114.602 16.9621 115.073C16.0858 115.845 15.5043 115.824 14.669 115.014C13.6453 114.023 12.6482 112.999 11.6327 111.998C10.9735 111.351 11.1065 110.714 11.6778 110.128C12.249 109.543 12.8489 109.653 13.3996 110.153C14.2104 110.874 14.9843 111.631 15.8299 112.438Z" fill="#25694D"/>
<path d="M15.6487 98.9419C16.9652 97.6132 18.0114 96.5506 19.0658 95.4941C19.4016 95.1583 19.7415 94.8226 20.1018 94.5134C20.6792 94.0179 21.2852 94.0138 21.838 94.54C22.3908 95.0662 22.4113 95.703 21.9342 96.2762C21.4572 96.8495 20.9105 97.3593 20.3823 97.8937C19.289 99.0115 18.1998 100.146 17.0962 101.245C16.177 102.171 15.5136 102.154 14.5841 101.227C13.6546 100.299 12.6943 99.3678 11.7648 98.424C11.169 97.822 10.9459 97.1546 11.6235 96.4605C12.1927 95.877 12.9543 95.9384 13.6709 96.6837C14.3404 97.3655 14.9342 98.1066 15.6487 98.9419Z" fill="#25694D"/>
</svg>
