<svg width="112" height="111" viewBox="0 0 112 111" fill="none" xmlns="http://www.w3.org/2000/svg">
<rect x="1.30529" width="76.4786" height="76.4786" rx="4.60057" transform="matrix(0.709308 -0.704899 0.709308 0.704899 1.24858 56.4045)" stroke="#25694D" stroke-width="1.84023"/>
<g clip-path="url(#clip0_1038_6)">
<path d="M52.5766 36C53.3697 36.1457 54.1687 36.2616 54.9526 36.4429C67.0995 39.2162 71.7912 53.6239 63.555 62.8386C63.4037 63.008 63.2524 63.1804 62.9043 63.5847C63.4764 64.0543 64.0363 64.5418 64.6326 64.9758C64.7341 65.0376 64.8471 65.0791 64.965 65.098C65.0829 65.1169 65.2035 65.1127 65.3197 65.0857C65.777 64.9412 66.2674 64.9305 66.7307 65.0551C67.1941 65.1797 67.6104 65.4341 67.9289 65.7873C71.0123 68.8212 74.0978 71.8542 77.1852 74.8861C78.2355 75.9235 78.2628 77.3591 77.2972 78.3074C76.3316 79.2556 74.8606 79.2378 73.8102 78.2153C70.6925 75.1754 67.5839 72.1246 64.4844 69.063C64.1557 68.7603 63.9169 68.3755 63.7937 67.9498C63.6706 67.5241 63.6676 67.0735 63.7851 66.6463C63.8258 66.3146 63.7372 65.9801 63.537 65.71C63.1526 65.1868 62.6742 64.7261 62.2111 64.2238C61.7601 64.5656 61.4484 64.8182 61.1306 65.0412C58.4494 67.0099 55.2173 68.1227 51.8712 68.229C48.5251 68.3353 45.2265 67.4301 42.4213 65.6357C39.5921 63.817 37.403 61.1855 36.1528 58.1001C34.9026 55.0147 34.6519 51.6256 35.4352 48.3953C36.2034 45.2083 37.9458 42.3284 40.4287 40.142C42.9116 37.9555 46.0162 36.5673 49.3257 36.1635C49.5492 36.1237 49.7697 36.0691 49.9856 36H52.5766ZM51.3113 37.293C49.3263 37.2949 47.3611 37.6823 45.5291 38.4329C43.697 39.1835 42.0343 40.2824 40.6364 41.6665C39.2385 43.0506 38.1332 44.6925 37.384 46.4977C36.6347 48.3029 36.2564 50.2358 36.2707 52.1852C36.2739 56.1077 37.8597 59.8691 40.681 62.6459C43.5023 65.4226 47.3292 66.9883 51.3235 67.0001C53.3083 66.9977 55.2731 66.6114 57.1059 65.8631C58.9386 65.1149 60.6033 64.0194 62.0048 62.6392C63.4063 61.259 64.5173 59.6212 65.2741 57.8193C66.0309 56.0174 66.4187 54.0868 66.4155 52.1376C66.4215 50.1876 66.035 48.2555 65.2782 46.4526C64.5214 44.6497 63.4093 43.0114 62.0057 41.632C60.6021 40.2525 58.9347 39.159 57.0994 38.4144C55.2641 37.6698 53.2971 37.2887 51.3113 37.293ZM66.0221 66.0429C65.6709 66.3551 65.1594 66.5928 65.114 66.896C65.0807 67.1328 65.0962 67.3739 65.1597 67.6047C65.2231 67.8355 65.3331 68.0514 65.4832 68.2396C68.5101 71.2804 71.5793 74.2767 74.6456 77.2759C75.251 77.8704 75.9018 77.912 76.3921 77.4275C76.8825 76.943 76.8371 76.3039 76.2347 75.7094C73.1816 72.6993 70.1194 69.6961 67.0481 66.6999C66.7286 66.4486 66.385 66.2286 66.0221 66.0429Z" fill="white"/>
<path d="M42.0189 59.7919C41.8766 57.3961 42.9088 55.6096 44.7159 54.2155C48.3905 51.3798 54.4382 51.4273 58.0553 54.3195C59.7928 55.7047 60.7614 57.4615 60.6161 59.7919H42.0189ZM43.4173 58.5761H59.2268C59.0452 55.7285 55.4068 53.3624 51.2872 53.3683C47.2221 53.3743 43.5747 55.7523 43.4173 58.5761Z" fill="#25694D"/>
<path d="M55.9304 46.5167C55.9349 47.1144 55.8179 47.707 55.586 48.2597C55.3541 48.8123 55.0122 49.314 54.5803 49.7351C54.1483 50.1562 53.6349 50.4884 53.0705 50.7121C52.5061 50.9358 51.9019 51.0465 51.2932 51.0378C50.079 51.0378 48.9142 50.5662 48.0528 49.7259C47.1914 48.8855 46.7034 47.7447 46.6954 46.5524C46.6914 45.9549 46.8073 45.3625 47.0365 44.809C47.2658 44.2556 47.6039 43.7518 48.0315 43.3267C48.4591 42.9016 48.9677 42.5634 49.5284 42.3314C50.0891 42.0994 50.6909 41.9782 51.2993 41.9747C51.9081 41.9708 52.5116 42.0855 53.0749 42.3123C53.6382 42.5391 54.1501 42.8735 54.5808 43.2959C55.0116 43.7184 55.3527 44.2206 55.5844 44.7735C55.8161 45.3263 55.9336 45.9188 55.9304 46.5167ZM54.6713 46.5494C54.6794 45.676 54.3355 44.8349 53.7146 44.2096C53.0937 43.5842 52.2461 43.2254 51.3568 43.2113C50.4668 43.2081 49.6114 43.5496 48.9762 44.1617C48.341 44.7738 47.9772 45.6072 47.9637 46.481C47.9572 47.3557 48.304 48.1971 48.928 48.8212C49.5521 49.4452 50.4026 49.8008 51.2932 49.8102C52.183 49.8158 53.0386 49.4742 53.672 48.8605C54.3055 48.2468 54.6649 47.4113 54.6713 46.5375V46.5494Z" fill="#25694D"/>
</g>
<defs>
<clipPath id="clip0_1038_6">
<rect width="43" height="43" fill="white" transform="translate(35 36)"/>
</clipPath>
</defs>
</svg>
