<svg width="116" height="72" viewBox="0 0 116 72" fill="none" xmlns="http://www.w3.org/2000/svg">
<g clip-path="url(#clip0_995_2747)">
<path d="M6.77342 25.9853V25.9676V25.9853ZM6.77342 25.9853V26.0029M6.77342 25.9853V26.0029M6.77342 26.0029V26.0206M6.77342 26.0029V26.0206M6.77342 26.0206V26.0383M6.77342 26.0206V26.0383M6.77342 26.0383V26.056M6.77342 26.0383V26.056M6.77342 26.056V26.0737M6.77342 26.056V26.0737M6.77342 26.0737V26.0914M6.77342 26.0737V26.0914M6.77342 26.0914V26.1091M6.77342 26.0914V26.1091M6.77342 26.1091V26.1267M6.77342 26.1091V26.1267M6.77342 26.1267V26.1444M6.77342 26.1267V26.1444M6.77342 26.1444V26.1621M6.77342 26.1444V26.1621M6.77342 26.1621V26.1798M6.77342 26.1621V26.1798M6.77342 26.1798V26.1975M6.77342 26.1798V26.1975M6.77342 26.1975V26.2152M6.77342 26.1975V26.2152M6.77342 26.2152V26.2329M6.77342 26.2152V26.2329M6.77342 26.2329V26.2506M6.77342 26.2329V26.2506M6.77342 26.2506V26.2683M6.77342 26.2506V26.2683M6.77342 26.2683V26.2859M6.77342 26.2683V26.2859M6.77342 26.2859V26.3036M6.77342 26.2859V26.3036M6.77342 26.3036V26.3213M6.77342 26.3036V26.3213M6.77342 26.3213V26.339M6.77342 26.3213V26.339M6.77342 26.339V26.3567M6.77342 26.339V26.3567M6.77342 26.3567V26.3744M6.77342 26.3567V26.3744M6.77342 26.3744V26.3921M6.77342 26.3744V26.3921M6.77342 26.3921V26.4098M6.77342 26.3921V26.4098M6.77342 26.4098V26.4275M6.77342 26.4098V26.4275M6.77342 26.4275V26.4452M6.77342 26.4275V26.4452M6.77342 26.4452V26.4628M6.77342 26.4452V26.4628M6.77342 26.4628V26.4805M6.77342 26.4628V26.4805M6.77342 26.4805V26.4982M6.77342 26.4805V26.4982M6.77342 26.4982V26.5159M6.77342 26.4982V26.5159M6.77342 26.5159V26.5336M6.77342 26.5159V26.5336M6.77342 26.5336V26.5513M6.77342 26.5336V26.5513M6.77342 26.5513V26.569M6.77342 26.5513V26.569M6.77342 26.569V26.5867M6.77342 26.569V26.5867M6.77342 26.5867V26.6044M6.77342 26.5867V26.6044M6.77342 26.6044V26.6221M6.77342 26.6044V26.6221M6.77342 26.6221V26.6398M6.77342 26.6221V26.6398M6.77342 26.6398V26.6575M6.77342 26.6398V26.6575M6.77342 26.6575V26.6752M6.77342 26.6575V26.6752M6.77342 26.6752V26.6929M6.77342 26.6752V26.6929M6.77342 26.6929V26.7105M6.77342 26.6929V26.7105M6.77342 26.7105V26.7282M6.77342 26.7105V26.7282M6.77342 26.7282V26.7459V26.7282ZM28.2683 62.9043L28.2696 62.9047C31.4652 63.9139 34.0626 64.0281 36.2528 63.0642C38.3963 62.1209 40.0988 60.1672 41.589 57.1456C46.8338 58.8006 51.9805 60.4563 57.0727 62.1987L57.0832 62.2023L57.094 62.205C57.6078 62.3311 58.0867 62.573 58.495 62.9128C58.9033 63.2526 59.2302 63.6813 59.4511 64.1671L59.4511 64.1671L59.4531 64.1713C59.9285 65.1675 60.6662 66.0132 61.5854 66.6159C62.5033 67.2177 63.5673 67.5541 64.6617 67.5885C66.6996 67.7316 68.4711 67.0542 69.7319 65.7686C70.992 64.4838 71.7252 62.6094 71.7252 60.3859V60.302V60.2181V60.1342V60.0504V59.9665V59.8826V59.7987V59.7148V59.6309V59.5471V59.4632V59.3793V59.2954V59.2115V59.1276V59.0438V58.9599V58.876V58.7921V58.7082V58.6243V58.5405V58.4566V58.3727V58.2888V58.2049V58.121V58.0372V57.9533V57.8694V57.7855V57.7016V57.6177V57.5339V57.45V57.3661V57.2822V57.1983V57.1144V57.0305V56.9467V56.8628V56.7789V56.695V56.6111V56.5272V56.4433V56.3595V56.2756V56.1917V56.1078V56.0239V55.94V55.8561V55.7723V55.6884V55.6045V55.5206V55.4367V55.3528V55.2689V55.1851V55.1012V55.0173V54.9334V54.8495V54.7656V54.6817V54.5978V54.514V54.4301V54.3462V54.2623V54.1784V54.0945V54.0106V53.9267V53.8429V53.759V53.6751V53.5912V53.5073V53.4234V53.3395V53.2556V53.1717V53.0879V53.004V52.9201V52.8362V52.7523V52.6684V52.5845V52.5006V52.4167V52.3329V52.249V52.1651V52.0812V51.9973V51.9134V51.8295V51.7456V51.6617V51.5779V51.494V51.4101V51.3262V51.2423V51.1584V51.0745V50.9906V50.9067V50.8228V50.7389V50.655V50.5712V50.4873V50.4034V50.3195V50.2356V50.1517V50.0678V49.9839V49.9V49.8161V49.7322V49.6483V49.5645V49.4806V49.3967V49.3128V49.2289V49.145V49.0611V48.9772V48.8933V48.8094V48.7255V48.6416V48.5577V48.4738V48.39V48.3061V48.2222V48.1383V48.0544V47.9705V47.8866V47.8027V47.7188V47.6349V47.551V47.4671V47.3832V47.2993V47.2154V47.1315V47.0476V46.9637V46.8799V46.796V46.7121V46.6282V46.5443V46.4604V46.3765V46.2926V46.2087V46.1248V46.0409V45.957V45.8731V45.7892V45.7053V45.6214V45.5375V45.4536V45.3697V45.2858V45.2019V45.118V45.0341V44.9502V44.8663V44.7825V44.6986V44.6147V44.5308V44.4469V44.363V44.2791V44.1952V44.1113V44.0274V43.9435V43.8596V43.7757V43.6918V43.6079V43.524V43.4401V43.3562V43.2723V43.1884V43.1045V43.0206V42.9367V42.8528V42.7689V42.685V42.6011V42.5172V42.4333V42.3494V42.2655V42.1816V42.0977V42.0138V41.9299V41.846V41.7621V41.6782V41.5943V41.5104V41.4265V41.3426V41.2587V41.1748V41.0909V41.007V40.9231V40.8392V40.7553V40.6714V40.5875V40.5036V40.4197V40.3358V40.2519V40.168V40.0841V40.0002V39.9163V39.8324V39.7485V39.6646V39.5807V39.4968V39.4129V39.329V39.245V39.1611V39.0772V38.9933V38.9094V38.8255V38.7416V38.6577V38.5738V38.4899V38.406V38.3221V38.2382V38.1543V38.0704V37.9865V37.9026V37.8187V37.7348V37.6509V37.567V37.4831V37.3992V37.3153V37.2314V37.1474V37.0635V36.9796V36.8957V36.8118V36.7279V36.644V36.5601V36.4762V36.3923V36.3084V36.2245V36.1406V36.0567V35.9728V35.8889V35.805V35.7211V35.6371V35.5532V35.4693V35.3854V35.3015V35.2176V35.1337V35.0498V34.9659V34.882V34.7981V34.7142V34.6303V34.5464V34.4624V34.3785V34.2946V34.2107V34.1268V34.0429V33.959V33.8751V33.7912V33.7073V33.6234V33.5395V33.4555V33.3716V33.2877V33.2038V33.1199V33.036V32.9521V32.8682V32.7843V32.7004V32.6165V32.5325V32.4486V32.3647V32.2808V32.1969V32.113V32.0291V31.9452V31.8613V31.7774V31.6934V31.6095V31.5256V31.4417V31.3578V31.2739V31.19V31.1061V31.0222V30.9382V30.8543V30.7704V30.6865V30.6026V30.5187V30.4348V30.3509V30.267V30.183V30.0991V30.0152V29.9313V29.8474V29.7635V29.6796V29.5957V29.5117V29.4278V29.3439V29.26V29.1761V29.0922V29.0083V28.9244V28.8404V28.7565V28.6726V28.5887V28.5048V28.4209V28.337V28.253V28.1691V28.0852V28.0013V27.9174V27.8335V27.7496V27.6656V27.5817V27.4978V27.4139V27.33V27.2461V27.1622V27.0782V26.9943V26.9104V26.8265V26.7426V26.6587V26.5747V26.4908V26.4069V26.323V26.2391V26.1552V26.0712V25.9873V25.9034V25.8195V25.7356V25.6517V25.5677V25.4838V25.3999V25.316V25.2321V25.1482V25.0642V24.9803V24.8964V24.8125V24.7286V24.6447V24.5607V24.4768V24.3929V24.309V24.2251V24.1411V24.0572V23.9733V23.8894V23.8055V23.7216V23.6376V23.5537V23.4698V23.3859V23.302V23.218V23.1341V23.0502V22.9663V22.8824V22.7984V22.7145V22.6306V22.5467V22.4628V22.3788V22.2949V22.211V22.1271V22.0432V21.9592V21.8753V21.7914V21.7075V21.6236V21.5396V21.4557V21.3718V21.2879V21.204V21.12V21.0361V20.9522V20.8683V20.7843V20.7004V20.6165V20.5326V20.4487V20.3647V20.2808V20.1969V20.113V20.029V19.9451V19.8612V19.7773V19.6934V19.6094V19.5255V19.4416V19.3577V19.2737V19.1898V19.1059V19.022V18.938V18.8541V18.7702V18.6863V18.6024V18.5184V18.4345V18.3506V18.2667V18.1827V18.0988V18.0149V17.931V17.847V17.7631V17.6792V17.5953V17.5113V17.4274C71.7252 16.463 71.7338 15.4963 71.7424 14.5286C71.7596 12.59 71.7769 10.648 71.7251 8.71456C71.7055 7.32659 71.2487 5.98079 70.4208 4.87166C69.5928 3.76237 68.4366 2.94714 67.1185 2.54474C64.5469 1.74124 61.2777 2.44415 60.041 4.99991C59.0271 7.0951 57.4372 7.6088 55.5517 8.21798C55.3753 8.27497 55.1963 8.3328 55.015 8.39283C53.6562 8.84269 52.2943 9.27307 50.9319 9.70361C50.1966 9.93599 49.4611 10.1684 48.7259 10.404L48.7251 10.4042C35.7562 14.6057 22.7836 18.7811 9.80725 22.9305C9.58043 22.9743 9.34679 22.9666 9.12328 22.9077C8.90248 22.8496 8.69712 22.7432 8.52158 22.5958C7.82555 21.7327 6.8627 21.1286 5.78649 20.8804C4.70369 20.6306 3.56951 20.7559 2.56604 21.2357C1.45659 21.7232 0.739803 22.4581 0.305497 23.3688C-0.125631 24.2728 -0.271368 25.335 -0.271378 26.4708L-0.271357 26.4731C-0.219682 32.2098 -0.219682 37.9502 -0.271359 43.6944L-0.271364 43.6954C-0.277041 44.8298 -0.081447 45.8535 0.389706 46.7096C0.862594 47.5688 1.60387 48.2421 2.65746 48.6871C3.63947 49.1457 4.74467 49.2627 5.79989 49.0199C6.85362 48.7775 7.79763 48.1901 8.48494 47.3496C8.63163 47.1954 8.80931 47.0751 9.00587 46.997C9.19849 46.9205 9.40461 46.8861 9.61093 46.8959C10.4973 47.1152 11.3563 47.4267 12.2496 47.7507C12.5113 47.8456 12.7759 47.9416 13.045 48.0366C13.0373 48.1112 13.03 48.1835 13.0229 48.254C12.989 48.5909 12.9594 48.8849 12.9127 49.1759C12.4821 51.4706 12.9018 53.8452 14.0923 55.8485C15.2833 57.8525 17.1631 59.3454 19.3743 60.0427C19.3747 60.0428 19.375 60.0429 19.3753 60.043L22.8519 61.1604L22.8521 61.1604L28.2683 62.9043ZM57.6289 10.3323L57.6296 10.332C57.7848 10.2815 57.9458 10.2476 58.1404 10.2116C58.1871 10.203 58.2358 10.1942 58.2867 10.1851C58.3602 10.1719 58.4381 10.1579 58.5207 10.1423V59.7972L45.6118 55.6542C45.6117 55.6542 45.6116 55.6542 45.6116 55.6541C43.5558 54.9912 41.5003 54.3275 39.4448 53.6638C30.2713 50.7017 21.0972 47.7394 11.8939 44.8442L11.8931 44.844C10.9627 44.5551 10.3283 44.2559 9.92912 43.7909C9.53854 43.3359 9.33995 42.6805 9.38835 41.5952L9.38844 41.5928C9.52716 37.6353 9.47314 33.6618 9.41927 29.6993C9.40852 28.9086 9.39778 28.1183 9.38857 27.3287L9.38832 27.3073L9.38445 27.2862C9.30861 26.8749 9.39727 26.4499 9.63033 26.1044C9.86329 25.7589 10.2217 25.521 10.6268 25.4417L10.6412 25.4389L10.6551 25.4344C26.3242 20.4115 41.9819 15.3775 57.6289 10.3323ZM65.2596 64.8643L65.2577 64.8643C64.0938 64.8802 63.111 64.4584 62.4176 63.7143C61.7227 62.9688 61.3024 61.8818 61.3024 60.5425V60.4924V60.4423V60.3922V60.3421V60.292V60.2419V60.1918V60.1417V60.0915V60.0414V59.9913V59.9412V59.8911V59.841V59.7908V59.7407V59.6906V59.6405V59.5904V59.5402V59.4901V59.44V59.3899V59.3398V59.2896V59.2395V59.1894V59.1393V59.0891V59.039V58.9889V58.9387V58.8886V58.8385V58.7884V58.7382V58.6881V58.638V58.5878V58.5377V58.4875V58.4374V58.3873V58.3371V58.287V58.2369V58.1867V58.1366V58.0864V58.0363V57.9862V57.936V57.8859V57.8357V57.7856V57.7354V57.6853V57.6351V57.585V57.5348V57.4847V57.4345V57.3844V57.3342V57.2841V57.2339V57.1838V57.1336V57.0835V57.0333V56.9832V56.933V56.8829V56.8327V56.7825V56.7324V56.6822V56.6321V56.5819V56.5317V56.4816V56.4314V56.3813V56.3311V56.2809V56.2308V56.1806V56.1304V56.0803V56.0301V55.9799V55.9298V55.8796V55.8294V55.7793V55.7291V55.6789V55.6287V55.5786V55.5284V55.4782V55.428V55.3779V55.3277V55.2775V55.2273V55.1772V55.127V55.0768V55.0266V54.9765V54.9263V54.8761V54.8259V54.7757V54.7256V54.6754V54.6252V54.575V54.5248V54.4746V54.4245V54.3743V54.3241V54.2739V54.2237V54.1735V54.1233V54.0731V54.023V53.9728V53.9226V53.8724V53.8222V53.772V53.7218V53.6716V53.6214V53.5712V53.521V53.4708V53.4207V53.3705V53.3203V53.2701V53.2199V53.1697V53.1195V53.0693V53.0191V52.9689V52.9187V52.8685V52.8183V52.7681V52.7179V52.6677V52.6175V52.5673V52.5171V52.4669V52.4167V52.3665V52.3162V52.266V52.2158V52.1656V52.1154V52.0652V52.015V51.9648V51.9146V51.8644V51.8142V51.764V51.7138V51.6635V51.6133V51.5631V51.5129V51.4627V51.4125V51.3623V51.3121V51.2618V51.2116V51.1614V51.1112V51.061V51.0108V50.9606V50.9103V50.8601V50.8099V50.7597V50.7095V50.6592V50.609V50.5588V50.5086V50.4584V50.4081V50.3579V50.3077V50.2575V50.2073V50.157V50.1068V50.0566V50.0064V49.9562V49.9059V49.8557V49.8055V49.7553V49.705V49.6548V49.6046V49.5543V49.5041V49.4539V49.4037V49.3534V49.3032V49.253V49.2028V49.1525V49.1023V49.0521V49.0018V48.9516V48.9014V48.8511V48.8009V48.7507V48.7005V48.6502V48.6V48.5498V48.4995V48.4493V48.3991V48.3488V48.2986V48.2484V48.1981V48.1479V48.0977V48.0474V47.9972V47.9469V47.8967V47.8465V47.7962V47.746V47.6958V47.6455V47.5953V47.5451V47.4948V47.4446V47.3943V47.3441V47.2939V47.2436V47.1934V47.1431V47.0929V47.0427V46.9924V46.9422V46.8919V46.8417V46.7915V46.7412V46.691V46.6407V46.5905V46.5402V46.49V46.4398V46.3895V46.3393V46.289V46.2388V46.1885V46.1383V46.0881V46.0378V45.9876V45.9373V45.8871V45.8368V45.7866V45.7363V45.6861V45.6358V45.5856V45.5354V45.4851V45.4349V45.3846V45.3344V45.2841V45.2339V45.1836V45.1334V45.0831V45.0329V44.9826V44.9324V44.8821V44.8319V44.7816V44.7314V44.6811V44.6309V44.5806V44.5304V44.4801V44.4299V44.3796V44.3294V44.2791V44.2289V44.1786V44.1284V44.0781V44.0279V43.9776V43.9274V43.8771V43.8269V43.7766V43.7264V43.6761V43.6259V43.5756V43.5254V43.4751V43.4249V43.3746V43.3244V43.2741V43.2239V43.1736V43.1234V43.0731V43.0229V42.9726V42.9224V42.8721V42.8218V42.7716V42.7213V42.6711V42.6208V42.5706V42.5203V42.4701V42.4198V42.3696V42.3193V42.2691V42.2188V42.1686V42.1183V42.0681V42.0178V41.9675V41.9173V41.867V41.8168V41.7665V41.7163V41.666V41.6158V41.5655V41.5153V41.465V41.4148V41.3645V41.3143V41.264V41.2137V41.1635V41.1132V41.063V41.0127V40.9625V40.9122V40.862V40.8117V40.7615V40.7112V40.661V40.6107V40.5604V40.5102V40.4599V40.4097V40.3594V40.3092V40.2589V40.2087V40.1584V40.1082V40.0579V40.0077V39.9574V39.9072V39.8569V39.8067V39.7564V39.7061V39.6559V39.6056V39.5554V39.5051V39.4549V39.4046V39.3544V39.3041V39.2539V39.2036V39.1534V39.1031V39.0529V39.0026V38.9524V38.9021V38.8519V38.8016V38.7514V38.7011V38.6509V38.6006V38.5504V38.5001V38.4499V38.3996V38.3494V38.2991V38.2489V38.1986V38.1484V38.0981V38.0479V37.9976V37.9474V37.8971V37.8469V37.7966V37.7464V37.6961V37.6459V37.5956V37.5454V37.4951V37.4449V37.3946V37.3444V37.2941V37.2439V37.1936V37.1434V37.0931V37.0429V36.9926V36.9424V36.8922V36.8419V36.7917V36.7414V36.6912V36.6409V36.5907V36.5404V36.4902V36.4399V36.3897V36.3395V36.2892V36.239V36.1887V36.1385V36.0882V36.038V35.9878V35.9375V35.8873V35.837V35.7868V35.7365V35.6863V35.6361V35.5858V35.5356V35.4853V35.4351V35.3849V35.3346V35.2844V35.2341V35.1839V35.1337V35.0834V35.0332V34.9829V34.9327V34.8825V34.8322V34.7879C61.3172 26.2623 61.3206 17.7552 61.3132 9.26691L61.3132 9.25679L61.3124 9.24671C61.2429 8.39924 61.4448 7.55172 61.8876 6.82848C62.3302 6.10536 62.9905 5.545 63.7714 5.22892L63.7824 5.22445L63.793 5.21895C64.4887 4.85692 65.2879 4.75231 66.0518 4.92321C66.8158 5.09412 67.4967 5.52981 67.9761 6.15522L67.9761 6.15527L67.9799 6.15997C68.6709 7.01774 69.0811 8.07121 69.1538 9.17481V9.26735V9.368V9.46865V9.56929V9.66994V9.77059V9.87123V9.97188V10.0725V10.1732V10.2738V10.3745V10.4751V10.5757V10.6764V10.777V10.8777V10.9783V11.079V11.1796V11.2802V11.3809V11.4815V11.5822V11.6828V11.7834V11.8841V11.9847V12.0853V12.186V12.2866V12.3873V12.4879V12.5885V12.6892V12.7898V12.8904V12.9911V13.0917V13.1923V13.293V13.3936V13.4942V13.5948V13.6955V13.7961V13.8967V13.9974V14.098V14.1986V14.2992V14.3999V14.5005V14.6011V14.7018V14.8024V14.903V15.0036V15.1043V15.2049V15.3055V15.4061V15.5067V15.6074V15.708V15.8086V15.9092V16.0098V16.1105V16.2111V16.3117V16.4123V16.5129V16.6136V16.7142V16.8148V16.9154V17.016V17.1166V17.2173V17.3179V17.4185V17.5191V17.6197V17.7203V17.8209V17.9215V18.0222V18.1228V18.2234V18.324V18.4246V18.5252V18.6258V18.7264V18.827V18.9276V19.0282V19.1289V19.2295V19.3301V19.4307V19.5313V19.6319V19.7325V19.8331V19.9337V20.0343V20.1349V20.2355V20.3361V20.4367V20.5373V20.6379V20.7385V20.8391V20.9397V21.0403V21.1409V21.2415V21.3421V21.4427V21.5433V21.6439V21.7445V21.8451V21.9457V22.0463V22.1469V22.2475V22.348V22.4486V22.5492V22.6498V22.7504V22.851V22.9516V23.0522V23.1528V23.2534V23.354V23.4545V23.5551V23.6557V23.7563V23.8569V23.9575V24.0581V24.1586V24.2592V24.3598V24.4604V24.561V24.6616V24.7621V24.8627V24.9633V25.0639V25.1645V25.2651V25.3656V25.4662V25.5668V25.6674V25.768V25.8685V25.9691V26.0697V26.1703V26.2708V26.3714V26.472V26.5726V26.6731V26.7737V26.8743V26.9749V27.0754V27.176V27.2766V27.3771V27.4777V27.5783V27.6789V27.7794V27.88V27.9806V28.0811V28.1817V28.2823V28.3828V28.4834V28.584V28.6845V28.7851V28.8857V28.9862V29.0868V29.1874V29.2879V29.3885V29.4891V29.5896V29.6902V29.7907V29.8913V29.9919V30.0924V30.193V30.2935V30.3941V30.4947V30.5952V30.6958V30.7963V30.8969V30.9974V31.098V31.1986V31.2991V31.3997V31.5002V31.6008V31.7013V31.8019V31.9024V32.003V32.1035V32.2041V32.3046V32.4052V32.5057V32.6063V32.7068V32.8074V32.9079V33.0085V33.109V33.2096V33.3101V33.4107V33.5112V33.6118V33.7123V33.8128V33.9134V34.0139V34.1145V34.215V34.3156V34.4161V34.5166V34.6172V34.7177V34.8183V34.9188V35.0193V35.1199V35.2204V35.321V35.4215V35.522V35.6226V35.7231V35.8236V35.9242V36.0247V36.1252V36.2258V36.3263V36.4268V36.5274V36.6279V36.7284V36.829V36.9295V37.03V37.1306V37.2311V37.3316V37.4322V37.5327V37.6332V37.7337V37.8343V37.9348V38.0353V38.1358V38.2364V38.3369V38.4374V38.5379V38.6385V38.739V38.8395V38.94V39.0406V39.1411V39.2416V39.3421V39.4426V39.5432V39.6437V39.7442V39.8447V39.9452V40.0458V40.1463V40.2468V40.3473V40.4478V40.5483V40.6489V40.7494V40.8499V40.9504V41.0509V41.1514V41.2519V41.3524V41.453V41.5535V41.654V41.7545V41.855V41.9555V42.056V42.1565V42.257V42.3575V42.4581V42.5586V42.6591V42.7596V42.8601V42.9606V43.0611V43.1616V43.2621V43.3626V43.4631V43.5636V43.6641V43.7646V43.8651V43.9656V44.0661V44.1666V44.2671V44.3676V44.4681V44.5686V44.6691V44.7696V44.8701V44.9706V45.0711V45.1716V45.2721V45.3726V45.4731V45.5736V45.6741V45.7746V45.8751V45.9756V46.076V46.1765V46.277V46.3775V46.478V46.5785V46.679V46.7795V46.88V46.9805V47.0809V47.1814V47.2819V47.3824V47.4829V47.5834V47.6839V47.7844V47.8848V47.9853V48.0858V48.1863V48.2868V48.3873V48.4877V48.5882V48.6887V48.7892V48.8897V48.9901V49.0906V49.1911V49.2916V49.3921V49.4925V49.593V49.6935V49.794V49.8944V49.9949V50.0954V50.1959V50.2963V50.3968V50.4973V50.5978V50.6982V50.7987V50.8992V50.9997V51.1001V51.2006V51.3011V51.4015V51.502V51.6025V51.7029V51.8034V51.9039V52.0043V52.1048V52.2053V52.3057V52.4062V52.5067V52.6071V52.7076V52.8081V52.9085V53.009V53.1095V53.2099V53.3104V53.4108V53.5113V53.6118V53.7122V53.8127V53.9131V54.0136V54.1141V54.2145V54.315V54.4154V54.5159V54.6163V54.7168V54.8173V54.9177V55.0182V55.1186V55.2191V55.3195V55.42V55.5204V55.6209V55.7213V55.8218V55.9222V56.0227V56.1231V56.2236V56.324V56.4245V56.5249V56.6254V56.7258V56.8263V56.9267V57.0272V57.1276V57.2281V57.3285V57.429V57.5294V57.6298V57.7303V57.8307V57.9312V58.0316V58.1321V58.2325V58.3329V58.4334V58.5338V58.6343V58.7347V58.8351V58.9356V59.036V59.1364V59.2369V59.3373V59.4378V59.5382V59.6386V59.7391V59.8395V59.9399V60.0404V60.1408V60.2412V60.3417V60.4421V60.5425V60.643V60.6505L69.1543 60.6581C69.1869 61.1963 69.1102 61.7357 68.9293 62.2431C68.7484 62.7505 68.4672 63.215 68.1025 63.6085C67.7379 64.0021 67.2978 64.3163 66.8091 64.5322C66.3203 64.7481 65.7929 64.861 65.2596 64.8643ZM30.7879 60.9404L30.786 60.9399C27.0548 59.831 23.3456 58.607 19.6585 57.2674C18.8418 56.9669 18.0945 56.5013 17.4617 55.8991C16.829 55.2969 16.3243 54.5705 15.9789 53.7646C15.6335 52.9586 15.4543 52.0898 15.4529 51.2116C15.4515 50.4097 15.5981 49.6155 15.8844 48.8691L38.6885 56.2737C38.5144 57.0666 38.1902 57.8187 37.7327 58.4881C37.2343 59.2175 36.5889 59.8324 35.8392 60.2929C35.0895 60.7534 34.2526 61.0489 33.3823 61.1605C32.5119 61.2721 31.6276 61.197 30.7879 60.9404ZM4.67516 46.3643H4.66553L4.65592 46.365L4.67516 46.6143V46.3643ZM2.43185 44.0675L2.43313 44.0545L2.43303 44.0414L2.18304 44.0432L2.43185 44.0675Z" fill="white" stroke="white" stroke-width="0.5"/>
<path d="M101.594 72.1808L101.77 72.3717L101.954 72.1886C122.061 52.1888 120.371 17.5598 100.638 -0.185887L100.451 -0.353913L100.284 -0.166219L99.0105 1.26465L98.8552 1.43911L99.0188 1.60589C108.37 11.1432 113.381 22.3624 113.623 35.6973C113.866 49.0325 109.251 60.5189 100.264 70.4011L100.11 70.5704L100.265 70.7387L101.594 72.1808Z" fill="white" stroke="white" stroke-width="0.5"/>
<path d="M88.416 10.8184L88.2054 10.9942L88.3998 11.1876C94.9279 17.6828 98.6878 26.4927 98.8788 35.7434C99.0699 44.9941 95.6766 53.9547 89.4223 60.7188L89.2494 60.9058L89.4396 61.0752L90.8577 62.3382L91.035 62.4961L91.2018 62.3272C106.08 47.2669 104.044 21.8817 90.0807 9.70416L89.9199 9.56401L89.7562 9.7006L88.416 10.8184Z" fill="white" stroke="white" stroke-width="0.5"/>
<path d="M82.2329 49.442L82.0746 49.6168L82.2399 49.785L83.5909 51.16L83.7684 51.3406L83.9467 51.1608C88.3733 46.699 90.117 40.7603 89.7952 35.1725C89.4736 29.5892 87.0878 24.3276 83.2172 21.223L83.0233 21.0675L82.8667 21.2604L81.7591 22.6241L81.619 22.7965L81.7738 22.9559C85.1907 26.4741 87.1428 31.1799 87.2282 36.1065C87.3137 41.0331 85.5258 45.8053 82.2329 49.442Z" fill="white" stroke="white" stroke-width="0.5"/>
</g>
<defs>
<clipPath id="clip0_995_2747">
<rect width="116" height="72" fill="white"/>
</clipPath>
</defs>
</svg>
