<svg width="158" height="157" viewBox="0 0 158 157" fill="none" xmlns="http://www.w3.org/2000/svg">
<path d="M94.1355 69.4687L94.1929 69.0587C94.5517 66.8549 93.9879 65.4527 91.7206 64.2904C86.6981 61.7176 82.9877 57.6299 80.6158 52.4926C79.6359 50.375 79.0435 48.0647 78.4326 45.7994C78.1989 44.9405 77.9426 44.5038 77.0304 44.2886C71.2535 42.9213 68.1785 37.21 70.3002 31.6729C71.4954 28.5549 73.9103 26.675 77.137 25.896C77.8606 25.7197 78.1107 25.4081 78.2337 24.7009C79.6318 16.6219 83.7277 10.2033 90.4722 5.59291C94.3479 2.9039 98.901 1.35758 103.613 1.13008C109.851 0.847181 116.107 0.925082 122.356 0.888182C123.791 0.888182 125.236 0.859484 126.644 1.05628C130.279 1.56878 132.874 4.60891 132.891 8.2989C132.917 13.7314 132.917 19.1639 132.891 24.5963C132.891 25.3856 133.096 25.7013 133.887 25.8981C139.865 27.3782 142.979 33.358 140.601 38.8561C139.328 41.7999 137.032 43.6449 133.881 44.3234C133.102 44.4915 132.78 44.7806 132.632 45.6129C131.261 53.3065 127.075 59.1921 120.623 63.4068C118.897 64.5364 118.467 65.8094 118.621 67.5868C118.787 69.4953 118.805 69.4522 120.712 69.7146C131.249 71.166 138.907 76.6231 143.575 86.215C143.651 86.3688 143.717 86.5266 143.78 86.6845C144.6 88.6791 144.6 88.6709 146.82 88.6812C148.255 88.6812 149.69 88.7427 151.125 88.7345C154.623 88.714 157.837 91.8976 157.685 96.0509C157.616 97.8959 157.665 99.7409 157.665 101.586C157.665 117.268 157.593 132.951 157.712 148.635C157.745 152.826 154.604 156.22 150.156 156.2C133.551 156.091 116.946 156.157 100.341 156.159H63.9576C60.3434 156.159 57.9388 154.476 56.8461 151.122C56.6754 150.569 56.5897 149.993 56.5919 149.414C56.5653 146.442 56.5714 143.469 56.5776 140.497C56.5776 139.371 57.0347 138.765 57.8445 138.746C58.7055 138.728 59.1913 139.347 59.1975 140.538C59.2118 143.273 59.3225 146.011 59.177 148.738C59.0314 151.464 61.147 153.613 64.0047 153.598C78.1845 153.529 92.3643 153.566 106.544 153.566C121.099 153.566 135.654 153.527 150.209 153.602C152.927 153.617 155.113 151.639 155.096 148.682C155.01 132.76 155.057 116.838 155.059 100.918C155.059 99.1423 155.074 97.367 155.047 95.5876C155.012 93.2424 153.407 91.5225 151.08 91.2826C150.67 91.2416 150.26 91.2519 149.85 91.2519H87.8359C87.4936 91.2733 87.15 91.2581 86.8109 91.2068C86.5014 91.161 86.221 90.9989 86.0268 90.7537C85.8325 90.5084 85.7391 90.1983 85.7654 89.8866C85.7797 89.1465 86.2328 88.7714 86.9318 88.7099C87.4751 88.6607 88.0245 88.6689 88.5718 88.6689H141.62C141.541 88.315 141.439 87.9665 141.316 87.6254C138.752 81.7912 134.563 77.5313 128.848 74.7331C126.023 73.3493 123.034 72.6011 119.931 72.2136C119.111 72.1111 118.701 72.2279 118.465 73.2037C117.78 76.0737 115.679 77.8142 113.135 78.8863C107.938 81.0655 102.805 80.9179 97.9649 77.806C96.1425 76.6334 94.7772 75.0118 94.3877 72.7896C94.2565 72.0414 93.8055 72.1582 93.3442 72.2013C90.5533 72.4686 87.8156 73.1376 85.216 74.1877C84.7527 74.3722 84.0004 74.239 83.576 73.9602C83.2972 73.7798 83.1927 73.0049 83.3321 72.6113C83.4715 72.2177 83.984 71.945 84.3981 71.7687C87.3585 70.5098 90.5095 69.7573 93.7194 69.5425C93.8594 69.5258 93.9983 69.5012 94.1355 69.4687ZM132.903 28.5487C132.903 29.3687 132.903 30.16 132.903 30.9411C132.88 34.6823 130.033 37.6773 126.48 37.6835C122.79 37.6835 119.92 34.8012 119.91 31.0046C119.894 27.862 119.91 24.7194 119.9 21.5747C119.9 21.2139 119.869 20.8531 119.844 20.2811C110.722 25.2401 101.19 26.3204 91.1446 24.3811C91.1446 24.8731 91.1446 25.2421 91.1446 25.6111C91.1446 27.4848 91.1753 29.3605 91.1179 31.2322C91.0236 34.2518 88.8629 36.8881 86.0155 37.5318C82.0693 38.4235 78.2522 35.4347 78.1169 31.3306C78.0861 30.3937 78.1169 29.4569 78.1169 28.4278C77.7794 28.4665 77.4441 28.5226 77.1124 28.5959C73.1682 29.7357 71.1059 34.4425 72.9673 38.1079C74.1973 40.5433 76.2616 41.7978 78.9451 41.97C80.0849 42.0418 80.6527 42.4887 80.706 43.61C80.7183 43.8806 80.7901 44.1492 80.8249 44.4198C81.315 48.1655 82.7382 51.7281 84.9639 54.7804C89.4226 60.9304 95.4537 64.522 103.061 65.299C109.605 65.9652 115.566 64.3006 120.751 60.3073C126.169 56.1355 129.469 50.6313 130.318 43.7576C130.502 42.2632 130.675 42.1176 132.163 41.9967C136.441 41.6543 139.365 37.9931 138.672 33.8685C138.171 31.0272 135.215 28.4688 132.903 28.5528V28.5487ZM130.306 19.6743C130.306 15.9502 130.306 12.2253 130.306 8.49981C130.306 5.94757 128.618 3.98982 126.105 3.60032C125.87 3.55638 125.631 3.52966 125.392 3.52037C118.289 3.56547 111.177 3.43837 104.082 3.72537C99.1141 3.89693 94.3355 5.67346 90.4619 8.78885C83.2993 14.5411 80.0213 22.0892 80.6794 31.2875C80.868 33.9525 83.451 35.6909 85.8658 34.8402C87.3459 34.3174 88.4673 32.7697 88.5001 31.0313C88.5493 28.3335 88.5144 25.6357 88.5411 22.9379C88.5554 21.6075 89.1704 21.1565 90.4496 21.4332C91.8149 21.7284 93.1761 22.0728 94.5496 22.2532C103.182 23.4463 111.347 22.0769 118.965 17.7432C119.642 17.3578 119.937 16.9232 119.916 16.1217C119.877 14.6047 120.232 14.0983 121.165 14.0881C122.097 14.0778 122.46 14.6293 122.462 16.095C122.462 21.0499 122.462 26.0047 122.462 30.9595C122.462 32.8558 123.713 34.4917 125.429 34.914C127.979 35.5413 130.254 33.7147 130.281 30.9452C130.332 27.1957 130.306 23.4361 130.306 19.6784V19.6743ZM96.7452 66.6417C96.8477 68.8147 96.7677 70.7725 97.1039 72.6544C97.27 73.5912 98.0162 74.6449 98.8116 75.2127C103.141 78.3164 107.805 78.5112 112.547 76.2623C114.375 75.3952 115.902 74.0709 116.032 71.8179C116.138 70.0836 116.13 68.333 116.155 66.6007C116.155 66.4244 116.032 66.2461 115.939 66.0001C112.952 67.2296 109.77 67.9169 106.542 68.0296C103.22 68.1486 99.9033 67.6787 96.7452 66.6417Z" fill="white"/>
<path d="M73.0733 72.7345C74.0491 72.7345 74.9696 72.7345 75.89 72.7345C79.6046 72.7734 82.3106 75.4323 82.3168 79.1468C82.3291 85.4301 82.2655 91.7133 82.2676 98.0068C82.2676 108.393 82.2853 118.78 82.3209 129.167C82.3209 133.267 79.7256 135.915 75.6276 135.917C67.77 135.917 59.9103 135.938 52.0527 135.917C46.7658 135.903 41.4788 135.788 36.1919 135.794C26.4954 135.794 16.801 135.88 7.10455 135.911C2.94102 135.923 0.425686 133.386 0.427736 129.195C0.435936 118.74 0.448234 108.285 0.464634 97.8305C0.464634 91.7502 0.435925 85.6699 0.429775 79.5855C0.429775 75.2806 3.03327 72.6955 7.3116 72.716C10.4542 72.7304 13.5989 72.6873 16.7416 72.7427C17.6005 72.7591 17.908 72.5008 18.0659 71.6541C18.7977 67.7345 22.4385 65.4734 26.1859 66.6747C28.5085 67.4188 29.9046 69.1634 30.372 71.5414C30.5524 72.4618 30.8804 72.757 31.8254 72.7509C39.7179 72.7099 47.6104 72.7201 55.5029 72.716C56.7656 72.716 58.0285 72.6955 59.2892 72.716C59.9636 72.7345 60.2711 72.5869 60.4003 71.8017C61.1096 67.5377 65.4351 65.1249 69.1886 66.8817C71.048 67.755 72.2185 69.2782 72.7699 71.2585C72.8847 71.6869 72.9483 72.1338 73.0733 72.7345ZM41.444 87.109H4.35962C3.01893 87.109 3.01483 87.109 3.01483 88.4682C3.01483 93.1791 3.01483 97.8893 3.01483 102.599C3.01483 111.482 3.01483 120.365 3.01483 129.249C3.01483 131.914 4.41907 133.308 7.04921 133.316C17.7092 133.342 28.3637 133.366 39.0127 133.388C43.7277 133.388 48.4427 133.328 53.1454 133.32C60.6278 133.308 68.1089 133.308 75.5887 133.32C78.2537 133.32 79.7153 131.871 79.7174 129.206C79.7174 115.539 79.7174 101.878 79.7174 88.2222C79.7174 87.3858 79.4878 87.0906 78.6206 87.1049C75.685 87.1521 72.7495 87.1275 69.8057 87.1275L41.444 87.109ZM17.8219 75.381C13.9064 75.381 10.118 75.3195 6.34196 75.4056C4.42932 75.4507 3.10912 76.9616 3.04352 78.9316C2.99432 80.4343 3.07837 81.941 3.00867 83.4416C2.96767 84.3354 3.33053 84.5404 4.14232 84.5281C6.80731 84.4912 9.47231 84.5137 12.1373 84.5137H67.1612C70.9844 84.5137 74.8097 84.4871 78.6411 84.5137C79.4837 84.5137 79.7953 84.2616 79.7604 83.4047C79.7051 82.0763 79.7604 80.7397 79.7461 79.4093C79.7235 76.8632 78.2086 75.3544 75.6461 75.3462C71.8536 75.3462 68.0611 75.3462 64.2727 75.3462H62.9833V79.196H63.7684C64.7237 79.196 65.6831 79.1489 66.6384 79.196C67.4133 79.2432 67.9361 79.6922 67.9033 80.5163C67.8725 81.2952 67.4441 81.7934 66.6056 81.7954C63.2949 81.7954 59.9821 81.8139 56.6714 81.7811C56.3044 81.7811 55.794 81.6089 55.6115 81.3404C55.3819 81.0021 55.2015 80.3399 55.3922 80.0714C55.7118 79.6245 56.1938 79.3205 56.7349 79.2247C57.8706 79.1017 59.0247 79.1858 60.2916 79.1858C60.2916 78.497 60.2916 77.9558 60.2916 77.4187C60.2916 75.3277 60.2916 75.3277 58.2088 75.3277H21.5263H20.5013C20.5013 76.4081 20.532 77.3634 20.491 78.3125C20.4623 79.0013 20.7534 79.2022 21.4012 79.1797C22.3565 79.1448 23.3159 79.1427 24.2712 79.2022C25.0482 79.2493 25.6057 79.7352 25.5688 80.5121C25.5724 80.6858 25.5397 80.8584 25.473 81.0188C25.4062 81.1792 25.3068 81.3239 25.1811 81.4438C25.0554 81.5637 24.9062 81.6562 24.7428 81.7153C24.5795 81.7744 24.4056 81.7989 24.2323 81.7872C20.8846 81.7872 17.539 81.7668 14.1873 81.7299C13.8757 81.7299 13.4288 81.6171 13.2894 81.4018C13.0598 81.0431 12.8076 80.4301 12.9675 80.1534C13.2094 79.7291 13.767 79.2822 14.2344 79.2309C15.4029 79.0997 16.594 79.1879 17.8506 79.1879L17.8219 75.381ZM27.8915 72.6484C27.5963 70.2622 25.8415 68.7021 23.9002 68.9461C22.006 69.1859 20.4603 70.951 20.7042 72.6484H27.8915ZM62.9771 72.6484H70.2607C70.0906 70.5348 68.5736 68.9707 66.7061 68.9153C64.8385 68.86 63.2436 70.4077 62.9833 72.6525L62.9771 72.6484Z" fill="white"/>
<path d="M96.7676 122.466C96.7533 116.629 101.278 112.08 107.122 112.054C108.482 112.05 109.829 112.314 111.086 112.831C112.343 113.349 113.486 114.109 114.449 115.069C115.412 116.029 116.176 117.169 116.698 118.424C117.22 119.68 117.488 121.026 117.489 122.386C117.499 123.746 117.242 125.096 116.73 126.357C116.218 127.618 115.463 128.765 114.507 129.734C113.552 130.702 112.414 131.473 111.16 132.002C109.907 132.53 108.561 132.806 107.2 132.814C101.362 132.814 96.784 128.279 96.7676 122.466ZM107.077 130.202C111.368 130.202 114.883 126.742 114.879 122.513C114.879 118.146 111.448 114.661 107.147 114.647C102.762 114.633 99.3568 118.093 99.3568 122.544C99.3691 126.74 102.854 130.198 107.077 130.202Z" fill="white"/>
<circle cx="64.9562" cy="121.237" r="3.19001" stroke="white" stroke-width="1.65354"/>
<circle cx="35.832" cy="31.5293" r="26.3008" stroke="#25694D" stroke-width="2.48032"/>
<path d="M35.9504 32.4878C37.9122 32.4878 39.7449 32.4755 41.5797 32.4878C42.6395 32.4878 43.195 32.9757 43.1356 33.8244C43.0843 34.5399 42.7728 35.0852 41.9466 35.0852C39.4866 35.0852 37.0266 35.1016 34.5666 35.0606C33.5314 35.0421 33.3202 34.2816 33.3223 33.4206C33.3346 29.665 33.3476 25.9108 33.3612 22.1579C33.3612 21.1001 33.3469 20.0403 33.3612 18.9825C33.3756 17.9247 33.8389 17.324 34.6158 17.3015C35.4502 17.2769 35.9873 17.8878 35.9852 18.9722C35.9852 23.0722 35.9545 27.1722 35.936 31.2599C35.9483 31.6268 35.9504 31.9938 35.9504 32.4878Z" fill="#25694D"/>
<path d="M40.3681 110.372C41.8031 108.849 42.9921 107.588 44.1852 106.331C44.371 106.129 44.5771 105.946 44.8002 105.786C45.4152 105.353 46.0302 105.376 46.5509 105.94C47.0716 106.503 46.9998 107.149 46.4935 107.678C45.1733 109.058 43.8121 110.398 42.4796 111.778C40.9995 113.301 40.6572 114.211 38.4575 111.809C37.7687 111.057 36.9959 110.374 36.2927 109.636C35.7536 109.07 35.649 108.394 36.1984 107.791C36.795 107.149 37.5453 107.25 38.1152 107.803C38.8573 108.535 39.503 109.376 40.3681 110.372Z" fill="#25694D"/>
<path d="M40.3681 97.405C41.8031 95.8819 42.9921 94.6211 44.1852 93.3645C44.371 93.1622 44.5771 92.9795 44.8002 92.8192C45.4152 92.3867 46.0302 92.4092 46.5509 92.9729C47.0716 93.5367 46.9998 94.1824 46.4935 94.7113C45.1733 96.091 43.8121 97.4317 42.4796 98.8113C40.9995 100.334 40.6572 101.245 38.4575 98.8421C37.7687 98.0897 36.9959 97.4071 36.2927 96.6691C35.7536 96.1033 35.649 95.4268 36.1984 94.8241C36.795 94.1824 37.5453 94.2829 38.1152 94.8364C38.8573 95.5682 39.503 96.4087 40.3681 97.405Z" fill="#25694D"/>
<path d="M40.3681 123.022C41.8031 121.499 42.9921 120.238 44.1852 118.982C44.371 118.779 44.5771 118.597 44.8002 118.436C45.4152 118.004 46.0302 118.026 46.5509 118.59C47.0716 119.154 46.9998 119.8 46.4935 120.329C45.1733 121.708 43.8121 123.049 42.4796 124.429C40.9995 125.952 40.6572 126.862 38.4575 124.459C37.7687 123.707 36.9959 123.024 36.2927 122.286C35.7536 121.72 35.649 121.044 36.1984 120.441C36.795 119.8 37.5453 119.9 38.1152 120.454C38.8573 121.185 39.503 122.026 40.3681 123.022Z" fill="#25694D"/>
<path d="M63.9589 110.264L67.3045 106.779C67.4459 106.631 67.5832 106.477 67.7308 106.336C68.723 105.387 69.5082 105.237 70.1232 105.875C70.7382 106.512 70.5639 107.246 69.5738 108.242C68.1388 109.698 66.7038 111.16 65.2401 112.601C64.3668 113.464 63.758 113.441 62.8888 112.582C61.9171 111.623 60.9228 110.688 59.9798 109.712C59.2849 108.985 59.2541 108.253 59.8548 107.746C60.5559 107.156 61.2385 107.269 61.8412 107.919C62.5095 108.64 63.1635 109.38 63.9589 110.264Z" fill="#25694D"/>
<path d="M63.9589 97.297L67.3045 93.812C67.4459 93.6644 67.5832 93.5106 67.7308 93.3692C68.723 92.42 69.5082 92.2704 70.1232 92.9079C70.7382 93.5455 70.5639 94.2794 69.5738 95.2757C68.1388 96.7312 66.7038 98.1928 65.2401 99.634C64.3668 100.497 63.758 100.474 62.8888 99.6155C61.9171 98.6561 60.9228 97.7213 59.9798 96.7455C59.2849 96.0178 59.2541 95.2859 59.8548 94.7796C60.5559 94.1892 61.2385 94.3019 61.8412 94.9518C62.5095 95.6734 63.1635 96.4134 63.9589 97.297Z" fill="#25694D"/>
<path d="M15.8865 110.879L19.1665 107.599C19.433 107.335 19.6872 107.056 19.9681 106.81C20.6528 106.211 21.5158 106.154 21.9771 106.718C22.5162 107.382 22.3871 108.071 21.8315 108.653C20.7471 109.782 19.6298 110.881 18.529 111.994C18.0267 112.503 17.5552 113.046 17.0202 113.518C16.1428 114.29 15.5606 114.27 14.7242 113.458C13.6992 112.466 12.7009 111.441 11.6841 110.438C11.024 109.791 11.1572 109.153 11.7292 108.567C12.3011 107.981 12.9018 108.091 13.4532 108.591C14.265 109.313 15.0399 110.072 15.8865 110.879Z" fill="#25694D"/>
<path d="M15.8865 97.9124L19.1665 94.6324C19.433 94.368 19.6872 94.0892 19.9681 93.8432C20.6528 93.2446 21.5158 93.1872 21.9771 93.7509C22.5162 94.4151 22.3871 95.1039 21.8315 95.6861C20.7471 96.8157 19.6298 97.9145 18.529 99.0276C18.0267 99.536 17.5552 100.079 17.0202 100.551C16.1428 101.324 15.5606 101.303 14.7242 100.491C13.6992 99.4991 12.7009 98.4741 11.6841 97.4717C11.024 96.8239 11.1572 96.1863 11.7292 95.6C12.3011 95.0137 12.9018 95.1244 13.4532 95.6246C14.265 96.3462 15.0399 97.1047 15.8865 97.9124Z" fill="#25694D"/>
<path d="M15.8865 123.53L19.1665 120.25C19.433 119.985 19.6872 119.706 19.9681 119.46C20.6528 118.862 21.5158 118.804 21.9771 119.368C22.5162 120.032 22.3871 120.721 21.8315 121.303C20.7471 122.433 19.6298 123.532 18.529 124.645C18.0267 125.153 17.5552 125.696 17.0202 126.168C16.1428 126.941 15.5606 126.92 14.7242 126.108C13.6992 125.116 12.7009 124.091 11.6841 123.089C11.024 122.441 11.1572 121.804 11.7292 121.217C12.3011 120.631 12.9018 120.742 13.4532 121.242C14.265 121.963 15.0399 122.722 15.8865 123.53Z" fill="#25694D"/>
</svg>
