<svg width="167" height="168" viewBox="0 0 167 168" fill="none" xmlns="http://www.w3.org/2000/svg">
<path d="M18.0545 20.6709C16.7318 17.5642 16.5878 14.0816 17.6495 10.8764C18.7112 7.67118 20.9059 4.9634 23.8216 3.26067C26.0969 1.82268 28.7533 1.10545 31.4431 1.20314C34.133 1.30083 36.7308 2.20899 38.8958 3.80825C41.4726 5.64642 43.3511 8.30271 44.2259 11.3447C45.1007 14.3866 44.9202 17.635 43.7135 20.5613C45.0617 21.0511 46.378 21.6239 47.6553 22.2766C49.3045 23.2628 50.6652 24.6659 51.6006 26.3444C52.536 28.023 53.0134 29.918 52.9844 31.8394C52.9844 37.1318 52.9844 42.3875 52.9844 47.6799C53.1125 48.4072 52.9671 49.1563 52.5763 49.7829C52.1855 50.4095 51.5767 50.8696 50.8672 51.0745C47.8378 51.9505 47.2173 53.9213 47.2173 56.8778C47.4728 60.5277 47.2173 63.9222 47.2173 67.4261V69.3241C53.538 67.6031 60.171 67.3656 66.5986 68.6304C66.6247 68.1806 66.6247 67.7297 66.5986 67.2799C66.5986 62.9 66.5986 58.4837 66.5986 54.1038C66.5619 53.7469 66.448 53.4025 66.2653 53.0937C66.0826 52.785 65.8352 52.5192 65.5399 52.3154C60.1016 49.6509 61.1236 49.9795 61.0506 44.6141C61.0506 40.5262 61.0506 36.4383 61.0506 32.3504C60.8835 29.7091 61.6786 27.0965 63.289 24.9962C64.8995 22.896 67.2163 21.4502 69.8105 20.9262L70.3946 20.6709C69.2523 17.9119 69.0184 14.8603 69.7272 11.9595C70.436 9.05874 72.0504 6.45939 74.3364 4.53806C75.7307 3.30066 77.3744 2.37694 79.1563 1.82913C80.9382 1.28133 82.8168 1.12223 84.6655 1.36265C86.8428 1.55084 88.9395 2.2761 90.7677 3.47365C92.5958 4.67119 94.0984 6.30363 95.1407 8.22451C96.2024 10.05 96.8335 12.0938 96.9853 14.2002C97.1371 16.3065 96.8056 18.4197 96.0167 20.3786C97.7771 21.1802 99.484 22.0946 101.127 23.116C102.417 24.0365 103.467 25.2525 104.191 26.6621C104.915 28.0718 105.291 29.6341 105.288 31.2187C105.288 36.8761 105.288 42.5335 105.288 48.1544C105.359 48.7242 105.231 49.3015 104.925 49.7873C104.619 50.2732 104.154 50.6375 103.609 50.8188C99.9589 51.8772 99.4845 54.1405 99.6305 57.4984C99.9225 64.2508 99.6305 71.0394 99.6305 77.8283C99.6305 80.7847 98.8275 81.4782 95.9806 81.4782H90.0673C89.8734 81.4537 89.6775 81.4537 89.4836 81.4782C89.7017 81.871 89.9454 82.2492 90.2134 82.6099C95.4387 88.663 98.7377 96.1386 99.6871 104.079C100.636 112.018 99.193 120.061 95.5422 127.175C92.0056 134.676 86.2715 140.925 79.1006 145.09C71.9297 149.256 63.6611 151.142 55.3931 150.498C50.172 150.096 45.072 148.722 40.3554 146.447C40.192 146.333 40.007 146.254 39.8118 146.214C39.6167 146.175 39.4155 146.176 39.2206 146.217C39.0257 146.258 38.8414 146.338 38.6788 146.453C38.5162 146.568 38.3789 146.715 38.2752 146.885C36.7057 148.527 35.0634 150.133 33.4575 151.703C31.8515 153.272 30.2819 153.893 27.873 151.703C27.289 152.214 26.6686 152.761 26.1211 153.309L13.7478 165.719C11.9594 167.544 10.6455 167.544 8.82051 165.719C6.33857 163.273 3.85662 160.755 1.52068 158.419C1.15892 158.158 0.864012 157.816 0.660772 157.419C0.457532 157.022 0.351562 156.583 0.351562 156.138C0.351562 155.692 0.457532 155.252 0.660772 154.856C0.864012 154.459 1.15892 154.117 1.52068 153.856C5.93708 149.403 10.317 144.95 14.7699 140.571C15.4634 139.877 15.7551 139.402 14.9521 138.526C14.6889 138.256 14.4861 137.934 14.3569 137.58C14.2277 137.225 14.1751 136.848 14.2027 136.472C14.2303 136.095 14.3373 135.73 14.5168 135.398C14.6963 135.067 14.9442 134.777 15.244 134.548C17.0324 132.76 18.8942 130.898 20.6097 129.183C20.9828 128.918 21.2371 128.518 21.319 128.068C21.4008 127.617 21.3037 127.153 21.0476 126.774C18.5634 121.687 17.1695 116.137 16.9557 110.48C16.742 104.823 17.713 99.1842 19.8064 93.9245C21.3633 89.7468 23.6499 85.8787 26.5591 82.5003L27.4715 81.2594H25.6466H17.58C15.244 81.2594 14.1858 80.3104 14.1858 78.0109C14.1858 73.3025 14.1858 68.6307 14.1858 63.9223C14.1858 60.2724 14.1858 56.8779 14.1858 53.374C14.1324 53.0945 14.0201 52.8293 13.8565 52.5965C13.6929 52.3637 13.4816 52.1685 13.2368 52.0235C8.05389 49.4321 8.74741 50.1255 8.71091 44.1761C8.71091 40.5262 8.71091 36.8761 8.71091 33.4817C8.37076 30.5623 9.14347 27.6221 10.8754 25.2475C12.6073 22.8729 15.1708 21.2389 18.0545 20.6709ZM33.8224 73.3389V67.9371H39.2607V72.3899C41.9616 71.6964 42.0712 71.5868 42.0712 69.0684V54.1769C42.0712 48.9575 41.7426 49.5414 46.4875 47.2419C46.8424 47.1148 47.1455 46.8742 47.35 46.5576C47.5546 46.2409 47.6493 45.8658 47.6192 45.49C47.6192 40.9276 47.6192 36.3653 47.6192 31.8394C47.6342 31.0844 47.4959 30.3344 47.2128 29.6344C46.9297 28.9343 46.5076 28.2989 45.972 27.7666C45.4363 27.2344 44.798 26.8164 44.0962 26.5378C43.3944 26.2592 42.6434 26.1258 41.8885 26.1457H38.4578C37.8618 26.2027 37.2636 26.0572 36.7603 25.7327C36.257 25.4082 35.878 24.9233 35.6839 24.3569C35.4706 23.8246 35.4296 23.2391 35.5671 22.6825C35.7046 22.1259 36.0136 21.6262 36.4502 21.2545C36.9102 20.8359 37.3259 20.3711 37.691 19.8675C38.924 18.1532 39.4592 16.0346 39.1881 13.9404C38.917 11.8462 37.8599 9.93325 36.231 8.58941C34.5543 7.21347 32.4071 6.54652 30.246 6.73059C28.0848 6.91466 26.0808 7.93528 24.661 9.57496C23.209 11.1671 22.4442 13.268 22.5331 15.421C22.622 17.574 23.5573 19.6052 25.1355 21.0723C25.6997 21.4703 26.1046 22.0553 26.2784 22.7235C26.4521 23.3917 26.3834 24.0998 26.0846 24.7222C25.821 25.2896 25.3778 25.7543 24.8237 26.0446C24.2695 26.3349 23.6348 26.4343 23.0183 26.328H20.2082C19.4035 26.2673 18.5951 26.3817 17.8388 26.6635C17.0826 26.9452 16.3961 27.3876 15.8272 27.96C15.2583 28.5324 14.8202 29.2213 14.5431 29.9792C14.266 30.7372 14.1567 31.5461 14.2223 32.3504C14.2223 36.0003 14.2223 39.6504 14.2223 43.0449C14.0759 43.6203 14.0461 44.219 14.1345 44.8061C14.223 45.3932 14.4279 45.9568 14.7374 46.4636C15.0468 46.9703 15.4544 47.4097 15.9363 47.7565C16.4183 48.1034 16.9647 48.3507 17.5434 48.4832C19.4049 49.0672 19.916 50.4904 19.916 52.3519C19.916 59.6517 19.916 66.9518 19.916 74.5071C19.916 76.0401 20.3906 76.4412 21.8505 76.4047C25.2084 76.4047 28.6029 76.2222 31.9243 76.4047C34.4428 76.4047 35.5743 74.8721 37.3992 73.5216L33.8224 73.3389ZM100.251 38.6282C100.251 37.1682 100.251 35.7084 100.251 34.285C100.725 28.0436 98.0972 25.7077 92.0018 26.1457C91.3513 26.2755 90.6818 26.2755 90.0312 26.1457C88.0237 25.4157 87.2937 23.0066 89.5567 20.9262C90.9967 19.503 91.8601 17.5979 91.9813 15.5769C92.1026 13.556 91.4729 11.5616 90.2134 9.9764C88.9539 8.35668 87.1472 7.2517 85.1315 6.86871C83.1158 6.48573 81.0294 6.85122 79.2637 7.89614C78.1364 8.54212 77.1777 9.44485 76.4656 10.5315C75.7535 11.6183 75.3083 12.858 75.166 14.1494C75.0237 15.4408 75.1883 16.7476 75.6467 17.9633C76.1051 19.179 76.844 20.2694 77.8036 21.1454C78.2855 21.508 78.6379 22.0159 78.8088 22.5943C78.9797 23.1727 78.96 23.7905 78.7526 24.3569C78.5191 24.9343 78.1049 25.421 77.5719 25.7434C77.039 26.0658 76.4163 26.2069 75.7964 26.1457H72.6941C71.9147 26.0977 71.1338 26.2159 70.4035 26.4924C69.6732 26.7689 69.01 27.1971 68.4578 27.7493C67.9057 28.3014 67.477 28.9647 67.2005 29.695C66.924 30.4252 66.8058 31.2061 66.8539 31.9855C66.8539 35.6354 67.0363 39.2851 66.8539 43.154C66.8539 45.8185 67.4013 47.461 69.9927 48.2275C70.801 48.5003 71.4886 49.0476 71.9353 49.7744C72.382 50.5012 72.5599 51.3614 72.4383 52.2058C72.4383 57.6441 72.4383 63.1558 72.4383 68.4847C72.3568 68.99 72.4643 69.5076 72.7404 69.9385C73.0165 70.3695 73.4418 70.6836 73.9349 70.8207C75.536 71.2487 77.0451 71.966 78.3877 72.9375C80.3819 74.4004 82.6527 75.4426 85.062 76.0011C87.4714 76.5595 89.9689 76.6225 92.4033 76.186H93.1701C94.484 76.186 94.8489 75.7842 94.8489 74.5432C94.8489 67.7544 94.8489 60.9657 94.8489 54.1769C94.8489 48.8845 94.5936 49.5414 99.1195 47.315C99.5305 47.1815 99.8809 46.9065 100.108 46.5388C100.335 46.1712 100.425 45.7352 100.36 45.3078C100.178 43.0814 100.251 41.0006 100.251 38.6282ZM58.5689 73.3389C49.1024 73.3282 40.0119 77.0442 33.2636 83.6832C26.5154 90.3222 22.6516 99.3506 22.5077 108.816C22.4594 113.598 23.3608 118.342 25.1596 122.773C26.9584 127.204 29.6186 131.234 32.9865 134.629C36.3545 138.024 40.3628 140.717 44.7792 142.551C49.1957 144.386 53.9324 145.325 58.7146 145.315C63.4787 145.291 68.1914 144.328 72.5822 142.479C76.9731 140.631 80.9561 137.934 84.3028 134.543C87.6494 131.152 90.2938 127.134 92.0847 122.72C93.8757 118.305 94.7778 113.58 94.7393 108.816C94.567 99.3406 90.6792 90.3125 83.9134 83.6765C77.1476 77.0405 68.0459 73.3278 58.5689 73.3389ZM6.95902 156.813C8.23649 157.98 9.51396 159.075 10.6089 160.462C11.2294 161.083 11.6672 160.864 12.1782 160.462C15.8281 156.813 19.6973 152.98 23.4202 149.184C23.6392 148.965 23.7852 148.235 23.4202 148.053C22.1792 146.702 20.865 145.461 19.5145 144.147L6.95902 156.813ZM24.1865 133.38C23.3835 134.329 22.5803 135.351 21.6313 136.3C20.6823 137.249 21.0108 137.395 21.6313 137.943C21.9413 138.216 22.2342 138.509 22.5077 138.819L30.6104 147.14L34.2603 143.49L24.1865 133.38Z" fill="#25694D"/>
<path d="M156.349 84.1798C157.897 84.4156 159.424 84.7821 160.911 85.2749C162.636 85.8958 164.122 87.0446 165.157 88.5582C166.193 90.0717 166.725 91.8729 166.678 93.706C166.678 104.364 166.678 115.022 166.678 125.679C166.331 127.331 165.606 128.88 164.561 130.205C163.758 131.629 162.626 132.906 161.823 134.33C161.442 135.048 161.254 135.853 161.276 136.666C161.276 144.695 161.276 152.689 161.276 160.719C161.276 162.179 161.276 163.602 161.276 165.026C161.266 165.658 161.008 166.261 160.558 166.705C160.107 167.149 159.5 167.398 158.867 167.398C157.371 167.398 155.874 167.398 154.378 167.398H126.456C123.28 167.398 122.806 166.704 122.806 163.565C122.806 154.623 122.806 145.681 122.806 136.702C122.781 135.696 122.492 134.714 121.967 133.855C120.799 131.848 119.339 129.986 118.317 128.015C117.792 127.141 117.491 126.151 117.44 125.132C117.44 114.985 117.44 104.851 117.44 94.7281C117.307 93.4093 117.453 92.0772 117.868 90.8184C118.284 89.5596 118.959 88.4025 119.85 87.4216C120.742 86.4406 121.829 85.6581 123.043 85.1248C124.256 84.5915 125.568 84.3192 126.894 84.3259L127.733 84.1432C127.332 83.0483 126.93 82.0629 126.602 81.0409C125.899 78.9504 125.627 76.7397 125.801 74.5413C125.976 72.3428 126.593 70.2021 127.616 68.2484C128.639 66.2946 130.046 64.5679 131.753 63.1723C133.461 61.7766 135.433 60.7406 137.551 60.1269C139.267 59.616 139.742 58.8858 139.669 57.2434C139.669 53.5934 139.669 50.2359 139.669 46.6955C139.669 45.491 139.084 45.3811 138.135 45.3811H123.536C120.944 45.3811 119.886 44.4322 119.886 41.7312V4.79406C119.886 1.83763 120.725 0.961914 123.536 0.961914H160.035C163.685 0.961914 164.269 1.69195 164.232 5.12287V41.1475C164.232 44.542 163.539 45.272 160.181 45.272H146.384C145.216 45.272 144.742 45.5637 144.779 46.8047C144.779 50.3816 144.779 53.9587 144.779 57.5356C144.709 57.8258 144.703 58.1275 144.763 58.4201C144.822 58.7126 144.945 58.9887 145.122 59.2287C145.3 59.4688 145.527 59.6672 145.79 59.8097C146.052 59.9523 146.342 60.0355 146.64 60.0539C150.174 60.9608 153.296 63.0392 155.497 65.9493C157.698 68.8595 158.847 72.4295 158.758 76.0771C158.459 78.359 157.946 80.6075 157.224 82.7928C156.986 83.2866 156.692 83.7518 156.349 84.1798ZM155.692 161.996V160.062C155.692 151.886 155.692 143.71 155.692 135.534C155.759 134.243 156.148 132.988 156.823 131.884C157.882 129.95 159.305 128.234 160.473 126.337C160.906 125.644 161.157 124.853 161.203 124.037C161.203 114.134 161.203 104.242 161.203 94.3632C161.241 93.7798 161.154 93.195 160.947 92.6483C160.739 92.1016 160.418 91.6057 160.002 91.194C159.587 90.7823 159.089 90.4645 158.54 90.2619C157.992 90.0594 157.406 89.977 156.823 90.02H150.764C149.268 90.02 147.954 89.7645 147.406 88.1585C147.173 87.4801 147.188 86.7409 147.449 86.0725C147.709 85.4041 148.199 84.8499 148.83 84.5086C150.298 83.2695 151.422 81.6738 152.096 79.8749C152.769 78.076 152.969 76.134 152.676 74.2356C152.383 72.3372 151.606 70.5462 150.421 69.0343C149.237 67.5224 147.683 66.3403 145.91 65.6018C143.708 64.8301 141.328 64.7266 139.068 65.3046C136.807 65.8827 134.769 67.1164 133.208 68.8503C132.231 69.9833 131.497 71.3045 131.05 72.7323C130.604 74.1602 130.455 75.6644 130.612 77.1522C130.769 78.6399 131.23 80.0798 131.965 81.3826C132.7 82.6855 133.695 83.8237 134.887 84.7274C135.412 85.0732 135.807 85.583 136.012 86.1772C136.217 86.7714 136.219 87.4167 136.019 88.0124C135.798 88.6245 135.371 89.141 134.812 89.4738C134.253 89.8066 133.596 89.9351 132.952 89.8373H126.894C126.286 89.7424 125.664 89.7898 125.077 89.9759C124.491 90.162 123.955 90.4817 123.513 90.9098C123.071 91.3378 122.734 91.8626 122.529 92.4429C122.324 93.0232 122.256 93.6428 122.331 94.2536C122.331 104.181 122.331 114.146 122.331 124.074C122.337 124.739 122.513 125.393 122.843 125.972C123.8 127.563 124.848 129.099 125.981 130.571C127.276 132.248 127.935 134.33 127.843 136.447C127.843 144.367 127.843 152.288 127.843 160.208C127.843 161.631 128.208 162.069 129.631 162.069C137.625 162.069 145.581 162.069 153.538 162.069L155.692 161.996ZM158.538 40.0159V38.4101C158.538 28.4093 158.538 18.4083 158.538 8.44398C158.538 6.94751 158.027 6.65555 156.677 6.65555C146.749 6.65555 136.822 6.65555 126.894 6.65555C125.47 6.65555 125.032 7.05705 125.032 8.48051C125.032 18.4083 125.032 28.3484 125.032 38.3005C125.032 39.651 125.361 40.1255 126.857 40.1255C136.712 40.1255 146.603 40.1255 156.495 40.1255L158.538 40.0159Z" fill="#25694D"/>
<path d="M36.3013 34.2465L33.6004 34.5384V45.4881C31.9944 45.4881 30.498 45.4881 29.038 45.4881C28.7095 45.4881 28.1986 44.7218 28.1621 44.2838C28.1621 41.5099 28.1621 38.7358 28.1621 35.9254C28.1621 34.7939 27.87 34.2463 26.6655 34.4288C25.461 34.6113 25.3881 34.1003 25.3516 33.0783C25.3516 29.0269 25.3518 29.0635 29.2207 29.0635H35.097C35.973 29.0635 36.3378 29.3557 36.3013 30.2317C36.2648 31.1077 36.3013 32.8596 36.3013 34.2465Z" fill="#25694D"/>
<path d="M86.3072 45.453H80.9415C80.9415 44.869 80.9415 44.3216 80.9415 43.7741C80.9415 41.1462 80.9415 38.4816 80.9415 35.8536C80.9415 34.8682 80.759 34.2111 79.591 34.3936C78.4231 34.5761 78.2045 33.9925 78.168 32.9705C78.168 29.0286 78.168 29.0283 81.8179 29.0283C83.5698 29.0283 85.4676 29.0283 87.0736 29.0283C88.6795 29.0283 89.154 29.5395 88.935 30.9994C88.8805 31.3991 88.8805 31.8041 88.935 32.2037C88.935 33.5907 88.935 34.7587 87.0736 34.5032C86.8546 34.5032 86.2707 35.3426 86.2707 35.7806C86.2707 38.445 86.2707 41.1463 86.2707 43.8472L86.3072 45.453Z" fill="#25694D"/>
<path d="M91.7087 73.3379H87.5112C86.6717 73.3379 86.416 73.0097 86.416 72.2432V67.9727H91.7087V73.3379Z" fill="#25694D"/>
<path d="M89.04 108.961C89.1327 116.888 86.1369 124.54 80.6869 130.296C75.2369 136.053 67.7606 139.462 59.8407 139.803C55.7989 139.944 51.7692 139.279 47.9869 137.848C44.2046 136.416 40.7453 134.246 37.8102 131.463C34.8751 128.681 32.5231 125.343 30.8913 121.642C29.2594 117.942 28.3804 113.954 28.3053 109.91C28.2017 101.963 31.1883 94.2854 36.6357 88.4976C42.0831 82.7097 49.5655 79.2636 57.5047 78.8858C61.5566 78.7644 65.5922 79.4485 69.3776 80.8988C73.163 82.3491 76.6226 84.5366 79.5561 87.3343C82.4896 90.132 84.8386 93.4844 86.4665 97.1969C88.0945 100.909 88.9694 104.908 89.04 108.961ZM58.6359 134.511C65.2165 134.501 71.5284 131.898 76.202 127.265C80.8757 122.633 83.5344 116.344 83.6017 109.764C83.6306 106.461 83.0055 103.184 81.7625 100.124C80.5194 97.0629 78.6829 94.2783 76.3589 91.9305C74.0348 89.5827 71.2689 87.7182 68.221 86.4441C65.173 85.1699 61.9029 84.5115 58.5994 84.5068C55.2697 84.5009 51.9729 85.1619 48.903 86.4512C45.833 87.7404 43.0525 89.6315 40.7254 92.013C38.3983 94.3944 36.5718 97.2181 35.3539 100.317C34.136 103.416 33.5512 106.728 33.6341 110.056C33.787 116.575 36.492 122.774 41.1674 127.32C45.8428 131.866 52.1151 134.395 58.6359 134.364V134.511Z" fill="#25694D"/>
<path d="M150.073 101.041C148.54 101.041 147.189 101.041 145.875 101.041C144.561 101.041 144.488 101.442 144.488 102.501C144.488 107.866 144.488 113.232 144.488 118.634V120.386H139.123V101.15H133.502C133.502 99.3985 133.502 97.8658 133.502 96.3693C133.502 96.0773 134.049 95.6025 134.341 95.6025H148.941C149.151 95.659 149.342 95.7696 149.496 95.9233C149.65 96.0771 149.761 96.2685 149.817 96.4785C150.146 97.8655 150.073 99.3984 150.073 101.041Z" fill="#25694D"/>
<path d="M152.734 159.113H147.369C147.369 157.58 147.369 156.12 147.369 154.623C147.433 154.431 147.543 154.257 147.689 154.117C147.835 153.978 148.014 153.876 148.209 153.82C149.669 153.82 151.128 153.82 152.698 153.82L152.734 159.113Z" fill="#25694D"/>
<path d="M150.51 10.999L155.182 13.6999C153.868 16.0724 152.663 18.2988 151.532 20.5618L144.561 32.6428C143.648 34.2852 142.079 34.9788 140.692 34.0298C137.042 31.3653 133.136 28.5187 129.268 25.6352L131.932 21.9853C132.479 21.1823 133.027 21.5473 133.611 21.9853C136.02 23.8468 138.465 25.635 141.093 27.6424L150.51 10.999Z" fill="#25694D"/>
<path d="M58.5328 95.2736C54.8681 95.4267 51.3949 96.9535 48.8048 99.5504C46.2146 102.147 44.6969 105.624 44.5533 109.289H39.2246C39.2923 107.781 39.4755 106.28 39.7722 104.8C40.7749 100.807 43.0251 97.2386 46.1956 94.6129C49.3662 91.9872 53.2916 90.4413 57.4011 90.2002C57.7661 90.2002 58.4597 90.6019 58.4597 90.8574C58.5692 92.0983 58.5328 93.7772 58.5328 95.2736Z" fill="#25694D"/>
</svg>
