<svg width="100" height="104" viewBox="0 0 100 104" fill="none" xmlns="http://www.w3.org/2000/svg">
<path d="M25.3274 72.3841C25.3274 66.8828 25.3274 61.3779 25.3274 55.8731C25.3274 52.2758 27.1989 50.6036 30.8837 50.3577C33.7965 50.1645 36.3453 51.0428 38.9814 51.9807C48.084 55.2373 57.1648 58.4938 66.2893 61.6871C67.4818 62.0936 68.735 62.3096 69.9996 62.3264C74.3069 62.4002 78.6143 62.3264 82.9217 62.3616C86.9268 62.3862 88.7474 64.1181 88.7765 67.9226C88.802 70.4976 88.8165 73.0726 88.7765 75.6511C88.7219 78.4861 87.5494 79.9967 84.7203 80.7098C83.628 80.9803 83.4533 81.5213 83.4606 82.4453C83.4897 87.4793 83.4606 92.5134 83.4606 97.551C83.4606 100.987 81.4871 103.063 78.2903 103.049C75.0934 103.035 73.1017 100.881 73.0945 97.5194C73.0945 92.545 73.0544 87.5707 73.1127 82.5963C73.1127 81.3387 72.8068 80.8398 71.4014 80.8398C69.2917 80.7872 67.1945 81.1668 65.248 81.9534C55.5009 85.9969 45.7501 90.0333 35.8938 93.8097C33.8876 94.5755 31.3789 94.5123 29.1651 94.2629C26.7147 93.9959 25.3711 92.0111 25.3566 89.415C25.3056 83.7556 25.3311 78.0611 25.3274 72.3841ZM35.7554 90.2792C36.0427 90.2683 36.3282 90.2294 36.6074 90.1632C46.0414 86.299 55.479 82.4839 64.8766 78.5704C65.441 78.3351 65.9689 77.3549 65.9944 76.705C66.1073 73.431 65.9944 70.1533 66.0782 66.8687C66.1218 65.4635 65.6012 64.8242 64.2285 64.3429C56.5349 61.666 48.8814 58.8802 41.2134 56.1401C39.4766 55.5183 37.7216 54.9387 35.7518 54.2642L35.7554 90.2792ZM76.994 77.6571C79.0512 77.6571 81.1084 77.636 83.1838 77.6571C84.7713 77.6746 85.525 76.9755 85.5105 75.4333C85.4886 72.8572 85.4886 70.288 85.5105 67.7259C85.5287 66.1872 84.7568 65.46 83.1947 65.46C79.0804 65.46 74.9623 65.46 70.8479 65.46C69.8066 65.46 69.2932 65.727 69.3114 66.8371C69.3599 69.9871 69.3599 73.1406 69.3114 76.2975C69.3114 77.4006 69.7884 77.7027 70.837 77.6781C72.8942 77.6219 74.9478 77.6571 77.0086 77.6571H76.994ZM32.1872 91.1082V53.7091C29.2743 53.263 28.5461 53.818 28.5461 56.3895C28.5461 67.1017 28.5461 77.8116 28.5461 88.5192C28.5643 91.0661 29.3544 91.6352 32.2017 91.1082H32.1872ZM80.2237 90.0789C80.2237 87.4512 80.1836 84.8095 80.2237 82.1923C80.2564 80.5588 79.0876 80.9171 78.1046 80.8503C77.0122 80.7766 76.426 81.0119 76.4406 82.2555C76.4952 87.395 76.4661 92.5345 76.4624 97.6775C76.4624 98.8614 76.8265 99.8169 78.2538 99.8274C79.743 99.8274 80.2055 98.8719 80.2091 97.6108C80.2309 95.1095 80.2237 92.5977 80.2237 90.0789Z" fill="white"/>
<path d="M83.9123 16.4824C83.428 16.8583 83.1841 17.0234 82.9656 17.2201C80.1365 19.767 80.1365 19.7705 81.8733 23.0692C86.8033 32.5016 80.0528 44.1471 69.1551 44.9691C68.2812 45.0359 67.6987 44.9024 67.7496 43.9152C67.8006 42.9281 67.3855 41.8847 69.1624 41.681C75.3522 40.9784 79.7651 36.4115 80.1766 30.4394C80.3768 27.5623 79.5831 24.9346 77.2965 22.1032C76.1568 23.424 75.1119 24.4849 74.2708 25.6934C73.9686 26.1395 74.0414 26.9827 74.2344 27.5518C75.4468 31.1104 73.5972 34.8798 69.9525 36.0567C69.308 36.2159 68.652 36.3275 67.99 36.3904C67.5894 34.7358 67.4037 33.5063 69.41 32.7756C70.9137 32.2275 71.4999 30.8505 71.1285 28.8832L68.7764 30.7275C68.1247 30.0249 67.2945 29.0026 66.5918 28.2227C67.1088 27.6045 67.8589 27.2778 68.5325 26.4663C66.5335 25.9393 65.1171 26.6525 64.5855 28.0541C63.8246 30.053 62.4592 29.6561 60.9991 29.5296C60.5658 25.5002 65.1718 22.0083 69.3735 23.3503C71.1285 23.9088 71.8422 23.3292 73.0838 22.3455C73.9941 21.643 74.5657 21.1757 75.5451 20.4275C72.0242 17.8384 68.6271 17.1639 64.9861 17.9684C58.7562 19.3736 55.7633 23.5646 54.9622 29.505C54.4598 29.5471 54.0447 29.6069 53.6332 29.6069C53.1599 29.6069 52.6829 29.5507 51.7435 29.4909C52.1076 27.7555 52.2496 26.0728 52.8359 24.5447C53.6306 22.4169 54.9096 20.488 56.5788 18.8999C58.2479 17.3118 60.2648 16.1049 62.4811 15.3679C64.6973 14.6308 67.0566 14.3824 69.3855 14.641C71.7143 14.8995 73.9535 15.6584 75.9384 16.8618C77.4276 17.7611 78.1485 17.4485 79.3828 16.4859C80.344 15.7376 80.9739 15.1475 82.0335 14.4027C78.123 11.1778 74.2598 9.62858 69.9452 9.24918C57.6129 8.1707 47.5818 16.2962 46.3948 28.3316C46.231 29.9933 45.1641 29.5401 44.2102 29.6139C42.8703 29.7123 42.9431 28.8797 43.0414 28.0014C44.0354 18.9099 48.5576 12.0455 57.2415 8.21637C65.7798 4.44695 74.1106 5.31816 82.0007 10.282C82.7289 10.7457 84.0943 11.4518 84.3711 11.2059C85.5144 10.1907 86.7887 8.97868 87.1929 7.60862C87.6735 5.98562 87.3676 4.12726 87.2912 2.37429C87.2438 1.23257 87.6553 0.825073 88.8496 0.82156C90.0438 0.818047 90.6701 1.15529 90.5754 2.41996C90.5026 3.58275 90.6191 4.76311 90.5536 5.93293C90.4844 7.18707 90.9177 7.74563 92.3195 7.66483C94.0016 7.56646 95.6947 7.64023 97.3332 7.64023C98.1342 10.5209 97.9595 10.7562 95.1486 10.7598C94.0566 10.7132 92.9628 10.7214 91.8716 10.7843C90.8885 10.8827 89.7161 10.9214 89.0025 11.4553C86.1989 13.5631 86.2571 13.6299 88.1978 16.4754C90.5726 19.8969 91.9864 23.8545 92.3012 27.9612C92.616 32.0678 91.8209 36.183 89.9936 39.9044C88.1663 43.6258 85.3695 46.826 81.8764 49.1921C78.3834 51.5583 74.3137 53.0095 70.0653 53.4037C69.217 53.4916 67.9426 54.1555 67.7169 52.4201C67.5021 50.769 68.2958 50.3721 69.825 50.2034C85.5835 48.468 94.0017 32.1959 85.8967 19.1839C85.3432 18.2986 84.6551 17.4871 83.9123 16.4824Z" fill="white"/>
<path d="M35.61 24.8117C35.61 30.7206 35.61 36.6329 35.61 42.5452C35.61 46.6273 33.8587 48.3451 29.6897 48.3557C24.2281 48.3721 18.7665 48.3721 13.3049 48.3557C9.48546 48.3381 7.56664 46.5219 7.55935 42.8684C7.53751 30.6901 7.53751 18.5118 7.55935 6.33349C7.55935 2.7608 9.48181 0.884868 13.1556 0.856765C18.7993 0.816951 24.4405 0.816951 30.0793 0.856765C33.7203 0.884868 35.5773 2.7046 35.5955 6.18947C35.6319 12.4039 35.61 18.6078 35.61 24.8117ZM32.3331 22.8691C32.3331 19.3561 32.3003 15.8431 32.3331 12.3301C32.3331 11.2376 32.0236 10.7388 30.8002 10.7458C24.6759 10.7809 18.5505 10.7809 12.4238 10.7458C11.2295 10.7458 10.829 11.1814 10.8363 12.2915C10.863 19.3737 10.863 26.4546 10.8363 33.5344C10.8363 34.6902 11.3242 35.038 12.4711 35.031C18.5395 34.9935 24.608 34.9935 30.6764 35.031C31.9471 35.031 32.3695 34.6129 32.3477 33.401C32.3003 29.8915 32.344 26.382 32.344 22.8691H32.3331ZM21.6757 38.1224C18.5881 38.1224 15.4859 38.1505 12.4165 38.1224C11.3642 38.1224 10.8217 38.414 10.8618 39.503C10.9055 40.729 10.8618 41.9621 10.8836 43.1811C10.8836 44.646 11.7393 45.2889 13.1884 45.2889C18.8175 45.2889 24.4466 45.2889 30.0756 45.2889C31.5321 45.2889 32.344 44.6144 32.3295 43.1424C32.3295 41.9761 32.2712 40.8028 32.3295 39.6295C32.3877 38.4561 31.8889 38.1013 30.7347 38.1189C27.7454 38.154 24.7123 38.1224 21.6866 38.1224H21.6757ZM21.5301 7.64383C24.5631 7.64383 27.5961 7.64383 30.6327 7.64383C31.3609 7.64383 32.3003 7.85813 32.3331 6.63913C32.3586 5.53254 32.3112 4.47162 30.9604 4.09924C30.4821 4.00094 29.9922 3.96549 29.504 3.99386C24.2245 3.99386 18.9449 3.99386 13.6654 3.99386C13.177 3.96295 12.6866 3.99962 12.209 4.10276C10.8618 4.48567 10.8254 5.56064 10.8654 6.6602C10.9091 7.86164 11.8339 7.64384 12.584 7.64735C15.5951 7.65438 18.5662 7.64383 21.5556 7.64383H21.5301Z" fill="white"/>
<path d="M63.9551 43.4233C63.9551 46.2864 63.9187 49.153 63.9551 52.0161C63.9769 53.1508 63.5691 53.5021 62.3785 53.5302C52.0051 53.7761 42.9608 45.2501 42.9316 35.1819C42.9316 33.861 43.2957 33.2814 44.7522 33.2954C50.6313 33.3493 56.5104 33.3493 62.3895 33.2954C63.6056 33.2954 63.9697 33.7135 63.9515 34.8271C63.9223 37.6901 63.9551 40.5462 63.9551 43.4233ZM60.7036 50.1507C60.7036 45.8332 60.74 41.6317 60.6345 37.4372C60.6345 37.0859 59.6841 36.4817 59.1598 36.4641C56.3125 36.3658 53.4652 36.4149 50.6143 36.4149H46.7183C46.427 43.0826 53.7419 50.2455 60.7036 50.1507Z" fill="white"/>
<path d="M96.0944 36.9138C96.7498 36.8401 97.1613 36.7628 97.5727 36.7593C98.1116 36.7593 98.665 36.8014 99.2986 36.8331C99.3781 37.2983 99.4316 37.7674 99.4588 38.2382C99.4588 48.4071 99.4588 58.576 99.4588 68.7449C99.4588 71.2953 98.0388 73.3329 95.7704 73.7614C93.3564 74.2146 92.0419 74.5273 92.9194 71.0775C96.0908 70.4768 96.0908 70.4768 96.0908 67.2133C96.0908 57.8032 96.0908 48.3931 96.0908 38.983L96.0944 36.9138Z" fill="white"/>
<path d="M3.7687 36.9279V39.0883C3.7687 48.6202 3.7687 58.1533 3.7687 67.6875C3.7687 70.5365 4.13278 70.8772 7.15122 70.8843C7.75563 70.8843 8.36733 70.9229 8.97174 70.8843C10.166 70.7929 10.9052 71.0037 10.9015 72.4475C10.8979 73.8914 10.1223 74.0565 8.94628 74.0038C7.77021 73.9511 6.64149 74.0249 5.49456 73.9722C2.6072 73.8422 0.783045 72.1454 0.546377 69.3526C0.466273 68.362 0.495396 67.3643 0.495396 66.3701C0.495396 57.3628 0.495396 48.3556 0.495396 39.3483C0.495396 36.5239 0.495393 36.5239 3.7687 36.9279Z" fill="white"/>
<path d="M39.615 5.97153C42.7827 5.97153 45.8048 5.92938 48.7978 6.03126C49.1437 6.03126 49.7481 6.88843 49.7153 7.30999C49.668 7.9107 49.1728 8.96459 48.8233 8.98215C46.0488 9.12267 43.2342 9.28778 40.4889 8.98215C38.6684 8.78543 39.8298 7.17297 39.615 5.97153Z" fill="white"/>
<path d="M22.379 61.2518L20.4092 62.924L15.6758 57.9742L17.4672 56.158L22.379 61.2518Z" fill="white"/>
<path d="M17.2957 88.6388L15.5371 86.8613L20.7147 81.9431L22.4442 83.6996L17.2957 88.6388Z" fill="white"/>
<path d="M18.1903 70.8842C18.7337 70.9106 19.2781 70.9106 19.8215 70.8842C21.023 70.7613 21.5656 71.1266 21.5546 72.4124C21.5546 73.6314 21.1286 74.0986 19.8688 74.0073C18.7775 73.9435 17.6832 73.9435 16.5919 74.0073C15.4304 74.0565 14.6585 73.937 14.6621 72.4616C14.6658 70.9861 15.3248 70.7753 16.5445 70.8878C17.098 70.9264 17.6478 70.8842 18.1903 70.8842Z" fill="white"/>
<path d="M16.5645 31.1068V14.7363L27.9682 22.897L16.5645 31.1068ZM19.8123 24.7588L22.2445 22.8197L19.8123 21.1826V24.7588Z" fill="white"/>
<path d="M21.424 43.2829C20.8815 43.2829 20.3317 43.2478 19.7964 43.2829C18.6823 43.3743 18.1361 43.0441 18.1507 41.8391C18.1507 40.7114 18.4019 40.058 19.7455 40.1353C21.0117 40.1968 22.2804 40.1968 23.5467 40.1353C24.8356 40.0791 25.0031 40.7852 25.0031 41.7899C25.0031 42.7946 24.7701 43.3673 23.594 43.2794C22.8767 43.2373 22.1486 43.2829 21.424 43.2829Z" fill="white"/>
</svg>
