<svg width="157" height="158" viewBox="0 0 157 158" fill="none" xmlns="http://www.w3.org/2000/svg">
<path d="M143.626 114.445V32.9109H115.999C114.961 29.1907 113.971 25.6542 112.959 22.0381C113.134 22.0381 113.609 21.9738 114.084 21.9738C125.5 21.9738 136.918 21.9738 148.336 21.9738C152.424 21.9738 154.612 24.1986 154.612 28.3418C154.612 62.7948 154.612 97.251 154.612 131.71C154.612 135.648 152.504 137.775 148.599 137.778H100.328V149.886C101.146 149.886 101.982 149.886 102.819 149.886C104.906 149.932 107.011 149.834 109.074 150.091C112.098 150.468 114.283 153.07 114.483 156.303H43.8031C43.5579 153.413 45.8532 150.523 48.9422 150.103C50.8453 149.846 52.8004 149.941 54.7341 149.886C55.3869 149.867 56.0396 149.886 56.8088 149.886V137.775H8.58284C4.45191 137.775 2.3885 135.708 2.39258 131.575V28.3602C2.39258 24.03 4.43352 21.9738 8.73607 21.9707H44.8297L41.1523 32.8466H13.4033V114.445H143.626ZM72.6338 127.009C72.6456 128.554 73.2613 130.034 74.3493 131.131C75.4374 132.228 76.9113 132.856 78.4563 132.881C79.2345 132.88 80.0049 132.727 80.7235 132.428C81.4421 132.13 82.0948 131.692 82.6441 131.141C83.1935 130.59 83.6288 129.936 83.9251 129.216C84.2213 128.497 84.3728 127.726 84.3708 126.948C84.3652 125.403 83.751 123.922 82.6611 122.826C81.5712 121.73 80.0936 121.108 78.5483 121.095C77.7694 121.09 76.9974 121.24 76.277 121.536C75.5566 121.832 74.9022 122.268 74.3519 122.819C73.8016 123.371 73.3663 124.026 73.0714 124.746C72.7764 125.467 72.6277 126.24 72.6338 127.018V127.009Z" stroke="#25694D" stroke-width="3.28856" stroke-miterlimit="10"/>
<path d="M84.3297 27.5232C88.6199 27.5232 92.8949 27.5079 97.176 27.5232C100.547 27.5232 102.57 29.0555 102.714 32.3222C102.95 37.7004 103.253 43.1276 101.877 48.4322C99.4529 57.7667 91.3106 64.7783 81.7585 66.1757C69.614 67.95 56.5132 59.5747 54.5918 45.5639C54.0065 41.3042 54.1965 36.922 54.2394 32.598C54.2639 30.223 55.5112 28.3966 57.8953 27.6703C58.8576 27.3639 58.9955 26.8031 59.0262 25.9757C59.1089 23.5884 58.974 21.1552 59.3908 18.8231C60.0756 14.9002 61.9372 11.2783 64.7286 8.43817C67.5201 5.59804 71.1092 3.67401 75.0197 2.92146C85.0896 1.00922 95.8859 6.86548 97.8165 17.913C97.8875 18.3131 97.9325 18.7175 97.9513 19.1235C98.0371 21.1552 97.7583 21.4494 95.7418 21.4586C93.8051 21.4586 91.8683 21.4586 89.9193 21.4586C88.9295 21.4586 88.2767 21.1062 88.1143 20.0183C87.3758 15.0109 83.6555 12.97 80.3458 12.6298C75.2097 12.1088 71.373 14.3398 69.6048 18.6331C68.5322 21.241 68.9061 23.9561 68.9735 26.6376C68.9735 26.944 70.0001 27.4497 70.567 27.4742C72.8592 27.5723 75.1638 27.514 77.4468 27.514H84.3297V27.5232ZM78.4428 56.924H79.6686C80.0731 56.924 80.4807 56.924 80.8944 56.924C82.5706 56.8657 83.1713 56.2038 82.9935 54.5245C82.8158 52.8451 82.586 51.1014 82.3806 49.3914C82.2152 48.0063 82.3101 46.7958 83.3184 45.5792C85.3348 43.146 84.8874 39.6065 82.5339 37.4675C81.4331 36.4663 79.9976 35.913 78.5097 35.9164C77.0217 35.9198 75.5888 36.4797 74.4926 37.4859C72.136 39.631 71.7039 43.1307 73.7204 45.5976C74.7133 46.8234 74.8236 48.0492 74.6397 49.416C74.4926 50.5713 74.2842 51.7204 74.131 52.8727C73.6468 56.5501 73.9962 56.9332 77.6827 56.927L78.4428 56.924Z" stroke="#25694D" stroke-width="3.28856" stroke-miterlimit="10"/>
<path d="M54.7933 90.6706C54.7933 86.6867 54.7933 82.7274 54.7933 78.7558C54.7933 76.5371 55.4706 75.8139 57.7352 75.8935C61.7926 76.0406 65.9051 75.9211 69.8798 76.5892C75.1293 77.4748 78.7852 81.7437 79.2418 87.0912C79.5283 89.9072 79.4252 92.7491 78.9354 95.5369C77.8414 101.108 73.8238 104.654 68.1514 105.202C64.474 105.561 60.7415 105.509 57.0304 105.533C55.5196 105.533 54.8239 104.691 54.8147 103.042C54.7749 98.9263 54.7933 94.7954 54.7933 90.6706ZM61.5352 90.6399C61.5352 92.6778 61.5015 94.7126 61.5352 96.7505C61.6118 100.428 60.7752 100.088 65.0164 100.008C68.7214 99.9376 71.2864 98.0498 72.0311 94.6053C72.4882 92.5236 72.6123 90.3825 72.3988 88.2618C71.9667 84.278 69.748 82.0808 66.0614 81.4985C65.0655 81.3392 64.0266 81.4648 63.0153 81.3851C61.906 81.2963 61.4831 81.6916 61.5076 82.85C61.5812 85.4425 61.5352 88.0443 61.5352 90.6521V90.6399Z" fill="#25694D"/>
<path d="M46.8536 96.4164C46.8536 98.2551 46.8536 100.094 46.8536 101.933C46.8536 103.183 46.2898 104.108 45.0946 104.522C40.4979 106.112 35.7908 106.667 31.0286 105.3C25.4819 103.698 21.7769 98.9538 21.4674 93.1772C21.2774 89.6347 21.4674 86.1504 23.1988 82.9265C25.6504 78.3758 29.5546 76.0345 34.611 75.5717C37.9299 75.2653 41.2334 75.4062 44.35 76.8159C46.6974 77.8793 47.6167 80.239 46.6575 82.6538C46.1396 83.9531 45.3337 83.472 44.4174 83.1533C42.2722 82.4117 40.1271 81.3575 37.9237 81.1736C30.6762 80.5607 27.7619 86.2515 28.3319 92.0802C28.6782 95.6258 30.0265 98.7025 33.7928 99.7628C35.325 100.198 37.0779 100.023 38.7266 100.005C39.6735 100.005 40.1608 99.392 40.1179 98.3807C40.0658 97.2622 40.0597 96.1375 40.1179 95.0098C40.1761 93.8821 39.6797 93.5603 38.6561 93.6124C37.6908 93.6645 36.7194 93.643 35.7541 93.6124C34.2586 93.5756 33.6671 92.7697 33.707 90.8789C33.7468 88.9881 34.2647 88.3721 35.7939 88.3629C38.6541 88.3405 41.5061 88.3405 44.35 88.3629C46.1029 88.3629 46.8199 89.1015 46.8536 90.8942C46.8874 92.6869 46.8506 94.5839 46.8536 96.4164Z" fill="#25694D"/>
<path d="M129.566 91.8409C132.413 95.0341 133.55 98.9934 135.149 102.708C136.093 104.893 135.594 105.57 133.203 105.591C128.184 105.64 129.109 105.852 127.381 101.748C126.618 99.9097 125.867 98.071 125.055 96.2752C124.405 94.8349 123.357 93.9156 121.684 93.8022C120.651 93.7317 120.195 94.0136 120.219 95.1353C120.277 97.832 120.25 100.532 120.219 103.232C120.219 104.972 119.689 105.515 117.954 105.576C112.377 105.769 113.477 105.27 113.45 101.344C113.401 93.8083 113.45 86.2727 113.45 78.7372C113.45 76.4541 114.063 75.8504 116.37 75.8841C119.775 75.9362 123.198 75.832 126.575 76.1906C130.691 76.6227 133.363 78.8015 133.868 82.0744C134.463 85.9356 134.135 88.9266 129.961 91.5038C129.824 91.6091 129.692 91.7216 129.566 91.8409ZM120.247 88.3627C121.705 88.3627 122.977 88.4915 124.212 88.3321C125.033 88.233 125.79 87.84 126.343 87.2259C126.896 86.6119 127.208 85.8182 127.221 84.9918C127.301 83.3829 126.455 81.9549 124.963 81.5963C123.774 81.3348 122.556 81.2317 121.341 81.2899C120.967 81.2899 120.317 81.9579 120.296 82.3471C120.198 84.2563 120.259 86.19 120.259 88.3627H120.247Z" fill="#25694D"/>
<path d="M86.2971 91.1201C86.2971 87.0474 86.2971 82.9747 86.2971 78.9051C86.2971 76.6986 87.1337 75.8405 89.3616 75.8865C92.4077 75.9294 95.4722 75.8865 98.4938 76.193C103.498 76.7109 106.636 79.7784 106.817 83.9676C107.084 90.118 104.476 93.9916 99.1557 95.107C97.6235 95.4135 96.0299 95.4411 94.4609 95.4932C93.4374 95.5299 92.993 95.8976 93.0175 96.9549C93.0635 99.1429 92.993 101.334 93.0451 103.522C93.0758 104.867 92.4721 105.465 91.1727 105.585C86.6158 105.992 86.2695 105.707 86.2695 101.202L86.2971 91.1201ZM93.039 85.6837C93.039 86.8023 92.9747 87.9238 93.0727 89.0332C93.1095 89.4285 93.511 90.0782 93.8082 90.115C95.604 90.3417 97.3936 90.2804 98.7635 88.8432C99.8483 87.7063 100.167 84.8808 99.4346 83.3639C98.5919 81.6232 97.0596 81.3107 95.3374 81.3904C94.9329 81.4088 94.4517 81.2617 94.1361 81.4302C93.7071 81.66 93.1463 82.086 93.088 82.4905C92.9532 83.5355 93.0513 84.6173 93.0513 85.6837H93.039Z" fill="#25694D"/>
</svg>
