<svg width="86" height="86" viewBox="0 0 86 86" fill="none" xmlns="http://www.w3.org/2000/svg">
<g clip-path="url(#clip0_995_2752)">
<path d="M41.3209 38.8944C45.0507 42.4148 49.7364 43.5267 54.3139 44.87C55.3003 45.1634 56.2869 45.4414 57.2579 45.7502C58.2714 46.0508 59.1479 46.6965 59.7361 47.5763C60.3243 48.456 60.5871 49.5142 60.4789 50.5675C60.2785 52.6519 59.9699 54.7365 59.7542 56.821C59.7542 57.4849 59.3382 57.6546 58.7834 57.7781C56.0399 58.3957 53.2813 59.0596 50.5225 59.6618C48.8321 59.9197 47.2975 60.797 46.2155 62.1234C45.1336 63.4497 44.5809 65.131 44.6653 66.8418C44.6653 68.3859 44.6653 69.9299 44.6653 71.474C44.6653 72.1534 44.5268 72.524 43.7562 72.6784C40.2883 73.4195 36.8205 74.2225 33.3527 75.0408C30.5561 75.5219 27.6864 75.3474 24.9684 74.5312C18.6493 72.9871 12.315 71.6437 5.98045 70.2232C4.92058 70.047 3.95158 69.5158 3.23209 68.7165C2.5126 67.9172 2.08469 66.8972 2.01896 65.8229C1.40246 60.8665 0.786378 55.8944 0.139053 50.938C-0.0313337 49.7993 0.219083 48.6376 0.843452 47.6709C1.46782 46.7042 2.42272 45.9993 3.52935 45.6884C7.19753 44.5304 10.8813 43.4185 14.4724 42.0597C16.1654 41.2504 17.7849 40.2944 19.3121 39.2031C19.6512 40.1141 20.0361 41.1179 20.3906 42.137C22.4558 47.989 24.5057 53.8562 26.5556 59.6927C26.6789 60.0633 27.1572 60.295 27.4654 60.5729C27.6504 60.1869 28.005 59.8009 28.005 59.4149C28.005 54.9989 28.005 50.5828 28.005 46.1668C27.9757 45.6608 27.8274 45.169 27.573 44.7309C26.5558 42.8626 25.4771 41.0406 24.2595 38.8789C26.022 39.978 28.0451 40.5862 30.1204 40.6405C32.1958 40.6948 34.2484 40.1935 36.0657 39.188C35.0022 41.0563 33.9079 42.8935 32.8906 44.7773C32.6194 45.2474 32.4706 45.7785 32.4587 46.3213C32.4587 50.5829 32.4587 54.86 32.4587 59.1216C32.4195 59.3048 32.4195 59.494 32.4587 59.6772C32.6347 59.9633 32.8303 60.2368 33.0442 60.4956C33.2908 60.2795 33.6768 60.1097 33.7847 59.8318C34.4012 58.2877 34.9559 56.5894 35.5261 54.9527L40.9822 39.5122C41.0901 39.3887 41.1667 39.2186 41.3209 38.8944Z" fill="white"/>
<path d="M76.4457 82.2823L71.2515 81.1552C68.2461 80.4912 65.2566 79.7963 62.2358 79.1478C60.6945 78.8236 60.0315 79.3793 60.0007 80.9697C60.0007 82.1123 60.0007 83.2548 60.0007 84.3974C60.0007 85.1231 59.7388 85.494 58.9682 85.4786H56.1475C55.4077 85.4786 55.0996 85.1386 55.115 84.3974C55.115 82.7402 55.115 81.0881 55.115 79.4411C55.115 77.897 54.6063 77.2796 53.0342 76.9399C48.8574 75.9981 48.7957 75.9209 48.7957 71.5976C48.7957 69.9146 48.7957 68.216 48.7957 66.5176C48.7491 65.8661 48.9482 65.2206 49.3534 64.7089C49.7586 64.1972 50.3403 63.8564 50.9842 63.7537C59.3892 61.8288 67.7891 59.9193 76.1838 58.0253C76.2757 58.0111 76.3696 58.0111 76.4615 58.0253L76.4457 82.2823ZM58.2126 67.9844C57.6403 67.9844 57.0918 68.2119 56.6871 68.6173C56.2825 69.0227 56.055 69.5726 56.055 70.1459C56.0589 70.4398 56.1212 70.7303 56.2386 70.9997C56.356 71.2692 56.5258 71.5124 56.7383 71.7152C56.9508 71.918 57.2015 72.076 57.4758 72.1804C57.7501 72.2848 58.0427 72.3335 58.336 72.3232C58.907 72.2991 59.4457 72.0506 59.8351 71.6315C60.2245 71.2125 60.4336 70.6564 60.4168 70.0841C60.4007 69.5134 60.16 68.9726 59.7471 68.5792C59.3341 68.1858 58.7823 67.9719 58.2126 67.9844ZM65.0556 67.9844C64.7727 67.9698 64.4899 68.0126 64.2241 68.1106C63.9582 68.2086 63.7151 68.3595 63.5091 68.5543C63.3031 68.7492 63.1389 68.9839 63.026 69.2442C62.913 69.5045 62.8538 69.7852 62.8521 70.069C62.8377 70.3534 62.88 70.6375 62.9763 70.9055C63.0727 71.1734 63.2213 71.4194 63.4136 71.6292C63.6058 71.8391 63.8371 72.0085 64.0954 72.1276C64.3536 72.2467 64.6331 72.3134 64.9172 72.3232C65.2095 72.3379 65.5015 72.2926 65.7758 72.1905C66.0502 72.0885 66.3014 71.9317 66.5134 71.7295C66.7253 71.5273 66.8942 71.284 67.0093 71.0144C67.1244 70.7448 67.1835 70.4545 67.1831 70.1613C67.1893 69.8776 67.1383 69.5955 67.0341 69.3316C66.93 69.0677 66.7747 68.8276 66.5766 68.6248C66.3785 68.422 66.1416 68.2609 65.8805 68.151C65.6193 68.041 65.3389 67.9843 65.0556 67.9844ZM69.6794 70.1923C69.6813 70.4781 69.7408 70.7608 69.8532 71.0235C69.9657 71.2862 70.1288 71.5235 70.3341 71.722C70.5394 71.9205 70.7823 72.076 71.0483 72.1792C71.3144 72.2824 71.5985 72.3315 71.8837 72.3232C72.1683 72.3194 72.4493 72.2581 72.71 72.1434C72.9706 72.0288 73.2061 71.863 73.4016 71.6556C73.5971 71.4483 73.7485 71.2036 73.8479 70.9364C73.9472 70.6691 73.992 70.3845 73.9795 70.0995C73.9797 69.8131 73.9226 69.5297 73.811 69.266C73.6993 69.0024 73.5358 68.7638 73.3301 68.5649C73.1243 68.366 72.8807 68.2108 72.6136 68.1084C72.3466 68.006 72.0618 67.9585 71.776 67.9689C71.4792 67.961 71.1837 68.0164 70.9098 68.1314C70.636 68.2463 70.3899 68.4182 70.1874 68.6358C69.9848 68.8533 69.8305 69.1114 69.7351 69.3931C69.6396 69.6748 69.605 69.9734 69.6335 70.2695L69.6794 70.1923Z" fill="white"/>
<path d="M14.6877 12.9856C14.8727 11.4416 15.0266 10.0058 15.2424 8.52349C15.6893 5.14202 17.8624 3.32004 20.8987 2.34729C21.4032 2.18034 21.9181 2.04622 22.4399 1.94582C23.3492 1.72965 24.2433 1.43645 24.4899 2.88785C24.5978 3.5518 25.199 3.59809 25.8001 3.24296C26.7864 2.57742 27.8162 1.97879 28.8826 1.45162C30.7958 0.551677 32.9507 0.306022 35.0168 0.752345C37.0828 1.19867 38.9456 2.31243 40.3186 3.92225C40.858 4.52443 41.3666 5.14194 41.8598 5.74412C42.3759 6.35165 43.057 6.79607 43.8202 7.02354C44.5835 7.25102 45.3963 7.25191 46.16 7.02581C47.0385 6.80964 47.3932 7.10281 47.1157 7.98292C46.8383 8.86303 45.9902 9.78952 45.8823 10.7468C45.7744 11.7041 46.6377 12.6615 46.5144 13.5417C46.169 15.6304 45.6851 17.6937 45.0657 19.7179C45.0657 19.9649 44.2794 20.2274 43.9557 20.1348C41.0273 19.3319 38.0991 18.4982 35.2169 17.5563C32.1344 16.5218 29.0518 15.3327 25.8769 14.2364C25.1902 13.9679 24.4548 13.8469 23.7185 13.8817C22.9822 13.9164 22.2615 14.1061 21.6031 14.4381C20.9446 14.7701 20.3635 15.2373 19.897 15.8091C19.4305 16.3809 19.0891 17.0444 18.8953 17.7569C18.5408 18.9458 18.4481 20.2121 18.2015 21.4319C18.0993 21.7585 17.9545 22.0698 17.7702 22.3581C17.4774 22.142 17.0762 21.9877 16.8913 21.6943C15.3897 19.0423 14.6289 16.034 14.6877 12.9856Z" fill="white"/>
<path d="M80.5601 70.0992C80.5601 66.0538 80.5601 62.0086 80.5601 57.9632C80.5601 57.1602 80.8374 56.8669 81.5926 56.7897C82.0371 56.6909 82.4987 56.6983 82.9397 56.8115C83.3807 56.9247 83.7888 57.1407 84.131 57.4414C84.4733 57.7422 84.7404 58.1192 84.9099 58.5425C85.0795 58.9659 85.147 59.4234 85.1071 59.8778C85.1071 66.7128 85.1071 73.553 85.1071 80.3983C85.141 80.8525 85.0689 81.3082 84.8964 81.7297C84.7239 82.1512 84.4555 82.5266 84.113 82.8263C83.7705 83.1259 83.3633 83.3417 82.9232 83.4562C82.4831 83.5707 82.0223 83.5811 81.5776 83.4864C80.8532 83.3783 80.5447 83.0848 80.5601 82.2665C80.5909 78.1902 80.5601 74.1446 80.5601 70.0992Z" fill="white"/>
</g>
<defs>
<clipPath id="clip0_995_2752">
<rect width="85" height="85" fill="white" transform="translate(0.107422 0.478516)"/>
</clipPath>
</defs>
</svg>
