<svg width="89" height="88" viewBox="0 0 89 88" fill="none" xmlns="http://www.w3.org/2000/svg">
<g clip-path="url(#clip0_995_2718)">
<path d="M3.25849 88C2.48951 87.8119 1.78751 87.4146 1.23071 86.8519C0.673915 86.2891 0.283901 85.5831 0.103986 84.8121C0.0284572 84.4233 -0.00556855 84.0271 0.00267977 83.6311V65.6669C-0.0435645 65.0763 0.0394251 64.4827 0.24565 63.9274C0.451876 63.372 0.776431 62.8679 1.19694 62.4506C1.61745 62.0333 2.12336 61.7128 2.6803 61.5108C3.23724 61.3089 3.83203 61.2303 4.42228 61.281H9.26357V52.8471C9.22306 52.2645 9.30825 51.6801 9.51395 51.1335C9.71965 50.5869 10.0408 50.0912 10.4554 49.6798C10.8699 49.2684 11.3683 48.951 11.9165 48.7495C12.4647 48.5481 13.0498 48.4673 13.6321 48.5123H39.7939V42.541H35.7968C35.3881 42.5916 34.9727 42.5493 34.5828 42.4171C34.1928 42.2848 33.8378 42.0662 33.5442 41.7775C33.2506 41.4888 33.0265 41.1373 32.8877 40.7496C32.749 40.3619 32.6998 39.9479 32.7436 39.5385C32.7436 37.3119 32.7433 36.9071 33.671 35.7263C33.297 34.8379 33.0035 33.9179 32.7938 32.977C32.6932 32.1285 32.8794 31.2704 33.3226 30.5399C33.7658 29.8094 34.441 29.2481 35.24 28.9454C35.5025 28.8494 35.7365 28.6899 35.922 28.4808C36.1075 28.2718 36.2384 28.0198 36.3025 27.7478C36.4234 27.3398 36.5695 26.9398 36.7407 26.5502C36.8444 26.2466 37.0642 25.9961 37.3518 25.8539C37.6394 25.7116 37.9717 25.6894 38.2759 25.7913C38.4363 25.8341 38.5869 25.9083 38.7182 26.0099C38.8495 26.1115 38.9586 26.2381 39.0402 26.3826C39.1219 26.5271 39.1741 26.6868 39.1934 26.8517C39.2128 27.0166 39.1991 27.1835 39.1531 27.343C39.0593 27.749 38.9411 28.1489 38.7989 28.5405H49.2063C47.8993 24.8152 47.1604 20.9142 47.0138 16.969H41.0425L40.7386 20.0728C40.7128 20.4469 40.6623 20.8186 40.587 21.1859C40.5409 21.5164 40.3664 21.8152 40.1011 22.0174C39.8357 22.2196 39.5012 22.309 39.1704 22.2657C38.9996 22.2432 38.8344 22.1864 38.6861 22.0989C38.5377 22.0114 38.4087 21.8949 38.3064 21.7563C38.2041 21.6178 38.1306 21.4601 38.0906 21.2926C38.0506 21.1251 38.0446 20.951 38.0733 20.7811C38.1745 19.5329 38.3098 18.2847 38.4448 16.9858C37.3981 16.9962 36.3849 16.6169 35.6024 15.9217C34.8199 15.2265 34.3235 14.265 34.2105 13.2243C33.9575 11.217 34.9189 9.85087 37.1624 8.72072C36.8862 7.51431 36.9314 6.25666 37.2925 5.07287C37.6536 3.88908 38.3181 2.82046 39.2206 1.97355C39.8906 1.329 40.6848 0.827774 41.5548 0.500078C42.4248 0.172382 43.3523 0.0252789 44.281 0.0676725C45.3114 0.120425 46.318 0.397856 47.2296 0.881007C48.1412 1.36416 48.9359 2.04124 49.558 2.86431C50.1801 3.68737 50.6144 4.63645 50.8305 5.64529C51.0466 6.65414 51.0394 7.69815 50.8091 8.70384C51.7956 8.9986 52.6386 9.64682 53.177 10.5245C53.7154 11.4021 53.9115 12.4477 53.7272 13.4607C53.4742 15.3331 52.0404 16.4798 49.4765 16.969C49.7126 18.757 49.831 20.5959 50.2021 22.367C50.5732 24.1382 51.2305 26.1621 51.804 28.0513C51.8473 28.1951 51.9193 28.3287 52.0149 28.4446C52.1105 28.5604 52.2278 28.6564 52.3608 28.7263C53.0019 28.9396 53.5811 29.3053 54.0492 29.7925C54.5174 30.2796 54.8607 30.8734 55.0483 31.5225C55.2359 32.1716 55.2626 32.8568 55.1266 33.5186C54.9905 34.1804 54.6951 34.7991 54.2667 35.3215C54.2268 35.3916 54.1929 35.4648 54.1654 35.5406C54.6677 36.1967 55.0178 36.9566 55.19 37.7648C55.3621 38.573 55.3525 39.4092 55.1611 40.213C55.0891 40.8615 54.7743 41.4585 54.2799 41.8842C53.7854 42.3098 53.1478 42.5325 52.4959 42.5072H48.0936V48.4786H74.1038C74.7286 48.4078 75.3613 48.4795 75.9545 48.6882C76.5477 48.8968 77.0863 49.2368 77.5293 49.6831C77.9723 50.1294 78.3084 50.6702 78.5127 51.2649C78.717 51.8596 78.784 52.4929 78.7087 53.1172V61.2642C80.1594 61.2642 81.5256 61.2642 82.8919 61.2642C83.9902 61.092 85.1129 61.3305 86.0464 61.9342C86.9799 62.5379 87.6588 63.4646 87.9523 64.5369V84.7784C87.7411 85.5626 87.3274 86.2776 86.7531 86.8519C86.1788 87.4261 85.4642 87.8394 84.68 88.0507H64.4385C63.5095 87.8322 62.6823 87.3041 62.0936 86.5529C61.505 85.8017 61.1892 84.8724 61.1992 83.9181C61.1992 77.7276 61.1992 71.5539 61.1992 65.3634C61.1584 64.7429 61.2804 64.1224 61.5525 63.5633C61.8247 63.0043 62.2382 62.5257 62.7517 62.1751C63.5705 61.676 64.4941 61.3755 65.4499 61.2979C67.1367 61.1461 68.7395 61.2979 70.3925 61.2979V56.8619H48.1776V61.2979H52.799C53.416 61.2258 54.0419 61.294 54.6291 61.4968C55.2162 61.6997 55.7498 62.0323 56.1907 62.47C56.6316 62.9076 56.9686 63.4389 57.1757 64.0246C57.3829 64.6102 57.455 65.2351 57.3874 65.8526C57.3874 71.5877 57.3874 77.3058 57.3874 83.024C57.541 84.12 57.2948 85.2345 56.6939 86.1637C56.093 87.093 55.1776 87.7749 54.1151 88.0844H33.8736C32.8053 87.7844 31.8834 87.1046 31.2808 86.1728C30.6783 85.241 30.4367 84.1214 30.6013 83.024C30.7025 79.9035 30.6013 76.7828 30.6013 73.6623C30.6013 72.6502 31.0732 72.0598 31.8491 71.9755C32.6251 71.8911 33.1818 72.549 33.1818 73.6623V77.8286L34.0927 77.0865C35.5771 75.7877 37.0613 74.4888 38.5625 73.2068C39.0316 72.708 39.6691 72.4009 40.3515 72.3449C41.0338 72.2888 41.7124 72.4878 42.2565 72.9033L44.7027 74.455C45.3774 73.7297 46.0187 73.0043 46.6934 72.3127C46.9393 71.9432 47.2672 71.6357 47.6521 71.4146C48.0371 71.1935 48.4683 71.0648 48.9114 71.0386C49.3546 71.0124 49.7979 71.0896 50.2062 71.2638C50.6145 71.4381 50.9769 71.7049 51.2646 72.043L54.6381 74.7585C54.6381 74.6236 54.7732 74.59 54.7732 74.5394C54.7732 71.5032 54.7732 68.4671 54.7732 65.4309C54.7893 65.2208 54.759 65.0094 54.6843 64.8124C54.6095 64.6153 54.4922 64.4376 54.3408 64.291C54.1894 64.1444 54.0073 64.0327 53.8079 63.9644C53.6086 63.8961 53.3964 63.8727 53.1869 63.8957C52.1917 63.8957 51.18 63.8957 50.1848 63.8957H35.0036C33.6036 63.8957 33.0978 64.4019 33.0978 65.8188C33.0978 66.3417 33.0978 66.8645 33.0978 67.3706C33.0978 67.5293 33.0659 67.6862 33.0047 67.8326C32.9435 67.979 32.8541 68.112 32.7411 68.2234C32.6281 68.3349 32.4939 68.4229 32.3466 68.482C32.1994 68.5412 32.0416 68.5703 31.8829 68.5681C31.7238 68.5922 31.5617 68.5818 31.4068 68.538C31.252 68.4943 31.1081 68.4182 30.9851 68.3144C30.8622 68.2106 30.7627 68.0817 30.6936 67.9364C30.6244 67.7911 30.587 67.6328 30.584 67.4719C30.4912 66.4764 30.5253 65.4731 30.6853 64.4862C30.8033 63.7119 31.1698 62.9971 31.7297 62.4494C32.2896 61.9017 33.0121 61.5508 33.7888 61.4499C34.8134 61.3344 35.8453 61.2949 36.8757 61.3317H39.7263V56.8787H17.5114V61.3317H22.0998C22.7258 61.252 23.3617 61.3167 23.9588 61.5207C24.5558 61.7248 25.0981 62.0629 25.5443 62.5091C25.9904 62.9553 26.3285 63.4975 26.5326 64.0946C26.7367 64.6916 26.801 65.3276 26.7212 65.9535C26.7212 71.6549 26.7212 77.3564 26.7212 83.0409C26.8677 84.1359 26.6186 85.2472 26.0187 86.1748C25.4188 87.1025 24.5076 87.7857 23.4489 88.1013L3.25849 88ZM85.4221 74.607V65.7682C85.4221 64.2669 84.95 63.7775 83.4825 63.7775H65.7036C64.3036 63.7775 63.7804 64.3006 63.7804 65.7006V83.4964C63.7804 84.9133 64.2863 85.4192 65.6863 85.4192H83.5665C84.9159 85.4192 85.4221 84.9134 85.4221 83.5471V74.607ZM13.3117 85.4192H22.2514C23.7189 85.4192 24.2083 84.9301 24.2083 83.4626V65.7682C24.2083 64.2838 23.7193 63.7775 22.2687 63.7775H4.48981C3.07291 63.7775 2.58311 64.2837 2.58311 65.7006C2.58311 71.6382 2.58311 77.5083 2.58311 83.4964C2.58311 84.947 3.0561 85.4192 4.55735 85.4192H13.3117ZM73.0405 61.1464H76.1612C76.1612 60.0331 76.2456 58.9702 76.1612 57.9243C75.9588 55.7653 76.7178 53.5389 75.7058 51.4304C73.631 50.5027 71.4216 51.0594 69.2963 51.0256C62.4479 50.9413 55.5992 51.0256 48.7508 51.0256C48.3209 51.0865 47.8831 51.0472 47.4709 50.9107C47.0587 50.7743 46.6833 50.544 46.3747 50.2387C46.066 49.9333 45.8327 49.5609 45.6919 49.1502C45.551 48.7395 45.5071 48.3017 45.5634 47.8711V42.5241H42.4591V48.1413C42.4985 48.6449 42.3881 49.1485 42.142 49.5896C41.896 50.0308 41.5254 50.3897 41.0763 50.6208C40.4494 50.8948 39.7695 51.0272 39.0855 51.0087C30.6516 51.0087 22.2176 51.0087 13.7836 51.0087C12.333 51.0087 11.8275 51.5146 11.8275 52.9653V60.4545C11.8275 60.6907 11.8275 60.944 11.8275 61.1802H14.8799V57.2329C14.8139 56.8036 14.8501 56.3646 14.9853 55.9518C15.1205 55.5389 15.3511 55.1639 15.6582 54.8567C15.9654 54.5496 16.3408 54.319 16.7537 54.1838C17.1665 54.0486 17.6051 54.0125 18.0344 54.0784H39.1704C39.6077 54.0051 40.056 54.0376 40.4783 54.1727C40.9006 54.3079 41.2849 54.542 41.5984 54.8555C41.912 55.1691 42.1461 55.5529 42.2812 55.9752C42.4164 56.3976 42.4484 56.8462 42.3751 57.2836V61.0957H45.4786V57.081C45.437 56.6793 45.4854 56.2737 45.6194 55.8929C45.7534 55.512 45.9697 55.1657 46.2536 54.8786C46.5375 54.5915 46.8816 54.3707 47.2609 54.2324C47.6402 54.0941 48.0457 54.0414 48.4477 54.0784H70.0219C70.424 54.0377 70.8294 54.0882 71.2096 54.2254C71.5897 54.3627 71.9343 54.5834 72.2177 54.8716C72.501 55.1598 72.7162 55.508 72.8469 55.8904C72.9777 56.2728 73.0213 56.6796 72.9738 57.081C73.0581 58.4304 73.0405 59.7463 73.0405 61.1464ZM43.9771 85.4192H52.9176C53.2853 85.4401 53.6535 85.3829 53.9974 85.2507C54.942 84.8122 54.9923 83.9855 54.1151 83.4289C49.8475 80.6963 45.5634 77.9972 41.3126 75.2477C41.2215 75.1544 41.1125 75.0805 40.9922 75.0299C40.872 74.9793 40.743 74.9529 40.6126 74.9529C40.4821 74.9529 40.3531 74.9793 40.2329 75.0299C40.1126 75.0805 40.0036 75.1544 39.9125 75.2477C38.3019 76.7741 36.6128 78.2156 34.8521 79.566C34.2213 79.9841 33.7259 80.5768 33.4264 81.2718C33.1268 81.9667 33.0361 82.7339 33.1653 83.4795C33.3171 84.8289 33.7044 85.3516 35.0539 85.3516L43.9771 85.4192ZM52.5972 39.8757C52.6116 39.6961 52.6116 39.5155 52.5972 39.3359C52.6225 38.9652 52.6225 38.5934 52.5972 38.2227C52.6022 38.0354 52.5676 37.8489 52.4967 37.6754C52.4258 37.5019 52.3194 37.3451 52.1845 37.215C52.0497 37.0849 51.8893 36.9844 51.7134 36.9197C51.5375 36.8551 51.3503 36.8277 51.1632 36.8394H36.7242C36.3893 36.8112 36.0563 36.9156 35.7976 37.1302C35.5389 37.3447 35.3755 37.6524 35.3413 37.9868C35.2989 38.6158 35.2989 39.2467 35.3413 39.8757H52.5972ZM43.9771 34.2421H50.7243C51.9387 34.2421 52.6474 33.618 52.6137 32.5553C52.5799 31.4926 51.9219 31.0707 50.7243 31.0539H36.9944C36.7869 31.0305 36.5762 31.0504 36.3766 31.1119C36.1771 31.1734 35.993 31.2752 35.8347 31.4113C35.6764 31.5475 35.5473 31.7149 35.4566 31.903C35.3659 32.0911 35.3155 32.296 35.3076 32.5047C35.2926 32.73 35.3261 32.9559 35.4056 33.1673C35.4851 33.3787 35.6083 33.5705 35.768 33.7302C35.9277 33.8899 36.1199 34.014 36.3313 34.0935C36.5427 34.173 36.769 34.2064 36.9944 34.1915C39.4065 34.1915 41.683 34.1746 43.9771 34.1746V34.2421ZM43.9771 8.60253C45.141 8.60253 46.3219 8.60253 47.4857 8.60253C47.583 8.62204 47.6832 8.62071 47.7798 8.598C47.8764 8.5753 47.9674 8.53197 48.0458 8.47116C48.1242 8.41036 48.1884 8.33338 48.2344 8.24549C48.2805 8.1576 48.3073 8.06082 48.3127 7.96175C48.4878 7.10347 48.4065 6.21254 48.0796 5.39985C47.7527 4.58716 47.1942 3.88858 46.4735 3.39061C45.7426 2.88423 44.8753 2.61269 43.9861 2.61269C43.097 2.61269 42.2288 2.88423 41.498 3.39061C40.7787 3.89261 40.2237 4.59556 39.9026 5.41179C39.5815 6.22802 39.5081 7.12113 39.6926 7.97863C39.6985 8.06992 39.7236 8.15901 39.7659 8.24014C39.8081 8.32126 39.8674 8.3926 39.9388 8.44975C40.0103 8.5069 40.0925 8.54862 40.181 8.57206C40.2694 8.59549 40.3616 8.59991 40.4519 8.58565C41.6327 8.51818 42.7963 8.535 43.9771 8.535V8.60253ZM44.0619 11.1834H38.5625C37.4324 11.1834 36.7917 11.7402 36.758 12.6849C36.7242 13.6295 37.4328 14.3716 38.5798 14.3716H49.3916C50.5555 14.3716 51.2308 13.7641 51.2308 12.8026C51.2308 11.8412 50.5728 11.2678 49.3751 11.2509L44.0619 11.1834ZM46.8952 75.8214L54.7057 80.7974C54.9941 80.0746 55.0032 79.2704 54.732 78.541C54.4608 77.8116 53.9285 77.2089 53.238 76.8501C52.5936 76.4277 51.9842 75.9541 51.4161 75.4335L49.1561 73.6116L46.8952 75.8214Z" fill="white"/>
<path d="M74.6757 73.3252H80.6972C81.6925 73.3252 82.384 73.8144 82.384 74.5903C82.384 75.3662 81.7938 75.8892 80.7986 75.906H68.6031C67.6079 75.906 67.0175 75.4 66.9163 74.6241C66.8151 73.8481 67.4897 73.3421 68.5018 73.3252H74.6757Z" fill="white"/>
<path d="M74.5747 70.1875C72.483 70.1875 70.3919 70.1875 68.3003 70.1875C68.1207 70.2018 67.9396 70.178 67.7698 70.1179C67.6001 70.0578 67.4449 69.9628 67.3144 69.8387C67.1839 69.7146 67.0815 69.5642 67.0129 69.3976C66.9444 69.2311 66.9113 69.0518 66.9166 68.8718C66.9383 68.5272 67.0933 68.2048 67.3481 67.9719C67.603 67.7391 67.9379 67.6141 68.283 67.6235H80.7313C81.7265 67.6235 82.3341 68.1634 82.3003 68.9393C82.2666 69.7152 81.7101 70.1875 80.7486 70.1875C78.6907 70.1875 76.6326 70.1875 74.5747 70.1875Z" fill="white"/>
<path d="M74.6265 81.6072H71.3707C70.3586 81.6072 69.7848 81.118 69.7679 80.3252C69.7511 79.5324 70.3249 79.0264 71.337 79.0264H77.9326C78.9109 79.0264 79.4164 79.4818 79.4332 80.2746C79.4501 81.0674 78.911 81.5735 77.9663 81.5903C77.0217 81.6072 75.7398 81.6072 74.6265 81.6072Z" fill="white"/>
<path d="M7.11937 74.5558C7.11937 73.004 7.11937 71.469 7.11937 69.9171C7.11937 67.8255 8.51888 66.9485 10.3744 67.8762L19.8206 72.5824C20.2439 72.7186 20.616 72.9803 20.8872 73.3327C21.1583 73.6852 21.3154 74.1117 21.3385 74.5558C21.3335 75.0168 21.1849 75.4645 20.9127 75.8366C20.6405 76.2086 20.2584 76.4863 19.8206 76.6306L10.2903 81.3705C9.96852 81.597 9.58736 81.7245 9.19409 81.7379C8.80082 81.7513 8.41207 81.6499 8.0756 81.4459C7.73913 81.2419 7.46969 80.9442 7.29974 80.5893C7.1298 80.2344 7.06737 79.8374 7.11937 79.4474C7.08563 77.828 7.11937 76.192 7.11937 74.5558ZM18.0662 74.5558L9.75004 70.3895V78.7222L18.0662 74.5558Z" fill="white"/>
</g>
<defs>
<clipPath id="clip0_995_2718">
<rect width="88" height="88" fill="white" transform="translate(0.00195312)"/>
</clipPath>
</defs>
</svg>
