<svg width="89" height="88" viewBox="0 0 89 88" fill="none" xmlns="http://www.w3.org/2000/svg">
<g clip-path="url(#clip0_995_2711)">
<path d="M0.390625 64.9663V11.6898C0.435304 11.6182 0.469874 11.5407 0.49314 11.4595C1.55569 7.54153 3.9751 5.68497 8.02049 5.68497H11.7585C11.7585 5.096 11.7585 4.62232 11.7585 4.13577C11.7476 3.58204 11.8502 3.03201 12.0598 2.51937C12.2694 2.00673 12.5817 1.54231 12.9775 1.15491C13.3732 0.7675 13.8438 0.465114 14.3608 0.266524C14.8777 0.0679342 15.4296 -0.0226246 15.9829 0.000196618H72.7724C73.3334 -0.0250321 73.8932 0.0662855 74.417 0.268712C74.9408 0.471139 75.4171 0.780227 75.8154 1.17616C76.2136 1.5721 76.5255 2.04641 76.7311 2.56907C76.9367 3.09173 77.0317 3.65145 77.0099 4.21267V5.68497C78.4821 5.68497 79.8263 5.68497 81.1705 5.68497C82.1257 5.65287 83.0769 5.81734 83.9659 6.16824C84.8549 6.51914 85.6624 7.04906 86.3381 7.72494C87.0139 8.40082 87.5438 9.2081 87.8946 10.0972C88.2455 10.9863 88.4099 11.938 88.3778 12.8933C88.3778 29.8198 88.3778 46.7466 88.3778 63.6731C88.374 64.3864 88.2791 65.0962 88.0959 65.7856C87.6725 67.3314 86.73 68.6843 85.4268 69.617C84.1235 70.5497 82.5393 71.0052 80.9398 70.9071H56.5269L57.6277 79.7162H63.8749C65.1551 79.7162 65.5904 80.1129 65.6032 81.4701C65.616 82.8273 65.6032 84.5047 65.6032 86.0155C65.6473 86.3813 65.599 86.7523 65.4626 87.0946C65.3262 87.4368 65.1061 87.7394 64.8225 87.9745H23.9203C23.643 87.7541 23.4261 87.4671 23.2896 87.1402C23.153 86.8134 23.1015 86.4574 23.1396 86.1052C23.1396 84.5944 23.1396 83.0707 23.1396 81.547C23.1396 80.0234 23.5107 79.7162 24.9573 79.7162H31.1151L32.2159 70.9071H20.0029C19.69 70.9185 19.3768 70.897 19.0683 70.843C18.7657 70.8045 18.4905 70.6488 18.3014 70.4094C18.1123 70.17 18.0243 69.866 18.0569 69.5626C18.05 69.2557 18.1648 68.9588 18.3757 68.7358C18.5867 68.5129 18.8766 68.382 19.1834 68.372C19.5245 68.3526 19.8668 68.3526 20.2079 68.372H80.5942C81.0205 68.397 81.448 68.397 81.8744 68.372C82.8288 68.3125 83.7332 67.9242 84.4335 67.2729C85.1337 66.6216 85.5865 65.7474 85.7149 64.7997C85.8102 63.0938 85.8102 61.384 85.7149 59.6782H2.951V63.609C2.8915 64.2634 2.9772 64.9227 3.20166 65.5402C3.42611 66.1577 3.78354 66.7182 4.24931 67.1816C4.71508 67.645 5.27719 68.0001 5.8958 68.2213C6.51441 68.4425 7.17463 68.5246 7.82858 68.4617H13.8326C14.8567 68.4617 15.4453 68.9354 15.4709 69.742C15.4965 70.5487 14.8693 71.0224 13.8963 71.0224C11.7456 71.0224 9.59491 71.0224 7.49541 71.0224C5.86026 71.0506 4.26798 70.4992 3.00038 69.4657C1.73278 68.4323 0.872074 66.9833 0.570026 65.3758C0.520313 65.235 0.460238 65.0983 0.390625 64.9663ZM74.4239 56.8871V55.8499C74.4239 38.7782 74.4239 21.7366 74.4239 4.7247C74.4239 3.009 74.0009 2.57376 72.3111 2.57376H16.4567C14.7669 2.57376 14.3445 3.00898 14.3445 4.71188C14.3445 21.7835 14.3445 38.8551 14.3445 55.9268V56.8871H74.4239ZM11.6948 8.2329H7.73857C7.09139 8.17991 6.44054 8.26919 5.83142 8.49423C5.2223 8.71927 4.66976 9.07473 4.21243 9.53578C3.7551 9.99683 3.4043 10.5521 3.18416 11.1631C2.96401 11.7741 2.87973 12.4259 2.93787 13.0727V56.8614H6.04895V23.3285C6.02977 23.0429 6.02977 22.7564 6.04895 22.4708C6.06855 22.1447 6.21227 21.8384 6.45026 21.6146C6.68825 21.3909 7.00251 21.2664 7.32913 21.267C7.66866 21.267 7.99418 21.402 8.23427 21.6421C8.47435 21.8822 8.60932 22.2078 8.60932 22.5474C8.60932 22.8291 8.60932 23.1238 8.60932 23.4054V56.8742H11.656V13.9946H8.60932C8.60932 15.0957 8.60932 16.1456 8.60932 17.1955C8.63717 17.379 8.62481 17.5665 8.57307 17.7447C8.52132 17.923 8.43168 18.0876 8.3099 18.2277C8.18813 18.3677 8.03727 18.4799 7.86796 18.5559C7.69865 18.6319 7.5147 18.6699 7.32913 18.6678C7.13953 18.6792 6.9496 18.6485 6.77343 18.5775C6.59725 18.5065 6.43892 18.3971 6.31024 18.2574C6.18155 18.1176 6.08589 17.9509 6.02957 17.7694C5.97325 17.588 5.95825 17.3964 5.98519 17.2083C5.98519 16.2865 5.98519 15.3775 5.98519 14.4557C5.9366 14.0392 5.98212 13.6172 6.11896 13.2209C6.2558 12.8246 6.48013 12.4642 6.7753 12.1665C7.07048 11.8689 7.42914 11.6415 7.82421 11.5014C8.21927 11.3612 8.64077 11.3118 9.05751 11.3569H11.6179L11.6948 8.2329ZM85.7787 56.8871V12.9959C85.7787 12.791 85.7787 12.599 85.7787 12.3941C85.7518 11.4531 85.4053 10.5495 84.7954 9.83243C84.1856 9.11541 83.3494 8.62786 82.4251 8.45047C80.6387 8.34155 78.8475 8.34155 77.0612 8.45047V11.4338H79.3521C81.6821 11.4338 82.6807 12.458 82.6807 14.8011V56.9511L85.7787 56.8871ZM77.0355 13.9946V56.8614H80.031V13.9946H77.0355ZM40.2302 70.9199C38.4891 70.9199 36.8628 70.9199 35.2369 70.9199C35.1262 70.9477 35.0249 71.0036 34.9419 71.0821C34.859 71.1606 34.7976 71.2591 34.7638 71.3681C34.4053 74.1081 34.0724 76.8609 33.7267 79.6393H54.9904C54.6448 76.8481 54.3119 74.1338 53.9534 71.4066C53.9534 71.2273 53.6717 70.9199 53.5309 70.9199C51.8794 70.9199 50.2281 70.9199 48.487 70.9199C48.487 72.3539 48.487 73.6854 48.487 75.0298C48.487 76.131 48.0262 76.5919 46.9124 76.6047C45.2055 76.6047 43.4986 76.6047 41.7916 76.6047C40.6267 76.6047 40.1917 76.1437 40.1789 74.9786C40.1661 73.8134 40.2558 72.3667 40.2558 70.9199H40.2302ZM25.7512 85.3369H62.8766V82.3792H25.7512V85.3369ZM42.8668 70.9583V73.993H45.8629V70.9583H42.8668Z" fill="white"/>
<path d="M44.3521 65.2096C43.4688 65.2096 42.5853 65.2096 41.6892 65.2096C40.7931 65.2096 40.2687 64.7103 40.2559 63.9292C40.255 63.7498 40.2912 63.5722 40.3634 63.4078C40.4356 63.2435 40.5419 63.0963 40.6747 62.9755C40.8075 62.8548 40.9643 62.7633 41.1348 62.707C41.3052 62.6508 41.485 62.6309 41.6636 62.6489C43.4686 62.6489 45.2737 62.6489 47.0787 62.6489C47.2593 62.627 47.4428 62.6441 47.6163 62.6986C47.7898 62.7531 47.9495 62.8438 48.0851 62.9649C48.2208 63.086 48.329 63.2347 48.4027 63.401C48.4764 63.5673 48.514 63.7474 48.5127 63.9292C48.5127 64.7103 47.9751 65.2096 47.015 65.2096C46.0548 65.2096 45.2482 65.2096 44.3521 65.2096Z" fill="white"/>
<path d="M62.7618 19.9994C66.6023 21.2797 68.5098 23.6997 68.4457 27.0927C68.3817 30.268 66.2695 32.8031 62.7618 33.8018V37.6429C62.7618 38.3215 62.7618 39.0131 62.7618 39.7045C62.7723 40.0711 62.7081 40.436 62.573 40.777C62.4379 41.118 62.2354 41.4279 61.9767 41.6879C61.7179 41.9478 61.4088 42.1523 61.0684 42.289C60.7281 42.4256 60.3636 42.4916 59.997 42.4828C59.0753 42.4828 58.1658 42.4828 57.2441 42.4828C56.8963 42.4965 56.5495 42.4408 56.2233 42.319C55.8972 42.1972 55.5989 42.0118 55.3451 41.7735C55.0913 41.5352 54.887 41.2486 54.745 40.9308C54.603 40.6129 54.5257 40.2701 54.5175 39.922C54.5175 39.4099 54.2873 39.2436 53.8649 39.1027C48.8977 37.4511 43.9436 35.7864 38.9765 34.1604C38.4013 34.0216 37.8137 33.9401 37.2225 33.9172V42.7516C37.4401 42.7516 37.7215 42.8286 37.9776 42.8926C38.5269 43.0222 39.0181 43.3296 39.3746 43.7672C39.7312 44.2048 39.9331 44.7481 39.9491 45.3124C39.9491 46.3495 39.9491 47.3737 39.9491 48.4108C39.9611 48.7545 39.9036 49.0974 39.7803 49.4185C39.6571 49.7397 39.4705 50.0324 39.2315 50.2797C38.9925 50.5271 38.7061 50.7238 38.3895 50.858C38.0729 50.9923 37.7326 51.0614 37.3887 51.0612C34.4571 51.0612 31.5381 51.0612 28.6193 51.0612C28.2732 51.0616 27.9307 50.9917 27.6123 50.8558C27.2939 50.72 27.0065 50.5211 26.7672 50.271C26.5279 50.0209 26.3413 49.7248 26.2196 49.4007C26.0979 49.0766 26.0434 48.7313 26.059 48.3854C26.059 47.502 26.059 46.6056 26.059 45.7222C26.0292 45.3705 26.0695 45.0164 26.1771 44.6803C26.2847 44.3442 26.4575 44.0327 26.6859 43.7638C26.9144 43.4948 27.1937 43.2738 27.5079 43.1133C27.8222 42.9528 28.165 42.856 28.5168 42.8285L28.9269 42.7132V39.2947C28.9269 37.6942 28.9269 36.0937 28.9269 34.4933C28.9294 34.3037 28.879 34.1171 28.7818 33.9544C28.6847 33.7916 28.5442 33.6591 28.3762 33.5714C27.6976 32.9847 27.0526 32.3606 26.4434 31.7021C26.2148 31.4625 25.9276 31.2859 25.6108 31.1898C24.9707 31.0874 24.3309 31.19 23.6524 31.0491C22.7548 30.8983 21.9372 30.4406 21.3395 29.7541C20.7418 29.0676 20.401 28.1945 20.375 27.2846C20.375 26.1707 20.375 25.0441 20.375 23.9302C20.4189 22.9256 20.8373 21.9739 21.5483 21.2629C22.2593 20.5518 23.2111 20.133 24.2156 20.0891H24.5612C25.0199 20.2069 25.5059 20.1568 25.9308 19.9478C26.3557 19.7388 26.6917 19.3849 26.8784 18.9497C27.2443 18.3606 27.7681 17.8858 28.3905 17.5802C29.013 17.2746 29.7092 17.1503 30.399 17.2211C32.8441 17.2211 35.2764 17.2211 37.7088 17.2211C38.2779 17.2268 38.8444 17.1404 39.3859 16.965C44.161 15.3902 48.9232 13.777 53.7111 12.2149C54.3 12.0101 54.569 11.7666 54.5818 11.1008C54.6307 10.4814 54.9031 9.901 55.3482 9.46755C55.7934 9.03411 56.3805 8.77709 57.0009 8.74484C58.0251 8.74484 59.0623 8.74484 60.0864 8.74484C60.4535 8.73172 60.8193 8.7956 61.1603 8.93209C61.5014 9.06858 61.81 9.2748 62.0667 9.53757C62.3234 9.80035 62.5226 10.114 62.6511 10.4582C62.7797 10.8023 62.8347 11.1695 62.813 11.5363C62.813 14.097 62.813 16.6578 62.813 19.2185L62.7618 19.9994ZM54.4281 36.4523V14.5834C54.3514 14.5765 54.2741 14.5765 54.1974 14.5834C49.6016 16.1071 45.0188 17.618 40.4485 19.1801C40.3126 19.2707 40.1998 19.3921 40.1197 19.5345C40.0397 19.6769 39.9941 19.8361 39.9872 19.9994C39.9872 23.6484 39.9872 27.2847 39.9872 30.921C39.9542 31.1551 40.0152 31.393 40.1566 31.5824C40.2981 31.7719 40.5091 31.8977 40.743 31.9325C45.0572 33.3537 49.3712 34.8007 53.6855 36.2347L54.4281 36.4523ZM37.3118 31.3308V19.7049C34.8155 19.7049 32.3834 19.7049 29.9639 19.7049C29.7739 19.7042 29.5855 19.7431 29.4113 19.819C29.2371 19.8949 29.0807 20.0063 28.9519 20.146C28.823 20.2857 28.7247 20.4507 28.6631 20.6305C28.6014 20.8102 28.5777 21.001 28.5937 21.1903C28.5937 24.084 28.5937 26.9731 28.5937 29.8582C28.5798 30.0379 28.602 30.2187 28.6593 30.3896C28.7166 30.5605 28.8081 30.7182 28.9275 30.8531C29.0469 30.9881 29.1924 31.0975 29.3551 31.1751C29.5177 31.2528 29.6938 31.2971 29.8739 31.3052C32.3574 31.318 34.8155 31.2923 37.3118 31.2923V31.3308ZM60.1502 11.2418H57.1291V39.8451H60.1502V11.2418ZM31.4997 33.9556V42.7003H34.4827V33.9556H31.4997ZM37.3375 45.479H28.645V48.4492H37.3375V45.479ZM62.813 31.1514C63.7317 30.8732 64.5317 30.2966 65.0859 29.5128C65.64 28.7289 65.9169 27.7828 65.8729 26.8239C65.8476 25.9312 65.5366 25.0701 64.9859 24.3672C64.4351 23.6643 63.6736 23.1566 62.813 22.9187V31.1514ZM25.9308 28.5906V22.6242C25.4059 22.6242 24.9583 22.6242 24.4975 22.6242C24.2824 22.6045 24.0655 22.6323 23.8624 22.7058C23.6593 22.7793 23.475 22.8966 23.3223 23.0493C23.1696 23.2021 23.052 23.3867 22.9785 23.5898C22.905 23.7929 22.8776 24.0096 22.8972 24.2247C22.8972 25.1721 22.8972 26.1068 22.8972 27.0542C22.8832 27.2482 22.9092 27.443 22.9735 27.6266C23.0378 27.8101 23.139 27.9786 23.271 28.1214C23.4031 28.2642 23.5626 28.3786 23.7405 28.4571C23.9184 28.5357 24.1105 28.5766 24.3049 28.5778C24.8426 28.5138 25.3803 28.4756 25.9308 28.4756V28.5906Z" fill="white"/>
<path d="M20.3236 11.2037C19.2226 10.9477 17.5332 11.6261 17.5332 9.82082C17.5332 8.0155 19.1842 8.73243 20.3236 8.46355C20.3236 8.02823 20.3236 7.5547 20.3236 7.08096C20.3094 6.90441 20.3319 6.72661 20.3899 6.55925C20.4478 6.39188 20.5402 6.23846 20.6605 6.10849C20.7809 5.97853 20.927 5.87499 21.0893 5.80434C21.2517 5.73369 21.4267 5.69749 21.6038 5.69806C21.785 5.68852 21.9666 5.71757 22.1357 5.7834C22.3049 5.84923 22.4581 5.95018 22.5852 6.07973C22.7123 6.20929 22.8101 6.3645 22.8727 6.53487C22.9353 6.70523 22.9613 6.8871 22.9484 7.06815C22.9484 7.52908 22.9484 7.9771 22.9484 8.55327C23.486 8.55327 23.9593 8.55327 24.433 8.55327C24.6064 8.54458 24.7796 8.57128 24.9424 8.63173C25.1052 8.69217 25.2542 8.78516 25.38 8.90493C25.5057 9.0247 25.6061 9.16882 25.6744 9.32849C25.7427 9.48816 25.7777 9.65997 25.7775 9.83364C25.7775 10.1732 25.6426 10.4988 25.4025 10.7389C25.1624 10.979 24.8369 11.114 24.4973 11.114C24.0365 11.114 23.5754 11.114 22.9865 11.114C22.9865 11.6262 22.9865 12.0998 22.9865 12.5735C22.9976 12.7535 22.9706 12.9339 22.9071 13.1027C22.8436 13.2715 22.7452 13.425 22.6183 13.5532C22.4914 13.6813 22.3389 13.7813 22.1708 13.8464C22.0026 13.9114 21.8226 13.9401 21.6426 13.9308C21.4666 13.9312 21.2921 13.8953 21.1306 13.8254C20.9691 13.7555 20.8238 13.6533 20.7037 13.5247C20.5835 13.3962 20.4912 13.2442 20.4324 13.0783C20.3736 12.9125 20.35 12.7362 20.3624 12.5607C20.3112 12.1254 20.3236 11.6775 20.3236 11.2037Z" fill="white"/>
<path d="M68.4955 48.3338C69.5452 48.6027 71.2097 47.8985 71.2353 49.6142C71.2609 51.3299 69.5708 50.7791 68.4442 51.0096C68.4442 51.4961 68.4442 51.97 68.4442 52.4566C68.4442 52.7961 68.3099 53.1217 68.0698 53.3618C67.8297 53.6019 67.5036 53.7369 67.164 53.7369C66.8245 53.7369 66.499 53.6019 66.2589 53.3618C66.0188 53.1217 65.8839 52.7961 65.8839 52.4566C65.8839 52.0084 65.8839 51.5473 65.8839 50.9711C65.359 50.9711 64.8854 50.9711 64.4118 50.9711C64.2373 50.9816 64.0629 50.9564 63.8986 50.8967C63.7343 50.8371 63.5838 50.7444 63.4566 50.6245C63.3295 50.5045 63.2282 50.3599 63.1591 50.1993C63.09 50.0388 63.0544 49.8656 63.0547 49.6908C63.0541 49.5136 63.0903 49.3383 63.161 49.1759C63.2316 49.0135 63.3354 48.8677 63.4654 48.7474C63.5953 48.627 63.7487 48.5349 63.9161 48.477C64.0834 48.419 64.2609 48.3962 64.4374 48.4104C64.8983 48.4104 65.3467 48.4104 65.8076 48.4104C66.0636 47.2965 65.3846 45.6064 67.1897 45.6064C68.9947 45.6064 68.2907 47.2839 68.4955 48.3338Z" fill="white"/>
<path d="M33.0098 26.7986C32.6706 26.8011 32.3318 26.771 31.9984 26.7089C31.7032 26.6585 31.4378 26.4988 31.2551 26.2615C31.0724 26.0242 30.9858 25.7268 31.0126 25.4285C31.0124 25.1226 31.1313 24.8287 31.3439 24.6089C31.5565 24.389 31.8465 24.2606 32.1521 24.2506C32.6383 24.225 33.125 24.225 33.6111 24.2506C33.7856 24.2402 33.9606 24.2654 34.1249 24.325C34.2892 24.3847 34.4397 24.4774 34.5669 24.5973C34.694 24.7173 34.7953 24.8622 34.8644 25.0227C34.9335 25.1833 34.9685 25.3562 34.9682 25.531C34.9685 25.7058 34.9335 25.8787 34.8644 26.0393C34.7953 26.1999 34.694 26.3448 34.5669 26.4647C34.4397 26.5847 34.2892 26.6774 34.1249 26.737C33.9606 26.7966 33.7856 26.8219 33.6111 26.8114C33.4191 26.8114 33.2146 26.8114 33.0098 26.8114V26.7986Z" fill="white"/>
</g>
<defs>
<clipPath id="clip0_995_2711">
<rect width="88" height="88" fill="white" transform="translate(0.390625)"/>
</clipPath>
</defs>
</svg>
