<svg width="95" height="94" viewBox="0 0 95 94" fill="none" xmlns="http://www.w3.org/2000/svg">
<g clip-path="url(#clip0_995_2735)">
<path d="M36.4361 93.9996C35.8505 93.8503 35.2881 93.7241 34.6795 93.5404C33.3493 93.1687 32.1068 92.534 31.026 91.6741C29.9452 90.8142 29.0479 89.7463 28.3868 88.5337C27.7176 87.1661 26.6547 86.0298 25.335 85.2707C24.0152 84.5116 22.4986 84.1644 20.98 84.2735C19.5535 84.2922 18.1379 84.0242 16.8169 83.4855C15.4958 82.9467 14.2962 82.1482 13.2896 81.1373C12.2829 80.1263 11.4896 78.9234 10.9565 77.6001C10.4234 76.2768 10.1614 74.8601 10.1861 73.4336C10.2842 71.9301 9.93498 70.4312 9.18304 69.1255C8.43109 67.8198 7.30987 66.7655 5.96017 66.0958C4.69901 65.3962 3.59227 64.4493 2.7059 63.3117C1.81953 62.174 1.17171 60.8691 0.801779 59.4751C0.43185 58.0812 0.347203 56.627 0.552831 55.1995C0.758459 53.7721 1.24998 52.4007 1.9983 51.1679C2.81497 49.9396 3.25089 48.4976 3.25089 47.0227C3.25089 45.5477 2.81497 44.1054 1.9983 42.8772C1.24972 41.6427 0.759068 40.2697 0.555074 38.8404C0.351079 37.4112 0.437979 35.9553 0.811311 34.5607C1.18464 33.166 1.83646 31.8614 2.7272 30.7252C3.61795 29.589 4.72972 28.6447 5.99493 27.9492C7.31715 27.2907 8.41682 26.2585 9.15781 24.9806C9.89879 23.7028 10.2484 22.2355 10.1631 20.7609C10.1254 19.3124 10.3821 17.8714 10.9184 16.5254C11.4547 15.1793 12.2593 13.9564 13.2828 12.9308C14.3063 11.9051 15.5275 11.0981 16.8724 10.559C18.2173 10.0199 19.6577 9.76007 21.1062 9.7948C22.5791 9.88658 24.0464 9.54215 25.3249 8.80489C26.6033 8.06764 27.6365 6.97013 28.2949 5.64931C28.9821 4.37621 29.9205 3.25582 31.0535 2.35607C32.1864 1.45631 33.4902 0.795787 34.8858 0.414665C36.2815 0.0335423 37.7399 -0.0602517 39.1729 0.138803C40.6059 0.337858 41.9838 0.82569 43.2228 1.57278C44.4863 2.41994 45.9729 2.87247 47.4942 2.87247C49.0154 2.87247 50.5026 2.41994 51.7661 1.57278C53.7927 0.322064 56.1994 -0.162548 58.5522 0.206367C58.9705 0.229451 59.367 0.402114 59.6685 0.693049C59.97 0.983985 60.1565 1.37365 60.1944 1.79089C60.2391 2.04986 60.224 2.31581 60.1502 2.56801C60.0763 2.82021 59.9456 3.05222 59.7683 3.24617C59.591 3.44012 59.3715 3.59076 59.1269 3.68688C58.8823 3.78299 58.619 3.82176 58.3571 3.80042C56.3389 3.6853 54.3342 4.19451 52.6155 5.25878C50.9608 6.21752 49.0729 6.69831 47.1611 6.64762C45.2493 6.59694 43.3891 6.01678 41.7874 4.97171C40.7486 4.28713 39.5505 3.88215 38.3094 3.79565C37.0683 3.70916 35.8262 3.94415 34.7025 4.47802C33.3791 5.06885 32.2855 6.07727 31.5901 7.34877C30.6213 9.30993 29.0932 10.9403 27.1987 12.0337C25.3042 13.127 23.1281 13.6346 20.9453 13.4923C20.0156 13.4753 19.0921 13.645 18.2293 13.9916C17.3664 14.3382 16.5822 14.8546 15.9226 15.51C15.2629 16.1653 14.7413 16.9463 14.3891 17.8068C14.0369 18.6674 13.8612 19.59 13.8721 20.5198C14.0056 22.7175 13.4911 24.9062 12.393 26.8147C11.2949 28.7231 9.66158 30.2675 7.69439 31.2565C6.87533 31.7012 6.15465 32.3073 5.57665 33.0384C4.99865 33.7695 4.57503 34.6104 4.33135 35.5099C4.08767 36.4095 4.02926 37.3493 4.15922 38.2722C4.28917 39.1951 4.6051 40.0818 5.08773 40.8791C6.29636 42.7171 6.94026 44.8689 6.94026 47.0686C6.94026 49.2684 6.29636 51.4199 5.08773 53.2579C4.59658 54.0588 4.27407 54.9516 4.14071 55.8816C4.00736 56.8116 4.06599 57.7591 4.31229 58.6658C4.55858 59.5724 4.98772 60.4191 5.57329 61.1538C6.15886 61.8885 6.88851 62.4956 7.71738 62.938C9.18208 63.6779 10.4643 64.7332 11.4729 66.0277C12.4815 67.3221 13.1909 68.8238 13.5503 70.4249C13.7454 71.4117 13.8381 72.4162 13.8261 73.4221C13.7977 74.3809 13.9652 75.3354 14.3184 76.2273C14.6716 77.1191 15.2028 77.9295 15.88 78.6088C16.5572 79.2882 17.366 79.8222 18.2568 80.1782C19.1475 80.5342 20.1013 80.7049 21.0602 80.6795C23.1968 80.5679 25.32 81.0764 27.174 82.144C29.0281 83.2116 30.5339 84.7927 31.5099 86.6965C31.958 87.5467 32.5766 88.2952 33.3265 88.8962C34.0765 89.4971 34.9419 89.9374 35.8693 90.1894C36.7966 90.4414 37.7661 90.4999 38.717 90.3613C39.668 90.2226 40.5798 89.8897 41.3966 89.3834C43.1997 88.2065 45.3067 87.5799 47.46 87.5799C49.6132 87.5799 51.7196 88.2065 53.5227 89.3834C54.3355 89.8828 55.2419 90.2106 56.186 90.3467C57.1302 90.4827 58.0924 90.4244 59.0131 90.1748C59.9338 89.9253 60.7939 89.4898 61.5401 88.8956C62.2864 88.3014 62.9029 87.561 63.3523 86.7195C64.3288 84.7979 65.843 83.2014 67.7106 82.1249C69.5781 81.0484 71.7186 80.5384 73.8709 80.6565C74.8217 80.682 75.7677 80.5129 76.6508 80.1597C77.534 79.8064 78.3359 79.2763 79.0069 78.6021C79.6778 77.9279 80.2037 77.1239 80.5527 76.239C80.9017 75.3542 81.0661 74.4073 81.036 73.4566C80.9201 71.3193 81.4269 69.1943 82.4949 67.3394C83.563 65.4846 85.1467 63.9795 87.0534 63.0069C87.9097 62.5542 88.6631 61.9291 89.2659 61.1709C89.8687 60.4127 90.3079 59.5379 90.556 58.6016C90.8042 57.6652 90.8557 56.6877 90.7074 55.7305C90.5592 54.7733 90.214 53.8571 89.6943 53.0397C88.5414 51.2552 87.9281 49.1758 87.9281 47.0513C87.9281 44.9267 88.5414 42.8475 89.6943 41.063C90.2091 40.2435 90.549 39.3263 90.6929 38.3692C90.8367 37.4121 90.7814 36.4356 90.5303 35.501C90.2791 34.5663 89.8376 33.6935 89.2334 32.9375C88.6291 32.1814 87.8749 31.5582 87.0186 31.1071C85.132 30.1427 83.5636 28.6551 82.5005 26.8222C81.4375 24.9894 80.925 22.8889 81.0248 20.7724C81.0585 19.8057 80.8926 18.8427 80.5381 17.9428C80.1836 17.0429 79.6476 16.2256 78.9637 15.5416C78.2798 14.8577 77.4627 14.3217 76.5628 13.9672C75.6629 13.6127 74.6996 13.4471 73.733 13.4808C72.941 13.4925 72.1494 13.4347 71.3674 13.3084C70.9595 13.2157 70.5989 12.9788 70.352 12.6412C70.1051 12.3035 69.9886 11.8881 70.024 11.4713C70.0237 11.0364 70.1923 10.6184 70.4944 10.3056C70.7965 9.99278 71.2086 9.80969 71.6433 9.7948C73.5747 9.79073 75.5005 10.0023 77.3848 10.4261C79.5448 11.0774 81.4321 12.4179 82.759 14.2425C84.086 16.0671 84.7797 18.2756 84.7338 20.5313C84.6205 22.0785 84.9733 23.6244 85.747 24.9692C86.5207 26.3139 87.6796 27.3959 89.0741 28.0757C90.4353 28.8254 91.61 29.8723 92.5106 31.1388C93.4112 32.4052 94.0149 33.8583 94.2763 35.3902C94.3337 35.6199 94.4025 35.8497 94.4714 36.0908V38.8351C93.7365 40.6035 93.0243 42.3605 92.2779 44.1174C91.8603 45.0553 91.6449 46.0705 91.6449 47.0972C91.6449 48.1239 91.8603 49.1391 92.2779 50.077C93.0243 51.8339 93.7365 53.6024 94.4714 55.3593V58.1152C94.414 58.3104 94.3334 58.5171 94.2875 58.7238C94.0233 60.2979 93.403 61.7909 92.4736 63.0885C91.5442 64.3861 90.3303 65.454 88.925 66.2107C87.5893 66.8722 86.4797 67.9146 85.7358 69.2062C84.9919 70.4978 84.6469 71.9808 84.745 73.4681C84.7748 74.9083 84.513 76.3395 83.9752 77.6758C83.4373 79.0122 82.6349 80.226 81.6158 81.2441C80.5966 82.2621 79.3822 83.0634 78.0453 83.5998C76.7084 84.1363 75.2763 84.3968 73.8361 84.3655C72.3488 84.2661 70.8658 84.6115 69.5754 85.3579C68.2851 86.1043 67.2457 87.2178 66.5903 88.5567C65.9254 89.7824 65.0223 90.863 63.9337 91.7347C62.8452 92.6063 61.5937 93.2515 60.2522 93.6323C59.678 93.8161 59.1036 93.9423 58.495 94.0915H55.7392C53.8563 93.5975 52.046 92.8603 50.3537 91.8984C49.4402 91.4587 48.439 91.2303 47.4252 91.2303C46.4114 91.2303 45.4108 91.4587 44.4972 91.8984C42.7403 92.6448 40.9718 93.3681 39.2149 94.0915L36.4361 93.9996Z" fill="white"/>
<path d="M47.4242 11.3567C56.7339 11.3271 65.6798 14.9707 72.3196 21.4963C72.651 21.7483 72.8971 22.096 73.0244 22.4924C73.1518 22.8887 73.1543 23.3146 73.0317 23.7124C72.9201 24.0148 72.7306 24.2824 72.4828 24.4884C72.235 24.6945 71.9375 24.8319 71.6199 24.8865C71.3023 24.9412 70.9759 24.9115 70.6734 24.8002C70.371 24.6888 70.1032 24.4997 69.8969 24.2521C67.8095 22.2292 65.475 20.4776 62.9493 19.0388C57.0283 15.7521 50.2182 14.4263 43.4966 15.2516C36.775 16.0768 30.4877 19.0106 25.5375 23.632L24.941 24.2061C24.7775 24.4109 24.572 24.5787 24.3388 24.6981C24.1056 24.8176 23.8497 24.8858 23.588 24.8989C23.3263 24.9119 23.0649 24.8692 22.821 24.7736C22.5771 24.6779 22.3564 24.5315 22.1734 24.3441C21.9951 24.1548 21.8582 23.9303 21.7714 23.6853C21.6846 23.4402 21.6499 23.1798 21.6693 22.9205C21.6888 22.6612 21.7617 22.4089 21.8841 22.1795C22.0065 21.9501 22.1752 21.7488 22.3797 21.5883C25.2194 18.745 28.5294 16.414 32.1633 14.6984C36.9354 12.4547 42.1511 11.3125 47.4242 11.3567Z" fill="white"/>
<path d="M45.7611 82.6545C36.9929 82.3582 28.6681 78.7275 22.485 72.5034C22.1192 72.2483 21.8537 71.8739 21.7343 71.4442C21.6148 71.0146 21.6485 70.5566 21.8301 70.1493C21.9625 69.8716 22.1629 69.6319 22.4121 69.4515C22.6614 69.2712 22.9514 69.1562 23.2565 69.1174C23.5617 69.0785 23.8722 69.1168 24.1587 69.2289C24.4452 69.341 24.6988 69.5234 24.8966 69.7591C26.9673 71.7638 29.2821 73.4999 31.7864 74.9264C37.6903 78.2232 44.4862 79.5665 51.2004 78.7641C57.9147 77.9617 64.2026 75.0545 69.1634 70.4594C69.4505 70.1838 69.7261 69.8968 70.0246 69.6441C70.1941 69.4659 70.398 69.324 70.624 69.227C70.85 69.13 71.0935 69.0801 71.3394 69.0801C71.5854 69.0801 71.8289 69.13 72.0549 69.227C72.2809 69.324 72.4848 69.4659 72.6543 69.6441C72.8231 69.8228 72.9541 70.0337 73.0395 70.2643C73.1248 70.4948 73.1628 70.7403 73.151 70.9859C73.1392 71.2314 73.0781 71.4722 72.9711 71.6935C72.864 71.9148 72.7133 72.1121 72.5281 72.2738C70.4348 74.3808 68.0759 76.2066 65.5116 77.7052C59.9193 81.0238 53.8796 82.6545 45.7611 82.6545Z" fill="white"/>
<path d="M22.2315 45.8743C22.8923 46.4287 23.4241 47.121 23.7891 47.9026C24.1541 48.6841 24.3438 49.5359 24.3447 50.3985C24.3458 51.8842 23.7706 53.3124 22.7406 54.3831C21.7106 55.4538 20.306 56.0835 18.8213 56.14C17.0874 56.2204 15.3761 56.14 13.5962 56.14C13.35 56.1553 13.1035 56.1178 12.8729 56.0301C12.6423 55.9424 12.4329 55.8067 12.259 55.6317C12.0851 55.4567 11.9505 55.2467 11.8643 55.0155C11.778 54.7844 11.742 54.5375 11.7588 54.2914C11.7588 49.4226 11.7588 44.5574 11.7588 39.6962C11.7398 39.4416 11.7762 39.1859 11.8654 38.9466C11.9546 38.7073 12.0947 38.4903 12.2758 38.3102C12.4569 38.1302 12.6751 37.9915 12.915 37.9037C13.1548 37.8159 13.4106 37.781 13.6652 37.8017C14.8824 37.8017 16.111 37.8017 17.3282 37.8017C21.8985 37.8361 24.3099 41.6944 22.2315 45.8743ZM15.4566 52.4885C16.6049 52.4885 17.6842 52.4885 18.7406 52.4885C19.2676 52.4561 19.7619 52.2222 20.121 51.8353C20.4802 51.4483 20.6768 50.9379 20.67 50.41C20.6892 49.9135 20.5238 49.4275 20.2057 49.0458C19.8876 48.6641 19.4393 48.4136 18.9475 48.343C17.7992 48.2511 16.6509 48.343 15.5026 48.343L15.4566 52.4885ZM15.4566 44.5995H17.363C17.577 44.6165 17.7921 44.6165 18.0061 44.5995C18.3738 44.5604 18.7142 44.3882 18.9638 44.1154C19.2133 43.8425 19.3544 43.4881 19.3607 43.1184C19.3797 42.9298 19.3614 42.7392 19.3063 42.5577C19.2513 42.3763 19.1607 42.2075 19.04 42.0613C18.9194 41.915 18.7709 41.7941 18.6032 41.7055C18.4356 41.6169 18.2521 41.5624 18.0633 41.5451C17.1906 41.4648 16.3178 41.5451 15.4106 41.5451L15.4566 44.5995Z" fill="white"/>
<path d="M64.8794 48.2405V40.6616C64.8527 40.2793 64.8527 39.8956 64.8794 39.5133C64.9258 39.0525 65.1465 38.627 65.4967 38.3238C65.8468 38.0206 66.3 37.8629 66.7627 37.8828C66.9929 37.8843 67.2202 37.9312 67.4322 38.021C67.6441 38.1109 67.8362 38.2419 67.9974 38.4062C68.1585 38.5706 68.2857 38.765 68.3714 38.9787C68.457 39.1924 68.4994 39.4211 68.4964 39.6512C68.4964 44.4511 68.4964 49.2508 68.4964 54.0507C68.5136 54.4862 68.3818 54.9148 68.123 55.2655C67.8641 55.6161 67.494 55.8682 67.0728 55.9801C66.6442 56.119 66.1804 56.1044 65.7613 55.9389C65.3423 55.7733 64.9942 55.4672 64.7762 55.0729C62.9045 52.3284 61.0441 49.5611 59.1838 46.8051C59.0011 46.504 58.7442 46.2548 58.4375 46.0816V46.8968C58.4375 49.3427 58.4375 51.7887 58.4375 54.2346C58.4628 54.4794 58.438 54.7267 58.3646 54.9616C58.2913 55.1964 58.1709 55.4139 58.0108 55.6008C57.8508 55.7877 57.6541 55.9401 57.4333 56.0488C57.2125 56.1574 56.972 56.2199 56.7263 56.2327C56.4814 56.2466 56.2365 56.2107 56.0058 56.1272C55.7751 56.0438 55.5638 55.9145 55.3846 55.7471C55.2053 55.5797 55.0619 55.3775 54.9629 55.153C54.864 54.9286 54.8114 54.6865 54.8087 54.4412C54.7513 53.6834 54.8087 52.914 54.8087 52.1446C54.8087 48.1715 54.8087 44.1985 54.8087 40.2254C54.8043 39.5966 54.9971 38.9821 55.3599 38.4685C56.1522 37.4924 57.484 37.7334 58.2878 38.9162L63.9262 47.2644L64.6612 48.3207L64.8794 48.2405Z" fill="white"/>
<path d="M30.0045 51.1109C30.0045 52.2592 30.0619 53.4075 30.0045 54.5558C29.9694 55.0035 29.7641 55.4207 29.4309 55.7218C29.0978 56.0229 28.662 56.185 28.2131 56.1749C27.7803 56.1712 27.3632 56.0131 27.0368 55.7288C26.7104 55.4445 26.4965 55.0528 26.4335 54.6245C26.4024 54.2424 26.4024 53.8584 26.4335 53.4762C26.4335 49.7787 26.4335 46.0813 26.4335 42.3722C26.4335 41.5455 26.4335 40.7303 26.4335 39.9035C26.4335 38.4337 27.1338 37.779 28.5921 37.779C29.8438 37.7234 31.0977 37.7427 32.3471 37.8365C33.6363 37.9686 34.8429 38.533 35.7707 39.4378C36.6985 40.3427 37.293 41.5348 37.4573 42.8202C37.5814 44.0478 37.2974 45.2819 36.6499 46.3321C36.0023 47.3824 35.027 48.1901 33.8744 48.6304L33.3463 48.8715L35.861 51.7538C36.2055 52.1442 36.5616 52.5231 36.8831 52.9021C37.0786 53.0745 37.2351 53.2866 37.3423 53.5242C37.4496 53.7618 37.5049 54.0196 37.5049 54.2803C37.5049 54.5409 37.4496 54.7985 37.3423 55.0361C37.2351 55.2737 37.0786 55.4858 36.8831 55.6582C36.6837 55.8283 36.4503 55.954 36.1985 56.0271C35.9467 56.1002 35.6821 56.119 35.4225 56.0821C35.163 56.0451 34.9144 55.9533 34.693 55.8129C34.4716 55.6725 34.2826 55.4867 34.1385 55.2676C33.0591 54.0619 31.9912 52.8333 30.9347 51.6161C30.7395 51.3865 30.5788 51.1337 30.4065 50.904L30.0045 51.1109ZM30.1307 45.4381C31.3938 45.4955 32.5997 45.645 33.4264 44.4967C33.6425 44.2128 33.7595 43.8658 33.7595 43.509C33.7595 43.1523 33.6425 42.8055 33.4264 42.5217C32.5997 41.293 31.3599 41.4651 30.1082 41.5455L30.1307 45.4381Z" fill="white"/>
<path d="M70.8854 46.9536C70.8854 44.657 70.8854 42.3604 70.8854 40.0638C70.8854 38.4217 71.517 37.7672 73.182 37.7672C74.2195 37.7231 75.2587 37.7423 76.2939 37.8247C77.5352 37.9302 78.725 38.3703 79.736 39.0983C80.747 39.8262 81.5415 40.8149 82.0354 41.9587C82.8034 43.5152 83.1944 45.2304 83.1764 46.9659C83.1585 48.7015 82.7323 50.4086 81.9322 51.9488C81.3395 53.2211 80.3878 54.2922 79.1944 55.0307C78.0009 55.7692 76.6176 56.1428 75.2145 56.1055C74.4567 56.1055 73.6873 56.1055 72.9179 56.1055C72.6521 56.1384 72.3824 56.1122 72.1279 56.0284C71.8735 55.9447 71.6404 55.8055 71.4461 55.6211C71.2518 55.4367 71.1007 55.2115 71.0037 54.9617C70.9068 54.712 70.8664 54.4437 70.8854 54.1765C70.8854 51.765 70.8854 49.3421 70.8854 46.9306V46.9536ZM74.6404 41.5566V52.4425C75.5192 52.605 76.4271 52.4476 77.2 51.999C77.9729 51.5504 78.5597 50.8404 78.8546 49.9968C79.6097 48.1666 79.6627 46.1222 79.0037 44.2553C78.7469 43.3302 78.1497 42.5365 77.3317 42.0338C76.5138 41.5311 75.5358 41.3564 74.5944 41.5452L74.6404 41.5566Z" fill="white"/>
<path d="M43.3249 53.7867C43.1756 54.1771 43.0607 54.5218 42.9229 54.8548C42.8546 55.0875 42.7411 55.3042 42.5881 55.4923C42.4352 55.6805 42.2463 55.8363 42.0325 55.9507C41.8187 56.0651 41.5842 56.1356 41.3428 56.1584C41.1014 56.1812 40.8577 56.1556 40.6263 56.0833C40.3831 56.0084 40.1584 55.8838 39.9663 55.7169C39.7743 55.55 39.6192 55.3447 39.511 55.1144C39.4029 54.8841 39.3441 54.6337 39.3383 54.3794C39.3326 54.125 39.3803 53.8725 39.478 53.6376C40.3277 51.0539 41.2119 48.4932 42.0846 45.921C42.7851 43.8311 43.4744 41.7527 44.1749 39.6743C44.5883 38.4456 45.3228 37.8484 46.2988 37.8369C46.8087 37.8412 47.3017 38.0219 47.6933 38.3485C48.0848 38.6752 48.3507 39.1275 48.4463 39.6283L53.0395 53.408C53.1651 53.6466 53.238 53.9095 53.2525 54.1789C53.2671 54.4483 53.2228 54.7175 53.1236 54.9684C53.0243 55.2192 52.8722 55.4457 52.6773 55.6322C52.4824 55.8187 52.2493 55.9607 51.9943 56.0488C50.9494 56.4278 49.985 55.8883 49.5946 54.5907C49.5697 54.4531 49.518 54.3216 49.4421 54.2041C49.3661 54.0867 49.2675 53.9857 49.1522 53.9067C49.0368 53.8276 48.9067 53.7723 48.7698 53.7438C48.6329 53.7154 48.4916 53.7145 48.3543 53.741C46.6433 53.8214 44.9555 53.7867 43.3249 53.7867ZM46.4025 45.1172H46.2069L44.5651 50.0547H48.01L46.4025 45.1172Z" fill="white"/>
<path d="M45.4614 29.0517C44.1638 29.4881 43.314 29.2928 42.8088 28.4316C42.3035 27.5704 42.5448 26.6976 43.5438 25.7905C42.5104 24.6421 42.3153 23.8956 42.8205 23.0688C43.3258 22.2421 44.1067 22.0356 45.4732 22.4145C45.7947 21.0595 46.4607 20.382 47.4597 20.428C48.4587 20.4739 49.0327 21.1168 49.2624 22.2651C49.9079 22.248 50.5539 22.2904 51.1917 22.3915C51.5523 22.5496 51.8449 22.8302 52.0182 23.1838C52.489 23.9876 52.2252 24.7684 51.2607 25.7445C52.2827 26.8124 52.4892 27.6965 51.915 28.5348C51.3408 29.373 50.5598 29.4763 49.3885 29.0629C49.2363 29.5606 49.004 30.0302 48.7 30.4526C48.3205 30.7898 47.84 30.9917 47.3336 31.0268C46.3345 31.0842 45.8174 30.4641 45.4614 29.0517Z" fill="white"/>
<path d="M51.2266 68.2319C52.2716 69.2769 52.4896 70.161 51.9499 70.9992C51.4102 71.8375 50.6069 72.0098 49.3438 71.5734C48.9419 73.0203 48.356 73.6059 47.3685 73.5944C46.3809 73.5829 45.7839 72.9284 45.4739 71.6079C44.0729 71.9983 43.2575 71.7802 42.7753 70.8731C42.293 69.9659 42.5572 69.2196 43.4414 68.3814C43.109 67.8265 42.8284 67.2422 42.6031 66.6359C42.5493 66.2338 42.6431 65.8258 42.8672 65.4876C43.361 64.6608 44.1875 64.5116 45.4621 64.9365C45.8296 63.4781 46.3692 62.9154 47.4257 62.9269C48.4821 62.9384 49.0105 63.5355 49.309 64.902C50.7329 64.5116 51.5139 64.7066 52.0076 65.6023C52.5014 66.498 52.2371 67.3363 51.2266 68.2319Z" fill="white"/>
<path d="M66.8778 6.67158C66.887 6.90912 66.849 7.14636 66.7651 7.3688C66.6812 7.59124 66.5538 7.79446 66.39 7.96678C66.2262 8.13911 66.0292 8.27679 65.8114 8.37188C65.5935 8.46697 65.3589 8.51758 65.1211 8.52047C64.876 8.52813 64.6317 8.48669 64.4029 8.39852C64.1741 8.31034 63.9655 8.17731 63.7889 8.00715C63.6124 7.83699 63.4717 7.63317 63.3751 7.40777C63.2786 7.18237 63.228 6.93978 63.2266 6.69457C63.2384 6.21619 63.435 5.76109 63.7755 5.42487C64.116 5.08866 64.5737 4.89773 65.0522 4.89193C65.2893 4.88737 65.5252 4.92999 65.7458 5.01725C65.9663 5.10451 66.1674 5.23462 66.3373 5.4002C66.5071 5.56578 66.6425 5.76336 66.7354 5.98164C66.8282 6.19992 66.8763 6.43437 66.8778 6.67158Z" fill="white"/>
</g>
<defs>
<clipPath id="clip0_995_2735">
<rect width="94" height="94" fill="white" transform="translate(0.390625)"/>
</clipPath>
</defs>
</svg>
