<svg width="112" height="111" viewBox="0 0 112 111" fill="none" xmlns="http://www.w3.org/2000/svg">
<rect x="1.30529" width="76.4786" height="76.4786" rx="4.60057" transform="matrix(0.709308 -0.704899 0.709308 0.704899 0.404828 56.4025)" stroke="#25694D" stroke-width="1.84023"/>
<g clip-path="url(#clip0_1038_7)">
<path d="M76.5648 62.3884V40.7562H70.9793V39.3058H76.5482C76.5531 39.0532 76.4747 38.806 76.3249 38.6021C76.175 38.3983 75.962 38.2492 75.7188 38.1777C75.3164 38.0463 74.8979 37.9699 74.4748 37.9504C73.3303 37.9215 72.1901 37.9504 70.971 37.9504C70.971 37.5 70.971 37.095 70.971 36.6859C70.971 36.6239 71.1078 36.5207 71.1783 36.5207C72.669 36.4941 74.16 36.5506 75.6443 36.6901C77.2325 36.9091 78.0078 38.0124 78.0078 39.6074V65.7562C78.0493 66.5748 77.8014 67.3819 77.3075 68.0372C76.8135 68.6925 76.1046 69.1546 75.3042 69.343C74.9909 69.4199 74.6691 69.456 74.3465 69.4504H60.4757C60.5427 70.9182 61.0772 72.3265 62.0017 73.4711C62.1148 73.5746 62.2628 73.6322 62.4164 73.6323C62.8974 73.6323 63.3785 73.6323 63.8926 73.6323V74.9958H47.1026V73.6323C47.5753 73.6323 48.0439 73.6323 48.5083 73.6323C48.6272 73.6438 48.7469 73.6225 48.8544 73.5707C48.9619 73.519 49.053 73.4387 49.1178 73.3388C49.9638 72.2047 50.4583 70.8487 50.5402 69.438H36.7026C36.2129 69.4607 35.7239 69.3818 35.2664 69.2062C34.809 69.0305 34.3933 68.7621 34.0455 68.4179C33.6977 68.0736 33.4255 67.6611 33.2461 67.2064C33.0668 66.7518 32.9843 66.265 33.0038 65.7769C33.0038 57.0028 33.0038 48.2328 33.0038 39.4669C33.0038 37.8595 34.057 36.7685 35.8028 36.5495C36.0697 36.5164 36.3383 36.4999 36.6072 36.5H45.9333C46.066 36.5 46.1945 36.5 46.3479 36.5207V37.9421H45.0209C42.2094 37.9421 39.398 37.9421 36.5866 37.9421C36.1571 37.9559 35.7315 38.0282 35.3217 38.157C35.0723 38.2248 34.8521 38.3723 34.6949 38.5768C34.5376 38.7813 34.4519 39.0316 34.4511 39.2893H45.6472V40.719H34.4511V62.3801L76.5648 62.3884ZM76.5441 63.8802H34.4551V65.7892C34.4363 66.0851 34.4809 66.3817 34.5859 66.6591C34.6909 66.9366 34.854 67.1886 35.0642 67.3984C35.2744 67.6083 35.5268 67.7712 35.805 67.8763C36.0832 67.9815 36.3807 68.0264 36.6777 68.0083H74.3422C74.8726 68.0425 75.3959 67.8726 75.8041 67.5335C76.2123 67.1944 76.4742 66.712 76.5358 66.186C76.5781 65.418 76.5809 64.6484 76.5441 63.8802ZM52.0496 69.4959C51.8962 70.2108 51.7966 70.9132 51.5892 71.5867C51.3819 72.2603 51.0626 72.9091 50.7931 73.5702H60.289C59.5491 72.3296 59.1077 70.9351 58.9994 69.4959H52.0496Z" fill="white"/>
<path d="M54.5381 44.9668L55.807 43.7684C55.5512 43.1617 55.3391 42.5375 55.1724 41.9007C55.0624 41.3373 55.096 40.7554 55.2698 40.2082C55.4437 39.6611 55.7523 39.166 56.1676 38.7684C57.7185 37.1844 59.2861 35.6182 60.8701 34.07C61.5494 33.405 62.4579 33.0239 63.41 33.0047C64.362 32.9855 65.2854 33.3296 65.9911 33.9667C66.8979 34.7932 67.7743 35.6651 68.6203 36.5824C69.2409 37.2676 69.5806 38.1601 69.5721 39.0831C69.5637 40.006 69.2076 40.8922 68.5745 41.5659C66.9905 43.2188 65.3761 44.8318 63.7313 46.4048C62.5702 47.5246 60.6378 47.8428 58.8506 46.6238L57.673 48.004C57.4989 47.8635 57.4365 47.8221 57.3784 47.7643L54.5381 44.9668ZM56.968 42.6114C57.2583 42.2974 57.5402 41.9916 57.7973 41.6816C57.8472 41.6056 57.8876 41.5237 57.9176 41.4378C58.0209 41.1175 58.1733 40.815 58.3695 40.5411C59.7919 39.0783 61.2474 37.6486 62.6946 36.2106C62.7856 36.0923 62.9027 35.9965 63.0368 35.9305C63.1709 35.8646 63.3183 35.8303 63.4679 35.8303C63.6174 35.8303 63.765 35.8646 63.8991 35.9305C64.0332 35.9965 64.1503 36.0923 64.2413 36.2106C64.9076 36.8717 65.5724 37.5356 66.2359 38.2022C66.8952 38.8634 66.8952 39.2808 66.2359 39.9379L62.3545 43.8014C61.9688 44.1816 61.6373 44.6651 60.9904 44.6279C60.9508 44.6364 60.9147 44.6566 60.8867 44.6858L59.8873 45.5783C60.3254 45.8758 60.8528 46.0144 61.3812 45.9708C61.9095 45.9271 62.4069 45.7039 62.79 45.3386C64.3699 43.7849 65.9414 42.2271 67.4923 40.6445C67.8982 40.2234 68.125 39.6622 68.125 39.0783C68.125 38.4944 67.8982 37.9332 67.4923 37.5122C66.6906 36.6857 65.8723 35.8703 65.0375 35.0659C64.6179 34.6671 64.0603 34.4445 63.4804 34.4445C62.9005 34.4445 62.343 34.6671 61.9234 35.0659C60.3062 36.6321 58.7138 38.2312 57.1298 39.8346C56.7868 40.2093 56.5834 40.6901 56.5539 41.1964C56.5245 41.7027 56.6707 42.2038 56.968 42.6155V42.6114ZM64.9877 39.0825L63.4575 37.5494L60.8203 40.1733C61.189 40.2741 61.5252 40.4682 61.7962 40.7369C62.0673 41.0055 62.2639 41.3396 62.367 41.7065C63.2668 40.8098 64.1459 39.9337 64.9877 39.0866V39.0825ZM56.5906 44.8676L57.5817 45.8717C57.5817 45.8717 57.6315 45.8718 57.6481 45.8428C58.6848 44.8139 59.7215 43.7766 60.7581 42.7518C60.8301 42.6901 60.8882 42.614 60.9288 42.5285C60.9694 42.4429 60.9915 42.3499 60.9938 42.2553C60.9962 42.1607 60.9787 42.0667 60.9424 41.9793C60.9061 41.8918 60.8518 41.813 60.783 41.7477C60.7125 41.68 60.6285 41.6277 60.5366 41.5939C60.4447 41.5601 60.3467 41.5457 60.2489 41.5515C60.1511 41.5573 60.0555 41.5832 59.9683 41.6277C59.8811 41.6721 59.8041 41.7342 59.7421 41.8098C59.0911 42.4461 58.4524 43.099 57.8014 43.7354C57.3992 44.1403 56.9804 44.5122 56.5906 44.8759V44.8676Z" fill="#25694D"/>
<path d="M53.373 46.1074L56.4083 49.1528L55.1892 50.2438C55.4483 50.8728 55.663 51.5189 55.8319 52.1776C55.9392 52.7213 55.9095 53.2831 55.7452 53.8125C55.5809 54.3419 55.2872 54.8223 54.8906 55.2107C53.3024 56.8636 51.6935 58.4669 50.0431 60.0454C49.3439 60.7031 48.4153 61.0636 47.4539 61.0504C46.4925 61.0373 45.5739 60.6517 44.8929 59.9752C44.0913 59.1984 43.302 58.4119 42.5252 57.6157C42.1767 57.268 41.9008 56.8549 41.7135 56.4003C41.5261 55.9457 41.431 55.4586 41.4336 54.9671C41.4363 54.4757 41.5367 53.9896 41.7291 53.5371C41.9214 53.0845 42.2018 52.6745 42.5541 52.3306C44.0691 50.8099 45.5895 49.2948 47.1155 47.7851C47.7171 47.1608 48.5185 46.7651 49.3814 46.6663C50.2443 46.5675 51.1149 46.7717 51.8429 47.2438C51.8786 47.2773 51.9214 47.3024 51.9681 47.3172C52.0148 47.3321 52.0641 47.3363 52.1126 47.3295C52.1612 47.3228 52.2076 47.3053 52.2485 47.2783C52.2893 47.2513 52.3236 47.2155 52.3487 47.1736C52.7012 46.8058 53.0371 46.4545 53.373 46.1074ZM51.0881 48.4835C50.6453 48.1755 50.1069 48.035 49.5695 48.0873C49.0321 48.1395 48.5311 48.3811 48.1564 48.7686C46.6056 50.292 45.0672 51.8278 43.5412 53.3761C43.1135 53.8049 42.8735 54.385 42.8735 54.9896C42.8735 55.5942 43.1135 56.1744 43.5412 56.6032C44.2987 57.3801 45.0685 58.1474 45.8509 58.9049C46.2941 59.3465 46.8951 59.5946 47.5219 59.5946C48.1487 59.5946 48.7499 59.3465 49.1931 58.9049C49.5124 58.5991 49.8233 58.281 50.1385 57.9669C51.3369 56.7727 52.523 55.5702 53.7338 54.3884C54.501 53.6405 54.7372 52.3223 54.0406 51.4628C53.7503 51.7686 53.4642 52.0661 53.1863 52.376C53.1389 52.4517 53.1026 52.5338 53.0786 52.6198C52.9783 52.9293 52.8314 53.222 52.6431 53.4876C51.2083 54.9546 49.7404 56.3801 48.2891 57.8471C48.2 57.9675 48.0839 58.0655 47.9499 58.133C47.8159 58.2004 47.668 58.2356 47.5178 58.2356C47.3677 58.2356 47.2197 58.2004 47.0858 58.133C46.9518 58.0655 46.8356 57.9675 46.7466 57.8471C46.0693 57.1776 45.3946 56.5055 44.7229 55.8306C44.1133 55.2231 44.1174 54.7603 44.7229 54.1446C46.1217 52.7534 47.5206 51.3609 48.9194 49.967C49.0327 49.8163 49.1791 49.6933 49.3472 49.6074C49.5153 49.5215 49.7009 49.4748 49.8898 49.471C49.9806 49.463 50.0656 49.4235 50.1302 49.3594C50.4412 49.0991 50.7439 48.7934 51.0881 48.4835ZM46.0001 54.9586L47.4846 56.4711L50.1261 53.876C49.1807 53.4008 49.1806 53.4008 48.625 52.376L46.0001 54.9586ZM53.3896 48.1116C52.3474 49.1557 51.3163 50.1955 50.2962 51.2313C50.2146 51.2917 50.147 51.369 50.0984 51.4578C50.0498 51.5467 50.0211 51.6451 50.0144 51.7462C50.0077 51.8472 50.023 51.9484 50.0595 52.0429C50.096 52.1374 50.1526 52.2229 50.2255 52.2934C50.5283 52.5909 50.9222 52.562 51.2871 52.1983C52.0128 51.4835 52.7303 50.7562 53.4601 50.0455C53.7752 49.7397 54.1152 49.4586 54.5257 49.0909L53.6466 48.3223L53.3896 48.1116Z" fill="#25694D"/>
<path d="M47.866 44.9963L44.6191 43.3764L45.2494 42.1367L48.4963 43.7525L47.866 44.9963Z" fill="white"/>
<path d="M65.7547 51.9299L62.5078 50.31L63.1341 49.0703L66.3767 50.6861L65.7547 51.9299Z" fill="white"/>
<path d="M52.2075 40.0455C51.6518 38.9464 51.1252 37.8968 50.582 36.81L51.826 36.1777L53.4473 39.405L52.2075 40.0455Z" fill="white"/>
<path d="M57.5361 54.6319L58.7801 54.0039L60.4056 57.2394L59.1616 57.8716C58.6184 56.7931 58.0918 55.7352 57.5361 54.6319Z" fill="white"/>
<path d="M62.9143 55.3426L60.5342 52.9377L61.4589 52.0781L63.8639 54.4997L62.9143 55.3426Z" fill="white"/>
<path d="M47.1025 39.5947L48.0315 38.7021L50.4406 41.1401L49.5241 41.9997L47.1025 39.5947Z" fill="white"/>
<path d="M56.2335 66.6696C55.7815 66.6696 55.4042 66.6696 55.0144 66.6696C54.9273 66.6696 54.8444 66.5291 54.7739 66.4423C54.7531 66.4423 54.7739 66.3638 54.7739 66.3266C54.7365 65.1324 54.7738 65.0869 55.9764 65.215C56.0362 65.2315 56.0908 65.2629 56.1351 65.3063C56.1794 65.3497 56.2117 65.4036 56.2293 65.463C56.25 65.8349 56.2335 66.2192 56.2335 66.6696Z" fill="white"/>
</g>
<defs>
<clipPath id="clip0_1038_7">
<rect width="45" height="42" fill="white" transform="translate(33 33)"/>
</clipPath>
</defs>
</svg>
