<svg width="193" height="178" viewBox="0 0 193 178" fill="none" xmlns="http://www.w3.org/2000/svg">
<path d="M0.0380452 112.495C0.0380452 107.095 0.2498 101.696 0.0380452 96.317C-0.158506 93.7366 0.409581 91.1554 1.67118 88.8958C2.93278 86.6362 4.83219 84.7984 7.13203 83.6117C10.8405 81.4348 14.8717 79.8621 19.0748 78.953C25.9998 77.2625 33.1275 76.5497 40.2502 76.8354C48.5057 76.9458 56.664 78.6349 64.2846 81.8116C64.8775 82.0869 65.4491 82.4258 66.042 82.7011C66.6349 82.9764 67.0585 82.701 67.1008 82.0657C67.1008 81.7269 67.1008 81.3669 67.1008 81.0281V57.0788C67.1146 55.3861 67.517 53.7192 68.2769 52.2066C69.0369 50.6939 70.1341 49.376 71.484 48.3546C75.1174 45.4923 79.33 43.4546 83.8295 42.3829C90.8068 40.4678 98.0254 39.5762 105.259 39.736C113.699 39.6032 122.082 41.1359 129.928 44.2464C132.635 45.4729 135.186 47.0154 137.53 48.8415C138.839 49.8885 139.88 51.231 140.568 52.7587C141.257 54.2864 141.573 55.9558 141.49 57.6294C141.49 68.2171 141.49 79.0167 141.49 89.7103C141.49 91.5314 141.49 91.489 143.248 91.2984C157.287 89.6891 169.717 93.4158 179.67 103.538C192.078 116.116 195.742 131.32 190.257 148.006C188.181 154.867 184.356 161.071 179.159 166.008C173.962 170.945 167.57 174.447 160.612 176.17C150.06 179.091 138.793 177.903 129.083 172.846C119.373 167.788 111.941 159.237 108.287 148.917C107.948 148.006 107.355 147.943 106.551 147.9C101.744 147.646 96.9157 147.604 92.1301 147.032C84.7078 146.407 77.5943 143.78 71.5476 139.43C71.3403 139.315 71.1072 139.255 70.8701 139.255C70.633 139.255 70.3997 139.315 70.1923 139.43C65.3825 142.993 59.7934 145.36 53.8873 146.333C43.075 148.568 31.9201 148.568 21.1078 146.333C15.0033 145.423 9.23529 142.958 4.35792 139.176C2.97088 138.054 1.86553 136.624 1.13016 134.999C0.394792 133.374 0.0497934 131.599 0.12283 129.816C0.12283 123.951 0.12283 118.064 0.12283 112.199L0.0380452 112.495ZM185.048 134.539C185.048 124.991 181.255 115.835 174.504 109.084C167.753 102.333 158.597 98.5403 149.05 98.5403C139.563 98.6059 130.48 102.388 123.75 109.075C117.02 115.761 113.179 124.819 113.051 134.306C113.012 143.9 116.78 153.119 123.529 159.939C130.277 166.759 139.455 170.624 149.05 170.685C153.786 170.685 158.476 169.751 162.85 167.935C167.225 166.119 171.198 163.458 174.542 160.104C177.886 156.75 180.535 152.769 182.338 148.389C184.141 144.01 185.062 139.317 185.048 134.581V134.539ZM104.433 66.629H107.313C114.465 66.6294 121.545 65.1891 128.128 62.3939C130.307 61.6759 132.18 60.2433 133.443 58.3281C133.627 57.9559 133.722 57.5467 133.722 57.1318C133.722 56.717 133.627 56.3075 133.443 55.9353C132.63 54.8136 131.609 53.8578 130.437 53.119C125.23 50.0916 119.414 48.2615 113.412 47.7616C104.601 46.6355 95.6592 47.1306 87.027 49.2226C83.0715 50.0478 79.3564 51.7645 76.164 54.2414C73.8558 56.1472 73.8982 57.6716 76.164 59.6198C78.596 61.5726 81.398 63.0132 84.4013 63.8549C90.8794 65.8802 97.6484 66.8177 104.433 66.629ZM37.0739 103.728V104.067C41.5843 103.58 46.1159 103.157 50.6262 102.585C52.2259 102.358 53.8049 102.004 55.3483 101.526C58.8449 100.679 62.1358 99.1376 65.0257 96.9945C67.5667 94.877 67.6514 92.9924 65.0257 91.1713C62.78 89.5952 60.329 88.3341 57.7412 87.4232C44.771 83.3742 30.8958 83.2344 17.8467 87.021C14.7618 87.8344 11.8781 89.2762 9.37649 91.2561C6.87779 93.2465 6.7297 95.0674 9.24958 96.8885C11.3723 98.4184 13.6859 99.6641 16.1316 100.594C22.8891 102.95 30.0293 104.013 37.1799 103.728H37.0739ZM37.0739 122.299C43.7384 122.436 50.3834 121.529 56.7672 119.61C59.9092 118.759 62.8381 117.258 65.3645 115.205C65.8985 114.785 66.3234 114.242 66.6035 113.623C66.8836 113.004 67.0105 112.327 66.9736 111.648C66.9736 109.912 66.9736 108.154 66.9736 106.396C66.9736 105.062 66.7196 105.02 65.4915 105.507C62.2714 106.871 58.9768 108.051 55.6236 109.043C46.3613 111.292 36.7641 111.816 27.312 110.589C20.8004 110.016 14.4525 108.235 8.59301 105.338C7.74599 104.893 7.44946 105.338 7.44946 106.036C7.44946 107.879 7.44946 109.721 7.44946 111.563C7.36319 112.331 7.50129 113.108 7.84701 113.8C8.19273 114.491 8.73136 115.068 9.39769 115.459C11.5349 116.887 13.8039 118.107 16.1737 119.102C22.9301 121.407 30.0435 122.49 37.1799 122.299H37.0739ZM66.7195 123.527C66.1266 123.782 65.7455 123.887 65.4067 124.057C60.8541 126.319 55.9732 127.848 50.9439 128.588C44.8493 129.643 38.6534 129.991 32.479 129.626C27.352 129.448 22.2665 128.638 17.3385 127.212C14.3951 126.259 11.5365 125.094 8.6566 123.887C7.95781 123.612 7.34373 123.358 7.34373 124.48C7.34373 126.598 7.34373 128.863 7.34373 131.045C7.37314 131.781 7.68368 132.478 8.21174 132.993C9.79403 134.354 11.5195 135.54 13.3575 136.529C18.7064 138.908 24.4506 140.272 30.2979 140.552C37.5907 141.221 44.9428 140.793 52.1087 139.282C56.1078 138.511 59.9508 137.08 63.4799 135.047C64.5697 134.558 65.4743 133.733 66.0612 132.693C66.648 131.652 66.886 130.451 66.7407 129.266C66.6665 127.912 66.6665 126.554 66.7407 125.2C66.9948 124.713 66.8255 124.247 66.8255 123.527H66.7195ZM74.3217 68.1748C74.4277 69.8954 74.4277 71.6208 74.3217 73.3414C74.1631 74.5868 74.4009 75.8506 75.0015 76.9531C75.6022 78.0555 76.5349 78.9404 77.6673 79.4824C82.3943 82.2034 87.6381 83.9056 93.0619 84.4798C101.403 85.7197 109.892 85.5479 118.176 83.9716C122.559 83.2619 126.769 81.7317 130.585 79.4612C131.691 78.9667 132.61 78.1299 133.205 77.0738C133.799 76.0177 134.039 74.7982 133.888 73.5955C133.813 72.1848 133.813 70.7711 133.888 69.3604C133.868 68.9733 133.804 68.5899 133.698 68.2171C124.316 72.1678 114.238 74.1994 104.058 74.1921C93.8787 74.1849 83.8035 72.1388 74.4274 68.1748H74.3217ZM74.491 86.534C74.491 87.1692 74.3429 87.6139 74.3429 88.0797C74.3429 89.6255 74.3429 91.15 74.3429 92.6746C74.2368 93.5464 74.3792 94.4306 74.7539 95.2249C75.1286 96.0192 75.7202 96.6912 76.4605 97.1638C77.1394 97.6628 77.8464 98.1224 78.578 98.5403C84.8672 101.783 91.8306 103.502 98.9064 103.559C104.064 103.661 109.223 103.499 114.364 103.072C117.464 103.074 120.465 101.979 122.834 99.9803C125.76 97.533 129.093 95.6191 132.681 94.3264C133.087 94.2302 133.443 93.9856 133.678 93.6409C133.913 93.2961 134.01 92.876 133.952 92.4629C133.952 90.9383 133.952 89.3924 133.952 87.8678C133.952 86.3431 133.719 86.4068 132.618 86.9574C125.159 90.4945 117.028 92.3866 108.774 92.5053C104.09 92.6396 99.4023 92.4983 94.7349 92.0819C90.0618 91.746 85.4578 90.7625 81.0554 89.1597C78.9166 88.3974 76.9051 87.4869 74.597 86.534H74.491ZM74.3217 104.957C74.4398 106.648 74.4398 108.347 74.3217 110.039C73.8135 113.448 75.6134 115.396 78.2391 116.9C78.9913 117.341 79.769 117.737 80.5684 118.085C88.7128 121.394 97.5054 122.799 106.275 122.193C106.544 122.13 106.796 122.009 107.012 121.836C107.228 121.664 107.403 121.446 107.525 121.198C109.028 118.149 110.426 115.057 111.76 111.965C111.887 111.669 112.056 111.203 111.929 111.055C111.799 110.952 111.65 110.876 111.489 110.832C111.329 110.789 111.162 110.778 110.997 110.801C107.546 110.801 104.094 111.14 100.643 111.055C93.4276 110.945 86.2856 109.591 79.5308 107.053C77.9003 106.502 76.3544 105.782 74.4274 104.935L74.3217 104.957ZM74.491 123.549C74.4163 124.047 74.3669 124.549 74.3429 125.052C74.3429 126.852 74.3429 128.652 74.3429 130.431C74.2972 131.004 74.3929 131.58 74.6218 132.108C74.8507 132.636 75.2058 133.1 75.6558 133.459C77.1696 134.637 78.7851 135.679 80.4836 136.571C84.5306 138.463 88.8701 139.651 93.316 140.087C97.0429 140.552 100.833 140.574 104.581 140.785C105.577 140.785 105.916 140.468 105.852 139.367C105.661 136.614 105.64 133.861 105.64 131.108C105.64 130.219 105.513 129.753 104.454 129.689C100.219 129.414 95.836 129.054 91.5162 128.694C87.4314 128.26 83.4265 127.263 79.6156 125.729C78.0062 125.094 76.3969 124.332 74.597 123.549H74.491Z" fill="#25694D"/>
<path d="M32.1414 50.6206C32.2291 50.1662 32.2856 49.7063 32.3107 49.2442C32.3107 34.6049 32.3107 19.9656 32.3107 5.3263C32.2926 4.53921 32.3495 3.75221 32.4803 2.97586C32.6512 2.05745 33.1683 1.23992 33.925 0.692101C34.6817 0.144286 35.6199 -0.091957 36.5458 0.0324361C37.4768 0.0725916 38.3602 0.456236 39.025 1.1093C39.6898 1.76237 40.0891 2.63865 40.1458 3.56883C40.1458 4.81818 40.1458 6.10999 40.1458 7.38052C40.1458 21.3563 40.1458 35.339 40.1458 49.329C40.1458 49.7948 40.1458 50.2608 40.1458 51.0019C40.5011 50.8018 40.8408 50.5751 41.1622 50.3242C44.1479 47.3596 47.1336 44.3739 50.077 41.3882C50.6761 40.679 51.4824 40.1752 52.3824 39.9473C53.2824 39.7195 54.2311 39.7791 55.0955 40.1177C55.7086 40.3983 56.2395 40.8315 56.6372 41.376C57.0348 41.9205 57.2861 42.5579 57.3669 43.2273C57.4476 43.8967 57.3551 44.5756 57.0983 45.1991C56.8415 45.8225 56.429 46.3697 55.9002 46.788C53.2533 49.4773 50.5642 52.124 47.8961 54.7921C45.228 57.4602 42.4326 60.2133 39.7221 62.9661C37.0117 65.7189 35.1059 65.5283 32.6072 62.9661C27.2075 57.5664 21.8077 52.2089 16.4715 46.7668C15.7469 46.015 15.2291 45.0885 14.9681 44.0775C14.8057 43.2973 14.9068 42.4853 15.2556 41.7687C15.6043 41.052 16.181 40.4713 16.8952 40.1177C17.6317 39.7035 18.4834 39.5413 19.3206 39.656C20.1578 39.7707 20.9345 40.1558 21.5325 40.7528C23.65 42.8703 25.7676 44.9879 27.8851 47.1054L31.506 50.6418L32.1414 50.6206Z" fill="#25694D"/>
<path d="M148.585 154.085C144.35 154.085 140.115 154.085 135.88 154.085C135.44 154.077 135.007 153.98 134.606 153.801C134.205 153.621 133.844 153.363 133.545 153.04C133.247 152.718 133.017 152.339 132.868 151.925C132.72 151.511 132.657 151.072 132.682 150.633C132.66 150.192 132.732 149.752 132.893 149.342C133.055 148.931 133.302 148.56 133.619 148.253C133.936 147.946 134.315 147.711 134.731 147.562C135.146 147.414 135.589 147.356 136.028 147.393C136.713 147.511 137.416 147.355 137.986 146.959C138.557 146.562 138.949 145.958 139.077 145.276C139.713 142.946 140.306 140.617 140.898 138.309C141.153 137.293 140.708 136.911 139.734 136.932H137.51C137.138 136.961 136.764 136.915 136.41 136.797C136.055 136.678 135.728 136.49 135.448 136.244C135.168 135.997 134.94 135.697 134.778 135.36C134.615 135.024 134.522 134.659 134.503 134.286C134.506 133.911 134.584 133.541 134.734 133.198C134.884 132.855 135.103 132.546 135.376 132.291C135.65 132.035 135.973 131.838 136.325 131.711C136.678 131.584 137.052 131.531 137.426 131.554H139.543C140.348 131.554 140.687 131.194 140.539 130.411C140.263 129.161 140.009 127.912 139.692 126.684C138.852 123.84 139.072 120.788 140.31 118.094C141.548 115.4 143.721 113.245 146.425 112.03C149.18 110.833 152.27 110.651 155.146 111.515C158.022 112.38 160.499 114.235 162.137 116.752C163.368 118.643 164.03 120.848 164.043 123.105C164.12 123.964 163.853 124.818 163.301 125.481C162.75 126.143 161.958 126.561 161.1 126.641C160.644 126.726 160.175 126.713 159.724 126.602C159.274 126.492 158.852 126.286 158.487 126C158.123 125.713 157.823 125.352 157.609 124.94C157.395 124.529 157.271 124.076 157.246 123.613C157.215 122.046 156.621 120.543 155.573 119.378C154.695 118.515 153.563 117.955 152.345 117.78C151.126 117.605 149.883 117.823 148.797 118.404C147.744 119.012 146.929 119.958 146.483 121.088C146.037 122.219 145.987 123.467 146.341 124.63C146.785 126.493 147.188 128.378 147.484 130.283C147.487 130.457 147.528 130.628 147.604 130.785C147.68 130.941 147.79 131.078 147.925 131.188C148.061 131.297 148.219 131.375 148.388 131.416C148.557 131.457 148.732 131.461 148.903 131.427C151.02 131.427 152.926 131.427 154.959 131.427C155.389 131.395 155.821 131.395 156.251 131.427C156.934 131.48 157.573 131.788 158.04 132.29C158.506 132.792 158.767 133.452 158.771 134.137C158.734 134.827 158.439 135.478 157.945 135.96C157.45 136.443 156.793 136.722 156.103 136.742C153.837 136.742 151.55 136.742 149.284 136.742C148.098 136.742 147.738 137.187 147.569 138.33C147.188 140.786 146.658 143.222 146.087 145.636C145.79 146.948 145.896 147.203 147.272 147.224C151.825 147.224 156.399 147.224 160.952 147.224C161.4 147.198 161.85 147.263 162.273 147.416C162.695 147.569 163.083 147.806 163.411 148.113C163.74 148.42 164.003 148.79 164.184 149.201C164.366 149.613 164.462 150.057 164.467 150.506C164.493 150.957 164.426 151.409 164.268 151.833C164.111 152.257 163.868 152.643 163.553 152.968C163.238 153.292 162.86 153.548 162.441 153.718C162.022 153.888 161.573 153.97 161.121 153.958C157.542 153.958 153.942 153.958 150.364 153.958H148.522L148.585 154.085Z" fill="#25694D"/>
</svg>
