<svg width="192" height="104" viewBox="0 0 192 104" fill="none" xmlns="http://www.w3.org/2000/svg">
<path d="M96.4303 0.0654297C89.7045 0.0729586 83.2566 2.7126 78.5017 7.40489C73.7468 12.0972 71.0735 18.4588 71.0684 25.0934V36.4654C71.064 40.4233 72.0261 44.3241 73.8735 47.8375C74.4083 48.9006 75.0319 49.918 75.7374 50.8794C78.0776 54.1457 81.1783 56.8102 84.7792 58.6489C88.38 60.4876 92.3756 61.4468 96.4303 61.446C100.577 61.4461 104.66 60.4422 108.322 58.5222C111.984 56.6022 115.111 53.8249 117.431 50.4341C118.11 49.4516 118.717 48.4223 119.246 47.3541C120.923 43.9527 121.794 40.2194 121.792 36.437V25.0649C121.777 18.436 119.099 12.0832 114.346 7.3976C109.592 2.712 103.15 0.0754413 96.4303 0.0654297ZM118.257 36.4559C118.265 39.9092 117.418 43.3123 115.788 46.3686C115.208 47.4715 114.53 48.5212 113.761 49.5054C111.736 52.1371 109.122 54.2713 106.122 55.741C103.122 57.2107 99.8181 57.9762 96.4687 57.9776C93.1772 57.9777 89.9285 57.2418 86.9667 55.8253C84.005 54.4088 81.4073 52.3485 79.3688 49.7992C78.5874 48.8396 77.8959 47.8118 77.3032 46.7286C75.5546 43.5796 74.6394 40.0464 74.6421 36.4559V25.0839C74.6472 19.3742 76.9482 13.8997 81.0401 9.8614C85.132 5.82313 90.6806 3.55094 96.4687 3.54342C102.257 3.55094 107.806 5.82313 111.898 9.8614C115.989 13.8997 118.29 19.3742 118.295 25.0839L118.257 36.4559Z" fill="#25694D"/>
<path d="M137.618 73.3209C137.196 72.6101 136.744 71.9277 136.264 71.2549C132.079 65.3555 126.131 60.8927 119.25 58.4898C118.115 58.0977 116.961 57.7625 115.792 57.4854C115.214 58.5895 114.535 59.6394 113.765 60.6221C115.007 60.8585 116.233 61.1751 117.434 61.5697C124.178 63.757 129.972 68.1329 133.872 73.9842C134.362 74.7044 134.832 75.4625 135.236 76.2302C137.734 80.747 139.039 85.8116 139.03 90.957V99.7609H55.4513V90.957C55.4453 86.8526 56.2751 82.7889 57.8914 79.0069C58.2815 78.0874 58.7207 77.189 59.2075 76.3155C62.8034 69.7377 68.6842 64.6601 75.7698 62.0151C76.9434 61.5762 78.1433 61.2091 79.3628 60.9159C78.5814 59.9563 77.8899 58.9286 77.2971 57.8455C76.147 58.1646 75.015 58.5442 73.9059 58.9826C66.8594 61.7618 60.919 66.7239 56.9788 73.1219C56.5177 73.8611 56.0949 74.6097 55.6914 75.3868C53.2033 80.2097 51.9095 85.5455 51.916 90.957V101.505C51.916 101.967 52.1022 102.41 52.4337 102.737C52.7652 103.064 53.2147 103.248 53.6835 103.248H140.827C141.295 103.246 141.743 103.061 142.074 102.735C142.405 102.408 142.592 101.966 142.595 101.505V90.957C142.596 84.7408 140.875 78.6426 137.618 73.3209Z" fill="#25694D"/>
<path d="M159.804 25.5557C155.181 25.5607 150.749 27.3745 147.48 30.5991C144.211 33.8236 142.372 38.1956 142.367 42.7559V50.5741C142.364 53.3005 143.022 55.988 144.289 58.4114C144.661 59.1387 145.092 59.8358 145.576 60.4962C147.183 62.7419 149.313 64.5743 151.787 65.8391C154.261 67.104 157.007 67.7644 159.794 67.7649C162.641 67.7585 165.443 67.0641 167.955 65.7425C170.467 64.4209 172.613 62.5122 174.204 60.1835C174.671 59.509 175.088 58.8028 175.453 58.0702C176.62 55.7382 177.235 53.1749 177.25 50.5741V42.7654C177.247 38.2018 175.408 33.826 172.137 30.5991C168.866 27.3722 164.43 25.5582 159.804 25.5557ZM174.809 50.5647C174.812 52.9384 174.228 55.2772 173.109 57.3785C172.713 58.1365 172.247 58.8565 171.716 59.5296C170.322 61.3435 168.521 62.8139 166.454 63.8252C164.387 64.8365 162.111 65.3611 159.804 65.3578C157.541 65.3576 155.307 64.8519 153.271 63.8786C151.234 62.9054 149.448 61.4898 148.045 59.7381C147.512 59.0741 147.036 58.3671 146.623 57.6247C145.425 55.4597 144.8 53.0313 144.807 50.5647V42.7559C144.81 38.8324 146.39 35.0702 149.202 32.295C152.013 29.5198 155.826 27.9583 159.804 27.9533C163.782 27.9583 167.596 29.5194 170.409 32.2944C173.222 35.0693 174.804 38.8315 174.809 42.7559V50.5647Z" fill="#25694D"/>
<path d="M175.49 65.7387C174.71 65.4608 173.915 65.2298 173.107 65.0469C172.711 65.8049 172.245 66.525 171.714 67.1981C172.57 67.3624 173.414 67.5808 174.241 67.8519C178.556 69.2502 182.313 71.956 184.978 75.5837C187.643 79.2114 189.08 83.5762 189.083 88.0563V94.1024H139.032V96.5H190.294C190.616 96.5 190.925 96.3745 191.153 96.1508C191.382 95.9272 191.511 95.6234 191.514 95.3059V88.0563C191.509 83.1587 189.965 78.383 187.096 74.3864C184.226 70.3897 180.171 67.3686 175.49 65.7387ZM148.043 67.3971C147.508 66.738 147.032 66.034 146.621 65.2933C145.832 65.5081 145.055 65.7675 144.296 66.0703C141.29 67.256 138.559 69.0289 136.265 71.2825C135.4 72.1318 134.6 73.0441 133.873 74.0118C134.363 74.732 134.834 75.4901 135.237 76.2578C135.942 75.2201 136.739 74.2466 137.62 73.3485C139.848 71.0528 142.569 69.2783 145.584 68.1553C146.388 67.8539 147.209 67.5976 148.043 67.3876V67.3971Z" fill="#25694D"/>
<path d="M30.6203 25.5557C25.9983 25.5607 21.5671 27.3748 18.2998 30.5996C15.0325 33.8245 13.1959 38.1965 13.1934 42.7559V50.5741C13.1897 53.3005 13.8486 55.988 15.1147 58.4114C15.4876 59.1387 15.9181 59.8358 16.4021 60.4962C18.0092 62.7419 20.1393 64.5743 22.6135 65.8391C25.0876 67.104 27.8336 67.7644 30.6203 67.7649C33.4676 67.7601 36.2702 67.0665 38.7825 65.7447C41.2949 64.423 43.4402 62.5134 45.0305 60.1835C45.4967 59.509 45.9139 58.8028 46.2792 58.0702C47.4311 55.7315 48.0291 53.1649 48.0277 50.5647V42.7559C48.0226 38.2006 46.1878 33.8328 42.9252 30.609C39.6626 27.3852 35.2381 25.5682 30.6203 25.5557ZM45.6356 50.5741C45.6429 52.9485 45.059 55.2882 43.9352 57.3878C43.5392 58.1458 43.0729 58.866 42.5422 59.5391C41.1487 61.353 39.3475 62.8234 37.2805 63.8347C35.2135 64.846 32.9369 65.3706 30.6296 65.3672C28.3681 65.367 26.1361 64.8612 24.1012 63.8879C22.0662 62.9146 20.2813 61.4991 18.8805 59.7476C18.3442 59.086 17.8685 58.3787 17.4587 57.6342C16.2577 55.4699 15.63 53.0415 15.6335 50.5741V42.7654C15.6361 38.8419 17.2166 35.0797 20.0281 32.3045C22.8397 29.5292 26.6523 27.9678 30.6296 27.9628C34.6079 27.9678 38.4218 29.5289 41.2349 32.3039C44.0479 35.0788 45.6305 38.841 45.6356 42.7654V50.5741Z" fill="#25694D"/>
<path d="M56.9492 73.1417C54.161 69.7511 50.4773 67.1864 46.3048 65.7308C45.5255 65.453 44.7299 65.222 43.9223 65.0391C43.5263 65.7971 43.0601 66.5172 42.5294 67.1903C43.3852 67.3534 44.229 67.5718 45.0558 67.8441C49.288 69.2331 52.9798 71.8817 55.6233 75.4255C56.4811 76.5542 57.2184 77.7674 57.8233 79.0456C58.2134 78.1261 58.6528 77.2277 59.1396 76.3542C58.5045 75.2231 57.7717 74.1484 56.9492 73.1417ZM2.43055 94.0946V88.0485C2.43392 83.7243 3.77231 79.5037 6.26764 75.9485C8.76298 72.3933 12.2969 69.6723 16.3989 68.1474C17.2068 67.8494 18.031 67.5962 18.8677 67.3893C18.3293 66.7325 17.8534 66.0283 17.4459 65.2855C16.6533 65.5003 15.8739 65.7597 15.1115 66.0625C10.6539 67.8181 6.83201 70.8511 4.13848 74.7699C1.44495 78.6888 0.00342144 83.3138 0 88.0485V95.2981C0 95.6148 0.127621 95.9185 0.354626 96.1424C0.581631 96.3664 0.889434 96.4921 1.21047 96.4921H55.4216V94.0946H2.43055Z" fill="#25694D"/>
</svg>
