<svg width="112" height="111" viewBox="0 0 112 111" fill="none" xmlns="http://www.w3.org/2000/svg">
<rect x="1.30529" width="76.4786" height="76.4786" rx="4.60057" transform="matrix(0.709308 -0.704899 0.709308 0.704899 0.828656 56.6125)" stroke="#25694D" stroke-width="1.84023"/>
<g clip-path="url(#clip0_1038_5)">
<path d="M71.2604 35V45.992H67.1761V42.2059L55.7422 53.6312L49.0149 47.1648L37.6598 56.5808L35.0039 53.4089L49.2272 41.6032L55.4152 47.5609L63.8662 39.1067H60.1878V35H71.2604Z" fill="white"/>
<path d="M68.6783 76.0011C67.5891 76.006 66.5098 75.7966 65.5025 75.385C64.4953 74.9733 63.58 74.3675 62.8096 73.6027C62.0391 72.8378 61.4287 71.9289 61.0135 70.9284C60.5984 69.9279 60.3867 68.8557 60.3907 67.7735C60.3865 65.5879 61.2553 63.49 62.8065 61.9405C64.3577 60.3909 66.4643 59.5163 68.6639 59.5088C69.7593 59.5075 70.8441 59.7209 71.8563 60.1369C72.8685 60.5529 73.7881 61.1632 74.5625 61.933C75.3369 62.7027 75.9509 63.6167 76.3692 64.6226C76.7875 65.6285 77.0019 66.7065 77.0002 67.7948C76.998 68.8772 76.7808 69.9484 76.361 70.9471C75.9412 71.9458 75.3271 72.8524 74.5539 73.6148C73.7808 74.3772 72.8638 74.9804 71.8555 75.3899C70.8472 75.7994 69.7675 76.0071 68.6783 76.0011ZM74.905 67.7635C74.907 66.9485 74.7461 66.1413 74.4318 65.3885C74.1175 64.6358 73.6561 63.9525 73.0741 63.3782C72.4922 62.8039 71.8013 62.3501 71.0416 62.043C70.2818 61.7359 69.4683 61.5817 68.6481 61.5892C67.004 61.5994 65.4307 62.2554 64.2717 63.414C63.1126 64.5726 62.4618 66.1398 62.4615 67.7735C62.4721 69.4191 63.137 70.9938 64.3112 72.1544C65.4854 73.315 67.0737 73.9673 68.7299 73.9692C70.3738 73.95 71.944 73.2879 73.0999 72.1263C74.2558 70.9646 74.9044 69.3971 74.905 67.7635Z" fill="white"/>
<path d="M51.404 68.57H47.3155V67.7407C47.3155 62.7791 47.3327 57.816 47.2969 52.8543C47.2969 52.0635 47.4661 51.4835 48.1573 51.0746C48.4155 50.8963 48.6622 50.7021 48.8959 50.4932C49.719 51.284 50.5436 52.0606 51.3482 52.8628C51.4442 52.9597 51.4643 53.1678 51.4643 53.3231C51.4643 58.3104 51.4643 63.2977 51.4643 68.285C51.4514 68.3814 51.4313 68.4767 51.404 68.57Z" fill="white"/>
<path d="M44.5455 54.0928V68.5517H40.4756C40.4583 68.3394 40.4297 68.1342 40.4297 67.929C40.4297 64.6758 40.4296 61.4227 40.4196 58.1695C40.4035 57.9606 40.4415 57.751 40.5299 57.5608C40.6182 57.3705 40.754 57.2058 40.9244 57.0823C42.1118 56.1418 43.2634 55.1572 44.5455 54.0928Z" fill="white"/>
<path d="M54.2598 55.6914L55.6824 56.9966L58.3168 54.1895V68.5572H54.2598V55.6914Z" fill="white"/>
<path d="M61.1229 61.0936C61.1229 59.5261 61.1229 57.9772 61.1229 56.424C61.1229 54.9535 61.11 53.4829 61.1229 52.0138C61.1229 51.7716 61.1702 51.4595 61.3237 51.3013C62.5754 49.9874 63.8926 48.7366 65.2703 47.5537V48.2747C65.2703 51.4994 65.2703 54.7255 65.2503 57.9502C65.2503 58.1625 65.1068 58.4973 64.9491 58.5671C63.5887 59.1567 62.3583 60.0064 61.328 61.0679C61.3094 61.0921 61.2477 61.0793 61.1229 61.0936Z" fill="white"/>
<path d="M68.1637 66.9889H69.8273V68.032H68.3932C68.3908 68.2516 68.3495 68.4691 68.2713 68.6746C68.2467 68.7696 68.1966 68.8562 68.1264 68.9252C68.0562 68.9942 67.9685 69.043 67.8726 69.0664H71.039V70.2434H66.3281V69.0579C66.6149 69.0579 66.81 68.9596 66.9204 68.7729C67.043 68.5429 67.1075 68.2866 67.1083 68.0262H66.3281V66.9832H66.9018C66.8261 66.7655 66.7835 66.5379 66.7755 66.3078C66.7516 66.0427 66.7866 65.7756 66.8781 65.5254C66.9695 65.2752 67.1152 65.0481 67.3047 64.86C67.6872 64.48 68.2192 64.29 68.9009 64.29C69.5271 64.29 70.0223 64.4496 70.3866 64.7688C70.7508 65.088 70.9272 65.5402 70.9157 66.1254H69.7813C69.7813 65.6523 69.4831 65.4129 68.9009 65.4129C68.6773 65.4085 68.4612 65.4926 68.3 65.6466C68.2156 65.7304 68.15 65.831 68.1072 65.9417C68.0645 66.0524 68.0456 66.1708 68.0519 66.2892C68.0616 66.526 68.0991 66.7608 68.1637 66.9889Z" fill="#25694D"/>
</g>
<defs>
<clipPath id="clip0_1038_5">
<rect width="42" height="41" fill="white" transform="translate(35 35)"/>
</clipPath>
</defs>
</svg>
