<svg width="85" height="95" viewBox="0 0 85 95" fill="none" xmlns="http://www.w3.org/2000/svg">
<g clip-path="url(#clip0_995_2725)">
<path d="M79.6591 73.1265C78.7174 73.5204 77.6969 73.6858 76.6798 73.6094H55.5661C54.0395 73.6094 54.2611 73.4981 54.3349 74.972C54.5461 78.167 55.2221 81.3133 56.3415 84.3107C56.4039 84.6019 56.5756 84.8575 56.8212 85.0238C57.0669 85.19 57.3671 85.2543 57.6586 85.2028C58.9636 85.1285 60.2688 85.2028 61.5738 85.2028C62.8671 85.2223 64.1005 85.7526 65.0081 86.6797C65.9157 87.6067 66.4246 88.8559 66.4244 90.1572C66.4244 91.4711 65.9058 92.7312 64.9823 93.6603C64.0588 94.5895 62.806 95.1115 61.4999 95.1115C57.9296 95.1115 54.3594 95.1115 50.8014 95.1115H23.7166C22.5441 95.1777 21.3874 94.8136 20.4614 94.087C19.5354 93.3604 18.9032 92.3204 18.6815 91.1602C18.5426 90.4765 18.5513 89.7709 18.7073 89.0909C18.8633 88.411 19.1629 87.7727 19.5856 87.2194C20.0082 86.6662 20.544 86.211 21.1569 85.8844C21.7699 85.5578 22.4453 85.3674 23.1377 85.3265C24.5658 85.3265 26.0065 85.3265 27.4346 85.3265C27.6788 85.3715 27.9309 85.3211 28.1392 85.1852C28.3474 85.0494 28.4964 84.8385 28.5551 84.5959C29.7099 81.3384 30.3895 77.9298 30.5738 74.4764C30.6353 73.6094 30.1305 73.7334 29.6258 73.7334H8.13029C6.45266 73.812 4.79962 73.3032 3.45284 72.2937C2.10606 71.2843 1.14875 69.8366 0.743512 68.1969C0.584021 67.4775 0.510021 66.7416 0.522293 66.0046C0.522293 50.6874 0.522293 35.3741 0.522293 20.0651C0.460129 19.0441 0.613056 18.0213 0.971343 17.0639C1.32963 16.1065 1.88494 15.2362 2.60103 14.5099C3.31712 13.7836 4.17773 13.2177 5.12641 12.8495C6.07509 12.4813 7.09025 12.3192 8.10565 12.3735C11.8975 12.3735 15.6853 12.3735 19.469 12.3735C19.7521 12.3735 20.0352 12.3736 20.3184 12.4479C20.3184 12.9681 20.774 13.1785 21.0572 13.4881C21.3403 13.7978 22.0669 14.3552 22.227 15.0488C21.8453 15.0488 21.4761 15.0488 21.0944 15.0488C16.6377 15.0488 12.1806 15.0488 7.72392 15.0488C6.61079 14.9975 5.52197 15.3859 4.68938 16.131C3.85679 16.8761 3.3468 17.9188 3.26769 19.037C3.18151 32.0918 3.26733 45.1591 3.20577 58.2262C3.20577 59.1056 3.43957 59.3284 4.31367 59.3284C23.3469 59.3284 42.3807 59.3284 61.4139 59.3284C63.7038 59.3284 65.9932 59.3284 68.2831 59.3284C68.2093 59.8982 68.6775 60.1334 68.9606 60.4802C69.2438 60.827 70.0195 61.2112 70.0072 61.9544C69.5886 61.9544 69.1823 61.9544 68.7761 61.9544H4.5968C4.33827 61.9544 4.08019 61.9544 3.83396 61.9544C3.36613 61.9544 3.23073 62.1402 3.24304 62.5861C3.24304 63.9857 3.24304 65.3976 3.24304 66.8096C3.28531 67.6649 3.58277 68.4876 4.09666 69.1703C4.61055 69.853 5.31682 70.3641 6.12369 70.6369C6.84807 70.8836 7.61366 70.9846 8.37676 70.9342H33.1226H78.0095C77.9357 71.4296 78.3419 71.6524 78.6005 71.962C78.859 72.2717 79.5975 72.5072 79.6591 73.1265ZM31.3252 85.116C31.4439 85.128 31.563 85.128 31.6817 85.116C38.8099 85.116 45.9383 85.116 53.0665 85.116C53.7929 85.116 53.7438 84.8433 53.5468 84.3107C52.4264 81.0769 51.7713 77.6987 51.6016 74.2783C51.6016 73.721 51.4414 73.5103 50.8381 73.5226H34.1439C33.5776 73.5226 33.3687 73.659 33.3564 74.2535C33.3035 75.7566 33.1512 77.2543 32.9008 78.7371C32.5646 80.9061 32.0375 83.041 31.3252 85.116ZM42.6638 87.878H27.2867C26.0556 87.878 24.7505 87.878 23.4701 87.878C22.9888 87.8882 22.5253 88.0629 22.156 88.3737C21.7868 88.6844 21.5339 89.1124 21.4389 89.5872C21.3362 90.0445 21.381 90.5229 21.5669 90.9527C21.7529 91.3826 22.0702 91.7418 22.4728 91.9779C22.9818 92.239 23.5539 92.3506 24.123 92.2999H60.9949C61.249 92.3184 61.5043 92.3184 61.7584 92.2999C62.1568 92.2618 62.5373 92.1146 62.8585 91.8744C63.1797 91.6342 63.4293 91.3102 63.5804 90.9373C63.7265 90.5806 63.7774 90.1917 63.7283 89.8091C63.6792 89.4265 63.5322 89.0636 63.3009 88.7559C63.0696 88.4482 62.7625 88.2064 62.41 88.0546C62.0575 87.9029 61.6716 87.8463 61.2907 87.8904C55.0858 87.8657 48.8811 87.8656 42.6638 87.8656V87.878Z" fill="white"/>
<path d="M22.3133 14.9124C22.1532 14.2188 21.575 13.8472 21.1441 13.3518C20.7132 12.8563 20.4176 12.8314 20.4053 12.3112C25.9823 12.3112 31.5471 12.3112 37.1241 12.3112C37.4488 12.3393 37.7745 12.278 38.0673 12.134C38.3601 11.99 38.6083 11.7689 38.7857 11.4939C39.6105 10.2553 40.4233 9.14036 41.162 7.90177C41.2641 7.74551 41.3246 7.56549 41.3375 7.37894C41.3504 7.19239 41.3154 7.00576 41.2359 6.83675C40.7794 5.76713 40.7554 4.56032 41.1692 3.47326C41.583 2.3862 42.4018 1.50434 43.4517 1.01513C44.4865 0.523485 45.6698 0.451421 46.7561 0.813435C47.8425 1.17545 48.749 1.94388 49.2875 2.9598C50.5187 4.97871 51.6142 6.99779 52.7591 9.02909C53.0176 9.48736 53.2148 9.72259 53.855 9.5368C54.8843 9.21829 55.9907 9.25916 56.9941 9.65261C57.9975 10.0461 58.8388 10.769 59.3824 11.7043C59.5097 11.9101 59.6944 12.0736 59.9132 12.1749C60.1321 12.2761 60.3755 12.3106 60.6136 12.274H78.4776C79.7788 12.1853 81.0697 12.5562 82.1283 13.3227C83.1868 14.0892 83.9466 15.2035 84.2762 16.473C84.4265 17.0931 84.4968 17.7297 84.4854 18.3678C84.4854 29.5729 84.4854 40.7824 84.4854 51.9958C84.4919 52.1237 84.4919 52.2519 84.4854 52.3798C83.9806 52.3798 83.7095 52.0823 83.3648 51.7974C83.0201 51.5125 82.6019 50.6951 81.8632 50.6208C81.8632 50.1997 81.8632 49.7909 81.8632 49.3822C81.8632 39.0358 81.8632 28.7142 81.8632 18.4174C81.8632 16.287 80.7795 15.0857 78.7974 15.0857C72.8387 15.0857 66.8926 15.0857 60.934 15.0857C60.8205 15.0662 60.7045 15.0713 60.5931 15.1005C60.4818 15.1296 60.3774 15.1821 60.2878 15.2547C60.1981 15.3273 60.1252 15.4185 60.0731 15.5217C60.0211 15.6249 59.9913 15.7381 59.986 15.8537C59.8169 16.6762 59.3844 17.4201 58.7549 17.9717C58.2255 18.4052 58.3241 18.7396 58.6196 19.2103C59.8507 21.3035 61.0818 23.3965 62.239 25.5269C62.7591 26.5154 62.8921 27.6639 62.6118 28.7462C62.3314 29.8284 61.6582 30.7656 60.7248 31.373C59.7981 31.9844 58.6771 32.2244 57.5832 32.0455C56.4894 31.8667 55.5016 31.2824 54.815 30.4072C54.6733 30.2186 54.4856 30.0703 54.2698 29.9769C54.0539 29.8835 53.8174 29.8481 53.5839 29.8744C49.2507 29.9383 44.9593 30.7384 40.8908 32.2403C40.5584 31.299 39.5862 30.8902 39.1307 30.0356C43.2791 28.4091 47.6604 27.4639 52.1069 27.2363C53.0056 27.2363 52.6363 26.815 52.4147 26.4311L45.8773 15.0485L43.1319 10.2677C42.7872 10.3915 42.701 10.6516 42.5656 10.8622C41.3247 12.7627 39.9245 14.5526 38.3799 16.2127C36.2164 18.5403 33.8561 20.6748 31.3255 22.5916C31.3255 22.1209 30.8696 21.9351 30.6234 21.6255C30.3772 21.3158 29.7737 21.0309 29.8107 20.3869C31.9347 18.7423 33.9309 16.9368 35.7818 14.9865L22.3133 14.9124ZM58.078 29.2799C58.4136 29.3114 58.7506 29.2459 59.0506 29.0912C59.3506 28.9365 59.6008 28.6991 59.7714 28.4066C59.9419 28.1141 60.0264 27.7787 60.0142 27.4398C60.0021 27.1009 59.8939 26.7724 59.7028 26.493C58.6071 24.4989 57.4496 22.5543 56.3293 20.5849C53.2514 15.2342 50.1818 9.86699 47.1204 4.48325C46.9979 4.18584 46.8103 3.92023 46.5716 3.7058C46.3329 3.49137 46.0496 3.33363 45.742 3.24466C45.4139 3.15901 45.0678 3.17332 44.7477 3.28578C44.4277 3.39824 44.1484 3.6038 43.9446 3.87635C43.7002 4.17774 43.5592 4.5509 43.5437 4.93955C43.5281 5.32821 43.6385 5.71132 43.8581 6.03149C45.4996 9.07017 47.2234 12.08 49.029 15.0609C51.5529 19.3216 53.9536 23.6445 56.4158 27.9424C56.8221 28.7227 57.2901 29.2923 58.078 29.2799ZM54.3846 12.1996C55.0001 12.7446 55.1233 13.5126 55.6157 14.0699C56.0401 14.661 56.4145 15.2866 56.7356 15.9402C57.1264 15.559 57.3688 15.0498 57.4185 14.5045C57.4682 13.9592 57.3221 13.414 57.0067 12.9677C56.7183 12.5732 56.3092 12.2845 55.8423 12.1458C55.3755 12.0072 54.8764 12.026 54.4212 12.1996H54.3846Z" fill="white"/>
<path d="M70.1185 61.8556C70.1185 61.1124 69.4412 60.8648 69.0719 60.3817C68.7025 59.8987 68.3211 59.7994 68.395 59.2296C72.5808 59.2296 76.7663 59.2296 80.9522 59.2296C81.6416 59.2296 81.8878 59.081 81.8755 58.3379C81.8755 56.257 81.8755 54.1886 81.8755 52.1449C82.3803 52.0211 82.6636 52.3681 82.996 52.6653C83.3284 52.9626 83.7719 53.7553 84.4983 53.9039C84.5968 58.2514 84.7688 62.5741 84.4364 66.9339C84.3982 68.3395 83.9174 69.6964 83.0634 70.8094C82.2093 71.9224 81.0263 72.7339 79.6844 73.1269C79.6228 72.5076 79.0688 72.2599 78.7364 71.8883C78.404 71.5167 78.0716 71.3556 78.1454 70.8602C79.2509 70.6578 80.2416 70.0482 80.9245 69.1505C81.6074 68.2527 81.9335 67.1314 81.8388 66.005C81.8388 64.977 81.8388 63.9613 81.8388 62.9333C81.8388 62.153 81.6667 61.9052 80.8542 61.9176C77.2716 61.93 73.6887 61.8556 70.1185 61.8556Z" fill="white"/>
<path d="M60.4044 1.65928C59.5912 3.4352 58.5569 5.09998 57.3266 6.61365C57.1063 6.78227 56.831 6.86203 56.5553 6.83681C56.2796 6.8116 56.0235 6.6834 55.837 6.47757C55.6241 6.32605 55.4692 6.10599 55.3975 5.85374C55.3259 5.60149 55.3421 5.332 55.4432 5.09021C56.2279 3.45941 57.1329 1.89018 58.1514 0.395893C58.3083 0.185862 58.534 0.0384227 58.7886 -0.020499C59.0431 -0.0794207 59.3106 -0.0457468 59.543 0.0741493C60.097 0.334254 60.3921 0.755109 60.4044 1.65928Z" fill="white"/>
<path d="M67.9388 7.76658C67.9138 8.00007 67.834 8.22399 67.7056 8.42004C67.5771 8.6161 67.4035 8.7785 67.2 8.89359C65.9689 9.61197 64.7377 10.3427 63.5066 11.0363C63.3515 11.1477 63.1746 11.2249 62.9878 11.2628C62.801 11.3008 62.6087 11.2989 62.4228 11.2568C62.2368 11.2147 62.062 11.1336 61.9094 11.0188C61.7567 10.904 61.6294 10.7581 61.5367 10.5906C61.4452 10.4292 61.3891 10.2502 61.3708 10.0654C61.3525 9.88049 61.3728 9.69377 61.4309 9.51742C61.4889 9.34106 61.5831 9.1791 61.7074 9.04176C61.8317 8.90441 61.9831 8.79489 62.1522 8.72032C63.3834 7.97716 64.6145 7.2588 65.8456 6.57758C66.0534 6.44136 66.2945 6.36507 66.5424 6.35713C66.7902 6.3492 67.0352 6.40986 67.2511 6.53252C67.467 6.65518 67.6456 6.83503 67.7669 7.05263C67.8881 7.27024 67.9475 7.51728 67.9388 7.76658Z" fill="white"/>
<path d="M84.4733 53.8538C83.747 53.7423 83.4512 53.0611 82.9711 52.6152C82.491 52.1693 82.3553 51.9713 81.8506 52.0951V50.5469C82.5893 50.6212 82.8727 51.3147 83.3528 51.7235C83.833 52.1322 83.9686 52.3675 84.4733 52.3056C84.5961 52.8143 84.5961 53.3451 84.4733 53.8538Z" fill="white"/>
<path d="M40.8536 32.1295C41.5307 33.0708 42.208 33.9874 42.8728 34.9287C43.1325 35.2055 43.3282 35.5364 43.4469 35.8978C43.5656 36.2593 43.6039 36.6423 43.5593 37.0203C43.5147 37.3983 43.3885 37.7619 43.189 38.0853C42.9895 38.4088 42.722 38.6841 42.4051 38.8921C42.0235 39.2265 42.0111 39.4247 42.3065 39.7963C43.0206 40.7004 43.6853 41.6418 44.3624 42.5707C44.6389 42.8538 44.8511 43.1939 44.9846 43.5674C45.1181 43.9408 45.1694 44.3389 45.1355 44.7343C45.1016 45.1297 44.9832 45.5131 44.788 45.858C44.5929 46.2029 44.3259 46.5012 44.0053 46.7325C43.5745 47.1412 43.1314 47.5624 42.6636 47.9711C42.3781 48.2438 42.0358 48.4489 41.6615 48.5716C41.2872 48.6944 40.8905 48.7318 40.5001 48.6808C40.1097 48.6298 39.7355 48.4917 39.4048 48.2768C39.0742 48.0619 38.7952 47.7756 38.5885 47.4386C36.3725 44.4783 34.1563 41.5055 31.9772 38.5081C31.9104 38.3563 31.8115 38.2216 31.6868 38.1129C31.5622 38.0042 31.4152 37.9244 31.2564 37.8794C31.0977 37.8344 30.931 37.8252 30.7683 37.8525C30.6056 37.8798 30.4507 37.9431 30.315 38.0376C28.4614 38.8249 26.3808 38.8794 24.4888 38.1906C22.5968 37.5017 21.0325 36.1202 20.1089 34.3218C19.15 32.5262 18.9025 30.4319 19.4164 28.4602C19.9303 26.4886 21.1676 24.7857 22.879 23.6946C24.6518 22.5674 26.511 21.5768 28.3084 20.4992C28.7542 20.2498 29.2743 20.1704 29.7734 20.276C29.7734 20.8953 30.303 21.0935 30.5862 21.5146C30.8693 21.9358 31.2631 22.0101 31.2877 22.4808C32.7035 25.28 34.3658 27.9183 35.8924 30.6556C36.114 31.0643 36.3598 30.9403 36.6799 30.8165C37.4801 30.5068 38.2927 30.222 39.1421 29.9247C39.5484 30.7917 40.5704 31.2005 40.8536 32.1295ZM21.8697 30.1352C21.808 31.0593 21.9831 31.9841 22.3782 32.8207C22.7733 33.6573 23.3753 34.3779 24.1263 34.9136C24.8774 35.4492 25.7525 35.7819 26.6679 35.88C27.5834 35.9781 28.5087 35.8381 29.355 35.4736C30.8693 34.8171 32.1989 33.8263 33.664 33.0584C34.0456 32.8602 33.9346 32.6496 33.7746 32.3771C32.1741 29.5903 30.5615 26.791 28.9733 23.9918C28.7148 23.5459 28.4932 23.5336 28.0746 23.7814C26.8435 24.5245 25.6123 25.1933 24.3812 25.9489C23.6445 26.3788 23.0277 26.9892 22.5886 27.7233C22.1495 28.4575 21.9022 29.2914 21.8697 30.1476V30.1352ZM42.4292 44.503L42.1214 44.0449L35.8677 35.5852C35.1537 34.6191 34.6361 35.5851 34.119 35.8328C33.602 36.0805 33.8236 36.5018 34.119 36.8858L40.3486 45.2463C40.521 45.4692 40.6688 45.9769 41.0135 45.754C41.5218 45.3852 41.9956 44.9706 42.4292 44.5154V44.503ZM37.5046 33.3556L40.0288 36.6626C40.1642 36.8484 40.2999 37.0467 40.5584 36.861C40.817 36.6752 40.6815 36.477 40.5584 36.2913C39.8567 35.3499 39.1424 34.4085 38.4653 33.4548C38.1698 33.0956 37.874 33.2442 37.5046 33.368V33.3556Z" fill="white"/>
<path d="M65.9193 18.7277C65.119 18.7277 64.3312 18.7277 63.531 18.7277C63.3632 18.7378 63.1954 18.7134 63.0374 18.6557C62.8794 18.598 62.7347 18.5084 62.6124 18.3923C62.4902 18.2763 62.3927 18.1364 62.3263 17.9811C62.2598 17.8257 62.2256 17.6582 62.2259 17.4891C62.2011 17.3125 62.2149 17.1326 62.2656 16.9617C62.3162 16.7908 62.4029 16.6331 62.5198 16.4991C62.6367 16.365 62.7806 16.2577 62.9424 16.1849C63.1043 16.1121 63.2798 16.0755 63.457 16.0772C65.0821 16.0029 66.7074 16.0029 68.3202 16.0772C68.4951 16.0759 68.6683 16.112 68.8282 16.1834C68.9881 16.2547 69.1307 16.3596 69.2472 16.4909C69.3637 16.6221 69.4515 16.7769 69.5039 16.9448C69.5563 17.1127 69.5723 17.2896 69.5513 17.4643C69.5526 17.6402 69.5164 17.8145 69.4455 17.9753C69.3747 18.1362 69.2706 18.28 69.1402 18.3972C69.0097 18.5144 68.8562 18.6024 68.6893 18.6551C68.5225 18.7078 68.346 18.724 68.1723 18.7029C67.409 18.7029 66.6459 18.7029 65.8826 18.7029L65.9193 18.7277Z" fill="white"/>
<path d="M44.437 66.3634C44.4306 66.864 44.2298 67.3423 43.878 67.6963C43.5261 68.0503 43.0506 68.252 42.5531 68.2584C42.0719 68.2407 41.6147 68.0432 41.2708 67.7042C40.927 67.3651 40.7216 66.909 40.6943 66.4254C40.7008 65.9226 40.9031 65.4425 41.2576 65.0882C41.6121 64.7338 42.0906 64.5335 42.5903 64.5303C43.0721 64.5425 43.5307 64.7389 43.8738 65.0794C44.2168 65.4199 44.4184 65.8789 44.437 66.3634Z" fill="white"/>
</g>
<defs>
<clipPath id="clip0_995_2725">
<rect width="84" height="95" fill="white" transform="translate(0.608398)"/>
</clipPath>
</defs>
</svg>
