<svg width="158" height="158" viewBox="0 0 158 158" fill="none" xmlns="http://www.w3.org/2000/svg">
<path d="M157.141 48.1022C156.621 48.557 156.166 49.1634 155.559 49.4379C154.055 50.114 152.542 48.9544 152.526 47.1148C152.489 43.2839 152.526 39.4489 152.526 35.6139V33.7046H150.812C145.852 33.7046 140.893 33.7046 135.933 33.7046C129.03 33.6841 124.304 28.9641 124.263 22.0398C124.234 17.1231 124.263 12.2064 124.263 7.31433V5.49109H56.9811C52.2385 5.49109 49.57 8.15021 49.5414 12.8907C49.5414 14.8697 49.5414 16.8486 49.5414 18.971C53.4149 18.971 57.0836 18.9259 60.7563 18.971C64.7013 18.9839 68.5268 20.3252 71.6155 22.7784C74.7041 25.2316 76.8757 28.6535 77.7797 32.4918C78.1004 33.9345 78.2721 35.4063 78.292 36.884C78.3699 39.3874 78.3494 41.8949 78.292 44.3983C78.2393 45.7094 78.5214 47.0122 79.1118 48.1842C79.6775 49.3273 79.8415 50.7204 79.9521 52.0192C80.0874 53.5925 79.9931 55.1863 79.9767 56.772C79.9357 61.5043 77.3001 64.1469 72.5985 64.2781C72.1886 64.2781 71.8032 64.3313 71.4507 64.3559C70.9752 66.0481 70.5858 67.6788 70.0571 69.2726C68.8122 72.9239 66.5737 76.156 63.5929 78.606C62.9452 79.1551 61.8877 79.7123 61.818 80.3515C61.6253 82.1583 61.818 84.0103 61.9369 85.8376C61.9369 86.0589 62.3468 86.3416 62.6542 86.444C64.1831 86.9808 65.7654 87.3782 67.2574 87.9928C70.1267 89.1728 72.9633 90.4511 75.7998 91.7213C81.7188 94.3599 86.9492 97.9367 91.0359 103.038C95.3926 108.405 97.809 115.085 97.8936 121.996C98.0248 127.732 97.9346 133.468 97.9387 139.171V141.056H145.242C150.128 141.056 152.509 138.692 152.509 133.841C152.509 109.353 152.509 84.8652 152.509 60.3775C152.509 59.9678 152.509 59.558 152.509 59.1483C152.448 57.8577 152.575 56.6244 154.018 56.1328C155.461 55.6411 156.428 56.4524 157.141 57.6406V136.475C157.076 136.549 156.973 136.615 156.949 136.701C155.19 142.924 151.62 145.653 145.188 145.657H98.1478C98.0751 145.807 98.0174 145.963 97.9756 146.124C97.9756 146.788 97.9756 147.452 97.9387 148.115C97.8117 151.95 96.0614 154.835 92.733 156.72C91.7311 157.2 90.697 157.611 89.6382 157.949H8.32548C1.65634 155.261 0.0700126 152.885 0.0700126 145.559C0.0700126 138.405 0.0208208 131.247 0.0987026 124.089C0.118277 121.691 0.316954 119.297 0.693069 116.927C1.47314 112.218 3.39249 107.771 6.28416 103.972C7.10397 102.903 8.10824 102.468 9.35844 103.116C10.3996 103.656 10.7316 104.611 10.457 105.717C10.3218 106.155 10.1033 106.563 9.81344 106.918C6.94411 110.864 5.08724 115.256 4.95197 120.103C4.69783 129.502 4.71013 138.905 4.72243 148.308C4.72972 149.531 5.18774 150.709 6.00895 151.616C6.83016 152.523 7.95696 153.096 9.17398 153.225C11.7482 153.446 14.3511 153.274 17.1056 153.274V151.528C17.1056 146.161 17.1056 140.794 17.1056 135.426C17.0898 134.915 17.1048 134.403 17.1507 133.894C17.3024 132.665 18.0197 131.931 19.2576 131.866C20.5734 131.796 21.3809 132.493 21.6187 133.779C21.6932 134.285 21.7206 134.797 21.7007 135.308C21.7007 140.675 21.7007 146.042 21.7007 151.41V153.241H36.1949C36.2932 152.794 36.3957 152.45 36.449 152.098C38.5395 139.089 40.5194 126.064 42.7902 113.088C43.2862 110.257 42.7902 108.147 40.8309 106.266C40.4647 105.89 39.9735 105.659 39.4495 105.619C36.49 105.75 34.2314 104.55 32.4279 102.268C30.5013 99.8092 28.5133 97.4287 26.3285 94.7409C23.5288 96.2692 20.7046 97.7729 17.9172 99.3462C16.3309 100.243 15.0684 100.166 14.2691 98.9816C13.4698 97.7975 13.81 96.4536 15.3594 95.5194C17.409 94.2902 19.4913 93.061 21.6433 92.0203C24.2052 90.7707 26.8327 89.6481 29.4724 88.5787C31.44 87.7593 33.4977 87.1938 35.4693 86.4031C35.6829 86.2625 35.8628 86.0765 35.996 85.8584C36.1293 85.6402 36.2126 85.3953 36.24 85.1411C36.3506 83.912 36.24 82.6828 36.3178 81.4536C36.3753 81.0067 36.3041 80.5526 36.1124 80.1447C35.9207 79.7369 35.6166 79.3921 35.2357 79.151C31.3498 76.2829 28.8658 72.4438 27.5008 67.8549C27.1565 66.6995 26.9351 65.5031 26.64 64.2617C26.0292 64.2617 25.5251 64.2617 25.0004 64.2617C20.844 64.1264 18.1345 61.3936 18.0771 57.2513C18.0566 55.5632 17.9992 53.8752 18.0771 52.1912C18.1427 50.9867 18.1099 49.5936 18.692 48.6349C19.7372 46.9141 19.6675 45.1522 19.6675 43.333C19.6675 41.6942 19.6675 40.0553 19.6675 38.4164C19.5991 36.2503 20.2844 34.1275 21.6064 32.4098C22.1639 31.701 21.9548 31.2381 21.6966 30.5088C20.9382 28.3618 20.1184 26.1862 19.77 23.9532C19.2576 20.7082 20.9997 18.9423 24.279 18.9382C30.5642 18.9382 36.8493 18.9382 43.1345 18.9382H44.8684C44.8684 16.7789 44.8684 14.8409 44.8684 12.903C44.9053 5.52795 49.6192 0.865307 57.0016 0.865307C79.0381 0.865307 101.076 0.855769 123.115 0.836649C124.492 0.797761 125.862 1.05119 127.133 1.58017C128.405 2.10915 129.55 2.90167 130.493 3.90547C137.934 11.4307 145.418 18.9136 152.944 26.3542C154.739 28.1365 156.395 29.9515 157.076 32.459L157.141 48.1022ZM76.3901 153.249V145.342C76.3901 141.613 76.3696 137.881 76.3901 134.148C76.3901 132.759 77.2878 131.886 78.538 131.833C79.7882 131.78 80.7351 132.579 80.9277 133.927C80.9743 134.384 80.988 134.844 80.9687 135.303C80.9687 140.622 80.9687 145.937 80.9687 151.25V153.298C83.338 153.298 85.5268 153.319 87.7116 153.298C91.0687 153.262 93.3068 151.07 93.315 147.726C93.315 139.192 93.3929 130.653 93.2781 122.123C93.243 115.977 91.018 110.044 87.0025 105.39C83.0879 100.743 78.0584 97.568 72.4304 95.3186C72.1728 95.2652 71.906 95.2745 71.6528 95.3458C71.3995 95.4172 71.1671 95.5484 70.9752 95.7284C69.1143 97.8999 67.3271 100.137 65.5481 102.374C63.7691 104.611 61.6089 105.73 58.7847 105.652C58.5347 105.652 58.1657 105.566 58.0469 105.693C57.0303 106.832 55.9236 107.93 55.1283 109.216C54.7717 109.79 54.9644 110.782 55.0833 111.552C56.466 120.273 57.8651 128.994 59.2807 137.713C60.1005 142.891 60.9654 148.07 61.8139 153.282L76.3901 153.249ZM47.5902 39.117C43.6018 39.117 39.6135 39.1866 35.6292 39.117C32.1081 39.035 32.0097 39.0351 31.4072 42.5956C31.3515 42.8971 31.32 43.2027 31.3129 43.5093C31.3129 50.2041 31.0588 56.9072 31.3867 63.5856C31.7761 71.4646 38.9781 78.5897 46.8524 79.4624C49.3656 79.7359 51.9083 79.4792 54.316 78.7089C56.7238 77.9386 58.943 76.6718 60.8303 74.9904C62.7175 73.3091 64.2308 71.2505 65.2722 68.948C66.3136 66.6454 66.8601 64.15 66.8762 61.6231C66.9459 56.2065 66.9008 50.79 66.8762 45.3735C66.8762 41.3295 64.6709 39.1293 60.6129 39.1129C56.2802 39.0884 51.9352 39.117 47.5902 39.117ZM73.7093 43.7469C73.7093 41.604 73.7093 39.5677 73.7093 37.5273C73.7093 29.0337 68.2125 23.5557 59.7029 23.5516C48.5125 23.5516 37.3207 23.5516 26.1276 23.5516H24.3117C24.488 24.4571 24.5741 25.1906 24.7749 25.9321C26.2547 31.2012 30.7472 34.4871 36.6171 34.5076C44.7414 34.5404 52.8657 34.5076 60.99 34.5076C65.958 34.5363 69.7947 37.3962 71.0777 41.9031C71.2417 42.4849 71.3605 43.079 71.5163 43.7305L73.7093 43.7469ZM47.6599 111.351C45.4054 125.347 43.1509 139.278 40.917 153.241H57.1C57.0631 152.885 57.0549 152.631 57.0139 152.381C54.9152 139.384 52.8138 126.388 50.7096 113.391C50.3202 110.95 50.3407 110.95 47.6599 111.339V111.351ZM128.973 9.30563C128.973 14.1117 128.764 19.0447 129.055 23.9491C129.227 26.8172 132.158 29.0501 135.06 29.0993C139.569 29.173 144.041 29.1198 148.533 29.0993C148.644 29.0993 148.759 28.9723 148.652 29.0378L128.973 9.30563ZM41.1916 82.6459C40.8678 84.5634 40.5685 86.2023 40.3308 87.8535C40.3089 88.0159 40.3221 88.1811 40.3695 88.338C40.4169 88.4949 40.4973 88.6399 40.6054 88.7631C43.3887 90.9756 46.2006 93.1471 49.0331 95.3514C51.8409 93.1635 54.5463 91.0739 57.2312 88.9434C57.3802 88.8274 57.5024 88.6805 57.5894 88.5129C57.6764 88.3453 57.7262 88.1609 57.7353 87.9723C57.5017 86.2351 57.1697 84.5143 56.8499 82.6459C54.3822 83.7326 51.7143 84.2914 49.0177 84.2865C46.3211 84.2815 43.6554 83.7129 41.1916 82.6172V82.6459ZM30.8333 93.0078C32.8296 95.4661 34.6577 97.7852 36.572 100.022C36.9995 100.548 37.5996 100.906 38.2659 101.032C38.9322 101.158 39.6217 101.044 40.2119 100.711C41.7819 99.928 43.2698 98.9652 44.9258 98.0064C42.0196 95.7448 39.306 93.5814 36.5187 91.5164C36.2441 91.3612 35.9406 91.2637 35.627 91.2299C35.3133 91.196 34.996 91.2266 34.6946 91.3197C33.4567 91.7049 32.2803 92.3523 30.8333 92.9791V93.0078ZM53.1116 98.0105C54.784 98.9775 56.2802 99.9403 57.8665 100.731C59.0429 101.317 60.3669 101.223 61.2605 100.211C63.2895 97.9122 65.1915 95.4948 67.2287 93.0201C65.7695 92.3604 64.5479 91.7213 63.2608 91.2747C62.9807 91.1886 62.6856 91.1624 62.3947 91.1976C62.1037 91.2329 61.8234 91.329 61.572 91.4795C58.7601 93.5404 56.0342 95.7243 53.1116 97.9818V98.0105ZM26.5211 48.557C24.2134 48.2538 22.7746 49.3765 22.7049 51.6054C22.6516 53.3344 22.6803 55.0716 22.7049 56.8047C22.7049 59.2631 24.1027 60.1972 26.5334 59.3614L26.5211 48.557ZM71.5778 59.5294C74.234 59.849 75.2915 59.259 75.3776 57.3374C75.4637 55.4158 75.4719 53.4573 75.3776 51.5275C75.2628 49.401 73.8938 48.348 71.586 48.4996L71.5778 59.5294ZM44.8111 103.484C45.7538 106.324 47.7829 106.926 50.3776 106.582C52.218 106.34 52.4558 104.636 53.5543 103.665C49.0249 100.62 49.0249 100.62 44.9135 103.374C44.8752 103.407 44.8408 103.444 44.8111 103.484ZM25.2914 35.1427C23.6518 37.9698 24.5782 40.9034 24.3035 43.8493L26.4473 43.7428C27.0253 41.4237 27.5582 39.2686 28.087 37.093L25.2914 35.1427Z" fill="white"/>
<path d="M115.312 43.1842H138.017C141.374 43.1842 142.714 44.5445 142.718 47.9452C142.718 51.268 142.718 54.5909 142.718 57.9137C142.718 60.7818 141.243 62.2814 138.386 62.2855C123.003 62.3019 107.617 62.3019 92.2265 62.2855C89.435 62.2855 87.943 60.8228 87.9061 58.049C87.861 54.4721 87.8528 50.8952 87.9061 47.3183C87.9471 44.6387 89.4719 43.1924 92.165 43.1883C99.8958 43.1555 107.594 43.1842 115.312 43.1842ZM138.046 47.8919H92.5872V57.5942H138.046V47.8919Z" fill="#D35F46"/>
<path d="M115.192 83.3994H91.262C90.8028 83.4234 90.3423 83.4124 89.8847 83.3666C89.3679 83.3175 88.8863 83.083 88.5291 82.7063C88.1719 82.3297 87.9632 81.8365 87.9418 81.318C87.867 80.803 87.9856 80.2786 88.2747 79.8458C88.5639 79.4131 89.0031 79.1026 89.5076 78.9744C90.0509 78.8364 90.6122 78.7825 91.1718 78.8146C107.281 78.8146 123.389 78.8146 139.495 78.8146C139.955 78.7852 140.416 78.8142 140.869 78.9006C142.045 79.2079 142.738 80.0069 142.672 81.2319C142.671 81.7785 142.463 82.3045 142.09 82.7037C141.716 83.1029 141.205 83.3456 140.66 83.383C140.201 83.4275 139.739 83.4371 139.278 83.4117L115.192 83.3994Z" fill="#D35F46"/>
<path d="M115.414 68.5313H139.188C139.699 68.5147 140.21 68.5352 140.717 68.5927C141.249 68.6647 141.737 68.9244 142.094 69.3248C142.45 69.7253 142.652 70.2402 142.662 70.7762C142.672 71.3123 142.489 71.8342 142.148 72.2476C141.806 72.6609 141.328 72.9385 140.799 73.03C140.295 73.1087 139.785 73.1402 139.274 73.1242C123.272 73.1242 107.27 73.1242 91.2705 73.1242C90.8113 73.136 90.3519 73.1086 89.8974 73.0423C88.5857 72.8251 87.8929 71.9729 87.9462 70.6987C87.9373 70.151 88.1434 69.6216 88.5204 69.2241C88.8974 68.8265 89.4153 68.5925 89.9629 68.5722C90.4727 68.5284 90.9845 68.5134 91.496 68.5272L115.414 68.5313Z" fill="#D35F46"/>
<path d="M102.84 89.143C106.771 89.143 110.706 89.143 114.641 89.143C116.584 89.143 117.605 89.9625 117.572 91.462C117.539 92.9616 116.543 93.7278 114.703 93.7319C106.734 93.7483 98.7644 93.7483 90.7932 93.7319C89.006 93.7319 87.9238 92.8387 87.9238 91.4457C87.9238 90.0526 88.9691 89.1471 90.8956 89.143C94.8676 89.1349 98.856 89.143 102.84 89.143Z" fill="#D35F46"/>
</svg>
