<svg width="158" height="159" viewBox="0 0 158 159" fill="none" xmlns="http://www.w3.org/2000/svg">
<path d="M93.6318 71.3981L93.6892 70.9886C94.0475 68.7876 93.4844 67.3872 91.22 66.2263C86.2039 63.6569 82.4981 59.5743 80.1293 54.4436C79.1506 52.3286 78.5589 50.0212 77.9488 47.7589C77.7154 46.901 77.4595 46.4649 76.5484 46.2499C70.7788 44.8843 67.7077 39.1803 69.8268 33.6503C71.0204 30.5362 73.4322 28.6587 76.6548 27.8807C77.3776 27.7046 77.6274 27.3934 77.7502 26.6871C79.1465 18.6183 83.2372 12.2079 89.9732 7.6033C93.8439 4.9177 98.3912 3.37334 103.097 3.14613C109.327 2.86359 115.576 2.94139 121.816 2.90454C123.249 2.90454 124.693 2.87588 126.099 3.07243C129.729 3.58427 132.321 6.62055 132.338 10.3059C132.364 15.7315 132.364 21.157 132.338 26.5826C132.338 27.3709 132.543 27.6862 133.333 27.8827C139.303 29.361 142.413 35.3332 140.038 40.8243C138.767 43.7644 136.474 45.607 133.327 46.2847C132.549 46.4526 132.227 46.7413 132.08 47.5725C130.71 55.2564 126.529 61.1345 120.086 65.3439C118.362 66.472 117.932 67.7434 118.086 69.5185C118.252 71.4247 118.27 71.3817 120.174 71.6437C130.698 73.0933 138.347 78.5434 143.009 88.1232C143.085 88.2768 143.15 88.4344 143.214 88.5921C144.033 90.5842 144.033 90.576 146.25 90.5862C147.683 90.5862 149.116 90.6477 150.549 90.6395C154.042 90.619 157.253 93.7986 157.101 97.9466C157.031 99.7893 157.081 101.632 157.081 103.475C157.081 119.137 157.009 134.8 157.128 150.464C157.16 154.649 154.024 158.04 149.581 158.019C132.997 157.911 116.413 157.976 99.8293 157.978H63.4921C59.8826 157.978 57.481 156.297 56.3897 152.948C56.2192 152.395 56.1336 151.82 56.1359 151.242C56.1092 148.274 56.1154 145.305 56.1215 142.336C56.1215 141.212 56.5781 140.606 57.3868 140.588C58.2467 140.569 58.732 141.188 58.7381 142.377C58.7524 145.108 58.863 147.844 58.7176 150.567C58.5723 153.29 60.6852 155.435 63.5392 155.421C77.7011 155.351 91.8629 155.388 106.025 155.388C120.561 155.388 135.098 155.349 149.634 155.425C152.349 155.439 154.532 153.464 154.515 150.511C154.429 134.609 154.476 118.707 154.478 102.807C154.478 101.034 154.493 99.261 154.466 97.4839C154.431 95.1417 152.828 93.4239 150.504 93.1844C150.095 93.1434 149.685 93.1537 149.276 93.1537H87.3402C86.9983 93.175 86.6552 93.1599 86.3165 93.1086C86.0074 93.0629 85.7274 92.901 85.5334 92.6561C85.3394 92.4111 85.246 92.1014 85.2723 91.7901C85.2867 91.051 85.7391 90.6763 86.4373 90.6149C86.9799 90.5658 87.5286 90.574 88.0752 90.574H141.056C140.977 90.2205 140.876 89.8724 140.753 89.5318C138.191 83.7049 134.009 79.4505 128.3 76.6558C125.479 75.2738 122.494 74.5265 119.394 74.1395C118.575 74.0371 118.166 74.1538 117.93 75.1284C117.246 77.9948 115.148 79.733 112.607 80.8038C107.417 82.9801 102.29 82.8328 97.4564 79.7248C95.6362 78.5537 94.2727 76.9342 93.8837 74.7148C93.7526 73.9675 93.3022 74.0842 92.8415 74.1272C90.0541 74.3941 87.3199 75.0624 84.7236 76.1112C84.2609 76.2954 83.5095 76.1623 83.0857 75.8839C82.8073 75.7037 82.7029 74.9298 82.8421 74.5367C82.9813 74.1436 83.4931 73.8713 83.9067 73.6952C86.8635 72.4379 90.0104 71.6863 93.2162 71.4718C93.3561 71.4551 93.4948 71.4305 93.6318 71.3981ZM132.35 30.53C132.35 31.349 132.35 32.1393 132.35 32.9193C132.328 36.6558 129.484 39.6471 125.936 39.6532C122.25 39.6532 119.384 36.7746 119.374 32.9828C119.357 29.8441 119.374 26.7055 119.363 23.5648C119.363 23.2044 119.333 22.8441 119.308 22.2729C110.197 27.2255 100.677 28.3045 90.6447 26.3677C90.6447 26.8591 90.6447 27.2276 90.6447 27.5961C90.6447 29.4674 90.6754 31.3408 90.6181 33.2101C90.5239 36.2259 88.3659 38.8588 85.5221 39.5017C81.5809 40.3923 77.7686 37.4072 77.6335 33.3083C77.6028 32.3727 77.6335 31.437 77.6335 30.4092C77.2964 30.4478 76.9616 30.5039 76.6303 30.5771C72.6911 31.7155 70.6314 36.4163 72.4904 40.077C73.7189 42.5093 75.7806 43.7623 78.4606 43.9343C79.599 44.006 80.1661 44.4523 80.2194 45.5722C80.2316 45.8425 80.3033 46.1107 80.3381 46.381C80.8275 50.1219 82.2489 53.68 84.4718 56.7285C88.9249 62.8707 94.9483 66.4577 102.546 67.2337C109.081 67.8991 115.035 66.2366 120.213 62.2483C125.624 58.0818 128.921 52.5845 129.768 45.7196C129.953 44.2271 130.125 44.0817 131.611 43.9609C135.884 43.619 138.803 39.9624 138.111 35.843C137.612 33.0053 134.66 30.4502 132.35 30.5341V30.53ZM129.756 21.6668C129.756 17.9474 129.756 14.2273 129.756 10.5065C129.756 7.95751 128.071 6.00224 125.561 5.61324C125.326 5.56936 125.088 5.54267 124.848 5.53338C117.754 5.57843 110.652 5.45149 103.566 5.73812C98.6041 5.90947 93.8315 7.68375 89.9629 10.7952C82.8093 16.5402 79.5355 24.0787 80.1927 33.2653C80.3811 35.927 82.9608 37.6631 85.3727 36.8135C86.8509 36.2914 87.9708 34.7456 88.0036 33.0094C88.0527 30.315 88.0179 27.6207 88.0445 24.9263C88.0588 23.5975 88.673 23.1471 89.9506 23.4235C91.3142 23.7184 92.6737 24.0623 94.0454 24.2425C102.667 25.4341 110.822 24.0664 118.43 19.7382C119.106 19.3533 119.4 18.9193 119.38 18.1187C119.341 16.6037 119.695 16.0979 120.627 16.0877C121.558 16.0775 121.921 16.6282 121.923 18.0921C121.923 23.0407 121.923 27.9892 121.923 32.9378C121.923 34.8316 123.172 36.4654 124.885 36.8872C127.432 37.5137 129.705 35.6894 129.731 32.9234C129.783 29.1787 129.756 25.4238 129.756 21.6709V21.6668ZM96.2382 68.5747C96.3405 70.7449 96.2607 72.7002 96.5965 74.5797C96.7623 75.5154 97.5076 76.5677 98.3019 77.1349C102.626 80.2346 107.284 80.4291 112.019 78.1831C113.846 77.3171 115.371 75.9944 115.5 73.7444C115.607 72.0123 115.598 70.2638 115.623 68.5338C115.623 68.3577 115.5 68.1795 115.408 67.9339C112.425 69.1619 109.247 69.8482 106.023 69.9608C102.705 70.0797 99.3923 69.6104 96.2382 68.5747Z" fill="white"/>
<path d="M72.5955 74.6597C73.5701 74.6597 74.4893 74.6597 75.4086 74.6597C79.1185 74.6986 81.8211 77.354 81.8272 81.0639C81.8395 87.3392 81.776 93.6144 81.7781 99.8999C81.7781 110.273 81.7958 120.647 81.8313 131.02C81.8313 135.115 79.2393 137.76 75.1465 137.762C67.2989 137.762 59.4492 137.783 51.6015 137.762C46.3213 137.748 41.0411 137.633 35.7608 137.64C26.0766 137.64 16.3945 137.726 6.71035 137.756C2.55209 137.769 0.039946 135.234 0.0419934 131.049C0.050183 120.607 0.0624659 110.166 0.078845 99.7239C0.078845 93.6513 0.0501725 87.5787 0.0440303 81.5021C0.0440303 77.2025 2.64422 74.6208 6.91713 74.6412C10.0558 74.6556 13.1965 74.6126 16.3351 74.6679C17.193 74.6842 17.5001 74.4263 17.6578 73.5807C18.3887 69.6661 22.0249 67.4078 25.7675 68.6076C28.0872 69.3508 29.4815 71.0931 29.9483 73.4681C30.1284 74.3874 30.456 74.6822 31.3999 74.676C39.2823 74.6351 47.1648 74.6453 55.0473 74.6412C56.3085 74.6412 57.5697 74.6208 58.8288 74.6412C59.5024 74.6597 59.8095 74.5123 59.9385 73.7281C60.6469 69.4695 64.9669 67.0597 68.7157 68.8144C70.5727 69.6865 71.7417 71.2078 72.2925 73.1855C72.4071 73.6134 72.4706 74.0598 72.5955 74.6597ZM41.0062 89.016H3.96889C2.6299 89.016 2.6258 89.016 2.6258 90.3734C2.6258 95.0783 2.6258 99.7826 2.6258 104.486C2.6258 113.358 2.6258 122.23 2.6258 131.102C2.6258 133.764 4.02827 135.156 6.65507 135.164C17.3015 135.19 27.9425 135.214 38.578 135.236C43.287 135.236 47.9961 135.177 52.6928 135.168C60.1658 135.156 67.6374 135.156 75.1076 135.168C77.7693 135.168 79.229 133.721 79.2311 131.059C79.2311 117.41 79.2311 103.766 79.2311 90.1277C79.2311 89.2924 79.0018 88.9976 78.1357 89.0119C75.2039 89.059 72.272 89.0344 69.332 89.0344L41.0062 89.016ZM17.4141 77.3028C13.5036 77.3028 9.72002 77.2414 5.94872 77.3274C4.0385 77.3725 2.71997 78.8814 2.65446 80.8489C2.60532 82.3497 2.68927 83.8545 2.61966 85.3532C2.57871 86.2459 2.9411 86.4506 3.75187 86.4383C6.41348 86.4015 9.0751 86.424 11.7367 86.424H66.6908C70.5092 86.424 74.3296 86.3974 78.1562 86.424C78.9977 86.424 79.3089 86.1722 79.2741 85.3164C79.2188 83.9896 79.2741 82.6547 79.2598 81.326C79.2372 78.7831 77.7242 77.2762 75.165 77.2681C71.3773 77.2681 67.5896 77.2681 63.806 77.2681H62.5182V81.113H63.3024C64.2565 81.113 65.2146 81.066 66.1687 81.113C66.9426 81.1601 67.4647 81.6085 67.432 82.4316C67.4013 83.2096 66.9733 83.7071 66.136 83.7092C62.8294 83.7092 59.5208 83.7276 56.2143 83.6948C55.8478 83.6948 55.338 83.5228 55.1558 83.2546C54.9265 82.9168 54.7463 82.2555 54.9367 81.9873C55.256 81.5409 55.7374 81.2374 56.2778 81.1417C57.412 81.0189 58.5647 81.1028 59.83 81.1028C59.83 80.4149 59.83 79.8744 59.83 79.338C59.83 77.2496 59.83 77.2496 57.7498 77.2496H21.1138H20.0901C20.0901 78.3286 20.1208 79.2827 20.0798 80.2306C20.0512 80.9186 20.3419 81.1192 20.9889 81.0967C21.943 81.0619 22.9011 81.0598 23.8552 81.1192C24.6312 81.1663 25.1881 81.6515 25.1512 82.4275C25.1547 82.601 25.1221 82.7733 25.0555 82.9335C24.9888 83.0936 24.8896 83.2382 24.764 83.358C24.6385 83.4777 24.4894 83.5701 24.3262 83.6291C24.1631 83.6882 23.9894 83.7126 23.8163 83.701C20.4729 83.701 17.1316 83.6805 13.7841 83.6436C13.4729 83.6436 13.0266 83.531 12.8873 83.316C12.658 82.9577 12.4062 82.3456 12.5659 82.0692C12.8075 81.6454 13.3644 81.199 13.8312 81.1479C14.9982 81.0168 16.1877 81.1049 17.4428 81.1049L17.4141 77.3028ZM27.4709 74.5737C27.1761 72.1905 25.4235 70.6324 23.4847 70.8761C21.5929 71.1156 20.0491 72.8784 20.2928 74.5737H27.4709ZM62.5121 74.5737H69.7865C69.6165 72.4628 68.1015 70.9007 66.2363 70.8454C64.3711 70.7901 62.7782 72.3359 62.5182 74.5778L62.5121 74.5737Z" fill="white"/>
<path d="M61.5333 33.4017C61.6787 45.51 54.4186 56.0377 43.1662 60.0179C42.7567 60.1653 42.3226 60.2799 41.8968 60.3966C41.1331 60.6014 40.525 60.4171 40.2589 59.6309C39.9927 58.8447 40.3817 58.2796 41.2662 57.9193C42.8406 57.2785 44.4662 56.7195 45.9424 55.8965C52.8544 52.0494 57.2031 46.1795 58.5707 38.4322C60.4032 28.1133 56.0013 18.4394 47.4124 12.8991C44.2523 10.8488 40.6559 9.56707 36.9114 9.1565C35.859 9.0357 35.3594 8.5648 35.4086 7.72332C35.4618 6.83475 36.0228 6.42937 37.1734 6.55835C42.2919 7.13367 46.8474 9.05618 50.9114 12.1785C54.1563 14.6966 56.795 17.9105 58.6332 21.5835C60.4715 25.2565 61.4625 29.295 61.5333 33.4017Z" fill="white"/>
<path d="M96.2647 124.327C96.2504 118.498 100.769 113.955 106.606 113.929C107.964 113.924 109.309 114.188 110.565 114.705C111.821 115.222 112.962 115.981 113.924 116.94C114.886 117.898 115.649 119.037 116.17 120.291C116.691 121.545 116.959 122.89 116.96 124.247C116.97 125.606 116.713 126.954 116.202 128.213C115.691 129.473 114.936 130.619 113.982 131.586C113.027 132.554 111.892 133.323 110.639 133.851C109.387 134.379 108.043 134.655 106.684 134.662C100.853 134.662 96.2811 130.134 96.2647 124.327ZM106.561 132.054C110.846 132.054 114.358 128.598 114.353 124.374C114.353 120.013 110.926 116.533 106.631 116.518C102.251 116.504 98.8505 119.96 98.8505 124.405C98.8628 128.596 102.343 132.05 106.561 132.054Z" fill="white"/>
<path d="M11.3468 124.305C11.3425 123.64 11.4695 122.981 11.7205 122.366C11.9715 121.75 12.3416 121.19 12.8096 120.718C13.2776 120.246 13.8342 119.871 14.4474 119.614C15.0607 119.358 15.7186 119.225 16.3834 119.223C19.1371 119.223 21.4855 121.545 21.4855 124.274C21.4855 127.003 19.1494 129.372 16.4161 129.356C15.0747 129.356 13.7877 128.825 12.8375 127.878C11.8872 126.931 11.3511 125.646 11.3468 124.305ZM16.3998 126.721C16.7238 126.72 17.0445 126.655 17.3433 126.53C17.6422 126.405 17.9133 126.222 18.1411 125.991C18.3688 125.761 18.5488 125.488 18.6706 125.187C18.7923 124.887 18.8535 124.566 18.8505 124.242C18.8233 123.59 18.542 122.974 18.0667 122.527C17.5914 122.08 16.96 121.837 16.3076 121.85C15.6717 121.879 15.0723 122.156 14.6371 122.62C14.2019 123.085 13.9653 123.701 13.9777 124.338C13.9966 124.969 14.2582 125.57 14.7081 126.014C15.158 126.457 15.7617 126.711 16.3936 126.721H16.3998Z" fill="white"/>
<path d="M45.4897 124.377C45.6945 126.834 43.0042 129.479 40.3713 129.412C37.8898 129.35 35.3449 127.057 35.4104 124.312C35.478 121.421 37.6851 119.207 40.5862 119.25C43.2908 119.289 45.5102 121.611 45.4897 124.377ZM42.8814 124.322C42.8868 124.006 42.8295 123.693 42.7128 123.4C42.596 123.107 42.4222 122.84 42.2015 122.614C41.9807 122.389 41.7173 122.21 41.4267 122.087C41.136 121.964 40.8239 121.901 40.5084 121.9C40.1852 121.889 39.8633 121.945 39.5623 122.063C39.2613 122.181 38.9875 122.359 38.7576 122.587C38.5277 122.814 38.3466 123.086 38.2252 123.386C38.1038 123.685 38.0447 124.007 38.0515 124.33C38.0468 124.653 38.1072 124.973 38.2293 125.272C38.3515 125.571 38.5327 125.842 38.7622 126.069C38.9916 126.296 39.2646 126.474 39.5647 126.593C39.8648 126.712 40.1858 126.769 40.5084 126.76C41.1434 126.742 41.7463 126.477 42.1893 126.022C42.6323 125.567 42.8806 124.957 42.8814 124.322Z" fill="white"/>
<path d="M45.4915 98.3245C45.5035 98.99 45.3825 99.6511 45.1355 100.269C44.8886 100.887 44.5208 101.45 44.0536 101.924C43.5864 102.398 43.0292 102.774 42.4148 103.03C41.8003 103.286 41.141 103.417 40.4753 103.414C39.8184 103.425 39.1659 103.304 38.5557 103.061C37.9455 102.817 37.3898 102.454 36.9208 101.994C36.4517 101.534 36.0786 100.986 35.8232 100.38C35.5677 99.7749 35.435 99.1248 35.4326 98.4678C35.4326 95.5605 37.5373 93.3718 40.3832 93.335C41.0481 93.3203 41.7092 93.4384 42.3278 93.6824C42.9464 93.9265 43.5101 94.2915 43.9859 94.7562C44.4616 95.2209 44.8398 95.7758 45.0984 96.3886C45.3569 97.0013 45.4905 97.6594 45.4915 98.3245ZM40.4201 100.816C40.7439 100.821 41.0654 100.76 41.3655 100.638C41.6655 100.516 41.9381 100.335 42.1672 100.106C42.3962 99.8773 42.577 99.6047 42.6989 99.3046C42.8208 99.0046 42.8813 98.6831 42.8769 98.3593C42.8769 97.0714 41.7509 95.9147 40.4876 95.9024C39.8492 95.9012 39.2359 96.1511 38.7801 96.5981C38.3243 97.0451 38.0625 97.6534 38.0512 98.2917C38.0164 99.7187 39.0237 100.794 40.4201 100.816Z" fill="white"/>
<path d="M58.9878 98.3066C58.9908 97.649 59.1239 96.9986 59.3795 96.3927C59.6352 95.7869 60.0083 95.2377 60.4773 94.7769C60.9463 94.3161 61.502 93.9527 62.1122 93.7077C62.7225 93.4628 63.3751 93.3411 64.0326 93.3498C64.6983 93.3433 65.3587 93.4693 65.9752 93.7205C66.5918 93.9716 67.1522 94.343 67.6238 94.8129C68.0954 95.2828 68.4688 95.8418 68.7222 96.4574C68.9756 97.073 69.104 97.7329 69.0999 98.3987C69.0932 99.064 68.9555 99.7216 68.6946 100.334C68.4338 100.946 68.0548 101.501 67.5795 101.966C67.1042 102.432 66.5418 102.799 65.9244 103.047C65.307 103.296 64.6468 103.42 63.9814 103.413C63.3176 103.408 62.6613 103.271 62.0504 103.012C61.4395 102.752 60.886 102.374 60.4218 101.899C59.9577 101.424 59.592 100.863 59.3459 100.246C59.0998 99.6295 58.9781 98.9703 58.9878 98.3066ZM64.0142 100.819C64.6638 100.814 65.286 100.556 65.7486 100.1C66.2112 99.6441 66.4777 99.0256 66.4916 98.3762C66.4785 97.7426 66.2266 97.1373 65.7861 96.6817C65.3457 96.2261 64.7493 95.9538 64.1166 95.9193C63.4659 95.9159 62.8391 96.1641 62.3671 96.6121C61.8952 97.06 61.6146 97.673 61.5839 98.3229C61.5868 98.9727 61.8418 99.596 62.2951 100.062C62.7484 100.527 63.3647 100.799 64.0142 100.819Z" fill="white"/>
<path d="M22.9964 15.8155C21.5407 17.044 20.1157 18.0451 18.9486 19.2818C13.6398 24.9121 11.7828 31.5784 13.5005 39.1149C15.5479 48.1562 23.7375 54.9003 32.9958 55.3876C33.4729 55.4142 34.0195 55.32 34.4085 55.5125C34.7975 55.7049 35.4015 56.184 35.4179 56.5566C35.5162 58.8354 35.5469 61.1223 35.4609 63.4011C35.3933 65.2028 35.0944 65.428 33.2456 65.3543C23.7825 64.9817 15.9492 61.1694 9.98106 53.8459C3.63414 46.0658 1.58675 37.092 3.70989 27.3198C5.7102 18.084 11.0928 11.2212 19.311 6.59406C20.001 6.20506 20.1607 5.84471 19.8823 5.16088C19.6775 4.65723 19.5485 4.12286 19.3725 3.60692C19.0203 2.58322 19.352 1.76427 20.2037 1.20328C21.0227 0.662768 21.8027 0.828602 22.55 1.44077C24.7428 3.23224 26.9355 5.02167 29.159 6.764C30.1704 7.55839 30.5205 8.46743 30.1172 9.71839C29.247 12.4087 28.424 15.1153 27.5948 17.8199C27.2959 18.7965 26.7308 19.4681 25.6559 19.4783C24.581 19.4886 23.9996 18.8354 23.7191 17.8404C23.5594 17.2671 23.3178 16.7082 22.9964 15.8155ZM22.6565 4.96434C22.6974 5.33287 22.7015 5.45981 22.7281 5.57856C23.1376 7.42122 23.0537 7.62596 21.3892 8.44491C17.3406 10.4553 13.834 13.4085 11.1645 17.0562C6.738 23.0797 4.9281 29.8218 5.71225 37.2067C6.44317 44.1064 9.37094 49.9988 14.3952 54.8143C19.309 59.511 25.183 62.101 31.9435 62.7295C32.8034 62.8094 33.0511 62.4286 33.0163 61.6833C32.9815 60.9688 32.8853 60.2501 32.9119 59.5417C32.9631 58.084 32.9876 58.0901 31.6159 57.9038C31.2453 57.8567 30.8768 57.7789 30.5062 57.7216C23.9811 56.6836 18.6661 53.5019 14.8866 48.1562C9.48969 40.5214 8.79563 32.2643 12.6877 23.7451C14.8191 19.077 18.2689 15.5555 22.7916 13.0986C24.063 12.4107 24.839 12.767 25.3079 14.1223C25.3877 14.3537 25.5126 14.5728 25.6989 14.9986C26.1391 13.6576 26.5404 12.5417 26.8721 11.4075C27.7627 8.35892 27.992 9.27411 25.6436 7.32908C25.2239 6.97898 24.8062 6.63092 24.3763 6.2931C23.8665 5.88157 23.3403 5.49052 22.6565 4.96434Z" fill="#EB9F2D"/>
<path d="M35.5222 34.4625C37.4816 34.4625 39.312 34.4502 41.1444 34.4625C42.2029 34.4625 42.7577 34.9498 42.6984 35.7974C42.6472 36.5119 42.336 37.0565 41.5109 37.0565C39.054 37.0565 36.5971 37.0729 34.1402 37.032C33.1063 37.0135 32.8954 36.254 32.8975 35.3941C32.9098 31.6432 32.9227 27.8938 32.9364 24.1457C32.9364 23.0892 32.922 22.0307 32.9364 20.9742C32.9507 19.9178 33.4134 19.3179 34.1894 19.2954C35.0227 19.2708 35.5591 19.881 35.557 20.964C35.557 25.0588 35.5263 29.1536 35.5079 33.2361C35.5202 33.6026 35.5222 33.9691 35.5222 34.4625Z" fill="#EB9F2D"/>
<path d="M63.5507 125.087C64.7791 123.859 65.899 122.718 67.021 121.592C67.2955 121.29 67.5933 121.01 67.9116 120.755C68.5259 120.311 69.1606 120.346 69.6642 120.89C70.1351 121.394 70.1761 122.055 69.6929 122.559C67.9731 124.348 66.2328 126.117 64.4515 127.845C63.8926 128.39 63.2026 128.32 62.6253 127.757C61.5545 126.713 60.4796 125.673 59.4272 124.608C58.8335 124.006 58.7864 123.318 59.3965 122.714C60.0066 122.11 60.6987 122.213 61.2924 122.788C62.0459 123.517 62.7604 124.279 63.5507 125.087Z" fill="#EB9F2D"/>
<path d="M39.9376 112.25C41.3707 110.729 42.5582 109.47 43.7498 108.215C43.9354 108.013 44.1412 107.83 44.364 107.67C44.9782 107.238 45.5925 107.261 46.1125 107.824C46.6325 108.387 46.5609 109.032 46.0552 109.56C44.7367 110.938 43.3772 112.277 42.0464 113.655C40.5682 115.176 40.2262 116.085 38.0294 113.685C37.3415 112.934 36.5696 112.252 35.8673 111.515C35.3289 110.95 35.2245 110.274 35.7732 109.672C36.3689 109.032 37.1183 109.132 37.6875 109.685C38.4286 110.416 39.0736 111.255 39.9376 112.25Z" fill="#EB9F2D"/>
<path d="M63.4951 112.141L66.8365 108.661C66.9777 108.513 67.1149 108.36 67.2623 108.218C68.2532 107.271 69.0374 107.121 69.6516 107.758C70.2658 108.395 70.0918 109.128 69.1029 110.123C67.6698 111.576 66.2366 113.036 64.7747 114.475C63.9025 115.337 63.2945 115.315 62.4264 114.457C61.4559 113.499 60.4629 112.565 59.5211 111.591C58.827 110.864 58.7963 110.133 59.3962 109.627C60.0964 109.037 60.7782 109.15 61.3801 109.799C62.0476 110.52 62.7007 111.259 63.4951 112.141Z" fill="#EB9F2D"/>
<path d="M15.4852 112.755L18.761 109.479C19.0271 109.215 19.281 108.937 19.5615 108.691C20.2453 108.093 21.1073 108.036 21.568 108.599C22.1064 109.262 21.9774 109.95 21.4226 110.532C20.3395 111.66 19.2237 112.757 18.1242 113.869C17.6226 114.377 17.1517 114.919 16.6174 115.39C15.7411 116.162 15.1596 116.141 14.3243 115.331C13.3006 114.34 12.3035 113.316 11.288 112.315C10.6287 111.668 10.7618 111.031 11.333 110.446C11.9043 109.86 12.5041 109.971 13.0549 110.47C13.8657 111.191 14.6396 111.948 15.4852 112.755Z" fill="#EB9F2D"/>
<path d="M15.304 99.2591C16.6205 97.9303 17.6667 96.8677 18.7211 95.8113C19.0569 95.4755 19.3967 95.1397 19.7571 94.8306C20.3344 94.3351 20.9405 94.331 21.4933 94.8572C22.0461 95.3833 22.0665 96.0201 21.5895 96.5934C21.1125 97.1666 20.5658 97.6764 20.0376 98.2108C18.9443 99.3287 17.8551 100.463 16.7515 101.562C15.8322 102.488 15.1689 102.471 14.2394 101.544C13.3098 100.616 12.3496 99.6849 11.4201 98.7411C10.8243 98.1392 10.6011 97.4717 11.2788 96.7776C11.848 96.1941 12.6096 96.2556 13.3262 97.0008C13.9957 97.6826 14.5895 98.4237 15.304 99.2591Z" fill="#EB9F2D"/>
</svg>
