<svg width="158" height="157" viewBox="0 0 158 157" fill="none" xmlns="http://www.w3.org/2000/svg">
<path d="M94.1258 69.5526L94.1832 69.1426C94.5419 66.9389 93.9782 65.5367 91.7109 64.3744C86.6884 61.8016 82.9779 57.7139 80.6061 52.5766C79.6262 50.459 79.0337 48.1487 78.4228 45.8834C78.1891 45.0245 77.9329 44.5878 77.0206 44.3726C71.2437 43.0052 68.1687 37.2939 70.2905 31.7569C71.4856 28.6389 73.9005 26.759 77.1272 25.98C77.8509 25.8037 78.101 25.4921 78.224 24.7849C79.6221 16.7059 83.7179 10.2873 90.4624 5.67689C94.3381 2.98789 98.8912 1.44156 103.603 1.21406C109.841 0.931165 116.098 1.00907 122.346 0.972166C123.781 0.972166 125.226 0.943468 126.635 1.14027C130.269 1.65277 132.864 4.6929 132.881 8.38288C132.907 13.8154 132.907 19.2479 132.881 24.6803C132.881 25.4696 133.086 25.7853 133.877 25.9821C139.855 27.4622 142.969 33.442 140.591 38.9401C139.318 41.8839 137.022 43.7289 133.871 44.4074C133.092 44.5755 132.77 44.8646 132.623 45.6969C131.251 53.3905 127.065 59.276 120.614 63.4908C118.888 64.6204 118.457 65.8934 118.611 67.6707C118.777 69.5793 118.795 69.5362 120.702 69.7986C131.239 71.25 138.898 76.7071 143.565 86.299C143.641 86.4528 143.707 86.6106 143.77 86.7685C144.59 88.7631 144.59 88.7549 146.811 88.7652C148.246 88.7652 149.681 88.8267 151.116 88.8185C154.613 88.798 157.827 91.9816 157.676 96.1349C157.606 97.9799 157.655 99.8249 157.655 101.67C157.655 117.352 157.583 133.035 157.702 148.719C157.735 152.909 154.594 156.304 150.146 156.284C133.541 156.175 116.936 156.241 100.331 156.243H63.9478C60.3337 156.243 57.929 154.56 56.8364 151.206C56.6657 150.653 56.58 150.077 56.5822 149.498C56.5555 146.526 56.5617 143.553 56.5678 140.581C56.5678 139.455 57.025 138.849 57.8347 138.83C58.6957 138.812 59.1816 139.431 59.1877 140.622C59.2021 143.357 59.3128 146.095 59.1672 148.822C59.0217 151.548 61.1373 153.697 63.9949 153.682C78.1748 153.613 92.3546 153.65 106.534 153.65C121.089 153.65 135.644 153.611 150.199 153.686C152.918 153.701 155.103 151.723 155.086 148.766C155 132.844 155.047 116.922 155.05 101.002C155.05 99.2263 155.064 97.451 155.037 95.6716C155.002 93.3264 153.397 91.6065 151.07 91.3666C150.66 91.3256 150.25 91.3359 149.84 91.3359H87.8261C87.4838 91.3572 87.1402 91.3421 86.8011 91.2908C86.4916 91.245 86.2112 91.0829 86.017 90.8377C85.8228 90.5924 85.7293 90.2823 85.7556 89.9706C85.77 89.2305 86.223 88.8554 86.9221 88.7939C87.4653 88.7447 88.0147 88.7529 88.5621 88.7529H141.61C141.531 88.399 141.429 88.0505 141.306 87.7094C138.742 81.8751 134.554 77.6153 128.838 74.817C126.013 73.4333 123.025 72.685 119.921 72.2976C119.101 72.1951 118.691 72.3119 118.455 73.2877C117.77 76.1577 115.669 77.8982 113.125 78.9703C107.928 81.1494 102.795 81.0019 97.9551 77.89C96.1327 76.7174 94.7674 75.0958 94.3779 72.8736C94.2467 72.1254 93.7957 72.2422 93.3345 72.2853C90.5435 72.5525 87.8058 73.2216 85.2062 74.2717C84.7429 74.4562 83.9906 74.323 83.5662 74.0442C83.2874 73.8638 83.1829 73.0889 83.3223 72.6953C83.4617 72.3017 83.9742 72.029 84.3883 71.8527C87.3488 70.5938 90.4997 69.8412 93.7096 69.6264C93.8496 69.6098 93.9886 69.5852 94.1258 69.5526ZM132.893 28.6327C132.893 29.4527 132.893 30.244 132.893 31.0251C132.871 34.7663 130.023 37.7613 126.471 37.7675C122.781 37.7675 119.911 34.8852 119.9 31.0886C119.884 27.946 119.9 24.8033 119.89 21.6586C119.89 21.2978 119.859 20.9371 119.835 20.3651C110.712 25.324 101.18 26.4044 91.1348 24.4651C91.1348 24.9571 91.1348 25.3261 91.1348 25.6951C91.1348 27.5688 91.1656 29.4445 91.1082 31.3162C91.0139 34.3358 88.8532 36.9721 86.0057 37.6158C82.0595 38.5075 78.2424 35.5186 78.1071 31.4146C78.0764 30.4777 78.1071 29.5409 78.1071 28.5118C77.7696 28.5504 77.4343 28.6065 77.1026 28.6799C73.1584 29.8197 71.0961 34.5265 72.9575 38.1918C74.1875 40.6272 76.2519 41.8818 78.9353 42.054C80.0751 42.1258 80.643 42.5727 80.6963 43.694C80.7086 43.9646 80.7803 44.2332 80.8152 44.5038C81.3052 48.2495 82.7284 51.8121 84.9541 54.8644C89.4128 61.0144 95.4439 64.606 103.051 65.383C109.595 66.0492 115.556 64.3846 120.741 60.3912C126.159 56.2195 129.459 50.7152 130.308 43.8416C130.493 42.3472 130.665 42.2016 132.153 42.0807C136.431 41.7383 139.355 38.077 138.662 33.9524C138.162 31.1112 135.206 28.5528 132.893 28.6368V28.6327ZM130.296 19.7583C130.296 16.0341 130.296 12.3093 130.296 8.58379C130.296 6.03155 128.609 4.0738 126.095 3.6843C125.86 3.64037 125.621 3.61364 125.382 3.60435C118.279 3.64945 111.167 3.52235 104.072 3.80935C99.1044 3.98091 94.3257 5.75745 90.4522 8.87284C83.2895 14.6251 80.0116 22.1732 80.6696 31.3715C80.8582 34.0365 83.4412 35.7749 85.8561 34.9241C87.3362 34.4014 88.4575 32.8537 88.4903 31.1153C88.5395 28.4175 88.5047 25.7197 88.5313 23.0219C88.5457 21.6915 89.1607 21.2405 90.4399 21.5172C91.8052 21.8124 93.1664 22.1568 94.5399 22.3372C103.172 23.5303 111.338 22.1609 118.955 17.8272C119.632 17.4418 119.927 17.0072 119.906 16.2057C119.868 14.6887 120.222 14.1823 121.155 14.1721C122.088 14.1618 122.451 14.7133 122.453 16.179C122.453 21.1339 122.453 26.0887 122.453 31.0435C122.453 32.9398 123.703 34.5756 125.419 34.9979C127.969 35.6252 130.245 33.7987 130.271 31.0292C130.322 27.2797 130.296 23.52 130.296 19.7624V19.7583ZM96.7354 66.7257C96.8379 68.8987 96.7579 70.8564 97.0941 72.7383C97.2602 73.6752 98.0064 74.7289 98.8018 75.2967C103.131 78.4004 107.795 78.5952 112.537 76.3463C114.365 75.4792 115.893 74.1549 116.022 71.9019C116.128 70.1676 116.12 68.4169 116.145 66.6847C116.145 66.5084 116.022 66.33 115.929 66.084C112.943 67.3136 109.76 68.0009 106.532 68.1135C103.21 68.2326 99.8936 67.7627 96.7354 66.7257Z" fill="white"/>
<path d="M73.0636 72.8185C74.0394 72.8185 74.9598 72.8185 75.8803 72.8185C79.5949 72.8574 82.3008 75.5162 82.307 79.2308C82.3193 85.5141 82.2558 91.7973 82.2578 98.0908C82.2578 108.477 82.2756 118.864 82.3111 129.251C82.3111 133.351 79.7158 135.999 75.6179 136.001C67.7602 136.001 59.9006 136.022 52.0429 136.001C46.756 135.987 41.4691 135.872 36.1821 135.878C26.4857 135.878 16.7913 135.964 7.09479 135.995C2.93125 136.007 0.41592 133.47 0.41797 129.279C0.42617 118.824 0.438468 108.369 0.454868 97.9145C0.454868 91.8342 0.426159 85.7539 0.420009 79.6695C0.420009 75.3645 3.0235 72.7795 7.30184 72.8C10.4445 72.8144 13.5892 72.7713 16.7318 72.8267C17.5908 72.8431 17.8983 72.5848 18.0561 71.7381C18.788 67.8185 22.4287 65.5574 26.1761 66.7587C28.4988 67.5028 29.8948 69.2474 30.3622 71.6254C30.5426 72.5458 30.8706 72.841 31.8157 72.8349C39.7081 72.7939 47.6006 72.8041 55.4931 72.8C56.7559 72.8 58.0187 72.7795 59.2794 72.8C59.9539 72.8185 60.2614 72.6709 60.3905 71.8857C61.0998 67.6217 65.4253 65.2089 69.1788 66.9657C71.0382 67.839 72.2087 69.3622 72.7602 71.3425C72.875 71.7709 72.9385 72.2178 73.0636 72.8185ZM41.4342 87.193H4.34986C3.00916 87.193 3.00506 87.193 3.00506 88.5522C3.00506 93.2631 3.00506 97.9732 3.00506 102.683C3.00506 111.566 3.00506 120.449 3.00506 129.333C3.00506 131.998 4.40931 133.392 7.03945 133.4C17.6994 133.426 28.3539 133.45 39.0029 133.472C43.7179 133.472 48.4329 133.412 53.1356 133.404C60.6181 133.392 68.0992 133.392 75.5789 133.404C78.2439 133.404 79.7056 131.955 79.7076 129.29C79.7076 115.623 79.7076 101.962 79.7076 88.3062C79.7076 87.4698 79.478 87.1746 78.6109 87.1889C75.6753 87.2361 72.7397 87.2115 69.7959 87.2115L41.4342 87.193ZM17.8122 75.465C13.8967 75.465 10.1083 75.4035 6.3322 75.4896C4.41955 75.5347 3.09935 77.0456 3.03375 79.0156C2.98455 80.5182 3.0686 82.025 2.9989 83.5256C2.9579 84.4194 3.32076 84.6244 4.13256 84.6121C6.79755 84.5752 9.46254 84.5977 12.1275 84.5977H67.1514C70.9746 84.5977 74.7999 84.5711 78.6314 84.5977C79.4739 84.5977 79.7855 84.3456 79.7507 83.4887C79.6953 82.1603 79.7507 80.8237 79.7363 79.4932C79.7138 76.9471 78.1988 75.4384 75.6363 75.4302C71.8438 75.4302 68.0514 75.4302 64.263 75.4302H62.9735V79.28H63.7587C64.714 79.28 65.6734 79.2329 66.6287 79.28C67.4035 79.3272 67.9263 79.7761 67.8935 80.6002C67.8627 81.3792 67.4343 81.8774 66.5958 81.8794C63.2851 81.8794 59.9723 81.8979 56.6616 81.8651C56.2946 81.8651 55.7842 81.6929 55.6017 81.4243C55.3721 81.0861 55.1917 80.4239 55.3824 80.1554C55.7021 79.7085 56.1841 79.4045 56.7251 79.3087C57.8608 79.1857 59.015 79.2698 60.2819 79.2698C60.2819 78.581 60.2819 78.0398 60.2819 77.5027C60.2819 75.4117 60.2819 75.4117 58.1991 75.4117H21.5165H20.4915C20.4915 76.492 20.5223 77.4473 20.4813 78.3965C20.4526 79.0853 20.7437 79.2862 21.3915 79.2636C22.3468 79.2288 23.3061 79.2267 24.2614 79.2862C25.0384 79.3333 25.596 79.8192 25.5591 80.5961C25.5626 80.7698 25.53 80.9424 25.4632 81.1028C25.3965 81.2631 25.2971 81.4079 25.1714 81.5278C25.0457 81.6477 24.8964 81.7402 24.7331 81.7993C24.5697 81.8584 24.3958 81.8829 24.2225 81.8712C20.8749 81.8712 17.5293 81.8507 14.1775 81.8138C13.8659 81.8138 13.419 81.7011 13.2796 81.4858C13.05 81.1271 12.7979 80.5141 12.9578 80.2374C13.1997 79.813 13.7573 79.3661 14.2247 79.3149C15.3932 79.1837 16.5842 79.2718 17.8409 79.2718L17.8122 75.465ZM27.8817 72.7324C27.5865 70.3462 25.8317 68.7861 23.8904 69.0301C21.9962 69.2699 20.4505 71.035 20.6945 72.7324H27.8817ZM62.9674 72.7324H70.251C70.0808 70.6188 68.5639 69.0547 66.6963 68.9993C64.8288 68.944 63.2339 70.4917 62.9735 72.7365L62.9674 72.7324Z" fill="white"/>
<path d="M96.7578 122.55C96.7435 116.713 101.268 112.164 107.112 112.138C108.472 112.134 109.819 112.398 111.076 112.915C112.334 113.433 113.477 114.193 114.44 115.153C115.403 116.113 116.167 117.253 116.688 118.508C117.21 119.764 117.479 121.11 117.479 122.47C117.49 123.83 117.232 125.18 116.72 126.441C116.209 127.702 115.453 128.849 114.498 129.818C113.542 130.786 112.405 131.557 111.151 132.086C109.897 132.614 108.551 132.89 107.19 132.898C101.352 132.898 96.7742 128.363 96.7578 122.55ZM107.067 130.286C111.358 130.286 114.874 126.826 114.87 122.597C114.87 118.23 111.438 114.745 107.137 114.731C102.752 114.717 99.347 118.177 99.347 122.628C99.3593 126.824 102.844 130.282 107.067 130.286Z" fill="white"/>
<circle cx="64.9465" cy="121.321" r="3.19001" stroke="white" stroke-width="1.65354"/>
<circle cx="35.8223" cy="31.6133" r="26.3008" stroke="#2B63B5" stroke-width="2.48032"/>
<path d="M35.9406 32.5718C37.9025 32.5718 39.7352 32.5595 41.5699 32.5718C42.6297 32.5718 43.1853 33.0597 43.1258 33.9084C43.0746 34.6239 42.763 35.1692 41.9368 35.1692C39.4768 35.1692 37.0169 35.1856 34.5569 35.1446C33.5216 35.1261 33.3105 34.3656 33.3125 33.5046C33.3248 29.749 33.3378 25.9948 33.3515 22.2419C33.3515 21.1841 33.3371 20.1243 33.3515 19.0665C33.3658 18.0087 33.8291 17.408 34.6061 17.3855C35.4404 17.3609 35.9775 17.9718 35.9755 19.0562C35.9755 23.1562 35.9447 27.2562 35.9263 31.3439C35.9386 31.7108 35.9406 32.0778 35.9406 32.5718Z" fill="#2B63B5"/>
<path d="M40.3583 110.456C41.7933 108.933 42.9823 107.672 44.1754 106.415C44.3613 106.213 44.5674 106.03 44.7904 105.87C45.4054 105.437 46.0204 105.46 46.5411 106.024C47.0618 106.587 46.9901 107.233 46.4837 107.762C45.1635 109.142 43.8023 110.482 42.4698 111.862C40.9897 113.385 40.6474 114.295 38.4478 111.893C37.759 111.141 36.9861 110.458 36.283 109.72C35.7438 109.154 35.6393 108.478 36.1887 107.875C36.7852 107.233 37.5355 107.334 38.1054 107.887C38.8475 108.619 39.4933 109.46 40.3583 110.456Z" fill="#2B63B5"/>
<path d="M40.3583 97.489C41.7933 95.9659 42.9823 94.7051 44.1754 93.4485C44.3613 93.2462 44.5674 93.0635 44.7904 92.9032C45.4054 92.4706 46.0204 92.4932 46.5411 93.0569C47.0618 93.6207 46.9901 94.2664 46.4837 94.7953C45.1635 96.175 43.8023 97.5157 42.4698 98.8953C40.9897 100.418 40.6474 101.329 38.4478 98.9261C37.759 98.1737 36.9861 97.4911 36.283 96.7531C35.7438 96.1873 35.6393 95.5108 36.1887 94.9081C36.7852 94.2664 37.5355 94.3669 38.1054 94.9204C38.8475 95.6522 39.4933 96.4927 40.3583 97.489Z" fill="#2B63B5"/>
<path d="M40.3583 123.106C41.7933 121.583 42.9823 120.322 44.1754 119.066C44.3613 118.863 44.5674 118.681 44.7904 118.52C45.4054 118.088 46.0204 118.11 46.5411 118.674C47.0618 119.238 46.9901 119.884 46.4837 120.413C45.1635 121.792 43.8023 123.133 42.4698 124.512C40.9897 126.036 40.6474 126.946 38.4478 124.543C37.759 123.791 36.9861 123.108 36.283 122.37C35.7438 121.804 35.6393 121.128 36.1887 120.525C36.7852 119.884 37.5355 119.984 38.1054 120.538C38.8475 121.269 39.4933 122.11 40.3583 123.106Z" fill="#2B63B5"/>
<path d="M63.9491 110.348L67.2947 106.863C67.4361 106.715 67.5735 106.561 67.7211 106.42C68.7133 105.471 69.4984 105.321 70.1134 105.959C70.7284 106.596 70.5542 107.33 69.564 108.326C68.129 109.782 66.694 111.244 65.2303 112.685C64.357 113.548 63.7482 113.525 62.879 112.666C61.9073 111.707 60.913 110.772 59.9701 109.796C59.2751 109.069 59.2444 108.337 59.845 107.83C60.5461 107.24 61.2288 107.353 61.8314 108.003C62.4997 108.724 63.1537 109.464 63.9491 110.348Z" fill="#2B63B5"/>
<path d="M63.9491 97.381L67.2947 93.896C67.4361 93.7484 67.5735 93.5946 67.7211 93.4532C68.7133 92.504 69.4984 92.3544 70.1134 92.9919C70.7284 93.6295 70.5542 94.3634 69.564 95.3597C68.129 96.8152 66.694 98.2768 65.2303 99.718C64.357 100.581 63.7482 100.558 62.879 99.6995C61.9073 98.7401 60.913 97.8053 59.9701 96.8295C59.2751 96.1018 59.2444 95.3699 59.845 94.8636C60.5461 94.2732 61.2288 94.3859 61.8314 95.0358C62.4997 95.7574 63.1537 96.4974 63.9491 97.381Z" fill="#2B63B5"/>
<path d="M15.8768 110.963L19.1568 107.683C19.4233 107.419 19.6775 107.14 19.9583 106.894C20.643 106.295 21.5061 106.238 21.9673 106.802C22.5065 107.466 22.3773 108.155 21.8218 108.737C20.7373 109.866 19.6201 110.965 18.5192 112.078C18.017 112.587 17.5455 113.13 17.0104 113.602C16.133 114.374 15.5508 114.354 14.7144 113.542C13.6894 112.55 12.6911 111.525 11.6743 110.522C11.0142 109.875 11.1474 109.237 11.7194 108.651C12.2913 108.065 12.892 108.175 13.4434 108.675C14.2552 109.397 15.0301 110.156 15.8768 110.963Z" fill="#2B63B5"/>
<path d="M15.8768 97.9964L19.1568 94.7164C19.4233 94.452 19.6775 94.1732 19.9583 93.9272C20.643 93.3286 21.5061 93.2712 21.9673 93.8349C22.5065 94.4991 22.3773 95.1879 21.8218 95.7701C20.7373 96.8997 19.6201 97.9984 18.5192 99.1116C18.017 99.62 17.5455 100.163 17.0104 100.635C16.133 101.408 15.5508 101.387 14.7144 100.575C13.6894 99.5831 12.6911 98.5581 11.6743 97.5557C11.0142 96.9079 11.1474 96.2703 11.7194 95.684C12.2913 95.0977 12.892 95.2084 13.4434 95.7086C14.2552 96.4302 15.0301 97.1887 15.8768 97.9964Z" fill="#2B63B5"/>
<path d="M15.8768 123.614L19.1568 120.334C19.4233 120.069 19.6775 119.79 19.9583 119.544C20.643 118.946 21.5061 118.888 21.9673 119.452C22.5065 120.116 22.3773 120.805 21.8218 121.387C20.7373 122.517 19.6201 123.616 18.5192 124.729C18.017 125.237 17.5455 125.78 17.0104 126.252C16.133 127.025 15.5508 127.004 14.7144 126.192C13.6894 125.2 12.6911 124.175 11.6743 123.173C11.0142 122.525 11.1474 121.887 11.7194 121.301C12.2913 120.715 12.892 120.826 13.4434 121.326C14.2552 122.047 15.0301 122.806 15.8768 123.614Z" fill="#2B63B5"/>
</svg>
