<svg width="158" height="158" viewBox="0 0 158 158" fill="none" xmlns="http://www.w3.org/2000/svg">
<path d="M93.9649 71.1649L94.0222 70.7554C94.3805 68.5545 93.8174 67.1541 91.553 65.9932C86.5369 63.4237 82.8311 59.3412 80.4623 54.2104C79.4836 52.0955 78.8919 49.7881 78.2818 47.5257C78.0484 46.6678 77.7925 46.2317 76.8814 46.0168C71.1118 44.6512 68.0407 38.9471 70.1598 33.4171C71.3534 30.303 73.7653 28.4255 76.9879 27.6475C77.7106 27.4715 77.9604 27.1603 78.0832 26.4539C79.4795 18.3851 83.5702 11.9747 90.3062 7.37014C94.1769 4.68455 98.7242 3.14018 103.43 2.91297C109.66 2.63043 115.909 2.70824 122.149 2.67138C123.582 2.67138 125.026 2.64272 126.432 2.83927C130.062 3.35112 132.654 6.3874 132.671 10.0727C132.697 15.4983 132.697 20.9239 132.671 26.3495C132.671 27.1377 132.876 27.453 133.666 27.6496C139.636 29.1278 142.746 35.1001 140.371 40.5912C139.1 43.5312 136.807 45.3739 133.66 46.0516C132.882 46.2194 132.56 46.5081 132.413 47.3394C131.043 55.0232 126.862 60.9013 120.419 65.1108C118.695 66.2389 118.265 67.5103 118.419 69.2854C118.585 71.1915 118.603 71.1485 120.507 71.4106C131.031 72.8601 138.68 78.3103 143.342 87.8901C143.418 88.0436 143.483 88.2013 143.547 88.3589C144.366 90.351 144.366 90.3428 146.583 90.3531C148.016 90.3531 149.449 90.4145 150.882 90.4063C154.375 90.3858 157.586 93.5654 157.434 97.7135C157.364 99.5561 157.414 101.399 157.414 103.241C157.414 118.904 157.342 134.567 157.461 150.231C157.493 154.416 154.357 157.807 149.914 157.786C133.33 157.678 116.746 157.743 100.162 157.745H63.8252C60.2156 157.745 57.814 156.064 56.7227 152.715C56.5522 152.162 56.4666 151.587 56.4689 151.009C56.4423 148.04 56.4484 145.072 56.4545 142.103C56.4545 140.979 56.9111 140.373 57.7198 140.355C58.5797 140.336 59.065 140.954 59.0711 142.144C59.0854 144.875 59.196 147.611 59.0506 150.334C58.9053 153.057 61.0182 155.202 63.8722 155.188C78.0341 155.118 92.1959 155.155 106.358 155.155C120.894 155.155 135.431 155.116 149.967 155.192C152.682 155.206 154.865 153.231 154.848 150.278C154.762 134.376 154.809 118.474 154.811 102.574C154.811 100.801 154.826 99.0279 154.799 97.2508C154.764 94.9085 153.161 93.1908 150.837 92.9512C150.428 92.9103 150.018 92.9205 149.609 92.9205H87.6732C87.3313 92.9419 86.9882 92.9268 86.6495 92.8755C86.3404 92.8297 86.0604 92.6679 85.8664 92.4229C85.6724 92.178 85.5791 91.8683 85.6053 91.5569C85.6197 90.8178 86.0721 90.4432 86.7703 90.3817C87.3129 90.3326 87.8616 90.3408 88.4082 90.3408H141.389C141.31 89.9874 141.209 89.6393 141.086 89.2987C138.524 83.4718 134.342 79.2173 128.633 76.4226C125.812 75.0406 122.827 74.2933 119.727 73.9064C118.908 73.804 118.499 73.9207 118.263 74.8952C117.579 77.7616 115.481 79.4998 112.94 80.5706C107.75 82.747 102.623 82.5996 97.7894 79.4917C95.9692 78.3205 94.6057 76.701 94.2167 74.4817C94.0856 73.7344 93.6352 73.8511 93.1745 73.8941C90.3872 74.161 87.653 74.8292 85.0566 75.878C84.5939 76.0623 83.8425 75.9292 83.4187 75.6507C83.1403 75.4706 83.0359 74.6966 83.1751 74.3035C83.3143 73.9104 83.8262 73.6381 84.2397 73.4621C87.1965 72.2048 90.3434 71.4531 93.5492 71.2386C93.6891 71.222 93.8278 71.1974 93.9649 71.1649ZM132.683 30.2969C132.683 31.1158 132.683 31.9061 132.683 32.6862C132.661 36.4227 129.817 39.4139 126.269 39.42C122.583 39.42 119.717 36.5414 119.707 32.7496C119.69 29.611 119.707 26.4723 119.697 23.3316C119.697 22.9713 119.666 22.611 119.641 22.0397C110.53 26.9924 101.01 28.0714 90.9777 26.1345C90.9777 26.6259 90.9777 26.9944 90.9777 27.363C90.9777 29.2343 91.0084 31.1076 90.9511 32.9769C90.8569 35.9927 88.6989 38.6257 85.8551 39.2685C81.9139 40.1592 78.1016 37.1741 77.9665 33.0752C77.9358 32.1395 77.9665 31.2039 77.9665 30.1761C77.6294 30.2147 77.2946 30.2707 76.9633 30.344C73.0241 31.4823 70.9644 36.1831 72.8235 39.8439C74.0519 42.2762 76.1136 43.5292 78.7937 43.7012C79.932 43.7728 80.4991 44.2191 80.5524 45.3391C80.5647 45.6093 80.6363 45.8775 80.6711 46.1478C81.1605 49.8888 82.5819 53.4468 84.8048 56.4953C89.2579 62.6375 95.2813 66.2245 102.879 67.0005C109.414 67.6659 115.368 66.0034 120.546 62.0151C125.957 57.8487 129.254 52.3514 130.101 45.4865C130.286 43.9939 130.458 43.8486 131.944 43.7278C136.217 43.3859 139.137 39.7292 138.444 35.6098C137.945 32.7722 134.993 30.217 132.683 30.301V30.2969ZM130.089 21.4337C130.089 17.7143 130.089 13.9942 130.089 10.2734C130.089 7.72435 128.404 5.76909 125.894 5.38008C125.659 5.3362 125.421 5.30951 125.181 5.30023C118.087 5.34527 110.985 5.21833 103.899 5.50497C98.9371 5.67632 94.1646 7.4506 90.2959 10.562C83.1423 16.307 79.8685 23.8455 80.5258 33.0322C80.7141 35.6938 83.2938 37.43 85.7057 36.5803C87.1839 36.0582 88.3038 34.5125 88.3366 32.7763C88.3857 30.0819 88.3509 27.3875 88.3775 24.6932C88.3918 23.3644 89.0061 22.914 90.2836 23.1904C91.6472 23.4852 93.0067 23.8292 94.3784 24.0093C103 25.2009 111.155 23.8333 118.763 19.5051C119.439 19.1202 119.733 18.6861 119.713 17.8856C119.674 16.3705 120.028 15.8648 120.96 15.8545C121.891 15.8443 122.254 16.3951 122.256 17.859C122.256 22.8075 122.256 27.7561 122.256 32.7046C122.256 34.5984 123.505 36.2323 125.218 36.654C127.765 37.2805 130.038 35.4563 130.065 32.6903C130.116 28.9456 130.089 25.1907 130.089 21.4378V21.4337ZM96.5712 68.3415C96.6735 70.5118 96.5937 72.467 96.9295 74.3466C97.0953 75.2822 97.8406 76.3346 98.635 76.9017C102.959 80.0015 107.617 80.196 112.352 77.95C114.179 77.0839 115.704 75.7613 115.833 73.5112C115.94 71.7791 115.931 70.0306 115.956 68.3006C115.956 68.1245 115.833 67.9464 115.741 67.7007C112.758 68.9287 109.58 69.6151 106.356 69.7276C103.038 69.8465 99.7253 69.3773 96.5712 68.3415Z" fill="white"/>
<path d="M72.9305 74.4265C73.905 74.4265 74.8243 74.4265 75.7436 74.4265C79.4535 74.4654 82.156 77.1209 82.1622 80.8308C82.1744 87.106 82.111 93.3813 82.113 99.6668C82.113 110.04 82.1308 120.414 82.1663 130.787C82.1663 134.882 79.5742 137.527 75.4815 137.529C67.6338 137.529 59.7841 137.55 51.9365 137.529C46.6562 137.515 41.376 137.4 36.0958 137.406C26.4116 137.406 16.7295 137.492 7.04531 137.523C2.88705 137.535 0.374907 135.001 0.376954 130.816C0.385144 120.374 0.397427 109.932 0.413806 99.4907C0.413806 93.4181 0.385133 87.3456 0.378991 81.2689C0.378991 76.9694 2.97918 74.3876 7.2521 74.4081C10.3908 74.4224 13.5315 74.3794 16.6701 74.4347C17.528 74.4511 17.8351 74.1931 17.9927 73.3475C18.7236 69.4329 22.3598 67.1746 26.1025 68.3744C28.4222 69.1176 29.8164 70.86 30.2832 73.2349C30.4634 74.1542 30.791 74.449 31.7348 74.4429C39.6173 74.4019 47.4998 74.4122 55.3822 74.4081C56.6434 74.4081 57.9046 74.3876 59.1638 74.4081C59.8374 74.4265 60.1445 74.2791 60.2735 73.495C60.9819 69.2364 65.3019 66.8266 69.0506 68.5812C70.9076 69.4534 72.0767 70.9746 72.6274 72.9524C72.7421 73.3803 72.8056 73.8266 72.9305 74.4265ZM41.3412 88.7829H4.30385C2.96486 88.7829 2.96076 88.7829 2.96076 90.1403C2.96076 94.8452 2.96076 99.5494 2.96076 104.253C2.96076 113.125 2.96076 121.997 2.96076 130.869C2.96076 133.531 4.36323 134.923 6.99004 134.931C17.6365 134.957 28.2775 134.981 38.913 135.003C43.622 135.003 48.331 134.943 53.0277 134.935C60.5007 134.923 67.9723 134.923 75.4426 134.935C78.1042 134.935 79.564 133.488 79.5661 130.826C79.5661 117.177 79.5661 103.533 79.5661 89.8946C79.5661 89.0592 79.3368 88.7644 78.4707 88.7788C75.5388 88.8258 72.607 88.8013 69.6669 88.8013L41.3412 88.7829ZM17.7491 77.0697C13.8386 77.0697 10.055 77.0083 6.28368 77.0943C4.37346 77.1393 3.05494 78.6482 2.98942 80.6158C2.94028 82.1165 3.02423 83.6214 2.95462 85.1201C2.91367 86.0127 3.27606 86.2174 4.08683 86.2052C6.74844 86.1683 9.41006 86.1908 12.0717 86.1908H67.0258C70.8442 86.1908 74.6646 86.1642 78.4912 86.1908C79.3327 86.1908 79.6439 85.939 79.6091 85.0832C79.5538 83.7565 79.6091 82.4216 79.5947 81.0928C79.5722 78.55 78.0592 77.0431 75.4999 77.0349C71.7123 77.0349 67.9246 77.0349 64.141 77.0349H62.8532V80.8799H63.6373C64.5914 80.8799 65.5496 80.8328 66.5037 80.8799C67.2776 80.927 67.7997 81.3754 67.7669 82.1984C67.7362 82.9764 67.3083 83.4739 66.4709 83.476C63.1644 83.476 59.8558 83.4944 56.5493 83.4617C56.1828 83.4617 55.673 83.2897 55.4908 83.0215C55.2615 82.6837 55.0813 82.0223 55.2717 81.7541C55.5909 81.3078 56.0723 81.0042 56.6127 80.9086C57.747 80.7857 58.8997 80.8697 60.165 80.8697C60.165 80.1817 60.165 79.6412 60.165 79.1048C60.165 77.0165 60.165 77.0165 58.0848 77.0165H21.4487H20.425C20.425 78.0954 20.4557 79.0495 20.4148 79.9975C20.3861 80.6854 20.6769 80.886 21.3238 80.8635C22.2779 80.8287 23.2361 80.8267 24.1902 80.886C24.9662 80.9331 25.523 81.4184 25.4862 82.1943C25.4897 82.3678 25.4571 82.5401 25.3904 82.7003C25.3238 82.8605 25.2245 83.0051 25.099 83.1248C24.9734 83.2446 24.8244 83.3369 24.6612 83.396C24.4981 83.455 24.3244 83.4795 24.1513 83.4678C20.8079 83.4678 17.4666 83.4473 14.1191 83.4105C13.8079 83.4105 13.3615 83.2979 13.2223 83.0829C12.993 82.7246 12.7412 82.1124 12.9009 81.836C13.1425 81.4122 13.6993 80.9659 14.1662 80.9147C15.3332 80.7837 16.5227 80.8717 17.7778 80.8717L17.7491 77.0697ZM27.8059 74.3405C27.5111 71.9574 25.7585 70.3993 23.8196 70.6429C21.9278 70.8825 20.3841 72.6453 20.6277 74.3405H27.8059ZM62.847 74.3405H70.1214C69.9515 72.2297 68.4364 70.6675 66.5713 70.6122C64.7061 70.5569 63.1132 72.1027 62.8532 74.3446L62.847 74.3405Z" fill="white"/>
<path d="M61.8663 33.1686C62.0117 45.2769 54.7516 55.8046 43.4992 59.7847C43.0897 59.9321 42.6556 60.0468 42.2298 60.1635C41.4661 60.3682 40.858 60.184 40.5919 59.3978C40.3257 58.6116 40.7147 58.0465 41.5992 57.6861C43.1736 57.0453 44.7993 56.4864 46.2754 55.6633C53.1874 51.8163 57.5361 45.9464 58.9038 38.199C60.7362 27.8802 56.3343 18.2062 47.7455 12.666C44.5853 10.6157 40.9889 9.33391 37.2444 8.92334C36.192 8.80255 35.6924 8.33165 35.7416 7.49017C35.7948 6.6016 36.3558 6.19621 37.5064 6.3252C42.6249 6.90052 47.1804 8.82302 51.2444 11.9453C54.4893 14.4635 57.128 17.6774 58.9662 21.3503C60.8045 25.0233 61.7955 29.0619 61.8663 33.1686Z" fill="white"/>
<path d="M96.5977 124.094C96.5834 118.265 101.102 113.722 106.939 113.695C108.297 113.691 109.642 113.955 110.898 114.472C112.154 114.989 113.295 115.748 114.257 116.707C115.219 117.665 115.982 118.804 116.503 120.058C117.024 121.312 117.292 122.656 117.293 124.014C117.303 125.373 117.046 126.721 116.535 127.98C116.024 129.239 115.269 130.386 114.315 131.353C113.36 132.32 112.225 133.09 110.972 133.618C109.72 134.146 108.376 134.422 107.017 134.429C101.186 134.429 96.6141 129.9 96.5977 124.094ZM106.894 131.821C111.179 131.821 114.691 128.365 114.686 124.141C114.686 119.78 111.259 116.3 106.964 116.285C102.584 116.271 99.1836 119.727 99.1836 124.172C99.1958 128.363 102.676 131.817 106.894 131.821Z" fill="white"/>
<path d="M11.6798 124.072C11.6755 123.407 11.8025 122.748 12.0535 122.133C12.3045 121.517 12.6747 120.957 13.1426 120.485C13.6106 120.013 14.1672 119.638 14.7805 119.381C15.3937 119.125 16.0516 118.992 16.7164 118.99C19.4701 118.99 21.8185 121.312 21.8185 124.041C21.8185 126.77 19.4824 129.139 16.7491 129.123C15.4077 129.123 14.1208 128.592 13.1705 127.645C12.2202 126.698 11.6841 125.413 11.6798 124.072ZM16.7328 126.488C17.0568 126.487 17.3775 126.422 17.6763 126.297C17.9752 126.172 18.2463 125.989 18.4741 125.758C18.7019 125.528 18.8818 125.254 19.0036 124.954C19.1253 124.654 19.1865 124.332 19.1835 124.008C19.1563 123.357 18.875 122.741 18.3997 122.294C17.9244 121.847 17.293 121.604 16.6406 121.617C16.0047 121.646 15.4053 121.923 14.9701 122.387C14.5349 122.852 14.2983 123.468 14.3107 124.105C14.3296 124.736 14.5912 125.337 15.0411 125.78C15.491 126.224 16.0947 126.478 16.7266 126.488H16.7328Z" fill="white"/>
<path d="M45.8227 124.144C46.0275 126.601 43.3372 129.246 40.7043 129.178C38.2228 129.117 35.6779 126.824 35.7434 124.078C35.811 121.187 38.0181 118.974 40.9192 119.017C43.6238 119.056 45.8432 121.378 45.8227 124.144ZM43.2144 124.089C43.2198 123.773 43.1625 123.46 43.0458 123.167C42.929 122.874 42.7552 122.607 42.5345 122.381C42.3137 122.156 42.0503 121.977 41.7597 121.854C41.469 121.731 41.1569 121.668 40.8414 121.667C40.5182 121.656 40.1963 121.712 39.8953 121.83C39.5943 121.948 39.3205 122.126 39.0906 122.354C38.8607 122.581 38.6796 122.853 38.5582 123.153C38.4368 123.452 38.3777 123.774 38.3846 124.097C38.3798 124.42 38.4402 124.74 38.5624 125.039C38.6845 125.337 38.8657 125.608 39.0952 125.835C39.3246 126.062 39.5976 126.241 39.8977 126.36C40.1978 126.478 40.5188 126.535 40.8414 126.527C41.4764 126.509 42.0793 126.244 42.5223 125.789C42.9653 125.334 43.2136 124.724 43.2144 124.089Z" fill="white"/>
<path d="M45.8245 98.0913C45.8365 98.7568 45.7155 99.418 45.4686 100.036C45.2216 100.654 44.8538 101.217 44.3866 101.691C43.9194 102.165 43.3622 102.541 42.7478 102.797C42.1333 103.053 41.474 103.183 40.8084 103.181C40.1514 103.191 39.4989 103.071 38.8887 102.827C38.2786 102.584 37.7228 102.221 37.2538 101.761C36.7847 101.301 36.4116 100.752 36.1562 100.147C35.9007 99.5417 35.768 98.8917 35.7656 98.2346C35.7656 95.3273 37.8703 93.1387 40.7162 93.1018C41.3811 93.0871 42.0422 93.2052 42.6608 93.4493C43.2794 93.6933 43.8432 94.0584 44.3189 94.5231C44.7946 94.9877 45.1728 95.5427 45.4314 96.1554C45.6899 96.7681 45.8235 97.4263 45.8245 98.0913ZM40.7531 100.583C41.0769 100.587 41.3984 100.527 41.6985 100.405C41.9985 100.283 42.2711 100.102 42.5002 99.8732C42.7292 99.6442 42.91 99.3716 43.0319 99.0715C43.1538 98.7714 43.2144 98.45 43.2099 98.1261C43.2099 96.8383 42.0839 95.6815 40.8206 95.6692C40.1822 95.668 39.5689 95.9179 39.1131 96.3649C38.6573 96.8119 38.3955 97.4202 38.3842 98.0585C38.3494 99.4856 39.3568 100.56 40.7531 100.583Z" fill="white"/>
<path d="M59.3209 98.0734C59.3238 97.4159 59.4569 96.7654 59.7126 96.1596C59.9682 95.5538 60.3413 95.0046 60.8103 94.5437C61.2794 94.0829 61.835 93.7195 62.4452 93.4746C63.0555 93.2296 63.7081 93.108 64.3656 93.1166C65.0313 93.1101 65.6917 93.2361 66.3082 93.4873C66.9248 93.7385 67.4852 94.1098 67.9568 94.5797C68.4284 95.0496 68.8018 95.6087 69.0552 96.2243C69.3086 96.8399 69.437 97.4998 69.4329 98.1655C69.4263 98.8309 69.2885 99.4884 69.0277 100.101C68.7668 100.713 68.3878 101.267 67.9125 101.733C67.4372 102.199 66.8748 102.566 66.2574 102.814C65.64 103.062 64.9798 103.187 64.3145 103.18C63.6506 103.175 62.9943 103.038 62.3834 102.778C61.7725 102.519 61.219 102.14 60.7548 101.666C60.2907 101.191 59.925 100.629 59.6789 100.013C59.4328 99.3963 59.3111 98.7372 59.3209 98.0734ZM64.3472 100.586C64.9968 100.581 65.619 100.323 66.0816 99.867C66.5442 99.411 66.8107 98.7925 66.8246 98.143C66.8116 97.5094 66.5596 96.9042 66.1191 96.4486C65.6787 95.9929 65.0823 95.7206 64.4496 95.6861C63.7989 95.6828 63.1721 95.931 62.7001 96.3789C62.2282 96.8268 61.9476 97.4398 61.9169 98.0898C61.9198 98.7396 62.1748 99.3629 62.6281 99.8284C63.0814 100.294 63.6977 100.565 64.3472 100.586Z" fill="white"/>
<path d="M23.3294 15.5824C21.8737 16.8108 20.4487 17.812 19.2817 19.0486C13.9728 24.6789 12.1158 31.3453 13.8335 38.8817C15.8809 47.923 24.0705 54.6671 33.3288 55.1544C33.8059 55.181 34.3525 55.0869 34.7415 55.2793C35.1305 55.4718 35.7345 55.9508 35.7509 56.3235C35.8492 58.6022 35.8799 60.8891 35.7939 63.1679C35.7263 64.9696 35.4274 65.1948 33.5786 65.1211C24.1156 64.7485 16.2822 60.9363 10.3141 53.6127C3.96715 45.8326 1.91975 36.8589 4.0429 27.0867C6.04321 17.8509 11.4258 10.988 19.644 6.36091C20.334 5.9719 20.4937 5.61156 20.2153 4.92773C20.0105 4.42407 19.8815 3.88971 19.7055 3.37376C19.3533 2.35007 19.685 1.53111 20.5367 0.970126C21.3557 0.429614 22.1357 0.595447 22.883 1.20762C25.0758 2.99909 27.2685 4.78851 29.492 6.53084C30.5034 7.32523 30.8535 8.23427 30.4502 9.48523C29.5801 12.1755 28.757 14.8822 27.9278 17.5868C27.6289 18.5634 27.0638 19.2349 25.9889 19.2452C24.914 19.2554 24.3326 18.6023 24.0521 17.6073C23.8924 17.034 23.6508 16.475 23.3294 15.5824ZM22.9895 4.73119C23.0304 5.09972 23.0345 5.22666 23.0612 5.34541C23.4706 7.18806 23.3867 7.3928 21.7222 8.21176C17.6736 10.2221 14.167 13.1754 11.4975 16.8231C7.07101 22.8465 5.26111 29.5886 6.04526 36.9735C6.77618 43.8733 9.70395 49.7657 14.7283 54.5811C19.642 59.2779 25.516 61.8678 32.2765 62.4964C33.1364 62.5762 33.3841 62.1954 33.3493 61.4502C33.3145 60.7356 33.2183 60.017 33.2449 59.3086C33.2961 57.8508 33.3206 57.857 31.9489 57.6707C31.5783 57.6236 31.2098 57.5458 30.8392 57.4884C24.3142 56.4504 18.9991 53.2688 15.2196 47.923C9.8227 40.2883 9.12864 32.0311 13.0207 23.5119C15.1521 18.8439 18.6019 15.3224 23.1246 12.8655C24.3961 12.1776 25.172 12.5338 25.6409 13.8892C25.7207 14.1205 25.8456 14.3396 26.0319 14.7655C26.4721 13.4244 26.8734 12.3086 27.2051 11.1743C28.0957 8.12576 28.325 9.04095 25.9766 7.09593C25.5569 6.74582 25.1393 6.39777 24.7093 6.05995C24.1995 5.64842 23.6733 5.25737 22.9895 4.73119Z" fill="#2B63B5"/>
<path d="M35.8552 34.2293C37.8146 34.2293 39.645 34.217 41.4774 34.2293C42.5359 34.2293 43.0907 34.7166 43.0314 35.5642C42.9802 36.2788 42.669 36.8234 41.8439 36.8234C39.387 36.8234 36.9301 36.8398 34.4733 36.7988C33.4393 36.7804 33.2284 36.0208 33.2305 35.1609C33.2428 31.4101 33.2557 27.6606 33.2694 23.9125C33.2694 22.856 33.2551 21.7975 33.2694 20.7411C33.2837 19.6846 33.7464 19.0848 34.5224 19.0622C35.3557 19.0377 35.8921 19.6478 35.89 20.7309C35.89 24.8257 35.8593 28.9204 35.8409 33.0029C35.8532 33.3694 35.8552 33.7359 35.8552 34.2293Z" fill="#2B63B5"/>
<path d="M63.8856 124.854C65.1141 123.626 66.234 122.485 67.356 121.359C67.6305 121.057 67.9283 120.777 68.2466 120.522C68.8608 120.078 69.4955 120.112 69.9992 120.657C70.4701 121.161 70.511 121.822 70.0278 122.326C68.308 124.115 66.5677 125.884 64.7865 127.612C64.2276 128.157 63.5376 128.087 62.9602 127.524C61.8894 126.48 60.8146 125.44 59.7622 124.375C59.1685 123.773 59.1214 123.085 59.7315 122.481C60.3416 121.877 61.0336 121.98 61.6274 122.555C62.3808 123.284 63.0953 124.045 63.8856 124.854Z" fill="#2B63B5"/>
<path d="M40.2706 112.017C41.7037 110.496 42.8912 109.237 44.0828 107.982C44.2684 107.78 44.4742 107.597 44.697 107.437C45.3113 107.005 45.9255 107.028 46.4455 107.591C46.9655 108.154 46.8939 108.798 46.3882 109.327C45.0697 110.705 43.7102 112.044 42.3794 113.422C40.9012 114.943 40.5592 115.852 38.3624 113.452C37.6745 112.701 36.9026 112.019 36.2003 111.282C35.6619 110.717 35.5575 110.041 36.1062 109.439C36.702 108.798 37.4513 108.899 38.0205 109.452C38.7616 110.183 39.4066 111.022 40.2706 112.017Z" fill="#2B63B5"/>
<path d="M63.8281 111.908L67.1695 108.428C67.3107 108.28 67.4479 108.127 67.5953 107.985C68.5863 107.037 69.3704 106.888 69.9846 107.525C70.5989 108.161 70.4248 108.894 69.4359 109.889C68.0028 111.343 66.5696 112.803 65.1077 114.242C64.2355 115.104 63.6275 115.082 62.7594 114.224C61.7889 113.266 60.7959 112.332 59.8541 111.357C59.1601 110.631 59.1293 109.9 59.7292 109.394C60.4294 108.804 61.1112 108.917 61.7132 109.566C62.3806 110.287 63.0337 111.026 63.8281 111.908Z" fill="#2B63B5"/>
<path d="M15.8201 112.522L19.0959 109.246C19.3621 108.982 19.616 108.703 19.8965 108.458C20.5803 107.86 21.4422 107.803 21.9029 108.366C22.4414 109.029 22.3124 109.717 21.7576 110.298C20.6745 111.427 19.5586 112.524 18.4592 113.636C17.9576 114.143 17.4867 114.686 16.9523 115.157C16.076 115.929 15.4946 115.908 14.6592 115.097C13.6355 114.107 12.6385 113.083 11.623 112.082C10.9637 111.435 11.0968 110.798 11.668 110.212C12.2392 109.627 12.8391 109.737 13.3899 110.237C14.2006 110.958 14.9745 111.715 15.8201 112.522Z" fill="#2B63B5"/>
<path d="M15.639 99.0259C16.9554 97.6972 18.0017 96.6346 19.0561 95.5781C19.3918 95.2423 19.7317 94.9066 20.092 94.5974C20.6694 94.1019 21.2754 94.0978 21.8282 94.624C22.381 95.1502 22.4015 95.787 21.9245 96.3602C21.4474 96.9335 20.9008 97.4433 20.3725 97.9776C19.2792 99.0955 18.19 100.23 17.0865 101.329C16.1672 102.255 15.5038 102.238 14.5743 101.311C13.6448 100.383 12.6846 99.4518 11.755 98.5079C11.1593 97.906 10.9361 97.2385 11.6138 96.5445C12.183 95.961 12.9446 96.0224 13.6612 96.7677C14.3307 97.4494 14.9244 98.1906 15.639 99.0259Z" fill="#2B63B5"/>
</svg>
