<svg width="158" height="158" viewBox="0 0 158 158" fill="none" xmlns="http://www.w3.org/2000/svg">
<path d="M157.485 47.8691C156.964 48.3239 156.509 48.9303 155.903 49.2048C154.398 49.8808 152.886 48.7213 152.869 46.8816C152.833 43.0507 152.869 39.2157 152.869 35.3807V33.4714H151.156C146.196 33.4714 141.236 33.4714 136.277 33.4714C129.374 33.4509 124.648 28.7309 124.607 21.8066C124.578 16.89 124.607 11.9733 124.607 7.08118V5.25794H57.3249C52.5823 5.25794 49.9138 7.91706 49.8851 12.6575C49.8851 14.6365 49.8851 16.6155 49.8851 18.7378C53.7587 18.7378 57.4273 18.6927 61.1001 18.7378C65.0451 18.7508 68.8706 20.0921 71.9592 22.5453C75.0479 24.9984 77.2194 28.4203 78.1234 32.2587C78.4442 33.7013 78.6159 35.1731 78.6358 36.6509C78.7137 39.1543 78.6932 41.6618 78.6358 44.1652C78.5831 45.4762 78.8652 46.7791 79.4556 47.951C80.0213 49.0941 80.1852 50.4872 80.2959 51.786C80.4312 53.3594 80.3369 54.9532 80.3205 56.5388C80.2795 61.2711 77.6438 63.9138 72.9422 64.0449C72.5323 64.0449 72.147 64.0982 71.7945 64.1228C71.319 65.8149 70.9296 67.4456 70.4008 69.0394C69.156 72.6908 66.9175 75.9229 63.9366 78.3729C63.289 78.9219 62.2314 79.4791 62.1617 80.1183C61.9691 81.9252 62.1617 83.7771 62.2806 85.6045C62.2806 85.8257 62.6905 86.1084 62.9979 86.2109C64.5269 86.7476 66.1091 87.1451 67.6012 87.7596C70.4705 88.9396 73.307 90.218 76.1436 91.4881C82.0626 94.1267 87.293 97.7036 91.3797 102.805C95.7364 108.172 98.1528 114.852 98.2374 121.763C98.3686 127.499 98.2784 133.235 98.2825 138.938V140.823H145.585C150.471 140.823 152.853 138.459 152.853 133.608C152.853 109.12 152.853 84.6321 152.853 60.1443C152.853 59.7346 152.853 59.3249 152.853 58.9152C152.792 57.6245 152.919 56.3913 154.361 55.8996C155.804 55.408 156.772 56.2192 157.485 57.4074V136.242C157.419 136.316 157.317 136.381 157.292 136.467C155.534 142.691 151.964 145.42 145.532 145.424H98.4915C98.4188 145.574 98.3611 145.73 98.3194 145.891C98.3194 146.555 98.3194 147.219 98.2825 147.882C98.1554 151.717 96.4051 154.602 93.0767 156.486C92.0748 156.967 91.0407 157.378 89.9819 157.716H8.66923C2.00009 155.028 0.413763 152.651 0.413763 145.326C0.413763 138.172 0.364571 131.014 0.442453 123.856C0.462027 121.457 0.660704 119.063 1.03682 116.694C1.81689 111.985 3.73624 107.538 6.62791 103.739C7.44772 102.669 8.45199 102.235 9.70219 102.883C10.7434 103.423 11.0754 104.378 10.8007 105.484C10.6656 105.922 10.4471 106.33 10.1572 106.685C7.28786 110.63 5.43099 115.023 5.29572 119.87C5.04158 129.269 5.05388 138.672 5.06618 148.075C5.07347 149.298 5.53149 150.476 6.3527 151.383C7.17391 152.29 8.30071 152.863 9.51773 152.992C12.0919 153.213 14.6948 153.041 17.4494 153.041V151.295C17.4494 145.928 17.4494 140.561 17.4494 135.193C17.4335 134.682 17.4486 134.17 17.4945 133.661C17.6461 132.432 18.3635 131.698 19.6014 131.633C20.9172 131.563 21.7247 132.26 21.9624 133.546C22.0369 134.052 22.0644 134.564 22.0444 135.074C22.0444 140.442 22.0444 145.809 22.0444 151.176V153.008H36.5386C36.637 152.561 36.7395 152.217 36.7928 151.865C38.8833 138.856 40.8631 125.831 43.134 112.855C43.63 110.024 43.134 107.914 41.1746 106.033C40.8085 105.656 40.3173 105.426 39.7933 105.386C36.8338 105.517 34.5752 104.317 32.7716 102.034C30.8451 99.576 28.857 97.1955 26.6722 94.5078C23.8726 96.036 21.0483 97.5397 18.261 99.113C16.6747 100.01 15.4122 99.9325 14.6128 98.7484C13.8135 97.5643 14.1538 96.2204 15.7032 95.2862C17.7527 94.0571 19.835 92.8279 21.987 91.7872C24.5489 90.5375 27.1764 89.4149 29.8162 88.3456C31.7837 87.5261 33.8414 86.9607 35.8131 86.1699C36.0267 86.0294 36.2065 85.8434 36.3398 85.6252C36.473 85.407 36.5563 85.1621 36.5837 84.908C36.6944 83.6788 36.5837 82.4497 36.6616 81.2205C36.7191 80.7735 36.6478 80.3195 36.4561 79.9116C36.2644 79.5037 35.9603 79.159 35.5794 78.9178C31.6936 76.0498 29.2095 72.2107 27.8446 67.6218C27.5002 66.4664 27.2789 65.27 26.9838 64.0285C26.373 64.0285 25.8688 64.0285 25.3441 64.0285C21.1877 63.8933 18.4782 61.1604 18.4209 57.0182C18.4004 55.3301 18.343 53.6421 18.4209 51.9581C18.4864 50.7535 18.4536 49.3605 19.0357 48.4017C20.081 46.6809 20.0113 44.9191 20.0113 43.0999C20.0113 41.461 20.0113 39.8221 20.0113 38.1832C19.9429 36.0171 20.6281 33.8944 21.9501 32.1767C22.5076 31.4679 22.2985 31.0049 22.0403 30.2756C21.282 28.1287 20.4622 25.953 20.1138 23.7201C19.6014 20.4751 21.3435 18.7091 24.6227 18.705C30.9079 18.705 37.1931 18.705 43.4783 18.705H45.2122C45.2122 16.5458 45.2122 14.6078 45.2122 12.6698C45.2491 5.2948 49.963 0.632153 57.3454 0.632153C79.3818 0.632153 101.42 0.622615 123.459 0.603494C124.836 0.564607 126.205 0.818033 127.477 1.34702C128.749 1.876 129.894 2.66851 130.837 3.67231C138.278 11.1975 145.762 18.6805 153.288 26.121C155.083 27.9033 156.739 29.7183 157.419 32.2258L157.485 47.8691ZM76.7338 153.016V145.108C76.7338 141.38 76.7133 137.647 76.7338 133.915C76.7338 132.526 77.6315 131.653 78.8817 131.6C80.1319 131.547 81.0788 132.346 81.2715 133.694C81.318 134.151 81.3317 134.611 81.3125 135.07C81.3125 140.388 81.3125 145.704 81.3125 151.017V153.065C83.6817 153.065 85.8706 153.086 88.0554 153.065C91.4125 153.028 93.6506 150.836 93.6588 147.493C93.6588 138.959 93.7367 130.42 93.6219 121.89C93.5867 115.743 91.3618 109.811 87.3462 105.156C83.4317 100.51 78.4021 97.3349 72.7742 95.0855C72.5165 95.0321 72.2498 95.0414 71.9965 95.1127C71.7432 95.184 71.5108 95.3152 71.319 95.4952C69.458 97.6667 67.6708 99.9038 65.8919 102.141C64.1129 104.378 61.9527 105.497 59.1284 105.419C58.8784 105.419 58.5095 105.333 58.3906 105.46C57.3741 106.599 56.2673 107.697 55.4721 108.983C55.1155 109.557 55.3081 110.548 55.427 111.319C56.8098 120.04 58.2089 128.761 59.6244 137.479C60.4442 142.658 61.3091 147.837 62.1576 153.049L76.7338 153.016ZM47.934 38.8838C43.9456 38.8838 39.9572 38.9535 35.9729 38.8838C32.4519 38.8019 32.3535 38.8019 31.7509 42.3624C31.6952 42.664 31.6637 42.9695 31.6567 43.2761C31.6567 49.971 31.4025 56.674 31.7304 63.3525C32.1199 71.2315 39.3219 78.3565 47.1961 79.2292C49.7094 79.5027 52.252 79.246 54.6598 78.4757C57.0675 77.7054 59.2868 76.4386 61.174 74.7573C63.0613 73.0759 64.5745 71.0174 65.616 68.7148C66.6574 66.4122 67.2038 63.9168 67.2199 61.3899C67.2896 55.9734 67.2445 50.5568 67.2199 45.1403C67.2199 41.0963 65.0147 38.8962 60.9566 38.8798C56.6239 38.8552 52.2789 38.8838 47.934 38.8838ZM74.0531 43.5137C74.0531 41.3709 74.0531 39.3345 74.0531 37.2941C74.0531 28.8006 68.5562 23.3226 60.0466 23.3185C48.8562 23.3185 37.6645 23.3185 26.4714 23.3185H24.6555C24.8318 24.224 24.9178 24.9574 25.1187 25.699C26.5984 30.968 31.091 34.254 36.9608 34.2745C45.0851 34.3072 53.2094 34.2745 61.3337 34.2745C66.3018 34.3031 70.1385 37.163 71.4215 41.67C71.5854 42.2518 71.7043 42.8459 71.8601 43.4973L74.0531 43.5137ZM48.0036 111.118C45.7492 125.114 43.4947 139.045 41.2607 153.008H57.4437C57.4068 152.651 57.3986 152.397 57.3577 152.148C55.2589 139.151 53.1575 126.155 51.0533 113.158C50.6639 110.716 50.6844 110.716 48.0036 111.106V111.118ZM129.316 9.07248C129.316 13.8785 129.107 18.8116 129.398 23.716C129.57 26.584 132.501 28.817 135.403 28.8661C139.912 28.9399 144.384 28.8866 148.877 28.8661C148.988 28.8661 149.102 28.7391 148.996 28.8047L129.316 9.07248ZM41.5354 82.4128C41.2115 84.3303 40.9123 85.9692 40.6746 87.6203C40.6527 87.7828 40.6659 87.948 40.7132 88.1049C40.7606 88.2618 40.8411 88.4067 40.9492 88.5299C43.7324 90.7424 46.5444 92.9139 49.3768 95.1182C52.1847 92.9303 54.89 90.8408 57.5749 88.7102C57.7239 88.5942 57.8461 88.4473 57.9332 88.2797C58.0202 88.1122 58.07 87.9278 58.0791 87.7392C57.8454 86.002 57.5134 84.2811 57.1937 82.4128C54.7259 83.4995 52.0581 84.0583 49.3615 84.0533C46.6649 84.0484 43.9991 83.4798 41.5354 82.3841V82.4128ZM31.1771 92.7746C33.1733 95.233 35.0015 97.552 36.9157 99.7891C37.3432 100.315 37.9434 100.673 38.6097 100.799C39.276 100.925 39.9654 100.811 40.5557 100.477C42.1256 99.6949 43.6136 98.732 45.2696 97.7733C42.3634 95.5116 39.6498 93.3482 36.8624 91.2832C36.5878 91.128 36.2844 91.0305 35.9707 90.9967C35.6571 90.9629 35.3398 90.9935 35.0384 91.0866C33.8005 91.4717 32.624 92.1191 31.1771 92.746V92.7746ZM53.4554 97.7774C55.1278 98.7443 56.6239 99.7071 58.2103 100.498C59.3867 101.084 60.7107 100.99 61.6043 99.9776C63.6333 97.679 65.5352 95.2617 67.5725 92.7869C66.1132 92.1273 64.8917 91.4881 63.6046 91.0415C63.3245 90.9554 63.0293 90.9292 62.7384 90.9645C62.4475 90.9998 62.1672 91.0958 61.9158 91.2464C59.1039 93.3073 56.378 95.4911 53.4554 97.7487V97.7774ZM26.8649 48.3239C24.5571 48.0207 23.1184 49.1433 23.0487 51.3722C22.9954 53.1012 23.0241 54.8384 23.0487 56.5716C23.0487 59.0299 24.4464 59.9641 26.8772 59.1282L26.8649 48.3239ZM71.9215 59.2962C74.5777 59.6158 75.6353 59.0258 75.7214 57.1042C75.8074 55.1826 75.8156 53.2241 75.7214 51.2943C75.6066 49.1679 74.2375 48.1149 71.9297 48.2665L71.9215 59.2962ZM45.1548 103.251C46.0976 106.091 48.1266 106.693 50.7213 106.349C52.5618 106.107 52.7995 104.403 53.8981 103.432C49.3686 100.387 49.3686 100.387 45.2573 103.141C45.219 103.173 45.1846 103.211 45.1548 103.251ZM25.6352 34.9095C23.9956 37.7366 24.9219 40.6702 24.6473 43.6161L26.7911 43.5096C27.3691 41.1906 27.9019 39.0355 28.4307 36.8598L25.6352 34.9095Z" fill="white"/>
<path d="M115.656 42.9511H138.361C141.718 42.9511 143.058 44.3113 143.062 47.712C143.062 51.0349 143.062 54.3577 143.062 57.6806C143.062 60.5486 141.587 62.0482 138.73 62.0523C123.347 62.0687 107.961 62.0687 92.5702 62.0523C89.7788 62.0523 88.2867 60.5896 88.2498 57.8158C88.2048 54.2389 88.1966 50.662 88.2498 47.0852C88.2908 44.4056 89.8157 42.9593 92.5088 42.9552C100.24 42.9224 107.938 42.9511 115.656 42.9511ZM138.389 47.6588H92.931V57.361H138.389V47.6588Z" fill="#2B63B5"/>
<path d="M115.536 83.1662H91.6058C91.1465 83.1902 90.6861 83.1792 90.2285 83.1334C89.7116 83.0843 89.23 82.8498 88.8728 82.4732C88.5156 82.0965 88.307 81.6033 88.2855 81.0848C88.2107 80.5698 88.3293 80.0454 88.6185 79.6127C88.9076 79.1799 89.3468 78.8694 89.8514 78.7412C90.3947 78.6032 90.9559 78.5494 91.5156 78.5814C107.625 78.5814 123.733 78.5814 139.839 78.5814C140.299 78.5521 140.76 78.581 141.212 78.6675C142.389 78.9748 143.082 79.7737 143.016 80.9988C143.015 81.5454 142.807 82.0713 142.433 82.4705C142.06 82.8697 141.549 83.1125 141.003 83.1498C140.544 83.1943 140.082 83.2039 139.622 83.1785L115.536 83.1662Z" fill="#2B63B5"/>
<path d="M115.758 68.2981H139.532C140.043 68.2815 140.554 68.302 141.061 68.3596C141.593 68.4315 142.081 68.6912 142.437 69.0917C142.794 69.4922 142.996 70.007 143.005 70.5431C143.015 71.0791 142.833 71.601 142.491 72.0144C142.15 72.4278 141.672 72.7053 141.143 72.7968C140.639 72.8755 140.128 72.9071 139.618 72.8911C123.616 72.8911 107.614 72.8911 91.6143 72.8911C91.1551 72.9028 90.6957 72.8754 90.2411 72.8091C88.9294 72.592 88.2367 71.7398 88.29 70.4655C88.281 69.9179 88.4872 69.3884 88.8642 68.9909C89.2412 68.5934 89.7591 68.3594 90.3067 68.3391C90.8165 68.2953 91.3283 68.2802 91.8397 68.294L115.758 68.2981Z" fill="#2B63B5"/>
<path d="M103.184 88.9099C107.115 88.9099 111.05 88.9099 114.985 88.9099C116.928 88.9099 117.949 89.7293 117.916 91.2289C117.883 92.7285 116.887 93.4947 115.047 93.4988C107.078 93.5152 99.1082 93.5152 91.1369 93.4988C89.3497 93.4988 88.2676 92.6056 88.2676 91.2125C88.2676 89.8195 89.3128 88.914 91.2394 88.9099C95.2114 88.9017 99.1997 88.9099 103.184 88.9099Z" fill="#2B63B5"/>
</svg>
