<svg width="158" height="156" viewBox="0 0 158 156" fill="none" xmlns="http://www.w3.org/2000/svg">
<path d="M93.783 68.7858L93.8404 68.3758C94.1991 66.1721 93.6354 64.7699 91.3681 63.6075C86.3456 61.0348 82.6351 56.9471 80.2633 51.8098C79.2834 49.6921 78.6909 47.3818 78.08 45.1166C77.8463 44.2576 77.5901 43.821 76.6778 43.6057C70.901 42.2384 67.826 36.5271 69.9477 30.9901C71.1429 27.872 73.5577 25.9922 76.7844 25.2132C77.5081 25.0369 77.7582 24.7253 77.8812 24.018C79.2793 15.939 83.3752 9.52048 90.1196 4.91005C93.9954 2.22104 98.5484 0.674715 103.26 0.447218C109.498 0.164319 115.755 0.24222 122.003 0.205321C123.438 0.205321 124.883 0.176622 126.292 0.373422C129.926 0.88592 132.522 3.92605 132.538 7.61604C132.564 13.0485 132.564 18.481 132.538 23.9135C132.538 24.7027 132.743 25.0184 133.534 25.2152C139.512 26.6953 142.626 32.6752 140.248 38.1733C138.975 41.117 136.679 42.962 133.528 43.6406C132.749 43.8087 132.427 44.0977 132.28 44.93C130.908 52.6236 126.722 58.5092 120.271 62.724C118.545 63.8535 118.114 65.1265 118.268 66.9039C118.434 68.8124 118.453 68.7694 120.359 69.0318C130.896 70.4832 138.555 75.9403 143.223 85.5322C143.299 85.6859 143.364 85.8438 143.428 86.0016C144.248 87.9963 144.248 87.9881 146.468 87.9983C147.903 87.9983 149.338 88.0598 150.773 88.0516C154.27 88.0311 157.484 91.2148 157.333 95.3681C157.263 97.2131 157.312 99.0581 157.312 100.903C157.312 116.586 157.241 132.268 157.359 147.952C157.392 152.143 154.252 155.537 149.803 155.517C133.198 155.408 116.593 155.474 99.9883 155.476H63.605C59.9909 155.476 57.5862 153.793 56.4936 150.439C56.3229 149.886 56.2372 149.31 56.2394 148.731C56.2128 145.759 56.2189 142.786 56.2251 139.814C56.2251 138.689 56.6822 138.082 57.4919 138.063C58.3529 138.045 58.8388 138.664 58.8449 139.855C58.8593 142.59 58.97 145.328 58.8244 148.055C58.6789 150.781 60.7945 152.93 63.6522 152.915C77.832 152.846 92.0118 152.883 106.192 152.883C120.747 152.883 135.302 152.844 149.856 152.92C152.575 152.934 154.76 150.956 154.744 148C154.658 132.077 154.705 116.155 154.707 100.235C154.707 98.4595 154.721 96.6842 154.694 94.9048C154.66 92.5596 153.054 90.8396 150.728 90.5998C150.318 90.5588 149.908 90.569 149.498 90.569H87.4833C87.1411 90.5904 86.7974 90.5753 86.4584 90.5239C86.1489 90.4781 85.8685 90.3161 85.6742 90.0708C85.48 89.8256 85.3865 89.5155 85.4129 89.2037C85.4272 88.4637 85.8803 88.0885 86.5793 88.027C87.1226 87.9778 87.672 87.986 88.2193 87.986H141.267C141.188 87.6322 141.087 87.2836 140.964 86.9426C138.399 81.1083 134.211 76.8484 128.496 74.0502C125.671 72.6664 122.682 71.9182 119.578 71.5307C118.758 71.4282 118.348 71.5451 118.112 72.5209C117.428 75.3909 115.326 77.1313 112.782 78.2035C107.586 80.3826 102.452 80.235 97.6124 77.1231C95.7899 75.9505 94.4246 74.329 94.0351 72.1068C93.9039 71.3585 93.4529 71.4754 92.9917 71.5184C90.2007 71.7857 87.4631 72.4548 84.8635 73.5049C84.4002 73.6894 83.6478 73.5561 83.2235 73.2773C82.9447 73.0969 82.8401 72.322 82.9795 71.9284C83.1189 71.5348 83.6314 71.2622 84.0455 71.0859C87.006 69.827 90.157 69.0744 93.3668 68.8596C93.5068 68.843 93.6458 68.8183 93.783 68.7858ZM132.55 27.8659C132.55 28.6859 132.55 29.4772 132.55 30.2582C132.528 33.9995 129.68 36.9945 126.128 37.0006C122.438 37.0006 119.568 34.1184 119.558 30.3218C119.541 27.1791 119.558 24.0365 119.547 20.8918C119.547 20.531 119.517 20.1702 119.492 19.5983C110.369 24.5572 100.837 25.6375 90.792 23.6983C90.792 24.1903 90.792 24.5592 90.792 24.9282C90.792 26.8019 90.8228 28.6777 90.7654 30.5493C90.6711 33.569 88.5104 36.2052 85.663 36.8489C81.7167 37.7407 77.8996 34.7518 77.7643 30.6477C77.7336 29.7109 77.7643 28.774 77.7643 27.7449C77.4268 27.7836 77.0915 27.8397 76.7598 27.913C72.8156 29.0528 70.7534 33.7596 72.6148 37.425C73.8447 39.8604 75.9091 41.115 78.5925 41.2872C79.7323 41.3589 80.3002 41.8058 80.3535 42.9272C80.3658 43.1978 80.4375 43.4663 80.4724 43.7369C80.9624 47.4827 82.3856 51.0452 84.6113 54.0976C89.0701 60.2476 95.1011 63.8392 102.709 64.6161C109.252 65.2824 115.214 63.6178 120.398 59.6244C125.816 55.4527 129.117 49.9484 129.965 43.0748C130.15 41.5803 130.322 41.4348 131.81 41.3138C136.089 40.9715 139.012 37.3102 138.319 33.1856C137.819 30.3443 134.863 27.7859 132.55 27.87V27.8659ZM129.953 18.9915C129.953 15.2673 129.953 11.5425 129.953 7.81695C129.953 5.26471 128.266 3.30696 125.753 2.91746C125.517 2.87352 125.279 2.8468 125.039 2.83751C117.936 2.88261 110.825 2.75551 103.73 3.0425C98.7616 3.21407 93.9829 4.9906 90.1094 8.10599C82.9467 13.8583 79.6688 21.4063 80.3268 30.6047C80.5154 33.2697 83.0984 35.008 85.5133 34.1573C86.9934 33.6346 88.1148 32.0868 88.1476 30.3484C88.1968 27.6506 88.1619 24.9528 88.1885 22.2551C88.2029 20.9246 88.8179 20.4736 90.0971 20.7504C91.4624 21.0456 92.8236 21.39 94.1971 21.5704C102.83 22.7635 110.995 21.3941 118.613 17.0604C119.289 16.675 119.584 16.2404 119.564 15.4388C119.525 13.9218 119.879 13.4155 120.812 13.4052C121.745 13.395 122.108 13.9464 122.11 15.4122C122.11 20.367 122.11 25.3218 122.11 30.2767C122.11 32.1729 123.36 33.8088 125.076 34.2311C127.626 34.8584 129.902 33.0319 129.928 30.2623C129.98 26.5129 129.953 22.7532 129.953 18.9956V18.9915ZM96.3926 65.9588C96.4951 68.1318 96.4152 70.0896 96.7514 71.9715C96.9174 72.9083 97.6636 73.962 98.459 74.5299C102.789 77.6336 107.452 77.8283 112.194 75.5795C114.023 74.7123 115.55 73.388 115.679 71.1351C115.786 69.4008 115.777 67.6501 115.802 65.9179C115.802 65.7416 115.679 65.5632 115.587 65.3172C112.6 66.5468 109.418 67.234 106.19 67.3467C102.868 67.4658 99.5508 66.9959 96.3926 65.9588Z" fill="white"/>
<path d="M72.7198 72.052C73.6956 72.052 74.6161 72.052 75.5365 72.052C79.2511 72.0909 81.9571 74.7498 81.9632 78.4643C81.9755 84.7476 81.912 91.0308 81.914 97.3243C81.914 107.711 81.9318 118.098 81.9674 128.484C81.9674 132.584 79.3721 135.233 75.2741 135.235C67.4165 135.235 59.5568 135.255 51.6992 135.235C46.4123 135.22 41.1253 135.106 35.8384 135.112C26.1419 135.112 16.4475 135.198 6.75104 135.229C2.5875 135.241 0.07217 132.703 0.07422 128.513C0.08242 118.058 0.0947184 107.603 0.111118 97.148C0.111118 91.0677 0.0824095 84.9874 0.0762595 78.9031C0.0762595 74.5981 2.67975 72.013 6.95809 72.0335C10.1007 72.0479 13.2454 72.0048 16.3881 72.0602C17.247 72.0766 17.5545 71.8183 17.7124 70.9716C18.4442 67.0521 22.085 64.7909 25.8324 65.9922C28.155 66.7363 29.5511 68.4809 30.0185 70.8589C30.1989 71.7793 30.5269 72.0745 31.4719 72.0684C39.3644 72.0274 47.2569 72.0376 55.1493 72.0335C56.4121 72.0335 57.6749 72.013 58.9357 72.0335C59.6101 72.052 59.9176 71.9044 60.0468 71.1192C60.7561 66.8552 65.0816 64.4424 68.8351 66.1992C70.6944 67.0725 71.865 68.5957 72.4164 70.576C72.5312 71.0044 72.5948 71.4513 72.7198 72.052ZM41.0905 86.4265H4.00611C2.66541 86.4265 2.66131 86.4265 2.66131 87.7857C2.66131 92.4966 2.66131 97.2068 2.66131 101.916C2.66131 110.8 2.66131 119.683 2.66131 128.566C2.66131 131.231 4.06556 132.625 6.6957 132.633C17.3557 132.659 28.0102 132.683 38.6592 132.705C43.3742 132.705 48.0892 132.646 52.7918 132.637C60.2743 132.625 67.7554 132.625 75.2352 132.637C77.9002 132.637 79.3618 131.188 79.3639 128.523C79.3639 114.857 79.3639 101.195 79.3639 87.5397C79.3639 86.7033 79.1343 86.4081 78.2671 86.4224C75.3315 86.4696 72.3959 86.445 69.4521 86.445L41.0905 86.4265ZM17.4684 74.6985C13.5529 74.6985 9.76453 74.637 5.98845 74.7231C4.0758 74.7682 2.7556 76.2791 2.69 78.2491C2.6408 79.7518 2.72485 81.2585 2.65515 82.7591C2.61415 83.6529 2.97701 83.8579 3.78881 83.8456C6.4538 83.8087 9.11879 83.8312 11.7838 83.8312H66.8076C70.6309 83.8312 74.4562 83.8046 78.2876 83.8312C79.1302 83.8312 79.4418 83.5791 79.4069 82.7222C79.3516 81.3938 79.4069 80.0572 79.3926 78.7268C79.37 76.1807 77.8551 74.6719 75.2926 74.6637C71.5001 74.6637 67.7076 74.6637 63.9192 74.6637H62.6298V78.5135H63.4149C64.3702 78.5135 65.3296 78.4664 66.2849 78.5135C67.0598 78.5607 67.5825 79.0097 67.5497 79.8338C67.519 80.6128 67.0905 81.1109 66.2521 81.113C62.9414 81.113 59.6286 81.1314 56.3178 81.0986C55.9509 81.0986 55.4404 80.9264 55.258 80.6579C55.0284 80.3196 54.848 79.6574 55.0386 79.3889C55.3583 78.942 55.8403 78.638 56.3814 78.5423C57.5171 78.4193 58.6712 78.5033 59.9381 78.5033C59.9381 77.8145 59.9381 77.2733 59.9381 76.7362C59.9381 74.6452 59.9381 74.6452 57.8553 74.6452H21.1727H20.1478C20.1478 75.7256 20.1785 76.6809 20.1375 77.63C20.1088 78.3188 20.3999 78.5197 21.0477 78.4972C22.003 78.4623 22.9624 78.4603 23.9177 78.5197C24.6946 78.5669 25.2522 79.0527 25.2153 79.8297C25.2189 80.0033 25.1862 80.1759 25.1195 80.3363C25.0527 80.4967 24.9533 80.6414 24.8276 80.7613C24.7019 80.8813 24.5527 80.9737 24.3893 81.0328C24.2259 81.0919 24.0521 81.1164 23.8787 81.1047C20.5311 81.1047 17.1855 81.0843 13.8338 81.0474C13.5222 81.0474 13.0753 80.9346 12.9359 80.7193C12.7063 80.3606 12.4541 79.7477 12.614 79.4709C12.8559 79.0466 13.4135 78.5997 13.8809 78.5484C15.0494 78.4172 16.2405 78.5054 17.4971 78.5054L17.4684 74.6985ZM27.538 71.9659C27.2428 69.5797 25.488 68.0196 23.5466 68.2636C21.6525 68.5034 20.1068 70.2685 20.3507 71.9659H27.538ZM62.6236 71.9659H69.9072C69.7371 69.8523 68.2201 68.2882 66.3526 68.2329C64.485 68.1775 62.8901 69.7252 62.6298 71.97L62.6236 71.9659Z" fill="white"/>
<path d="M96.4151 121.783C96.4007 115.947 100.925 111.398 106.77 111.371C108.129 111.367 109.476 111.631 110.734 112.149C111.991 112.666 113.134 113.427 114.097 114.386C115.06 115.346 115.824 116.486 116.346 117.742C116.867 118.997 117.136 120.344 117.136 121.703C117.147 123.064 116.889 124.413 116.377 125.674C115.866 126.935 115.111 128.083 114.155 129.051C113.199 130.02 112.062 130.791 110.808 131.319C109.554 131.848 108.208 132.124 106.847 132.132C101.009 132.132 96.4315 127.597 96.4151 121.783ZM106.724 129.52C111.015 129.52 114.531 126.059 114.527 121.83C114.527 117.464 111.095 113.979 106.794 113.965C102.409 113.95 99.0042 117.411 99.0042 121.861C99.0165 126.057 102.502 129.516 106.724 129.52Z" fill="white"/>
<circle cx="64.6032" cy="120.555" r="3.19001" stroke="white" stroke-width="1.65354"/>
<circle cx="35.4785" cy="30.8464" r="26.3008" stroke="#D35F46" stroke-width="2.48032"/>
<path d="M35.5969 31.805C37.5587 31.805 39.3914 31.7927 41.2261 31.805C42.286 31.805 42.8415 32.2929 42.7821 33.1416C42.7308 33.857 42.4192 34.4023 41.5931 34.4023C39.1331 34.4023 36.6731 34.4187 34.2131 34.3777C33.1779 34.3593 32.9667 33.5987 32.9688 32.7377C32.9811 28.9821 32.994 25.2279 33.0077 21.4751C33.0077 20.4173 32.9934 19.3574 33.0077 18.2996C33.0221 17.2418 33.4854 16.6412 34.2623 16.6186C35.0967 16.594 35.6338 17.2049 35.6317 18.2894C35.6317 22.3894 35.601 26.4893 35.5825 30.577C35.5948 30.944 35.5969 31.3109 35.5969 31.805Z" fill="#D35F46"/>
<path d="M40.0146 109.689C41.4496 108.166 42.6386 106.905 43.8317 105.648C44.0175 105.446 44.2236 105.263 44.4467 105.103C45.0617 104.671 45.6767 104.693 46.1974 105.257C46.7181 105.821 46.6463 106.466 46.14 106.995C44.8198 108.375 43.4586 109.716 42.1261 111.095C40.646 112.618 40.3036 113.529 38.104 111.126C37.4152 110.374 36.6424 109.691 35.9392 108.953C35.4001 108.387 35.2955 107.711 35.8449 107.108C36.4415 106.466 37.1918 106.567 37.7617 107.12C38.5038 107.852 39.1495 108.693 40.0146 109.689Z" fill="#D35F46"/>
<path d="M40.0146 96.7222C41.4496 95.199 42.6386 93.9383 43.8317 92.6816C44.0175 92.4793 44.2236 92.2966 44.4467 92.1363C45.0617 91.7038 45.6767 91.7263 46.1974 92.2901C46.7181 92.8538 46.6463 93.4996 46.14 94.0285C44.8198 95.4081 43.4586 96.7488 42.1261 98.1285C40.646 99.6516 40.3036 100.562 38.104 98.1592C37.4152 97.4069 36.6424 96.7242 35.9392 95.9862C35.4001 95.4204 35.2955 94.7439 35.8449 94.1412C36.4415 93.4996 37.1918 93.6 37.7617 94.1535C38.5038 94.8854 39.1495 95.7259 40.0146 96.7222Z" fill="#D35F46"/>
<path d="M40.0146 122.339C41.4496 120.816 42.6386 119.555 43.8317 118.299C44.0175 118.097 44.2236 117.914 44.4467 117.754C45.0617 117.321 45.6767 117.344 46.1974 117.907C46.7181 118.471 46.6463 119.117 46.14 119.646C44.8198 121.025 43.4586 122.366 42.1261 123.746C40.646 125.269 40.3036 126.179 38.104 123.776C37.4152 123.024 36.6424 122.341 35.9392 121.603C35.4001 121.038 35.2955 120.361 35.8449 119.758C36.4415 119.117 37.1918 119.217 37.7617 119.771C38.5038 120.503 39.1495 121.343 40.0146 122.339Z" fill="#D35F46"/>
<path d="M63.6053 109.581L66.9509 106.096C67.0924 105.948 67.2297 105.795 67.3773 105.653C68.3695 104.704 69.1547 104.554 69.7697 105.192C70.3847 105.829 70.2104 106.563 69.2203 107.56C67.7853 109.015 66.3503 110.477 64.8866 111.918C64.0133 112.781 63.4044 112.758 62.5352 111.899C61.5635 110.94 60.5693 110.005 59.6263 109.029C58.9314 108.302 58.9006 107.57 59.5013 107.064C60.2024 106.473 60.885 106.586 61.4877 107.236C62.156 107.957 62.8099 108.697 63.6053 109.581Z" fill="#D35F46"/>
<path d="M63.6053 96.6141L66.9509 93.1291C67.0924 92.9815 67.2297 92.8278 67.3773 92.6863C68.3695 91.7372 69.1547 91.5875 69.7697 92.2251C70.3847 92.8626 70.2104 93.5965 69.2203 94.5928C67.7853 96.0483 66.3503 97.51 64.8866 98.9511C64.0133 99.8142 63.4044 99.7916 62.5352 98.9327C61.5635 97.9733 60.5693 97.0385 59.6263 96.0627C58.9314 95.3349 58.9006 94.6031 59.5013 94.0967C60.2024 93.5063 60.885 93.6191 61.4877 94.2689C62.156 94.9905 62.8099 95.7306 63.6053 96.6141Z" fill="#D35F46"/>
<path d="M15.533 110.196L18.813 106.916C19.0795 106.652 19.3337 106.373 19.6146 106.127C20.2993 105.529 21.1623 105.471 21.6236 106.035C22.1627 106.699 22.0336 107.388 21.478 107.97C20.3936 109.1 19.2763 110.198 18.1755 111.312C17.6732 111.82 17.2017 112.363 16.6667 112.835C15.7893 113.608 15.2071 113.587 14.3707 112.775C13.3457 111.783 12.3473 110.758 11.3305 109.756C10.6704 109.108 10.8037 108.47 11.3756 107.884C11.9476 107.298 12.5482 107.408 13.0997 107.909C13.9115 108.63 14.6864 109.389 15.533 110.196Z" fill="#D35F46"/>
<path d="M15.533 97.2296L18.813 93.9496C19.0795 93.6851 19.3337 93.4063 19.6146 93.1603C20.2993 92.5617 21.1623 92.5043 21.6236 93.0681C22.1627 93.7323 22.0336 94.4211 21.478 95.0033C20.3936 96.1328 19.2763 97.2316 18.1755 98.3447C17.6732 98.8531 17.2017 99.3964 16.6667 99.8679C15.7893 100.641 15.2071 100.62 14.3707 99.8084C13.3457 98.8162 12.3473 97.7913 11.3305 96.7888C10.6704 96.141 10.8037 95.5035 11.3756 94.9172C11.9476 94.3309 12.5482 94.4416 13.0997 94.9418C13.9115 95.6634 14.6864 96.4219 15.533 97.2296Z" fill="#D35F46"/>
<path d="M15.533 122.847L18.813 119.567C19.0795 119.302 19.3337 119.024 19.6146 118.778C20.2993 118.179 21.1623 118.122 21.6236 118.685C22.1627 119.349 22.0336 120.038 21.478 120.62C20.3936 121.75 19.2763 122.849 18.1755 123.962C17.6732 124.47 17.2017 125.014 16.6667 125.485C15.7893 126.258 15.2071 126.237 14.3707 125.426C13.3457 124.433 12.3473 123.408 11.3305 122.406C10.6704 121.758 10.8037 121.121 11.3756 120.534C11.9476 119.948 12.5482 120.059 13.0997 120.559C13.9115 121.281 14.6864 122.039 15.533 122.847Z" fill="#D35F46"/>
</svg>
