<svg width="158" height="159" viewBox="0 0 158 159" fill="none" xmlns="http://www.w3.org/2000/svg">
<path d="M93.6211 71.3981L93.6784 70.9886C94.0367 68.7876 93.4737 67.3872 91.2093 66.2263C86.1931 63.6569 82.4874 59.5743 80.1185 54.4436C79.1399 52.3286 78.5482 50.0212 77.9381 47.7589C77.7047 46.901 77.4487 46.4649 76.5376 46.2499C70.7681 44.8843 67.697 39.1803 69.816 33.6503C71.0097 30.5362 73.4215 28.6587 76.6441 27.8807C77.3668 27.7046 77.6166 27.3934 77.7395 26.6871C79.1358 18.6183 83.2265 12.2079 89.9624 7.6033C93.8332 4.9177 98.3805 3.37334 103.086 3.14613C109.316 2.86359 115.565 2.94139 121.806 2.90454C123.239 2.90454 124.682 2.87588 126.089 3.07243C129.719 3.58427 132.311 6.62055 132.327 10.3059C132.353 15.7315 132.353 21.157 132.327 26.5826C132.327 27.3709 132.532 27.6862 133.322 27.8827C139.292 29.361 142.402 35.3332 140.027 40.8243C138.756 43.7644 136.463 45.607 133.316 46.2847C132.538 46.4526 132.217 46.7413 132.069 47.5725C130.699 55.2564 126.519 61.1345 120.075 65.3439C118.352 66.472 117.922 67.7434 118.075 69.5185C118.241 71.4247 118.259 71.3817 120.164 71.6437C130.687 73.0933 138.336 78.5434 142.998 88.1232C143.074 88.2768 143.139 88.4344 143.203 88.5921C144.022 90.5842 144.022 90.576 146.239 90.5862C147.672 90.5862 149.105 90.6477 150.539 90.6395C154.032 90.619 157.242 93.7986 157.09 97.9466C157.021 99.7893 157.07 101.632 157.07 103.475C157.07 119.137 156.998 134.8 157.117 150.464C157.15 154.649 154.013 158.04 149.57 158.019C132.986 157.911 116.402 157.976 99.8186 157.978H63.4814C59.8719 157.978 57.4703 156.297 56.379 152.948C56.2085 152.395 56.1229 151.82 56.1251 151.242C56.0985 148.274 56.1046 145.305 56.1108 142.336C56.1108 141.212 56.5674 140.606 57.3761 140.588C58.236 140.569 58.7212 141.188 58.7274 142.377C58.7417 145.108 58.8522 147.844 58.7069 150.567C58.5615 153.29 60.6744 155.435 63.5285 155.421C77.6903 155.351 91.8521 155.388 106.014 155.388C120.55 155.388 135.087 155.349 149.623 155.425C152.338 155.439 154.521 153.464 154.504 150.511C154.418 134.609 154.466 118.707 154.468 102.807C154.468 101.034 154.482 99.261 154.455 97.4839C154.421 95.1417 152.817 93.4239 150.494 93.1844C150.084 93.1434 149.675 93.1537 149.265 93.1537H87.3295C86.9876 93.175 86.6444 93.1599 86.3058 93.1086C85.9967 93.0629 85.7166 92.901 85.5226 92.6561C85.3286 92.4111 85.2353 92.1014 85.2616 91.7901C85.2759 91.051 85.7284 90.6763 86.4266 90.6149C86.9691 90.5658 87.5178 90.574 88.0645 90.574H141.045C140.966 90.2205 140.865 89.8724 140.742 89.5318C138.181 83.7049 133.998 79.4505 128.29 76.6558C125.468 75.2738 122.483 74.5265 119.383 74.1395C118.565 74.0371 118.155 74.1538 117.92 75.1284C117.236 77.9948 115.137 79.733 112.596 80.8038C107.406 82.9801 102.28 82.8328 97.4456 79.7248C95.6255 78.5537 94.2619 76.9342 93.8729 74.7148C93.7419 73.9675 93.2915 74.0842 92.8308 74.1272C90.0434 74.3941 87.3092 75.0624 84.7129 76.1112C84.2502 76.2954 83.4988 76.1623 83.075 75.8839C82.7965 75.7037 82.6921 74.9298 82.8313 74.5367C82.9706 74.1436 83.4824 73.8713 83.896 73.6952C86.8527 72.4379 89.9997 71.6863 93.2055 71.4718C93.3453 71.4551 93.4841 71.4305 93.6211 71.3981ZM132.339 30.53C132.339 31.349 132.339 32.1393 132.339 32.9193C132.317 36.6558 129.473 39.6471 125.925 39.6532C122.24 39.6532 119.373 36.7746 119.363 32.9828C119.347 29.8441 119.363 26.7055 119.353 23.5648C119.353 23.2044 119.322 22.8441 119.297 22.2729C110.187 27.2255 100.666 28.3045 90.6339 26.3677C90.6339 26.8591 90.6339 27.2276 90.6339 27.5961C90.6339 29.4674 90.6647 31.3408 90.6073 33.2101C90.5132 36.2259 88.3552 38.8588 85.5114 39.5017C81.5701 40.3923 77.7579 37.4072 77.6228 33.3083C77.5921 32.3727 77.6228 31.437 77.6228 30.4092C77.2857 30.4478 76.9508 30.5039 76.6195 30.5771C72.6803 31.7155 70.6207 36.4163 72.4797 40.077C73.7081 42.5093 75.7699 43.7623 78.4499 43.9343C79.5883 44.006 80.1554 44.4523 80.2086 45.5722C80.2209 45.8425 80.2926 46.1107 80.3274 46.381C80.8168 50.1219 82.2382 53.68 84.4611 56.7285C88.9141 62.8707 94.9376 66.4577 102.535 67.2337C109.071 67.8991 115.025 66.2366 120.202 62.2483C125.614 58.0818 128.91 52.5845 129.758 45.7196C129.942 44.2271 130.114 44.0817 131.6 43.9609C135.873 43.619 138.793 39.9624 138.101 35.843C137.601 33.0053 134.649 30.4502 132.339 30.5341V30.53ZM129.745 21.6668C129.745 17.9474 129.745 14.2273 129.745 10.5065C129.745 7.95751 128.06 6.00224 125.55 5.61324C125.315 5.56936 125.077 5.54267 124.838 5.53338C117.743 5.57843 110.641 5.45149 103.555 5.73812C98.5934 5.90947 93.8208 7.68375 89.9522 10.7952C82.7986 16.5402 79.5248 24.0787 80.182 33.2653C80.3704 35.927 82.9501 37.6631 85.3619 36.8135C86.8401 36.2914 87.9601 34.7456 87.9928 33.0094C88.042 30.315 88.0071 27.6207 88.0338 24.9263C88.0481 23.5975 88.6623 23.1471 89.9399 23.4235C91.3034 23.7184 92.6629 24.0623 94.0347 24.2425C102.656 25.4341 110.811 24.0664 118.419 19.7382C119.095 19.3533 119.39 18.9193 119.369 18.1187C119.33 16.6037 119.684 16.0979 120.616 16.0877C121.548 16.0775 121.91 16.6282 121.912 18.0921C121.912 23.0407 121.912 27.9892 121.912 32.9378C121.912 34.8316 123.161 36.4654 124.875 36.8872C127.422 37.5137 129.694 35.6894 129.721 32.9234C129.772 29.1787 129.745 25.4238 129.745 21.6709V21.6668ZM96.2274 68.5747C96.3298 70.7449 96.25 72.7002 96.5857 74.5797C96.7516 75.5154 97.4968 76.5677 98.2912 77.1349C102.615 80.2346 107.273 80.4291 112.009 78.1831C113.835 77.3171 115.36 75.9944 115.489 73.7444C115.596 72.0123 115.588 70.2638 115.612 68.5338C115.612 68.3577 115.489 68.1795 115.397 67.9339C112.414 69.1619 109.236 69.8482 106.012 69.9608C102.694 70.0797 99.3816 69.6104 96.2274 68.5747Z" fill="white"/>
<path d="M72.5867 74.6597C73.5613 74.6597 74.4805 74.6597 75.3998 74.6597C79.1097 74.6986 81.8123 77.354 81.8184 81.0639C81.8307 87.3392 81.7672 93.6144 81.7693 99.8999C81.7693 110.273 81.787 120.647 81.8225 131.02C81.8225 135.115 79.2305 137.76 75.1378 137.762C67.2901 137.762 59.4404 137.783 51.5927 137.762C46.3125 137.748 41.0323 137.633 35.752 137.64C26.0679 137.64 16.3857 137.726 6.70156 137.756C2.5433 137.769 0.031157 135.234 0.0332044 131.049C0.041394 120.607 0.0536768 110.166 0.070056 99.7239C0.070056 93.6513 0.0413835 87.5787 0.0352413 81.5021C0.0352413 77.2025 2.63543 74.6208 6.90835 74.6412C10.047 74.6556 13.1877 74.6126 16.3264 74.6679C17.1842 74.6842 17.4913 74.4263 17.649 73.5807C18.3799 69.6661 22.0161 67.4078 25.7587 68.6076C28.0784 69.3508 29.4727 71.0931 29.9395 73.4681C30.1196 74.3874 30.4472 74.6822 31.3911 74.676C39.2736 74.6351 47.156 74.6453 55.0385 74.6412C56.2997 74.6412 57.5609 74.6208 58.82 74.6412C59.4936 74.6597 59.8007 74.5123 59.9297 73.7281C60.6381 69.4695 64.9581 67.0597 68.7069 68.8144C70.5639 69.6865 71.7329 71.2078 72.2837 73.1855C72.3983 73.6134 72.4618 74.0598 72.5867 74.6597ZM40.9975 89.016H3.9601C2.62111 89.016 2.61701 89.016 2.61701 90.3734C2.61701 95.0783 2.61701 99.7826 2.61701 104.486C2.61701 113.358 2.61701 122.23 2.61701 131.102C2.61701 133.764 4.01948 135.156 6.64629 135.164C17.2927 135.19 27.9337 135.214 38.5693 135.236C43.2783 135.236 47.9873 135.177 52.684 135.168C60.157 135.156 67.6286 135.156 75.0989 135.168C77.7605 135.168 79.2203 133.721 79.2223 131.059C79.2223 117.41 79.2223 103.766 79.2223 90.1277C79.2223 89.2924 78.993 88.9976 78.127 89.0119C75.1951 89.059 72.2632 89.0344 69.3232 89.0344L40.9975 89.016ZM17.4053 77.3028C13.4948 77.3028 9.71123 77.2414 5.93993 77.3274C4.02971 77.3725 2.71119 78.8814 2.64567 80.8489C2.59653 82.3497 2.68048 83.8545 2.61087 85.3532C2.56992 86.2459 2.93231 86.4506 3.74308 86.4383C6.40469 86.4015 9.06631 86.424 11.7279 86.424H66.682C70.5004 86.424 74.3208 86.3974 78.1474 86.424C78.9889 86.424 79.3001 86.1722 79.2653 85.3164C79.21 83.9896 79.2653 82.6547 79.251 81.326C79.2285 78.7831 77.7154 77.2762 75.1562 77.2681C71.3685 77.2681 67.5808 77.2681 63.7972 77.2681H62.5094V81.113H63.2936C64.2477 81.113 65.2058 81.066 66.1599 81.113C66.9339 81.1601 67.4559 81.6085 67.4232 82.4316C67.3925 83.2096 66.9646 83.7071 66.1272 83.7092C62.8206 83.7092 59.5121 83.7276 56.2055 83.6948C55.839 83.6948 55.3292 83.5228 55.147 83.2546C54.9177 82.9168 54.7375 82.2555 54.9279 81.9873C55.2472 81.5409 55.7286 81.2374 56.269 81.1417C57.4032 81.0189 58.5559 81.1028 59.8212 81.1028C59.8212 80.4149 59.8212 79.8744 59.8212 79.338C59.8212 77.2496 59.8212 77.2496 57.7411 77.2496H21.105H20.0813C20.0813 78.3286 20.112 79.2827 20.0711 80.2306C20.0424 80.9186 20.3331 81.1192 20.9801 81.0967C21.9342 81.0619 22.8924 81.0598 23.8464 81.1192C24.6224 81.1663 25.1793 81.6515 25.1424 82.4275C25.146 82.601 25.1134 82.7733 25.0467 82.9335C24.98 83.0936 24.8808 83.2382 24.7552 83.358C24.6297 83.4777 24.4806 83.5701 24.3175 83.6291C24.1543 83.6882 23.9807 83.7126 23.8075 83.701C20.4642 83.701 17.1228 83.6805 13.7753 83.6436C13.4641 83.6436 13.0178 83.531 12.8786 83.316C12.6492 82.9577 12.3974 82.3456 12.5571 82.0692C12.7987 81.6454 13.3556 81.199 13.8224 81.1479C14.9894 81.0168 16.179 81.1049 17.434 81.1049L17.4053 77.3028ZM27.4621 74.5737C27.1673 72.1905 25.4148 70.6324 23.4759 70.8761C21.5841 71.1156 20.0403 72.8784 20.284 74.5737H27.4621ZM62.5033 74.5737H69.7777C69.6077 72.4628 68.0927 70.9007 66.2275 70.8454C64.3623 70.7901 62.7694 72.3359 62.5094 74.5778L62.5033 74.5737Z" fill="white"/>
<path d="M61.5226 33.4017C61.6679 45.51 54.4079 56.0377 43.1554 60.0179C42.7459 60.1653 42.3119 60.2799 41.886 60.3966C41.1223 60.6014 40.5143 60.4171 40.2481 59.6309C39.9819 58.8447 40.3709 58.2796 41.2554 57.9193C42.8299 57.2785 44.4555 56.7195 45.9317 55.8965C52.8437 52.0494 57.1923 46.1795 58.56 38.4322C60.3924 28.1133 55.9905 18.4394 47.4017 12.8991C44.2416 10.8488 40.6452 9.56707 36.9006 9.1565C35.8483 9.0357 35.3487 8.5648 35.3978 7.72332C35.4511 6.83475 36.012 6.42937 37.1627 6.55835C42.2812 7.13367 46.8366 9.05618 50.9007 12.1785C54.1455 14.6966 56.7842 17.9105 58.6225 21.5835C60.4608 25.2565 61.4518 29.295 61.5226 33.4017Z" fill="white"/>
<path d="M96.2539 124.327C96.2396 118.498 100.758 113.955 106.595 113.929C107.953 113.924 109.299 114.188 110.554 114.705C111.81 115.222 112.951 115.981 113.913 116.94C114.875 117.898 115.638 119.037 116.159 120.291C116.68 121.545 116.948 122.89 116.949 124.247C116.96 125.606 116.702 126.954 116.191 128.213C115.68 129.473 114.926 130.619 113.971 131.586C113.017 132.554 111.881 133.323 110.629 133.851C109.376 134.379 108.032 134.655 106.673 134.662C100.842 134.662 96.2703 130.134 96.2539 124.327ZM106.55 132.054C110.835 132.054 114.347 128.598 114.343 124.374C114.343 120.013 110.915 116.533 106.62 116.518C102.241 116.504 98.8398 119.96 98.8398 124.405C98.8521 128.596 102.333 132.05 106.55 132.054Z" fill="white"/>
<path d="M11.336 124.305C11.3317 123.64 11.4587 122.981 11.7098 122.366C11.9608 121.75 12.3309 121.19 12.7989 120.718C13.2668 120.246 13.8234 119.871 14.4367 119.614C15.05 119.358 15.7079 119.225 16.3726 119.223C19.1264 119.223 21.4747 121.545 21.4747 124.274C21.4747 127.003 19.1387 129.372 16.4054 129.356C15.0639 129.356 13.777 128.825 12.8267 127.878C11.8765 126.931 11.3404 125.646 11.336 124.305ZM16.389 126.721C16.7131 126.72 17.0337 126.655 17.3326 126.53C17.6314 126.405 17.9025 126.222 18.1303 125.991C18.3581 125.761 18.5381 125.488 18.6598 125.187C18.7816 124.887 18.8427 124.566 18.8397 124.242C18.8126 123.59 18.5312 122.974 18.0559 122.527C17.5806 122.08 16.9492 121.837 16.2969 121.85C15.6609 121.879 15.0615 122.156 14.6263 122.62C14.1911 123.085 13.9545 123.701 13.967 124.338C13.9858 124.969 14.2474 125.57 14.6973 126.014C15.1473 126.457 15.751 126.711 16.3829 126.721H16.389Z" fill="white"/>
<path d="M45.479 124.377C45.6837 126.834 42.9935 129.479 40.3605 129.412C37.8791 129.35 35.3342 127.057 35.3997 124.312C35.4672 121.421 37.6743 119.207 40.5755 119.25C43.2801 119.289 45.4995 121.611 45.479 124.377ZM42.8706 124.322C42.876 124.006 42.8187 123.693 42.702 123.4C42.5853 123.107 42.4115 122.84 42.1907 122.614C41.9699 122.389 41.7066 122.21 41.4159 122.087C41.1253 121.964 40.8132 121.901 40.4977 121.9C40.1745 121.889 39.8526 121.945 39.5516 122.063C39.2506 122.181 38.9768 122.359 38.7469 122.587C38.517 122.814 38.3358 123.086 38.2144 123.386C38.0931 123.685 38.034 124.007 38.0408 124.33C38.036 124.653 38.0965 124.973 38.2186 125.272C38.3407 125.571 38.5219 125.842 38.7514 126.069C38.9809 126.296 39.2538 126.474 39.5539 126.593C39.854 126.712 40.175 126.769 40.4977 126.76C41.1326 126.742 41.7356 126.477 42.1786 126.022C42.6216 125.567 42.8698 124.957 42.8706 124.322Z" fill="white"/>
<path d="M45.4807 98.3245C45.4927 98.99 45.3717 99.6511 45.1248 100.269C44.8779 100.887 44.51 101.45 44.0428 101.924C43.5756 102.398 43.0185 102.774 42.404 103.03C41.7896 103.286 41.1302 103.417 40.4646 103.414C39.8076 103.425 39.1551 103.304 38.545 103.061C37.9348 102.817 37.3791 102.454 36.91 101.994C36.441 101.534 36.0679 100.986 35.8124 100.38C35.557 99.7749 35.4242 99.1248 35.4219 98.4678C35.4219 95.5605 37.5266 93.3718 40.3725 93.335C41.0373 93.3203 41.6984 93.4384 42.3171 93.6824C42.9357 93.9265 43.4994 94.2915 43.9751 94.7562C44.4509 95.2209 44.8291 95.7758 45.0876 96.3886C45.3462 97.0013 45.4798 97.6594 45.4807 98.3245ZM40.4093 100.816C40.7332 100.821 41.0546 100.76 41.3547 100.638C41.6548 100.516 41.9274 100.335 42.1564 100.106C42.3854 99.8773 42.5663 99.6047 42.6882 99.3046C42.8101 99.0046 42.8706 98.6831 42.8662 98.3593C42.8662 97.0714 41.7401 95.9147 40.4769 95.9024C39.8385 95.9012 39.2252 96.1511 38.7694 96.5981C38.3136 97.0451 38.0518 97.6534 38.0405 98.2917C38.0057 99.7187 39.013 100.794 40.4093 100.816Z" fill="white"/>
<path d="M58.9771 98.3066C58.98 97.649 59.1132 96.9986 59.3688 96.3927C59.6244 95.7869 59.9975 95.2377 60.4666 94.7769C60.9356 94.3161 61.4913 93.9527 62.1015 93.7077C62.7117 93.4628 63.3644 93.3411 64.0219 93.3498C64.6876 93.3433 65.3479 93.4693 65.9645 93.7205C66.581 93.9716 67.1414 94.343 67.613 94.8129C68.0846 95.2828 68.458 95.8418 68.7115 96.4574C68.9649 97.073 69.0933 97.7329 69.0892 98.3987C69.0825 99.064 68.9448 99.7216 68.6839 100.334C68.423 100.946 68.0441 101.501 67.5688 101.966C67.0934 102.432 66.531 102.799 65.9137 103.047C65.2963 103.296 64.6361 103.42 63.9707 103.413C63.3069 103.408 62.6506 103.271 62.0397 103.012C61.4287 102.752 60.8753 102.374 60.4111 101.899C59.9469 101.424 59.5813 100.863 59.3352 100.246C59.0891 99.6295 58.9674 98.9703 58.9771 98.3066ZM64.0035 100.819C64.6531 100.814 65.2753 100.556 65.7379 100.1C66.2004 99.6441 66.467 99.0256 66.4808 98.3762C66.4678 97.7426 66.2158 97.1373 65.7754 96.6817C65.335 96.2261 64.7386 95.9538 64.1058 95.9193C63.4552 95.9159 62.8284 96.1641 62.3564 96.6121C61.8844 97.06 61.6038 97.673 61.5732 98.3229C61.5761 98.9727 61.831 99.596 62.2843 100.062C62.7377 100.527 63.354 100.799 64.0035 100.819Z" fill="white"/>
<path d="M22.9856 15.8155C21.5299 17.044 20.1049 18.0451 18.9379 19.2818C13.629 24.9121 11.772 31.5784 13.4898 39.1149C15.5372 48.1562 23.7268 54.9003 32.9851 55.3876C33.4621 55.4142 34.0088 55.32 34.3978 55.5125C34.7868 55.7049 35.3908 56.184 35.4071 56.5566C35.5054 58.8354 35.5361 61.1223 35.4501 63.4011C35.3826 65.2028 35.0837 65.428 33.2349 65.3543C23.7718 64.9817 15.9385 61.1694 9.97032 53.8459C3.6234 46.0658 1.576 37.092 3.69915 27.3198C5.69946 18.084 11.0821 11.2212 19.3003 6.59406C19.9903 6.20506 20.15 5.84471 19.8715 5.16088C19.6668 4.65723 19.5378 4.12286 19.3617 3.60692C19.0096 2.58322 19.3412 1.76427 20.193 1.20328C21.0119 0.662768 21.792 0.828602 22.5393 1.44077C24.732 3.23224 26.9248 5.02167 29.1483 6.764C30.1597 7.55839 30.5098 8.46743 30.1065 9.71839C29.2363 12.4087 28.4133 15.1153 27.5841 17.8199C27.2851 18.7965 26.7201 19.4681 25.6452 19.4783C24.5703 19.4886 23.9888 18.8354 23.7083 17.8404C23.5486 17.2671 23.3071 16.7082 22.9856 15.8155ZM22.6457 4.96434C22.6867 5.33287 22.6908 5.45981 22.7174 5.57856C23.1269 7.42122 23.0429 7.62596 21.3784 8.44491C17.3299 10.4553 13.8233 13.4085 11.1537 17.0562C6.72726 23.0797 4.91736 29.8218 5.70151 37.2067C6.43243 44.1064 9.3602 49.9988 14.3845 54.8143C19.2982 59.511 25.1722 62.101 31.9327 62.7295C32.7926 62.8094 33.0404 62.4286 33.0056 61.6833C32.9707 60.9688 32.8745 60.2501 32.9011 59.5417C32.9523 58.084 32.9769 58.0901 31.6051 57.9038C31.2346 57.8567 30.866 57.7789 30.4954 57.7216C23.9704 56.6836 18.6554 53.5019 14.8759 48.1562C9.47895 40.5214 8.78489 32.2643 12.677 23.7451C14.8083 19.077 18.2582 15.5555 22.7809 13.0986C24.0523 12.4107 24.8283 12.767 25.2971 14.1223C25.377 14.3537 25.5019 14.5728 25.6882 14.9986C26.1284 13.6576 26.5296 12.5417 26.8613 11.4075C27.7519 8.35892 27.9812 9.27411 25.6329 7.32908C25.2132 6.97898 24.7955 6.63092 24.3656 6.2931C23.8557 5.88157 23.3296 5.49052 22.6457 4.96434Z" fill="#D35F46"/>
<path d="M35.5115 34.4625C37.4709 34.4625 39.3012 34.4502 41.1336 34.4625C42.1921 34.4625 42.747 34.9498 42.6876 35.7974C42.6364 36.5119 42.3252 37.0565 41.5001 37.0565C39.0432 37.0565 36.5864 37.0729 34.1295 37.032C33.0956 37.0135 32.8847 36.254 32.8867 35.3941C32.899 31.6432 32.912 27.8938 32.9256 24.1457C32.9256 23.0892 32.9113 22.0307 32.9256 20.9742C32.94 19.9178 33.4027 19.3179 34.1786 19.2954C35.0119 19.2708 35.5483 19.881 35.5463 20.964C35.5463 25.0588 35.5156 29.1536 35.4972 33.2361C35.5094 33.6026 35.5115 33.9691 35.5115 34.4625Z" fill="#D35F46"/>
<path d="M63.5419 125.087C64.7703 123.859 65.8903 122.718 67.0122 121.592C67.2867 121.29 67.5845 121.01 67.9029 120.755C68.5171 120.311 69.1518 120.346 69.6554 120.89C70.1263 121.394 70.1673 122.055 69.6841 122.559C67.9643 124.348 66.224 126.117 64.4428 127.845C63.8838 128.39 63.1938 128.32 62.6165 127.757C61.5457 126.713 60.4708 125.673 59.4185 124.608C58.8247 124.006 58.7776 123.318 59.3877 122.714C59.9979 122.11 60.6899 122.213 61.2836 122.788C62.0371 123.517 62.7516 124.279 63.5419 125.087Z" fill="#D35F46"/>
<path d="M39.9268 112.25C41.36 110.729 42.5475 109.47 43.7391 108.215C43.9247 108.013 44.1305 107.83 44.3533 107.67C44.9675 107.238 45.5817 107.261 46.1018 107.824C46.6218 108.387 46.5501 109.032 46.0444 109.56C44.7259 110.938 43.3664 112.277 42.0356 113.655C40.5574 115.176 40.2155 116.085 38.0186 113.685C37.3307 112.934 36.5589 112.252 35.8566 111.515C35.3181 110.95 35.2137 110.274 35.7624 109.672C36.3582 109.032 37.1076 109.132 37.6767 109.685C38.4179 110.416 39.0628 111.255 39.9268 112.25Z" fill="#D35F46"/>
<path d="M63.4844 112.141L66.8257 108.661C66.967 108.513 67.1042 108.36 67.2516 108.218C68.2425 107.271 69.0267 107.121 69.6409 107.758C70.2551 108.395 70.0811 109.128 69.0922 110.123C67.659 111.576 66.2258 113.036 64.764 114.475C63.8918 115.337 63.2837 115.315 62.4156 114.457C61.4452 113.499 60.4522 112.565 59.5104 111.591C58.8163 110.864 58.7856 110.133 59.3855 109.627C60.0857 109.037 60.7675 109.15 61.3694 109.799C62.0369 110.52 62.69 111.259 63.4844 112.141Z" fill="#D35F46"/>
<path d="M15.4764 112.755L18.7522 109.479C19.0184 109.215 19.2722 108.937 19.5527 108.691C20.2365 108.093 21.0985 108.036 21.5592 108.599C22.0976 109.262 21.9686 109.95 21.4138 110.532C20.3307 111.66 19.2149 112.757 18.1154 113.869C17.6138 114.377 17.1429 114.919 16.6086 115.39C15.7323 116.162 15.1508 116.141 14.3155 115.331C13.2918 114.34 12.2947 113.316 11.2792 112.315C10.6199 111.668 10.753 111.031 11.3242 110.446C11.8955 109.86 12.4954 109.971 13.0461 110.47C13.8569 111.191 14.6308 111.948 15.4764 112.755Z" fill="#D35F46"/>
<path d="M15.2952 99.2591C16.6117 97.9303 17.6579 96.8677 18.7123 95.8113C19.0481 95.4755 19.388 95.1397 19.7483 94.8306C20.3257 94.3351 20.9317 94.331 21.4845 94.8572C22.0373 95.3833 22.0578 96.0201 21.5807 96.5934C21.1037 97.1666 20.557 97.6764 20.0288 98.2108C18.9355 99.3287 17.8463 100.463 16.7427 101.562C15.8234 102.488 15.1601 102.471 14.2306 101.544C13.301 100.616 12.3408 99.6849 11.4113 98.7411C10.8155 98.1392 10.5923 97.4717 11.27 96.7776C11.8392 96.1941 12.6008 96.2556 13.3174 97.0008C13.9869 97.6826 14.5807 98.4237 15.2952 99.2591Z" fill="#D35F46"/>
</svg>
