<svg width="158" height="156" viewBox="0 0 158 156" fill="none" xmlns="http://www.w3.org/2000/svg">
<path d="M93.7937 68.7858L93.8511 68.3758C94.2099 66.1721 93.6461 64.7699 91.3788 63.6075C86.3563 61.0348 82.6459 56.9471 80.274 51.8098C79.2941 49.6921 78.7017 47.3818 78.0908 45.1166C77.8571 44.2576 77.6008 43.821 76.6886 43.6057C70.9117 42.2384 67.8367 36.5271 69.9585 30.9901C71.1536 27.872 73.5685 25.9922 76.7952 25.2132C77.5188 25.0369 77.7689 24.7253 77.8919 24.018C79.29 15.939 83.3859 9.52048 90.1304 4.91005C94.0061 2.22104 98.5592 0.674715 103.271 0.447218C109.509 0.164319 115.766 0.24222 122.014 0.205321C123.449 0.205321 124.894 0.176622 126.303 0.373422C129.937 0.88592 132.532 3.92605 132.549 7.61604C132.575 13.0485 132.575 18.481 132.549 23.9135C132.549 24.7027 132.754 25.0184 133.545 25.2152C139.523 26.6953 142.637 32.6752 140.259 38.1733C138.986 41.117 136.69 42.962 133.539 43.6406C132.76 43.8087 132.438 44.0977 132.291 44.93C130.919 52.6236 126.733 58.5092 120.282 62.724C118.556 63.8535 118.125 65.1265 118.279 66.9039C118.445 68.8124 118.463 68.7694 120.37 69.0318C130.907 70.4832 138.566 75.9403 143.233 85.5322C143.309 85.6859 143.375 85.8438 143.438 86.0016C144.258 87.9963 144.258 87.9881 146.479 87.9983C147.914 87.9983 149.349 88.0598 150.784 88.0516C154.281 88.0311 157.495 91.2148 157.344 95.3681C157.274 97.2131 157.323 99.0581 157.323 100.903C157.323 116.586 157.251 132.268 157.37 147.952C157.403 152.143 154.262 155.537 149.814 155.517C133.209 155.408 116.604 155.474 99.9991 155.476H63.6158C60.0016 155.476 57.597 153.793 56.5043 150.439C56.3336 149.886 56.2479 149.31 56.2501 148.731C56.2235 145.759 56.2296 142.786 56.2358 139.814C56.2358 138.689 56.6929 138.082 57.5027 138.063C58.3637 138.045 58.8495 138.664 58.8557 139.855C58.87 142.59 58.9807 145.328 58.8352 148.055C58.6896 150.781 60.8052 152.93 63.6629 152.915C77.8427 152.846 92.0225 152.883 106.202 152.883C120.757 152.883 135.312 152.844 149.867 152.92C152.585 152.934 154.771 150.956 154.754 148C154.668 132.077 154.715 116.155 154.717 100.235C154.717 98.4595 154.732 96.6842 154.705 94.9048C154.67 92.5596 153.065 90.8396 150.738 90.5998C150.328 90.5588 149.918 90.569 149.508 90.569H87.4941C87.1518 90.5904 86.8082 90.5753 86.4691 90.5239C86.1596 90.4781 85.8792 90.3161 85.685 90.0708C85.4907 89.8256 85.3973 89.5155 85.4236 89.2037C85.438 88.4637 85.891 88.0885 86.59 88.027C87.1333 87.9778 87.6827 87.986 88.23 87.986H141.278C141.199 87.6322 141.097 87.2836 140.974 86.9426C138.41 81.1083 134.222 76.8484 128.506 74.0502C125.681 72.6664 122.692 71.9182 119.589 71.5307C118.769 71.4282 118.359 71.5451 118.123 72.5209C117.438 75.3909 115.337 77.1313 112.793 78.2035C107.596 80.3826 102.463 80.235 97.6231 77.1231C95.8007 75.9505 94.4354 74.329 94.0459 72.1068C93.9147 71.3585 93.4637 71.4754 93.0024 71.5184C90.2115 71.7857 87.4738 72.4548 84.8742 73.5049C84.4109 73.6894 83.6586 73.5561 83.2342 73.2773C82.9554 73.0969 82.8509 72.322 82.9903 71.9284C83.1297 71.5348 83.6422 71.2622 84.0563 71.0859C87.0168 69.827 90.1677 69.0744 93.3776 68.8596C93.5176 68.843 93.6565 68.8183 93.7937 68.7858ZM132.561 27.8659C132.561 28.6859 132.561 29.4772 132.561 30.2582C132.539 33.9995 129.691 36.9945 126.139 37.0006C122.449 37.0006 119.579 34.1184 119.568 30.3218C119.552 27.1791 119.568 24.0365 119.558 20.8918C119.558 20.531 119.527 20.1702 119.503 19.5983C110.38 24.5572 100.848 25.6375 90.8028 23.6983C90.8028 24.1903 90.8028 24.5592 90.8028 24.9282C90.8028 26.8019 90.8335 28.6777 90.7761 30.5493C90.6818 33.569 88.5211 36.2052 85.6737 36.8489C81.7275 37.7407 77.9104 34.7518 77.7751 30.6477C77.7443 29.7109 77.7751 28.774 77.7751 27.7449C77.4376 27.7836 77.1023 27.8397 76.7706 27.913C72.8264 29.0528 70.7641 33.7596 72.6255 37.425C73.8555 39.8604 75.9198 41.115 78.6033 41.2872C79.7431 41.3589 80.3109 41.8058 80.3642 42.9272C80.3765 43.1978 80.4483 43.4663 80.4831 43.7369C80.9732 47.4827 82.3964 51.0452 84.6221 54.0976C89.0808 60.2476 95.1119 63.8392 102.719 64.6161C109.263 65.2824 115.224 63.6178 120.409 59.6244C125.827 55.4527 129.127 49.9484 129.976 43.0748C130.161 41.5803 130.333 41.4348 131.821 41.3138C136.099 40.9715 139.023 37.3102 138.33 33.1856C137.83 30.3443 134.874 27.7859 132.561 27.87V27.8659ZM129.964 18.9915C129.964 15.2673 129.964 11.5425 129.964 7.81695C129.964 5.26471 128.277 3.30696 125.763 2.91746C125.528 2.87352 125.289 2.8468 125.05 2.83751C117.947 2.88261 110.835 2.75551 103.74 3.0425C98.7723 3.21407 93.9937 4.9906 90.1201 8.10599C82.9575 13.8583 79.6795 21.4063 80.3376 30.6047C80.5262 33.2697 83.1092 35.008 85.524 34.1573C87.0041 33.6346 88.1255 32.0868 88.1583 30.3484C88.2075 27.6506 88.1726 24.9528 88.1993 22.2551C88.2136 20.9246 88.8286 20.4736 90.1078 20.7504C91.4731 21.0456 92.8343 21.39 94.2078 21.5704C102.84 22.7635 111.005 21.3941 118.623 17.0604C119.3 16.675 119.595 16.2404 119.574 15.4388C119.535 13.9218 119.89 13.4155 120.823 13.4052C121.756 13.395 122.118 13.9464 122.121 15.4122C122.121 20.367 122.121 25.3218 122.121 30.2767C122.121 32.1729 123.371 33.8088 125.087 34.2311C127.637 34.8584 129.913 33.0319 129.939 30.2623C129.99 26.5129 129.964 22.7532 129.964 18.9956V18.9915ZM96.4034 65.9588C96.5059 68.1318 96.4259 70.0896 96.7621 71.9715C96.9282 72.9083 97.6744 73.962 98.4698 74.5299C102.799 77.6336 107.463 77.8283 112.205 75.5795C114.033 74.7123 115.561 73.388 115.69 71.1351C115.796 69.4008 115.788 67.6501 115.813 65.9179C115.813 65.7416 115.69 65.5632 115.597 65.3172C112.611 66.5468 109.428 67.234 106.2 67.3467C102.878 67.4658 99.5615 66.9959 96.4034 65.9588Z" fill="white"/>
<path d="M72.7306 72.052C73.7064 72.052 74.6268 72.052 75.5473 72.052C79.2619 72.0909 81.9678 74.7498 81.974 78.4643C81.9863 84.7476 81.9227 91.0308 81.9248 97.3243C81.9248 107.711 81.9426 118.098 81.9781 128.484C81.9781 132.584 79.3828 135.233 75.2849 135.235C67.4272 135.235 59.5676 135.255 51.7099 135.235C46.423 135.22 41.1361 135.106 35.8491 135.112C26.1527 135.112 16.4582 135.198 6.76178 135.229C2.59824 135.241 0.0829122 132.703 0.0849622 128.513C0.0931622 118.058 0.105461 107.603 0.121861 97.148C0.121861 91.0677 0.0931517 84.9874 0.0870017 78.9031C0.0870017 74.5981 2.6905 72.013 6.96883 72.0335C10.1115 72.0479 13.2562 72.0048 16.3988 72.0602C17.2577 72.0766 17.5653 71.8183 17.7231 70.9716C18.4549 67.0521 22.0957 64.7909 25.8431 65.9922C28.1658 66.7363 29.5618 68.4809 30.0292 70.8589C30.2096 71.7793 30.5376 72.0745 31.4827 72.0684C39.3751 72.0274 47.2676 72.0376 55.1601 72.0335C56.4229 72.0335 57.6857 72.013 58.9464 72.0335C59.6209 72.052 59.9284 71.9044 60.0575 71.1192C60.7668 66.8552 65.0923 64.4424 68.8458 66.1992C70.7052 67.0725 71.8757 68.5957 72.4272 70.576C72.542 71.0044 72.6055 71.4513 72.7306 72.052ZM41.1012 86.4265H4.01685C2.67615 86.4265 2.67205 86.4265 2.67205 87.7857C2.67205 92.4966 2.67205 97.2068 2.67205 101.916C2.67205 110.8 2.67205 119.683 2.67205 128.566C2.67205 131.231 4.0763 132.625 6.70644 132.633C17.3664 132.659 28.0209 132.683 38.6699 132.705C43.3849 132.705 48.0999 132.646 52.8026 132.637C60.2851 132.625 67.7662 132.625 75.2459 132.637C77.9109 132.637 79.3726 131.188 79.3746 128.523C79.3746 114.857 79.3746 101.195 79.3746 87.5397C79.3746 86.7033 79.145 86.4081 78.2779 86.4224C75.3423 86.4696 72.4067 86.445 69.4629 86.445L41.1012 86.4265ZM17.4792 74.6985C13.5637 74.6985 9.77528 74.637 5.99919 74.7231C4.08654 74.7682 2.76634 76.2791 2.70074 78.2491C2.65154 79.7518 2.7356 81.2585 2.6659 82.7591C2.6249 83.6529 2.98775 83.8579 3.79955 83.8456C6.46454 83.8087 9.12953 83.8312 11.7945 83.8312H66.8184C70.6416 83.8312 74.4669 83.8046 78.2984 83.8312C79.1409 83.8312 79.4525 83.5791 79.4177 82.7222C79.3623 81.3938 79.4177 80.0572 79.4033 78.7268C79.3808 76.1807 77.8658 74.6719 75.3033 74.6637C71.5108 74.6637 67.7183 74.6637 63.93 74.6637H62.6405V78.5135H63.4257C64.381 78.5135 65.3403 78.4664 66.2956 78.5135C67.0705 78.5607 67.5933 79.0097 67.5605 79.8338C67.5297 80.6128 67.1013 81.1109 66.2628 81.113C62.9521 81.113 59.6393 81.1314 56.3286 81.0986C55.9616 81.0986 55.4512 80.9264 55.2687 80.6579C55.0391 80.3196 54.8587 79.6574 55.0494 79.3889C55.369 78.942 55.8511 78.638 56.3921 78.5423C57.5278 78.4193 58.682 78.5033 59.9489 78.5033C59.9489 77.8145 59.9489 77.2733 59.9489 76.7362C59.9489 74.6452 59.9489 74.6452 57.8661 74.6452H21.1835H20.1585C20.1585 75.7256 20.1892 76.6809 20.1482 77.63C20.1195 78.3188 20.4106 78.5197 21.0584 78.4972C22.0137 78.4623 22.9731 78.4603 23.9284 78.5197C24.7054 78.5669 25.263 79.0527 25.2261 79.8297C25.2296 80.0033 25.1969 80.1759 25.1302 80.3363C25.0635 80.4967 24.9641 80.6414 24.8384 80.7613C24.7127 80.8813 24.5634 80.9737 24.4 81.0328C24.2367 81.0919 24.0628 81.1164 23.8895 81.1047C20.5418 81.1047 17.1963 81.0843 13.8445 81.0474C13.5329 81.0474 13.086 80.9346 12.9466 80.7193C12.717 80.3606 12.4649 79.7477 12.6248 79.4709C12.8667 79.0466 13.4243 78.5997 13.8917 78.5484C15.0602 78.4172 16.2512 78.5054 17.5079 78.5054L17.4792 74.6985ZM27.5487 71.9659C27.2535 69.5797 25.4987 68.0196 23.5574 68.2636C21.6632 68.5034 20.1175 70.2685 20.3614 71.9659H27.5487ZM62.6344 71.9659H69.918C69.7478 69.8523 68.2308 68.2882 66.3633 68.2329C64.4958 68.1775 62.9009 69.7252 62.6405 71.97L62.6344 71.9659Z" fill="white"/>
<path d="M96.4258 121.783C96.4115 115.947 100.936 111.398 106.78 111.371C108.14 111.367 109.487 111.631 110.744 112.149C112.002 112.666 113.144 113.427 114.107 114.386C115.07 115.346 115.835 116.486 116.356 117.742C116.878 118.997 117.147 120.344 117.147 121.703C117.158 123.064 116.9 124.413 116.388 125.674C115.877 126.935 115.121 128.083 114.166 129.051C113.21 130.02 112.073 130.791 110.819 131.319C109.565 131.848 108.219 132.124 106.858 132.132C101.02 132.132 96.4422 127.597 96.4258 121.783ZM106.735 129.52C111.026 129.52 114.542 126.059 114.538 121.83C114.538 117.464 111.106 113.979 106.805 113.965C102.42 113.95 99.015 117.411 99.015 121.861C99.0273 126.057 102.512 129.516 106.735 129.52Z" fill="white"/>
<circle cx="64.6135" cy="120.555" r="3.19001" stroke="white" stroke-width="1.65354"/>
<circle cx="35.4893" cy="30.8464" r="26.3008" stroke="#EB9F2D" stroke-width="2.48032"/>
<path d="M35.6076 31.805C37.5694 31.805 39.4021 31.7927 41.2369 31.805C42.2967 31.805 42.8523 32.2929 42.7928 33.1416C42.7416 33.857 42.43 34.4023 41.6038 34.4023C39.1438 34.4023 36.6838 34.4187 34.2239 34.3777C33.1886 34.3593 32.9775 33.5987 32.9795 32.7377C32.9918 28.9821 33.0048 25.2279 33.0185 21.4751C33.0185 20.4173 33.0041 19.3574 33.0185 18.2996C33.0328 17.2418 33.4961 16.6412 34.2731 16.6186C35.1074 16.594 35.6445 17.2049 35.6424 18.2894C35.6424 22.3894 35.6117 26.4893 35.5932 30.577C35.6055 30.944 35.6076 31.3109 35.6076 31.805Z" fill="#EB9F2D"/>
<path d="M40.0253 109.689C41.4603 108.166 42.6493 106.905 43.8424 105.648C44.0283 105.446 44.2343 105.263 44.4574 105.103C45.0724 104.671 45.6874 104.693 46.2081 105.257C46.7288 105.821 46.6571 106.466 46.1507 106.995C44.8305 108.375 43.4693 109.716 42.1368 111.095C40.6567 112.618 40.3144 113.529 38.1147 111.126C37.4259 110.374 36.6531 109.691 35.95 108.953C35.4108 108.387 35.3063 107.711 35.8556 107.108C36.4522 106.466 37.2025 106.567 37.7724 107.12C38.5145 107.852 39.1602 108.693 40.0253 109.689Z" fill="#EB9F2D"/>
<path d="M40.0253 96.7222C41.4603 95.199 42.6493 93.9383 43.8424 92.6816C44.0283 92.4793 44.2343 92.2966 44.4574 92.1363C45.0724 91.7038 45.6874 91.7263 46.2081 92.2901C46.7288 92.8538 46.6571 93.4996 46.1507 94.0285C44.8305 95.4081 43.4693 96.7488 42.1368 98.1285C40.6567 99.6516 40.3144 100.562 38.1147 98.1592C37.4259 97.4069 36.6531 96.7242 35.95 95.9862C35.4108 95.4204 35.3063 94.7439 35.8556 94.1412C36.4522 93.4996 37.2025 93.6 37.7724 94.1535C38.5145 94.8854 39.1602 95.7259 40.0253 96.7222Z" fill="#EB9F2D"/>
<path d="M40.0253 122.339C41.4603 120.816 42.6493 119.555 43.8424 118.299C44.0283 118.097 44.2343 117.914 44.4574 117.754C45.0724 117.321 45.6874 117.344 46.2081 117.907C46.7288 118.471 46.6571 119.117 46.1507 119.646C44.8305 121.025 43.4693 122.366 42.1368 123.746C40.6567 125.269 40.3144 126.179 38.1147 123.776C37.4259 123.024 36.6531 122.341 35.95 121.603C35.4108 121.038 35.3063 120.361 35.8556 119.758C36.4522 119.117 37.2025 119.217 37.7724 119.771C38.5145 120.503 39.1602 121.343 40.0253 122.339Z" fill="#EB9F2D"/>
<path d="M63.6141 109.581L66.9597 106.096C67.1012 105.948 67.2385 105.795 67.3861 105.653C68.3783 104.704 69.1635 104.554 69.7785 105.192C70.3935 105.829 70.2192 106.563 69.2291 107.56C67.7941 109.015 66.3591 110.477 64.8954 111.918C64.0221 112.781 63.4132 112.758 62.544 111.899C61.5723 110.94 60.5781 110.005 59.6351 109.029C58.9401 108.302 58.9094 107.57 59.51 107.064C60.2111 106.473 60.8938 106.586 61.4965 107.236C62.1648 107.957 62.8187 108.697 63.6141 109.581Z" fill="#EB9F2D"/>
<path d="M63.6141 96.6141L66.9597 93.1291C67.1012 92.9815 67.2385 92.8278 67.3861 92.6863C68.3783 91.7372 69.1635 91.5875 69.7785 92.2251C70.3935 92.8626 70.2192 93.5965 69.2291 94.5928C67.7941 96.0483 66.3591 97.51 64.8954 98.9511C64.0221 99.8142 63.4132 99.7916 62.544 98.9327C61.5723 97.9733 60.5781 97.0385 59.6351 96.0627C58.9401 95.3349 58.9094 94.6031 59.51 94.0967C60.2111 93.5063 60.8938 93.6191 61.4965 94.2689C62.1648 94.9905 62.8187 95.7306 63.6141 96.6141Z" fill="#EB9F2D"/>
<path d="M15.5418 110.196L18.8218 106.916C19.0883 106.652 19.3425 106.373 19.6234 106.127C20.3081 105.529 21.1711 105.471 21.6323 106.035C22.1715 106.699 22.0424 107.388 21.4868 107.97C20.4024 109.1 19.2851 110.198 18.1843 111.312C17.682 111.82 17.2105 112.363 16.6755 112.835C15.7981 113.608 15.2159 113.587 14.3795 112.775C13.3545 111.783 12.3561 110.758 11.3393 109.756C10.6792 109.108 10.8125 108.47 11.3844 107.884C11.9564 107.298 12.557 107.408 13.1085 107.909C13.9203 108.63 14.6952 109.389 15.5418 110.196Z" fill="#EB9F2D"/>
<path d="M15.5418 97.2296L18.8218 93.9496C19.0883 93.6851 19.3425 93.4063 19.6234 93.1603C20.3081 92.5617 21.1711 92.5043 21.6323 93.0681C22.1715 93.7323 22.0424 94.4211 21.4868 95.0033C20.4024 96.1328 19.2851 97.2316 18.1843 98.3447C17.682 98.8531 17.2105 99.3964 16.6755 99.8679C15.7981 100.641 15.2159 100.62 14.3795 99.8084C13.3545 98.8162 12.3561 97.7913 11.3393 96.7888C10.6792 96.141 10.8125 95.5035 11.3844 94.9172C11.9564 94.3309 12.557 94.4416 13.1085 94.9418C13.9203 95.6634 14.6952 96.4219 15.5418 97.2296Z" fill="#EB9F2D"/>
<path d="M15.5418 122.847L18.8218 119.567C19.0883 119.302 19.3425 119.024 19.6234 118.778C20.3081 118.179 21.1711 118.122 21.6323 118.685C22.1715 119.349 22.0424 120.038 21.4868 120.62C20.4024 121.75 19.2851 122.849 18.1843 123.962C17.682 124.47 17.2105 125.014 16.6755 125.485C15.7981 126.258 15.2159 126.237 14.3795 125.426C13.3545 124.433 12.3561 123.408 11.3393 122.406C10.6792 121.758 10.8125 121.121 11.3844 120.534C11.9564 119.948 12.557 120.059 13.1085 120.559C13.9203 121.281 14.6952 122.039 15.5418 122.847Z" fill="#EB9F2D"/>
</svg>
