<svg width="101" height="105" viewBox="0 0 101 105" fill="none" xmlns="http://www.w3.org/2000/svg">
<path d="M50.2116 0.821533C53.5539 1.13615 56.9246 1.28319 60.2262 1.82179C62.6045 2.20822 64.9119 3.05288 67.2122 3.8035C70.8948 5.0004 74.161 6.95477 77.1507 9.32462C80.6991 12.1594 83.6579 15.618 85.8699 19.517C87.3939 22.1622 88.7213 24.915 89.5259 27.8628C90.1231 30.0497 90.6672 32.2486 91.2414 34.4389C92.2621 38.334 92.3596 42.3145 92.4163 46.2984C92.4394 47.8766 92.3986 47.9553 93.9386 48.3041C96.0653 48.7811 97.5291 50.0362 98.7501 51.6639C99.7904 53.0489 99.9783 54.6784 100.007 56.2908C100.074 60.1653 100.063 64.0433 100.015 67.9178C99.9836 70.4364 99.1294 72.6387 97.0417 74.3007C95.2359 75.7404 93.1093 76.1388 90.8568 76.1559C87.9345 76.1798 85.0086 76.2225 82.088 76.173C81.1664 76.1576 80.7535 76.6312 80.4062 77.2775C79.0434 79.8115 77.778 82.3968 76.3301 84.8812C73.4007 89.9048 70.0353 94.6205 65.5534 98.4968C63.0724 100.648 60.306 102.359 57.1267 103.484C54.323 104.486 51.2971 104.766 48.3472 104.297C44.8028 103.746 41.5792 102.299 38.625 100.306C33.4378 96.8023 29.3281 92.2951 25.8244 87.2767C23.7439 84.2999 21.9256 81.1486 20.0116 78.0692C19.7564 77.6605 19.6572 77.1219 19.3276 76.8039C18.9979 76.4859 18.4415 76.1781 17.986 76.1678C15.5369 76.1131 13.0841 76.149 10.6332 76.1678C6.61033 76.1866 3.41683 74.711 1.39299 71.2657C0.579553 69.8807 0.363345 68.2974 0.340307 66.7295C0.292458 63.6517 0.306637 60.574 0.331448 57.4963C0.359803 54.0543 1.7173 51.2587 4.78319 49.3676C5.39939 48.9849 6.07055 48.6917 6.77514 48.4973C7.59034 48.2802 7.96073 47.8852 7.96605 47.061C7.982 45.0673 7.94479 43.0651 8.12909 41.0766C8.32403 38.9666 8.69442 36.8652 9.08608 34.7775C9.45115 32.8271 9.88888 30.8893 10.3993 28.964C10.7054 27.7533 11.1266 26.5725 11.6575 25.4365C12.8502 22.9521 14.0004 20.4267 15.4447 18.0842C18.5025 13.0571 22.891 8.90503 28.1602 6.05367C30.8479 4.60644 33.7031 3.4701 36.6667 2.66818C41.0972 1.43538 45.6074 0.978832 50.1956 1.04894L50.2116 0.821533ZM22.1525 62.0616C22.1525 65.5377 22.195 69.0155 22.133 72.4916C22.0743 73.9574 22.4355 75.4104 23.1768 76.691C25.2609 80.3142 27.4903 83.828 30.0511 87.1605C33.1578 91.206 36.5887 94.9078 40.9359 97.7615C42.8977 99.0491 44.9783 100.142 47.2573 100.649C49.3733 101.123 51.5106 101.453 53.8003 100.913C56.0846 100.394 58.261 99.5047 60.2369 98.283C63.0617 96.5202 65.3762 94.2204 67.455 91.6881C68.295 90.6622 69.1102 89.6209 69.8847 88.5523C70.0619 88.2975 70.0424 87.9025 70.1133 87.5725C69.828 87.6358 69.5373 87.6837 69.2591 87.7675C66.6859 88.5369 64.1569 89.5081 61.5323 90.0381C58.4949 90.6515 55.3823 90.8438 52.2886 90.6092C51.4386 90.543 50.5953 90.4121 49.7667 90.2177C48.7495 89.9783 48.3968 89.3816 48.5493 88.3676C48.6155 87.9866 48.8225 87.6415 49.132 87.3963C49.4415 87.1512 49.8325 87.0224 50.2328 87.0339C50.9446 87.0183 51.6565 87.0653 52.3595 87.1741C55.1188 87.6666 57.8533 87.1844 60.547 86.8099C62.8367 86.4919 65.0555 85.613 67.2707 84.8847C69.5976 84.1186 71.648 82.8465 73.5921 81.4C75.3235 80.1142 76.0253 78.1889 77.0709 76.4585C78.1856 74.6102 78.2494 72.666 78.237 70.633C78.1945 63.7936 78.237 56.9542 78.2016 50.1148C78.2016 49.0992 78.6517 48.4529 79.497 48.0869C79.9755 47.8783 80.5923 47.9536 81.1487 47.9279C81.7052 47.9023 82.2705 47.9792 82.2882 47.2064C82.3042 46.4899 81.8151 46.2882 81.2001 46.23C80.8457 46.1959 80.4912 46.2112 80.1368 46.1565C77.9641 45.8146 75.7878 45.4846 73.6222 45.0998C72.2949 44.8622 70.9746 44.5749 69.672 44.2347C67.2601 43.6037 64.9509 43.5063 62.6931 44.828C61.7178 45.4105 60.6403 45.8162 59.5138 46.0249C57.6689 46.3326 55.817 46.4882 53.8906 46.2574C50.9559 45.9103 48.5404 44.6587 46.2365 43.0549C43.6491 41.2612 41.6288 38.917 39.5784 36.607C38.5541 35.4546 37.7513 35.4101 36.5799 36.4189C36.4257 36.5506 36.2839 36.6959 36.1386 36.8378C33.918 39.0162 31.2048 40.0866 28.0556 40.0182C23.9069 39.9258 20.8215 41.8084 18.4734 44.8793C17.9931 45.5085 18.2253 46.6575 18.1863 47.5706C18.1863 47.6749 18.5265 47.8561 18.7321 47.8937C19.0542 47.9323 19.3793 47.9426 19.7033 47.9245C21.3479 47.9416 22.1542 48.6957 22.156 50.2585C22.1584 54.1945 22.1572 58.1289 22.1525 62.0616ZM50.582 10.2633C48.7336 10.4668 47.275 10.713 45.8077 10.7763C42.4104 10.9148 39.2045 11.7441 36.0766 12.9751C32.9377 14.2079 30.0913 16.0432 27.71 18.3697C24.256 21.721 22.0603 25.7956 20.5273 30.2122C19.5566 32.9187 18.9242 35.7273 18.6435 38.5785C18.6187 38.8589 18.7428 39.153 18.7995 39.4334C19.0812 39.3359 19.3985 39.2898 19.6395 39.1359C22.0249 37.6107 24.6016 36.7267 27.5009 36.7558C30.1273 36.7831 32.3957 35.9641 34.1803 34.0285C36.1811 31.8553 40.1951 31.9665 42.2278 34.3227C43.961 36.2913 45.8114 38.161 47.7695 39.9224C49.3645 41.3826 51.3015 42.4701 53.4565 42.8599C56.315 43.3729 59.1062 43.0891 61.7255 41.5929C63.3754 40.6491 65.2557 40.0831 67.2193 40.3704C69.0163 40.6337 70.785 41.0851 72.566 41.4578C73.3954 41.6288 74.2212 41.8357 75.0471 41.9845C76.9504 42.3265 78.852 42.6992 80.7712 42.9352C82.1146 43.1061 82.2989 42.9266 82.1412 41.6665C81.8877 39.642 81.4571 37.6398 81.1735 35.6187C80.8687 33.4472 80.1669 31.3954 79.4474 29.3265C78.4431 26.4212 76.9907 23.6786 75.1392 21.191C71.3503 16.1127 66.1383 12.9837 59.9214 11.5508C56.7704 10.8207 53.4724 10.6446 50.582 10.2633ZM50.2275 4.0959C46.0978 4.19652 41.9942 4.75998 37.9994 5.77497C35.2419 6.46663 32.5866 7.49334 30.0972 8.83047C25.0429 11.5372 21.137 15.422 18.1526 20.1651C16.3946 22.9556 14.9379 25.8948 14.0766 29.07C13.3553 31.7237 12.4905 34.3705 12.0545 37.0618C11.5884 39.9463 11.4874 42.8907 11.3456 45.8163C11.2375 48.0562 11.3368 48.0596 13.6353 47.9382C14.2839 47.904 14.5214 47.6236 14.5214 47.032C14.5214 46.2061 14.4984 45.3751 14.5816 44.5544C14.9361 40.9381 14.9875 37.2841 16.0189 33.7481C16.5045 32.0879 16.7544 30.3472 17.3959 28.7502C18.3374 26.4359 19.4113 24.1737 20.6124 21.9741C22.3651 18.7254 24.8657 16.0478 27.8199 13.7822C30.9372 11.3884 34.4018 9.61017 38.2971 8.73473C40.8987 8.14996 43.5198 7.46431 46.1656 7.28649C51.5903 6.92229 56.9884 7.20783 62.2731 8.73131C65.2025 9.57426 67.9725 10.7096 70.5049 12.322C76.8405 16.3521 80.7571 22.1571 83.0627 28.9965C83.9488 31.6467 84.5194 34.4269 84.9572 37.1884C85.425 40.1344 85.6253 43.125 85.8255 46.1018C85.9514 47.9484 85.8539 47.9553 87.8069 47.9331C88.9889 47.9211 89.1218 47.8459 89.058 46.7174C88.9003 43.9081 88.7284 41.0971 88.475 38.2946C88.3438 36.8293 88.1666 35.3417 87.7661 33.9294C86.9863 31.209 86.1038 28.5091 85.1291 25.8486C83.8885 22.4529 81.9391 19.4059 79.6512 16.5778C74.2886 9.97779 67.0687 6.4059 58.6844 4.92004C55.8914 4.42589 53.04 4.35751 50.2257 4.0959H50.2275ZM87.7307 62.0154C87.7307 65.235 87.7448 68.4547 87.72 71.6761C87.72 72.4267 87.9628 72.7823 88.7833 72.7515C89.9335 72.7105 91.0872 72.7635 92.2373 72.7225C94.3941 72.6472 96.4569 70.7493 96.4906 68.6701C96.5508 64.2827 96.5455 59.8935 96.5012 55.5043C96.4835 53.6987 95.0126 51.9324 93.1766 51.5597C91.8669 51.2946 90.5006 51.2382 89.1573 51.1955C87.9398 51.1561 87.7395 51.416 87.7307 52.6095C87.7271 55.7454 87.7271 58.8807 87.7307 62.0154ZM12.6305 62.0462C12.6305 58.8573 12.6305 55.6701 12.6305 52.483C12.6305 51.4571 12.4018 51.1732 11.3421 51.204C10.2884 51.2351 9.23949 51.3541 8.20707 51.5597C5.95816 52.0042 3.91659 54.2441 3.87406 56.455C3.80317 60.1801 3.80317 63.9076 3.87406 67.6374C3.90773 69.2925 4.88244 70.5441 6.17791 71.5923C7.7463 72.8627 9.60533 72.7498 11.4679 72.7601C12.354 72.7601 12.6553 72.4557 12.6446 71.6077C12.611 68.4205 12.6305 65.2333 12.6305 62.0462ZM18.8491 62.0017C18.8491 58.8094 18.8491 55.6188 18.8491 52.4265C18.8491 51.5049 18.4769 51.1989 17.4632 51.1818C16.4495 51.1647 16.0224 51.4998 16.0224 52.3787C16.013 58.8476 16.0159 65.316 16.0313 71.7838C16.0313 72.0437 16.1642 72.5088 16.2918 72.5293C16.9723 72.6336 17.6936 72.7293 18.3546 72.6028C18.5868 72.56 18.826 71.8812 18.8314 71.4897C18.8668 68.3282 18.8491 65.1649 18.8491 62.0017ZM84.3475 62.0889C84.3475 58.8972 84.3475 55.7055 84.3475 52.5138C84.3475 51.5272 83.9718 51.1801 82.9564 51.1801C81.8931 51.1801 81.5173 51.4981 81.5173 52.4625C81.5103 58.8459 81.5103 65.2293 81.5173 71.6128C81.5173 72.6182 81.7194 72.755 83.0007 72.7498C84.1809 72.7498 84.344 72.6148 84.3458 71.5786C84.3505 68.4165 84.3511 65.2533 84.3475 62.0889Z" fill="white"/>
<path d="M32.1038 60.4116C30.7747 60.4116 29.4455 60.4235 28.1164 60.4116C27.0424 60.3979 26.3548 59.7584 26.3442 58.8026C26.3265 57.7544 26.8528 57.2107 28.0614 57.197C30.7481 57.1651 33.4347 57.1651 36.1214 57.197C37.2609 57.2107 38.0371 57.9169 38.0141 58.7821C37.991 59.6472 37.089 60.4081 36.0062 60.415C34.7018 60.4184 33.4028 60.4116 32.1038 60.4116Z" fill="white"/>
<path d="M66.1847 60.4101C64.8591 60.4101 63.5265 60.4238 62.2097 60.4101C61.0702 60.3947 60.4694 59.8356 60.4517 58.8285C60.4322 57.765 60.9408 57.2144 62.1282 57.199C64.8385 57.1625 67.5476 57.1625 70.2555 57.199C71.4535 57.2144 71.9426 57.7564 71.9107 58.8405C71.8823 59.8766 71.3064 60.4084 70.1615 60.4204C68.8359 60.4323 67.5033 60.4204 66.1847 60.4204V60.4101Z" fill="white"/>
</svg>
