<svg width="189" height="162" viewBox="0 0 189 162" fill="none" xmlns="http://www.w3.org/2000/svg">
<path d="M0.998047 143.358C1.97736 142.217 3.18124 141.861 4.70323 141.879C10.576 141.954 16.4519 141.911 22.3247 141.911H24.196C24.0858 141.633 23.9544 141.365 23.803 141.107C19.7922 135.733 19.5333 129.468 23.1231 123.747C28.5145 115.145 33.9205 106.555 39.3411 97.9761C39.9898 96.9538 40.3485 96.0003 40.0678 94.7748C39.8625 93.7001 39.7291 92.6128 39.6686 91.5202C39.2039 86.4649 42.3071 82.9259 47.3783 82.8384C51.2769 82.7696 55.1754 82.8384 59.074 82.8384C63.3874 82.8384 67.7038 82.804 72.0172 82.8634C73.0651 82.879 73.7419 82.5726 74.0164 81.5785C74.7067 79.0774 75.3741 76.5763 76.0187 74.0752C76.2432 73.1999 75.8814 72.7121 75.0113 72.2963C67.9159 68.8792 64.2638 63.2112 64.1827 55.2953C64.1452 51.5968 64.2575 47.8952 64.1359 44.1999C64.0956 43.0306 63.7504 41.8924 63.1347 40.8985C59.4826 35.3242 55.7275 29.8218 51.9818 24.3132C51.2426 23.2252 50.6562 22.156 51.386 20.8742C52.0815 19.6237 53.2792 19.5799 54.5049 19.5955C56.3076 19.6205 58.1103 19.5955 60.1937 19.5955C59.5699 18.4544 59.1083 17.5509 58.6062 16.6599C57.0031 13.8003 55.3927 10.9439 53.7751 8.09056C53.1856 7.05574 52.8987 5.86774 53.7751 5.06115C54.4425 4.45463 55.6277 3.9794 56.4978 4.09508C68.8578 5.74266 81.2084 7.48406 93.5559 9.24107C105.451 10.9324 113.894 20.6929 113.931 32.77C113.956 40.22 113.978 47.6701 113.931 55.1233C113.881 63.2925 110.111 69.1012 102.675 72.4589C101.836 72.8403 101.534 73.328 101.74 74.1221C102.364 76.6232 103.056 79.1243 103.748 81.6254C104.029 82.6352 104.743 82.8759 105.769 82.8759C113.878 82.8353 121.987 82.8759 130.096 82.8477C132.875 82.8477 135.192 83.7544 136.83 86.0804C137.446 86.9279 137.87 87.8999 138.072 88.9285C138.275 89.9571 138.251 91.0176 138.003 92.0361C137.335 94.9811 137.897 97.4478 139.624 100.052C144.745 107.771 149.561 115.684 154.479 123.543C158.222 129.543 158.032 135.38 153.906 141.167C153.796 141.323 153.703 141.479 153.428 141.936H172.999C173.519 141.919 174.04 141.936 174.558 141.986C175.921 142.164 176.916 143.258 176.807 144.524C176.692 145.884 175.937 146.713 174.549 146.894C174.03 146.937 173.51 146.948 172.99 146.928C116.851 146.928 60.7114 146.937 4.57223 146.953C3.04088 146.953 1.80272 146.669 1.01366 145.262L0.998047 143.358ZM50.8995 141.739H126.924C127.068 140.619 127.199 139.641 127.321 138.659C129.235 123.107 131.153 107.554 133.072 92.0017C133.483 88.7003 132.785 87.8312 129.469 87.8312H49.9607C49.0251 87.8312 48.0894 87.7936 47.1538 87.8312C45.4104 87.9218 44.509 88.9473 44.6057 90.6793C44.6306 91.1482 44.6899 91.6172 44.7461 92.0799L48.1237 119.36C49.0438 126.804 49.967 134.242 50.8964 141.739H50.8995ZM58.3037 24.5696C58.7684 25.3199 59.0678 25.842 59.4046 26.3422C62.3051 30.6597 65.2649 34.9396 68.0843 39.3134C68.7046 40.3129 69.054 41.4573 69.098 42.6336C69.2165 47.0573 69.0574 51.4874 69.1822 55.9112C69.3974 63.4144 75.108 68.8886 82.562 68.9292C86.8723 68.9522 91.1835 68.9522 95.4958 68.9292C103.131 68.9011 108.929 63.1424 108.963 55.486C108.997 47.8295 109.004 40.1669 108.963 32.5167C108.984 28.0415 107.378 23.7119 104.446 20.3369C101.514 16.9618 97.4569 14.7723 93.032 14.1775C83.5725 12.8145 74.1037 11.5139 64.6505 10.1946C63.3499 10.0133 62.0462 9.88195 60.5523 9.68499C60.7519 10.1227 60.8206 10.3103 60.9204 10.4853C63.1379 14.4308 65.3741 18.3669 67.5791 22.3217C68.3962 23.7911 68.1405 25.1166 66.9553 25.9045C65.7702 26.6923 64.6037 26.4266 63.5028 25.2479C63.2408 24.9697 62.879 24.607 62.5671 24.5883C61.2291 24.5258 59.8974 24.5696 58.3005 24.5696H58.3037ZM134.765 118.863C137.401 118.991 139.88 119.076 142.353 119.242C144.34 119.376 145.432 120.386 145.351 121.883C145.266 123.49 144 124.35 141.979 124.247C139.852 124.137 137.722 124.134 135.598 124.003C134.372 123.928 134.02 124.478 133.895 125.61C133.433 129.802 132.878 133.982 132.373 138.168C132.226 139.378 132.127 140.591 131.989 141.92C134.403 141.92 136.58 141.958 138.757 141.92C140.672 141.876 142.65 142.014 144.493 141.607C151.152 140.107 154.208 132.563 150.578 126.676C146.236 119.639 141.792 112.657 137.385 105.658C137.112 105.294 136.818 104.946 136.505 104.616C135.885 109.553 135.333 114.18 134.762 118.863H134.765ZM45.8002 141.707C45.1328 136.283 44.4186 130.972 43.8572 125.641C43.7106 124.244 43.1492 123.906 41.8985 123.981C39.6114 124.119 37.3242 124.203 35.0371 124.234C33.512 124.256 32.5015 123.296 32.4173 121.908C32.3331 120.52 33.2094 119.46 34.719 119.282C36.0601 119.123 37.4105 119.035 38.7579 118.97C40.1052 118.904 41.5056 118.97 42.9933 118.97C42.3882 114.077 41.8206 109.45 41.2311 104.692C40.9473 104.892 40.7882 104.948 40.7165 105.06C36.0632 112.461 31.2789 119.782 26.819 127.298C23.4381 132.997 27.0841 140.704 33.6804 141.604C37.5883 142.145 41.6303 141.707 45.7971 141.707H45.8002ZM81.2926 73.9908C80.6377 76.939 79.9983 79.8058 79.3465 82.7196H98.4587L96.5594 73.9908H81.2926Z" fill="white"/>
<path d="M188.13 36.1244C187.834 37.118 187.485 38.0948 187.085 39.0507C184.783 43.8684 180.966 46.4445 175.61 46.4976C169.011 46.5633 162.412 46.4976 155.812 46.5602C154.972 46.6085 154.178 46.9619 153.579 47.5543C150.264 51.0777 147.029 54.6793 143.798 58.2808C142.931 59.2469 141.989 59.8878 140.679 59.4188C139.267 58.9186 138.977 57.7494 138.986 56.3988C139.008 53.4788 138.964 50.5619 139.005 47.645C139.005 46.7821 138.764 46.3945 137.879 46.1319C131.841 44.4218 128.441 39.9011 128.419 33.5952C128.394 27.0299 128.419 20.4646 128.419 13.8992C128.419 6.90561 131.697 2.60376 138.453 0.687307C138.597 0.631836 138.736 0.562736 138.867 0.480957H177.853C178.283 0.634148 178.711 0.793582 179.147 0.940521C180.824 1.41674 182.382 2.24506 183.715 3.3705C185.049 4.49594 186.128 5.89277 186.882 7.46833C187.354 8.55623 187.77 9.66753 188.13 10.7979V36.1244ZM143.97 50.5869C146.465 47.8263 148.682 45.4847 150.788 43.0618C151.212 42.541 151.753 42.1281 152.366 41.8565C152.98 41.5848 153.648 41.4622 154.318 41.4986C161.279 41.5486 168.241 41.5361 175.214 41.5142C180.039 41.4986 183.139 38.4129 183.152 33.6234C183.152 26.8017 183.18 19.98 183.152 13.1583C183.13 8.65011 179.968 5.49249 175.467 5.48624C163.988 5.46331 152.507 5.46331 141.026 5.48624C136.694 5.48624 133.472 8.61259 133.434 12.9176C133.372 19.9456 133.372 26.9746 133.434 34.0048C133.472 38.3191 136.488 41.3142 140.789 41.508C143.284 41.6268 143.973 42.3427 143.985 44.8719C143.995 46.6196 143.97 48.3672 143.97 50.5869Z" fill="white"/>
<path d="M147.273 161.804C147.014 161.554 146.737 161.322 146.503 161.053C146.276 160.82 146.098 160.545 145.979 160.242C145.86 159.939 145.802 159.616 145.809 159.29C145.816 158.965 145.888 158.644 146.02 158.347C146.152 158.049 146.341 157.781 146.578 157.558C147.025 157.116 147.625 156.863 148.254 156.853C148.882 156.842 149.49 157.075 149.952 157.502C150.433 157.944 150.722 158.558 150.757 159.211C150.792 159.865 150.57 160.506 150.139 160.997C149.918 161.272 149.684 161.535 149.456 161.804H147.273Z" fill="white"/>
<path d="M117.332 161.804C117.098 161.539 116.855 161.282 116.63 161.01C116.195 160.522 115.968 159.882 115.999 159.228C116.029 158.574 116.314 157.958 116.793 157.512C117.253 157.083 117.86 156.847 118.489 156.854C119.118 156.861 119.72 157.11 120.17 157.549C120.642 158.003 120.916 158.624 120.935 159.279C120.955 159.934 120.717 160.57 120.273 161.051C120.036 161.317 119.768 161.554 119.515 161.804H117.332Z" fill="white"/>
<path d="M132.3 161.804C132.053 161.548 131.794 161.301 131.564 161.035C131.342 160.798 131.169 160.519 131.054 160.215C130.94 159.91 130.887 159.586 130.898 159.261C130.909 158.936 130.984 158.617 131.118 158.321C131.253 158.025 131.445 157.758 131.682 157.537C132.135 157.1 132.739 156.855 133.368 156.855C133.997 156.855 134.601 157.1 135.054 157.537C135.533 157.98 135.818 158.597 135.844 159.25C135.871 159.904 135.639 160.541 135.197 161.023C134.966 161.292 134.72 161.548 134.483 161.811L132.3 161.804Z" fill="white"/>
<path d="M23.0707 52.3352C23.0707 51.5036 23.0083 50.6657 23.0707 49.8341C23.1954 48.4429 24.0438 47.6269 25.4005 47.5581C26.7572 47.4894 27.7988 48.2241 27.9173 49.5934C28.0811 51.4573 28.0811 53.332 27.9173 55.1958C27.7988 56.5527 26.7696 57.3155 25.4223 57.2436C24.0749 57.1716 23.2017 56.3838 23.0863 54.9801C23.0145 54.1078 23.0738 53.22 23.0707 52.3352Z" fill="white"/>
<path d="M23.0532 35.6768C23.0532 34.8952 23.0126 34.1137 23.0532 33.3383C23.0619 32.7071 23.3103 32.1029 23.7478 31.6487C24.1852 31.1945 24.7789 30.9245 25.4079 30.8935C26.0393 30.8545 26.6609 31.0644 27.1399 31.4786C27.6189 31.8928 27.9174 32.4783 27.9716 33.1101C28.0877 34.8798 28.0877 36.6552 27.9716 38.4249C27.9534 38.7395 27.8719 39.0472 27.7319 39.3294C27.592 39.6116 27.3965 39.8625 27.1573 40.0669C26.918 40.2714 26.64 40.4252 26.3399 40.5191C26.0398 40.613 25.7238 40.6451 25.411 40.6133C24.0387 40.507 23.206 39.7286 23.0844 38.3436C23.0064 37.4651 23.0844 36.5772 23.0844 35.6925L23.0532 35.6768Z" fill="white"/>
<path d="M32.2204 46.5287C30.2867 46.5287 29.1016 45.8753 29.1016 44.481C29.1016 43.6619 29.5538 42.2581 30.0622 42.13C31.4667 41.7837 32.9321 41.7666 34.3444 42.0799C34.8714 42.2018 35.3985 43.5743 35.4203 44.3903C35.4578 45.8097 34.2102 46.5319 32.2204 46.5287Z" fill="white"/>
<path d="M18.8019 46.5291C16.4379 46.5135 15.078 45.044 15.7704 43.2151C16.3287 41.7426 17.5606 41.5269 18.9485 41.5301C20.2896 41.5301 21.4436 41.7958 21.9644 43.2058C22.6693 45.0972 21.2845 46.5541 18.8019 46.5291Z" fill="white"/>
<path d="M88.7897 123.109C87.8922 123.105 87.0044 122.923 86.178 122.572C85.3516 122.221 84.6032 121.708 83.9764 121.064C83.3497 120.42 82.8571 119.657 82.5274 118.821C82.1977 117.984 82.0375 117.09 82.0561 116.19C82.0642 115.291 82.2504 114.402 82.604 113.575C82.9576 112.748 83.4715 111.999 84.1159 111.373C84.7604 110.747 85.5224 110.255 86.358 109.927C87.1935 109.598 88.0858 109.439 88.9831 109.459C89.8808 109.467 90.768 109.653 91.5938 110.006C92.4196 110.359 93.1676 110.872 93.7946 111.516C94.4217 112.16 94.9154 112.922 95.2475 113.758C95.5795 114.594 95.7432 115.487 95.7291 116.387C95.7166 117.286 95.5268 118.174 95.1707 118.999C94.8146 119.824 94.2993 120.57 93.6543 121.195C93.0094 121.82 92.2475 122.31 91.4127 122.639C90.5778 122.967 89.6864 123.127 88.7897 123.109V123.109ZM89.1952 114.183H88.4872C88.0131 114.868 87.2397 115.506 87.1274 116.247C86.9496 117.363 87.7324 118.1 88.9207 118.072C90.109 118.044 90.8637 117.263 90.6579 116.168C90.5269 115.449 89.7254 114.846 89.2014 114.183H89.1952Z" fill="white"/>
<path d="M144.954 23.7032C146.26 24.9537 147.761 26.3762 149.258 27.8206C150.583 29.1024 150.761 30.5436 149.76 31.6566C148.759 32.7696 147.174 32.7383 145.796 31.4284C143.716 29.4588 141.654 27.4788 139.608 25.4883C138.086 24.0095 138.086 22.7059 139.627 21.2052C141.706 19.1773 143.809 17.167 145.936 15.1745C147.227 13.9584 148.743 13.9427 149.791 15.0776C150.761 16.1343 150.574 17.5099 149.367 18.8042C147.92 20.3642 146.516 21.9649 144.954 23.7032Z" fill="white"/>
<path d="M171.908 23.3688C170.249 21.7775 168.743 20.355 167.261 18.9044C165.933 17.6007 165.767 16.1595 166.775 15.059C167.835 13.8991 169.332 13.9773 170.739 15.3091C172.813 17.2756 174.878 19.2483 176.917 21.2492C178.436 22.7373 178.424 24.0629 176.917 25.526C174.865 27.5143 172.8 29.4944 170.723 31.466C169.401 32.7166 167.916 32.8135 166.859 31.7599C165.752 30.6595 165.923 29.1619 167.302 27.8082C168.78 26.3514 170.283 24.9257 171.908 23.3688Z" fill="white"/>
<path d="M163.935 16.9168C163.812 17.3604 163.661 17.7958 163.483 18.2205C161.503 22.4004 159.522 26.5804 157.51 30.7446C156.743 32.3328 155.28 32.9018 153.936 32.214C152.654 31.5544 152.255 30.1569 153.001 28.5749C154.997 24.3481 157.04 20.1338 159.054 15.9195C159.678 14.6252 160.651 13.9999 162.067 14.3563C163.274 14.6377 163.86 15.5068 163.935 16.9168Z" fill="white"/>
</svg>
