<svg width="189" height="176" viewBox="0 0 189 176" fill="none" xmlns="http://www.w3.org/2000/svg">
<path d="M163.111 63.173H154.858C152.088 63.173 151.484 62.7472 150.516 60.1924C147.85 59.8497 145.559 60.0937 143.226 62.0098C134.962 68.7135 115.509 68.9732 107.886 55.2179C107.319 54.3523 106.798 53.458 106.324 52.5384C105.585 50.7885 104.361 50.3472 102.471 50.9391C108.719 59.0864 111.323 68.1839 109.604 78.3043C108.395 85.7855 104.667 92.633 99.0341 97.7196C93.5129 102.773 86.4865 105.888 79.0256 106.59C71.5646 107.292 64.078 105.543 57.7063 101.609C45.4907 94.0744 37.1595 77.4787 44.1212 59.1435C42.2467 60.182 40.6898 61.1167 39.0861 61.9527C33.1657 65.0371 26.1571 63.2301 22.6424 57.7415C18.7424 51.6505 20.669 43.9187 27.1673 40.1332C38.7632 33.3828 50.4165 26.705 62.0541 19.9962C67.3913 16.9221 72.7597 13.8948 78.0552 10.7429C82.1374 8.29071 86.8283 7.03126 91.5933 7.10805C105.949 7.18594 120.31 7.2119 134.666 7.10805C139.664 7.0717 144.325 7.9856 148.688 10.4158C149.245 10.7273 149.844 10.9714 150.276 11.1791C150.797 10.0419 151.031 8.61911 151.838 8.01676C152.77 7.34172 154.233 7.24307 155.483 7.18595C157.941 7.06652 160.409 7.14957 163.158 7.14957C163.158 6.05392 163.106 5.04135 163.158 4.03398C163.273 2.18021 164.403 0.97036 166.282 0.954782C172.531 0.895932 178.767 0.895932 184.991 0.954782C186.845 0.954782 187.954 2.1854 188.115 4.03398C188.147 4.48574 188.115 4.9427 188.115 5.39965V64.8918C188.115 68.4591 187.204 69.3626 183.632 69.3678H167.595C164.017 69.3678 163.143 68.4851 163.111 64.8918V63.173ZM150.615 53.8262C150.615 42.1739 150.615 30.7813 150.615 19.3887C150.612 19.1476 150.555 18.9102 150.449 18.6937C150.343 18.4772 150.189 18.2871 150 18.1372C145.616 15.9563 141.445 13.3081 136.207 13.3444C120.95 13.4535 105.689 13.3911 90.4322 13.3755C87.5617 13.3581 84.739 14.1076 82.2572 15.5461C79.4454 17.1627 76.6371 18.7811 73.8323 20.4012C59.336 28.7475 44.8433 37.0973 30.354 45.4505C27.1048 47.3302 26.0165 50.9132 27.6515 53.9353C29.2449 56.8691 33.0616 58.1673 36.0556 56.4537C42.6893 52.6527 49.2761 48.7634 55.7484 44.708C59.3933 42.4128 63.0955 40.2319 67.3444 39.4114C71.1351 38.6845 75.0091 38.3729 79.0862 37.8536C78.9976 38.0146 79.1226 37.8537 79.1747 37.6771C80.8722 31.7315 84.517 28.9379 90.6301 28.9327C99.8534 28.9327 109.075 28.9327 118.295 28.9327C118.877 28.8914 119.462 28.9158 120.039 29.0054C121.601 29.3845 122.549 30.4022 122.554 32.0327C122.559 33.6632 121.612 34.6913 120.05 35.0652C119.409 35.1686 118.759 35.1965 118.113 35.1483C108.74 35.1483 99.409 35.1483 90.0573 35.1483C88.9086 35.1054 87.7838 35.4822 86.8941 36.2079C86.0043 36.9336 85.4109 37.9583 85.2252 39.0895C84.8711 41.2912 86.3551 43.4513 88.818 44.1679C89.6308 44.3752 90.4682 44.4713 91.307 44.4535C96.3057 44.4535 101.31 44.5003 106.308 44.4535C107.055 44.3948 107.802 44.5566 108.456 44.9185C109.111 45.2805 109.644 45.8267 109.99 46.489C110.922 48.1195 111.916 49.7137 112.885 51.3234C114.324 53.7138 116.283 55.7515 118.617 57.2862C120.951 58.821 123.601 59.8136 126.371 60.1909C129.141 60.5681 131.96 60.3204 134.622 59.466C137.283 58.6116 139.718 57.1722 141.747 55.2542C142.731 54.4706 143.921 53.9874 145.173 53.8626C146.871 53.6705 148.636 53.8418 150.635 53.8418L150.615 53.8262ZM75.6912 100.518C81.2784 100.544 86.7457 98.9029 91.3912 95.807C96.0367 92.7112 99.6483 88.3015 101.763 83.1439C103.872 77.9828 104.392 72.3118 103.254 66.855C102.117 61.3981 99.3755 56.4031 95.3788 52.5073C94.1031 51.2507 92.8274 50.5653 90.9477 50.6899C87.3028 50.9288 83.9807 49.7968 81.8302 46.8473C80.4087 44.9053 78.7373 44.5366 76.7014 44.5678C75.2102 44.5711 73.7204 44.6578 72.239 44.8274C65.1357 45.7166 58.6429 49.2826 54.0922 54.794C49.5416 60.3054 47.2781 67.3443 47.7661 74.467C48.269 81.5207 51.4258 88.1245 56.6042 92.9555C61.7826 97.7864 68.6002 100.488 75.6912 100.518ZM169.417 63.0795H181.7V7.31057H169.427L169.417 63.0795ZM156.998 13.4898V56.7964H163.002V13.4898H156.998Z" fill="white"/>
<path d="M25.9083 112.95H33.9479C37.4522 112.95 38.3165 113.791 38.4103 117.254C38.4103 117.509 38.4519 117.774 38.4936 118.251C41.5709 117.499 44.643 117.005 47.5381 115.998C56.1036 113.007 64.4296 113.526 73.0524 116.148C85.4502 119.908 98.0459 122.951 110.605 126.248C114.031 127.146 117.051 128.616 119.254 131.773C120.977 130.797 122.649 129.862 124.31 128.907C132.683 124.088 141.024 119.212 149.434 114.456C156.973 110.198 165.888 113.936 167.986 122.099C169.387 127.552 166.945 133.045 161.696 136.119C151.282 142.174 140.806 148.171 130.355 154.195C123.716 157.991 117.072 161.781 110.491 165.634C106.669 167.879 102.303 169.034 97.8689 168.973C83.4507 168.916 69.0326 168.869 54.6144 168.973C49.4803 169.015 44.7211 168.09 40.2431 165.536C39.8017 165.301 39.3481 165.089 38.8841 164.902C38.2801 166.081 37.9781 167.498 37.0981 168.168C36.2181 168.838 34.807 168.849 33.6146 168.901C31.1569 168.999 28.694 168.932 25.9291 168.932C25.9291 169.97 25.9656 170.889 25.9291 171.829C25.8354 173.906 24.7003 175.116 22.6383 175.132C16.5357 175.18 10.4314 175.18 4.32531 175.132C2.11234 175.132 1.00846 173.849 0.998047 171.497C0.998047 164.689 0.998047 157.887 0.998047 151.085C0.998047 137.733 0.998047 124.384 0.998047 111.039C0.998047 107.705 1.95613 106.734 5.24695 106.729H21.4199C25.0335 106.729 25.9187 107.601 25.9447 111.164L25.9083 112.95ZM38.405 124.69V126.928C38.405 136.275 38.4832 145.591 38.3478 154.917C38.3165 157.051 38.9362 158.105 40.8836 158.983C44.7211 160.707 48.3452 162.789 52.792 162.763C68.0536 162.675 83.3205 162.721 98.5822 162.732C101.452 162.761 104.278 162.02 106.762 160.587C124.07 150.621 141.373 140.649 158.671 130.672C162.014 128.746 163.071 125.08 161.306 122.027C159.54 118.973 155.771 118.039 152.49 119.913C142.507 125.611 132.556 131.346 122.639 137.116C122.32 137.332 122.051 137.613 121.848 137.939C121.646 138.266 121.514 138.631 121.462 139.012C120.998 147.403 113.781 152.824 105.58 150.69C93.4117 147.528 81.2742 144.23 69.1315 140.98C66.9081 140.383 65.9292 138.929 66.4082 137.033C66.8873 135.138 68.5275 134.406 70.7404 134.987C76.0099 136.372 81.2724 137.772 86.528 139.188C93.3544 141.016 100.17 142.88 107.007 144.672C111.626 145.876 115.588 142.652 115.187 138.103C114.948 135.382 113.188 133.476 109.939 132.599C96.102 128.881 82.2635 125.177 68.4233 121.487C64.9138 120.547 61.4095 119.197 57.7334 120.007C51.2819 121.429 44.8825 123.096 38.379 124.69H38.405ZM7.29851 168.802H19.6026V113.069H7.29851V168.802ZM26.0749 119.254V162.628H32.0629V119.248L26.0749 119.254Z" fill="white"/>
<path d="M79.0587 88.1292C78.6005 93.109 77.9704 94.2773 75.7939 94.2721C73.6174 94.2669 73.0186 93.0882 72.5448 88.176C67.8585 87.61 64.6249 85.2733 63.5315 80.5012C63.3232 79.6237 63.3232 78.7098 63.5315 77.8322C63.6816 77.1551 64.0784 76.5577 64.645 76.1557C65.2116 75.7537 65.9077 75.5758 66.5984 75.6565C68.2282 75.7448 69.2019 76.7262 69.5299 78.2996C70.1912 81.3372 70.7796 81.8306 73.8101 81.841C75.242 81.841 76.6687 81.841 78.0954 81.841C80.5687 81.841 81.9954 80.7038 82.0267 78.7773C82.0579 76.8508 80.6 75.6617 77.9965 75.6201C76.3771 75.6201 74.7525 75.6201 73.1279 75.6201C67.822 75.5786 63.7085 71.949 63.3596 67.0056C63.0004 61.9739 66.4474 57.8405 71.6908 56.9993C71.946 56.9578 72.2115 56.937 72.6072 56.8851C72.9353 54.4394 71.8002 50.7059 75.997 50.8617C79.7148 50.9967 78.7307 54.3927 78.9806 56.8384C83.8335 57.3992 87.0618 59.8449 88.1345 64.7001C88.4521 66.1384 88.4105 67.5612 87.1608 68.6361C85.3071 70.225 82.5995 69.2021 82.0736 66.7252C81.4279 63.6771 80.8447 63.189 77.7986 63.1838C76.3719 63.1838 74.94 63.1838 73.5133 63.1838C71.0295 63.1838 69.6184 64.3054 69.582 66.2423C69.5455 68.1791 71.0087 69.389 73.607 69.3994C75.2316 69.3994 76.8561 69.3994 78.4755 69.3994C83.7919 69.4357 87.895 73.0342 88.249 78.0088C88.6031 82.9833 85.1769 87.1634 79.9179 88.0202C79.6627 88.0617 79.4076 88.0825 79.0587 88.1292Z" fill="white"/>
</svg>
