<svg width="197" height="192" viewBox="0 0 197 192" fill="none" xmlns="http://www.w3.org/2000/svg">
<path d="M107.649 77.2946C105.634 81.1892 103.796 84.9037 101.766 88.4917C101.457 89.0418 100.35 89.2755 99.5653 89.4167C95.7418 90.1274 91.7222 90.2394 88.1095 91.5197C81.5164 93.8614 78.5704 100.059 80.2321 106.86C82.1096 114.561 87.0948 120.257 92.9526 125.17C104.026 134.463 116.668 140.617 131.188 142.408C134.913 142.859 138.685 142.78 142.388 142.175C153.781 140.3 158.33 131.508 153.496 121.08C152.516 118.962 150.996 117.093 149.933 115.004C149.545 114.245 149.384 112.994 149.746 112.283C157.795 96.5228 165.918 80.803 174.114 65.1238C174.506 64.3741 175.775 63.8385 176.722 63.6633C180.153 63.0207 183.77 63.045 187.016 61.9594C194.981 59.3013 198.148 52.4126 195.481 44.4627C193.378 38.1923 189.354 33.1876 184.422 28.9571C171.388 17.76 156.599 10.5695 139.021 10.3796C135.924 10.3917 132.851 10.9166 129.928 11.9326C122.634 14.3668 119.183 20.8319 121.408 28.1685C122.447 31.5763 124.614 34.6628 126.197 37.9051C126.541 38.6207 126.982 39.6673 126.688 40.2369C124.496 44.7547 122.139 49.1946 119.712 53.8682C118.202 53.1039 116.84 52.4077 115.482 51.7311L18.9973 2.56111C12.6248 -0.681187 6.90427 1.16395 3.63469 7.47815C3.07097 8.55892 2.49745 9.6299 1.94354 10.7204C-1.13977 16.8009 0.654335 22.5358 6.75723 25.6807C19.8682 32.4379 32.9956 39.1627 46.1393 45.855C49.332 47.4777 52.5216 49.1135 55.7078 50.7623C57.4235 51.6434 59.1391 51.8771 60.0852 49.8713C60.9774 47.9581 59.8646 46.7312 58.0999 45.8306C41.9857 37.5999 25.8878 29.3449 9.80621 21.0656C5.74251 18.9819 5.16409 16.8983 7.06603 12.7894C10.4729 5.44802 12.3258 5.19969 19.414 8.84606C51.2765 25.2571 83.2713 41.4638 115.212 57.7823C115.781 58.0744 116.335 58.4054 117.119 58.8436C114.83 63.2884 112.58 67.6601 110.202 72.2704L92.4967 63.2835C90.1732 62.1005 87.8644 60.8931 85.5507 59.6955C83.8448 58.8144 82.1586 58.5612 81.139 60.5621C80.1194 62.563 81.2811 63.7412 83.0164 64.6223C90.7974 68.5657 98.5669 72.5236 106.325 76.4961C106.712 76.7104 107.055 76.9343 107.649 77.2946ZM106.668 91.2179L131.795 42.5932L169.54 61.8474C161.079 78.2001 152.781 94.246 144.403 110.453L106.668 91.2179ZM136.261 137.696L136.192 137.355C135.781 137.355 135.369 137.389 134.967 137.355C117.32 135.646 102.433 128.285 90.781 115.019C88.3301 112.205 86.884 108.345 85.5262 104.762C84.5948 102.288 85.6634 99.8056 87.7713 97.9995C91.3546 94.9276 99.8496 93.9004 104.041 96.0522C116.095 102.201 128.06 108.5 140.222 114.44C145.506 117.025 148.065 121.333 149.535 126.518C150.81 130.987 149.011 134.429 144.565 135.963C141.918 136.858 139.031 137.131 136.251 137.696H136.261ZM177.437 58.5759C175.476 57.9577 173.246 57.5438 171.285 56.5604C159.486 50.6454 147.83 44.4578 135.991 38.6742C130.599 36.0502 128.08 31.62 126.575 26.3671C125.413 22.3118 127.178 18.8017 131.188 17.3461C133.746 16.4211 136.58 15.6715 139.276 15.8078C158.575 16.7814 174.388 24.8678 186.682 39.609C188.398 41.6683 189.579 44.3361 190.422 46.9115C191.932 51.5218 190.079 55.1243 185.462 56.7698C183.035 57.6364 180.403 57.9333 177.447 58.5759H177.437Z" fill="white"/>
<path d="M115.684 191.301H178.429C182.208 191.301 182.84 190.687 182.84 186.919C182.84 181.642 182.87 176.369 182.84 171.097C182.767 160.713 174.625 152.52 164.174 152.505C131.743 152.456 99.3117 152.456 66.8806 152.505C62.1644 152.494 57.6242 154.283 54.1972 157.501C50.7701 160.718 48.7179 165.12 48.4641 169.797C48.1553 175.863 48.322 181.968 48.371 188.044C48.371 190.546 49.4249 191.276 52.4641 191.276L115.684 191.301ZM53.8072 185.629C53.8072 181.116 53.8072 176.832 53.8072 172.548C53.8072 163.366 59.3268 157.899 68.6061 157.894C84.6975 157.894 100.79 157.894 116.885 157.894C132.405 157.894 147.924 157.894 163.453 157.894C170.174 157.894 176.056 161.93 176.84 168.118C177.566 173.823 176.992 179.695 176.992 185.644L53.8072 185.629Z" fill="white"/>
<path d="M73.0059 53.9802C71.9323 53.2694 70.9176 52.1205 69.7657 51.9648C68.2706 51.7652 67.2167 52.9385 67.2314 54.5645C67.2314 56.3171 68.3441 57.4464 70.0059 57.1592C71.0892 56.9693 72.0108 55.8351 73.001 55.1292L73.0059 53.9802Z" fill="white"/>
</svg>
