<svg width="188" height="202" viewBox="0 0 188 202" fill="none" xmlns="http://www.w3.org/2000/svg">
<path d="M94.0694 0.221191C100.34 0.832951 106.664 1.11887 112.858 2.16618C117.32 2.91758 121.648 4.56001 125.964 6.01959C132.873 8.34693 139 12.1472 144.609 16.7553C151.267 22.2674 156.817 28.9927 160.967 36.5743C163.827 41.7177 166.317 47.0707 167.826 52.8026C168.947 57.055 169.967 61.3306 171.045 65.5897C172.96 73.1635 173.143 80.9036 173.249 88.6503C173.292 91.7191 173.216 91.8721 176.105 92.5503C180.095 93.4779 182.841 95.9183 185.132 99.0835C187.083 101.777 187.436 104.945 187.489 108.08C187.615 115.614 187.595 123.155 187.506 130.689C187.446 135.586 185.843 139.869 181.927 143.1C178.539 145.9 174.549 146.674 170.323 146.708C164.841 146.754 159.351 146.837 153.872 146.741C152.143 146.711 151.369 147.632 150.717 148.889C148.16 153.816 145.786 158.843 143.07 163.674C137.574 173.442 131.26 182.612 122.852 190.149C118.197 194.332 113.007 197.66 107.043 199.848C101.783 201.795 96.106 202.34 90.5717 201.427C83.9221 200.356 77.8744 197.544 72.332 193.667C62.6003 186.854 54.8902 178.09 48.3171 168.332C44.4138 162.544 41.0026 156.416 37.4118 150.428C36.933 149.633 36.7469 148.586 36.1285 147.968C35.51 147.349 34.4661 146.751 33.6116 146.731C29.0167 146.624 24.4153 146.694 19.8171 146.731C12.2698 146.767 6.27858 143.898 2.48168 137.199C0.955608 134.506 0.549984 131.427 0.506762 128.378C0.416993 122.394 0.443595 116.409 0.490142 110.424C0.543339 103.732 3.09012 98.2955 8.84199 94.6183C9.99803 93.8742 11.2572 93.304 12.579 92.926C14.1084 92.5038 14.8033 91.7357 14.8133 90.1332C14.8432 86.2565 14.7734 82.3632 15.1192 78.4965C15.4849 74.3937 16.1798 70.3075 16.9145 66.248C17.5995 62.4555 18.4207 58.6874 19.3782 54.9437C19.9526 52.5897 20.7428 50.2936 21.7388 48.0847C23.9764 43.2538 26.1342 38.3431 28.8439 33.7881C34.5806 24.013 42.8137 15.9394 52.6992 10.395C57.7415 7.58088 63.0981 5.37129 68.6581 3.81197C76.97 1.4148 85.4316 0.527056 94.0395 0.663372L94.0694 0.221191ZM41.4282 119.301C41.4282 126.061 41.5079 132.823 41.3916 139.583C41.2816 142.433 41.9592 145.258 43.3499 147.748C47.2598 154.793 51.4424 161.626 56.2467 168.106C62.075 175.972 68.5118 183.17 76.6675 188.72C80.348 191.223 84.2513 193.348 88.527 194.335C92.4968 195.256 96.5064 195.898 100.802 194.847C105.088 193.838 109.171 192.109 112.878 189.734C118.177 186.306 122.52 181.834 126.419 176.91C127.995 174.915 129.525 172.89 130.978 170.812C131.31 170.317 131.274 169.549 131.407 168.907C130.871 169.03 130.326 169.123 129.804 169.286C124.977 170.782 120.232 172.671 115.308 173.702C109.61 174.894 103.77 175.268 97.966 174.812C96.3714 174.683 94.7894 174.429 93.2349 174.051C91.3264 173.585 90.6648 172.425 90.9507 170.453C91.0749 169.712 91.4633 169.041 92.044 168.565C92.6246 168.088 93.3583 167.837 94.1093 167.86C95.4447 167.83 96.7801 167.921 98.099 168.133C103.276 169.09 108.406 168.152 113.459 167.424C117.755 166.806 121.918 165.097 126.074 163.681C130.439 162.191 134.286 159.717 137.933 156.905C141.181 154.404 142.498 150.661 144.46 147.296C146.551 143.702 146.671 139.922 146.647 135.969C146.568 122.669 146.647 109.37 146.581 96.0712C146.581 94.0963 147.425 92.8396 149.011 92.1281C149.909 91.7224 151.066 91.8687 152.11 91.8189C153.154 91.769 154.215 91.9186 154.248 90.4158C154.278 89.0227 153.36 88.6304 152.206 88.5173C151.542 88.4509 150.877 88.4808 150.212 88.3744C146.135 87.7094 142.053 87.0678 137.99 86.3197C135.499 85.8575 133.022 85.299 130.579 84.6373C126.054 83.4105 121.722 83.221 117.486 85.791C115.656 86.9238 113.635 87.7125 111.521 88.1184C108.06 88.7168 104.586 89.0194 100.972 88.5705C95.4658 87.8956 90.9341 85.4619 86.6119 82.3432C81.7577 78.8555 77.9675 74.2973 74.1207 69.8055C72.199 67.5646 70.6929 67.4781 68.4952 69.4398C68.2059 69.6958 67.9399 69.9784 67.6673 70.2543C63.5014 74.4901 58.4111 76.5714 52.503 76.4384C44.7197 76.2589 38.9312 79.9195 34.5259 85.8908C33.6249 87.1143 34.0604 89.3485 33.9873 91.124C33.9873 91.3268 34.6256 91.6792 35.0113 91.7524C35.6156 91.8274 36.2254 91.8474 36.8333 91.8122C39.9187 91.8454 41.4315 93.3117 41.4348 96.3505C41.4392 104.004 41.437 111.654 41.4282 119.301ZM94.7643 18.5806C91.2965 18.9763 88.5602 19.455 85.8073 19.578C79.4337 19.8474 73.4192 21.4599 67.5509 23.8537C61.6622 26.2508 56.3221 29.8195 51.8547 34.3434C45.3747 40.86 41.2553 48.7829 38.3793 57.3708C36.5581 62.6336 35.3717 68.0949 34.8451 73.639C34.7985 74.1842 35.0313 74.7561 35.1377 75.3014C35.6663 75.1118 36.2614 75.0221 36.7136 74.7228C41.1888 71.7571 46.023 70.0382 51.4623 70.0947C56.3897 70.1479 60.6454 68.5554 63.9934 64.7917C67.7471 60.5659 75.2777 60.7821 79.0913 65.3636C82.3428 69.1916 85.8142 72.8272 89.4878 76.2522C92.4801 79.0916 96.1141 81.2062 100.157 81.9642C105.52 82.9616 110.756 82.4097 115.67 79.5006C118.766 77.6653 122.293 76.5648 125.977 77.1233C129.349 77.6353 132.667 78.5131 136.008 79.2379C137.564 79.5704 139.113 79.9727 140.663 80.2619C144.234 80.9269 147.801 81.6517 151.402 82.1105C153.922 82.443 154.268 82.0939 153.972 79.6435C153.496 75.707 152.689 71.8137 152.157 67.8838C151.585 63.6613 150.268 59.6716 148.918 55.6486C147.034 49.9994 144.309 44.6664 140.836 39.8293C133.727 29.9547 123.949 23.8703 112.286 21.0842C106.374 19.6645 100.187 19.322 94.7643 18.5806ZM94.0993 6.58815C86.3516 6.7838 78.653 7.87945 71.1583 9.85307C65.985 11.198 61.0034 13.1944 56.3331 15.7944C46.8509 21.0576 39.523 28.6115 33.9241 37.8344C30.6259 43.2605 27.893 48.9757 26.2771 55.1499C24.9239 60.3099 23.3015 65.4567 22.4836 70.6899C21.6091 76.2988 21.4196 82.0241 21.1536 87.7128C20.9508 92.0682 21.137 92.0749 25.4493 91.8388C26.6661 91.7723 27.1117 91.227 27.1117 90.0767C27.1117 88.4708 27.0684 86.855 27.2247 85.2591C27.8896 78.2272 27.9861 71.1221 29.9211 64.2464C30.8321 61.0181 31.3009 57.6335 32.5044 54.5281C34.2709 50.0279 36.2854 45.6291 38.5389 41.352C41.8271 35.0349 46.5184 29.8284 52.0608 25.423C57.9091 20.7683 64.409 17.3106 71.7169 15.6083C76.5977 14.4712 81.515 13.138 86.4789 12.7922C96.6561 12.084 106.783 12.6392 116.698 15.6016C122.194 17.2407 127.39 19.4484 132.141 22.5837C144.028 30.4202 151.375 41.7078 155.701 55.0069C157.363 60.1603 158.434 65.5664 159.255 70.9359C160.133 76.6645 160.508 82.4796 160.884 88.268C161.12 91.8588 160.937 91.8721 164.601 91.8288C166.819 91.8056 167.068 91.6593 166.949 89.4649C166.653 84.0023 166.33 78.5364 165.855 73.087C165.609 70.2377 165.276 67.3452 164.525 64.5989C163.062 59.3092 161.406 54.0593 159.578 48.886C157.25 42.283 153.593 36.3582 149.301 30.859C139.24 18.0254 125.695 11.0799 109.965 8.19068C104.725 7.22982 99.3757 7.09684 94.096 6.58815H94.0993ZM164.458 119.212C164.458 125.472 164.485 131.733 164.438 137.997C164.438 139.456 164.894 140.148 166.433 140.088C168.591 140.008 170.755 140.111 172.913 140.031C176.959 139.885 180.829 136.195 180.893 132.152C181.006 123.62 180.996 115.086 180.913 106.551C180.879 103.04 178.12 99.6055 174.675 98.8807C172.218 98.3653 169.655 98.2556 167.135 98.1725C164.851 98.096 164.475 98.6014 164.458 100.922C164.452 107.02 164.452 113.116 164.458 119.212ZM23.5641 119.272C23.5641 113.071 23.5641 106.873 23.5641 100.676C23.5641 98.6812 23.1352 98.1293 21.147 98.1891C19.1702 98.2496 17.2024 98.481 15.2655 98.8807C11.0463 99.7451 7.21617 104.101 7.13637 108.4C7.00338 115.643 7.00338 122.891 7.13637 130.144C7.19954 133.362 9.02817 135.796 11.4586 137.834C14.401 140.304 17.8887 140.085 21.3831 140.105C23.0454 140.105 23.6107 139.513 23.5907 137.864C23.5275 131.666 23.5641 125.469 23.5641 119.272V119.272ZM35.2308 119.185C35.2308 112.978 35.2308 106.774 35.2308 100.566C35.2308 98.7743 34.5326 98.1792 32.6308 98.1459C30.729 98.1127 29.9277 98.7643 29.9277 100.473C29.91 113.052 29.9155 125.63 29.9444 138.206C29.9444 138.712 30.1937 139.616 30.4331 139.656C31.7098 139.859 33.063 140.045 34.3032 139.799C34.7387 139.716 35.1875 138.396 35.1975 137.634C35.264 131.487 35.2308 125.336 35.2308 119.185V119.185ZM158.111 119.355C158.111 113.148 158.111 106.942 158.111 100.736C158.111 98.8175 157.406 98.1426 155.501 98.1426C153.506 98.1426 152.802 98.761 152.802 100.636C152.788 113.049 152.788 125.461 152.802 137.874C152.802 139.829 153.181 140.095 155.584 140.085C157.799 140.085 158.105 139.822 158.108 137.807C158.117 131.659 158.118 125.508 158.111 119.355V119.355Z" fill="white"/>
<path d="M60.0974 116.093C57.6038 116.093 55.1102 116.116 52.6166 116.093C50.6018 116.066 49.3118 114.823 49.2918 112.964C49.2586 110.926 50.246 109.869 52.5135 109.842C57.5539 109.78 62.5943 109.78 67.6346 109.842C69.7725 109.869 71.2287 111.242 71.1855 112.925C71.1423 114.607 69.45 116.086 67.4185 116.1C64.9715 116.106 62.5344 116.093 60.0974 116.093Z" fill="white"/>
<path d="M124.036 116.09C121.549 116.09 119.049 116.117 116.578 116.09C114.441 116.06 113.314 114.973 113.28 113.015C113.244 110.947 114.198 109.876 116.426 109.846C121.51 109.775 126.593 109.775 131.673 109.846C133.921 109.876 134.838 110.93 134.778 113.038C134.725 115.053 133.645 116.087 131.497 116.11C129.01 116.133 126.51 116.11 124.036 116.11V116.09Z" fill="white"/>
</svg>
