<svg width="188" height="202" viewBox="0 0 188 202" fill="none" xmlns="http://www.w3.org/2000/svg">
<path d="M47.8322 141.114C47.8322 130.333 47.8322 119.545 47.8322 108.756C47.8322 101.707 51.3709 98.4297 58.338 97.9478C63.8457 97.5691 68.6648 99.2903 73.6492 101.128C90.8605 107.51 108.031 113.892 125.283 120.15C127.538 120.947 129.907 121.37 132.298 121.403C140.443 121.548 148.587 121.403 156.732 121.472C164.305 121.52 167.747 124.914 167.802 132.37C167.85 137.417 167.878 142.463 167.802 147.516C167.699 153.072 165.482 156.033 160.133 157.43C158.067 157.96 157.737 159.02 157.751 160.831C157.806 170.697 157.751 180.562 157.751 190.435C157.751 197.168 154.019 201.236 147.975 201.209C141.93 201.181 138.164 196.961 138.15 190.373C138.15 180.624 138.075 170.876 138.185 161.127C138.185 158.662 137.606 157.685 134.949 157.685C130.96 157.582 126.995 158.326 123.314 159.867C104.884 167.791 86.4476 175.702 67.8111 183.102C64.0178 184.603 59.2743 184.479 55.0886 183.991C50.4553 183.467 47.9149 179.578 47.8873 174.49C47.7909 163.399 47.8391 152.239 47.8322 141.114ZM67.5495 176.184C68.0928 176.162 68.6325 176.086 69.1605 175.956C86.9983 168.383 104.843 160.907 122.612 153.237C123.679 152.776 124.677 150.855 124.725 149.582C124.939 143.165 124.726 136.742 124.884 130.305C124.966 127.551 123.982 126.298 121.387 125.355C106.84 120.109 92.3682 114.65 77.8694 109.28C74.5855 108.061 71.2672 106.925 67.5426 105.603L67.5495 176.184ZM145.524 151.447C149.413 151.447 153.303 151.406 157.227 151.447C160.229 151.482 161.654 150.112 161.627 147.09C161.585 142.041 161.585 137.006 161.627 131.985C161.661 128.969 160.201 127.544 157.248 127.544C149.468 127.544 141.682 127.544 133.903 127.544C131.934 127.544 130.963 128.068 130.997 130.243C131.089 136.416 131.089 142.596 130.997 148.783C130.997 150.945 131.899 151.537 133.882 151.489C137.772 151.379 141.655 151.447 145.551 151.447H145.524ZM60.8027 177.808V104.516C55.2951 103.641 53.9182 104.729 53.9182 109.769C53.9182 130.762 53.9182 151.75 53.9182 172.734C53.9526 177.726 55.4465 178.841 60.8302 177.808H60.8027ZM151.63 175.791C151.63 170.641 151.554 165.464 151.63 160.335C151.692 157.134 149.482 157.836 147.623 157.705C145.558 157.561 144.45 158.022 144.477 160.459C144.58 170.531 144.525 180.603 144.519 190.682C144.519 193.002 145.207 194.875 147.906 194.896C150.721 194.896 151.596 193.023 151.603 190.552C151.644 185.65 151.63 180.727 151.63 175.791Z" fill="white"/>
<path d="M158.605 31.5606C157.689 32.2973 157.228 32.6209 156.815 33.0064C151.465 37.9977 151.465 38.0046 154.749 44.4691C164.071 62.9541 151.307 85.7763 130.702 87.3873C129.049 87.5181 127.948 87.2565 128.044 85.3219C128.14 83.3874 127.356 81.3426 130.715 80.9433C142.419 79.5664 150.763 70.6165 151.541 58.9128C151.92 53.2744 150.419 48.1248 146.095 42.5759C143.94 45.1645 141.965 47.2436 140.374 49.6118C139.803 50.4862 139.941 52.1385 140.305 53.2538C142.598 60.2278 139.101 67.6149 132.209 69.9212C130.991 70.2332 129.75 70.4518 128.498 70.5752C127.741 67.3326 127.39 64.923 131.183 63.4911C134.027 62.4171 135.135 59.7183 134.433 55.863L129.986 59.4774C128.753 58.1005 127.184 56.0971 125.855 54.5687C126.832 53.357 128.251 52.7168 129.524 51.1264C125.745 50.0938 123.067 51.4913 122.061 54.2383C120.623 58.1556 118.041 57.3776 115.28 57.1298C114.461 49.2332 123.17 42.39 131.115 45.0199C134.433 46.1145 135.782 44.9786 138.13 43.0509C139.851 41.674 140.932 40.7583 142.784 39.2919C136.127 34.2181 129.703 32.8962 122.819 34.4728C111.039 37.2266 105.38 45.4398 103.866 57.0816C102.916 57.1642 102.131 57.2812 101.353 57.2812C100.458 57.2812 99.5559 57.1711 97.7797 57.0541C98.4682 53.6531 98.7367 50.3554 99.8451 47.3606C101.348 43.1907 103.766 39.4106 106.922 36.2983C110.078 33.1861 113.892 30.8208 118.082 29.3764C122.273 27.932 126.734 27.4453 131.137 27.9519C135.541 28.4586 139.774 29.9458 143.527 32.3042C146.343 34.0666 147.706 33.4539 150.04 31.5675C151.858 30.1011 153.049 28.9445 155.052 27.485C147.658 21.165 140.354 18.1289 132.195 17.3854C108.878 15.2719 89.9107 31.1957 87.6663 54.7821C87.3565 58.0385 85.3394 57.1504 83.5356 57.295C81.0021 57.4878 81.1398 55.8561 81.3257 54.135C83.2052 36.3178 91.7558 22.8655 108.175 15.3614C124.32 7.97426 140.071 9.68162 154.99 19.4095C156.367 20.3182 158.949 21.702 159.472 21.2201C161.634 19.2305 164.043 16.8553 164.807 14.1703C165.716 10.9897 165.138 7.34776 164.993 3.91239C164.904 1.67492 165.682 0.876322 167.94 0.869438C170.198 0.862553 171.382 1.52346 171.203 4.00189C171.065 6.28067 171.286 8.59387 171.162 10.8864C171.031 13.3442 171.85 14.4388 174.501 14.2805C177.681 14.0877 180.883 14.2323 183.981 14.2323C185.495 19.8776 185.165 20.3389 179.85 20.3457C177.785 20.2545 175.717 20.2706 173.654 20.3939C171.795 20.5867 169.578 20.6624 168.229 21.7089C162.928 25.8396 163.038 25.9704 166.708 31.5469C171.198 38.2523 173.871 46.0081 174.466 54.0561C175.061 62.104 173.558 70.1687 170.103 77.4617C166.648 84.7546 161.36 91.0262 154.755 95.6633C148.15 100.3 140.456 103.144 132.423 103.917C130.819 104.089 128.409 105.39 127.982 101.989C127.576 98.7536 129.077 97.9756 131.968 97.6452C161.765 94.2442 177.682 62.3551 162.357 36.8548C161.31 35.1199 160.009 33.5296 158.605 31.5606Z" fill="white"/>
<path d="M67.2744 47.884C67.2744 59.4638 67.2744 71.0504 67.2744 82.6371C67.2744 90.6369 63.963 94.0034 56.0802 94.0241C45.7534 94.0562 35.4266 94.0562 25.0998 94.0241C17.878 93.9896 14.2498 90.4303 14.2361 83.2704C14.1948 59.4041 14.1948 35.5377 14.2361 11.6714C14.2361 4.66981 17.871 0.993477 24.8175 0.938401C35.4885 0.860377 46.155 0.860377 56.8168 0.938401C63.7013 0.993477 67.2124 4.55968 67.2469 11.3891C67.3157 23.5678 67.2744 35.7259 67.2744 47.884ZM61.0783 44.0768C61.0783 37.1923 61.0163 30.3078 61.0783 23.4233C61.0783 21.2822 60.4931 20.3046 58.1799 20.3184C46.6002 20.3872 35.0181 20.3872 23.4337 20.3184C21.1756 20.3184 20.4183 21.172 20.4321 23.3475C20.4826 37.2267 20.4826 51.1036 20.4321 64.9782C20.4321 67.2432 21.3546 67.9248 23.5232 67.9111C34.9974 67.8376 46.4716 67.8376 57.9459 67.9111C60.3486 67.9111 61.1472 67.0918 61.1059 64.7166C61.0164 57.839 61.099 50.9614 61.099 44.0768H61.0783ZM40.9273 73.9694C35.0893 73.9694 29.2236 74.0245 23.42 73.9694C21.4304 73.9694 20.4046 74.5409 20.4803 76.6751C20.5629 79.0778 20.4803 81.4942 20.5216 83.8832C20.5216 86.754 22.1395 88.0139 24.8795 88.0139C35.523 88.0139 46.1665 88.0139 56.8099 88.0139C59.5637 88.0139 61.099 86.6921 61.0715 83.8074C61.0715 81.5218 60.9613 79.2223 61.0715 76.9229C61.1816 74.6235 60.2384 73.9282 58.056 73.9626C52.4038 74.0314 46.669 73.9694 40.948 73.9694H40.9273ZM40.6519 14.2393C46.3867 14.2393 52.1216 14.2393 57.8632 14.2393C59.2402 14.2393 61.0163 14.6593 61.0783 12.2703C61.1265 10.1017 61.037 8.02258 58.4829 7.29282C57.5784 7.10017 56.6521 7.0307 55.7291 7.0863C45.7465 7.0863 35.7639 7.0863 25.7814 7.0863C24.858 7.02572 23.9306 7.09758 23.0276 7.29972C20.4803 8.05013 20.4114 10.1568 20.4872 12.3116C20.5698 14.6662 22.3184 14.2393 23.7367 14.2462C29.4302 14.26 35.0479 14.2393 40.7001 14.2393H40.6519Z" fill="white"/>
<path d="M120.872 84.3584C120.872 89.9692 120.803 95.587 120.872 101.198C120.914 103.422 120.143 104.11 117.891 104.165C98.2773 104.647 81.1762 87.9383 81.1211 68.2072C81.1211 65.6187 81.8095 64.4827 84.5634 64.5103C95.6796 64.6158 106.796 64.6158 117.912 64.5103C120.211 64.5103 120.9 65.3295 120.865 67.5119C120.81 73.1228 120.872 78.7199 120.872 84.3584ZM114.724 97.5422C114.724 89.0812 114.793 80.8473 114.594 72.6271C114.594 71.9387 112.797 70.7545 111.805 70.7201C106.422 70.5273 101.038 70.6237 95.6474 70.6237H88.281C87.7302 83.6905 101.561 97.7281 114.724 97.5422V97.5422Z" fill="white"/>
<path d="M181.639 71.6008C182.878 71.4562 183.656 71.3047 184.434 71.2979C185.453 71.2979 186.499 71.3805 187.697 71.4424C187.847 72.3543 187.948 73.2735 188 74.1963C188 94.1247 188 114.053 188 133.981C188 138.98 185.315 142.973 181.026 143.813C176.461 144.701 173.976 145.313 175.635 138.553C181.632 137.376 181.632 137.376 181.632 130.98C181.632 112.538 181.632 94.0971 181.632 75.6558L181.639 71.6008Z" fill="white"/>
<path d="M7.07003 71.6283V75.8623C7.07003 94.5423 7.07003 113.225 7.07003 131.909C7.07003 137.493 7.75843 138.16 13.4657 138.174C14.6085 138.174 15.7651 138.25 16.908 138.174C19.1661 137.995 20.5637 138.408 20.5568 141.238C20.5499 144.067 19.0835 144.391 16.8598 144.288C14.6361 144.184 12.5019 144.329 10.3333 144.226C4.87386 143.971 1.42474 140.646 0.977248 135.172C0.825788 133.231 0.880854 131.276 0.880854 129.328C0.880854 111.676 0.880854 94.0237 0.880854 76.3718C0.880854 70.8366 0.880848 70.8366 7.07003 71.6283Z" fill="white"/>
<path d="M74.8482 10.962C80.8378 10.962 86.5519 10.8794 92.211 11.0791C92.865 11.0791 94.0079 12.7589 93.9459 13.585C93.8564 14.7623 92.9201 16.8276 92.2592 16.862C87.0132 17.1374 81.6915 17.461 76.5005 16.862C73.0583 16.4765 75.2544 13.3165 74.8482 10.962Z" fill="white"/>
<path d="M42.2565 119.297L38.5319 122.574L29.582 112.874L32.9692 109.314L42.2565 119.297Z" fill="white"/>
<path d="M32.6455 172.969L29.3203 169.485L39.1101 159.847L42.3803 163.289L32.6455 172.969Z" fill="white"/>
<path d="M34.3391 138.174C35.3665 138.226 36.3959 138.226 37.4234 138.174C39.6952 137.933 40.721 138.649 40.7004 141.169C40.7004 143.558 39.8949 144.474 37.5129 144.295C35.4494 144.17 33.3802 144.17 31.3168 144.295C29.1206 144.391 27.6611 144.157 27.668 141.265C27.6749 138.374 28.921 137.961 31.2273 138.181C32.2737 138.257 33.3133 138.174 34.3391 138.174Z" fill="white"/>
<path d="M31.2617 60.2208V28.1389L52.8241 44.1317L31.2617 60.2208ZM37.4027 47.7805L42.0016 43.9802L37.4027 40.772V47.7805Z" fill="white"/>
<path d="M40.4514 84.0827C39.4256 84.0827 38.3861 84.0139 37.374 84.0827C35.2674 84.2617 34.2347 83.6146 34.2623 81.2532C34.2623 79.0432 34.7373 77.7627 37.2777 77.9142C39.672 78.0347 42.0708 78.0347 44.4651 77.9142C46.9022 77.804 47.2189 79.1878 47.2189 81.1568C47.2189 83.1257 46.7783 84.248 44.5546 84.0758C43.1983 83.9932 41.8215 84.0827 40.4514 84.0827Z" fill="white"/>
</svg>
