<svg width="133" height="167" viewBox="0 0 133 167" fill="none" xmlns="http://www.w3.org/2000/svg">
<path d="M45.341 45.7643L45.3504 45.7542L45.3597 45.7439C50.8436 39.6625 58.005 36.4086 67.1763 36.4086C75.9234 36.4086 82.876 39.6444 88.1637 45.7124C93.4433 51.9843 96.3824 61.0094 96.3824 73.2043V94.8939C96.3824 107.534 93.4356 116.766 88.1643 123.029C82.6998 129.285 75.5607 132.334 66.5753 132.334C57.5785 132.334 50.4521 129.279 45.1957 123.04L45.1865 123.029L45.1772 123.019C39.7304 116.777 36.9685 107.569 36.9685 94.8939V73.2043C36.9685 60.9571 39.7308 51.7783 45.341 45.7643ZM112.421 146.727L112.431 146.717C124.421 134.306 130.521 116.887 130.521 94.6791V72.9895C130.521 50.7955 124.629 33.37 112.631 20.9516L112.626 20.9463L112.621 20.941C100.671 8.79332 85.4138 2.62574 67.1763 2.62574C48.5481 2.62574 33.1001 8.78577 20.951 20.7057L20.9501 20.7066C8.51733 32.9237 2.62916 50.3751 2.62916 72.9895V94.8939C2.62916 110.146 5.67884 123.32 11.8534 134.352C18.0069 145.346 26.0488 153.107 35.7825 157.993C45.2532 162.847 55.9297 165.258 67.5769 165.258C85.2324 165.258 100.283 159.077 112.421 146.727Z" stroke="#2B62B4" stroke-width="3.28856"/>
</svg>
