<svg width="155" height="157" viewBox="0 0 155 157" fill="none" xmlns="http://www.w3.org/2000/svg">
<g clip-path="url(#clip0_8_569)">
<path d="M142.625 113.844V32.3099H114.998C113.96 28.5896 112.97 25.0531 111.958 21.437C112.133 21.437 112.608 21.3727 113.083 21.3727C124.499 21.3727 135.917 21.3727 147.335 21.3727C151.423 21.3727 153.611 23.5975 153.611 27.7407C153.611 62.1938 153.611 96.6499 153.611 131.109C153.611 135.047 151.503 137.174 147.599 137.177H99.3266V149.285C100.145 149.285 100.981 149.285 101.818 149.285C103.905 149.331 106.01 149.232 108.073 149.49C111.097 149.867 113.282 152.469 113.482 155.702H42.8021C42.5569 152.812 44.8522 149.922 47.9412 149.502C49.8443 149.245 51.7995 149.34 53.7331 149.285C54.3859 149.266 55.0386 149.285 55.8078 149.285V137.174H7.58187C3.45093 137.174 1.38752 135.107 1.39161 130.974V27.7591C1.39161 23.429 3.43254 21.3727 7.73509 21.3696H43.8287L40.1513 32.2455H12.4023V113.844H142.625ZM71.6328 126.408C71.6446 127.953 72.2603 129.433 73.3484 130.53C74.4364 131.627 75.9104 132.255 77.4554 132.28C78.2335 132.279 79.0039 132.125 79.7225 131.827C80.4411 131.528 81.0938 131.091 81.6431 130.54C82.1925 129.989 82.6278 129.335 82.9241 128.615C83.2204 127.896 83.3719 127.125 83.3698 126.347C83.3643 124.802 82.75 123.321 81.6601 122.225C80.5703 121.129 79.0926 120.507 77.5473 120.494C76.7685 120.489 75.9964 120.639 75.276 120.935C74.5556 121.231 73.9013 121.667 73.3509 122.218C72.8006 122.77 72.3654 123.425 72.0704 124.145C71.7755 124.866 71.6267 125.639 71.6328 126.417V126.408Z" stroke="#4172BC" stroke-width="3.28856" stroke-miterlimit="10"/>
<path d="M83.3297 26.9225C87.6199 26.9225 91.8949 26.9072 96.176 26.9225C99.547 26.9225 101.57 28.4547 101.714 31.7215C101.95 37.0997 102.253 42.5269 100.877 47.8315C98.4529 57.166 90.3106 64.1775 80.7585 65.575C68.614 67.3493 55.5132 58.974 53.5918 44.9632C53.0065 40.7035 53.1965 36.3213 53.2394 31.9973C53.2639 29.6223 54.5112 27.7959 56.8953 27.0696C57.8576 26.7631 57.9955 26.2024 58.0262 25.3749C58.1089 22.9877 57.974 20.5545 58.3908 18.2224C59.0756 14.2995 60.9372 10.6776 63.7286 7.83746C66.5201 4.99734 70.1092 3.0733 74.0197 2.32076C84.0896 0.408513 94.8859 6.26477 96.8165 17.3123C96.8875 17.7124 96.9325 18.1168 96.9513 18.5227C97.0371 20.5545 96.7583 20.8487 94.7418 20.8579C92.8051 20.8579 90.8683 20.8579 88.9193 20.8579C87.9295 20.8579 87.2767 20.5055 87.1143 19.4176C86.3758 14.4102 82.6555 12.3692 79.3458 12.0291C74.2097 11.5081 70.373 13.7391 68.6048 18.0324C67.5322 20.6403 67.9061 23.3554 67.9735 26.0369C67.9735 26.3433 69.0001 26.849 69.567 26.8735C71.8592 26.9715 74.1638 26.9133 76.4468 26.9133H83.3297V26.9225ZM77.4428 56.3233H78.6686C79.0731 56.3233 79.4807 56.3233 79.8944 56.3233C81.5706 56.265 82.1713 55.6031 81.9935 53.9237C81.8158 52.2444 81.586 50.5007 81.3806 48.7907C81.2152 47.4056 81.3101 46.1951 82.3184 44.9785C84.3348 42.5453 83.8874 39.0058 81.5339 36.8668C80.4331 35.8656 78.9976 35.3123 77.5097 35.3157C76.0217 35.3191 74.5888 35.8789 73.4926 36.8852C71.136 39.0303 70.7039 42.53 72.7204 44.9969C73.7133 46.2227 73.8236 47.4485 73.6397 48.8152C73.4926 49.9706 73.2842 51.1197 73.131 52.272C72.6468 55.9494 72.9962 56.3324 76.6827 56.3263L77.4428 56.3233Z" stroke="#4172BC" stroke-width="3.28856" stroke-miterlimit="10"/>
<path d="M53.7933 90.0695C53.7933 86.0856 53.7933 82.1263 53.7933 78.1547C53.7933 75.936 54.4706 75.2128 56.7352 75.2925C60.7926 75.4396 64.9051 75.3201 68.8798 75.9881C74.1293 76.8738 77.7852 81.1426 78.2418 86.4901C78.5283 89.3061 78.4252 92.1481 77.9354 94.9359C76.8414 100.507 72.8238 104.053 67.1514 104.601C63.474 104.96 59.7415 104.908 56.0304 104.932C54.5196 104.932 53.8239 104.09 53.8147 102.441C53.7749 98.3252 53.7933 94.1943 53.7933 90.0695ZM60.5352 90.0388C60.5352 92.0767 60.5015 94.1115 60.5352 96.1494C60.6118 99.8268 59.7752 99.4867 64.0164 99.407C67.7214 99.3365 70.2864 97.4488 71.0311 94.0043C71.4882 91.9225 71.6123 89.7814 71.3988 87.6608C70.9667 83.6769 68.748 81.4797 65.0614 80.8974C64.0655 80.7381 63.0266 80.8637 62.0153 80.7841C60.906 80.6952 60.4831 81.0905 60.5076 82.2489C60.5812 84.8414 60.5352 87.4432 60.5352 90.0511V90.0388Z" fill="#4172BC"/>
<path d="M45.8536 95.8153C45.8536 97.654 45.8536 99.4927 45.8536 101.331C45.8536 102.582 45.2898 103.507 44.0946 103.921C39.4979 105.511 34.7908 106.066 30.0286 104.699C24.4819 103.097 20.7769 98.3527 20.4674 92.5762C20.2774 89.0336 20.4674 85.5493 22.1988 82.3254C24.6504 77.7747 28.5546 75.4334 33.611 74.9707C36.9299 74.6642 40.2334 74.8052 43.35 76.2148C45.6974 77.2782 46.6167 79.6379 45.6575 82.0527C45.1396 83.352 44.3337 82.8709 43.4174 82.5522C41.2722 81.8106 39.1271 80.7564 36.9237 80.5725C29.6762 79.9596 26.7619 85.6504 27.3319 91.4791C27.6782 95.0247 29.0265 98.1014 32.7928 99.1618C34.325 99.5969 36.0779 99.4222 37.7266 99.4039C38.6735 99.4039 39.1608 98.7909 39.1179 97.7797C39.0658 96.6611 39.0597 95.5365 39.1179 94.4087C39.1761 93.281 38.6797 92.9592 37.6561 93.0113C36.6908 93.0634 35.7194 93.042 34.7541 93.0113C33.2586 92.9746 32.6671 92.1686 32.707 90.2778C32.7468 88.387 33.2647 87.771 34.7939 87.7619C37.6541 87.7394 40.5061 87.7394 43.35 87.7619C45.1029 87.7619 45.8199 88.5004 45.8536 90.2931C45.8874 92.0859 45.8506 93.9828 45.8536 95.8153Z" fill="#4172BC"/>
<path d="M128.567 91.2403C131.414 94.4335 132.551 98.3929 134.15 102.107C135.094 104.292 134.595 104.969 132.204 104.991C127.185 105.04 128.11 105.251 126.382 101.148C125.619 99.3091 124.868 97.4704 124.056 95.6747C123.406 94.2343 122.358 93.315 120.685 93.2016C119.652 93.1311 119.196 93.4131 119.22 94.5347C119.278 97.2314 119.251 99.9313 119.22 102.631C119.22 104.372 118.69 104.914 116.955 104.975C111.378 105.168 112.478 104.669 112.451 100.743C112.402 93.2077 112.451 85.6722 112.451 78.1366C112.451 75.8535 113.064 75.2498 115.371 75.2835C118.776 75.3356 122.199 75.2314 125.576 75.59C129.691 76.0221 132.364 78.2009 132.869 81.4738C133.464 85.3351 133.136 88.326 128.962 90.9033C128.824 91.0085 128.693 91.121 128.567 91.2403ZM119.248 87.7621C120.706 87.7621 121.978 87.8909 123.213 87.7315C124.034 87.6324 124.791 87.2394 125.344 86.6253C125.897 86.0113 126.209 85.2176 126.222 84.3912C126.302 82.7823 125.456 81.3543 123.964 80.9957C122.775 80.7342 121.557 80.6311 120.342 80.6893C119.968 80.6893 119.318 81.3574 119.297 81.7465C119.199 83.6557 119.26 85.5894 119.26 87.7621H119.248Z" fill="#4172BC"/>
<path d="M85.2971 90.5193C85.2971 86.4466 85.2971 82.3739 85.2971 78.3042C85.2971 76.0978 86.1337 75.2397 88.3616 75.2857C91.4077 75.3286 94.4722 75.2857 97.4938 75.5921C102.498 76.11 105.636 79.1776 105.817 83.3667C106.084 89.5172 103.476 93.3907 98.1557 94.5062C96.6235 94.8127 95.0299 94.8402 93.4609 94.8923C92.4374 94.9291 91.993 95.2968 92.0175 96.3541C92.0635 98.5421 91.993 100.733 92.0451 102.921C92.0758 104.267 91.4721 104.864 90.1727 104.984C85.6158 105.391 85.2695 105.106 85.2695 100.601L85.2971 90.5193ZM92.039 85.0829C92.039 86.2014 91.9747 87.323 92.0727 88.4324C92.1095 88.8277 92.511 89.4774 92.8082 89.5141C94.604 89.7409 96.3936 89.6796 97.7635 88.2424C98.8483 87.1054 99.167 84.28 98.4346 82.7631C97.5919 81.0224 96.0596 80.7099 94.3374 80.7895C93.9329 80.8079 93.4517 80.6608 93.1361 80.8294C92.7071 81.0592 92.1463 81.4852 92.088 81.8897C91.9532 82.9347 92.0513 84.0164 92.0513 85.0829H92.039Z" fill="#4172BC"/>
</g>
<defs>
<clipPath id="clip0_8_569">
<rect width="154.674" height="156.206" fill="white" transform="translate(0.167969 0.724121)"/>
</clipPath>
</defs>
</svg>
