<svg width="172" height="163" viewBox="0 0 172 163" fill="none" xmlns="http://www.w3.org/2000/svg">
<path d="M124.744 150.734L124.753 150.731C125.254 150.583 125.739 150.434 126.214 150.289C127.604 149.864 128.9 149.467 130.205 149.196L130.288 149.179H130.372H130.413C131.458 149.053 132.283 149.685 132.644 150.442C133.016 151.222 132.967 152.3 132.085 152.998C132.084 152.999 132.083 152.999 132.083 153C131.985 153.077 131.881 153.144 131.77 153.201L131.762 153.205C127.252 155.445 122.387 155.755 117.925 153.235C117.925 153.235 117.925 153.235 117.925 153.235L118.329 152.519C103.473 144.136 88.674 135.653 74.0012 126.941L124.744 150.734ZM124.744 150.734L124.735 150.737M124.744 150.734L124.735 150.737M124.735 150.737C124.627 150.771 124.511 150.773 124.403 150.741C123.807 150.522 123.167 150.312 122.535 150.105C122.123 149.97 121.714 149.836 121.324 149.702C120.296 149.348 119.305 148.963 118.386 148.459C111.199 144.437 104.078 140.31 96.9467 136.177C95.1472 135.135 93.347 134.091 91.5451 133.05C90.4113 132.393 89.2763 131.74 88.1419 131.087C84.0719 128.745 80.0098 126.407 76.0415 123.941C74.3687 122.894 73.0601 121.647 72.2512 120.184C71.4494 118.735 71.1113 117.025 71.4491 114.986L71.4494 114.984C71.6342 113.851 71.8398 113.028 72.0857 112.451C72.3299 111.877 72.577 111.63 72.7963 111.518C73.0159 111.406 73.358 111.352 73.958 111.487C74.5623 111.623 75.3342 111.931 76.3368 112.425L76.3377 112.426C78.1714 113.328 80.001 114.261 81.8356 115.196C86.679 117.666 91.5565 120.153 96.6313 122.134C101.176 123.914 105.62 124.067 109.664 122.761C113.704 121.458 117.289 118.718 120.162 114.807L120.166 114.8M124.735 150.737L120.166 114.8M118.835 108.62L118.836 108.62C120.896 105.463 122.741 102.167 124.602 98.8425C125.11 97.9339 125.62 97.0231 126.136 96.1124L126.136 96.1112C127.335 94.0038 128.94 92.1565 130.86 90.6772C132.78 89.1979 134.975 88.1164 137.317 87.4958C139.66 86.8753 142.102 86.7282 144.502 87.0631C146.902 87.398 149.211 88.2082 151.294 89.4464C154.578 91.3956 157.775 93.6744 159.395 97.6741C160.005 99.086 160.423 100.573 160.639 102.096L160.644 102.129L160.646 102.162C160.665 102.483 160.608 102.804 160.48 103.099C160.33 103.455 160.087 103.765 159.777 103.997C159.464 104.23 159.095 104.375 158.708 104.416C158.32 104.458 157.929 104.395 157.574 104.233C157.22 104.071 156.916 103.818 156.693 103.499M118.835 108.62L157.366 103.027M118.835 108.62C116.977 111.473 114.874 114.279 112.326 116.294L118.835 108.62ZM156.693 103.499C156.692 103.498 156.692 103.498 156.692 103.497L157.366 103.027M156.693 103.499C156.693 103.499 156.694 103.5 156.694 103.501L157.366 103.027M156.693 103.499C156.602 103.37 156.526 103.232 156.465 103.086M157.366 103.027C157.308 102.945 157.259 102.855 157.221 102.762M156.465 103.086C156.467 103.09 156.469 103.094 156.471 103.098L157.221 102.762M156.465 103.086C156.464 103.082 156.462 103.077 156.46 103.073L157.221 102.762M156.465 103.086L157.221 102.762M120.166 114.8L120.171 114.793M120.166 114.8L120.171 114.793M120.171 114.793C121.459 112.965 122.654 111.073 123.752 109.125C124.92 107.137 126.052 105.164 127.181 103.195C128.503 100.89 129.822 98.591 131.193 96.2796M120.171 114.793L131.193 96.2796M131.193 96.2796C133.251 92.8251 136.032 90.5989 140.113 90.3538L131.193 96.2796ZM85.6328 112.156C82.6597 110.647 79.6826 109.136 76.6862 107.655L112.326 116.294C106.847 120.62 100.852 119.751 94.7464 116.74C91.7262 115.249 88.7259 113.726 85.7217 112.201L85.6328 112.156ZM155.477 99.7666C155.478 99.767 155.478 99.7674 155.478 99.7677L156.235 99.4466L155.476 99.7642C155.477 99.765 155.477 99.7658 155.477 99.7666Z" fill="#4172BC" stroke="#4172BC" stroke-width="1.64428"/>
<path d="M116.849 40.3492C116.746 48.3454 116.515 56.3248 116.284 64.3086C116.216 66.65 116.149 68.9919 116.084 71.3346C116.04 72.8226 116.002 74.3106 115.964 75.7982C115.848 80.3106 115.733 84.819 115.453 89.3108C115.329 91.2826 114.86 93.0259 113.962 94.4333C113.071 95.8276 111.729 96.94 109.765 97.6195L109.764 97.6198C108.687 97.9943 107.871 98.2031 107.249 98.2606C106.633 98.3177 106.3 98.2176 106.097 98.0775C105.893 97.9367 105.682 97.6598 105.514 97.0664C105.346 96.469 105.248 95.6429 105.204 94.525C105.128 92.5285 105.079 90.518 105.029 88.5006C104.895 83.0312 104.76 77.5102 104.086 72.0741C103.496 67.2272 101.52 63.2368 98.4467 60.2948C95.377 57.3564 91.2561 55.5051 86.4378 54.8531L86.4378 54.853L86.4256 54.8515C84.205 54.5846 81.972 54.4328 79.7357 54.3967C77.451 54.3178 75.1903 54.261 72.9334 54.2043C70.2627 54.1372 67.5973 54.0702 64.9037 53.9669L116.849 40.3492ZM116.849 40.3492C116.857 39.3039 116.724 38.249 116.545 37.1771C116.476 36.7657 116.397 36.3373 116.318 35.9054C116.198 35.2521 116.076 34.591 115.985 33.9691M116.849 40.3492L49.3202 39.5103C49.2274 41.9266 49.6155 44.3372 50.462 46.6021C51.3084 48.8671 52.5964 50.941 54.2509 52.7034C55.9055 54.4659 57.8937 55.8816 60.0999 56.8683C62.3062 57.855 64.6864 58.393 67.1023 58.4509L67.106 58.451C68.1889 58.4721 69.2679 58.4873 70.3437 58.5025C74.1247 58.5557 77.8657 58.6084 81.5941 58.9165C85.0058 59.1994 88.4679 59.7102 91.4513 60.9967L91.4518 60.9969C97.8621 63.7564 99.9565 69.4362 100.21 76.2529L100.21 76.2546C100.343 79.6306 100.438 83.0028 100.531 86.3768L100.542 86.7938C100.632 90.0275 100.721 93.263 100.843 96.4977L100.843 96.5023C100.932 98.58 101.468 100.228 102.673 101.29C103.878 102.351 105.569 102.665 107.589 102.506L107.591 102.506C111.05 102.223 114.062 100.896 116.249 98.6751C118.438 96.4517 119.753 93.3801 119.896 89.6983C120.566 72.6657 120.977 55.5779 121.268 38.4929L121.268 38.4887C121.329 33.3747 118.779 29.2512 114.671 26.3485C114.558 26.262 114.433 26.1918 114.301 26.1398C113.273 25.7049 112.309 26.1777 111.804 26.8725C111.302 27.5646 111.143 28.6205 111.799 29.4902C111.799 29.4903 111.799 29.4905 111.799 29.4906L111.854 29.5646L111.868 29.5834L111.884 29.6015C112.738 30.6151 113.697 31.5603 114.725 32.5723C115.085 32.9276 115.454 33.2911 115.83 33.6687L115.835 33.6737C115.916 33.7532 115.968 33.8569 115.985 33.9691M115.985 33.9691C115.985 33.9685 115.985 33.9679 115.985 33.9673L116.798 33.848L115.985 33.9698C115.985 33.9696 115.985 33.9693 115.985 33.9691ZM56.0262 25.2517L56.0427 25.2408C56.317 25.0601 56.6323 24.9515 56.9595 24.9249C57.344 24.8875 57.7316 24.9531 58.0824 25.1153C58.4364 25.2789 58.74 25.5347 58.9612 25.8559C59.1825 26.1771 59.3133 26.5519 59.3401 26.941C59.367 27.3301 59.2887 27.7193 59.1137 28.0678L59.108 28.0791L59.102 28.0902C59.0353 28.2133 58.9602 28.3318 58.8773 28.4447L58.872 28.452L58.8665 28.4591C58.464 28.9828 57.9721 29.4195 57.5461 29.7978L57.5452 29.7986C57.0982 30.1955 56.7196 30.5317 56.4184 30.9112L56.4157 30.9146L56.4157 30.9146C54.7885 32.9429 53.8059 36.2728 53.6235 39.7618C53.4411 43.2481 54.068 46.6983 55.4557 48.9465C57.6132 52.4178 60.8992 53.8099 64.9034 53.9669L56.0262 25.2517ZM56.0262 25.2517L56.0103 25.2633M56.0262 25.2517L56.0103 25.2633M56.0103 25.2633C54.7643 26.1732 53.6484 27.2491 52.6936 28.4613M56.0103 25.2633L52.6936 28.4613M52.6936 28.4613C49.9566 31.7933 49.4667 35.6853 49.3202 39.5102L52.6936 28.4613ZM104.382 94.5563C104.559 99.105 105.647 99.9211 110.034 98.3964C114.295 96.9224 116.015 93.4934 116.274 89.3623C116.554 84.8539 116.67 80.3241 116.786 75.8078C116.824 74.3224 116.862 72.8385 116.906 71.3573C116.97 69.0169 117.038 66.6765 117.106 64.3358C117.337 56.3505 117.568 48.3617 117.671 40.3579L104.382 94.5563Z" fill="#4172BC" stroke="#4172BC" stroke-width="1.64428"/>
<path d="M21.1688 105.194L21.168 105.194C21.0788 105.273 21.0164 105.378 20.9897 105.494C20.8727 106.012 20.7638 106.518 20.6572 107.014C20.3585 108.402 20.0781 109.706 19.69 110.942C19.6885 110.95 19.6869 110.958 19.6851 110.966C19.6741 111.017 19.6487 111.117 19.5862 111.229C19.1756 112.18 18.2314 112.583 17.4025 112.53C16.5398 112.474 15.6211 111.905 15.444 110.793L15.4337 110.729V110.664V110.663V110.663V110.662V110.662V110.662V110.661V110.661V110.66V110.66V110.66V110.659V110.659V110.658V110.658V110.658V110.657V110.657V110.656V110.656V110.656V110.655V110.655V110.654V110.654V110.653V110.653V110.653V110.652V110.652V110.651V110.651V110.651V110.65V110.65V110.649V110.649V110.649V110.648V110.648V110.647V110.647V110.646V110.646V110.646V110.645V110.645V110.644V110.644V110.644V110.643V110.643V110.642V110.642V110.641V110.641V110.641V110.64V110.64V110.639V110.639V110.639V110.638V110.638V110.637V110.637V110.637V110.636V110.636V110.635V110.635V110.634V110.634V110.634V110.633V110.633V110.632V110.632V110.632V110.631V110.631V110.63V110.63V110.629V110.629V110.629V110.628V110.628V110.627V110.627V110.626V110.626V110.626V110.625V110.625V110.624V110.624V110.624V110.623V110.623V110.622V110.622V110.621V110.621V110.621V110.62V110.62V110.619V110.619V110.619V110.618V110.618V110.617V110.617V110.616V110.616V110.616V110.615V110.615V110.614V110.614V110.613V110.613V110.613V110.612V110.612V110.611V110.611V110.611V110.61V110.61V110.609V110.609V110.608V110.608V110.608V110.607V110.607V110.606V110.606V110.605V110.605V110.605V110.604V110.604V110.603V110.603V110.603V110.602V110.602V110.601V110.601V110.6V110.6V110.6V110.599V110.599V110.598V110.598V110.597V110.597V110.597V110.596V110.596V110.595V110.595V110.594V110.594V110.594V110.593V110.593V110.592V110.592V110.591V110.591V110.591V110.59V110.59V110.589V110.589V110.589V110.588V110.588V110.587V110.587V110.586V110.586V110.586V110.585V110.585V110.584V110.584V110.583V110.583V110.583V110.582V110.582V110.581V110.581V110.58V110.58V110.58V110.579V110.579V110.578V110.578V110.577V110.577V110.577V110.576V110.576V110.575V110.575V110.574V110.574V110.574V110.573V110.573V110.572V110.572V110.572V110.571V110.571V110.57V110.57V110.569V110.569V110.569V110.568V110.568V110.567V110.567V110.566V110.566V110.566V110.565V110.565V110.564V110.564V110.563V110.563V110.563V110.562V110.562V110.561V110.561V110.56V110.56V110.56V110.559V110.559V110.558V110.558V110.557V110.557V110.557V110.556V110.556V110.555V110.555V110.554V110.554V110.554V110.553V110.553V110.552V110.552V110.551V110.551V110.551V110.55V110.55V110.549V110.549V110.548V110.548V110.548V110.547V110.547V110.546V110.546V110.546V110.545V110.545V110.544V110.544V110.543V110.543V110.543V110.542V110.542V110.541V110.541V110.54V110.54V110.54V110.539V110.539V110.538V110.538V110.537V110.537V110.537V110.536V110.536V110.535V110.535V110.534V110.534V110.534V110.533V110.533V110.532V110.532V110.531V110.531V110.531V110.53V110.53V110.529V110.529V110.528V110.528V110.528V110.527V110.527V110.526V110.526V110.526V110.525V110.525V110.524V110.524V110.523V110.523V110.523V110.522V110.522V110.521V110.521V110.52V110.52V110.52V110.519V110.519V110.518V110.518V110.517V110.517V110.517V110.516V110.516V110.515V110.515V110.514V110.514V110.514V110.513V110.513V110.512V110.512V110.512V110.511V110.511V110.51V110.51V110.509V110.509V110.509V110.508V110.508V110.507V110.507V110.506V110.506V110.506V110.505V110.505V110.504V110.504V110.503V110.503V110.503V110.502V110.502V110.501V110.501V110.501V110.5V110.5V110.499V110.499V110.498V110.498V110.498V110.497V110.497V110.496V110.496V110.495V110.495V110.495V110.494V110.494V110.493V110.493V110.493V110.492V110.492V110.491V110.491V110.49V110.49V110.49V110.489V110.489V110.488V110.488V110.488V110.487V110.487V110.486V110.486V110.485V110.485V110.485V110.484V110.484V110.483V110.483V110.482V110.482V110.482V110.481V110.481V110.48V110.48V110.48V110.479V110.479V110.478V110.478V110.477V110.477V110.477V110.476V110.476V110.475V110.475V110.475V110.474V110.474V110.473V110.473V110.473V110.472V110.472V110.471V110.471V110.47V110.47V110.47V110.469V110.469V110.468V110.468V110.468V110.467V110.467V110.466V110.466V110.465V110.465V110.465V110.464V110.464V110.463V110.463V110.463V110.462V110.462V110.461V110.461V110.461V110.46V110.46V110.459V110.459V110.458V110.458V110.458V110.457V110.457V110.456V110.456V110.456V110.455V110.455V110.454V110.454V110.454V110.453V110.453V110.452V110.452V110.451V110.451V110.451V110.45V110.45V110.449V110.449V110.449V110.428L15.4348 110.407C15.6922 105.379 17.794 100.984 22.148 98.3158L22.1506 98.3142C36.724 89.4562 51.3582 80.6527 66.1205 72.0952C69.3077 70.2474 72.6056 69.7172 75.6526 70.3821C78.6957 71.0461 81.4222 72.8876 83.5008 75.6664C84.718 77.2905 85.3549 78.893 85.1043 80.4798C84.8533 82.069 83.75 83.4036 82.0455 84.5797L82.0423 84.5819C79.4495 86.353 76.8581 88.097 74.2682 89.84C71.276 91.8539 68.2858 93.8663 65.2979 95.9175C59.694 99.7719 56.0064 104.587 57.1035 111.483L57.1035 111.484C57.613 114.689 59.0286 117.901 60.6104 120.916L60.6112 120.918C62.3384 124.229 64.2899 127.416 66.2589 130.631C66.823 131.552 67.3886 132.476 67.9507 133.406L67.9511 133.406C69.2037 135.482 70.0299 137.787 70.3815 140.187C70.7332 142.586 70.6031 145.032 69.999 147.38C69.3949 149.728 68.3289 151.933 66.8633 153.864C65.3979 155.795 63.5623 157.414 61.4641 158.627C61.4638 158.627 61.4635 158.627 61.4632 158.628L61.0518 157.916C57.7772 159.814 54.4266 161.376 50.4313 160.864L21.1688 105.194ZM21.1688 105.194C21.5898 104.821 21.9987 104.443 22.4045 104.068C23.5856 102.976 24.7397 101.909 26.0857 101.084L26.0866 101.084M21.1688 105.194L26.0866 101.084M59.8823 121.298C58.2892 118.262 56.8226 114.953 56.2916 111.613C55.122 104.261 59.1111 99.1749 64.8323 95.2399L59.8823 121.298ZM59.8823 121.298C61.6238 124.636 63.595 127.855 65.5666 131.075C66.1285 131.993 66.6905 132.91 67.2472 133.831L59.8823 121.298ZM26.0866 101.084C32.8148 96.9519 39.6158 92.9099 46.4116 88.871M26.0866 101.084L46.4116 88.871M46.4116 88.871C48.485 87.6387 50.5578 86.4068 52.628 85.1726L46.4116 88.871ZM45.8698 160.604C47.3029 161.167 48.8069 161.53 50.339 161.681L52.6281 85.1726C53.8105 84.4693 54.9887 83.7632 56.1655 83.0579C60.1364 80.678 64.0911 78.3078 68.1355 76.0896C69.8709 75.1382 71.595 74.602 73.2639 74.6084C74.9172 74.6148 76.5728 75.1532 78.1958 76.4479C79.09 77.1626 79.7039 77.7432 80.0856 78.2396C80.4645 78.7323 80.5578 79.0677 80.5477 79.3135C80.5376 79.5601 80.4167 79.8853 80.0046 80.3428C79.5896 80.8035 78.9436 81.3269 78.0218 81.96C76.3987 83.0739 74.7525 84.1726 73.1016 85.2743C68.5157 88.3348 63.894 91.4193 59.6326 94.9207C55.8611 98.0162 53.5523 101.817 52.712 105.986C51.8727 110.149 52.5095 114.619 54.5256 119.045L54.526 119.046C55.4586 121.087 56.6056 123.043 57.7096 124.926L57.7254 124.953L57.727 124.956C58.6994 126.601 59.6753 128.232 60.649 129.859C62.2162 132.479 63.7777 135.088 65.3095 137.729C67.3312 141.226 67.912 144.748 66.1339 148.429C64.9912 150.795 62.4264 153.165 59.392 154.874C56.3562 156.583 53.0203 157.534 50.4278 157.244L50.4273 157.244C49.9458 157.191 49.4615 157.051 48.8924 156.887L48.8763 156.882C48.3305 156.725 47.7019 156.544 47.0468 156.484C46.8867 156.466 46.725 156.466 46.5649 156.485C46.181 156.525 45.8147 156.667 45.5037 156.896C45.1899 157.127 44.944 157.438 44.7914 157.796C44.6388 158.155 44.5852 158.548 44.6361 158.934C44.6867 159.318 44.8392 159.682 45.0775 159.988C45.275 160.245 45.5324 160.451 45.8275 160.586L45.8484 160.596L45.8698 160.604Z" fill="#4172BC" stroke="#4172BC" stroke-width="1.64428"/>
<path d="M170.896 128.363C170.892 121.969 168.356 115.837 163.843 111.311C159.33 106.783 153.208 104.23 146.818 104.211L146.814 104.211C140.429 104.223 134.306 106.754 129.774 111.254C125.242 115.754 122.665 121.861 122.603 128.25L122.603 128.254L146.866 151.71L146.868 152.532C146.868 152.532 146.868 152.532 146.869 152.532C150.033 152.527 153.165 151.897 156.085 150.679C159.007 149.461 161.659 147.679 163.891 145.434C166.122 143.189 167.89 140.525 169.092 137.596C170.294 134.667 170.907 131.529 170.896 128.363ZM170.896 128.363C170.896 128.364 170.896 128.364 170.896 128.365L170.073 128.365L170.895 128.362C170.895 128.363 170.896 128.363 170.896 128.363ZM146.821 148.003L146.812 148.003L146.804 148.003C144.223 148.041 141.662 147.563 139.268 146.599C136.874 145.634 134.697 144.201 132.863 142.384C131.03 140.567 129.576 138.403 128.589 136.017C127.601 133.631 127.099 131.072 127.111 128.489H127.111L127.111 128.478C127.087 125.897 127.572 123.337 128.539 120.944C129.506 118.551 130.936 116.373 132.746 114.535C134.556 112.696 136.711 111.234 139.087 110.231C141.463 109.228 144.014 108.704 146.593 108.69L146.595 108.69C149.203 108.667 151.789 109.162 154.205 110.144C156.621 111.127 158.819 112.578 160.672 114.415C162.525 116.252 163.996 118.437 165.001 120.846C166.006 123.254 166.524 125.837 166.527 128.447C166.522 131.027 166.008 133.581 165.014 135.963C164.02 138.344 162.565 140.505 160.734 142.322C158.903 144.14 156.731 145.577 154.344 146.552C151.956 147.526 149.4 148.02 146.821 148.003Z" fill="#4172BC" stroke="#4172BC" stroke-width="1.64428"/>
<path d="M105.338 25.4722C105.279 20.0406 103.086 14.8504 99.2328 11.0248C95.3793 7.19931 90.1755 5.04623 84.7476 5.03158L104.515 25.4789M105.338 25.4722L104.515 25.4768C104.515 25.4775 104.515 25.4782 104.515 25.4789M105.338 25.4722C105.401 36.7396 95.8928 46.2228 84.6148 46.1343L105.338 25.4722ZM104.515 25.4789C104.459 20.264 102.353 15.2811 98.6535 11.6083C94.9535 7.93504 89.9569 5.86779 84.7453 5.85372L84.7453 5.85371C82.1658 5.84651 79.6103 6.34931 77.2256 7.33328C74.8408 8.31726 72.6738 9.76301 70.8489 11.5875C69.024 13.4121 67.5773 15.5795 66.5917 17.9652C65.6062 20.351 65.1014 22.908 65.1062 25.4896L65.1062 25.495C65.0818 30.7091 67.1213 35.7207 70.7786 39.4342C74.4358 43.1476 79.4133 45.2609 84.6229 45.3122C95.4416 45.3962 104.575 36.286 104.515 25.4789ZM75.4758 47.8364C78.4063 49.042 81.5466 49.6546 84.7151 49.6388L84.7159 48.8167C87.7752 48.8392 90.8088 48.2562 93.6421 47.1011C96.4754 45.946 99.0525 44.2417 101.225 42.0863C103.398 39.9308 105.123 37.3667 106.302 34.5415C107.481 31.7163 108.09 28.6857 108.094 25.624L108.916 25.6279C108.916 25.6275 108.916 25.627 108.916 25.6266C108.931 22.4517 108.317 19.3052 107.11 16.3689C105.903 13.4322 104.126 10.7638 101.883 8.51775C99.6398 6.2717 96.9743 4.49249 94.0402 3.28284C91.1077 2.07383 87.965 1.45773 84.7934 1.47008C81.6243 1.44564 78.4818 2.04958 75.5472 3.24708C72.6111 4.4452 69.9414 6.21373 67.6923 8.45041C65.4433 10.6871 63.6595 13.3476 62.444 16.2781C61.2289 19.2079 60.6058 22.3495 60.6108 25.5215C60.5955 28.6929 61.2085 31.8359 62.4142 34.7689C63.6203 37.7027 65.3957 40.3682 67.6376 42.6112C69.8796 44.8542 72.5436 46.6301 75.4758 47.8364Z" fill="#4172BC" stroke="#4172BC" stroke-width="1.64428"/>
<path d="M49.8451 136.731C49.8563 133.558 49.2396 130.413 48.0307 127.479C46.8216 124.545 45.0441 121.88 42.8005 119.636C40.557 117.393 37.8919 115.616 34.9588 114.409C32.0272 113.202 28.886 112.587 25.7161 112.6C22.5471 112.576 19.4046 113.18 16.47 114.377C13.5339 115.575 10.8642 117.344 8.6152 119.581C6.36616 121.817 4.58239 124.478 3.36691 127.408C2.15177 130.338 1.52868 133.48 1.53361 136.652C1.51835 139.824 2.13153 142.967 3.3377 145.901C4.54423 148.835 6.32016 151.501 8.5628 153.744C10.8054 155.987 13.4703 157.763 16.4032 158.969C19.3345 160.174 22.4754 160.786 25.6444 160.769C28.8123 160.791 31.9534 160.186 34.8868 158.988C37.8218 157.79 40.491 156.023 42.7408 153.789C44.9905 151.555 46.7764 148.897 47.9957 145.969C49.2147 143.042 49.8433 139.902 49.8451 136.731ZM49.8451 136.731C49.8451 136.73 49.8451 136.73 49.8451 136.729L49.023 136.729L49.8451 136.732C49.8451 136.732 49.8451 136.731 49.8451 136.731ZM6.029 136.626H6.02902L6.02901 136.62C6.0234 134.038 6.52751 131.481 7.51236 129.096C8.49721 126.71 9.9434 124.543 11.7678 122.718C13.5922 120.893 15.7588 119.448 18.1431 118.464C20.5275 117.48 23.0827 116.977 25.6618 116.984L25.6621 116.984C30.8741 116.996 35.8715 119.063 39.5719 122.737C43.2717 126.41 45.377 131.393 45.4319 136.608C45.4918 147.416 36.3583 156.526 25.5394 156.442C20.3305 156.391 15.3537 154.278 11.6975 150.564C8.04121 146.851 6.00308 141.839 6.029 136.626Z" fill="#4172BC" stroke="#4172BC" stroke-width="1.64428"/>
</svg>
