<svg width="162" height="149" viewBox="0 0 162 149" fill="none" xmlns="http://www.w3.org/2000/svg">
<path d="M6.53725 77.7383H72.9064C76.9067 77.7383 77.6948 78.4647 77.6948 82.1241C77.6948 101.641 77.6948 121.153 77.6948 140.661V143.306H86.3051C87.6584 143.306 89.0265 143.306 90.3797 143.306C90.7808 143.292 91.1805 143.355 91.5533 143.492C91.9261 143.63 92.2635 143.837 92.5437 144.102C92.824 144.367 93.041 144.683 93.1805 145.03C93.3201 145.377 93.3792 145.746 93.3539 146.116C93.3699 146.469 93.3083 146.822 93.1729 147.153C93.0376 147.484 92.8312 147.787 92.5661 148.043C92.3009 148.299 91.9824 148.503 91.6297 148.642C91.2771 148.782 90.8974 148.855 90.5135 148.857C89.9438 148.884 89.373 148.884 88.8033 148.857C60.9055 148.857 33.0026 148.857 5.09482 148.857C1.39196 148.857 0.63354 148.103 0.63354 144.745V67.418C0.63354 67.0205 0.63354 66.6231 0.63354 66.2393C0.608456 65.8695 0.66769 65.499 0.807083 65.1515C0.946475 64.804 1.16313 64.4871 1.44316 64.2213C1.7232 63.9554 2.06044 63.7464 2.43323 63.6078C2.80601 63.4691 3.20593 63.4038 3.60773 63.416C4.02341 63.3862 4.44118 63.4406 4.8316 63.5755C5.22202 63.7104 5.57579 63.9225 5.86777 64.1968C6.15975 64.4712 6.38282 64.801 6.52164 65.1634C6.66047 65.5257 6.71157 65.9117 6.67122 66.2942C6.74558 69.3231 6.67122 72.3521 6.67122 75.381L6.53725 77.7383ZM71.5233 143.238V83.4125H6.67122V143.238H71.5233Z" fill="#D35F46"/>
<path d="M91.9711 61.9904L131.557 25.4786H124.88C122.338 25.4786 120.984 24.5192 120.954 22.7375C120.925 20.9557 122.323 19.9964 124.791 19.9142C129.372 19.9142 133.952 19.9142 138.532 19.9142C141.253 19.9142 142.279 20.8872 142.309 23.3953C142.309 27.6715 142.309 31.9613 142.309 36.2512C142.309 38.4578 141.238 39.6364 139.335 39.6501C137.431 39.6638 136.361 38.4304 136.361 36.2923C136.361 34.1543 136.361 32.1806 136.361 30.2481L97.1759 66.3214H102.202C103.132 66.3048 104.061 66.3505 104.983 66.4584C105.701 66.5242 106.361 66.8499 106.818 67.3639C107.275 67.8778 107.493 68.5381 107.422 69.1995C107.44 69.5184 107.388 69.8372 107.27 70.1373C107.152 70.4374 106.969 70.7126 106.734 70.9465C106.498 71.1804 106.214 71.3684 105.898 71.4991C105.581 71.6299 105.24 71.7007 104.894 71.7076C99.4661 71.7898 94.0234 71.8035 88.536 71.7076C88.1684 71.6971 87.8072 71.6157 87.4759 71.4687C87.1445 71.3217 86.8501 71.1123 86.6119 70.854C86.3738 70.5957 86.197 70.2944 86.093 69.9693C85.9889 69.6442 85.9599 69.3025 86.0078 68.9665C86.0078 64.2929 86.0078 59.6056 86.0078 54.9319C85.979 54.5652 86.0363 54.1971 86.1756 53.8525C86.3148 53.5079 86.5329 53.1948 86.8151 52.9348C87.0972 52.6748 87.4369 52.4738 87.8108 52.3454C88.1847 52.217 88.584 52.1643 88.982 52.1908C89.3939 52.1705 89.8057 52.2331 90.1886 52.3743C90.5716 52.5156 90.9165 52.7321 91.1996 53.0086C91.4826 53.2851 91.697 53.6151 91.8277 53.9756C91.9583 54.3362 92.0021 54.7186 91.9562 55.0964C92.0157 57.3715 91.9711 59.6056 91.9711 61.9904Z" fill="#D35F46"/>
<path d="M6.53648 6.41533C6.53648 8.67675 6.53648 10.6504 6.53648 12.624C6.53648 14.5976 5.25782 15.9682 3.42869 15.8997C1.59957 15.8311 0.573199 14.5976 0.543457 12.624C0.543457 9.78695 0.543457 6.96366 0.543457 4.1266C0.543457 1.89258 1.67388 0.919501 4.12758 0.89209C7.20091 0.89209 10.2742 0.89209 13.3475 0.89209C15.474 0.89209 16.8125 2.00224 16.8274 3.63321C16.8423 5.26418 15.5187 6.37434 13.407 6.37434C11.2954 6.37434 8.99019 6.41533 6.53648 6.41533Z" fill="#D35F46"/>
<path d="M155.083 6.41356C152.629 6.41356 150.428 6.41356 148.227 6.41356C146.026 6.41356 144.792 5.27599 144.792 3.67243C144.792 2.06888 146.13 0.931311 148.257 0.931311C151.409 0.931311 154.547 0.931311 157.7 0.931311C158.151 0.871898 158.61 0.908624 159.042 1.03855C159.475 1.16848 159.87 1.38824 160.196 1.68084C160.522 1.97343 160.771 2.33113 160.923 2.72633C161.076 3.12152 161.128 3.5437 161.076 3.96037C161.076 6.92078 161.076 9.88117 161.076 12.8416C161.117 13.237 161.068 13.6361 160.931 14.0129C160.794 14.3896 160.573 14.7356 160.281 15.0279C159.989 15.3203 159.633 15.5525 159.237 15.7095C158.841 15.8665 158.414 15.9448 157.982 15.9391C157.572 15.9185 157.17 15.8219 156.801 15.6551C156.431 15.4884 156.102 15.2547 155.833 14.9682C155.564 14.6817 155.36 14.3483 155.234 13.9876C155.107 13.627 155.061 13.2465 155.098 12.869C155.008 10.7858 155.083 8.75722 155.083 6.41356Z" fill="#D35F46"/>
<path d="M155.083 143.319C155.083 141.071 155.083 139.043 155.083 137.014C155.083 134.986 156.303 133.835 158.058 133.835C158.49 133.83 158.919 133.912 159.313 134.075C159.708 134.239 160.059 134.48 160.342 134.781C160.625 135.083 160.833 135.437 160.953 135.821C161.072 136.204 161.099 136.607 161.032 137.001C161.032 139.892 161.032 142.798 161.032 145.69C161.091 146.121 161.042 146.558 160.888 146.968C160.734 147.379 160.48 147.751 160.145 148.056C159.81 148.361 159.403 148.59 158.956 148.727C158.508 148.863 158.033 148.903 157.567 148.842C154.414 148.842 151.276 148.842 148.124 148.842C147.694 148.885 147.26 148.843 146.849 148.72C146.439 148.596 146.061 148.393 145.742 148.125C145.423 147.857 145.169 147.529 144.998 147.164C144.826 146.798 144.741 146.403 144.748 146.005C144.759 145.621 144.854 145.243 145.029 144.894C145.204 144.545 145.455 144.232 145.765 143.976C146.076 143.719 146.44 143.524 146.835 143.401C147.23 143.279 147.648 143.232 148.064 143.264C150.31 143.278 152.526 143.319 155.083 143.319Z" fill="#D35F46"/>
<path d="M80.8015 0.877093C83.7757 0.877093 86.7499 0.877093 89.7985 0.877093C92.1035 0.877093 93.3675 1.95978 93.308 3.7278C93.2485 5.49583 92.0142 6.38669 89.7985 6.46893C83.8501 6.46893 77.8522 6.46893 71.8047 6.46893C69.4997 6.46893 68.2355 5.38623 68.295 3.6045C68.3545 1.82277 69.5889 0.972932 71.8047 0.945521C74.8086 0.863287 77.7975 0.877093 80.8015 0.877093Z" fill="#D35F46"/>
<path d="M155.083 74.874C155.083 72.1329 155.083 69.3917 155.083 66.5821C155.083 64.444 156.243 63.2928 158.176 63.3476C160.11 63.4024 161.061 64.5262 161.061 66.5684C161.061 72.0506 161.061 77.5785 161.061 83.1521C161.061 85.2765 159.887 86.4416 157.968 86.3868C156.05 86.332 155.098 85.208 155.083 83.1658C155.009 80.3973 155.083 77.6289 155.083 74.874Z" fill="#D35F46"/>
<path d="M42.6013 6.4134C39.6271 6.4134 36.653 6.4134 33.6788 6.4134C31.344 6.4134 30.0801 5.37177 30.1099 3.67228C30.1396 1.97278 31.4036 0.931152 33.7681 0.931152C39.7164 0.931152 45.6648 0.931152 51.6132 0.931152C53.9033 0.931152 55.2269 2.00019 55.1971 3.67228C55.1674 5.34436 53.8588 6.4134 51.5241 6.4134C48.4606 6.44081 45.5309 6.4134 42.6013 6.4134Z" fill="#D35F46"/>
<path d="M119.319 0.877063C122.294 0.877063 125.179 0.877063 128.108 0.877063C130.309 0.877063 131.558 1.86379 131.618 3.53587C131.677 5.20796 130.398 6.38659 128.093 6.4003C122.145 6.4003 116.147 6.4003 110.1 6.4003C107.839 6.4003 106.516 5.27649 106.59 3.53587C106.664 1.79526 107.914 0.890769 110.114 0.877063C113.148 0.863357 116.226 0.877063 119.319 0.877063Z" fill="#D35F46"/>
<path d="M6.53624 39.856C6.53624 42.5971 6.53624 45.256 6.53624 47.9423C6.53624 49.9433 5.37631 51.122 3.56205 51.1357C3.13051 51.149 2.70098 51.0757 2.30332 50.9207C1.90567 50.7656 1.54963 50.5325 1.25953 50.2377C0.969429 49.943 0.752239 49.5937 0.623447 49.2138C0.494654 48.834 0.457427 48.4327 0.513803 48.0382C0.513803 42.4463 0.513803 36.8498 0.513803 31.2488C0.513803 29.2204 1.62912 28.0966 3.48799 28.0829C5.34685 28.0692 6.46188 29.2205 6.53624 31.3723C6.55111 34.1956 6.53624 37.0189 6.53624 39.856Z" fill="#D35F46"/>
<path d="M155.083 39.5133C155.083 36.7722 155.083 34.0311 155.083 31.29C155.083 29.2752 156.214 28.1515 158.058 28.1515C159.902 28.1515 161.032 29.2615 161.032 31.2625C161.032 36.8544 161.032 42.4463 161.032 48.0382C161.032 50.0255 159.857 51.2043 158.058 51.2043C156.258 51.2043 155.083 50.0392 155.083 48.0656C155.009 45.1737 155.083 42.3367 155.083 39.5133Z" fill="#D35F46"/>
<path d="M161.091 110.193C161.091 112.934 161.091 115.676 161.091 118.417C161.091 120.431 159.976 121.569 158.117 121.583C156.258 121.596 155.143 120.472 155.143 118.485C155.143 112.893 155.143 107.301 155.143 101.709C155.143 99.7084 156.288 98.5435 158.117 98.5161C159.946 98.4887 161.091 99.6674 161.091 101.641C161.121 104.478 161.091 107.356 161.091 110.193Z" fill="#D35F46"/>
<path d="M119.095 148.842C116.121 148.842 113.147 148.842 110.173 148.842C107.882 148.842 106.574 147.746 106.633 146.005C106.693 144.265 107.942 143.264 110.128 143.264C116.076 143.264 122.074 143.264 128.122 143.264C130.442 143.264 131.706 144.333 131.661 146.101C131.617 147.869 130.367 148.76 128.166 148.842C125.088 148.87 122.099 148.842 119.095 148.842Z" fill="#D35F46"/>
</svg>
