<svg width="159" height="92" viewBox="0 0 159 92" fill="none" xmlns="http://www.w3.org/2000/svg">
<g clip-path="url(#clip0_8_578)">
<path d="M8.74804 50.6511L12.752 52.3064C9.69065 59.9184 8.00222 68.1167 7.77898 76.398V76.4025C7.76692 76.7946 7.60214 77.1666 7.31961 77.4395C7.03709 77.7124 6.65906 77.8647 6.26578 77.8641C5.87251 77.8635 5.49494 77.7101 5.21323 77.4364C4.93153 77.1626 4.76786 76.7902 4.75697 76.398C4.53967 67.6471 5.89126 58.9279 8.74804 50.6511Z" fill="#05AA4F"/>
<path d="M23.3881 25.7021L27.4798 29.7817C22.3746 34.9911 18.1284 40.9739 14.8988 47.5079L10.6406 45.7497C13.783 38.4277 18.0873 31.6585 23.3881 25.7021Z" fill="#5EBF4A"/>
<path d="M46.7103 8.05884L49.4775 14.7255C42.8509 17.5613 36.7166 21.4267 31.3028 26.1776L27.0137 21.8992C32.7909 16.2599 39.4418 11.5865 46.7103 8.05884Z" fill="#B7D345"/>
<path d="M51.5254 5.92813C59.1136 2.89433 67.1437 1.10465 75.3047 0.628418V9.28365C68.1904 9.37 61.134 10.5716 54.3939 12.8445L51.5254 5.92813Z" fill="#F2E141"/>
<path d="M80.5693 0.499268C88.8419 0.58392 97.0459 2.00687 104.862 4.71265L100.985 14.0481C94.4636 11.4528 87.5748 9.8936 80.5693 9.42737V0.499268Z" fill="#F9AE41"/>
<path d="M130.815 19.9449L122.626 28.1123C117.671 23.2876 111.989 19.2666 105.787 16.1955L109.772 6.61353C117.463 9.8919 124.57 14.3943 130.815 19.9449Z" fill="#FC7A38"/>
<path d="M149.131 44.1499L137.096 49.1194C134.402 42.8591 130.742 37.0581 126.249 31.9267L134.631 23.5669C140.551 29.5981 145.449 36.5499 149.131 44.1499Z" fill="#F34730"/>
<path d="M156.482 69.9061C156.903 73.8518 154.072 77.5156 150.107 77.8425C149.963 77.8549 149.818 77.8627 149.672 77.8657C147.865 77.9068 146.106 77.2783 144.736 76.1017C143.365 74.925 142.481 73.2836 142.253 71.4944C142.254 71.4932 142.255 71.4916 142.255 71.4899C142.255 71.4882 142.254 71.4866 142.253 71.4854C142.24 71.1443 142.222 70.8032 142.201 70.466C141.846 64.8696 140.761 59.3431 138.975 54.0263L140.43 53.4265L151.263 48.9512C153.963 55.6629 155.719 62.7146 156.482 69.9061Z" fill="#F4142A"/>
<path d="M0.352539 84.0483H1.54999V90.5631H3.52037V91.6488H0.352539V84.0483Z" fill="white"/>
<path d="M4.7516 91.2566C4.43933 90.9237 4.2832 90.4533 4.2832 89.8453V85.8494C4.2832 85.2415 4.43933 84.7711 4.7516 84.4381C5.06387 84.1052 5.51377 83.9387 6.10132 83.9387C6.68929 83.9387 7.13919 84.1052 7.45103 84.4381C7.76287 84.7711 7.91878 85.2415 7.91878 85.8494V89.8453C7.91878 90.4537 7.76287 90.9241 7.45103 91.2566C7.13919 91.5891 6.68929 91.7556 6.10132 91.756C5.51377 91.756 5.06387 91.5896 4.7516 91.2566ZM6.72133 89.9212V85.7709C6.72133 85.2715 6.51466 85.0218 6.10132 85.0218C5.68797 85.0218 5.48108 85.2715 5.48065 85.7709V89.9187C5.48065 90.4181 5.68754 90.668 6.10132 90.6684C6.51509 90.6688 6.72176 90.4198 6.72133 89.9212Z" fill="white"/>
<path d="M8.75684 84.0483H9.91042L10.444 89.8893H10.4659L11.0317 84.0483H12.3382L12.904 89.8893H12.926L13.4595 84.0483H14.4918L13.7176 91.6488H12.2292L11.6847 86.5235H11.664L11.1195 91.6488H9.52976L8.75684 84.0483Z" fill="white"/>
<path d="M142.661 84.0483H143.862V87.1426H145.146V84.0483H146.343V91.6488H145.146V88.2283H143.862V91.6488H142.664L142.661 84.0483Z" fill="white"/>
<path d="M147.548 84.0483H148.745V91.6488H147.548V84.0483Z" fill="white"/>
<path d="M150.324 91.2632C150.019 90.9337 149.867 90.4617 149.867 89.8473V85.8515C149.867 85.2362 150.019 84.7643 150.324 84.4357C150.628 84.107 151.071 83.9423 151.652 83.9414C152.233 83.9414 152.676 84.1062 152.98 84.4357C153.285 84.7652 153.437 85.2371 153.438 85.8515V86.5028H152.305V85.7717C152.305 85.2723 152.098 85.0226 151.685 85.0226C151.272 85.0226 151.064 85.2723 151.064 85.7717V89.9304C151.064 90.4227 151.272 90.6692 151.685 90.6692C152.098 90.6692 152.305 90.4227 152.305 89.9304V88.4431H151.707V87.3574H153.438V89.8435C153.438 90.4587 153.285 90.9307 152.98 91.2593C152.675 91.588 152.233 91.7527 151.652 91.7536C151.071 91.7557 150.628 91.5923 150.324 91.2632Z" fill="white"/>
<path d="M154.525 84.0483H155.723V87.1426H157.007V84.0483H158.205V91.6488H157.007V88.2283H155.723V91.6488H154.525V84.0483Z" fill="white"/>
<path d="M77.6648 80.6979L14.3283 68.1221C14.039 68.064 13.7829 67.8976 13.6127 67.6571C13.4425 67.4165 13.3711 67.1202 13.4131 66.8288C13.4552 66.5374 13.6074 66.2731 13.8387 66.0902C14.07 65.9072 14.3627 65.8196 14.6567 65.8452L78.981 71.5857C79.5854 71.6397 80.1733 71.8118 80.711 72.0923C81.2487 72.3729 81.7258 72.7563 82.115 73.2208C82.5042 73.6852 82.7978 74.2216 82.9792 74.7993C83.1606 75.3769 83.2261 75.9846 83.172 76.5875C83.118 77.1904 82.9454 77.7768 82.6642 78.3132C82.3829 78.8496 81.9985 79.3255 81.5329 79.7137C81.0672 80.1019 80.5295 80.3948 79.9504 80.5757C79.3713 80.7566 78.7621 80.822 78.1577 80.768C77.9923 80.7531 77.8278 80.7297 77.6648 80.6979Z" fill="white"/>
<path d="M82.9807 80.9728C85.554 78.406 85.554 74.2444 82.9807 71.6776C80.4075 69.1108 76.2354 69.1108 73.6622 71.6776C71.089 74.2444 71.089 78.406 73.6622 80.9728C76.2354 83.5396 80.4075 83.5396 82.9807 80.9728Z" fill="white"/>
</g>
<defs>
<clipPath id="clip0_8_578">
<rect width="157.851" height="91.2574" fill="white" transform="translate(0.351562 0.497559)"/>
</clipPath>
</defs>
</svg>
