<svg width="181" height="164" viewBox="0 0 181 164" fill="none" xmlns="http://www.w3.org/2000/svg">
<path d="M2.00195 128.737C2.40864 127.234 2.83302 125.739 3.22203 124.236C5.15607 116.572 9.56554 109.76 15.7664 104.857C21.9672 99.9541 29.6127 97.2347 37.5167 97.1207C40.8675 97.0588 44.2272 97.1207 47.7901 97.1207C48.9041 102.797 51.5741 107.385 56.481 110.453C59.8083 112.522 63.7181 113.453 67.6208 113.105C75.9403 112.522 82.0141 106.917 84.3128 97.5804C89.6971 96.157 101.818 97.0853 106.177 99.2425C89.9976 117.102 94.3563 142.458 112.507 155.348C111.402 155.472 110.668 155.622 109.934 155.622C81.5544 155.622 53.1744 155.622 24.7943 155.622C13.7606 155.622 5.75056 149.434 2.69153 138.939C2.51381 138.467 2.30106 138.009 2.055 137.569L2.00195 128.737Z" stroke="#4172BC" stroke-width="3.28856" stroke-miterlimit="10"/>
<path d="M102.729 123.629C102.721 118.621 103.702 113.66 105.617 109.033C107.531 104.405 110.341 100.201 113.885 96.6629C117.429 93.1245 121.638 90.3212 126.269 88.4141C130.899 86.5071 135.861 85.5337 140.869 85.55C150.917 85.6011 160.538 89.6139 167.645 96.7169C174.751 103.82 178.768 113.44 178.824 123.487C178.845 128.498 177.878 133.463 175.978 138.099C174.078 142.736 171.283 146.952 167.752 150.507C164.221 154.061 160.023 156.885 155.4 158.816C150.777 160.747 145.818 161.748 140.807 161.761C135.8 161.769 130.84 160.788 126.213 158.874C121.586 156.959 117.383 154.15 113.845 150.607C110.306 147.064 107.503 142.856 105.595 138.227C103.688 133.597 102.714 128.636 102.729 123.629V123.629Z" stroke="#4172BC" stroke-width="3.28856" stroke-miterlimit="10"/>
<path d="M39.7624 60.1748C39.6474 57.3191 39.7624 54.932 42.0611 52.3238C44.2095 49.9191 44.4482 45.7549 45.4207 42.3334C46.5524 38.3637 46.4993 38.346 50.3364 39.9286C61.2286 44.4287 72.5276 45.2333 84.0476 43.3855C86.2932 43.0318 87.3453 43.3855 87.584 45.7549C87.9819 49.1587 87.9819 52.8278 91.6952 54.7552C91.9516 54.8878 92.0223 55.4978 92.0576 55.8957C93.26 71.0936 86.3728 82.2511 73.783 86.6186C70.0649 87.8801 66.1081 88.2774 62.2133 87.7805C58.3186 87.2835 54.5883 85.9054 51.3061 83.7507C48.0238 81.5961 45.2758 78.7216 43.271 75.3457C41.2661 71.9698 40.0571 68.1814 39.7359 64.2682C39.674 62.9067 39.7624 61.5363 39.7624 60.1748Z" stroke="#4172BC" stroke-width="3.28856" stroke-miterlimit="10"/>
<path d="M38.2951 48.1862C35.5367 40.6182 33.3087 33.8725 33.4148 26.5785C33.4855 21.9811 35.183 18.6215 39.6036 16.5792C42.3266 15.3326 44.7491 13.3611 47.1981 11.5575C52.9183 7.3314 58.948 3.71538 66.0827 2.6014C84.6491 -0.325017 101.023 16.2875 98.1495 35.3931C97.4776 39.8756 95.7005 44.2343 94.4274 48.5753L93.3311 48.4515C92.9863 46.7805 92.6503 45.1095 92.2879 43.4386C91.4037 39.4247 88.7514 37.3647 84.7905 38.0189C72.5721 40.0259 60.7515 39.1948 49.426 33.7752C45.8189 32.06 42.0702 34.1731 40.8236 38.1958C40.3639 39.6988 40.081 41.2637 39.692 42.7843C39.303 44.305 38.914 45.8345 38.2951 48.1862Z" stroke="#4172BC" stroke-width="3.28856" stroke-miterlimit="10"/>
<path d="M53.3774 90.9158C57.3814 92.6352 61.6935 93.5219 66.0511 93.5219C70.4088 93.5219 74.7208 92.6352 78.7249 90.9158C79.609 96.9012 78.4773 101.941 73.5528 105.512C71.6349 107.017 69.3023 107.899 66.8685 108.04C64.4346 108.181 62.016 107.573 59.9375 106.299C54.0227 102.966 52.6347 97.4847 53.3774 90.9158Z" stroke="#4172BC" stroke-width="3.28856" stroke-miterlimit="10"/>
<path d="M117.548 142.38L123.842 128.923H116.266V125.502H128.687L128.811 127.359L121.738 142.388L117.548 142.38Z" fill="#4172BC"/>
<path d="M130.224 132.68C130.153 131.626 130.308 130.569 130.678 129.579C131.049 128.59 131.626 127.691 132.372 126.942C133.858 125.607 135.804 124.9 137.801 124.971C139.764 124.909 141.671 125.628 143.106 126.969C143.833 127.723 144.395 128.62 144.756 129.603C145.117 130.587 145.268 131.635 145.201 132.68V135.12C145.266 136.168 145.111 137.217 144.746 138.201C144.38 139.185 143.812 140.081 143.079 140.832C142.38 141.501 141.555 142.024 140.652 142.371C139.749 142.719 138.786 142.884 137.819 142.856C136.531 142.873 135.256 142.601 134.088 142.061C132.919 141.499 131.947 140.596 131.303 139.47C130.538 138.161 130.155 136.663 130.198 135.147L130.224 132.68ZM133.964 135.147C133.881 136.326 134.251 137.493 134.998 138.409C135.346 138.782 135.77 139.076 136.241 139.27C136.713 139.463 137.221 139.553 137.73 139.532C138.242 139.556 138.754 139.467 139.229 139.273C139.703 139.079 140.13 138.785 140.48 138.409C141.227 137.493 141.597 136.326 141.514 135.147V132.707C141.592 131.546 141.225 130.398 140.489 129.497C140.148 129.138 139.737 128.854 139.28 128.663C138.823 128.473 138.331 128.381 137.836 128.392C137.323 128.371 136.81 128.458 136.332 128.647C135.854 128.836 135.421 129.122 135.06 129.489C134.68 129.929 134.391 130.44 134.209 130.992C134.027 131.544 133.956 132.127 133.999 132.707L133.964 135.147Z" fill="#4172BC"/>
<path d="M154.219 126.545C154.91 127.278 155.288 128.252 155.271 129.259C155.282 130.262 154.905 131.231 154.219 131.964C153.838 132.355 153.377 132.66 152.867 132.856C152.358 133.053 151.812 133.138 151.266 133.105C150.721 133.137 150.176 133.052 149.666 132.855C149.157 132.658 148.695 132.354 148.313 131.964C147.625 131.219 147.252 130.237 147.27 129.224C147.255 128.218 147.629 127.246 148.313 126.509C148.695 126.119 149.157 125.815 149.666 125.619C150.176 125.422 150.721 125.337 151.266 125.369C151.814 125.34 152.362 125.43 152.872 125.633C153.381 125.836 153.841 126.147 154.219 126.545ZM163.688 125.519L152.646 142.406H148.809L159.904 125.519H163.688ZM150.258 128.269C150.018 128.542 149.889 128.895 149.896 129.259C149.892 129.614 150.022 129.958 150.258 130.223C150.385 130.363 150.541 130.473 150.715 130.545C150.89 130.616 151.078 130.648 151.266 130.638C151.453 130.649 151.64 130.62 151.814 130.551C151.989 130.482 152.145 130.376 152.274 130.24C152.507 129.967 152.629 129.617 152.619 129.259C152.628 128.898 152.506 128.546 152.274 128.269C152.147 128.13 151.991 128.022 151.816 127.951C151.642 127.881 151.454 127.851 151.266 127.862C151.08 127.852 150.894 127.883 150.721 127.953C150.549 128.024 150.394 128.131 150.267 128.269H150.258ZM164.227 135.952C164.916 136.686 165.293 137.659 165.28 138.666C165.297 139.679 164.92 140.658 164.227 141.398C163.852 141.794 163.396 142.105 162.889 142.308C162.382 142.511 161.837 142.601 161.292 142.574C160.746 142.606 160.2 142.52 159.69 142.322C159.18 142.124 158.719 141.817 158.339 141.424C157.647 140.685 157.27 139.705 157.287 138.692C157.273 137.686 157.651 136.713 158.339 135.978C158.721 135.586 159.181 135.281 159.691 135.083C160.2 134.884 160.746 134.798 161.292 134.829C161.835 134.795 162.378 134.878 162.886 135.072C163.394 135.265 163.854 135.565 164.236 135.952H164.227ZM160.284 137.72C160.047 137.988 159.918 138.334 159.922 138.692C159.918 139.042 160.048 139.38 160.284 139.638C160.411 139.772 160.565 139.877 160.736 139.945C160.907 140.014 161.091 140.045 161.275 140.036C161.457 140.045 161.64 140.015 161.809 139.946C161.979 139.877 162.131 139.772 162.256 139.638C162.484 139.376 162.607 139.039 162.601 138.692C162.611 138.334 162.488 137.984 162.256 137.711C162.131 137.577 161.979 137.472 161.809 137.404C161.64 137.335 161.457 137.304 161.275 137.313C161.091 137.306 160.908 137.338 160.739 137.408C160.57 137.479 160.417 137.585 160.293 137.72H160.284Z" fill="#4172BC"/>
<path d="M124.656 108.704C124.285 108.335 123.83 108.062 123.33 107.909C122.807 107.727 122.257 107.634 121.703 107.634C121.139 107.613 120.58 107.744 120.085 108.015C119.892 108.106 119.728 108.249 119.612 108.429C119.496 108.609 119.433 108.818 119.431 109.031C119.412 109.262 119.466 109.492 119.584 109.691C119.703 109.889 119.882 110.045 120.094 110.137C120.762 110.39 121.466 110.533 122.18 110.561C125.44 110.844 127.072 112.223 127.078 114.699C127.096 115.534 126.817 116.348 126.291 116.997C125.781 117.632 125.1 118.107 124.329 118.368C123.474 118.653 122.578 118.796 121.676 118.792C120.548 118.815 119.429 118.592 118.396 118.138C117.443 117.744 116.641 117.057 116.106 116.175L117.795 114.407C118.257 115.001 118.867 115.465 119.563 115.751C120.234 116.05 120.96 116.206 121.694 116.21C122.334 116.238 122.97 116.091 123.533 115.786C123.741 115.69 123.918 115.536 124.043 115.344C124.168 115.152 124.237 114.928 124.24 114.699C124.259 114.463 124.211 114.226 124.104 114.016C123.996 113.805 123.832 113.628 123.63 113.505C123.03 113.177 122.36 112.998 121.676 112.983C121.018 112.928 120.365 112.825 119.722 112.674C119.169 112.54 118.637 112.332 118.14 112.055C117.645 111.79 117.244 111.38 116.991 110.879C116.713 110.311 116.582 109.681 116.61 109.049C116.601 108.488 116.731 107.934 116.991 107.437C117.25 106.939 117.63 106.515 118.096 106.202C119.139 105.5 120.375 105.141 121.632 105.177C122.535 105.158 123.434 105.305 124.284 105.61C125.087 105.947 125.796 106.471 126.353 107.139L124.656 108.704Z" fill="#4172BC"/>
<path d="M137.873 116.193H131.339L130.411 118.377H127.352L133.063 105.628H136.157L141.878 118.377H138.801L137.873 116.193ZM134.61 108.51L132.409 113.682H136.829L134.61 108.51Z" fill="#4172BC"/>
<path d="M149.056 118.43H146.121L140.816 105.628H143.999L147.589 115.044L151.178 105.628H154.361L149.056 118.43Z" fill="#4172BC"/>
<path d="M165.431 118.377H155.706V105.628H165.157V108.236H158.491V110.694H164.768V113.187H158.491V115.751H165.414L165.431 118.377Z" fill="#4172BC"/>
</svg>
