<svg width="194" height="178" viewBox="0 0 194 178" fill="none" xmlns="http://www.w3.org/2000/svg">
<path d="M0.342733 112.643C0.342733 107.244 0.554487 101.844 0.342733 96.4655C0.146181 93.885 0.714269 91.3038 1.97587 89.0442C3.23747 86.7846 5.13688 84.9468 7.43672 83.7602C11.1452 81.5833 15.1764 80.0105 19.3794 79.1014C26.3045 77.4109 33.4322 76.6981 40.5549 76.9839C48.8104 77.0943 56.9687 78.7833 64.5893 81.9601C65.1822 82.2353 65.7538 82.5742 66.3467 82.8495C66.9396 83.1248 67.3631 82.8494 67.4055 82.2142C67.4055 81.8753 67.4055 81.5154 67.4055 81.1766V57.2273C67.4193 55.5345 67.8216 53.8676 68.5816 52.355C69.3416 50.8424 70.4388 49.5245 71.7887 48.503C75.4221 45.6408 79.6347 43.603 84.1342 42.5314C91.1115 40.6163 98.33 39.7247 105.564 39.8844C114.003 39.7517 122.386 41.2844 130.233 44.3948C132.94 45.6213 135.491 47.1639 137.835 48.99C139.143 50.0369 140.184 51.3794 140.873 52.9071C141.561 54.4349 141.877 56.1042 141.795 57.7779C141.795 68.3656 141.795 79.1651 141.795 89.8587C141.795 91.6798 141.795 91.6375 143.552 91.4469C157.592 89.8375 170.022 93.5642 179.974 103.686C192.383 116.264 196.046 131.468 190.562 148.155C188.485 155.016 184.661 161.219 179.464 166.157C174.266 171.094 167.875 174.596 160.916 176.318C150.365 179.24 139.098 178.052 129.388 172.994C119.678 167.937 112.246 159.386 108.592 149.065C108.253 148.155 107.66 148.091 106.855 148.049C102.049 147.795 97.2204 147.752 92.4348 147.181C85.0125 146.555 77.899 143.928 71.8523 139.579C71.6449 139.464 71.4119 139.403 71.1748 139.403C70.9377 139.403 70.7044 139.464 70.497 139.579C65.6872 143.142 60.0981 145.508 54.192 146.482C43.3797 148.716 32.2248 148.716 21.4125 146.482C15.308 145.571 9.53998 143.107 4.66261 139.325C3.27557 138.203 2.17022 136.772 1.43485 135.147C0.699479 133.522 0.354481 131.747 0.427517 129.965C0.427517 124.099 0.427517 118.213 0.427517 112.347L0.342733 112.643ZM185.353 134.687C185.353 125.14 181.56 115.983 174.809 109.233C168.058 102.482 158.902 98.6887 149.354 98.6887C139.868 98.7544 130.785 102.536 124.054 109.223C117.324 115.91 113.483 124.968 113.356 134.454C113.317 144.049 117.085 153.267 123.833 160.087C130.582 166.907 139.76 170.772 149.354 170.834C154.091 170.834 158.78 169.899 163.155 168.083C167.529 166.268 171.503 163.606 174.847 160.252C178.191 156.898 180.84 152.918 182.643 148.538C184.446 144.158 185.367 139.466 185.353 134.729V134.687ZM104.738 66.7774H107.618C114.77 66.7778 121.849 65.3375 128.433 62.5423C130.612 61.8244 132.485 60.3917 133.748 58.4765C133.931 58.1043 134.027 57.6951 134.027 57.2803C134.027 56.8654 133.931 56.456 133.748 56.0837C132.934 54.9621 131.914 54.0063 130.741 53.2675C125.534 50.2401 119.719 48.41 113.716 47.91C104.906 46.7839 95.9638 47.279 87.3317 49.371C83.3762 50.1963 79.661 51.9129 76.4687 54.3898C74.1605 56.2956 74.2029 57.8201 76.4687 59.7682C78.9007 61.721 81.7027 63.1616 84.7059 64.0033C91.1841 66.0287 97.9531 66.9662 104.738 66.7774ZM37.3786 103.877V104.215C41.889 103.728 46.4206 103.305 50.9309 102.733C52.5306 102.506 54.1096 102.152 55.653 101.675C59.1496 100.827 62.4405 99.2861 65.3303 97.143C67.8714 95.0254 67.9561 93.1408 65.3303 91.3197C63.0847 89.7437 60.6337 88.4826 58.0459 87.5716C45.0757 83.5226 31.2005 83.3828 18.1514 87.1694C15.0665 87.9828 12.1828 89.4246 9.68118 91.4045C7.18248 93.395 7.03438 95.2159 9.55426 97.037C11.677 98.5668 13.9906 99.8126 16.4363 100.743C23.1937 103.098 30.334 104.162 37.4846 103.877H37.3786ZM37.3786 122.448C44.0431 122.585 50.6881 121.677 57.0719 119.758C60.2139 118.907 63.1427 117.407 65.6692 115.354C66.2032 114.933 66.6281 114.391 66.9082 113.772C67.1883 113.152 67.3152 112.475 67.2783 111.796C67.2783 110.06 67.2783 108.302 67.2783 106.545C67.2783 105.211 67.0243 105.168 65.7961 105.656C62.576 107.019 59.2815 108.2 55.9283 109.192C46.666 111.44 37.0688 111.964 27.6167 110.738C21.1051 110.165 14.7572 108.383 8.8977 105.486C8.05068 105.041 7.75414 105.486 7.75414 106.185C7.75414 108.027 7.75414 109.869 7.75414 111.712C7.66788 112.48 7.80598 113.257 8.1517 113.948C8.49742 114.64 9.03604 115.216 9.70238 115.608C11.8396 117.036 14.1086 118.255 16.4784 119.25C23.2348 121.555 30.3482 122.638 37.4846 122.448H37.3786ZM67.0242 123.676C66.4313 123.93 66.0502 124.036 65.7114 124.205C61.1588 126.467 56.2779 127.996 51.2486 128.737C45.1539 129.791 38.9581 130.139 32.7837 129.774C27.6567 129.597 22.5712 128.786 17.6432 127.36C14.6998 126.407 11.8412 125.243 8.96129 124.036C8.2625 123.76 7.64842 123.506 7.64842 124.629C7.64842 126.746 7.64842 129.012 7.64842 131.193C7.67782 131.93 7.98837 132.627 8.51643 133.141C10.0987 134.503 11.8241 135.688 13.6622 136.678C19.0111 139.056 24.7553 140.42 30.6025 140.701C37.8954 141.37 45.2475 140.941 52.4134 139.43C56.4125 138.659 60.2554 137.228 63.7846 135.195C64.8744 134.706 65.779 133.881 66.3659 132.841C66.9527 131.801 67.1907 130.6 67.0454 129.414C66.9712 128.06 66.9712 126.703 67.0454 125.349C67.2995 124.862 67.1302 124.396 67.1302 123.676H67.0242ZM74.6264 68.3232C74.7324 70.0438 74.7324 71.7692 74.6264 73.4899C74.4678 74.7352 74.7056 75.9991 75.3062 77.1015C75.9069 78.2039 76.8396 79.0888 77.972 79.6308C82.699 82.3518 87.9428 84.054 93.3666 84.6282C101.707 85.8681 110.197 85.6964 118.481 84.12C122.864 83.4104 127.074 81.8801 130.889 79.6096C131.996 79.1151 132.914 78.2783 133.509 77.2222C134.104 76.1661 134.344 74.9466 134.193 73.744C134.118 72.3333 134.118 70.9196 134.193 69.5089C134.173 69.1217 134.109 68.7383 134.002 68.3656C124.62 72.3162 114.543 74.3478 104.363 74.3406C94.1834 74.3333 84.1082 72.2872 74.7321 68.3232H74.6264ZM74.7957 86.6824C74.7957 87.3177 74.6476 87.7623 74.6476 88.2282C74.6476 89.774 74.6476 91.2984 74.6476 92.8231C74.5415 93.6949 74.6839 94.579 75.0586 95.3733C75.4333 96.1676 76.0249 96.8397 76.7651 97.3123C77.4441 97.8112 78.1511 98.2708 78.8827 98.6887C85.1719 101.932 92.1353 103.651 99.2111 103.707C104.369 103.809 109.528 103.647 114.669 103.22C117.769 103.222 120.769 102.127 123.139 100.129C126.064 97.6814 129.398 95.7675 132.986 94.4748C133.392 94.3786 133.747 94.1341 133.982 93.7893C134.217 93.4446 134.315 93.0245 134.256 92.6114C134.256 91.0867 134.256 89.5408 134.256 88.0162C134.256 86.4916 134.023 86.5552 132.922 87.1058C125.464 90.6429 117.333 92.535 109.079 92.6538C104.395 92.788 99.707 92.6467 95.0396 92.2304C90.3665 91.8944 85.7625 90.911 81.36 89.3081C79.2213 88.5458 77.2098 87.6353 74.9017 86.6824H74.7957ZM74.6264 105.105C74.7445 106.797 74.7445 108.495 74.6264 110.187C74.1182 113.596 75.9181 115.544 78.5438 117.048C79.296 117.489 80.0737 117.885 80.8731 118.234C89.0175 121.543 97.8101 122.948 106.58 122.342C106.849 122.279 107.101 122.157 107.317 121.985C107.533 121.813 107.708 121.595 107.829 121.347C109.333 118.297 110.73 115.206 112.064 112.114C112.192 111.817 112.361 111.352 112.234 111.203C112.104 111.1 111.954 111.025 111.794 110.981C111.634 110.937 111.467 110.927 111.302 110.949C107.851 110.949 104.399 111.288 100.947 111.203C93.7323 111.093 86.5903 109.739 79.8355 107.201C78.205 106.651 76.6591 105.931 74.7321 105.084L74.6264 105.105ZM74.7957 123.697C74.721 124.195 74.6716 124.697 74.6476 125.2C74.6476 127 74.6476 128.8 74.6476 130.579C74.6018 131.153 74.6976 131.729 74.9265 132.257C75.1554 132.785 75.5105 133.248 75.9605 133.607C77.4743 134.786 79.0898 135.827 80.7883 136.72C84.8353 138.611 89.1748 139.8 93.6207 140.235C97.3476 140.701 101.138 140.722 104.886 140.934C105.881 140.934 106.22 140.616 106.157 139.515C105.966 136.762 105.945 134.009 105.945 131.257C105.945 130.367 105.818 129.901 104.759 129.838C100.524 129.562 96.1407 129.203 91.8209 128.843C87.7361 128.409 83.7312 127.411 79.9203 125.878C78.3109 125.243 76.7016 124.481 74.9017 123.697H74.7957Z" fill="#D35F46"/>
<path d="M32.4466 50.7689C32.5342 50.3145 32.5908 49.8546 32.6159 49.3924C32.6159 34.7531 32.6159 20.1139 32.6159 5.47456C32.5978 4.68747 32.6547 3.90047 32.7855 3.12411C32.9564 2.2057 33.4735 1.38817 34.2302 0.840356C34.9868 0.292541 35.9251 0.0562974 36.851 0.18069C37.782 0.220846 38.6654 0.60449 39.3302 1.25756C39.9949 1.91062 40.3942 2.7869 40.451 3.71709C40.451 4.96644 40.451 6.25824 40.451 7.52877C40.451 21.5046 40.451 35.4873 40.451 49.4772C40.451 49.9431 40.451 50.409 40.451 51.1502C40.8062 50.95 41.146 50.7234 41.4673 50.4724C44.4531 47.5078 47.4387 44.5222 50.3821 41.5364C50.9813 40.8273 51.7876 40.3235 52.6876 40.0956C53.5876 39.8678 54.5362 39.9273 55.4007 40.2659C56.0138 40.5465 56.5447 40.9798 56.9423 41.5243C57.34 42.0688 57.5913 42.7062 57.672 43.3756C57.7528 44.045 57.6603 44.7239 57.4035 45.3473C57.1467 45.9708 56.7342 46.5179 56.2054 46.9363C53.5584 49.6256 50.8694 52.2723 48.2013 54.9404C45.5331 57.6085 42.7378 60.3615 40.0273 63.1143C37.3168 65.8672 35.4111 65.6766 32.9124 63.1143C27.5126 57.7146 22.1129 52.3572 16.7767 46.9151C16.0521 46.1632 15.5342 45.2368 15.2733 44.2257C15.1109 43.4455 15.212 42.6335 15.5608 41.9169C15.9095 41.2003 16.4861 40.6196 17.2003 40.2659C17.9369 39.8517 18.7886 39.6896 19.6258 39.8043C20.463 39.919 21.2396 40.304 21.8377 40.9011C23.9552 43.0186 26.0727 45.1361 28.1903 47.2537L31.8112 50.7901L32.4466 50.7689Z" fill="#D35F46"/>
<path d="M148.89 154.233C144.655 154.233 140.42 154.233 136.185 154.233C135.745 154.225 135.312 154.128 134.911 153.949C134.51 153.769 134.149 153.511 133.85 153.188C133.551 152.866 133.321 152.486 133.173 152.073C133.025 151.659 132.961 151.22 132.987 150.781C132.964 150.34 133.036 149.9 133.198 149.489C133.36 149.079 133.607 148.708 133.924 148.401C134.241 148.094 134.62 147.859 135.035 147.71C135.451 147.562 135.893 147.504 136.333 147.541C137.017 147.659 137.721 147.503 138.291 147.106C138.861 146.71 139.253 146.106 139.382 145.424C140.017 143.094 140.61 140.765 141.203 138.457C141.457 137.44 141.013 137.059 140.039 137.08H137.815C137.443 137.109 137.068 137.063 136.714 136.945C136.36 136.826 136.033 136.638 135.753 136.392C135.473 136.145 135.245 135.845 135.082 135.508C134.92 135.172 134.827 134.806 134.808 134.434C134.81 134.059 134.889 133.689 135.039 133.346C135.189 133.003 135.407 132.694 135.681 132.438C135.955 132.183 136.278 131.986 136.63 131.859C136.982 131.732 137.357 131.679 137.73 131.702H139.848C140.653 131.702 140.992 131.342 140.843 130.558C140.568 129.309 140.314 128.06 139.996 126.832C139.157 123.988 139.377 120.936 140.615 118.242C141.853 115.548 144.025 113.393 146.73 112.178C149.484 110.981 152.574 110.799 155.451 111.663C158.327 112.528 160.804 114.383 162.442 116.9C163.673 118.791 164.335 120.996 164.348 123.253C164.425 124.112 164.158 124.966 163.606 125.629C163.055 126.291 162.263 126.709 161.405 126.789C160.949 126.874 160.48 126.861 160.029 126.75C159.579 126.64 159.157 126.434 158.792 126.148C158.427 125.861 158.128 125.5 157.914 125.088C157.7 124.677 157.576 124.224 157.551 123.761C157.52 122.194 156.926 120.691 155.878 119.526C154.999 118.663 153.868 118.103 152.649 117.928C151.43 117.753 150.187 117.971 149.102 118.552C148.049 119.159 147.233 120.106 146.787 121.236C146.341 122.367 146.291 123.615 146.645 124.778C147.09 126.641 147.492 128.526 147.789 130.431C147.791 130.605 147.833 130.776 147.909 130.933C147.985 131.089 148.095 131.226 148.23 131.336C148.366 131.445 148.523 131.523 148.692 131.564C148.861 131.605 149.037 131.609 149.208 131.575C151.325 131.575 153.231 131.575 155.264 131.575C155.694 131.543 156.125 131.543 156.555 131.575C157.239 131.628 157.878 131.936 158.344 132.438C158.811 132.94 159.072 133.6 159.075 134.285C159.038 134.975 158.743 135.626 158.249 136.108C157.755 136.59 157.098 136.87 156.407 136.89C154.141 136.89 151.854 136.89 149.589 136.89C148.403 136.89 148.043 137.335 147.873 138.478C147.492 140.934 146.963 143.37 146.391 145.784C146.095 147.096 146.201 147.351 147.577 147.372C152.13 147.372 156.704 147.372 161.256 147.372C161.705 147.346 162.155 147.411 162.577 147.564C163 147.717 163.387 147.954 163.716 148.261C164.045 148.568 164.307 148.938 164.489 149.349C164.67 149.761 164.766 150.204 164.771 150.654C164.798 151.105 164.73 151.557 164.573 151.981C164.416 152.405 164.172 152.791 163.858 153.116C163.543 153.44 163.164 153.696 162.746 153.866C162.327 154.036 161.878 154.118 161.426 154.106C157.847 154.106 154.247 154.106 150.668 154.106H148.826L148.89 154.233Z" fill="#D35F46"/>
</svg>
