<svg width="193" height="109" viewBox="0 0 193 109" fill="none" xmlns="http://www.w3.org/2000/svg">
<path d="M7.02344 87.494C9.47796 81.7915 11.8813 76.1775 14.308 70.5682C17.6643 62.8033 21.03 55.0555 24.405 47.3249C25.5811 44.6087 25.1813 44.236 23.0104 42.256C21.6157 40.9748 20.9324 38.8875 19.9283 37.1591L20.4907 36.4043C18.8265 36.4043 17.1669 36.4043 15.5027 36.4043C13.8384 36.4043 12.6856 35.9385 12.7135 34.1029C12.7413 32.2672 13.9454 31.8293 15.5492 31.834C29.3466 31.834 43.1393 31.8805 56.9227 31.8013C58.3592 31.7753 59.7649 31.379 61.0043 30.6506C70.1343 25.1111 79.5991 20.3731 90.2911 18.7378C100.518 17.177 110.174 19.4878 119.364 23.8253C123.753 25.8985 127.857 28.582 132.148 30.8789C133.215 31.4574 134.403 31.7766 135.616 31.8107C149.488 31.8712 163.364 31.8107 177.241 31.8852C178.217 31.8852 179.486 32.202 180.109 32.8589C181.364 34.1681 180.337 36.2226 178.426 36.3531C176.59 36.4789 174.744 36.3811 172.778 36.3811C172.634 39.4839 171.918 41.9718 168.84 43.0759C168.478 43.2017 168.152 44.1242 168.213 44.6273C168.345 45.6989 168.626 46.7467 169.05 47.7395C174.563 60.5515 180.093 73.3573 185.641 86.1569C185.822 86.5715 185.952 87.0095 186.106 87.4567C184.395 88.1602 183.563 87.5732 182.88 85.9752C178.621 75.9958 174.27 66.0583 169.942 56.1069C169.563 55.0823 168.946 54.1626 168.143 53.4234V55.4826C168.143 66.0428 168.143 76.603 168.143 87.1632C168.143 88.6727 168.027 89.898 165.796 89.0873V53.3441L165.382 53.2044C165.105 53.5706 164.858 53.9585 164.643 54.3645C160.112 64.816 155.593 75.2736 151.087 85.7376C150.408 87.3216 149.59 88.2394 147.6 87.4427C149.906 82.1129 152.209 76.7878 154.508 71.4673L165.14 46.9242C165.963 45.0234 166.177 43.5558 164.085 41.9531C162.69 40.8909 162.225 38.6313 161.142 36.4742C161.003 36.4742 160.25 36.395 159.492 36.395C151.436 36.395 143.379 36.3391 135.319 36.423C133.176 36.473 131.069 35.8703 129.275 34.6945C121.833 29.9243 113.647 26.4363 105.055 24.375C95.0142 22.0456 85.5309 24.3471 76.345 28.3491C72.1578 30.1704 68.0966 32.27 64.1886 34.634C62.1576 35.8677 59.8124 36.4827 57.4387 36.4043C49.5359 36.3624 41.6331 36.4043 33.7303 36.4043C32.9725 36.4043 32.2148 36.4789 31.2386 36.5301C31.4059 39.442 30.3553 41.5105 27.9612 43.0992C27.4127 43.4626 27.6033 45.615 28.0495 46.6959C31.048 53.9265 34.2091 61.0919 37.3191 68.2806C40.0866 74.6695 42.8557 81.0569 45.6263 87.4427C43.4321 88.3745 42.7255 87.1166 42.0468 85.5373C37.5655 75.064 33.0547 64.6032 28.5144 54.1548C28.375 53.8287 28.1518 53.5398 27.5847 52.6406V88.9801C25.3068 90.0051 25.0372 88.8637 25.0418 87.1771C25.0697 76.6915 25.079 66.2059 25.0697 55.7202V53.4839L24.5072 53.3441C23.3172 56.051 22.1131 58.7531 20.9324 61.46C17.3808 69.6364 13.778 77.7662 10.3333 86.0078C9.64996 87.699 8.75276 88.0297 7.02344 87.494Z" fill="#D35F46"/>
<path d="M166.937 107.196C155.246 107.196 145.934 98.8662 141.783 90.3498C141.687 90.1523 141.649 89.932 141.672 89.7138C141.695 89.4956 141.779 89.2882 141.913 89.1151C142.05 88.9424 142.232 88.8119 142.439 88.7386C142.647 88.6652 142.87 88.652 143.085 88.7005C158.342 92.1853 174.724 94.6126 191.106 88.8216C191.312 88.7489 191.534 88.7361 191.748 88.7847C191.961 88.8333 192.156 88.9414 192.31 89.0965C192.466 89.2503 192.575 89.4455 192.624 89.6592C192.674 89.8729 192.661 90.0963 192.589 90.3032C189.511 99.2203 178.791 106.609 168.183 107.164C167.751 107.187 167.337 107.196 166.937 107.196ZM145.088 91.5331C149.505 98.829 157.882 105.347 168.081 104.839C176.709 104.401 185.704 98.7824 189.4 91.8406C174.185 96.4855 159.174 94.608 145.06 91.5331H145.088Z" fill="#D35F46"/>
<path d="M26.5474 107.187H26.3243C15.1674 107.071 4.33587 99.9848 0.602958 90.3362C0.523219 90.1285 0.504477 89.9024 0.548963 89.6844C0.59345 89.4664 0.699293 89.2658 0.853978 89.1062C1.00768 88.9456 1.2044 88.833 1.42045 88.7817C1.63651 88.7305 1.86273 88.7428 2.07194 88.8173C18.6353 94.6363 34.9476 92.1997 50.1117 88.7009C50.3239 88.6515 50.5456 88.6634 50.7513 88.7352C50.957 88.8069 51.1382 88.9355 51.2739 89.1062C51.4112 89.2757 51.4981 89.4806 51.5244 89.6974C51.5507 89.9141 51.5154 90.1339 51.4227 90.3315C47.4666 98.7362 37.7043 107.187 26.5474 107.187ZM3.87564 91.855C8.00834 99.3092 17.1942 104.765 26.3475 104.858H26.5474C35.7798 104.858 44.0033 98.48 48.1546 91.5289C34.1201 94.6131 19.1746 96.4999 3.85706 91.855H3.87564Z" fill="#D35F46"/>
<path d="M87.5993 27.7622C88.9382 40.2667 85.5957 50.0924 75.9776 53.8521C67.6424 57.1134 59.2422 56.8385 51.5997 51.6857C47.481 48.8904 45.5564 44.6321 44.7661 39.5725H52.9525C53.5103 40.9982 54.0914 42.5636 54.7329 44.1057C57.1968 50.0318 63.0216 53.2557 69.6088 52.3612C76.196 51.4667 80.7936 47.0827 81.6165 40.672C81.9605 37.9885 82.0534 35.2723 82.2068 32.5655C82.4114 28.9595 82.3881 28.9549 85.8514 28.1395C86.3628 28.0138 86.8788 27.916 87.5993 27.7622Z" fill="#D35F46"/>
<path d="M36.8758 0.460815H58.6968L58.7666 0.7963C58.3243 0.968505 57.8708 1.11012 57.4092 1.22022C53.918 1.80724 53.0998 2.65516 53.0533 6.28446C52.965 12.8815 52.9789 19.4785 52.9557 26.0756C52.9557 26.9188 52.9557 27.7621 52.9557 28.8057H43.9279C43.9279 23.7741 43.9279 18.8309 43.9279 13.8972C43.9279 11.4932 43.9279 9.08451 43.8675 6.68051C43.728 2.63657 42.8354 1.7327 38.7864 1.27613C38.1356 1.20158 37.4894 1.07117 36.8433 0.968678L36.8758 0.460815Z" fill="#D35F46"/>
<path d="M105.394 27.5196C107.993 28.3256 110.299 28.9172 112.47 29.8117C113.018 30.04 113.399 31.3119 113.399 32.1086C113.492 36.665 113.399 41.2214 113.464 45.7778C113.548 52.7662 113.609 52.7662 119.945 54.3875H99.416C99.5415 54.1825 99.6113 53.9589 99.6856 53.9589C104.088 53.9589 104.544 52.7662 104.799 48.0281C105.129 42.3908 105.046 36.7303 105.162 31.0837C105.199 30.0354 105.301 28.9871 105.394 27.5196Z" fill="#D35F46"/>
<path d="M155.145 54.2713C150.403 54.2713 145.601 54.7372 140.953 54.0803C138.535 53.7402 136.02 51.7928 134.203 49.9292C128.936 44.5388 123.975 38.8224 118.932 33.2363L119.434 32.5561L127.09 37.1731C127.016 37.2616 127.141 37.0753 127.09 37.1731C127.559 37.3143 128.016 37.4935 128.457 37.7089C130.182 38.2679 131.916 38.8177 133.594 39.4886C134.497 39.8196 135.332 40.3138 136.058 40.9468C138.196 42.9641 140.213 45.1119 142.315 47.1664C145.922 50.7119 149.966 53.5305 155.145 54.2713Z" fill="#D35F46"/>
<path d="M98.0113 0.432922H119.149L119.228 0.773014C118.875 0.944584 118.508 1.0849 118.131 1.19233C114.472 1.89116 113.752 2.59001 113.631 6.38703C113.515 10.2493 113.608 14.1161 113.608 18.3138L104.896 16.1428C104.896 13.1378 104.943 10.1328 104.896 7.12311C104.803 2.5434 104.059 1.75137 99.6337 1.22025C99.0758 1.15503 98.5273 1.0013 97.9741 0.889487L98.0113 0.432922Z" fill="#D35F46"/>
<path d="M130.869 0.372864H148.711L148.808 0.731609C148.483 0.940946 148.127 1.09813 147.753 1.1975C143.193 1.66339 139.632 3.99283 136.475 7.1143C132.292 11.2421 128.108 15.4118 123.952 19.5722C121.627 21.9017 121.627 21.9017 118.332 20.0708C120.368 17.9183 122.39 15.8358 124.347 13.702C126.811 11.0231 129.307 8.37223 131.631 5.57223C133.505 3.32197 133.333 2.49733 130.869 0.372864Z" fill="#D35F46"/>
<path d="M82.0721 17.55C82.0721 14.0185 82.1 10.7014 82.0721 7.37961C82.0209 2.54366 81.3283 1.78891 76.5726 1.19723C76.3187 1.1817 76.0711 1.11168 75.8465 0.991919C75.622 0.872154 75.4257 0.705443 75.271 0.503052H94.1029L94.1541 0.819826C93.7708 0.96917 93.3779 1.09216 92.9779 1.1879C88.9103 1.89605 88.4594 2.3992 88.3292 6.64813C88.2409 9.20121 88.1479 11.773 88.1898 14.3167C88.2176 15.6865 87.8876 16.4924 86.3907 16.6741C85.01 16.8418 83.6759 17.2146 82.0721 17.55Z" fill="#D35F46"/>
<path d="M84.8099 85.2156C86.5857 85.2156 88.3662 85.2156 90.142 85.2156C90.7324 85.2156 90.9787 85.0013 91.16 84.4189C91.8155 82.2572 92.5547 80.1187 93.2613 77.971C93.689 76.6758 94.1213 75.3806 94.549 74.0854C94.6567 73.7489 94.8746 73.4587 95.1673 73.2617C95.46 73.0647 95.8105 72.9725 96.1621 72.9999C96.5139 72.9755 96.8635 73.0708 97.1546 73.2703C97.4456 73.4699 97.661 73.762 97.7659 74.0994C98.646 76.786 99.5277 79.4758 100.411 82.1686C100.655 83.032 100.942 83.8825 101.271 84.7171C101.381 84.8602 101.521 84.9764 101.682 85.0571C101.843 85.1378 102.021 85.1809 102.201 85.183C105.604 85.2156 109.006 85.183 112.405 85.183C112.637 85.183 112.916 85.1038 113.093 85.183C113.627 85.4858 114.329 85.7514 114.576 86.2359C114.761 86.5546 114.824 86.9296 114.755 87.2918C114.686 87.654 114.489 87.9789 114.199 88.2066C112.972 89.1384 111.731 90.0701 110.48 90.9693C108.714 92.2583 106.944 93.5441 105.171 94.8269C105.005 94.9168 104.88 95.0692 104.825 95.2508C104.77 95.4324 104.789 95.6284 104.878 95.7959C105.622 97.9903 106.273 100.203 106.994 102.407C107.393 103.656 107.812 104.899 108.193 106.134C108.33 106.484 108.349 106.869 108.247 107.23C108.146 107.592 107.929 107.911 107.63 108.137C107.308 108.359 106.925 108.473 106.534 108.464C106.144 108.455 105.766 108.323 105.455 108.086C103.879 106.973 102.322 105.831 100.76 104.694C99.4301 103.725 98.0913 102.77 96.7803 101.773C96.6136 101.614 96.3922 101.526 96.1621 101.526C95.9319 101.526 95.7106 101.614 95.5438 101.773C92.8103 103.791 90.0629 105.785 87.3202 107.783C86.7252 108.217 86.1255 108.594 85.3306 108.38C85.1015 108.338 84.8841 108.247 84.6938 108.112C84.5034 107.978 84.3445 107.803 84.2282 107.601C84.1118 107.399 84.0408 107.174 84.02 106.942C83.9993 106.709 84.0293 106.475 84.108 106.255C84.689 104.336 85.3027 102.426 85.9163 100.515C86.4416 98.8801 87.0041 97.2542 87.4876 95.6003C87.4865 95.4384 87.4482 95.2789 87.3756 95.1343C87.3031 94.9896 87.1982 94.8637 87.0692 94.7663C84.28 92.7117 81.4907 90.6898 78.7015 88.6632C78.1018 88.2299 77.5765 87.792 77.6091 86.9347C77.5972 86.6968 77.635 86.459 77.7202 86.2366C77.8053 86.0142 77.9359 85.8121 78.1035 85.6432C78.2711 85.4744 78.4721 85.3425 78.6936 85.256C78.915 85.1695 79.1521 85.1303 79.3895 85.141C81.1979 85.2062 83.0016 85.2156 84.8099 85.2156ZM112.284 87.4053L112.242 87.1769C111.949 87.1769 111.656 87.1257 111.363 87.121C108.165 87.121 104.967 87.121 101.773 87.121C101.31 87.1519 100.85 87.0327 100.459 86.781C100.069 86.5293 99.7704 86.1585 99.6067 85.7234C98.5809 82.4839 97.5427 79.2506 96.4921 76.0235C96.4363 75.8605 96.255 75.7393 96.1295 75.5996C96.0074 75.7148 95.9039 75.8484 95.8227 75.9956C94.8046 79.0984 93.7819 82.2059 92.7871 85.3134C92.3222 86.711 91.8109 87.1397 90.3326 87.1444C87.1901 87.1444 84.0429 87.1444 80.9003 87.1444C80.6168 87.1444 80.3286 87.1956 79.8172 87.2468C80.3751 87.6755 80.747 87.9596 81.0956 88.2252C83.5904 90.0422 86.0898 91.8545 88.5939 93.6622C89.268 94.1281 89.6399 94.7943 89.4028 95.5956C88.8125 97.6176 88.1477 99.6162 87.5062 101.624C87.0738 102.971 86.6229 104.308 86.1952 105.654C86.1652 105.9 86.1652 106.149 86.1952 106.395L86.9809 105.836L94.8558 100.129C95.8971 99.3787 96.4456 99.388 97.5055 100.157L105.441 105.91C105.636 106.055 105.845 106.176 106.045 106.302L106.245 106.167C106.096 105.701 105.948 105.235 105.78 104.769C104.911 102.081 104.07 99.3833 103.163 96.7091C102.614 95.0925 102.768 94.3284 103.986 93.4479C104.785 92.8841 105.585 92.3204 106.375 91.7427C108.365 90.2891 110.313 88.8495 112.284 87.4053Z" fill="#D35F46"/>
<path d="M87.5295 78.7307H86.465C83.964 78.7307 81.463 78.7307 78.962 78.7307C78.5737 78.7566 78.1893 78.6407 77.8798 78.4042C77.5704 78.1678 77.357 77.827 77.2791 77.4449C76.4889 74.9431 75.7032 72.4412 74.899 69.944C74.7673 69.6358 74.6119 69.3383 74.4341 69.0542C73.946 70.587 73.5044 71.9008 73.1092 73.2146C72.7141 74.5284 72.2957 75.9773 71.8122 77.333C71.3799 78.535 71.0173 78.7307 69.725 78.7307H61.4689L61.3666 78.9544C62.0779 79.5088 62.7612 80.0678 63.4957 80.6036C65.0809 81.7916 66.6847 82.9331 68.2653 84.149C69.1392 84.8106 69.195 85.6166 68.7302 87.0236C67.9492 89.3531 67.2379 91.7291 66.5034 94.0865C66.4647 94.2711 66.4367 94.4577 66.4198 94.6456C66.7122 94.5071 66.9962 94.3515 67.2704 94.1797C69.2833 92.6982 71.2869 91.2073 73.3138 89.7258C74.2854 89.013 74.7828 88.999 75.759 89.7258C77.7905 91.2166 79.808 92.7354 81.8302 94.2356C82.0534 94.3987 82.2951 94.5431 82.6019 94.7481C82.5865 94.4926 82.6196 94.2364 82.6995 93.9933C82.8669 93.7184 83.1179 93.3458 83.3643 93.3178C83.5412 93.3098 83.7176 93.3435 83.8791 93.4164C84.0406 93.4892 84.1827 93.5991 84.294 93.7371C84.5412 94.1889 84.7065 94.681 84.7822 95.1907C84.8655 95.5195 84.8403 95.8665 84.7104 96.1797C84.5805 96.493 84.3529 96.7557 84.0616 96.9285C83.811 97.1146 83.5054 97.2111 83.1936 97.2027C82.8818 97.1942 82.5818 97.0813 82.3416 96.8819C80.6588 95.6395 78.9821 94.4049 77.3117 93.178C76.6097 92.6562 75.9171 92.1391 75.2244 91.5847C75.1374 91.4916 75.0323 91.4174 74.9156 91.3667C74.7988 91.3159 74.6729 91.2897 74.5457 91.2897C74.4184 91.2897 74.2926 91.3159 74.1758 91.3667C74.0591 91.4174 73.9539 91.4916 73.867 91.5847C71.6123 93.2945 69.3252 94.9671 67.052 96.6536C66.1222 97.3291 65.5923 97.3803 64.8857 96.8492C64.1791 96.3181 64.0768 95.5494 64.3836 94.613C65.1367 92.3161 65.8526 90.01 66.5824 87.7085C66.7105 87.234 66.8657 86.7673 67.0473 86.3108C67.0964 86.2205 67.1269 86.1214 67.1371 86.0191C67.1473 85.9169 67.1369 85.8136 67.1065 85.7154C67.0762 85.6173 67.0265 85.5262 66.9605 85.4476C66.8944 85.369 66.8133 85.3045 66.7219 85.2579C64.4673 83.59 62.2034 81.9361 59.9766 80.2263C59.4982 79.8967 59.1317 79.4286 58.926 78.8845C58.6192 77.757 59.3909 76.9603 60.6879 76.9324C62.2592 76.9044 63.8304 76.9324 65.4063 76.9324C66.6661 76.9324 67.9306 76.9044 69.195 76.9324C69.4381 76.9704 69.6865 76.9146 69.8901 76.7763C70.0937 76.6379 70.2374 76.4273 70.2921 76.187C70.9708 74.0283 71.6495 71.8697 72.3282 69.7111C72.5467 69.0262 72.7931 68.3507 73.007 67.6612C73.0977 67.3078 73.3032 66.9947 73.591 66.7712C73.8789 66.5476 74.2327 66.4264 74.5968 66.4266C75.2895 66.3846 75.931 67.0462 76.196 67.8801C77.0606 70.6056 77.9811 73.3125 78.7853 76.0472C79.0131 76.8113 79.4036 76.9324 80.0637 76.9277C82.6949 76.9277 85.3214 76.9277 87.9665 76.9277C88.2508 76.9183 88.5353 76.9324 88.8172 76.9697C89.1283 76.9803 89.4275 77.0919 89.6697 77.2877C89.912 77.4835 90.0844 77.7528 90.1607 78.0552C90.2766 78.3739 90.2866 78.7215 90.1895 79.0464C90.0923 79.3712 89.8931 79.6559 89.6215 79.8582C87.8023 81.2528 85.9707 82.6287 84.1267 83.986C83.4805 84.4519 82.8994 84.396 82.5787 83.8602C82.1789 83.1986 82.6205 82.8119 83.0993 82.4625C84.4196 81.4748 85.7398 80.4965 87.06 79.5041C87.2785 79.3411 87.4691 79.1454 87.6736 78.9637L87.5295 78.7307Z" fill="#D35F46"/>
<path d="M109.759 94.771L113.013 92.3484C114.208 91.4539 115.393 90.5454 116.602 89.6742C117.573 88.9707 118.071 88.9893 119.047 89.7068C121.055 91.1883 123.062 92.6745 125.067 94.1653C125.281 94.3191 125.532 94.4402 125.751 94.5753L125.927 94.4588C125.727 93.7553 125.551 93.0612 125.328 92.3577C124.756 90.5407 124.147 88.7377 123.58 86.9207C123.054 85.2435 123.171 84.7403 124.547 83.748C126.532 82.3177 128.484 80.8502 130.45 79.3966C130.671 79.2508 130.835 79.0338 130.915 78.7816C130.632 78.7816 130.343 78.7117 130.06 78.7117C127.587 78.7117 125.109 78.7117 122.622 78.7117C121.297 78.7117 120.804 78.3576 120.418 77.123C119.61 74.5451 118.804 71.9672 118.001 69.3893C118.001 69.3473 117.936 69.3194 117.75 69.1144C117.467 69.8971 117.197 70.5819 116.969 71.2807C116.295 73.3912 115.663 75.5111 114.956 77.6076C114.862 77.9463 114.653 78.2418 114.366 78.4439C114.079 78.646 113.73 78.7423 113.38 78.7164C110.8 78.6931 108.22 78.7164 105.645 78.7164H104.743L104.655 78.926C105.013 79.2242 105.357 79.5317 105.729 79.8112C106.923 80.7058 108.127 81.5863 109.322 82.4855C109.764 82.8209 110.182 83.2076 109.787 83.8365C109.466 84.3397 108.894 84.4282 108.29 83.9856C106.462 82.6532 104.647 81.2974 102.846 79.9184C102.524 79.7181 102.285 79.4076 102.174 79.0444C102.063 78.6811 102.087 78.2898 102.242 77.943C102.507 77.137 103.149 76.9227 103.883 76.9181C106.458 76.9181 109.038 76.9181 111.618 76.9181C113.659 76.9181 113.171 77.1557 113.836 75.143C114.659 72.6551 115.412 70.1393 116.225 67.6468C116.313 67.3036 116.511 66.9986 116.788 66.7783C117.065 66.5579 117.406 66.4343 117.759 66.4262C118.111 66.4105 118.458 66.5175 118.74 66.729C119.022 66.9405 119.223 67.2434 119.307 67.5863C119.927 69.4964 120.547 71.405 121.167 73.3121C121.474 74.2439 121.767 75.2269 122.064 76.1819C122.12 76.4211 122.263 76.6308 122.465 76.7696C122.667 76.9085 122.914 76.9664 123.157 76.932C125.992 76.9072 128.83 76.9072 131.668 76.932C132.937 76.932 133.653 77.6635 133.453 78.7956C133.36 79.2417 133.115 79.6418 132.761 79.9277C130.581 81.6049 128.368 83.2449 126.15 84.8708C125.137 85.6116 125.072 85.6302 125.444 86.8136C126.271 89.4366 127.127 92.0502 127.987 94.6592C128.134 95.0195 128.168 95.416 128.085 95.7963C128.002 96.1765 127.805 96.5225 127.522 96.7883C126.838 97.3334 126.178 97.3194 125.337 96.6951C123.059 95.0179 120.776 93.3407 118.526 91.6216C118.43 91.5225 118.315 91.4438 118.187 91.3901C118.06 91.3364 117.923 91.3087 117.785 91.3087C117.647 91.3087 117.51 91.3364 117.383 91.3901C117.255 91.4438 117.14 91.5225 117.044 91.6216C114.835 93.3081 112.599 94.9573 110.373 96.6159C109.489 97.2775 108.941 97.352 108.267 96.9048C107.593 96.4575 107.37 95.8752 107.63 94.7943C107.709 94.4729 107.848 94.1607 107.937 93.8625C108.095 93.3174 108.504 93.2475 108.969 93.2941C109.434 93.3407 109.652 93.6902 109.652 94.1607C109.671 94.2679 109.699 94.4169 109.759 94.771Z" fill="#D35F46"/>
</svg>
