<svg width="156" height="158" viewBox="0 0 156 158" fill="none" xmlns="http://www.w3.org/2000/svg">
<path d="M143.282 114.146V32.6119H115.656C114.617 28.8916 113.627 25.3551 112.616 21.739C112.79 21.739 113.265 21.6747 113.74 21.6747C125.157 21.6747 136.574 21.6747 147.992 21.6747C152.08 21.6747 154.268 23.8995 154.268 28.0427C154.268 62.4958 154.268 96.9519 154.268 131.411C154.268 135.349 152.16 137.476 148.256 137.479H99.9839V149.587C100.802 149.587 101.639 149.587 102.475 149.587C104.562 149.633 106.668 149.534 108.73 149.792C111.755 150.169 113.94 152.771 114.139 156.004H43.4593C43.2142 153.114 45.5095 150.224 48.5985 149.804C50.5015 149.547 52.4567 149.642 54.3904 149.587C55.0431 149.568 55.6958 149.587 56.465 149.587V137.476H8.23909C4.10816 137.476 2.04475 135.409 2.04883 131.276V28.0611C2.04883 23.731 4.08977 21.6747 8.39232 21.6716H44.4859L40.8085 32.5475H13.0595V114.146H143.282ZM72.29 126.71C72.3018 128.255 72.9176 129.735 74.0056 130.832C75.0936 131.929 76.5676 132.557 78.1126 132.582C78.8907 132.581 79.6612 132.427 80.3797 132.129C81.0983 131.83 81.751 131.393 82.3004 130.842C82.8497 130.291 83.285 129.637 83.5813 128.917C83.8776 128.198 84.0291 127.427 84.0271 126.649C84.0215 125.104 83.4072 123.623 82.3174 122.527C81.2275 121.431 79.7498 120.809 78.2045 120.796C77.4257 120.791 76.6536 120.941 75.9332 121.237C75.2129 121.533 74.5585 121.969 74.0082 122.52C73.4579 123.072 73.0226 123.727 72.7276 124.447C72.4327 125.168 72.2839 125.941 72.29 126.719V126.71Z" stroke="#D35F46" stroke-width="3.28856" stroke-miterlimit="10"/>
<path d="M83.9859 27.2241C88.2762 27.2241 92.5512 27.2088 96.8323 27.2241C100.203 27.2241 102.226 28.7564 102.37 32.0231C102.606 37.4013 102.909 42.8285 101.533 48.1332C99.1092 57.4676 90.9668 64.4792 81.4148 65.8766C69.2702 67.6509 56.1695 59.2757 54.2481 45.2648C53.6627 41.0052 53.8527 36.6229 53.8956 32.2989C53.9201 29.924 55.1674 28.0975 57.5516 27.3712C58.5138 27.0648 58.6518 26.504 58.6824 25.6766C58.7651 23.2893 58.6303 20.8561 59.0471 18.524C59.7318 14.6011 61.5935 10.9792 64.3849 8.1391C67.1763 5.29897 70.7655 3.37494 74.676 2.62239C84.7459 0.710148 95.5421 6.56641 97.4727 17.6139C97.5437 18.0141 97.5887 18.4184 97.6076 18.8244C97.6934 20.8561 97.4145 21.1503 95.3981 21.1595C93.4613 21.1595 91.5246 21.1595 89.5755 21.1595C88.5857 21.1595 87.933 20.8071 87.7705 19.7192C87.032 14.7118 83.3117 12.6709 80.0021 12.3307C74.866 11.8098 71.0292 14.0407 69.261 18.334C68.1884 20.9419 68.5623 23.6571 68.6297 26.3385C68.6297 26.645 69.6563 27.1506 70.2233 27.1751C72.5155 27.2732 74.82 27.2149 77.1031 27.2149H83.9859V27.2241ZM78.099 56.6249H79.3248C79.7293 56.6249 80.1369 56.6249 80.5506 56.6249C82.2269 56.5667 82.8275 55.9047 82.6498 54.2254C82.472 52.546 82.2422 50.8023 82.0369 49.0924C81.8714 47.7072 81.9664 46.4967 82.9746 45.2801C84.991 42.8469 84.5436 39.3074 82.1901 37.1684C81.0894 36.1672 79.6539 35.6139 78.1659 35.6173C76.6779 35.6207 75.2451 36.1806 74.1489 37.1868C71.7923 39.332 71.3602 42.8316 73.3766 45.2985C74.3695 46.5243 74.4798 47.7501 74.296 49.1169C74.1489 50.2722 73.9405 51.4214 73.7873 52.5736C73.3031 56.251 73.6524 56.6341 77.339 56.628L78.099 56.6249Z" stroke="#D35F46" stroke-width="3.28856" stroke-miterlimit="10"/>
<path d="M54.4496 90.3715C54.4496 86.3876 54.4496 82.4283 54.4496 78.4567C54.4496 76.238 55.1268 75.5148 57.3915 75.5945C61.4488 75.7416 65.5614 75.6221 69.536 76.2901C74.7855 77.1758 78.4415 81.4446 78.8981 86.7921C79.1846 89.6081 79.0814 92.4501 78.5916 95.2379C77.4976 100.809 73.48 104.355 67.8077 104.903C64.1303 105.262 60.3978 105.21 56.6867 105.234C55.1759 105.234 54.4802 104.392 54.471 102.743C54.4312 98.6272 54.4496 94.4963 54.4496 90.3715ZM61.1914 90.3408C61.1914 92.3787 61.1577 94.4135 61.1914 96.4514C61.2681 100.129 60.4314 99.7887 64.6727 99.709C68.3777 99.6385 70.9427 97.7508 71.6873 94.3063C72.1444 92.2245 72.2685 90.0834 72.055 87.9628C71.623 83.9789 69.4043 81.7817 65.7177 81.1994C64.7217 81.0401 63.6829 81.1657 62.6716 81.0861C61.5622 80.9972 61.1394 81.3925 61.1639 82.5509C61.2374 85.1435 61.1914 87.7452 61.1914 90.3531V90.3408Z" fill="#D35F46"/>
<path d="M46.5099 96.1173C46.5099 97.956 46.5099 99.7947 46.5099 101.633C46.5099 102.884 45.946 103.809 44.7509 104.223C40.1541 105.813 35.4471 106.368 30.6848 105.001C25.1381 103.399 21.4332 98.6547 21.1236 92.8782C20.9336 89.3356 21.1237 85.8513 22.8551 82.6274C25.3067 78.0767 29.2108 75.7354 34.2673 75.2727C37.5861 74.9662 40.8896 75.1072 44.0062 76.5168C46.3536 77.5802 47.2729 79.9399 46.3138 82.3547C45.7959 83.654 44.9899 83.1729 44.0736 82.8542C41.9285 82.1126 39.7833 81.0584 37.58 80.8745C30.3324 80.2616 27.4181 85.9524 27.9881 91.7811C28.3344 95.3267 29.6828 98.4034 33.449 99.4638C34.9813 99.8989 36.7342 99.7242 38.3829 99.7059C39.3298 99.7059 39.817 99.0929 39.7741 98.0817C39.722 96.9631 39.7159 95.8385 39.7741 94.7107C39.8324 93.583 39.3359 93.2612 38.3124 93.3133C37.3471 93.3654 36.3756 93.344 35.4103 93.3133C33.9148 93.2766 33.3234 92.4706 33.3632 90.5798C33.4031 88.689 33.921 88.073 35.4501 88.0639C38.3103 88.0414 41.1624 88.0414 44.0062 88.0639C45.7591 88.0639 46.4762 88.8024 46.5099 90.5951C46.5436 92.3879 46.5068 94.2848 46.5099 96.1173Z" fill="#D35F46"/>
<path d="M129.222 91.5419C132.069 94.7351 133.206 98.6944 134.806 102.409C135.749 104.594 135.25 105.271 132.86 105.292C127.84 105.341 128.765 105.553 127.037 101.449C126.274 99.6106 125.523 97.772 124.711 95.9762C124.061 94.5359 123.013 93.6165 121.34 93.5031C120.307 93.4327 119.851 93.7146 119.875 94.8362C119.934 97.5329 119.906 100.233 119.875 102.933C119.875 104.673 119.345 105.216 117.611 105.277C112.033 105.47 113.134 104.97 113.106 101.045C113.057 93.5093 113.106 85.9737 113.106 78.4381C113.106 76.155 113.719 75.5513 116.026 75.5851C119.431 75.6372 122.854 75.533 126.231 75.8915C130.347 76.3236 133.019 78.5024 133.525 81.7753C134.119 85.6366 133.791 88.6275 129.617 91.2048C129.48 91.31 129.348 91.4226 129.222 91.5419ZM119.903 88.0637C121.362 88.0637 122.633 88.1924 123.868 88.033C124.689 87.9339 125.446 87.5409 125.999 86.9269C126.552 86.3128 126.864 85.5191 126.878 84.6927C126.957 83.0839 126.112 81.6558 124.619 81.2972C123.431 81.0357 122.213 80.9327 120.997 80.9908C120.623 80.9908 119.973 81.6589 119.952 82.0481C119.854 83.9572 119.915 85.8909 119.915 88.0637H119.903Z" fill="#D35F46"/>
<path d="M85.9534 90.8211C85.9534 86.7483 85.9534 82.6756 85.9534 78.606C85.9534 76.3996 86.79 75.5415 89.0179 75.5874C92.064 75.6303 95.1285 75.5874 98.15 75.8939C103.154 76.4118 106.292 79.4793 106.473 83.6685C106.74 89.8189 104.132 93.6925 98.812 94.808C97.2797 95.1144 95.6862 95.142 94.1172 95.1941C93.0936 95.2309 92.6493 95.5986 92.6738 96.6558C92.7198 98.8439 92.6493 101.035 92.7014 103.223C92.732 104.568 92.1283 105.166 90.829 105.285C86.2721 105.693 85.9258 105.408 85.9258 100.903L85.9534 90.8211ZM92.6953 85.3846C92.6953 86.5032 92.6309 87.6248 92.729 88.7341C92.7658 89.1294 93.1672 89.7791 93.4645 89.8159C95.2603 90.0427 97.0499 89.9814 98.4197 88.5441C99.5046 87.4072 99.8233 84.5817 99.0909 83.0648C98.2481 81.3242 96.7159 81.0116 94.9936 81.0913C94.5891 81.1097 94.108 80.9626 93.7923 81.1311C93.3633 81.361 92.8025 81.7869 92.7443 82.1914C92.6094 83.2364 92.7075 84.3182 92.7075 85.3846H92.6953Z" fill="#D35F46"/>
</svg>
