<svg width="167" height="167" viewBox="0 0 167 167" fill="none" xmlns="http://www.w3.org/2000/svg">
<path d="M17.7107 19.8842C16.3881 16.7776 16.244 13.295 17.3057 10.0898C18.3674 6.88456 20.5622 4.17678 23.4779 2.47405C25.7532 1.03606 28.4096 0.318825 31.0994 0.416519C33.7892 0.514213 36.3871 1.42237 38.5521 3.02163C41.1289 4.8598 43.0073 7.51609 43.8821 10.5581C44.7569 13.6 44.5764 16.8484 43.3697 19.7746C44.7179 20.2645 46.0342 20.8373 47.3115 21.49C48.9607 22.4762 50.3214 23.8792 51.2568 25.5578C52.1922 27.2364 52.6697 29.1314 52.6407 31.0527C52.6407 36.3451 52.6407 41.6009 52.6407 46.8933C52.7688 47.6206 52.6233 48.3696 52.2326 48.9963C51.8418 49.6229 51.2329 50.0829 50.5234 50.2879C47.494 51.1639 46.8735 53.1347 46.8735 56.0911C47.129 59.7411 46.8735 63.1355 46.8735 66.6395V68.5375C53.1942 66.8165 59.8273 66.5789 66.2548 67.8438C66.2809 67.394 66.2809 66.9431 66.2548 66.4933C66.2548 62.1134 66.2548 57.6971 66.2548 53.3172C66.2181 52.9603 66.1043 52.6159 65.9215 52.3071C65.7388 51.9984 65.4914 51.7326 65.1962 51.5287C59.7578 48.8643 60.7799 49.1928 60.7069 43.8275C60.7069 39.7396 60.7069 35.6517 60.7069 31.5638C60.5398 28.9225 61.3349 26.3099 62.9453 24.2096C64.5557 22.1093 66.8725 20.6636 69.4668 20.1395L70.0509 19.8842C68.9086 17.1252 68.6746 14.0737 69.3834 11.1729C70.0922 8.27212 71.7067 5.67277 73.9926 3.75144C75.387 2.51404 77.0306 1.59031 78.8125 1.04251C80.5945 0.494709 82.4731 0.335605 84.3217 0.576025C86.4991 0.764224 88.5958 1.48948 90.4239 2.68702C92.2521 3.88457 93.7546 5.51701 94.797 7.43789C95.8587 9.26342 96.4897 11.3072 96.6415 13.4136C96.7933 15.5199 96.4618 17.633 95.6729 19.592C97.4333 20.3936 99.1402 21.308 100.783 22.3294C102.073 23.2499 103.123 24.4658 103.847 25.8755C104.571 27.2852 104.947 28.8475 104.944 30.4321C104.944 36.0895 104.944 41.7469 104.944 47.3678C105.015 47.9376 104.887 48.5149 104.581 49.0007C104.275 49.4866 103.81 49.8508 103.265 50.0321C99.6151 51.0906 99.1407 53.3539 99.2867 56.7118C99.5787 63.4641 99.2867 70.2528 99.2867 77.0416C99.2867 79.9981 98.4838 80.6916 95.6368 80.6916H89.7235C89.5296 80.6671 89.3338 80.6671 89.1399 80.6916C89.358 81.0844 89.6016 81.4626 89.8697 81.8232C95.095 87.8763 98.3939 95.352 99.3433 103.292C100.293 111.232 98.8492 119.274 95.1984 126.389C91.6619 133.89 85.9278 140.138 78.7568 144.304C71.5859 148.469 63.3173 150.355 55.0493 149.712C49.8282 149.309 44.7282 147.935 40.0117 145.66C39.8482 145.546 39.6633 145.467 39.4681 145.428C39.2729 145.388 39.0717 145.389 38.8769 145.43C38.682 145.471 38.4977 145.551 38.3351 145.666C38.1725 145.781 38.0351 145.928 37.9314 146.098C36.3619 147.741 34.7197 149.346 33.1137 150.916C31.5077 152.485 29.9382 153.106 27.5292 150.916C26.9452 151.427 26.3248 151.975 25.7773 152.522L13.4041 164.932C11.6156 166.757 10.3017 166.757 8.47676 164.932C5.99482 162.486 3.51287 159.968 1.17693 157.632C0.815172 157.372 0.520262 157.029 0.317022 156.632C0.113782 156.236 0.0078125 155.797 0.0078125 155.351C0.0078125 154.905 0.113782 154.466 0.317022 154.069C0.520262 153.672 0.815172 153.33 1.17693 153.07C5.59333 148.617 9.97325 144.164 14.4261 139.784C15.1196 139.09 15.4114 138.616 14.6084 137.74C14.3452 137.47 14.1423 137.147 14.0131 136.793C13.8839 136.439 13.8314 136.061 13.859 135.685C13.8866 135.309 13.9936 134.943 14.1731 134.612C14.3526 134.28 14.6004 133.99 14.9002 133.761C16.6887 131.973 18.5505 130.112 20.2659 128.396C20.639 128.131 20.8934 127.731 20.9752 127.281C21.0571 126.831 20.9599 126.366 20.7039 125.987C18.2197 120.9 16.8257 115.35 16.612 109.694C16.3983 104.037 17.3692 98.3976 19.4626 93.1379C21.0196 88.9602 23.3062 85.0921 26.2153 81.7136L27.1278 80.4728H25.3028H17.2362C14.9003 80.4728 13.842 79.5238 13.842 77.2243C13.842 72.5159 13.842 67.8441 13.842 63.1357C13.842 59.4858 13.842 56.0913 13.842 52.5874C13.7886 52.3079 13.6764 52.0427 13.5128 51.8099C13.3492 51.577 13.1379 51.3819 12.893 51.2369C7.71014 48.6455 8.40366 49.3389 8.36716 43.3895C8.36716 39.7396 8.36716 36.0895 8.36716 32.695C8.02701 29.7757 8.79972 26.8355 10.5316 24.4609C12.2635 22.0863 14.8271 20.4523 17.7107 19.8842ZM33.4786 72.5523V67.1505H38.917V71.6033C41.6179 70.9098 41.7275 70.8002 41.7275 68.2817V53.3902C41.7275 48.1708 41.3988 48.7547 46.1437 46.4553C46.4986 46.3282 46.8018 46.0876 47.0063 45.7709C47.2108 45.4543 47.3055 45.0792 47.2754 44.7034C47.2754 40.141 47.2754 35.5786 47.2754 31.0527C47.2905 30.2978 47.1522 29.5478 46.8691 28.8477C46.586 28.1477 46.1639 27.5122 45.6282 26.98C45.0926 26.4478 44.4543 26.0298 43.7525 25.7512C43.0506 25.4726 42.2996 25.3392 41.5448 25.3591H38.1141C37.518 25.4161 36.9198 25.2706 36.4165 24.9461C35.9133 24.6216 35.5343 24.1367 35.3401 23.5702C35.1269 23.038 35.0858 22.4525 35.2234 21.8959C35.3609 21.3392 35.6699 20.8396 36.1064 20.4679C36.5665 20.0493 36.9822 19.5845 37.3473 19.0809C38.5803 17.3666 39.1154 15.248 38.8443 13.1538C38.5732 11.0596 37.5161 9.14663 35.8872 7.80279C34.2106 6.42685 32.0634 5.7599 29.9022 5.94397C27.7411 6.12804 25.7371 7.14866 24.3173 8.78834C22.8653 10.3805 22.1005 12.4813 22.1894 14.6344C22.2782 16.7874 23.2135 18.8185 24.7918 20.2857C25.3559 20.6837 25.7609 21.2687 25.9346 21.9369C26.1083 22.6051 26.0397 23.3132 25.7408 23.9356C25.4772 24.503 25.0341 24.9677 24.4799 25.258C23.9257 25.5483 23.291 25.6477 22.6746 25.5413H19.8645C19.0598 25.4806 18.2513 25.5951 17.4951 25.8768C16.7388 26.1585 16.0523 26.601 15.4834 27.1734C14.9145 27.7458 14.4765 28.4346 14.1994 29.1926C13.9223 29.9505 13.813 30.7594 13.8786 31.5638C13.8786 35.2137 13.8786 38.8638 13.8786 42.2582C13.7322 42.8337 13.7023 43.4324 13.7908 44.0195C13.8793 44.6066 14.0841 45.1702 14.3936 45.6769C14.7031 46.1837 15.1107 46.6231 15.5926 46.9699C16.0745 47.3167 16.6209 47.564 17.1997 47.6966C19.0611 48.2806 19.5722 49.7038 19.5722 51.5653C19.5722 58.8651 19.5722 66.1652 19.5722 73.7205C19.5722 75.2535 20.0468 75.6546 21.5068 75.6181C24.8647 75.6181 28.2592 75.4356 31.5806 75.6181C34.099 75.6181 35.2305 74.0854 37.0555 72.735L33.4786 72.5523ZM99.9069 37.8415C99.9069 36.3816 99.9069 34.9218 99.9069 33.4984C100.381 27.257 97.7535 24.9211 91.6581 25.3591C91.0075 25.4889 90.338 25.4889 89.6874 25.3591C87.68 24.6291 86.95 22.22 89.2129 20.1395C90.6529 18.7163 91.5163 16.8113 91.6376 14.7903C91.7589 12.7693 91.1292 10.7749 89.8697 9.18978C88.6102 7.57006 86.8035 6.46508 84.7878 6.08209C82.772 5.6991 80.6857 6.0646 78.9199 7.10952C77.7926 7.7555 76.834 8.65823 76.1219 9.74493C75.4098 10.8316 74.9645 12.0713 74.8222 13.3628C74.6799 14.6542 74.8446 15.961 75.303 17.1766C75.7614 18.3923 76.5003 19.4828 77.4599 20.3587C77.9417 20.7214 78.2941 21.2293 78.465 21.8077C78.6359 22.3861 78.6163 23.0039 78.4089 23.5702C78.1754 24.1477 77.7611 24.6344 77.2282 24.9568C76.6952 25.2792 76.0725 25.4203 75.4527 25.3591H72.3503C71.5709 25.3111 70.7901 25.4293 70.0598 25.7057C69.3295 25.9822 68.6662 26.4105 68.1141 26.9626C67.5619 27.5148 67.1332 28.178 66.8567 28.9083C66.5802 29.6386 66.4621 30.4195 66.5101 31.1989C66.5101 34.8488 66.6926 38.4985 66.5101 42.3674C66.5101 45.0318 67.0575 46.6744 69.649 47.4408C70.4573 47.7137 71.1448 48.261 71.5916 48.9878C72.0383 49.7146 72.2162 50.5747 72.0946 51.4191C72.0946 56.8575 72.0946 62.3692 72.0946 67.6981C72.013 68.2033 72.1206 68.7209 72.3967 69.1519C72.6727 69.5828 73.0981 69.8969 73.5912 70.0341C75.1922 70.4621 76.7013 71.1794 78.044 72.1509C80.0381 73.6138 82.3089 74.656 84.7183 75.2144C87.1276 75.7729 89.6251 75.8359 92.0595 75.3993H92.8263C94.1403 75.3993 94.5051 74.9976 94.5051 73.7566C94.5051 66.9678 94.5051 60.1791 94.5051 53.3902C94.5051 48.0979 94.2498 48.7548 98.7757 46.5284C99.1868 46.3949 99.5371 46.1198 99.7644 45.7522C99.9916 45.3846 100.081 44.9486 100.017 44.5212C99.8341 42.2947 99.9069 40.214 99.9069 37.8415ZM58.2252 72.5523C48.7586 72.5416 39.6682 76.2576 32.9199 82.8966C26.1716 89.5356 22.3078 98.5639 22.164 108.029C22.1156 112.811 23.017 117.556 24.8158 121.987C26.6147 126.418 29.2748 130.447 32.6428 133.843C36.0107 137.238 40.0191 139.93 44.4355 141.765C48.8519 143.599 53.5886 144.538 58.3709 144.529C63.1349 144.505 67.8476 143.541 72.2385 141.693C76.6294 139.844 80.6124 137.147 83.959 133.756C87.3057 130.365 89.95 126.348 91.741 121.933C93.5319 117.518 94.434 112.793 94.3955 108.029C94.2232 98.554 90.3354 89.5259 83.5696 82.8899C76.8039 76.2538 67.7021 72.5412 58.2252 72.5523ZM6.61527 156.026C7.89274 157.194 9.17021 158.289 10.2652 159.676C10.8857 160.296 11.3234 160.077 11.8344 159.676C15.4843 156.026 19.3535 152.194 23.0764 148.398C23.2954 148.179 23.4414 147.449 23.0764 147.266C21.8355 145.916 20.5212 144.675 19.1708 143.361L6.61527 156.026ZM23.8428 132.594C23.0398 133.543 22.2365 134.564 21.2876 135.513C20.3386 136.462 20.6671 136.609 21.2876 137.156C21.5975 137.43 21.8905 137.722 22.164 138.032L30.2667 146.354L33.9166 142.704L23.8428 132.594Z" fill="#D35F46"/>
<path d="M156.004 83.3934C157.553 83.6292 159.079 83.9957 160.567 84.4886C162.292 85.1094 163.778 86.2582 164.813 87.7718C165.848 89.2854 166.381 91.0865 166.334 92.9196C166.334 103.577 166.334 114.235 166.334 124.893C165.986 126.545 165.262 128.093 164.217 129.419C163.414 130.842 162.282 132.12 161.479 133.543C161.098 134.262 160.909 135.066 160.932 135.879C160.932 143.909 160.932 151.903 160.932 159.933C160.932 161.392 160.932 162.816 160.932 164.239C160.922 164.872 160.664 165.475 160.213 165.919C159.763 166.363 159.156 166.612 158.523 166.612C157.027 166.612 155.53 166.612 154.034 166.612H126.112C122.936 166.612 122.462 165.918 122.462 162.779C122.462 153.837 122.462 144.895 122.462 135.916C122.437 134.91 122.147 133.928 121.622 133.069C120.454 131.061 118.994 129.2 117.972 127.229C117.448 126.354 117.147 125.364 117.096 124.346C117.096 114.199 117.096 104.064 117.096 93.9417C116.963 92.6229 117.109 91.2909 117.524 90.032C117.939 88.7732 118.615 87.6161 119.506 86.6352C120.397 85.6543 121.485 84.8717 122.698 84.3384C123.912 83.8051 125.224 83.5328 126.55 83.5395L127.389 83.3569C126.988 82.2619 126.586 81.2765 126.257 80.2545C125.555 78.164 125.283 75.9534 125.457 73.7549C125.631 71.5564 126.249 69.4158 127.271 67.462C128.294 65.5082 129.702 63.7816 131.409 62.3859C133.117 60.9902 135.089 59.9543 137.207 59.3406C138.923 58.8296 139.397 58.0995 139.324 56.457C139.324 52.8071 139.324 49.4495 139.324 45.9091C139.324 44.7046 138.74 44.5948 137.791 44.5948H123.192C120.6 44.5948 119.542 43.6458 119.542 40.9448V4.00768C119.542 1.05125 120.381 0.175537 123.192 0.175537H159.691C163.341 0.175537 163.925 0.905574 163.888 4.3365V40.3612C163.888 43.7556 163.195 44.4856 159.837 44.4856H146.04C144.872 44.4856 144.398 44.7773 144.434 46.0183C144.434 49.5952 144.434 53.1723 144.434 56.7493C144.364 57.0395 144.359 57.3411 144.418 57.6337C144.478 57.9262 144.6 58.2023 144.778 58.4423C144.955 58.6824 145.183 58.8808 145.445 59.0233C145.708 59.1659 145.997 59.2491 146.295 59.2675C149.83 60.1744 152.952 62.2528 155.153 65.163C157.354 68.0731 158.503 71.6432 158.413 75.2907C158.115 77.5726 157.602 79.8211 156.88 82.0064C156.641 82.5002 156.347 82.9655 156.004 83.3934ZM155.348 161.21V159.275C155.348 151.1 155.348 142.924 155.348 134.748C155.415 133.456 155.804 132.202 156.479 131.098C157.537 129.164 158.961 127.448 160.129 125.55C160.562 124.857 160.813 124.066 160.859 123.251C160.859 113.347 160.859 103.456 160.859 93.5768C160.897 92.9934 160.809 92.4086 160.602 91.8619C160.395 91.3152 160.073 90.8193 159.658 90.4076C159.243 89.996 158.744 89.6781 158.196 89.4756C157.648 89.273 157.062 89.1906 156.479 89.2336H150.42C148.923 89.2336 147.61 88.9781 147.062 87.3721C146.829 86.6937 146.844 85.9545 147.105 85.2861C147.365 84.6177 147.855 84.0635 148.486 83.7222C149.954 82.4832 151.078 80.8875 151.752 79.0885C152.425 77.2896 152.625 75.3476 152.332 73.4492C152.038 71.5509 151.262 69.7599 150.077 68.2479C148.892 66.736 147.339 65.5539 145.566 64.8154C143.364 64.0437 140.983 63.9402 138.723 64.5183C136.463 65.0963 134.425 66.33 132.864 68.0639C131.887 69.1969 131.153 70.5181 130.706 71.946C130.26 73.3738 130.11 74.878 130.268 76.3658C130.425 77.8536 130.886 79.2934 131.621 80.5963C132.356 81.8991 133.35 83.0374 134.543 83.941C135.067 84.2868 135.463 84.7966 135.668 85.3908C135.872 85.985 135.875 86.6303 135.674 87.226C135.454 87.8381 135.027 88.3546 134.468 88.6874C133.909 89.0202 133.251 89.1487 132.608 89.051H126.55C125.942 88.956 125.32 89.0035 124.733 89.1895C124.147 89.3756 123.611 89.6953 123.169 90.1234C122.727 90.5514 122.39 91.0762 122.185 91.6565C121.98 92.2368 121.912 92.8564 121.987 93.4672C121.987 103.395 121.987 113.359 121.987 123.287C121.993 123.953 122.169 124.606 122.498 125.185C123.456 126.777 124.504 128.312 125.637 129.784C126.932 131.462 127.591 133.543 127.499 135.66C127.499 143.581 127.499 151.501 127.499 159.421C127.499 160.845 127.864 161.283 129.287 161.283C137.28 161.283 145.237 161.283 153.194 161.283L155.348 161.21ZM158.194 39.2295V37.6237C158.194 27.623 158.194 17.6219 158.194 7.6576C158.194 6.16114 157.683 5.86918 156.333 5.86918C146.405 5.86918 136.477 5.86918 126.55 5.86918C125.126 5.86918 124.688 6.27067 124.688 7.69414C124.688 17.6219 124.688 27.562 124.688 37.5141C124.688 38.8646 125.017 39.3391 126.513 39.3391C136.368 39.3391 146.259 39.3391 156.15 39.3391L158.194 39.2295Z" fill="#D35F46"/>
<path d="M35.9576 33.4606L33.2567 33.7525V44.7022C31.6507 44.7022 30.1542 44.7022 28.6943 44.7022C28.3658 44.7022 27.8548 43.9359 27.8183 43.4979C27.8183 40.724 27.8183 37.9499 27.8183 35.1395C27.8183 34.008 27.5262 33.4604 26.3217 33.6429C25.1173 33.8254 25.0443 33.3144 25.0078 32.2924C25.0078 28.241 25.008 28.2776 28.8769 28.2776H34.7533C35.6292 28.2776 35.9941 28.5698 35.9576 29.4458C35.9211 30.3218 35.9576 32.0737 35.9576 33.4606Z" fill="#D35F46"/>
<path d="M85.964 44.6662H80.5982C80.5982 44.0822 80.5982 43.5349 80.5982 42.9874C80.5982 40.3594 80.5982 37.6948 80.5982 35.0669C80.5982 34.0814 80.4158 33.4244 79.2478 33.6068C78.0798 33.7893 77.8612 33.2058 77.8247 32.1838C77.8247 28.2419 77.8247 28.2416 81.4746 28.2416C83.2266 28.2416 85.1243 28.2416 86.7303 28.2416C88.3363 28.2416 88.8108 28.7527 88.5918 30.2127C88.5372 30.6123 88.5372 31.0173 88.5918 31.417C88.5918 32.804 88.5918 33.9719 86.7303 33.7165C86.5113 33.7165 85.9274 34.5558 85.9274 34.9938C85.9274 37.6583 85.9274 40.3595 85.9274 43.0605L85.964 44.6662Z" fill="#D35F46"/>
<path d="M91.3659 72.5513H87.1684C86.3289 72.5513 86.0732 72.2231 86.0732 71.4566V67.186H91.3659V72.5513Z" fill="#D35F46"/>
<path d="M88.6968 108.175C88.7894 116.102 85.7937 123.754 80.3437 129.51C74.8937 135.267 67.4173 138.676 59.4974 139.017C55.4557 139.158 51.4259 138.494 47.6437 137.062C43.8614 135.63 40.402 133.46 37.4669 130.678C34.5318 127.895 32.1799 124.557 30.548 120.856C28.9162 117.156 28.0371 113.168 27.9621 109.124C27.8585 101.177 30.8451 93.4995 36.2925 87.7117C41.7399 81.9239 49.2222 78.4777 57.1614 78.0999C61.2133 77.9785 65.2489 78.6626 69.0343 80.1129C72.8198 81.5632 76.2794 83.7507 79.2129 86.5484C82.1464 89.3461 84.4953 92.6985 86.1233 96.411C87.7513 100.123 88.6261 104.122 88.6968 108.175ZM58.2927 133.725C64.8732 133.715 71.1852 131.112 75.8588 126.48C80.5324 121.847 83.1912 115.558 83.2584 108.978C83.2873 105.675 82.6623 102.399 81.4192 99.3378C80.1761 96.2771 78.3397 93.4924 76.0156 91.1446C73.6916 88.7968 70.9257 86.9323 67.8777 85.6582C64.8298 84.3841 61.5597 83.7256 58.2561 83.7209C54.9265 83.715 51.6296 84.3761 48.5597 85.6653C45.4898 86.9545 42.7092 88.8456 40.3821 91.2271C38.0551 93.6085 36.2286 96.4322 35.0106 99.5312C33.7927 102.63 33.2079 105.942 33.2908 109.27C33.4437 115.79 36.1487 121.988 40.8241 126.534C45.4995 131.08 51.7718 133.609 58.2927 133.578V133.725Z" fill="#D35F46"/>
<path d="M149.728 100.255C148.196 100.255 146.845 100.255 145.531 100.255C144.217 100.255 144.144 100.656 144.144 101.715C144.144 107.08 144.144 112.446 144.144 117.848V119.6H138.779V100.364H133.158C133.158 98.6125 133.158 97.0798 133.158 95.5833C133.158 95.2913 133.705 94.8165 133.997 94.8165H148.597C148.807 94.873 148.998 94.9836 149.152 95.1373C149.306 95.2911 149.417 95.4825 149.473 95.6925C149.802 97.0794 149.728 98.6124 149.728 100.255Z" fill="#D35F46"/>
<path d="M152.39 158.326H147.025C147.025 156.793 147.025 155.333 147.025 153.836C147.089 153.644 147.198 153.471 147.345 153.331C147.491 153.191 147.669 153.089 147.864 153.033C149.324 153.033 150.784 153.033 152.354 153.033L152.39 158.326Z" fill="#D35F46"/>
<path d="M150.167 10.2126L154.839 12.9136C153.525 15.286 152.321 17.5125 151.189 19.7754L144.218 31.8564C143.305 33.4989 141.736 34.1924 140.349 33.2434C136.699 30.579 132.794 27.7323 128.925 24.8489L131.589 21.1989C132.137 20.396 132.684 20.7609 133.268 21.1989C135.677 23.0604 138.123 24.8486 140.751 26.856L150.167 10.2126Z" fill="#D35F46"/>
<path d="M58.1886 94.4871C54.5239 94.6402 51.0507 96.167 48.4605 98.7639C45.8703 101.361 44.3526 104.838 44.2091 108.503H38.8804C38.9481 106.994 39.1312 105.494 39.4279 104.013C40.4306 100.021 42.6808 96.4521 45.8514 93.8264C49.0219 91.2007 52.9473 89.6548 57.0569 89.4137C57.4219 89.4137 58.1155 89.8154 58.1155 90.0709C58.225 91.3118 58.1886 92.9907 58.1886 94.4871Z" fill="#D35F46"/>
</svg>
