<svg width="158" height="178" viewBox="0 0 158 178" fill="none" xmlns="http://www.w3.org/2000/svg">
<g clip-path="url(#clip0_8_645)">
<path d="M55.7705 125.174H61.9232C62.5188 125.223 63.1118 125.052 63.5926 124.695C64.0733 124.337 64.4092 123.815 64.5383 123.227C65.6235 119.65 66.8496 116.095 67.9782 112.529C69.1826 108.701 72.0257 106.447 75.6717 106.491C79.3177 106.535 81.998 108.755 83.1916 112.54C84.2767 116.062 85.4704 119.563 86.5664 123.085C86.6998 123.729 87.0655 124.3 87.5927 124.688C88.1199 125.076 88.771 125.253 89.4202 125.185C93.1422 125.185 96.8642 125.185 100.586 125.185C104.601 125.185 107.401 127.187 108.486 130.655C109.571 134.122 108.356 137.284 105.231 139.624C102.312 141.812 99.4034 144 96.441 146.035C95.7993 146.386 95.3137 146.97 95.0822 147.668C94.8506 148.367 94.8902 149.128 95.1931 149.798C96.4193 153.396 97.5695 157.028 98.6981 160.649C99.2696 162.251 99.2951 164 98.7703 165.618C98.2456 167.237 97.2007 168.633 95.8008 169.586C94.4438 170.548 92.8157 171.046 91.1568 171.004C89.4979 170.963 87.8962 170.385 86.5881 169.356C83.528 167.168 80.4571 164.915 77.4404 162.64C76.9412 162.175 76.2864 161.916 75.6066 161.916C74.9268 161.916 74.272 162.175 73.7727 162.64C70.7995 164.827 67.7612 167.015 64.7445 169.203C63.4319 170.271 61.8098 170.878 60.1239 170.934C58.438 170.989 56.7802 170.489 55.4016 169.509C53.994 168.527 52.9519 167.1 52.4408 165.453C51.9297 163.806 51.9787 162.035 52.5802 160.419C53.6653 157.039 54.7505 153.692 55.8356 150.334C56.7037 147.675 56.5843 147.303 54.3815 145.685C51.3757 143.497 48.3048 141.309 45.375 139.045C44.3048 138.208 43.4715 137.103 42.9585 135.84C42.4456 134.576 42.2711 133.199 42.4524 131.846C42.6338 130.494 43.1646 129.213 43.9918 128.132C44.819 127.051 45.9134 126.208 47.1655 125.688C48.1791 125.322 49.2465 125.13 50.3232 125.12C52.1462 125.032 53.9909 125.12 55.8248 125.12L55.7705 125.174ZM56.6169 130.709C54.7288 130.709 52.8407 130.709 50.9525 130.709C49.6178 130.709 48.4242 130.895 47.9576 132.361C47.491 133.827 48.3917 134.549 49.4117 135.315C52.4283 137.502 55.4558 139.69 58.4399 141.878C59.8762 142.833 60.9482 144.251 61.4804 145.901C62.0127 147.55 61.9737 149.333 61.3697 150.957C60.2195 154.603 59.044 158.271 57.8431 161.961C57.5748 162.474 57.5028 163.068 57.6409 163.631C57.7789 164.194 58.1174 164.686 58.5918 165.013C59.0398 165.324 59.5827 165.464 60.1235 165.407C60.6642 165.351 61.1676 165.103 61.5434 164.707C64.437 162.519 67.3633 160.379 70.322 158.286C74.0549 155.562 77.1258 155.562 80.8477 158.286C83.8101 160.474 86.7942 162.661 89.7458 164.849C90.8309 165.692 92.1005 165.856 92.8818 164.707C93.3574 163.843 93.4782 162.826 93.2182 161.874C92.2199 158.33 90.9937 154.84 89.8868 151.318C88.6064 147.183 89.6156 144.197 93.1422 141.637C96.0178 139.537 98.8934 137.415 101.823 135.325C102.843 134.582 103.711 133.783 103.266 132.372C102.822 130.961 101.606 130.709 100.271 130.72C96.6038 130.72 92.936 130.72 89.2683 130.72C87.4968 130.812 85.7482 130.284 84.3185 129.226C82.8888 128.167 81.8659 126.643 81.4229 124.912C80.2871 121.397 79.1622 117.882 78.0481 114.367C77.6575 113.131 77.0824 112.179 75.6392 112.113C74.1959 112.048 73.6317 113.131 73.241 114.367C72.1342 117.889 71.0093 121.404 69.8663 124.912C69.4215 126.642 68.3981 128.165 66.9688 129.223C65.5395 130.281 63.7919 130.81 62.0208 130.72C60.1761 130.72 58.3965 130.709 56.6603 130.709H56.6169Z" fill="#4172BC"/>
<path d="M135.28 120.503C133.771 120.503 132.252 120.503 130.744 120.503C129.217 120.533 127.725 120.046 126.505 119.12C125.286 118.194 124.409 116.882 124.016 115.395C123.116 112.551 122.269 109.685 121.26 106.885C121.01 106.185 120.24 105.67 119.708 105.069C119.166 105.649 118.384 106.163 118.135 106.83C117.115 109.63 116.258 112.496 115.335 115.34C114.963 116.863 114.081 118.209 112.836 119.15C111.592 120.091 110.064 120.569 108.51 120.503C105.319 120.503 102.14 120.503 98.9498 120.503C96.9315 120.503 95.8355 119.508 95.8138 117.802C95.7921 116.095 96.8989 115.012 99.0692 115.001C101.988 115.001 104.896 115.001 107.815 115.001C108.376 115.09 108.948 114.955 109.411 114.624C109.873 114.292 110.189 113.792 110.289 113.229C111.125 110.363 112.091 107.541 112.991 104.686C113.37 103.197 114.234 101.879 115.443 100.942C116.653 100.006 118.14 99.5065 119.665 99.5229C121.189 99.4834 122.682 99.9629 123.902 100.884C125.123 101.805 126 103.113 126.393 104.598C127.304 107.388 128.27 110.166 129.062 112.978C129.107 113.297 129.215 113.605 129.38 113.882C129.545 114.159 129.764 114.399 130.023 114.589C130.282 114.779 130.576 114.914 130.889 114.987C131.201 115.06 131.524 115.068 131.84 115.012C134.64 114.903 137.45 115.012 140.25 115.012C143.961 115.012 146.435 116.708 147.466 119.902C148.497 123.096 147.379 125.831 144.46 127.975C142.105 129.703 139.772 131.464 137.374 133.138C136.894 133.388 136.53 133.817 136.358 134.334C136.186 134.85 136.219 135.413 136.452 135.905C137.537 138.935 138.503 141.976 139.371 145.05C139.67 145.974 139.77 146.951 139.665 147.917C139.56 148.883 139.251 149.816 138.76 150.652C138.27 151.488 137.607 152.21 136.818 152.768C136.029 153.326 135.131 153.708 134.184 153.889C133.206 154.111 132.191 154.109 131.214 153.881C130.237 153.654 129.323 153.208 128.541 152.576C126.132 150.837 123.702 149.119 121.358 147.282C121.141 147.062 120.883 146.887 120.599 146.768C120.315 146.649 120.01 146.588 119.703 146.588C119.395 146.588 119.091 146.649 118.807 146.768C118.523 146.887 118.265 147.062 118.048 147.282C115.878 149.01 113.534 150.64 111.255 152.281C109.486 153.56 107.848 153.451 106.85 152.007C105.851 150.563 106.209 149.119 107.935 147.839C110.452 145.969 112.98 144.109 115.531 142.294C116.728 141.335 118.212 140.814 119.741 140.814C121.27 140.814 122.754 141.335 123.951 142.294C126.458 144.077 128.899 145.969 131.449 147.697C132.138 147.979 132.876 148.12 133.62 148.113C133.844 147.407 133.936 146.665 133.891 145.925C133.066 143.059 132.1 140.237 131.167 137.393C130.564 135.888 130.498 134.219 130.981 132.67C131.464 131.122 132.466 129.791 133.815 128.904C136.246 127.089 138.741 125.36 141.118 123.435C141.649 123.019 141.834 122.144 142.203 121.488C141.597 121.051 140.922 120.721 140.206 120.514C138.6 120.372 136.951 120.514 135.356 120.514L135.28 120.503Z" fill="#4172BC"/>
<path d="M47.2424 120.504C45.7341 120.504 44.2258 120.504 42.7066 120.504C41.1544 120.574 39.6252 120.105 38.3749 119.175C37.1246 118.245 36.2289 116.911 35.8377 115.395C34.8937 112.507 34.0256 109.587 33.0056 106.721C32.7668 106.075 32.0181 105.627 31.5081 105.058C30.9872 105.594 30.2059 106.032 29.9781 106.677C28.9689 109.488 28.0899 112.343 27.2001 115.187C26.8345 116.769 25.9263 118.17 24.6358 119.143C23.3453 120.116 21.7555 120.597 20.1468 120.504C17.1193 120.504 14.1027 120.504 11.086 120.569C10.3561 120.748 9.66477 121.059 9.04597 121.488C9.41492 122.188 9.62111 123.107 10.1854 123.555C12.5184 125.404 14.9708 127.089 17.358 128.872C18.7355 129.764 19.7569 131.118 20.2431 132.694C20.7293 134.27 20.6491 135.969 20.0166 137.492C19.1051 140.281 18.1393 143.059 17.358 145.882C17.3116 146.672 17.4223 147.464 17.6836 148.212C18.432 148.167 19.1667 147.989 19.8538 147.686C22.3062 146.013 24.6718 144.186 27.0808 142.458C28.3153 141.409 29.8776 140.835 31.4918 140.835C33.106 140.835 34.6682 141.409 35.9028 142.458C38.3661 144.219 40.8076 146.013 43.2383 147.818C45.0287 149.141 45.4085 150.684 44.3234 152.117C43.2383 153.55 41.73 153.55 39.9829 152.325C37.6065 150.618 35.23 148.923 32.9079 147.139C32.5193 146.761 31.9999 146.549 31.4592 146.549C30.9186 146.549 30.3992 146.761 30.0106 147.139C27.6884 148.901 25.312 150.607 22.9464 152.325C19.9949 154.512 17.0759 154.611 14.4065 152.718C11.7371 150.826 10.9015 147.96 11.965 144.46C12.8114 141.648 13.6686 138.837 14.6669 136.091C14.8043 135.815 14.8852 135.514 14.9048 135.205C14.9244 134.897 14.8824 134.587 14.7812 134.296C14.68 134.004 14.5217 133.735 14.3157 133.507C14.1096 133.278 13.8601 133.093 13.5818 132.963C11.1728 131.311 8.83979 129.539 6.49592 127.8C5.23768 126.977 4.28157 125.762 3.77397 124.339C3.26637 122.917 3.23527 121.366 3.68545 119.924C4.11982 118.45 5.03087 117.164 6.27362 116.272C7.51636 115.38 9.01938 114.933 10.5435 115.001C13.6144 115.001 16.6961 115.001 19.767 115.001C20.2771 115.066 20.7921 114.93 21.206 114.623C21.6198 114.315 21.901 113.86 21.9915 113.35C22.8596 110.495 23.8145 107.661 24.7152 104.817C25.8003 101.415 28.1767 99.5339 31.4538 99.5339C34.7309 99.5339 37.1399 101.415 38.2033 104.806C39.1039 107.661 40.0589 110.484 40.927 113.339C41.0147 113.84 41.2869 114.29 41.6892 114.598C42.0915 114.906 42.5943 115.05 43.0972 115.001C46.0705 115.001 49.0328 115.001 52.0061 115.001C54.1763 115.001 55.2615 115.997 55.2615 117.747C55.2615 119.497 54.1763 120.482 52.0061 120.515C50.4761 120.515 48.8592 120.504 47.2424 120.504Z" fill="#4172BC"/>
<path d="M74.9354 69.1454H90.6372C103.767 69.1454 113.544 78.9903 113.555 92.27C113.555 93.1889 113.555 94.1187 113.555 95.0376C113.527 95.7823 113.207 96.4855 112.667 96.9938C112.126 97.502 111.408 97.774 110.669 97.7504C109.964 97.6961 109.305 97.3793 108.819 96.8615C108.334 96.3438 108.057 95.6623 108.043 94.95C107.771 92.095 107.88 89.1306 107.12 86.4178C106.133 83.0772 104.111 80.1429 101.35 78.0446C98.589 75.9463 95.2341 74.7942 91.7766 74.757C80.4479 74.6805 69.1192 74.6476 57.7905 74.757C48.6754 74.8445 41.6329 82.4142 41.5136 92.0185C41.5136 92.992 41.5136 93.9765 41.5136 94.95C41.5146 95.667 41.2429 96.357 40.7544 96.878C40.2658 97.3989 39.5977 97.7112 38.8876 97.7504C38.179 97.7496 37.4954 97.486 36.9671 97.01C36.4388 96.5339 36.1028 95.8786 36.0228 95.1688C34.1998 82.983 42.9025 71.1035 55.0776 69.5174C59.7545 68.9267 64.5508 69.222 69.2928 69.1345C71.1592 69.1126 73.0473 69.1454 74.9354 69.1454Z" fill="#4172BC"/>
<path d="M94.0121 46.8528C94.0178 49.4043 93.524 51.9319 92.559 54.2907C91.594 56.6495 90.1768 58.7932 88.3886 60.5989C86.6003 62.4046 84.4762 63.8369 82.1379 64.8136C79.7996 65.7904 77.2931 66.2925 74.762 66.291C69.6574 66.291 64.7616 64.2484 61.1501 60.6119C57.5386 56.9753 55.5067 52.0423 55.501 46.8966C55.5096 41.7497 57.5416 36.8161 61.1519 33.1767C64.7622 29.5373 69.6563 27.4889 74.762 27.4802C79.86 27.486 84.7481 29.5278 88.356 33.1587C91.964 36.7895 93.9977 41.7136 94.0121 46.8528ZM88.4671 47.0169C88.5137 43.3605 87.1262 39.8334 84.6063 37.2031C82.0864 34.5727 78.6381 33.0519 75.0115 32.9715C73.1977 32.9396 71.3956 33.2693 69.7086 33.9417C68.0216 34.6141 66.483 35.616 65.1812 36.8896C63.8795 38.1633 62.8402 39.6837 62.1231 41.3634C61.406 43.0432 61.0252 44.8492 61.0026 46.6778C60.9739 48.4887 61.2995 50.2876 61.9609 51.9717C62.6222 53.6557 63.6064 55.1918 64.857 56.4921C66.1077 57.7925 67.6003 58.8316 69.2496 59.5501C70.8989 60.2686 72.6725 60.6523 74.469 60.6794C76.2825 60.726 78.0869 60.4077 79.777 59.7432C81.4671 59.0787 83.0088 58.0813 84.312 56.8092C85.6153 55.5372 86.654 54.0161 87.3675 52.3347C88.0809 50.6534 88.4547 48.8455 88.4671 47.0169Z" fill="#4172BC"/>
<path d="M61.0027 94.8517C61.0027 96.7003 61.0027 98.538 61.0027 100.387C61.0432 100.766 61.0055 101.15 60.892 101.514C60.7784 101.878 60.5915 102.214 60.3429 102.501C60.0942 102.789 59.7893 103.022 59.4472 103.185C59.1051 103.348 58.7332 103.438 58.355 103.45C57.9621 103.474 57.5688 103.412 57.2022 103.267C56.8356 103.123 56.5045 102.9 56.2319 102.614C55.9594 102.328 55.7519 101.985 55.6238 101.61C55.4957 101.235 55.4501 100.836 55.4902 100.441C55.4251 96.6456 55.4251 92.8499 55.4902 89.0541C55.4517 88.6594 55.4968 88.261 55.6225 87.8851C55.7482 87.5093 55.9516 87.1646 56.2194 86.874C56.4872 86.5834 56.8131 86.3535 57.1756 86.1994C57.5382 86.0454 57.9291 85.9707 58.3224 85.9803C58.7003 85.988 59.0726 86.0736 59.4163 86.2319C59.7601 86.3902 60.0681 86.6178 60.3213 86.9007C60.5744 87.1836 60.7674 87.5157 60.8883 87.8766C61.0093 88.2376 61.0556 88.6197 61.0243 88.9994C61.0895 90.9465 61.0243 92.9046 61.0243 94.8517H61.0027Z" fill="#4172BC"/>
<path d="M94.0109 94.8086C94.0109 96.6573 94.0109 98.5169 94.0109 100.366C94.0109 102.214 92.9258 103.472 91.2222 103.45C90.8405 103.449 90.4632 103.367 90.1145 103.211C89.7658 103.054 89.4534 102.826 89.1971 102.541C88.9408 102.256 88.7463 101.92 88.626 101.555C88.5057 101.19 88.4623 100.803 88.4985 100.42C88.4406 96.6136 88.4406 92.8069 88.4985 89.0002C88.4686 88.6177 88.5174 88.2332 88.6416 87.8706C88.7659 87.508 88.963 87.1751 89.2207 86.8928C89.4783 86.6105 89.791 86.3847 90.1391 86.2297C90.4872 86.0747 90.8633 85.9938 91.2438 85.992C91.6231 85.9815 92.0004 86.0517 92.351 86.198C92.7016 86.3442 93.0177 86.5632 93.2787 86.8408C93.5397 87.1184 93.7398 87.4483 93.866 87.8091C93.9922 88.1698 94.0415 88.5533 94.0109 88.9345C94.076 90.8926 94.0109 92.8506 94.0109 94.8086Z" fill="#4172BC"/>
<path d="M16.8159 37.4233C14.3309 37.4233 12.8552 35.1371 14.0271 33.4088C15.8397 30.7902 17.7846 28.2674 19.8542 25.8501C20.3114 25.3763 20.9328 25.0992 21.5881 25.0768C22.2434 25.0544 22.882 25.2883 23.37 25.7298C23.9187 26.1385 24.2863 26.748 24.3938 27.4271C24.5013 28.1062 24.3403 28.8008 23.9452 29.3614C22.1655 31.8044 20.3136 34.1891 18.3893 36.5154C17.9328 36.9245 17.397 37.2336 16.8159 37.4233Z" fill="#4172BC"/>
<path d="M144.557 76.6504V72.8547C144.509 72.4756 144.538 72.0906 144.643 71.7233C144.748 71.356 144.927 71.0143 145.167 70.7192C145.408 70.424 145.707 70.1817 146.044 70.0072C146.381 69.8326 146.751 69.7296 147.129 69.7043C147.509 69.6662 147.892 69.711 148.253 69.8356C148.614 69.9601 148.944 70.1616 149.221 70.4262C149.498 70.6908 149.715 71.0124 149.858 71.3692C150 71.7259 150.065 72.1095 150.048 72.4937C150.048 75.4253 150.048 78.3678 149.885 81.2447C149.867 81.6009 149.779 81.9498 149.625 82.2707C149.47 82.5916 149.254 82.878 148.987 83.1128C148.721 83.3475 148.411 83.5258 148.075 83.6371C147.739 83.7484 147.384 83.7904 147.031 83.7606C146.323 83.7213 145.657 83.4083 145.172 82.8868C144.687 82.3652 144.42 81.6752 144.427 80.9603C144.427 80.1946 144.492 79.4399 144.535 78.6741L144.633 76.552L144.557 76.6504Z" fill="#4172BC"/>
<path d="M65.636 1.03027C66.3615 1.0707 67.0508 1.36294 67.5868 1.85743C68.1229 2.35192 68.4726 3.01817 68.5767 3.74307C68.6175 4.42915 68.4085 5.10665 67.9889 5.64841C67.5694 6.19018 66.9681 6.55896 66.298 6.68561C63.5562 7.26172 60.8036 7.80866 58.0402 8.32642C57.3471 8.48903 56.6184 8.37174 56.01 7.99968C55.4017 7.62761 54.9619 7.03032 54.7848 6.33556C54.6825 6.00663 54.6457 5.66056 54.6766 5.31726C54.7075 4.97395 54.8055 4.64021 54.9648 4.33521C55.1242 4.03021 55.3418 3.76 55.6051 3.54011C55.8685 3.32021 56.1724 3.15496 56.4993 3.05392C59.5159 2.29915 62.5868 1.75223 65.636 1.03027Z" fill="#4172BC"/>
<path d="M2.99107 57.7143C4.02194 54.6405 4.98768 51.5229 6.12707 48.4929C6.42203 47.8987 6.93292 47.4421 7.55341 47.2179C8.1739 46.9938 8.85623 47.0195 9.45841 47.2896C10.0842 47.4964 10.6074 47.9372 10.9204 48.5213C11.2333 49.1054 11.312 49.7882 11.1403 50.4291C10.3012 53.3461 9.39331 56.2631 8.4167 59.1801C8.18589 59.7973 7.7322 60.3036 7.14659 60.5978C6.56098 60.8919 5.88673 60.9521 5.25898 60.7662C4.59631 60.5874 4.01247 60.1893 3.60119 59.6358C3.1899 59.0824 2.97504 58.4056 2.99107 57.7143Z" fill="#4172BC"/>
<path d="M0.994817 78.6961C0.994817 77.4272 0.940561 76.2239 0.994817 75.0425C1.00166 74.6738 1.08178 74.3103 1.2305 73.9733C1.37922 73.6364 1.5935 73.3331 1.86062 73.0812C2.12774 72.8292 2.44228 72.6338 2.78563 72.5067C3.12898 72.3795 3.49415 72.3231 3.85953 72.3407C4.21181 72.3405 4.56052 72.4117 4.88492 72.5502C5.20931 72.6887 5.50275 72.8915 5.74777 73.1467C5.99279 73.4018 6.18439 73.7041 6.31113 74.0354C6.43788 74.3668 6.4972 74.7204 6.48555 75.0754C6.63747 77.8392 6.77852 80.6067 6.90873 83.3779C6.94762 83.7442 6.91358 84.1146 6.80859 84.4675C6.7036 84.8203 6.52978 85.1485 6.29732 85.4328C6.06487 85.717 5.77844 85.9516 5.45487 86.1229C5.13129 86.2941 4.77707 86.3984 4.41296 86.4298C3.705 86.4935 3.00091 86.2712 2.45554 85.8117C1.91017 85.3522 1.56819 84.6932 1.50483 83.9795C1.32036 82.2074 1.15759 80.4135 0.994817 78.6961Z" fill="#4172BC"/>
<path d="M44.3032 12.5707C43.9116 13.2299 43.417 13.8209 42.8383 14.3209C40.5704 15.8633 38.2157 17.2744 35.8827 18.6964C35.586 18.9095 35.2493 19.0594 34.8933 19.1369C34.5372 19.2145 34.1692 19.2181 33.8118 19.1474C33.4543 19.0768 33.1149 18.9334 32.8142 18.7261C32.5135 18.5188 32.2579 18.2519 32.063 17.9416C31.8523 17.6565 31.702 17.3306 31.6215 16.9844C31.5411 16.6382 31.5321 16.2791 31.5952 15.9292C31.6583 15.5794 31.7921 15.2463 31.9883 14.9508C32.1846 14.6553 32.439 14.4037 32.7358 14.2115C35.2316 12.527 37.7816 10.9299 40.4076 9.44225C42.274 8.42495 44.3575 9.89073 44.3032 12.5707Z" fill="#4172BC"/>
<path d="M127.563 22.8862C128.342 23.1943 129.073 23.6143 129.733 24.1333C131.676 26.321 133.564 28.5088 135.365 30.8715C135.599 31.1558 135.772 31.4856 135.874 31.8404C135.977 32.1951 136.005 32.5672 135.958 32.9336C135.911 33.2999 135.79 33.6526 135.602 33.9697C135.414 34.2868 135.164 34.5615 134.866 34.7767C134.576 34.9996 134.244 35.1616 133.89 35.2533C133.537 35.3449 133.169 35.3643 132.808 35.3103C132.447 35.2562 132.1 35.1299 131.788 34.9387C131.476 34.7474 131.206 34.4952 130.992 34.1969C129.245 32.1295 127.52 30.0293 125.794 27.9509C125.002 26.9992 124.557 25.8944 125.317 24.8224C125.986 24.0886 126.74 23.4385 127.563 22.8862Z" fill="#4172BC"/>
<path d="M83.148 0.789216C86.067 1.30334 89.0077 1.75183 91.905 2.3644C92.2546 2.44007 92.5855 2.58605 92.8779 2.79364C93.1703 3.00122 93.4181 3.26614 93.6065 3.57252C93.7949 3.8789 93.9201 4.22045 93.9746 4.57673C94.029 4.93302 94.0116 5.2967 93.9233 5.64604C93.8484 6.00982 93.7031 6.35514 93.4955 6.66214C93.2879 6.96914 93.0223 7.23175 92.7138 7.43501C92.4053 7.63827 92.06 7.77819 91.6978 7.84662C91.3355 7.91505 90.9634 7.91067 90.6028 7.8338L82.6272 6.53208C81.8962 6.45728 81.2217 6.10225 80.7431 5.54035C80.2645 4.97846 80.0183 4.25264 80.0554 3.51296C80.1296 2.74719 80.4909 2.03887 81.0657 1.53265C81.6405 1.02642 82.3853 0.760489 83.148 0.789216Z" fill="#4172BC"/>
<path d="M142.388 44.6971C142.8 45.0691 143.907 45.6378 144.287 46.513C145.372 49.193 146.348 51.9824 147.238 54.7499C147.356 55.0993 147.401 55.4694 147.371 55.8372C147.341 56.2049 147.236 56.5626 147.063 56.8878C146.89 57.213 146.653 57.4989 146.366 57.7276C146.078 57.9564 145.747 58.1231 145.394 58.2175C144.716 58.4285 143.983 58.3634 143.352 58.0363C142.721 57.7091 142.243 57.1459 142.019 56.4673C141.042 53.7873 140.087 51.0854 139.208 48.3616C138.557 46.4692 139.794 44.7518 142.388 44.6971Z" fill="#4172BC"/>
<path d="M107.392 8.00883C107.666 7.99594 107.939 8.0407 108.195 8.14016C111.006 9.73722 113.86 11.2795 116.583 13.0188C117.1 13.4374 117.431 14.0453 117.505 14.7096C117.578 15.3738 117.387 16.0402 116.974 16.563C116.65 17.1056 116.134 17.5044 115.53 17.6789C114.926 17.8535 114.279 17.7909 113.718 17.5038C110.984 16.0926 108.293 14.5502 105.699 12.9313C105.203 12.6281 104.832 12.1554 104.653 11.5992C104.473 11.043 104.498 10.4405 104.723 9.90128C104.887 9.32645 105.242 8.82548 105.727 8.48132C106.212 8.13717 106.8 7.97044 107.392 8.00883Z" fill="#4172BC"/>
<path d="M12.4433 103.986C12.3565 105.736 11.7705 106.71 10.4901 107.136C9.92943 107.376 9.2992 107.39 8.72835 107.177C8.15751 106.963 7.68917 106.538 7.41914 105.988C6.59086 104.343 5.91171 102.626 5.38996 100.857C5.22025 100.271 5.27695 99.6418 5.54871 99.096C5.82047 98.5501 6.28714 98.1281 6.85488 97.9149C7.36579 97.5807 7.9865 97.4622 8.58324 97.585C9.17999 97.7078 9.705 98.062 10.0452 98.5713C10.9534 100.325 11.7543 102.133 12.4433 103.986Z" fill="#4172BC"/>
<path d="M146.728 98.4617C146.106 100.324 145.382 102.15 144.558 103.931C144.399 104.202 144.189 104.439 143.939 104.627C143.689 104.816 143.404 104.953 143.102 105.03C142.799 105.107 142.484 105.123 142.175 105.078C141.867 105.032 141.57 104.925 141.302 104.762C140.709 104.54 140.223 104.095 139.946 103.52C139.669 102.946 139.622 102.286 139.816 101.678C140.258 100.111 140.795 98.5734 141.422 97.0725C141.633 96.4412 142.079 95.9173 142.666 95.6112C143.253 95.3051 143.935 95.2407 144.569 95.4317C145.903 95.7489 146.511 96.788 146.728 98.4617Z" fill="#4172BC"/>
</g>
<defs>
<clipPath id="clip0_8_645">
<rect width="157.029" height="176.76" fill="white" transform="translate(0.972656 0.788574)"/>
</clipPath>
</defs>
</svg>
